<svg id="Layer_1" data-name="Layer 1" xmlns="http://www.w3.org/2000/svg" viewBox="0 0 89.76909 89.73172"><defs><style>.cls-1{fill:#eed94e;}.cls-2{fill:#323330;}</style></defs><path class="cls-1" d="M244.436,157.98442V68.35267a.90992.90992,0,0,1,.46088-.04036q44.38956-.003,88.77911-.00128c.58621,0,.52382-.06052.52384.52362q.00112,44.34435-.00048,88.68869a1.42967,1.42967,0,0,1-.02622.46219.94106.94106,0,0,1-.46152.03931q-44.40717.00286-88.81434-.00006A.91209.91209,0,0,1,244.436,157.98442Z" transform="translate(-244.43602 -68.30267)"/><path class="cls-2" d="M313.08452,150.95543a18.31456,18.31456,0,0,1-9.98413-2.702,15.02293,15.02293,0,0,1-5.12855-5.5473c-.1384-.25283-.15931-.3832.13819-.5523q3.11276-1.76937,6.19853-3.586c.27618-.1622.3919-.12713.55884.13757a9.69,9.69,0,0,0,4.33,4.03762,8.8141,8.8141,0,0,0,6.7734.20117,3.82987,3.82987,0,0,0,2.47448-5.00488,4.13844,4.13844,0,0,0-1.60187-1.996,21.5295,21.5295,0,0,0-3.93049-2.02963,58.14451,58.14451,0,0,1-6.01723-2.81182,14.19974,14.19974,0,0,1-4.51664-3.90337,11.659,11.659,0,0,1-2.05128-7.1253,10.68643,10.68643,0,0,1,8.39078-10.562,16.11094,16.11094,0,0,1,9.2871.34223,12.09276,12.09276,0,0,1,6.50162,5.687c.13764.23368-.00107.29235-.14782.3865q-2.9968,1.92271-5.98873,3.85293c-.23565.15294-.34232.13969-.48254-.10993a7.32226,7.32226,0,0,0-1.47629-1.91976,5.17934,5.17934,0,0,0-5.56385-1.04231c-2.81626,1.05286-2.67578,4.49343-1.25626,5.92181a7.94617,7.94617,0,0,0,1.97457,1.4c1.71136.90225,3.52636,1.57389,5.28476,2.3715a26.08571,26.08571,0,0,1,6.35534,3.77356,10.89457,10.89457,0,0,1,3.85545,7.98013,11.90737,11.90737,0,0,1-1.37043,6.75605,11.33581,11.33581,0,0,1-6.56272,5.13124A19.06209,19.06209,0,0,1,313.08452,150.95543Z" transform="translate(-244.43602 -68.30267)"/><path class="cls-2" d="M293.18071,124.77893c0,4.89372.03318,9.78778-.0162,14.681a12.65339,12.65339,0,0,1-1.39453,5.6653,9.75763,9.75763,0,0,1-5.9594,5.036,16.09906,16.09906,0,0,1-10.988-.28169,12.51177,12.51177,0,0,1-6.68-6.33955c-.1165-.23115-.07923-.3306.13648-.46q3.16254-1.89657,6.31009-3.818c.23417-.14317.31755-.10124.44252.123a13.71017,13.71017,0,0,0,1.58331,2.37161,5.236,5.236,0,0,0,6.1639,1.18767,3.71727,3.71727,0,0,0,1.86072-2.90139,12.39084,12.39084,0,0,0,.16216-2.25194q-.00263-13.892-.0101-27.78407c-.00049-.39684.07453-.5241.5015-.52,2.43262.02341,4.86558.01134,7.29842.01136.6186,0,.61876.00005.61877.599q.00006,7.34081,0,14.68161Z" transform="translate(-244.43602 -68.30267)"/></svg>