<svg id="Layer_1" data-name="Layer 1" xmlns="http://www.w3.org/2000/svg" viewBox="0 0 445.51258 363.4396"><defs><style>.cls-1{fill:#00c1ea;}.cls-2{fill:#01c1ea;}.cls-3{fill:#01c2ea;}</style></defs><g id="_4tFdw3.tif" data-name="4tFdw3.tif"><path class="cls-1" d="M1669.89,1218.2c-9.04-24.18994-8.99-23.99-35.04992-24.09-6.09009-.02-8.47009,2.20007-10.45008,7.59-11.16,30.37012-22.71008,60.6001-34.12,90.87012h31.55005a14.99642,14.99642,0,0,0,4.61987-7.74011c.59009-2.07,1.28-4.53992,3.41-5.18006,8.05993-2.41992,16.37-1.2699,24.56994-.8999,5.43006.25,5.9801,5.42993,7.67017,9.21a10.282,10.282,0,0,0,4.27991,4.61011h31.55993C1688.58008,1267.78,1679.16992,1243.02,1669.89,1218.2ZM1648.85,1255.26c-4.92-.14-9.84-.04-15.88-.04,3.37012-11.28,6.51-21.79,9.66-32.31006.62-.11987,1.24-.25,1.87-.36987,2.89,9.29993,5.83008,18.6,8.66992,27.91992C1654.33008,1254.28,1652.36,1255.35,1648.85,1255.26Z" transform="translate(-1488.16873 -929.13466)"/><path class="cls-1" d="M1933.68131,1144.21c-4.42843,5.77653-4.26845,13.12694-6.6495,19.63244-11.84251,32.35561-36.61042,49.97457-67.67377,60.88345-4.5981,1.61479-5.508-.0798-5.2119-4.046a4.07759,4.07759,0,0,0-.00581-.92493c-2.19346-13.99365,1.37509-22.66986,16.118-29.60675,30.98229-14.57789,38.06658-43.12253,36.20844-74.76519-1.13617-19.34811-7.37122-36.78182-20.73-51.22688-4.29479-4.644-4.89421-8.27138,1.63177-11.44133,5.11378-2.484,8.48632-7.05516,12.24869-12.01554,18.22848,16.15509,27.699,36.65956,32.07447,59.94194.31636,1.68339-.42876,3.83727,1.98954,4.62319Z" transform="translate(-1488.16873 -929.13466)"/><path class="cls-1" d="M1788.6,1222.17993c-.79993-17.03-11.67-27.52-29.47-27.84-15.76-.2699-31.53.13-47.29992-.16-5.14014-.1-6.93006,1.29-6.88013,6.67.33008,30.56994.31006,61.15.41,91.72009h29.70007c.09985-10.18006.41992-20.38013.19995-30.56006-.11-4.93,1.67993-6.47,6.44995-6.32007a135.81772,135.81772,0,0,0,20.38013-.43994C1779.46,1253.15991,1789.45,1240.3999,1788.6,1222.17993Zm-46.17,14.07007c-12.13989.1499-5.77991-8.87-6.98-13.89-1.78-7.46009,2.73-8.91,8.04-7.99,10.57007.17,15.88,4.24,15.55005,11.25C1758.72,1232.42993,1752.56006,1236.11,1742.42993,1236.25Z" transform="translate(-1488.16873 -929.13466)"/><path class="cls-2" d="M1800.02754,1292.57426c1.76654-28.32817.33712-56.68467.73245-85.02564.18505-13.266.03249-13.26811,13.1426-13.26865,17.68512-.00073,17.68546-.00076,17.685,17.78349q-.00107,40.25541-.00292,80.5108Z" transform="translate(-1488.16873 -929.13466)"/><path class="cls-1" d="M1872.13,1001.66c-4.6-.82-9.73.5-11.04992-6.91-1.17017-6.6-1.81006-11.56,5.13989-15.39,6.3501-3.5,7.22-8.79,2.23-14.59-2.01-2.34-3.84-4.84-5.60986-7.37-4.19007-5.97-8.96009-6.87-14.84009-2.23-3.14,2.48-5.81006,6.49-10.98,2.32-4.65-3.76-10.62-5.51-7.87-13.96,2.49-7.64-1.16-12.49-9.76-12.78a43.4656,43.4656,0,0,1-7.30993-1.17c-7.52-1.6-11.78,1.05-12.97009,8.95-.56995,3.76.58,8.63-6.23,9.39-6.21008.68-11.61,3.12-15.53991-4.64-3.56006-7.04-9.39014-7.09-15.3501-2.14a75.31329,75.31329,0,0,1-6.67993,4.99c-6.59009,4.38-7.32007,9.33-2.06006,15.37,2.79,3.2,5.37,6.17,1.52,11.12-3.63,4.67-5.53,9.96-13.34009,7.33-8.02-2.7-12.28992,1.47-13.19995,9.48-.32007,2.76-.33,5.58-.90991,8.28-1.57007,7.32,1.31994,11.16,8.65991,12.15,4.37.58,8.74.21,9.82007,6.99,1,6.25,1.84,10.94006-4.65,14.62-7.19006,4.07007-7.92,9.65-2.22009,15.92A61.66777,61.66777,0,0,1,1744,1054.01c4.23,6.09,9.03,6.63,14.89,2.13,2.86-2.20007,5.34-6.68005,10.13-2.67,4.43994,3.72,12.16992,5.25,8.7,13.03-.96,11.23.63,13.18994,11.05,14.46,2.46.30005,4.93994.38,7.37.81006,6.96,1.25,10.69007-1.65,11.28992-8.59009.40015-4.73.72009-8.61987,7.11011-9.83,6.18994-1.18006,10.96-2.22,14.6499,4.49,4.06006,7.37,9.81006,7.64,16,2.15,1.15015-1.02,2.43006-1.9,3.66-2.84009,10.44006-7.87988,10.4801-8.36987,3.39-19.12988-1.22-1.8501-4.04-3.42-2.08008-6.38,3.95008-5.96008,6.67017-13.41,16.64014-10.26,6.65991,2.1,10.62988-1.1,11.35986-8.18.42017-3.98,1.18018-7.92,1.63013-11.9C1880.43994,1005.61,1877.45,1002.61,1872.13,1001.66Zm-69.47009,34.69c-16.04992-.4-29.77991-14.43-29.93994-30.62-.16992-16.48,14.01-30.47,30.8501-30.42a30.28473,30.28473,0,0,1,30.1499,30.86C1833.54,1022.96,1819.34009,1036.76,1802.65991,1036.35Z" transform="translate(-1488.16873 -929.13466)"/><path class="cls-1" d="M1488.169,1134.65007c.1005-41.11953,24.93377-73.12929,68.18137-86.41682,8.24-2.53168,12.41133-5.944,15.16247-14.39108,21.49232-65.98989,87.02031-97.8251,147.35338-88.37058,2.04643.32069,5.87255-1.07965,5.52588,2.87582-.267,3.046.97715,6.47813-2.77223,9.13156-9.52531,6.741-18.04,12.53131-31.24921,13.7822-55.00725,5.20911-87.16729,35.61735-98.46439,89.5991-.98634,4.71312-2.587,7.33734-8.00264,8.09814a116.48949,116.48949,0,0,0-29.378,8.05035c-25.0931,10.64375-40.85584,32.381-39.84054,58.19566,1.09225,27.77122,12.39846,50.64384,38.848,62.45977,8.91335,3.98193,11.71333,8.08449,11.24615,17.31713-.77234,15.26333-.20951,15.29174-15.07018,10.10663C1512.86836,1212.23368,1488.06848,1175.78832,1488.169,1134.65007Z" transform="translate(-1488.16873 -929.13466)"/><path class="cls-1" d="M1646.87,1157.87a24.83248,24.83248,0,0,0-5.75-8.26c-3.42-3.12-2.47-4.29993.93005-6.53,7-4.59,9.19995-11.41,6.77-19.39-2.43006-8-8.77-10.79-16.44007-10.94995-10.19006-.19995-20.39.21-30.56994-.16992-5.16-.19007-6.24,1.88989-6.06006,6.48.30005,7.69995.09009,15.41992.08008,23.13989,0,7.41.46,14.8501-.13013,22.21-.54,6.7201,2.1001,7.86011,8.31006,8.19007,8.47.44006,11.83008-2.13,10.46-10.63a33.09558,33.09558,0,0,1,0-8.31995c.17-1.86-1.38989-4.8,1.82007-5.27a5.745,5.745,0,0,1,5.53,2.83c2.72,4.47,5.22,9.08008,7.74,13.67,3.41992,6.25,17.24,11.6,21.62988,6.9C1655.31006,1167.35,1648.84009,1162.43994,1646.87,1157.87Zm-28.45008-20.73c-3.19995.68995-4.0199-1.91-4.23-6.47009-.27-5.93994,2.76-6.54992,7.32007-6.16992,4.31006.35,9.63.09,9.35,6.11C1630.58008,1136.88,1624.88,1136.3999,1618.41992,1137.14Z" transform="translate(-1488.16873 -929.13466)"/><path class="cls-3" d="M1657.85708,1142.14785c-.00093-7.72116.2142-15.45051-.08034-23.16044-.18124-4.74377,1.32381-6.527,6.27964-6.40692,12.35823.29957,24.73232.27309,37.0922.00975,4.64632-.099,6.51817,1.033,6.528,6.10022.01027,5.30425-1.735,7.09337-6.95585,6.78119-6.16039-.36834-12.36392.053-18.54161-.12114-3.8861-.10954-5.54284,1.24348-5.45967,5.32243.083,4.07105,2.44441,4.3043,5.46121,4.26831,4.94545-.059,9.894-.09373,14.83779.0172,3.98084.08933,8.5211-1.67653,8.585,5.77832.06693,7.80488-4.631,6.38057-9.08595,6.41558-4.63679.03644-9.28227.19017-13.90872-.02874-4.42183-.20921-5.89706,1.65364-5.93658,5.98377-.04233,4.638,2.03781,5.81932,6.20876,5.69778,6.79512-.198,13.61362.2168,20.39741-.12281,5.71628-.28615,5.52736,3.1338,5.5749,7.10427.04623,3.8618-.31772,6.43329-5.338,6.33221-13.28752-.2675-26.58677-.24331-39.87536-.00353-4.49778.08115-5.98053-1.50759-5.85011-5.8795C1658.02912,1158.21294,1657.858,1150.17784,1657.85708,1142.14785Z" transform="translate(-1488.16873 -929.13466)"/><path class="cls-2" d="M1754.60073,1129.74256c-3.67162,1.01283-6.50287.64337-8.46621-3.29735-1.49677-3.00424-4.70967-3.94985-7.97293-3.655-2.50321.22616-5.08984.91545-5.21716,4.14559-.101,2.563,1.56212,3.73592,3.92566,4.36,5.66756,1.4966,11.37447,2.9094,16.92154,4.7817,8.4455,2.85062,13.48255,8.41834,13.10523,17.88618-.33525,8.41193-6.043,15.33038-14.90775,17.92163-8.27294,2.41825-16.53915,1.81677-24.71834-.31219a16.11124,16.11124,0,0,1-10.71927-8.26207c-1.637-3.25934-5.46991-6.80037-1.58061-10.65134,2.687-2.66053,14.68286-.74506,16.36312,2.38851,1.54119,2.87421,3.26482,5.36706,6.63092,5.84012,4.03325.56683,8.59526,1.06935,10.23737-3.82606,1.77039-5.2779-2.40484-7.04435-6.39248-8.257-5.8906-1.79144-12.02606-2.80533-17.51492-5.82171-5.544-3.04671-9.35786-7.54586-9.16792-13.95432.19447-6.5607,3.36726-11.96455,9.73751-14.59086,10.15134-4.18526,20.42873-3.982,30.6391-.02513a9.50871,9.50871,0,0,1,2.38025,1.40165c3.795,2.97951,7.45212,7.03013,6.34144,11.57466C1763.21612,1131.51859,1757.86945,1128.84493,1754.60073,1129.74256Z" transform="translate(-1488.16873 -929.13466)"/><path class="cls-1" d="M1798.48086,1112.68378c7.41524.00188,14.84991.33245,22.23962-.10142,6.0461-.355,5.44709,3.38992,5.27648,7.1176-.15652,3.42015,1.31071,7.245-4.88341,7.68557-13.68522.97344-13.65936,1.32909-13.66006,15.26421-.0004,8.02561-.17474,16.05588.04271,24.07556.2334,8.60807-6.16435,4.86753-9.85668,5.119-3.60488.24552-9.13541,2.54786-8.84131-5.23254.38448-10.17179-.44538-20.40679.26662-30.54312.53486-7.61482-2.29851-9.57663-9.31171-8.96869-4.40956.38224-10.05557,2.20664-9.95488-6.39062.07586-6.47591,1.78762-8.68791,8.30093-8.15129C1784.85056,1113.11427,1791.68355,1112.6819,1798.48086,1112.68378Z" transform="translate(-1488.16873 -929.13466)"/></g></svg>