<svg id="Layer_1" data-name="Layer 1" xmlns="http://www.w3.org/2000/svg" viewBox="0 0 138.65571 138.61326">
  <defs>
    <style>
      .cls-1 {
        fill: #7be4f9;
      }

      .cls-2 {
        fill: #49dff5;
      }

      .cls-3 {
        fill: #a3f0fe;
      }

      .cls-4 {
        fill: #fe5a71;
      }

      .cls-5 {
        fill: #fe637e;
      }

      .cls-6 {
        fill: #fe637f;
      }

      .cls-7 {
        fill: #fdfdfd;
      }

      .cls-8 {
        fill: #fe5a72;
      }
    </style>
  </defs>
  <g id="BgY0Lv.tif">
    <g>
      <path class="cls-1" d="M296.25422,321.37461a44.6643,44.6643,0,0,1-9.69763-2.0063,24.03325,24.03325,0,0,1-2.37936-.78486,40.71152,40.71152,0,0,1-8.82631-3.49158,52.80444,52.80444,0,0,1-9.7181-5.78255c-.529-.399-1.25616-.52641-1.6071-1.1695l-2.05088-1.64731a7.81159,7.81159,0,0,1-2.38164-1.98859,67.53581,67.53581,0,0,1-16.51375-22.15355,1.66527,1.66527,0,0,1,.1429-1.81749,76.12007,76.12007,0,0,1,5.22573-6.55741c.51841-.64182,1.17022-.47592,1.84378-.29769,3.23574.85614,6.46734,1.7314,9.7214,2.51266a2.37551,2.37551,0,0,1,1.61939,1.3086c7.586,13.009,18.611,21.61322,33.40085,24.66925,16.80112,3.47163,31.882-.43706,44.80383-11.97987a50.49853,50.49853,0,0,0,11.44557-15.121c.17271-.342.22823-.79733.78539-.91354a60.93192,60.93192,0,0,1,3.7317,7.71685c.61347,1.40294,1.42161,2.03155,2.92626,1.64573,1.188-.44312,2.47484.15514,3.65729-.34629l1.16447-.02557a14.95842,14.95842,0,0,1,4.05184-.15015c.30406-.00331.404.251.25372.54344-2.12354,4.02913-4.727,7.76263-7.16338,11.599a8.01626,8.01626,0,0,1-1.70852,2.06642,7.69789,7.69789,0,0,0-1.8867,2.03822,8.1708,8.1708,0,0,1-1.3405,1.58219l-1.50908,1.52231a15.89593,15.89593,0,0,1-1.97727,1.73385,2.52892,2.52892,0,0,0-1.23513,1.14747c-.48325.78294-1.36135,1.0867-2.01823,1.659a71.62822,71.62822,0,0,1-15.13989,9.17356c-2.43393,1.05812-4.93643,1.95884-7.40782,2.931-.94484.28367-1.91814.46108-2.85787.76381-2.7002.37581-5.25879,1.454-8.00342,1.60938a70.54844,70.54844,0,0,1-16.12135.39358l.018.01106C298.46769,321.24265,297.287,321.91664,296.25422,321.37461Z" transform="translate(-236.60116 -183.61653)"/>
      <path class="cls-2" d="M237.47244,264.118c-.52961-1.40014-.24864-2.89659-.51553-4.32794-.326-.80112.10742-1.69341-.299-2.48487l-.00583-8.68311c.42039-.78281-.02039-1.66968.29861-2.46474q.253-2.19062.50593-4.38121a40.49326,40.49326,0,0,1,1.19165-5.70736,29.0714,29.0714,0,0,1,2.04352-6.73739c.24923-.70684.4498-1.43138.76951-2.11262a63.94413,63.94413,0,0,1,12.89418-20.62888,15.76857,15.76857,0,0,1,1.47115-1.5033l.94538-.95816c.745-.7765,1.48415-1.55885,2.30252-2.26077A64.92062,64.92062,0,0,1,276.62481,190.199c.24-.11233.46222-.26243.69272-.39493a26.93413,26.93413,0,0,1,2.953-1.17105l7.10777-2.4208a27.33874,27.33874,0,0,1,5.33726-1.21682l5.97268-.86982c1.20469-.44313,2.50233.13482,3.70446-.33639,4.21943-.7232,7.0431.80565,8.4846,4.95694a17.55785,17.55785,0,0,0,2.2148,3.48434c1.15946.9949.18227,1.65414-.37474,2.37939-1.586,2.07122-3.214,4.11224-4.74041,6.2264a3.38037,3.38037,0,0,1-2.9735,1.55837c-21.1624.61065-39.039,13.10964-46.50676,32.655a49.54388,49.54388,0,0,0-.01087,35.7614c.18358.501.34915,1.0086.63217,1.82939-3.203-.89747-6.21138-1.65414-9.15848-2.60089a2.65935,2.65935,0,0,0-3.51963,1.178c-1.2108,1.83859-2.56853,3.58272-3.90841,5.33285-.30314.396-.62978.92491-1.26788.85391-.82876-.09223-.48256-.81213-.63295-1.26473-.66987-2.016-1.26564-4.061-2.04283-6.03469a4.986,4.986,0,0,1-.16768-1.87134C237.64015,266.96835,237.79812,265.48761,237.47244,264.118Z" transform="translate(-236.60116 -183.61653)"/>
      <path class="cls-3" d="M367.13873,279.92165l-.1826-.01517-.18257.0156c-2.69229-.043-5.33519,1.02883-8.05537.356-1.49052-3.06881-2.91478-6.17262-4.51124-9.18545a3.07716,3.07716,0,0,1-.26122-2.60669c3.3058-10.8642,3.42573-21.73805-.47211-32.45632a49.52487,49.52487,0,0,0-23.64537-27.51117,55.86674,55.86674,0,0,0-19.12006-6.0015c1.9399-2.499,3.6579-4.85419,5.53423-7.076,1.12931-1.33718,1.27163-2.2785.046-3.75048a40.65291,40.65291,0,0,1-3.57879-5.77111c-.26975-.4654-.93469-1.00514-.40439-1.574.36428-.39082,1.006-.0983,1.537-.02848a93.93421,93.93421,0,0,1,17.445,4.28006,16.94092,16.94092,0,0,1,2.02509.86025,87.03417,87.03417,0,0,1,12.46264,7.16907,68.23633,68.23633,0,0,1,20.63328,23.08117,75.67891,75.67891,0,0,1,7.61857,21.19632c.45476.61891-.08058,1.42354.38376,2.04065a1.09366,1.09366,0,0,0,.005.36683,68.11165,68.11165,0,0,1,.39792,15.69606l.00529-.00895c-.53837,1.16786.14467,2.47284-.40953,3.63891a91.61651,91.61651,0,0,1-3.91612,14.64572c-.29266.74484-.60469,1.48211-.90778,2.22288C368.83933,280.05239,367.89168,279.41572,367.13873,279.92165Z" transform="translate(-236.60116 -183.61653)"/>
      <path class="cls-4" d="M337.47287,250.58431q-10.12018,12.72475-20.24347,25.44707-5.38454,6.75285-10.82042,13.46482c-.32931.409-.693.79041-1.145,1.30286-3.43957-4.14644-6.82207-8.2038-10.18253-12.27933q-10.47789-12.7075-20.93282-25.43393c-.33652-.40939-.60888-.87141-.91111-1.30892.77888-.74058,1.6419-.323,2.47-.15485,2.102.42685,4.18357.94907,6.289,1.36133.95019.18607,1.31658-.1165.84914-1.04937-.93-1.856-1.82069-3.73171-2.81076-5.55773a3.08788,3.08788,0,0,0-2.502-1.4551c-2.38241-.39062-4.75418-.83644-7.09291-1.43863-1.08226-.27867-2.15462-.60317-1.56076-2.12655L286.677,223.20164c.82875-.25376,1.79909-.58517,2.3815.1949.53151.71192-.12236,1.525-.433,2.246-2.1982,5.103-4.4518,10.18193-6.67093,15.27584-1.0925,2.50777-1.01675,2.61026,1.80672,2.61685,10.12016.02362,20.24037-.02962,30.35913.02011.22185-.00381.445-.00109.66684.00056q6.31291.02831,12.62846.00317c2.16337-.00681,2.32219-.18433,1.47569-2.14088-2.14644-4.9611-4.29117-9.92338-6.4996-14.85765-.16351-.36541-.31527-.7367-.46-1.10991-.26174-.67518-.84715-1.45847-.36047-2.06826.59583-.74656,1.55871-.44675,2.388-.17984q8.60683,8.703,17.21107,17.40856c.50635.51273,1.16925.99133.6842,1.87511-.42943.84037-1.26931.902-2.04846,1.06665-2.29152.48431-4.56719,1.05379-6.88721,1.38843a3.32267,3.32267,0,0,0-2.95128,2.35553c-.621,1.88425-1.83959,3.50036-2.72257,5.5676,2.19429-.19793,3.83937-1.17026,5.63278-1.54563C334.39263,251.00178,335.79484,249.88735,337.47287,250.58431Z" transform="translate(-236.60116 -183.61653)"/>
      <path class="cls-5" d="M323.95946,223.20256c-2.40179.01043-2.38288.00226-1.45837,2.13574,2.46721,5.69378,4.85774,11.42175,7.40957,17.07726.74865,1.65916.12055,1.73312-1.243,1.72012-4.62461-.0441-9.25-.01644-13.875-.01618a6.8204,6.8204,0,0,1-.37655-3.72623c.69789-4.90662,1.08064-9.84783,1.56569-14.7781.12763-1.2976-.19969-1.86384-1.562-1.86544-6.08788-.00708-12.17563-.04263-18.26346.01677-1.12675.011-1.83542.418-1.67247,1.6725.6888,5.30329,1.092,10.642,1.942,16.33853,1.68912-3.6101,3.08533-6.9203,4.572-10.18866,1.02637-2.2563,2.05417-4.5119,3.06327-6.776.24226-.54354.49083-1.17015,1.20734-1.20873.73862-.03976,1.02487.5769,1.2613,1.121,2.50935,5.77468,5.29264,11.42976,7.593,17.2945.25271.64435.65939,1.342.265,2.09993-10.79969-.00026-21.59962-.03861-32.39876.03655-1.80881.01259-1.88478-.59638-1.2822-1.9583,2.45936-5.55845,4.86988-11.13864,7.358-16.68412,1.04558-2.33036,1.11294-2.30022-1.38806-2.312.44927-.60081,1.1025-.37408,1.67345-.37469q16.96857-.01826,33.93716,0C322.85775,222.82758,323.51177,222.599,323.95946,223.20256Z" transform="translate(-236.60116 -183.61653)"/>
      <path class="cls-6" d="M268.87923,241.356c-.06742.96477.32167,1.413,1.34274,1.58284,2.75383.45818,5.47938,1.08362,8.22913,1.56952a2.48792,2.48792,0,0,1,2.01031,1.42968c1.02472,2.10586,2.09531,4.18942,3.12871,6.29115.19782.40228.64891.8582.32626,1.28049-.36352.47572-.9852.26619-1.503.16343-3.06356-.608-6.0544-1.56662-9.17584-1.89621-1.80436-2.71389-2.92927-5.78032-4.47552-8.62893C268.45541,242.58311,268.19588,241.90928,268.87923,241.356Z" transform="translate(-236.60116 -183.61653)"/>
      <path class="cls-6" d="M337.47287,250.58431c-3.26588.71732-6.39161,1.89595-9.56879,2.90484-.43946.13955-.91069.46271-1.271-.03582-.26466-.36619-.028-.78208.18063-1.12493a55.98793,55.98793,0,0,0,3.23915-6.42675c.81008-1.822,2.74994-1.35771,4.22-1.74379,2.50095-.65687,5.05179-1.12444,7.58178-1.6716C340.91136,245.46477,339.04308,247.9441,337.47287,250.58431Z" transform="translate(-236.60116 -183.61653)"/>
      <path class="cls-7" d="M299.48441,321.75763a141.18734,141.18734,0,0,0,16.12126-.39345c-1.30888.786-2.849.64878-4.23018.736-3.664.23127-7.35239.0882-11.03083.06078C300.05691,322.15878,299.77111,321.89813,299.48441,321.75763Z" transform="translate(-236.60116 -183.61653)"/>
      <path class="cls-7" d="M374.81352,259.0073a137.71591,137.71591,0,0,0-.39787-15.696,10.45076,10.45076,0,0,1,.772,4.22054c.1251,3.33182.04348,6.67148.038,10.008C375.22482,258.06189,375.33093,258.62508,374.81352,259.0073Z" transform="translate(-236.60116 -183.61653)"/>
      <path class="cls-7" d="M358.71819,280.27813c2.70009.22094,5.35221-.64163,8.05528-.35595C364.09617,280.2152,361.45455,281.31562,358.71819,280.27813Z" transform="translate(-236.60116 -183.61653)"/>
      <path class="cls-7" d="M238.64822,236.06875a31.61843,31.61843,0,0,1-1.19176,5.70691A10.64878,10.64878,0,0,1,238.64822,236.06875Z" transform="translate(-236.60116 -183.61653)"/>
      <path class="cls-7" d="M292.71559,184.99542a25.80735,25.80735,0,0,1-5.33711,1.21663A8.663,8.663,0,0,1,292.71559,184.99542Z" transform="translate(-236.60116 -183.61653)"/>
      <path class="cls-7" d="M259.5932,304.50392a4.46749,4.46749,0,0,1,2.38186,1.98859C260.45466,306.6973,259.801,305.86689,259.5932,304.50392Z" transform="translate(-236.60116 -183.61653)"/>
      <path class="cls-7" d="M367.85357,283.53785c-1.35635-.99251-2.88795-.07086-4.3056-.39324,1.41858-.76688,2.92722-.37707,4.39113-.26441C368.39279,282.91512,368.18342,283.3434,367.85357,283.53785Z" transform="translate(-236.60116 -183.61653)"/>
      <path class="cls-7" d="M259.07448,201.86763a7.37237,7.37237,0,0,1-2.30253,2.261A3.55757,3.55757,0,0,1,259.07448,201.86763Z" transform="translate(-236.60116 -183.61653)"/>
      <path class="cls-7" d="M237.47244,264.118q.47294,2.05759.94681,4.11542C237.31386,267.0433,237.38829,265.58175,237.47244,264.118Z" transform="translate(-236.60116 -183.61653)"/>
      <path class="cls-7" d="M312.71739,194.60988c.23166-.77638,1.096-1.45319.37506-2.3794C314.80867,193.31291,313.73641,193.95721,312.71739,194.60988Z" transform="translate(-236.60116 -183.61653)"/>
      <path class="cls-7" d="M280.27056,188.63305a6.08918,6.08918,0,0,1-2.953,1.171A3.74876,3.74876,0,0,1,280.27056,188.63305Z" transform="translate(-236.60116 -183.61653)"/>
      <path class="cls-7" d="M374.40928,262.63726c.14721-1.21172-.30142-2.49033.40958-3.63882C374.65143,260.20787,375.2364,261.50182,374.40928,262.63726Z" transform="translate(-236.60116 -183.61653)"/>
      <path class="cls-7" d="M362.38354,283.17014c-1.17006.63277-2.43258.29251-3.65746.34648C359.88675,282.78353,361.16619,283.30387,362.38354,283.17014Z" transform="translate(-236.60116 -183.61653)"/>
      <path class="cls-7" d="M302.39273,183.78921a9.14392,9.14392,0,0,1-3.70453.33648C299.86635,183.39029,301.15775,183.89948,302.39273,183.78921Z" transform="translate(-236.60116 -183.61653)"/>
      <path class="cls-7" d="M358.98167,297.20331a5.00349,5.00349,0,0,1,1.70869-2.06584A2.31605,2.31605,0,0,1,358.98167,297.20331Z" transform="translate(-236.60116 -183.61653)"/>
      <path class="cls-7" d="M352.26812,304.07988a4.574,4.574,0,0,1,1.97734-1.733A2.5023,2.5023,0,0,1,352.26812,304.07988Z" transform="translate(-236.60116 -183.61653)"/>
      <path class="cls-7" d="M349.01476,306.88631a5.416,5.416,0,0,1,2.01833-1.65859C350.81538,306.33262,349.95845,306.66213,349.01476,306.88631Z" transform="translate(-236.60116 -183.61653)"/>
      <path class="cls-7" d="M323.60918,319.75467a4.49408,4.49408,0,0,1,2.858-.76393A4.09427,4.09427,0,0,1,323.60918,319.75467Z" transform="translate(-236.60116 -183.61653)"/>
      <path class="cls-7" d="M296.25422,321.37461c1.08686.09674,2.22542-.23124,3.24807.39416C298.422,321.61794,297.25393,322.18855,296.25422,321.37461Z" transform="translate(-236.60116 -183.61653)"/>
      <path class="cls-7" d="M255.82658,205.08656a3.05971,3.05971,0,0,1-1.47118,1.5035A1.715,1.715,0,0,1,255.82658,205.08656Z" transform="translate(-236.60116 -183.61653)"/>
      <path class="cls-7" d="M264.02572,308.13982a2.26895,2.26895,0,0,1,1.60713,1.1695C264.78743,309.344,264.09932,309.16305,264.02572,308.13982Z" transform="translate(-236.60116 -183.61653)"/>
      <path class="cls-7" d="M284.17723,318.58345a3.79419,3.79419,0,0,1,2.37961.78489A2.6755,2.6755,0,0,1,284.17723,318.58345Z" transform="translate(-236.60116 -183.61653)"/>
      <path class="cls-7" d="M241.46125,227.21874a3.35346,3.35346,0,0,1-.76963,2.11212A2.24623,2.24623,0,0,1,241.46125,227.21874Z" transform="translate(-236.60116 -183.61653)"/>
      <path class="cls-7" d="M333.31233,189.4572a3.05784,3.05784,0,0,1-2.02487-.86033A2.08548,2.08548,0,0,1,333.31233,189.4572Z" transform="translate(-236.60116 -183.61653)"/>
      <path class="cls-7" d="M236.65786,257.30517a4.33863,4.33863,0,0,1,.29913,2.48494C236.34373,259.02339,236.7239,258.1375,236.65786,257.30517Z" transform="translate(-236.60116 -183.61653)"/>
      <path class="cls-7" d="M367.13873,279.92165c.7293-.64526,1.63647-.2452,2.44662-.41556C368.87885,280.28444,367.95727,279.80059,367.13873,279.92165Z" transform="translate(-236.60116 -183.61653)"/>
      <path class="cls-7" d="M355.75447,300.82372a3.23029,3.23029,0,0,1,1.3405-1.58214A1.67374,1.67374,0,0,1,355.75447,300.82372Z" transform="translate(-236.60116 -183.61653)"/>
      <path class="cls-7" d="M236.95064,246.15732a4.33034,4.33034,0,0,1-.29873,2.46418C236.72465,247.79722,236.34859,246.91817,236.95064,246.15732Z" transform="translate(-236.60116 -183.61653)"/>
      <path class="cls-7" d="M374.41058,242.94441c-.58263-.59494-.32906-1.34678-.38383-2.0407C374.69231,241.48314,374.3309,242.25514,374.41058,242.94441Z" transform="translate(-236.60116 -183.61653)"/>
      <path class="cls-5" d="M305.11569,289.18121c-.67023-5.33028-1.32186-10.663-2.01607-15.99016-.67008-5.14217-1.36138-10.282-2.11021-15.413-.08486-.58138-.15271-1.37644-.99442-1.60143a56.62414,56.62414,0,0,0-8.5016-2.08009c4.04833,10.8045,7.98844,21.32022,11.92856,31.83594l-.36768.19485c-6.0938-10.785-12.18762-21.57-18.50575-32.75191,2.01739,0,3.716-.09169,5.39962.028a2.48348,2.48348,0,0,0,2.76238-1.73995c.94364-2.11541,2.06678-4.15095,3.357-6.69976,1.36112,3.31845,2.63953,6.08612,3.61492,8.95649a2.32459,2.32459,0,0,0,2.7432,1.89739,34.29422,34.29422,0,0,1,5.6313.01563c1.68214.17307,2.36633-.56142,2.89489-1.98976,1.07966-2.91758,2.29637-5.78457,3.58375-8.98883,1.25938,2.49662,2.41451,4.61046,3.397,6.8015a2.45371,2.45371,0,0,0,2.75781,1.744c1.26412-.11749,2.548-.02728,3.82315-.02057,1.01191.00533,1.3684.35047.79988,1.35289q-6.28137,11.07561-12.52825,22.17076c-2.0338,3.5986-4.07857,7.191-6.33778,11.17293a8.51855,8.51855,0,0,1,1.049-3.73912q5.39614-14.34769,10.79371-28.69483c.15082-.40174.66432-.81977.21365-1.26156-.38112-.37359-.8719-.1168-1.32727.00464-.90255.24071-1.8213.42033-2.726.65358-4.56782,1.17768-4.7197,1.16411-5.22932,5.79287-.837,7.60253-2.31968,15.11869-2.93155,22.75-.14792,1.84452-.58406,3.666-.88762,5.49805Z" transform="translate(-236.60116 -183.61653)"/>
      <path class="cls-8" d="M314.38773,244.1195c-1.97058-4.60433-3.92986-9.21354-5.91733-13.81059-.79617-1.84157-1.663-3.65257-2.47722-5.48654-.15867-.3574-.13875-.90883-.60988-.93916-.63609-.04094-.56434.60512-.7445,1.00677-2.73206,6.09032-5.47226,12.177-8.58889,18.25877-.333-2.37973-.69691-4.75564-.99133-7.14012-.41548-3.36494-.7352-6.74208-1.18056-10.1028-.3132-2.36322-.08924-2.70517,2.26725-2.70637,6.24355-.00319,12.48738.0329,18.73038-.02457,1.59093-.01464,2.09071.32673,1.77564,2.07729a68.26609,68.26609,0,0,0-.964,8.9188c-.15426,3.3345-1.075,6.59169-.8947,9.94852Z" transform="translate(-236.60116 -183.61653)"/>
    </g>
  </g>
</svg>
