<svg id="Layer_1" data-name="Layer 1" xmlns="http://www.w3.org/2000/svg" viewBox="0 0 96.64349 83.69787"><defs><style>.cls-1{fill:#eb1622;}.cls-2{fill:#970e16;}.cls-3{fill:#960e16;}.cls-4{fill:#f26662;}.cls-5{fill:#980e16;}</style></defs><path class="cls-1" d="M236.96576,106.41012a19.56042,19.56042,0,0,1-7.92544-1.33543,7.25767,7.25767,0,0,1-4.424-9.02543,21.75725,21.75725,0,0,1,5.30918-9.17026c5.59253-6.28571,12.47757-10.80969,20.00432-14.41266a59.29076,59.29076,0,0,1,18.671-5.68613,23.86392,23.86392,0,0,1,10.24558.647c2.69639.867,4.84358,2.38406,5.6448,5.28808a9.02047,9.02047,0,0,1-.47736,5.64377,25.52126,25.52126,0,0,1-6.59608,9.54155,66.75983,66.75983,0,0,1-37.21947,18.30565c-.237.0344-.47736.0493-.71673.06327C238.58348,106.322,237.68513,106.37022,236.96576,106.41012Z" transform="translate(-214.38195 -66.52084)"/><path class="cls-2" d="M301.70541,72.60534a17.98049,17.98049,0,0,1,6.72574,4.66456c1.96342,2.1797,2.46721,4.87768,2.58019,7.66579a22.2716,22.2716,0,0,1-2.43462,10.3892c-.30284.64853-.59737,1.301-.89574,1.95158-1.71683,3.68658-4.35863,6.70569-6.99086,9.738A77.35021,77.35021,0,0,1,293.108,114.293a1.5705,1.5705,0,0,0-.53,1.00378q-1.70079,11.20356-3.41349,22.40531c-.53154,3.46673-1.0201,6.94007-1.596,10.40008-.09825.59024-.32637,1.14353-.43565,1.72858l-.20762.33c-.45351-.00615-.54034-.41468-.71434-.69232-3.3183-5.29532-6.66356-10.57373-9.96761-15.878-.9012-1.44674-1.83244-2.87442-2.72846-4.32422a4.79883,4.79883,0,0,1-.84123-1.67231,20.3212,20.3212,0,0,1,.18475-3.76651c.28483-4.12217.54614-8.2465.8716-12.36561.29718-3.76133.50633-7.52874.8352-11.28809.14861-1.69867.18918-3.408.36858-5.10621a1.8064,1.8064,0,0,1,.32846-1.01062.103.103,0,0,1,.11411-.054,3.71792,3.71792,0,0,1,1.41731.182q13.3121,3.29876,26.64341,6.519a1.10021,1.10021,0,0,0,.83648.05567,31.56274,31.56274,0,0,0-1.75894-2.69248c-3.322-4.88272-6.53957-9.83512-9.85256-14.72354-1.49667-2.20837-2.99632-4.41466-4.47871-6.63265-.19637-.29383-.47839-.553-.42283-.9601.05355-.48138.4629-.51491.79482-.58258,3.98053-.81153,7.93891-1.725,11.91211-2.56988A2.47689,2.47689,0,0,1,301.70541,72.60534Z" transform="translate(-214.38195 -66.52084)"/><path class="cls-3" d="M284.983,149.84321c-2.20728-.50457-4.41591-1.0034-6.62164-1.51463q-24.24356-5.619-48.48607-11.24252-1.70559-.39553-3.40984-.79676c-.247-.44418.09153-.74185.29452-1.04521,2.71421-4.05625,5.49844-8.06492,8.25534-12.09209,2.80724-4.10069,5.6384-8.18507,8.41893-12.304.43589-.6457.90818-1.26475,1.34316-1.9106.22218-.32989.46641-.6366.9347-.56761,2.19955,1.34739,4.24079,2.92446,6.34253,4.41169,5.72618,4.052,11.43107,8.134,17.17607,12.15955,1.00633.70514,1.99225,1.44041,2.9915,2.15644.2846.20393.62989.39158.51618.848a3.02289,3.02289,0,0,1-1.31429.9044,94.49992,94.49992,0,0,1-11.132,4.56245c-2.92547.98258-5.906,1.7823-9.036,2.53864,2.17813.85305,4.25294,1.66065,6.32167,2.48281,8.90745,3.54,17.83385,7.0322,26.73479,10.58863a6.615,6.615,0,0,1,.90342.39867c.1487.087.3717.19435.25583.39268C285.37731,149.9754,285.15443,149.92775,284.983,149.84321Z" transform="translate(-214.38195 -66.52084)"/><path class="cls-1" d="M272.73907,127.86746a29.925,29.925,0,0,0-3.78343-2.84369c-3.49017-2.51513-7.03439-4.95516-10.54793-7.43806q-5.23515-3.69949-10.44581-7.43346a11.9043,11.9043,0,0,1-2.25564-1.73661q-.06559-.06433-.03784-.1217.02683-.05559.0511-.05561Q256.00234,103.299,266.2853,98.36q4.48687-2.15439,8.97669-4.303c-.29878,3.95287-.60764,7.905-.89258,11.85895-.15008,2.08245-.2404,4.16919-.38982,6.2517-.21537,3.00213-.47466,6.00112-.68726,9.00343-.158,2.232-.27173,4.46718-.40517,6.70095A.08986.08986,0,0,1,272.73907,127.86746Z" transform="translate(-214.38195 -66.52084)"/><path class="cls-1" d="M287.81467,75.82717q4.69685,6.95434,9.39286,13.90926,3.51046,5.20575,7.00933,10.41932a4.44191,4.44191,0,0,1,.29845.44816c.07805.15377.21026.36881.15765.48225-.12178.26252-.35488.07348-.54395.02752q-4.3519-1.05783-8.70369-2.116-9.87606-2.40306-19.75077-4.81147a1.161,1.161,0,0,1-.29806-.18349c1.76008-2.63834,3.50958-5.28423,5.28343-7.91369q3.46656-5.13865,6.96346-10.25684A.14077.14077,0,0,1,287.81467,75.82717Z" transform="translate(-214.38195 -66.52084)"/><path class="cls-4" d="M245.71952,108.23833a.83754.83754,0,0,1-.013.17739c-.5114.03946-.65121.49366-.87743.82311q-6.90267,10.05261-13.78843,20.11684-2.07616,3.03132-4.14782,6.06573a1.6152,1.6152,0,0,0-.42713.868.28394.28394,0,0,1-.356-.106c-.38464-2.03352-.42257-4.1026-.62057-6.15494-.37037-3.839-.66784-7.68479-1.02224-11.52557-.32417-3.51334-.61413-7.03-.93607-10.54366a1.37171,1.37171,0,0,1,.17912-.95121.21458.21458,0,0,1,.29951-.03156c3.50858.05839,6.998.43216,10.4974.642,3.47088.20809,6.9394.45552,10.40952.67687A5.7983,5.7983,0,0,0,245.71952,108.23833Z" transform="translate(-214.38195 -66.52084)"/><path class="cls-4" d="M272.73907,127.86746a.68554.68554,0,0,0,.14826.00461q4.62952,7.35779,9.25982,14.71537,2.38561,3.78885,4.778,7.5734a3.32651,3.32651,0,0,1-1.94261-.3177c.088-.01625.214-.00147.25676-.05419.20487-.25233-.11227-.16584-.15935-.185-2.30115-.93742-4.60314-1.87309-6.914-2.78619q-13.11011-5.18022-26.22517-10.34784c-.40657-.16039-.8127-.3219-1.448-.57361A91.76989,91.76989,0,0,0,272.73907,127.86746Z" transform="translate(-214.38195 -66.52084)"/><path class="cls-5" d="M223.72875,107.0208q.66338,7.59513,1.32887,15.19007c.39289,4.4061.80552,8.81044,1.20369,13.21607.02347.25962.09456.54421-.15186.75644a17.94872,17.94872,0,0,1-3.63452-1.43185,16.5725,16.5725,0,0,1-4.962-3.79419,11.48641,11.48641,0,0,1-3.0735-9.06961,39.48482,39.48482,0,0,1,1.38134-7.36974c1.158-1.44926,2.56456-2.65884,3.85058-3.98456q1.529-1.57624,3.11008-3.10166C223.02975,107.19151,223.23759,106.74689,223.72875,107.0208Z" transform="translate(-214.38195 -66.52084)"/><path class="cls-1" d="M287.1328,149.83078c.2647-1.85811.52063-3.71753.796-5.574q.76108-5.13065,1.54158-10.25839c.50208-3.30069,1.01777-6.59931,1.52234-9.89962.455-2.976.91973-5.9508,1.33681-8.93219a1.53255,1.53255,0,0,1,.58044-1.051,68.76887,68.76887,0,0,0,13.08289-14.21173c.58524-.8603,1.12642-1.75059,1.688-2.62715-1.22177,3.186-2.42643,6.37884-3.6684,9.55711q-8.2443,21.09741-16.50822,42.18715C287.39619,149.297,287.25732,149.56108,287.1328,149.83078Z" transform="translate(-214.38195 -66.52084)"/><path class="cls-4" d="M287.81467,75.82717l-.19129.005c.08788-.54948-.33371-.87761-.58383-1.262-1.56795-2.40995-3.161-4.80356-4.74325-7.20425-.1121-.17009-.20372-.35367-.35667-.6218a4.63168,4.63168,0,0,1,2.15392.25029c5.13283,1.75019,10.43143,2.957,15.54631,4.76157.70123.24739,1.37784.56457,2.06569.84939-4.35879.93224-8.7187,1.85872-13.07316,2.81019C288.35022,75.47722,287.92746,75.38111,287.81467,75.82717Z" transform="translate(-214.38195 -66.52084)"/><path class="cls-4" d="M223.72875,107.0208c-.376.02948-.54348.34949-.77038.57291q-3.23094,3.18135-6.45124,6.37351c-.20792.20491-.3668.48123-.68641.5508a99.79119,99.79119,0,0,1,7.11518-18.60171l.29441.07824c.05717,1.06.1207,2.11962.17021,3.17994.109,2.33446.21007,4.66928.31665,7.00384.01345.29457-.02414.61221.29195.79824Z" transform="translate(-214.38195 -66.52084)"/></svg>