<svg id="Layer_1" data-name="Layer 1" xmlns="http://www.w3.org/2000/svg" viewBox="0 0 278.30696 278.44061">
  <defs>
    <style>
      .cls-1 {
        fill: #008ed6;
      }

      .cls-2 {
        fill: #fefefe;
      }

      .cls-3 {
        fill: #fcfefe;
      }
    </style>
  </defs>
  <g id="itarYH.tif">
    <g>
      <path class="cls-1" d="M534.4378,259.693q0,67.93263.05366,135.8652c.004,2.47971-.50934,3.29785-3.163,3.2957q-135.96617-.11061-271.93243-.00818c-2.58186.00189-3.21212-.71634-3.21028-3.24707q.0985-135.86562-.00123-271.73126c-.002-2.62465.48587-3.45457,3.31575-3.45194q135.96616.12552,271.93243-.00214c2.85342-.00268,3.03564,1.11268,3.03278,3.41407q-.08451,67.93273-.042,135.86562Z" transform="translate(-256.18453 -120.41325)"/>
      <path class="cls-2" d="M462.483,376.00912a62.397,62.397,0,0,1-23.19072-7.78356c-6.93645-4.11079-11.90233-9.99814-16.06107-16.74462-.89912-1.45859-.47288-2.11868.79074-2.84241,5.97569-3.4225,11.94777-6.85212,17.8779-10.35255,1.16689-.68882,1.78014-.49107,2.47592.59181a38.37394,38.37394,0,0,0,5.73306,6.8476c7.5338,7.263,16.47382,8.902,26.28033,6.25367,5.15324-1.3917,9.079-4.38085,9.80612-10.22383.731-5.874-2.04556-9.84546-6.89547-12.67908-7.12134-4.16075-14.85168-7.03822-22.27646-10.55965-5.87925-2.78842-11.52792-5.93543-16.20053-10.5595-11.09037-10.9752-13.29864-24.326-8.468-38.42749,4.79249-13.99,16.09479-20.52554,30.41212-21.98209a54.8102,54.8102,0,0,1,17.51514.9136c10.32822,2.31055,17.65966,8.82184,23.37867,17.43492.80071,1.20585.70777,1.971-.49924,2.76593q-8.499,5.59762-16.94529,11.27506a1.46932,1.46932,0,0,1-2.33051-.44345c-.67336-.90876-1.38045-1.79327-2.0335-2.7162-3.91777-5.537-9.41426-7.41913-15.91446-6.70516-5.21478.57275-8.681,3.36191-9.71913,7.71479-1.203,5.0445-.01879,9.41427,4.164,12.69172,3.26613,2.55922,7.07438,4.17291,10.83609,5.83128,8.18219,3.60707,16.42494,7.1055,23.95208,11.99859,14.93124,9.70614,20.955,26.70677,15.32379,43.651-4.12593,12.4149-13.71951,18.7649-25.66226,22.24731-2.55045.74364-5.18331,1.20447-7.77821,1.79561A54.10444,54.10444,0,0,1,462.483,376.00912Z" transform="translate(-256.18453 -120.41325)"/>
      <path class="cls-3" d="M355.64351,374.76034q-1.22243-.28225-2.44484-.56455c-.79673-1.00842-.39095-2.18632-.39181-3.27459q-.03848-47.70736-.02135-95.41466c-.00012-3.48568-.00394-3.48878-3.48134-3.4894-9.67144-.00171-19.34293.01052-29.01429-.01732-.99678-.00287-2.063.32859-2.99083-.35344-.00187-6.5726.10932-13.14813-.0616-19.71634-.06784-2.6072.83174-3.216,3.31677-3.20967,24.64311.06276,49.28653.00195,73.92987-.013,5.64743-.00343,11.29774.14755,16.94105.0037,2.57158-.06555,4.17421.35225,3.67838,3.39064a3.5001,3.5001,0,0,0,.24353,1.18741,77.33139,77.33139,0,0,1-.0778,18.31561l-.2519-.02313-.21967.12551c-2.42242.68457-4.896.26514-7.34093.28453-8.22886.06538-16.45857.01737-24.68792.02855-3.34581.00454-3.446.10258-3.44659,3.49047q-.00851,47.69774-.0142,95.3955a8.598,8.598,0,0,1-.225,3.35878q-.40473.24692-.80941.49386c-1.52029.87556-3.18189.41925-4.75311.37718C367.562,374.97649,361.58366,375.69751,355.64351,374.76034Z" transform="translate(-256.18453 -120.41325)"/>
    </g>
  </g>
</svg>
