<svg id="Layer_1" data-name="Layer 1" xmlns="http://www.w3.org/2000/svg" viewBox="0 0 200 200.18708"><defs><style>.cls-1{fill:#512da7;}.cls-2{fill:none;}</style></defs><g id="_4k2FEi.tif" data-name="4k2FEi.tif"><path class="cls-1" d="M661.77441,359.819v8.04561c-2.21137,46.25047-33.7351,84.31419-79.09163,94.00654-31.71193,6.77526-60.50671-.65871-85.44339-21.45494-18.96128-15.856-30.62977-36.22875-34.2056-60.64787-4.98734-33.9233,4.84618-63.42386,29.35942-87.51362,17.97323-17.69093,39.99278-26.77164,65.16471-28.1361h8.93957a100.09876,100.09876,0,0,1,56.46039,20.79624,2.70592,2.70592,0,0,0,3.15238.32935,14.9346,14.9346,0,1,1-9.22188,14.49151,10.48673,10.48673,0,0,1,.51754-4.37569c.56461-1.5056,0-2.21136-1.12922-3.05827a89.36452,89.36452,0,0,0-58.76587-18.16142c-41.59251,1.69381-77.49191,33.49983-84.36125,74.52772-6.96344,41.63955,14.44446,81.49119,53.35509,98.24109,44.65078,19.2436,96.02972-.42346,116.92008-44.69781a88.36044,88.36044,0,0,0,6.39883-57.58961c-.70575-3.38763.8469-6.11654,3.764-6.68115,2.823-.56461,5.17554,1.17626,5.9754,4.56389A101.34862,101.34862,0,0,1,661.77441,359.819Z" transform="translate(-461.77441 -264.11862)"/><path class="cls-1" d="M606.67845,404.04631H587.81128c-1.36447,0-1.36447-1.08215-1.64676-1.882q-5.646-16.86755-11.245-33.7351c-4.28157-12.84473-8.56317-25.73653-12.84474-38.58127-1.03511.047-.8469.941-1.03511,1.41151-3.99928,11.90373-7.90445,23.80747-11.9508,35.7112-.65871,1.92907-.14114,2.21137,1.64676,2.16432,4.75208-.09411,9.55122.04705,14.30332-.09411,1.55265-.047,1.97612.6587,2.25841,1.92907,1.3174,5.36373,2.54073,10.77452,3.99928,16.13826.4705,1.69381,0,1.97612-1.55266,1.92906-8.6102-.04705-17.17337.04706-25.78358-.04705a2.52851,2.52851,0,0,0-2.91712,2.16432c-1.12922,3.81108-2.49366,7.5751-3.717,11.33913-.28229.89395-.56461,1.64676-1.882,1.59971-6.06951-.09411-12.18605-.04705-18.25553-.04705a2.39508,2.39508,0,0,1,.28229-2.07022c9.50418-28.60659,19.10243-57.2132,28.55956-85.86685a2.73592,2.73592,0,0,1,3.10531-2.21137q12.77415.14115,25.54833,0a2.44283,2.44283,0,0,1,2.776,2.02315q14.25625,43.05106,28.65366,86.10211C606.30206,402.6348,606.4432,403.24645,606.67845,404.04631Z" transform="translate(-461.77441 -264.11862)"/></g><rect class="cls-2" y="0.09354" width="200" height="200"/></svg>