<svg id="Layer_1" data-name="Layer 1" xmlns="http://www.w3.org/2000/svg" viewBox="0 0 724.48297 913.28306"><defs><style>.cls-1{fill:#1f37aa;}.cls-2{fill:#6138f2;}.cls-3{fill:#3736c5;}.cls-4{fill:#6b9eef;}.cls-5{fill:#4336d3;}.cls-6{fill:#697ff1;}.cls-7{fill:#5c36ee;}.cls-8{fill:#676ff2;}.cls-9{fill:#4036cf;}.cls-10{fill:#6553f3;}.cls-11{fill:#644af3;}.cls-12{fill:#4d36dd;}.cls-13{fill:#4137cf;}.cls-14{fill:#2e36bb;}.cls-15{fill:#6b93f0;}.cls-16{fill:#4b37da;}.cls-17{fill:#676ef2;}.cls-18{fill:#6984f1;}.cls-19{fill:#5437e5;}.cls-20{fill:#5137e1;}.cls-21{fill:#6b95f0;}.cls-22{fill:#6979f1;}.cls-23{fill:#675ef3;}.cls-24{fill:#665df3;}.cls-25{fill:#6dafef;}.cls-26{fill:#71c6ee;}.cls-27{fill:#72daed;}.cls-28{fill:#76ecec;}.cls-29{fill:#5836ea;}.cls-30{fill:#6551f3;}.cls-31{fill:#4d37dc;}.cls-32{fill:#6767f2;}</style></defs><path class="cls-1" d="M685.12863,344.916l17.76258-.17928c27.85128,3.89489,31.64134,7.48957,31.45395,28.18236-.11626,12.83836-3.87763,21.94667-18.68752,21.99022-13.90079,1.70984-28.1752,1.98793-41.60714,5.49457-16.5218,4.31332-22.9006-1.18845-24.39859-17.30243-.68624-7.3819-4.5031-14.47263-6.9002-21.6954v-8.567C655.83688,344.6303,671.26787,348.97444,685.12863,344.916Z" transform="translate(-642.75171 -343.62742)"/><path class="cls-2" d="M1041.23,1187.85c5.04,13.4,4.98,29.4.39,44.18-40.43,31.73-26.54,36.36-78.03-5.23,4.24-18.39014,1.46-37.97009,9.31-55.77.05-.14.11-.27.17-.41.03-1.24.06-2.4701.08-3.71009a85.86261,85.86261,0,0,1,3.65,8.27c8.98-15.71,4.18-32.81994,3.9-49.08-1.42-83.58,5.01-167.28-3.67-250.74-.65-1.51-1.31006-3.01-2-4.5.3-1.13.58-2.26.83-3.4,5.05-22.69,1.13-46.42,5.7-69.17a19.43229,19.43229,0,0,1,3.07-4.37c.07-.06.15-.13.23-.19.15.15.3.29.45.44,14.23,15.29,28.27,13.48,42.18-.47.66-.64,1.31006-1.28,1.97-1.92.92-.17,1.84009-.32,2.77-.43.11011-.01.23-.03.34009-.04,10.78992,4.6,9.91992,14.52,10.10986,23.44.24,11.15.72009,22.26,1.99,33.32.18006,1.57995.38013,3.15.6001,4.73-1.34009,2.05-2.62,4.13-3.8501,6.26a.0098.0098,0,0,0-.01.01v.03q-4.93487,18.84-9.86987,37.68v273.62994c.12988.64014.25,1.28.38989,1.92,1.80005.77,3.61011,1.53,5.41016,2.3A97.15562,97.15562,0,0,0,1041.23,1187.85Z" transform="translate(-642.75171 -343.62742)"/><path class="cls-3" d="M845.31,718.19c-1.58,4.38-1.18,9.65-5.01,12.73a530.035,530.035,0,0,0-4.57,199.57q1.485,5.325,3.02,10.64c-3.35,23.59.95,47.48-1.49,71.06-1.22,11.69,2.1,26.68-15.36,30.65-59.46-135.6-57.72-271.2.09-406.77,1.37-3.2,3.58-6.04,5.4-9.06,16.26-2.17,14,11.1,14,19.23C841.36,670.33,843.68,694.24,845.31,718.19Z" transform="translate(-642.75171 -343.62742)"/><path class="cls-4" d="M1207,1004.11c-1.52,4.61-4.54,8.71-6.86,13.05-14.95007-2.64-10.38-15.09-10.77-23.7-1.48-33.41,1.43005-66.96-3.56995-100.3-.74-4.95-1.27-9.8-3.08008-14.25-.15991-.4-.33-.79-.52-1.17.31006-.77.62012-1.53.93005-2.29,1.74-55.08-1.13-109.68005-17.14-162.9-.80005,1.21-1.58008,2.44-2.33008,3.68-.13989-.82-.28991-1.63-.42993-2.44-.06006-.36-.13-.72-.18994-1.08,7.3999-20.02,3.21-40.88995,4.44995-61.36.81006-13.33-.97-27.42,10.76-37.64,33.75,59.15,48.99,123.87,54.59009,190.83C1238.54,872.66,1228.31006,939.25,1207,1004.11Z" transform="translate(-642.75171 -343.62742)"/><path class="cls-5" d="M891.66,659.51a136.46008,136.46008,0,0,0,3.55,15.15q-.6,4.84506-1,9.7c-1.22,14.83-1.13,29.74-1.22,44.66-.06,8.29.27,17.01-7.02,23.2a21.5585,21.5585,0,0,1-4.84.59h-.01q-.525,0-1.05-.03-.555-.81-1.08-1.62c-12.46-10.73-17.97-26.75-28.75-38.66a9.40268,9.40268,0,0,0-4.93,5.69c-1.58,4.38-1.18,9.65-5.01,12.73-3.19-29.62-6.39-59.23-4.91-89.12.32-6.3,1.12-13.37-8-14.79,13-31.09,29.71-59.93,51.62-85.65,16.05-3.28,13.06,9.8,13.49,17.43.96,17.27.94,34.58,4.83,51.47-.92,2.66-1.73,5.38-2.45,8.17q-1.605,20.535-3.22,41.07Z" transform="translate(-642.75171 -343.62742)"/><path class="cls-6" d="M1165.99,712.55c-.80005,1.21-1.58008,2.44-2.33008,3.68-.13989-.82-.28991-1.63-.42993-2.44-13.86,7.32-14.96,25.66-27.66992,33.97-2.06006-.5-4.24-2.04-6.57007-5.04-9.76-27.63-4.91992-56.6-5.5-84.62-.58008-28.21-.36-56.84,1.1001-85.23.53991-10.4-1.09009-21.95,10.99-27.94,17.94995,20.61,31.82983,43.76,42.66992,68.78-6.71,26.3-3.76,53.14-4.61,79.78C1173.41992,700.46,1177.49,709.84,1165.99,712.55Z" transform="translate(-642.75171 -343.62742)"/><path class="cls-7" d="M1024.59009,487.85c-1.50006.3-2.97009.65-4.4101,1.03-1.18.32-2.35.66-3.49,1.03-7.96-5.37-15.15-5.18-23.4,2.98-14.36,14.2-29.95,27.17-45.05,40.64a8.918,8.918,0,0,1-.99-.48,13.15524,13.15524,0,0,1-3.33-2.7c-3.85-17.86-4.42-36.08-6.05-54.18q10.53-10.215,21.08-20.45c-1.37-8.01-10.42-6.89-13.23-12.42,6.84-15.07-.98-33.57,11.09-47.43.28-.14.55-.26.83-.38.29-.13.57-.24.86-.35.38.46.75.94,1.1,1.41,10.55,5.42,21.19,10.67,31.6,16.34,7.83,4.26,15.03,10.99,24.7,4.37.49-1,1.02-1.98,1.58-2.92.64.07,1.27.12,1.92.16h.01c.49.04.98.07,1.48.09C1037.42993,438.25,1031.24,463.04,1024.59009,487.85Z" transform="translate(-642.75171 -343.62742)"/><path class="cls-8" d="M1130.87,725.05c-.02,8.01.71008,15.64,4.69006,22.71-8.42,11.17-15.07007,23.76-26.18006,32.8-.11.17-.23.34-.35.51a3.28834,3.28834,0,0,1-.33008-.23,9.8165,9.8165,0,0,1-2.55994-3.19c-3.86-19.47-3.1-39.36-5.18005-58.99-.17993-1.76-.38989-3.51-.62988-5.26,1.52991-1.99,3.06994-3.97,4.59985-5.96,21.22009-49.11,20.02-96.16-12.87988-140.3-.59009-.35-1.17-.69-1.75-1.04.06995-.25.12988-.5.18994-.75a162.80155,162.80155,0,0,0,4.54-40.93c-.09009-7.63-.46-15.67,5.95-21.67a174.1094,174.1094,0,0,1,34.6001,42.18c-4.17017,7.02-4.72009,14.69-4.70008,22.68Q1131.09,646.33,1130.87,725.05Z" transform="translate(-642.75171 -343.62742)"/><path class="cls-9" d="M883.15,1056.80005c-1.57,15.09-3.08,30.1499-3.21,45.34985-.08,9.03-.58,18.58008-10.89,23.12012-20.35-24.83008-34.79-53.04-47.15-82.43,9.61-10.07,8.6-22.76,9.45-35.32,1.72-25.67-5.18-51.84,4.38-77.03q1.485,5.325,3.02,10.64c10.75,37.25,23.54,73.77,39.97,108.97C880.2,1052.33,881.67,1054.57007,883.15,1056.80005Z" transform="translate(-642.75171 -343.62742)"/><path class="cls-10" d="M1031.54,896.78v273.62994c-2.46-12.29992-4.53-24.71-4.16-37.55993,2.05994-71.11.56995-142.32.76-213.49C1028.15991,911.77,1025.75,903.59,1031.54,896.78Z" transform="translate(-642.75171 -343.62742)"/><path class="cls-10" d="M1092.12,1187.38c-15.24,16.69007-30.88,32.92-50.5,44.65-1.17-2.59009-3.5-5.26-3.34-7.77,1.12-17.74-2.88-34.74-6.3501-51.93,1.80005.77,3.61011,1.53,5.41016,2.3.0199.01.02991.01.04992.0199q21.63008-23.17492,43.25-46.36987a9.727,9.727,0,0,1-.93005-1.45007,16.30093,16.30093,0,0,1,1.79.20007c8.08008,1.33,11.12,7.85,11.63,15.1C1094.2,1157.18994,1097.6,1172.42993,1092.12,1187.38Z" transform="translate(-642.75171 -343.62742)"/><path class="cls-11" d="M1063.86,528.35a45.21714,45.21714,0,0,1-5.49-.07c-.1-.01-.21009-.02-.30994-.02q-19.485-18.285-38.95007-36.57c.39-.93.75-1.87,1.07-2.81,7.64008-21.43,2.39-43.68,3.16-65.53.12994-3.87-3.84-5.39-7.44-6.09.49-1,1.02-1.98,1.58-2.92l7.37-3.74.01-.01L1053.04,396.28h.01l.04993-.02,4.38-2.23c.26,0,.53,0,.79.01,1.06006.02,2.13.06,3.21.14,11.42993,15.3,15.28,31.44,5.42993,49.08-18.56982,8.32-10.86987,17.05-.40991,25.83C1075.99,489.31,1076.76,509.14,1063.86,528.35Z" transform="translate(-642.75171 -343.62742)"/><path class="cls-12" d="M947.43,534.24c-18.67,24.11-40.02,46.54-50.1,76.02-.92,2.66-1.73,5.38-2.45,8.17-10.09-18.27-7.57-38.25-8.18-57.88-.22-7.01,3.89-16.46-7.69-19.19,16.24-24.79,36.32-46.1,58.86-65.19,14.82,17.03,6.69,37.85,9.38,56.88C947.3,533.45,947.36,533.84,947.43,534.24Z" transform="translate(-642.75171 -343.62742)"/><path class="cls-13" d="M886.67,417.62q-47.505-10.725-95-21.43c16.65-11.58,8.44-32.16,16.58-46.84.15-.26.3-.52.46-.78q.49494.42.99.93c27.87,3.88,55.74,7.8,81.44,20.37q.825-.195,1.68-.36c.25.24.5.49.75.74.26.25.52.5.77.76C896.83,387.37,903.6,404.45,886.67,417.62Z" transform="translate(-642.75171 -343.62742)"/><path class="cls-14" d="M791.67,396.19q-38.00994-.645-76.01-1.28c16.68006-5.46,12.1-19.38,12.76-31.45,1.07-19.63995-18.19-10.92-25.53-18.72,29.98,1.2,60.21-4.9,89.97,3.06,5.42-1.11,10.95-3.32,15.85.77q.49494.42.99.93c.02,9.08-.5,18.21.18,27.25C810.9,390.28,804.63,396.17,791.67,396.19Z" transform="translate(-642.75171 -343.62742)"/><path class="cls-15" d="M1200.14,1017.16c-4.74,20.27-14.30993,38.39008-24.95007,56.02h-.01c-14.87988-1.56994-10.83-13.80993-11.77-22.30993-2.30993-20.83,2.81006-42.27-4.0199-62.77-.38-1.18-.81994-2.35-1.29-3.52.05-.3.11-.61.16-.91a11.04612,11.04612,0,0,1,3.58008-1.09A666.83622,666.83622,0,0,0,1182.72,878.91c-.15991-.4-.33-.79-.52-1.17.31006-.77.62012-1.53.93005-2.29,11.27-4.36,7.02991,4.72,7.74,9.13,5.87,36.73,4.03,73.76,4.44006,110.71C1195.39,1002.76,1192.47,1011.23,1200.14,1017.16Z" transform="translate(-642.75171 -343.62742)"/><path class="cls-16" d="M929.37,1124.29c-.02.1499-.04.28992-.05.43994-1.76,13.65-1.11,27.47-2.83,41.04-.93,7.36-.51,18.42993-14.12,13.86-17.7-15.52-31-34.55-43.32-54.36,10.73-24.09009-.28-50.98,9.67-75.17,1.48,2.23,2.95,4.47009,4.43005,6.70007Q904.18,1088.585,925.2,1120.35c1.22.70007,2.44,1.41,3.64,2.14C929.03,1123.09,929.2,1123.68994,929.37,1124.29Z" transform="translate(-642.75171 -343.62742)"/><path class="cls-17" d="M1140.89,1128.75c-13.26,22.04-30.02,41.16992-48.77,58.63-3.95008-12-4.46009-24.36-4.04993-36.87.27-8.22,1.51-16.99-7.43006-22.23a9.727,9.727,0,0,1-.93005-1.45007,16.30093,16.30093,0,0,1,1.79.20007q23.085-33.64507,46.18994-67.31006a9.53687,9.53687,0,0,1-.56994-.77,6.98139,6.98139,0,0,1,.92-.02,13.26257,13.26257,0,0,1,3.33.5c13.80993,12.25,8.72009,28.79,9.99,43.89014C1142.08008,1111.81006,1140.65,1120.27,1140.89,1128.75Z" transform="translate(-642.75171 -343.62742)"/><path class="cls-18" d="M1175.17993,1073.17993A225.33174,225.33174,0,0,1,1140.89,1128.75c-10.85-10.41-4.27-23.64-5.42-35.53-1.12988-11.62,1.48-23.85-7.78-33.5a9.53687,9.53687,0,0,1-.56994-.77,6.98139,6.98139,0,0,1,.92-.02q15.67493-35.4298,31.35-70.83c-.38-1.18-.81994-2.35-1.29-3.52.05-.3.11-.61.16-.91a11.04612,11.04612,0,0,1,3.58008-1.09c10.06982,10.35,6.55993,23.51,7.82983,35.84C1171.54,1036.66992,1163.66992,1055.92993,1175.17993,1073.17993Z" transform="translate(-642.75171 -343.62742)"/><path class="cls-19" d="M972.4,1210.64c.33,6.88,1.55,14.85-8.81,16.16-19.42-13.17-35.98-29.45007-51.22-47.17,11.57-1.81994,8.44-10.96008,8.65-18.06994.42-13.8501-1.14-27.86011,4.18-41.21008,1.22.70007,2.44,1.41,3.64,2.14.19.6.36,1.19995.53,1.80005-.02.1499-.04.28992-.05.43994q21.795,23.15991,43.58,46.3c.05-.14.11-.27.17-.41.03-1.24.06-2.4701.08-3.71009a85.86261,85.86261,0,0,1,3.65,8.27A100.97915,100.97915,0,0,0,972.4,1210.64Z" transform="translate(-642.75171 -343.62742)"/><path class="cls-20" d="M955.39,425.4c-.35,7.56,1.77,16.37-9.67,17.9q-29.53491-12.84-59.05-25.68c8.07-15.3,3.08-31.82,4.47-47.75q.825-.195,1.68-.36c.25.24.5.49.75.74,23.15,3.8,43.72,14.25,64.07,25.24.29-.13.57-.24.86-.35.38.46.75.94,1.1,1.41C953.34,405.45,955.84,415.65,955.39,425.4Z" transform="translate(-642.75171 -343.62742)"/><path class="cls-21" d="M1208.22,398.77q-23.68506,4.53-47.37988,9.04c-10.17017-13.77-2.26-32.74-12.58008-46.49a.43736.43736,0,0,1-.06006-.07l60.22-12,4.12012-.82c.12988.02.27.02.3999.03l.63013.03C1219.52,366.08,1225.16992,383.64,1208.22,398.77Z" transform="translate(-642.75171 -343.62742)"/><path class="cls-22" d="M1147.98,361.33c.1,0,.19-.01.28-.01,8.31-.19,13.12,2.9,12.75,12.34-.45,11.37-.15,22.77-.17,34.15l-51.42,16.71c-10.43-15.56-5.9-32.37-4.16-48.96.51-.7,1.03-1.37,1.56-2.03.24-.3.47-.59.72-.88Z" transform="translate(-642.75171 -343.62742)"/><path class="cls-23" d="M1092.05005,567.14c-.59009-.35-1.17-.69-1.75-1.04.06995-.25.12988-.5.18994-.75q-16.125-18.465-32.24-36.92a1.55566,1.55566,0,0,0,.12-.15c15.49-17.95,5.66-39.42,8.13-59.19,13.57007,9.09,24.38,21.01,34.48,33.66C1097.45,524.14,1109.31006,547.66,1092.05005,567.14Z" transform="translate(-642.75171 -343.62742)"/><path class="cls-24" d="M1057.48,394.03c-.23.3-.45.6-.68.91v.01h.01c11.57,14.39,9.48,31.63,10.1,48.31q21.255-9.36,42.51-18.74-.06-25.8-.12-51.61c-.59-.1-1.18-.18-1.76-.26Z" transform="translate(-642.75171 -343.62742)"/><path class="cls-25" d="M1250.98,394.96q-21.375,1.905-42.76,3.81c8.12012-15.99,2.4-33.11,4.05-49.63a7.41866,7.41866,0,0,1,.27-.71,6.13185,6.13185,0,0,1,3.8-3.44c3.00989-.03,6.00989-.06,9.02991-.09h.01c3.26,1.76,6.80994,1.65,10.34,1.56,11.4-.29,23.39-1.87,26.82007,13.62C1265.64,374.04,1265.98,387.03,1250.98,394.96Z" transform="translate(-642.75171 -343.62742)"/><path class="cls-26" d="M1250.97791,394.95792c2.67531-5.7329,6.3926-11.21833,7.82354-17.24676,3.76317-15.85367-5.60415-27.91145-21.82978-29.10072-4.22928-.31-8.51522-.00658-11.5973-3.712q34.22631.02361,68.451.04735c14.978,10.15206,11.43942,24.98258,7.4938,38.01053-5.09634,16.82715-21.81148,7.67544-32.86314,11.62208Z" transform="translate(-642.75171 -343.62742)"/><path class="cls-27" d="M1268.456,394.57846c32.22831-8.45517,36.3384-16.49621,25.36928-49.63262q10.81128.02466,21.623.04932c4.823,4.49918,11.24162,2.37549,16.74762,4.03835,9.28661,11.4942,7.23137,24.69182,4.93736,37.55224-1.26914,7.11461-4.77,13.47134-14.25149,9.48165Z" transform="translate(-642.75171 -343.62742)"/><path class="cls-28" d="M1322.88181,396.0674c12.62433-2.13334,8.89853-12.13552,9.25022-19.84929.4122-9.0448.0758-18.12374.064-27.18624a21.17877,21.17877,0,0,1,4.22529-.337c10.33515,1.2215,25.114-.07535,28.72116,8.75351,5.31193,13.00133-.24334,29.84388-8.23893,40.01163C1349.22356,407.22646,1334.34227,400.00938,1322.88181,396.0674Z" transform="translate(-642.75171 -343.62742)"/><path class="cls-29" d="M977.03,875.36c-.65-1.51-1.31006-3.01-2-4.5C964,846.87,948.42,826.09,929.23,807.88q.06006-3.015.12-6.03c.32-17.04.84-34.05,7.09-50.23.49-1.27,1.02-2.53,1.58-3.79q23.43,22.95006,46.84,45.9c.15.15.3.29.45.44C982.41,821.22,992.59,849.61,977.03,875.36Z" transform="translate(-642.75171 -343.62742)"/><path class="cls-30" d="M1085.91992,800.25a45.5167,45.5167,0,0,1-2.0199,6.78c-13.49011,14.76-27.70007,28.93-38.63,45.77-1.34009,2.05-2.62,4.13-3.8501,6.26a.0098.0098,0,0,0-.01.01.037.037,0,0,1-.00989.03c-6.21008-15.38-4.38-31.56-4.70007-47.53-.1499-7.36005,2.13013-16.19-9.21-17.87.66-.64,1.31006-1.28,1.97-1.92q20.835-20.265,41.68005-40.52a10.68734,10.68734,0,0,1,6.22-1.44c4.29.57,6.13,5.19995,6.64,9.62C1085.6,772.98,1088.88,786.65,1085.91992,800.25Z" transform="translate(-642.75171 -343.62742)"/><path class="cls-31" d="M931.42,803.64c-.67,1.42-1.4,2.84-2.19,4.24a256.36542,256.36542,0,0,1-49.16-55.1q-.555-.81-1.08-1.62c8.89-1.51,7.8-8.41,7.85-14.63.18-25.76-1.39-51.63,4.81994-77.02a136.46008,136.46008,0,0,0,3.55,15.15c8.13,27.61,24.34,50.98,42.81,73.17q.105,2.98508.21,5.96C938.8,770.82,938.87,787.78,931.42,803.64Z" transform="translate(-642.75171 -343.62742)"/><path class="cls-32" d="M1109.38,780.56c-.11.17-.23.34-.35.51a96.9881,96.9881,0,0,1-25.13,25.96c-.43-1.25-.81994-2.51-1.18-3.77-3.29-11.64-3.5-23.6-3.26-35.67.12012-5.68,1.58008-12.48-4.51-15.27a13.74416,13.74416,0,0,0-3.80994-1.06q14.595-18.93,29.19007-37.86c1.52991-1.99,3.06994-3.97,4.59985-5.96C1109.54,731.62,1110.48,756.03,1109.38,780.56Z" transform="translate(-642.75171 -343.62742)"/></svg>