<svg id="Layer_1" data-name="Layer 1" xmlns="http://www.w3.org/2000/svg" viewBox="0 0 200 200"><defs><style>.cls-1{fill:#e435aa;}.cls-2{fill:none;}</style></defs><g id="hg8xUR.tif"><path class="cls-1" d="M460.67384,239.33747a1.71611,1.71611,0,0,1-1.40771-1.98357q.048-22.26716,0-44.53432a1.585,1.585,0,0,1,1.34372-1.85559,17.56368,17.56368,0,0,0,12.31732-16.98831c-.19195-7.55036-3.74319-13.18113-10.68569-16.18848-6.91049-3.00734-13.40509-1.79161-19.13183,3.13532a1.463,1.463,0,0,1-2.01556.28794q-19.43577-11.27756-38.93554-22.49111a1.52848,1.52848,0,0,1-.83181-2.04756,15.99117,15.99117,0,0,0,0-7.58235,17.802,17.802,0,1,0-34.74443,7.77431,1.36219,1.36219,0,0,1-.79983,1.75962c-1.72763.9278-3.42326,1.95158-5.11889,2.94336q-16.89233,9.78987-33.81665,19.54775c-.63986.38391-1.15175.70384-1.91958-.032a17.39544,17.39544,0,0,0-14.013-4.735,17.77438,17.77438,0,0,0-15.77256,15.32467c0,1.63165,0,3.2313.032,4.863,1.18375,7.23043,5.27885,11.99739,12.12536,14.42886.9278.31993,1.34371.63986,1.34371,1.72762q-.048,22.41114,0,44.85424a1.5423,1.5423,0,0,1-1.27972,1.75962c-6.97448,2.49545-11.10159,7.39039-12.18935,14.74879v4.511c1.11976,6.9425,4.863,11.90142,11.45351,14.3009,6.62256,2.43146,12.76522,1.18375,18.10806-3.45525.70385-.60787,1.15175-.83181,2.01556-.31993q19.53175,11.32552,39.06349,22.5551a1.32866,1.32866,0,0,1,.73584,1.7916,17.21467,17.21467,0,0,0-.224,6.65455c1.43968,10.01382,11.06958,16.63638,21.37134,14.65281,9.56593-1.85559,15.96454-12.02938,13.53306-21.56332a1.65065,1.65065,0,0,1,.8958-2.23951q19.2438-11.0376,38.39165-22.17118a1.54516,1.54516,0,0,1,2.2715.288,17.14825,17.14825,0,0,0,17.24425,4.22308,17.73215,17.73215,0,0,0,.63989-33.94461Zm-142.1131-1.59965a7.04288,7.04288,0,0,1-.4799.83182c-.128.224-.25594.4799-.60786.38392-.31994-.096-.31994-.38392-.35193-.63986-.032-.4159,0-.86381,0-1.27972V215.02276c0-7.39039.032-14.78079-.032-22.17117a1.73628,1.73628,0,0,1,1.43969-1.98358,17.66585,17.66585,0,0,0,11.61348-20.50754,1.45459,1.45459,0,0,1,.83181-1.88759q19.48375-11.18157,38.93554-22.45911c.41591-.25595.8958-.86381,1.3757-.35193.44791.4799-.192.9598-.41591,1.37571Q344.763,192.38768,318.56074,237.73782Zm118.75817,24.3787q-2.06354,1.19975-4.12711,2.39948-17.37222,10.02984-34.77644,20.09163a1.5461,1.5461,0,0,1-2.2715-.25594,17.70989,17.70989,0,0,0-23.93079-.41591,1.73776,1.73776,0,0,1-2.46347.224q-19.2918-11.22957-38.64759-22.36315c-.4159-.25594-1.21573-.35191-1.02378-1.02378.19195-.63986.92781-.31993,1.4077-.31993H436.807c.41591.032.8958-.096,1.02378.4799A.89557.89557,0,0,1,437.31891,262.11652Zm4.575-17.88411a14.48971,14.48971,0,0,0-3.71119,6.4306c-.35192,1.31172-1.08777,1.40769-2.20753,1.40769-17.34023-.032-34.68046,0-52.0207,0s-34.68046,0-52.02068.032c-1.21573,0-1.88759-.224-2.27149-1.53567a14.88313,14.88313,0,0,0-3.6792-6.27063,1.40141,1.40141,0,0,1-.25594-2.01556q26.29827-45.4941,52.53258-91.02021c.47989-.83182.8958-1.21573,1.95156-.92779a15.33336,15.33336,0,0,0,7.42239,0,1.51335,1.51335,0,0,1,1.98358.8958q18.66795,32.48894,37.43186,64.91388,7.48635,12.95718,15.00474,25.94636A1.44394,1.44394,0,0,1,441.89392,244.23241Zm8.51014-5.34284c-.63986.192-.73584-.63986-.99178-1.05576Q423.21,192.48367,397.03967,147.10154c-.128-.224-.25594-.4479-.38392-.70385s-.41591-.54388-.064-.83182c.31993-.25595.60787-.032.86381.128,1.34371.76783,2.68742,1.53567,3.99913,2.3035q17.51619,10.12579,35.09637,20.2196a1.81861,1.81861,0,0,1,1.11976,2.33549A17.57013,17.57013,0,0,0,449.44427,190.804a1.68047,1.68047,0,0,1,1.34371,1.91959c-.064,7.45437-.032,14.90876-.032,22.33114v22.33114C450.756,237.96178,451.04392,238.72961,450.40406,238.88957Z" transform="translate(-284.05319 -115.09638)"/></g><rect class="cls-2" width="200" height="200"/></svg>