<svg id="Layer_1" data-name="Layer 1" xmlns="http://www.w3.org/2000/svg" viewBox="0 0 331.40266 164.63938"><defs><style>.cls-1{fill:#f2f1f1;}.cls-2{fill:#99cc51;}.cls-3{fill:#97d200;}.cls-4{fill:#96d200;}.cls-5{fill:#648532;}.cls-6{fill:#a09f9f;}.cls-7{fill:#658901;}.cls-8{fill:#729839;}.cls-9{fill:#618216;}.cls-10{fill:#719839;}.cls-11{fill:#729939;}.cls-12{fill:#486c03;}.cls-13{fill:#355203;}.cls-14{fill:#719738;}.cls-15{fill:#9f9e9e;}.cls-16{fill:#719a06;}.cls-17{fill:#597b0f;}.cls-18{fill:#5c8404;}.cls-19{fill:#5d8108;}.cls-20{fill:#446108;}.cls-21{fill:#527506;}.cls-22{fill:#466309;}.cls-23{fill:#52740a;}.cls-24{fill:#324e04;}.cls-25{fill:#60830c;}.cls-26{fill:#476605;}.cls-27{fill:#3b462d;}.cls-28{fill:#375406;}.cls-29{fill:#3a5908;}.cls-30{fill:#436205;}.cls-31{fill:#79a014;}.cls-32{fill:#3d5b08;}.cls-33{fill:#415f05;}.cls-34{fill:#61840d;}.cls-35{fill:#31490e;}.cls-36{fill:#374f10;}.cls-37{fill:#476409;}.cls-38{fill:#2e4903;}.cls-39{fill:#62870a;}.cls-40{fill:#5a7e08;}.cls-41{fill:#496e01;}.cls-42{fill:#52720d;}.cls-43{fill:#49670b;}.cls-44{fill:#658816;}.cls-45{fill:#3c5810;}.cls-46{fill:#436104;}.cls-47{fill:#31460c;}.cls-48{fill:#526e18;}.cls-49{fill:#547508;}.cls-50{fill:#4e7103;}.cls-51{fill:#5a7e0b;}.cls-52{fill:#516336;}.cls-53{fill:#496b02;}.cls-54{fill:#618212;}.cls-55{fill:#58614a;}.cls-56{fill:#020406;}.cls-57{fill:#6c9407;}.cls-58{fill:#010101;}.cls-59{fill:#78a11f;}</style></defs><g id="KYQZ7Z.tif"><path class="cls-1" d="M239.14993,137.90076a48.90709,48.90709,0,0,0,20.64705,1.76192c.52551-.05683.92346-.23087.91813.65017-.02089,3.45733.96724,6.76159,1.65486,10.11458a76.03463,76.03463,0,0,1,2.00078,18.26448c-.146,3.736-.87171,7.31461-3.2734,10.34576a1.39794,1.39794,0,0,0-.30152,1.26685c.77911,3.75148-.66694,7.15159-1.71086,10.6153-.15941.529-.58987.49551-.9873.53137-1.17251.10581-2.34618.19869-3.5194.29663-1.47588.23112-2.96281.02044-4.44088.11026-.99094.06021-1.01579-.41484-.689-1.11883a23.33348,23.33348,0,0,1,2.32775-3.97046,6.50362,6.50362,0,0,0,1.0451-5.49466c-1.00047-5.174-1.53408-10.42567-2.1204-15.66357a37.54289,37.54289,0,0,1-.19982-8.698c.19445-1.19823.3889-2.39644.65157-4.01512a29.95724,29.95724,0,0,0-2.78742,7.659c-1.15722,4.12245-1.95013,8.36147-4.02072,12.18557a23.18313,23.18313,0,0,1-6.79372,7.81258,2.668,2.668,0,0,0-1.328,2.0386c-.16535,1.65447-1.26882,2.85769-2.38108,4.01129a5.69036,5.69036,0,0,0-1.83094,3.26537l1.50652-1.149c.35836,3.88916-.64073,7.34586-1.86944,10.75562A20.13655,20.13655,0,0,1,230.319,202.57a23.75373,23.75373,0,0,0-2.85107,12.70136c.042,1.37431-.456,1.77464-1.74959,1.7531a20.06978,20.06978,0,0,1-5.59336-.849c-.54585-.16734-1.03315-.3155-.91582-1.12759.82086-5.68135.63655-11.44034,1.36976-17.139.81018-6.29686,2.709-12.0434,7.25554-16.66609a2.28741,2.28741,0,0,0,.54327-2.59839c-1.884-6.14939-1.35152-12.34441-.18732-18.53133.51025-2.71165,1.22446-5.37564,1.98717-8.02837a3.00673,3.00673,0,0,1,1.54326-2.10693c2.36765-1.221,3.99914-3.32335,5.87272-5.13162.71036-.68559.47666-1.495.23575-2.29236C238.03517,140.93635,237.89608,139.22117,239.14993,137.90076Z" transform="translate(-138.38555 -68.67798)"/><path class="cls-2" d="M199.72487,172.27563c-4.905.1466-9.79412.17088-14.54269-1.37926-6.52919-2.13139-10.25042-6.695-11.64089-13.30525a4.16338,4.16338,0,0,1,.45723-2.94814c3.14586-6.62521,7.56863-12.34032,12.45565-17.75835,3.43027-3.803,7.12623-7.32191,10.87188-10.79737.46162-.42832.81018-1.30306,1.73737-.79505,1.561,4.55343,4.86664,7.45059,9.0523,9.50551,2.88837,1.418,5.79681,2.79591,8.66953,4.24469,1.09152.55047,2.11413,1.23948,3.1574,1.88279,1.14466.70582,2.13619,1.424,2.04015,3.07329a3.77106,3.77106,0,0,0,1.36268,2.49863,3.77532,3.77532,0,0,1,1.46528,2.47305c.07287,1.04439,1.50124,1.444,2.53862,1.66066,1.03192.21556,1.27178.59007.81513,1.53133a20.69879,20.69879,0,0,0-.7417,2.00491c-2.16138,3.10385-5.115,5.39308-8.01989,7.72a65.66959,65.66959,0,0,1-13.00624,8.31385A19.86706,19.86706,0,0,1,199.72487,172.27563Z" transform="translate(-138.38555 -68.67798)"/><path class="cls-3" d="M326.23956,157.85384c.00068-2.15084-.03137-4.30242.01717-6.45218.02108-.93355-.29188-1.28237-1.24327-1.21707-1.01924.06994-2.04812-.00053-3.07279-.00971a7.11823,7.11823,0,0,0-2.42077-.153c-.89834-.06261-1.57129-.36124-1.78532-1.34015a13.27376,13.27376,0,0,1,.03119-6.94836,1.988,1.988,0,0,1,2.1313-1.56666q7.75466.05769,15.51.00291a2.15712,2.15712,0,0,1,2.29419,1.6326,11.67546,11.67546,0,0,1,.71669,3.57686c-.032,5.52425-.01229,11.04879-.01445,16.57324-.00132,3.37655-1.23331,5.16881-4.38692,6.37549a2.72475,2.72475,0,0,0-.69076.32009l-.13189.01742-.13272-.00941a33.48612,33.48612,0,0,1-4.6566.88435c-3.39461,1.266-6.94073.79685-10.436.90989a29.12512,29.12512,0,0,1-4.95846-.87594q-.14153-.03087-.28486-.0516a19.03035,19.03035,0,0,0-3.4101-.88355l-3.64085-1.58249a7.76571,7.76571,0,0,1-2.2774-1.71252c-.85182-.79955-1.62156-1.676-2.39391-2.55l.00067.00088c-1.14538-.89914-1.49254-2.36153-2.4152-3.41785a44.61641,44.61641,0,0,1-2.13275-6.35811c-.2209-.94806-.27144-1.87564-.40495-2.81156a49.4253,49.4253,0,0,1-.00449-13.90866c.16516-4.29554,1.84952-8.06607,4.0363-11.663a12.99724,12.99724,0,0,1,4.94075-4.59948c1.28622-.44574,2.19929-1.49571,3.49487-2.01855a20.65933,20.65933,0,0,1,3.81856-1.18541,36.15391,36.15391,0,0,1,8.1714-.92171c2.24736.102,4.49679.00066,6.66866.72807a36.28547,36.28547,0,0,1,6.32314,1.52392,6.167,6.167,0,0,1,3.52343,3.103c-.07574,2.82806-1.65366,4.91678-3.49951,6.81268-.57777.59343-1.5396.29852-2.34069.2516-1.2394-1.072-2.94985-.81772-4.31671-1.53088q-.14751-.00819-.29418-.02609a30.27428,30.27428,0,0,0-9.368-.27211,7.92908,7.92908,0,0,0-4.33538,1.8059c-.59047.60234-1.08745,1.29048-1.69356,1.88044l-.00094.00093a3.129,3.129,0,0,0-.94327,1.50949l-.00274.01567c-.64982.42221-.652,1.19117-.96249,1.79507l-.58334.96523a28.96092,28.96092,0,0,1-.89459,4.32451c-.00531,2.55187-.18786,5.11877.02728,7.65194.29251,3.44384.9604,6.83683,3.3274,9.59916a9.05822,9.05822,0,0,0,4.34988,3.33792l-.00278-.00015c3.07729,1.01653,6.21577.70157,9.36536.50661C326.37461,159.79942,326.06944,158.72544,326.23956,157.85384Z" transform="translate(-138.38555 -68.67798)"/><path class="cls-1" d="M258.77882,98.08038c2.04379,1.35583,4.425,2.13866,6.34162,3.70714a10.88651,10.88651,0,0,1,3.91839,9.6687c-.10944,1.75382-.94783,2.15092-2.63651,1.50131-1.52506-.58668-3.00072-1.3161-4.55109-1.81993-5.29262-1.71994-10.64054-1.08017-15.969-.18549-1.81308.30442-3.591.8144-5.38976,1.20847a8.00115,8.00115,0,0,1-6.46554-1.13423c-1.56669-1.064-3.155-2.105-4.64467-3.26992-.80634-.6306-1.12344-.44789-1.56036.3538a8.86358,8.86358,0,0,0-.98938,2.86617,14.20284,14.20284,0,0,1-3.43322,7.41006c-2.2404,2.47545-4.29379,2.79862-7.19051,1.17433-.56651-.31765-1.1619-.58387-1.59938-.80179-.33866.08109-.37062.17135-.25482.26666a22.19653,22.19653,0,0,1,6.42744,9.3792,30.30525,30.30525,0,0,0,5.47671,8.83055,2.46766,2.46766,0,0,0,1.97282.94188c3.25433.05891,5.4915,1.98041,7.50577,4.25222a1.37643,1.37643,0,0,1,.07911,1.82893,18.22727,18.22727,0,0,1-5.16142,4.762,2.59917,2.59917,0,0,1-3.48471-1.09391c-.3539-.69241-1.02958-.97607-1.58055-1.41085-1.39912-1.10409-2.43008-2.38159-2.14053-4.29537.12785-.84508-.4431-1.172-.96864-1.57021a77.42813,77.42813,0,0,0-9.17641-5.56929,44.33282,44.33282,0,0,1-7.7042-5.01529,12.3047,12.3047,0,0,1-3.88455-7.95549,3.319,3.319,0,0,1,.80977-2.72243,17.4582,17.4582,0,0,0,3.6885-7.82089,11.78884,11.78884,0,0,1,.57615-1.74179c1.2889-3.09925,4.41719-3.86052,7.01432-1.71354.41269.34115.79522.71872,1.43994,1.30533a5.8517,5.8517,0,0,0-2.73-3.52423,1.52831,1.52831,0,0,1-.78307-1.908,8.31453,8.31453,0,0,1,5.215-6.02894,14.25019,14.25019,0,0,1,10.87858-.67438,20.29615,20.29615,0,0,0,12.83843-.03226c1.199-.463,2.28189.23218,3.42436.33779,2.31648.51584,4.57578,1.45974,7.03018.92266,1.53708-.31481,3.01826-.84481,4.55093-1.1775a4.67264,4.67264,0,0,1,1.95691-.06936A1.67881,1.67881,0,0,1,258.77882,98.08038Z" transform="translate(-138.38555 -68.67798)"/><path class="cls-4" d="M426.65,165.39c-.98-1.93-1.38-4.03-2.18-6a28.09319,28.09319,0,0,1-.95-3.37,1.88581,1.88581,0,0,1-.56-.89c-.58-1.87-1.18-3.74-1.89-5.58-.58-1.79-1.14-3.6-1.76-5.38-.7-2.01-1.39-4.03-2.17-6.01-.79-1.99-1.31-4.08-1.95-6.12a8.57816,8.57816,0,0,1-.72-1.5,80.5419,80.5419,0,0,0-2.63995-8.05,25.81548,25.81548,0,0,0-1.39-4.11,2.4373,2.4373,0,0,0-1.7-1.72,18.07926,18.07926,0,0,0-8.62-.03c-1.02-.21-1.71.43-2.45.95-.52,1.87005-1.28,3.67-1.84,5.53a2.35758,2.35758,0,0,1-.04.28,5.53628,5.53628,0,0,0-.86,2.52.66345.66345,0,0,1-.06.2,2.31341,2.31341,0,0,1-.22.51c-.7,1.08-.62,2.46-1.3,3.55h-.01a19.88543,19.88543,0,0,1-.88,2.49c-.01.2-.02.4-.03.59-.75.79-.71,1.88-1.04,2.83-.76,2.24-1.62,4.45-2.35,6.71a18.83751,18.83751,0,0,1-.87,2.41,74.23091,74.23091,0,0,1-2.66,8.13c-1.16,2.96-2.12,5.97-3.07,8.99-.29.93-1.09,1.75-.83,2.84a6.77461,6.77461,0,0,0-.69,2.31,1.23073,1.23073,0,0,0,1.04,1.68c.49.11005.98.22,1.46.34.15.03.29.07.44.11h.01c.45.1.89.2,1.34.31.71.06,1.41.13,2.11.13a6.82829,6.82829,0,0,0,2.66-.47,2.8411,2.8411,0,0,0,2.5-2.59c.18-.96.6-1.78.85-2.68.02-.2.03-.39.05-.58a18.806,18.806,0,0,0,.93-2.74c.73-1.93.85-2.03,2.88-2.04,4.6-.03,9.2.02,13.81-.03a1.98572,1.98572,0,0,1,2.07,1.38c.53,1.11.4,2.44,1.19,3.44.02.19.04.39.05.58a11.78932,11.78932,0,0,1,.89,2.79v.01c.45,1.19,1,2.28,2.48,2.42.2.02.4.04.6.05a10.26015,10.26015,0,0,0,6.48-.02c.8-.03,1.78.14,2.07-.88A4.59322,4.59322,0,0,0,426.65,165.39Zm-18.09-17.88c.65.83.11,1.03-.47,1.04q-4.35.075-8.71.01c-.63-.01-.58-.26-.44-.97.32-1.63,1.5-3.04,1.21-4.79.88-1.12,1.02-2.55,1.41-3.83.79-2.52,1.93-4.97,2.17-7.71,1.55,4.9,2.79,9.86,4.68,14.62C408.44,146.43,408.28,147.15,408.56,147.51Z" transform="translate(-138.38555 -68.67798)"/><path class="cls-4" d="M468.76,127.74l-.01-.01c-.83-.98-.65-2.39-1.4-3.4a10.6206,10.6206,0,0,0-3.52-4.28,4.60009,4.60009,0,0,1-.78-.44,12.51535,12.51535,0,0,0-7.44-2.8c-6.99-.3-14-.12-21.01-.13-1.88.48-2.3,1.04-2.3,3.19q0,20.04,0,40.09c.01,2.66-.08,5.33.08,7.99a1.05816,1.05816,0,0,0,.06.19.44129.44129,0,0,0,.06.16c.38.87,1.29,1,2.12,1.24.19.02.39.03.59.05a10.77347,10.77347,0,0,0,6.48-.03l.14-.02h.15c1.74-.47,2.15-.95,2.16-2.78.02-4.87,0-9.73.01-14.59,0-1.94.04-2.02,1.96-1.99,4.35.09,8.67.02,12.81-1.54a30.50426,30.50426,0,0,0,3.96-1.88,11.342,11.342,0,0,1,.87-.82c1.41-1.13,2.87-2.24,3.49-4.06v-.01a11.1574,11.1574,0,0,0,1.6-3.91A28.54105,28.54105,0,0,0,468.76,127.74Zm-24.88.66c-.03-1.32.49-1.69995,1.72-1.66,2,.07,4,.01,6,.03a5.45708,5.45708,0,0,1,5.49,5.24c.05,1.23-.02,2.46-.04,3.69-.99.49-.89,1.76-1.77,2.42-.55.4-1.64.17-1.66,1.25-2.66.03-5.33.03-8,.09-1.2.03-1.77-.38-1.75-1.69C443.94,134.65,443.96,131.52,443.88,128.4Z" transform="translate(-138.38555 -68.67798)"/><path class="cls-4" d="M360.40786,126.78666a.794.794,0,0,1-.26775.03535c-2.22723,1.28471-2.62123,2.48629-1.91723,5.847l.72343.82692a6.0132,6.0132,0,0,0,1.83417,1.564c1.63618.28469,2.93476,1.35318,4.46553,1.91949a48.3714,48.3714,0,0,1,7.07328,3.23249,13.62493,13.62493,0,0,1,5.06973,4.99485,4.43,4.43,0,0,1,.86981,1.59457l.00366.00272c1.54175,3.88658,1.4205,7.84282.67772,11.88075a28.6346,28.6346,0,0,1-1.57886,4.11624,11.848,11.848,0,0,1-7.35612,5.86208c-4.21926,1.79974-8.6654,1.38216-13.0736,1.33662a3.0118,3.0118,0,0,1-1.45169-.435l-1.20111-.02727c-1.5679-.44344-3.28666-.42118-4.64762-1.50343l.00171,0a10.76658,10.76658,0,0,1-4.30846-2.67326c-1.0406-1.07541-.84921-2.181-.54783-3.344.41282-1.593,1.59862-2.76995,2.39733-4.15757l.01327.003a3.03829,3.03829,0,0,1,2.49409-.95586c1.8271.214,3.16533,1.61168,4.91225,2.02315,2.88881.68048,5.70288,2.19957,8.77521.64464.64792-.32792,1.41758-.18123,2.10995-.7147a4.85133,4.85133,0,0,0,.0158-7.72931,2.92024,2.92024,0,0,1-.79783-.89642,30.69964,30.69964,0,0,0-4.47591-2.15987c-.40144-.25556-.92283-.09236-1.31523-.37584l-.01349-.009a2.9793,2.9793,0,0,0-1.56595-.87476l-.00064.00016c-1.05417-.67374-2.30368-.922-3.37921-1.54925l.00152.00024a11.39653,11.39653,0,0,1-4.35945-3.337l.0099-.01392c-.59657-.99487-1.50427-1.73507-2.12318-2.74052a7.99192,7.99192,0,0,1-1.24316-3.13664,12.70541,12.70541,0,0,1-.10653-8.62159,5.06461,5.06461,0,0,0,.14666-1.21269c.74577-1.16548.997-2.58279,1.87672-3.68l-.002.00587c.49484-.63628,1.1135-1.16686,1.56962-1.8362a20.38988,20.38988,0,0,1,8.7769-4.23316,53.59028,53.59028,0,0,1,7.89122-.50712c1.26145-.037,2.33223.72849,3.57174.70417a10.06825,10.06825,0,0,1,3.09926.89084l.0024.00008a7.127,7.127,0,0,1,4.273,3.43141l.022.58637a11.77487,11.77487,0,0,1-2.44029,5.25185l-.0033.00127c-.862,1.14885-1.9078,1.27595-3.89725.41355-3.2721-1.41845-6.66858-.94356-10.05155-.69352A1.31225,1.31225,0,0,0,360.40786,126.78666Z" transform="translate(-138.38555 -68.67798)"/><path class="cls-2" d="M138.38555,153.09365a40.40639,40.40639,0,0,1,7.53568-17.86465c5.28245-7.16153,12.33093-12.2087,19.88661-16.67235,13.94318-8.23718,28.94515-13.86907,44.49362-18.172a1.83708,1.83708,0,0,1,.45125.0368,10.62783,10.62783,0,0,0-1.495,4.39208c-.02871.57653-.52366.59111-.89507.653-2.57426.42912-4.0046,2.15549-4.90077,4.39861a44.24172,44.24172,0,0,0-1.4005,4.37865,3.10572,3.10572,0,0,1-1.94986,2.136c-13.16053,5.80561-26.268,11.75213-38.65985,19.0813-8.02366,4.74561-15.67264,10.09111-22.21827,16.83608C139.06141,152.47437,138.8737,152.63623,138.38555,153.09365Z" transform="translate(-138.38555 -68.67798)"/><path class="cls-1" d="M236.1105,113.82649c2.81993,1.10537,5.53777.17542,8.28128-.39472,6.51411-1.35372,12.994-1.67778,19.36171.75855,2.10476.80531,2.22947.98393,2.08173,3.25157a13.76086,13.76086,0,0,1-1.51074,5.58758A27.54679,27.54679,0,0,0,261.16715,137.08c.03021.85953-.22658,1.17623-1.046,1.26273-7.09788.74928-14.12854,1.01727-20.64971-2.6716a2.24656,2.24656,0,0,1-.44037-1.739,18.66713,18.66713,0,0,0-4.47026-13.62376,4.41278,4.41278,0,0,1-.33633-5.42258A1.90819,1.90819,0,0,1,236.1105,113.82649Z" transform="translate(-138.38555 -68.67798)"/><path class="cls-5" d="M199.06342,125.29221c-.40444-.02037-.64478.2513-.90947.49487-7.33494,6.74983-14.36,13.783-19.94949,22.10075a49.27968,49.27968,0,0,0-4.26368,7.77726,4.22314,4.22314,0,0,0-.39946,1.926c-.83062-2.38116-.77583-4.90608-1.18446-7.3562-.83785-5.0237-2.02922-9.89663-5.35834-13.95771-.35128-.42853-.62551-.75738.11337-1.1504,9.5349-5.07176,19.00051-10.28194,29.0326-14.34769.60853-.24663,1.25413-.40194,2.07223-.65948A9.32223,9.32223,0,0,0,199.06342,125.29221Z" transform="translate(-138.38555 -68.67798)"/><path class="cls-2" d="M245.57507,222.11605c2.3463-5.61835,1.04384-11.08485-.69624-16.5306-.13838-.43309-.33829-.84655-.5096-1.26913.24067-1.02209,1.10976-.71919,1.74213-.7541,2.28713-.12622,4.56433.33048,6.87358.02252,1.30826-.17446,2.6394-.24375,3.9509-.45255a2.12519,2.12519,0,0,1,1.89873.26056,115.40593,115.40593,0,0,0-.07445,13.95163,2.1453,2.1453,0,0,0,1.15672,1.96685c3.74859,2.08017,7.48507,4.18216,11.22587,6.27635a2.97119,2.97119,0,0,1,1.90323,2.813,2.08072,2.08072,0,0,1-1.28433,2.0322c-2.94256.21831-5.79143-.49027-8.671-.88426a95.18492,95.18492,0,0,0-11.62966-.689c-1.16322-.77542-1.0599-2.01915-1.00478-3.13561.05619-1.138-.24955-1.67253-1.43311-1.77864a10.32447,10.32447,0,0,1-2.6431-.6692C245.87471,223.088,245.25035,222.9108,245.57507,222.11605Z" transform="translate(-138.38555 -68.67798)"/><path class="cls-1" d="M267.72607,122.44709a11.13477,11.13477,0,0,0,.66027-4.97221c-.02954-.41511-.28452-.87691.36191-1.164.911-.40452,2.03421-.6298,2.39486-1.73384a8.80037,8.80037,0,0,0,.14871-4.54512,12.71633,12.71633,0,0,0-1.58039-3.96111,17.76441,17.76441,0,0,0-2.68762-3.37645c4.15035-.70538,8.21015,2.55662,8.76156,6.92447a10.08563,10.08563,0,0,1-.59581,5.1303,2.19587,2.19587,0,0,0,.28761,2.365,8.71645,8.71645,0,0,1,1.64252,6.81089,2.91623,2.91623,0,0,1-1.71121,2.345,5.10663,5.10663,0,0,0-2.27252,1.989c1.07282-.178,1.90122-.7699,2.88729-.88,2.14266-.23933,3.44162.5694,4.01385,2.63659a9.41264,9.41264,0,0,1-.87024,6.84867c-1.77941,3.57508-3.96966,6.92583-5.83772,10.46635-2.14148,4.05875-4.49448,4.35466-9.19466,1.33064a1.56262,1.56262,0,0,1-.6141-1.17572c-.17989-.9017-.34181-1.80807-.47478-2.71782-.40818-2.7927,1.24407-4.68908,4.12989-4.71556a13.58934,13.58934,0,0,0,2.89342-.315c.86592-.19565,1.03068-.6934.7993-1.46771a6.90207,6.90207,0,0,0-1.282-2.247,6.38259,6.38259,0,0,1-1.24279-5.20183c.15383-.95843.56325-1.49487,1.521-1.6045.55018-.75854-.26822-1.07739-.53206-1.544C268.41092,126.04239,267.21729,124.51133,267.72607,122.44709Z" transform="translate(-138.38555 -68.67798)"/><path class="cls-5" d="M199.72487,172.27563c8.37967-2.36237,15.31257-7.193,21.885-12.68712,2.04264-1.70749,3.77878-3.71915,5.81293-5.42143a94.34247,94.34247,0,0,0-2.56378,10.70463,36.73768,36.73768,0,0,0,.245,13.419,2.77171,2.77171,0,0,1-.70748,2.78071,11.66991,11.66991,0,0,0-1.7334,2.14607c-.66747,1.18421-1.42832,1.06974-2.36941.447a7.07466,7.07466,0,0,1-1.90631-1.77085C213.8291,175.45369,207.39558,172.67193,199.72487,172.27563Z" transform="translate(-138.38555 -68.67798)"/><path class="cls-1" d="M245.30516,68.68084a14.95792,14.95792,0,0,1,6.19251,1.05727,2.81534,2.81534,0,0,1,1.83306,2.56774,45.722,45.722,0,0,1-1.29645,14.43828c-.55454,2.33686-1.91525,3.40246-4.30762,3.66253a19.86544,19.86544,0,0,1-5.20164-.25959,2.58484,2.58484,0,0,1-2.10246-1.57245c-1.95579-4.35981-2.23307-8.96724-2.08238-13.64081.023-.71343.15557-1.42277.22119-2.13549.21953-2.38441.67422-2.95718,2.99554-3.61838A13.12142,13.12142,0,0,1,245.30516,68.68084Z" transform="translate(-138.38555 -68.67798)"/><path class="cls-1" d="M220.18381,221.96132a5.03792,5.03792,0,0,0-.52355.00255c-.621.07543-1.38681.72764-1.81762.063-.37939-.58537.02421-1.41627.419-1.99554.899-1.319,1.88546-2.55563,3.80293-2.16569.59583.12115,1.22519.06693,1.8312.15072a3.4051,3.4051,0,0,1,3.21789,3.715c-.00009.28877.02194.79692-.36293.67782-1.86839-.57822-.76992.82374-.70389,1.17227a34.99092,34.99092,0,0,0,1.91795,6.27264c.66029,1.67912.20081,2.83344-1.5558,3.10907-3.39237.53231-6.85256.66118-10.0146-1.03695-2.53766-1.36284-2.86951-3.5877-1.04753-5.869A26.47656,26.47656,0,0,1,220.18381,221.96132Z" transform="translate(-138.38555 -68.67798)"/><path class="cls-6" d="M236.1105,113.82649c-2.42858,1.36026-3.0251,3.74465-1.34027,6.03535,1.886,2.56415,3.63062,5.15638,4.31457,8.34173.532,2.47778.24667,4.97966.3866,7.46751a1.5317,1.5317,0,0,1-.15211-.023c-3.81583-.962-4.327-3.96709-4.4957-7.2098a1.2381,1.2381,0,0,1,.7577-1.32686,4.79912,4.79912,0,0,0,2.07443-1.86823c-5.2563,1.03571-7.92156-2.57033-10.88757-5.63746-.52181-.53959-.71641-.97247-.20486-1.70678a10.59212,10.59212,0,0,0,1.84-6.841,1.91827,1.91827,0,0,1,.75093-1.90635C230.98548,111.38184,233.582,112.55139,236.1105,113.82649Z" transform="translate(-138.38555 -68.67798)"/><path class="cls-6" d="M250.501,156.91252a172.24091,172.24091,0,0,0,2.596,23.042,9.728,9.728,0,0,1-1.84675,8.52,28.31029,28.31029,0,0,0-1.917,3.27336h5.24507c-3.17944.632-6.31378.08232-9.45538-.34442-.56527-.07678-.70182-.29855-.47574-.80339.97856-2.18525,2.26593-4.07309,4.8665-4.41873.88537-.11768,1.07369-.45365,1.03263-1.263a25.21243,25.21243,0,0,0-2.55351-9.57426,5.617,5.617,0,0,1-.24261-4.7998c1.56842-4.09238,1.67324-8.51,2.48516-12.77421A7.71516,7.71516,0,0,1,250.501,156.91252Z" transform="translate(-138.38555 -68.67798)"/><path class="cls-2" d="M251.12026,98.87221c-2.46976.681-4.74014-.21918-7.0399-.8864-1.04081-.68091-2.343-.45323-3.42687-.98459-2.531-.39368-4.93255.74668-7.4636.59368a16.11581,16.11581,0,0,1-5.95547-1.26792,10.549,10.549,0,0,0-4.645-.935c1.83412-2.21124,3.64713-2.14168,6.83972.22845-.47473-1.62436.5045-2.89488,2.33912-2.95836a8.13258,8.13258,0,0,1,4.43707,1.04053,44.19177,44.19177,0,0,0,4.4511,1.75544,17.94245,17.94245,0,0,1,5.18723,1.273,7.84048,7.84048,0,0,0,7.18527-.6693c.07733-.00794.15494-.0144.23255-.02086,5.13836-1.95759,5.76754-1.80262,9.41957,2.33107.16185.18319.25229.51472.56352.41837,1.36644-.423,2.24182.24913,3.01509,1.25568.39849.5187.85256.00676,1.26622-.051.97253-.13585,1.75168-.03729,1.97,1.207-1.85317.33944-3.55668.69087-5.26649-.7747a10.81911,10.81911,0,0,0-5.4496-2.34593q-.41851-.22109-.835-.44022c-1.187-.62871-2.32426-.05149-3.44869.20059A18.08135,18.08135,0,0,0,251.12026,98.87221Z" transform="translate(-138.38555 -68.67798)"/><path class="cls-2" d="M232.61259,135.205c0,.12871.0039.18022-.00054.231-.21077,2.404-.19413,2.1792-2.6433,1.99708-1.90959-.142-2.87691-1.13059-3.8771-2.48975a27.48784,27.48784,0,0,1-4.128-8.33536c-.22416-.73111-.538-1.435-.75748-2.16725-.16841-.562-.96469-1.12125-.58972-1.5769a6.2266,6.2266,0,0,1,1.96952-1.1232c.46647-.24553.64716.179.86133.41793a34.74628,34.74628,0,0,0,7.11066,5.81065c.33659.21869.74785.377.83646.83934C231.80759,130.965,232.21637,133.12232,232.61259,135.205Z" transform="translate(-138.38555 -68.67798)"/><path class="cls-2" d="M241.9562,196.30693a8.297,8.297,0,0,1-.33663-3.03035c.042-.63864.27614-.90556.98195-.66584,4.50276,1.52924,9.09093.93246,13.66674.483,1.11617-.10963,2.22675-.29767,3.33123-.49756.89156-.16135,1.28678.03144.96632,1.01692-.2203.67739-.35786,1.38165-.53239,2.0739a2.38445,2.38445,0,0,1-1.55945.87218,41.45988,41.45988,0,0,1-14.69117.62164C243.1052,197.08129,242.31593,197.1141,241.9562,196.30693Z" transform="translate(-138.38555 -68.67798)"/><path class="cls-1" d="M253.546,91.4582c-.07793,1.52861.37644,3.09021-.28446,4.5827l.02646-.029a6.69016,6.69016,0,0,1-6.30965,1.152c-2.00049-.67057-4.15594-.87224-6.01351-1.985-1.632-.38665-2.15572-1.94029-3.14006-3.00205-1.2125-1.30789.244-2.72567-.28752-4.17613.79538.0865.9545.63766,1.28787.97077a11.405,11.405,0,0,0,13.03686,3.079C252.40205,91.81088,252.86332,91.30561,253.546,91.4582Z" transform="translate(-138.38555 -68.67798)"/><path class="cls-7" d="M434.60432,116.68113a3.13265,3.13265,0,0,0-1.87907,3.2535c.06414,16.1272.03872,32.25475.0385,48.3822-1.24523.05136-.4796-1.10179-.9195-1.53283q.00237-23.72.00864-47.44C431.85394,117.37154,432.64574,116.62979,434.60432,116.68113Z" transform="translate(-138.38555 -68.67798)"/><path class="cls-8" d="M241.9562,196.30693a27.64154,27.64154,0,0,0,8.43523.75482,47.339,47.339,0,0,0,8.46378-1.052c.39384-.10335.78553-.21493,1.17821-.3227a16.52182,16.52182,0,0,1-.52589,3.46284,67.86657,67.86657,0,0,1-12.94956.69369c-1.248-.01711-2.528-.54711-3.74005.18675A15.37547,15.37547,0,0,1,241.9562,196.30693Z" transform="translate(-138.38555 -68.67798)"/><path class="cls-2" d="M242.81792,200.03028c-.04839-1.17466.81987-1.05662,1.4777-.90612,1.98227.45349,3.98243.19649,5.97218.27968a31.14838,31.14838,0,0,0,8.22751-.67939c.50267-.114.90213-.26648,1.01218.42535a4.3088,4.3088,0,0,1-.31182,1.80263,2.77589,2.77589,0,0,1-2.02712.94165c-3.96541.74573-7.96553.3951-11.9545.34965a3.00729,3.00729,0,0,1-1.98284-.73019Z" transform="translate(-138.38555 -68.67798)"/><path class="cls-9" d="M333.32581,168.64788c.24767-.6235.8725-.65778,1.37795-.86027a5.20853,5.20853,0,0,0,3.21863-4.69392c.004-6.13882-.00479-12.27765.01076-18.41643a6.96056,6.96056,0,0,0-.27445-2.11616,2.71138,2.71138,0,0,0-2.90585-2.25161c-4.81062.08717-9.62405.05925-14.43584.01685-1.50682-.01326-2.13558.65434-2.44287,2.09308a19.08871,19.08871,0,0,0,.09371,6.08209c.10089.97.89494,1.25351,1.76221,1.36516.73771.095,1.54076-.267,2.21064.30821-.66389.03088-1.32774.08838-1.99157.0877-2.04285-.00212-2.87282-.8062-2.94615-2.9146-.048-1.38176-.05015-2.76745-.009-4.14947.06741-2.26317,1.03619-3.17213,3.29951-3.17277q7.53794-.00216,15.07586-.00137c1.95859.00044,2.36891.44809,2.83743,2.25994,1.26523,4.89282.32661,9.85749.592,14.78046.10741,1.99254.03481,3.99618.00719,5.99427A6.04265,6.04265,0,0,1,333.32581,168.64788Z" transform="translate(-138.38555 -68.67798)"/><path class="cls-10" d="M245.57507,222.11605c1.06921,1.457,2.79195,1.241,4.25672,1.50966,1.00041.1835,1.24286.31349,1.05677,1.36011a6.15777,6.15777,0,0,0,.57235,3.8737,16.15,16.15,0,0,1-4.4172-.21485c-2.34879-.56966-3.11257-1.8234-2.45-4.15254A8.83444,8.83444,0,0,1,245.57507,222.11605Z" transform="translate(-138.38555 -68.67798)"/><path class="cls-11" d="M243.23121,201.51354c3.4531.59032,6.93563.291,10.406.32786a21.05877,21.05877,0,0,0,5.55846-.889,7.78484,7.78484,0,0,1-.36108,2.44031c-1.88752-.00641-3.70945.52106-5.5861.683-2.50344.216-4.96783-.14891-7.44859-.06336-.48828.01682-1.03624-.17936-1.43065.30395A11.49427,11.49427,0,0,1,243.23121,201.51354Z" transform="translate(-138.38555 -68.67798)"/><path class="cls-6" d="M253.546,91.4582c-4.24347,3.39133-12.51861,1.99344-14.72087-2.48673,2.83149,3.38974,6.70561,2.43867,10.29033,2.30113,1.64518-.06313,2.73645-1.68379,4.16935-2.65906A6.36408,6.36408,0,0,1,253.546,91.4582Z" transform="translate(-138.38555 -68.67798)"/><path class="cls-12" d="M393.37954,163.72357c-.212-1.49445.678-2.72276,1.06386-4.06146a1.96674,1.96674,0,0,1,2.01419-1.12828q7.53944.00429,15.07889-.00442a1.3743,1.3743,0,0,1,1.26212.66438c.97141,1.37288,1.10125,2.986,1.46577,4.53631-.52786-.06969-.91033-.37284-.86063-.89605.089-.937-.53933-1.60514-.75479-2.4126-.23829-.893-.75259-1.01962-1.561-1.0143-4.55148.02987-9.1033.00932-13.655.00793-2.04809-.00063-2.85114.64166-3.1401,2.6749A1.83529,1.83529,0,0,1,393.37954,163.72357Z" transform="translate(-138.38555 -68.67798)"/><path class="cls-13" d="M441.98,169.54182a2.97065,2.97065,0,0,0,1.81307-3.02313c-.03853-4.9123.05-9.82618-.03823-14.73716-.02647-1.4742.60567-1.91519,1.873-1.89418a74.40118,74.40118,0,0,0,10.0897-.5578c1.109-.13268,2.00888-1.0965,3.20522-.693a14.11045,14.11045,0,0,1-6.60489,1.77859,58.756,58.756,0,0,1-6.45522.01978c-1.08057-.03508-1.40661.32443-1.39763,1.39929.04283,5.12179.02258,10.24427-.00117,15.36637C444.45463,169.17812,443.96808,169.60614,441.98,169.54182Z" transform="translate(-138.38555 -68.67798)"/><path class="cls-14" d="M271.76161,230.4328c1.44638-2.03765,1.38147-2.54587-.6189-4.84522,1.68893.56945,3.38223,1.1264,5.06477,1.71417.72705.25394,1.632.55929,1.62345,1.416-.01009,1.00676-1.079,1.1366-1.82317,1.34042A10.80982,10.80982,0,0,1,271.76161,230.4328Z" transform="translate(-138.38555 -68.67798)"/><path class="cls-15" d="M239.14993,137.90076c-.62477,1.4987-.44494,3.22542-1.32059,4.653a5.60055,5.60055,0,0,0-.84471-.86135c-2.00828-1.32433-1.81354-3.11016-1.10078-5.04775Z" transform="translate(-138.38555 -68.67798)"/><path class="cls-15" d="M267.72607,122.4471a9.789,9.789,0,0,0,2.54679,5.7092c.64238.682.57983,1.03411-.4084,1.05975-.90283-.88735-2.26739-.71659-3.26822-1.46846-.82544-.62013-1.16223-1.12727-.57123-2.09551C266.654,124.62154,267.16408,123.51849,267.72607,122.4471Z" transform="translate(-138.38555 -68.67798)"/><path class="cls-16" d="M355.47994,169.56473c2.82407-.0022,5.64823.00746,8.47218-.01127a8.59454,8.59454,0,0,0,4.55723-.822c.37952-.22413.99084-.05637,1.4958-.06849a8.95518,8.95518,0,0,1-4.82543,1.67822,64.01174,64.01174,0,0,1-8.06262.11161A1.68844,1.68844,0,0,1,355.47994,169.56473Z" transform="translate(-138.38555 -68.67798)"/><path class="cls-17" d="M360.40786,126.78666a1.09536,1.09536,0,0,1,.79888-.66858,20.33078,20.33078,0,0,1,7.72.11339c1.40744.35113,2.667,1.19761,4.178,1.21654a2.24978,2.24978,0,0,0,1.80465-.62972c-.42419,1.19265-1.47123,1.88115-2.31266,1.39575a11.85289,11.85289,0,0,0-6.52352-1.4659C364.1865,126.81283,362.29642,126.77759,360.40786,126.78666Z" transform="translate(-138.38555 -68.67798)"/><path class="cls-18" d="M296.04624,136.29872q.00231,6.9543.00455,13.90862c-1.53824-3.82343-.80037-7.81624-.818-11.74485A6.66163,6.66163,0,0,1,296.04624,136.29872Z" transform="translate(-138.38555 -68.67798)"/><path class="cls-19" d="M377.36135,162.801c-.275-1.4442.8689-2.47346,1.12193-3.8158a30.9135,30.9135,0,0,0,.58527-7.33031c-.08216-1.66833-.80074-3.194-.806-4.85089a1.31966,1.31966,0,0,1,.80769,1.05711c.62919,3.26594,1.25667,6.46858.29,9.86692C378.85,159.52177,378.758,161.38518,377.36135,162.801Z" transform="translate(-138.38555 -68.67798)"/><path class="cls-20" d="M467.23622,141.87233c-.26818-.80927.41138-1.338.67659-1.94282,1.36986-3.1235.76467-6.38956.86477-9.60314.02687-.86141-.012-1.72487-.02074-2.58733a13.90558,13.90558,0,0,1,.8488,7.38284,20.24512,20.24512,0,0,1-1.609,6.03444C467.84341,141.44763,467.49459,141.63623,467.23622,141.87233Z" transform="translate(-138.38555 -68.67798)"/><path class="cls-21" d="M317.01,126.47381c.14013-.74711.74416-.57216,1.21727-.57693,1.88774-.01908,3.776.008,5.66358-.01613a8.1866,8.1866,0,0,1,2.68139.89215q-4.7808.00439-9.56165.00888-.15534-.10236-.10384-.20514Q316.95806,126.47389,317.01,126.47381Z" transform="translate(-138.38555 -68.67798)"/><path class="cls-22" d="M347.174,157.85917c-.26233,1.41087-1.26444,2.45545-1.89812,3.676-1.14753,2.2102-.30517,3.36819,1.32673,4.61108.94251.71784,2.0159,1.26413,3.03037,1.88769a5.38988,5.38988,0,0,1-4.96232-3.119,5.05522,5.05522,0,0,1,1.19413-5.61669C346.31742,158.83444,346.73844,158.33973,347.174,157.85917Z" transform="translate(-138.38555 -68.67798)"/><path class="cls-23" d="M326.23956,157.85384c.342,1.94325-.01988,2.41391-1.95063,2.45553-1.58873.03426-3.18064-.0186-4.76676.05781a7.78671,7.78671,0,0,1-4.03241-.98029,8.73774,8.73774,0,0,1,3.737.49366,2.78506,2.78506,0,0,0,2.90978-.23838,2.6546,2.6546,0,0,1,1.94507-.20467C325.34171,159.56569,326.08208,159.14813,326.23956,157.85384Z" transform="translate(-138.38555 -68.67798)"/><path class="cls-24" d="M408.74374,116.66059q-4.31028-.01428-8.62053-.02858c2.12987-1.66418,4.52612-.81409,6.82923-.67095A6.31548,6.31548,0,0,1,408.74374,116.66059Z" transform="translate(-138.38555 -68.67798)"/><path class="cls-25" d="M337.02337,121.26555a10.39364,10.39364,0,0,0-7.16851-3.7988,7.72045,7.72045,0,0,1-2.678-.82808c2.21721-.41835,4.16978.58309,6.193,1.175a5.41007,5.41007,0,0,1,3.195,1.95643A1.72215,1.72215,0,0,1,337.02337,121.26555Z" transform="translate(-138.38555 -68.67798)"/><path class="cls-26" d="M415.19154,132.04277c-1.11014-.607-.96792-1.85936-1.26264-2.79541-.7078-2.24777-2.03988-4.31182-2.10312-6.75612,1.25653.57157.93836,1.94816,1.34437,2.90727A59.71055,59.71055,0,0,1,415.19154,132.04277Z" transform="translate(-138.38555 -68.67798)"/><path class="cls-27" d="M240.96479,95.17889c1.74458.52347,3.51962.964,5.22657,1.59a8.06041,8.06041,0,0,0,7.09659-.757,5.19989,5.19989,0,0,1-4.8904,1.68276,33.66176,33.66176,0,0,1-7.74119-2.23656Q240.81067,95.31851,240.96479,95.17889Z" transform="translate(-138.38555 -68.67798)"/><path class="cls-28" d="M385.04872,169.54333l4.92851.02315c-1.95691,1.69253-4.25918.71115-6.41822.8015-.339.01419-.32789-.45612-.4086-.74A2.2047,2.2047,0,0,1,385.04872,169.54333Z" transform="translate(-138.38555 -68.67798)"/><path class="cls-29" d="M418.27566,169.58415l6.48354-.02657a1.36811,1.36811,0,0,1-1.53411.9531c-1.1216-.061-2.25047-.058-3.373-.00875A1.46629,1.46629,0,0,1,418.27566,169.58415Z" transform="translate(-138.38555 -68.67798)"/><path class="cls-30" d="M392.42693,133.25315c-.6088,2.04752-1.08958,4.14586-1.87556,6.12306-.45464,1.1438-.59632,2.46221-1.51171,3.41123-.38079-1.08988.41262-1.91361.67879-2.84813.57957-2.03466,1.67567-3.90611,1.90945-6.06218C391.65328,133.643,392.14925,133.45992,392.42693,133.25315Z" transform="translate(-138.38555 -68.67798)"/><path class="cls-13" d="M435.20681,169.59251l6.47963-.03589A5.79951,5.79951,0,0,1,435.20681,169.59251Z" transform="translate(-138.38555 -68.67798)"/><path class="cls-17" d="M358.22288,132.669c-1.68679-2.04626-.67642-3.4063.585-5.3857.34074-.53471.8199-.50593,1.3321-.46132C358.30872,128.3806,357.98726,130.43359,358.22288,132.669Z" transform="translate(-138.38555 -68.67798)"/><path class="cls-31" d="M385.04872,169.54333q-.94908.0422-1.89824.08451c-.77789-.27845-2.11445.46185-2.28893-.77469-.172-1.21891-.80741-2.73854.74718-3.68938a7.558,7.558,0,0,1,.01228,1.35664c-.10015.61074-1.0034,1.26863-.432,1.749a3.70663,3.70663,0,0,0,2.58048.99384C384.20529,169.236,384.69265,169.13636,385.04872,169.54333Z" transform="translate(-138.38555 -68.67798)"/><path class="cls-32" d="M462.87934,146.75622c.09492-1.19065,1.35668-1.311,1.92851-2.08871.72859-.991,1.61515-1.86606,2.43363-2.79109.07481,2.26365-1.8331,3.06435-3.18267,4.26273A5.4162,5.4162,0,0,1,462.87934,146.75622Z" transform="translate(-138.38555 -68.67798)"/><path class="cls-33" d="M423.52288,156.02051c-.23975-.06267-.677-.09778-.69021-.19209-.30371-2.17311-1.66115-4.05014-1.75862-6.2749.98319.54189.87123,1.62315,1.18448,2.47943C422.73713,153.34125,423.1069,154.68932,423.52288,156.02051Z" transform="translate(-138.38555 -68.67798)"/><path class="cls-34" d="M346.2319,136.03725a16.33988,16.33988,0,0,0,2.88612,4.80831c.264.30616.57427.59872.4803,1.06878-1.20775-.157-1.61274-1.32689-2.14581-2.07034C346.70175,138.797,345.78918,137.56794,346.2319,136.03725Z" transform="translate(-138.38555 -68.67798)"/><path class="cls-35" d="M305.02331,120.03626c-1.86119,1.30336-3.16456,3.205-4.94075,4.59953.35586-1.79664,1.77846-2.78424,3.08407-3.76152C303.64743,120.51437,304.18525,119.801,305.02331,120.03626Z" transform="translate(-138.38555 -68.67798)"/><path class="cls-36" d="M389.98206,169.56713a4.08353,4.08353,0,0,0,2.42973-3.57,3.26677,3.26677,0,0,1,.92279-1.70186,23.81106,23.81106,0,0,1-1.17331,4.42908C391.75164,169.75007,390.86043,169.67582,389.98206,169.56713Z" transform="translate(-138.38555 -68.67798)"/><path class="cls-37" d="M397.6731,117.5771a11.03528,11.03528,0,0,1-1.84684,5.536A10.36784,10.36784,0,0,1,397.6731,117.5771Z" transform="translate(-138.38555 -68.67798)"/><path class="cls-23" d="M315.49256,159.387a5.291,5.291,0,0,1-4.34985-3.33794c.80593.05033.89468.91647,1.44267,1.26615.70225.44813,1.18225,1.2528,2.18327,1.21768C315.26194,158.51559,315.41418,158.96124,315.49256,159.387Z" transform="translate(-138.38555 -68.67798)"/><path class="cls-17" d="M374.91264,126.81705q1.22015-2.62587,2.44027-5.2518C377.50118,123.66849,376.28164,126.29311,374.91264,126.81705Z" transform="translate(-138.38555 -68.67798)"/><path class="cls-17" d="M377.33089,120.97883c-1.08709-.37211-1.1703-1.739-2.2602-2.19661-.7-.29393-1.65138-.3354-2.01281-1.23476A4.64979,4.64979,0,0,1,377.33089,120.97883Z" transform="translate(-138.38555 -68.67798)"/><path class="cls-38" d="M313.0101,169.57419c1.76144-.322,3.32628.46708,4.95843.876C316.277,170.37731,314.43978,171.12745,313.0101,169.57419Z" transform="translate(-138.38555 -68.67798)"/><path class="cls-39" d="M360.41834,147.75476a12.69312,12.69312,0,0,1,4.27838,2.47885c-1.04652.29479-1.672-.55667-2.44821-.94834a6.68371,6.68371,0,0,0-1.51312-.69191C360.47916,148.37066,360.24012,148.14147,360.41834,147.75476Z" transform="translate(-138.38555 -68.67798)"/><path class="cls-40" d="M298.58845,159.37705c1.34089.76118,1.66923,2.23686,2.4152,3.41784-.7266.1489-1.00607-.40182-1.25358-.88091A6.5645,6.5645,0,0,1,298.58845,159.37705Z" transform="translate(-138.38555 -68.67798)"/><path class="cls-41" d="M467.20751,124.38451c-.92613-1.2612-1.46839-2.85073-3.07464-3.53068-.3215-.1361-.28742-.50069-.30184-.80222a5.79258,5.79258,0,0,1,3.44412,3.90042A.268.268,0,0,1,467.20751,124.38451Z" transform="translate(-138.38555 -68.67798)"/><path class="cls-42" d="M349.58834,141.92833q2.17972,1.6685,4.35947,3.337A5.99624,5.99624,0,0,1,349.58834,141.92833Z" transform="translate(-138.38555 -68.67798)"/><path class="cls-21" d="M326.86646,126.799a5.19452,5.19452,0,0,1,4.31669,1.53089C329.82454,127.59351,328.01087,128.13848,326.86646,126.799Z" transform="translate(-138.38555 -68.67798)"/><path class="cls-30" d="M394.88557,126.76539c-.95715.93492-.20525,2.64154-1.54012,3.4059a6.7946,6.7946,0,0,1,1.51324-4.37153A.73326.73326,0,0,1,394.88557,126.76539Z" transform="translate(-138.38555 -68.67798)"/><path class="cls-22" d="M349.63121,168.034a31.46612,31.46612,0,0,1,4.64757,1.50345c-1.53674.44184-2.81432-.56914-4.23827-.76965C349.71773,168.72238,349.61507,168.36635,349.63121,168.034Z" transform="translate(-138.38555 -68.67798)"/><path class="cls-43" d="M307.788,138.798a7.493,7.493,0,0,1,.89464-4.32449C308.64368,135.96854,309.07037,137.55979,307.788,138.798Z" transform="translate(-138.38555 -68.67798)"/><path class="cls-9" d="M328.4046,169.54024c1.53734-.37223,2.98867-1.19659,4.6564-.8844C331.676,169.82889,330.033,169.64607,328.4046,169.54024Z" transform="translate(-138.38555 -68.67798)"/><path class="cls-44" d="M317.01,126.47381l.00062.308c-1.51614.02413-2.61108,1.07812-3.9228,1.60205a.24941.24941,0,0,1-.40125-.06386A5.04645,5.04645,0,0,1,317.01,126.47381Z" transform="translate(-138.38555 -68.67798)"/><path class="cls-45" d="M348.14875,122.52294c-.44,1.32107-.74394,2.71149-1.87674,3.67989A4.95818,4.95818,0,0,1,348.14875,122.52294Z" transform="translate(-138.38555 -68.67798)"/><path class="cls-42" d="M353.94627,145.26511a4.819,4.819,0,0,1,3.37923,1.54922C356.07334,146.57179,354.76743,146.44637,353.94627,145.26511Z" transform="translate(-138.38555 -68.67798)"/><path class="cls-46" d="M431.84425,166.784c.49008.401.12086,1.3167.91944,1.5329q.92707.61047,1.854,1.22106C432.35085,169.63415,431.77616,169.06352,431.84425,166.784Z" transform="translate(-138.38555 -68.67798)"/><path class="cls-20" d="M467.20751,124.38452q.03364-.2158.06749-.432c1.29422.94619.97272,2.52342,1.47718,3.77819C467.58391,126.91642,467.80775,125.46053,467.20751,124.38452Z" transform="translate(-138.38555 -68.67798)"/><path class="cls-47" d="M303.50079,165.22325c.7658.56216,1.68744.93985,2.17339,1.83335-1.48553.248-1.97027-1.06048-2.81571-1.80805A.47825.47825,0,0,1,303.50079,165.22325Z" transform="translate(-138.38555 -68.67798)"/><path class="cls-12" d="M415.20181,167.10538c.78436.851,1.29791,1.97776,2.47576,2.428C415.73417,169.62468,415.20266,169.10341,415.20181,167.10538Z" transform="translate(-138.38555 -68.67798)"/><path class="cls-40" d="M303.50079,165.22325l-.64232.0253c-.55967-.86259-1.76074-1.241-1.85549-2.45454A8.21525,8.21525,0,0,1,303.50079,165.22325Z" transform="translate(-138.38555 -68.67798)"/><path class="cls-48" d="M349.68132,156.90634c-.95409-.001-1.52054,1.0079-2.49413.95591.10807-1.46219,1.71541-.84537,2.29541-1.65307Z" transform="translate(-138.38555 -68.67798)"/><path class="cls-49" d="M309.31514,168.639a3.80858,3.80858,0,0,1,3.41006.88358C311.41846,169.88357,310.42629,169.032,309.31514,168.639Z" transform="translate(-138.38555 -68.67798)"/><path class="cls-12" d="M414.31347,164.31079c1.16075.65436.9225,1.75286.88613,2.78723A3.24984,3.24984,0,0,1,414.31347,164.31079Z" transform="translate(-138.38555 -68.67798)"/><path class="cls-50" d="M312.68659,128.32q.20032.03174.40093.06366c-.56081.68214-.6937,1.81764-1.91217,1.8034C311.16389,129.14831,312.03967,128.82665,312.68659,128.32Z" transform="translate(-138.38555 -68.67798)"/><path class="cls-51" d="M360.78048,135.05989c-.95463-.11929-1.8082-.35694-1.83419-1.56391A2.41363,2.41363,0,0,1,360.78048,135.05989Z" transform="translate(-138.38555 -68.67798)"/><path class="cls-17" d="M373.05552,117.54734c-1.19972.282-2.05423-.63523-3.09922-.89085A3.03407,3.03407,0,0,1,373.05552,117.54734Z" transform="translate(-138.38555 -68.67798)"/><path class="cls-37" d="M394.88557,126.76539q-.01327-.48244-.02669-.96527c.017-.91619-.094-1.88172.934-2.40555Q395.33919,125.07993,394.88557,126.76539Z" transform="translate(-138.38555 -68.67798)"/><path class="cls-45" d="M349.7164,120.69261a1.98188,1.98188,0,0,1-1.56969,1.83613C348.05989,121.396,349.04514,121.17831,349.7164,120.69261Z" transform="translate(-138.38555 -68.67798)"/><path class="cls-33" d="M424.46793,159.38565c-.52127-1.06382-1.231-2.07477-.94494-3.365C423.839,157.14206,424.76508,158.09234,424.46793,159.38565Z" transform="translate(-138.38555 -68.67798)"/><path class="cls-30" d="M393.34457,130.17492a2.58655,2.58655,0,0,1-.88483,2.48743C392.0772,131.59258,392.93064,130.96181,393.34457,130.17492Z" transform="translate(-138.38555 -68.67798)"/><path class="cls-52" d="M240.65349,97.00122c1.18618.17534,2.44729.09022,3.42679.98447q-1.70848-.36827-3.41719-.73677A.969.969,0,0,0,240.65349,97.00122Z" transform="translate(-138.38555 -68.67798)"/><path class="cls-53" d="M309.26593,133.50825c.15339-.68807-.43144-1.7714.96255-1.79513C310.38043,132.5647,309.61135,132.92306,309.26593,133.50825Z" transform="translate(-138.38555 -68.67798)"/><path class="cls-42" d="M360.41834,147.75476q.15852.41949.317.83878c-.82549.14118-1.20532-.627-1.82989-.89554Z" transform="translate(-138.38555 -68.67798)"/><path class="cls-54" d="M378.25883,146.80129c-.40107-.471-1.08807-.78613-.86985-1.59451C378.5267,145.27647,378.28875,146.09554,378.25883,146.80129Z" transform="translate(-138.38555 -68.67798)"/><path class="cls-42" d="M357.32612,146.8142c.67181.02387,1.579-.373,1.566.87481C358.07968,147.91651,357.80457,147.18359,357.32612,146.8142Z" transform="translate(-138.38555 -68.67798)"/><path class="cls-50" d="M310.23116,131.69751c.02984-.68075-.27776-1.572.94325-1.50951C311.35077,130.99741,310.527,131.18272,310.23116,131.69751Z" transform="translate(-138.38555 -68.67798)"/><path class="cls-55" d="M251.12026,98.87221a11.43133,11.43133,0,0,1,6.85469-1.48815c.00055.00008-.02041.16749-.03074.2569-1.81875-.206-3.48836.45564-5.19848.88914C252.20947,98.666,251.66239,98.75937,251.12026,98.87221Z" transform="translate(-138.38555 -68.67798)"/><path class="cls-56" d="M408.97,148.4c-.54.87-1.6.63-2.53.64-1.98.02-3.96.08-5.95.04-1.96-.04-2.24-.44-1.69-2.3.39-1.35,1.24-2.54,1.35-3.98.29,1.75-.89,3.16-1.21,4.79-.14.71-.19.96.44.97q4.365.06,8.71-.01c.57995-.01,1.12-.21.47-1.04-.28-.36005-.12-1.08-.15-1.63.05.09.05.08.05.06,0,0,.01,0,.04.06C408.86,146.77,409.45,147.63,408.97,148.4Z" transform="translate(-138.38555 -68.67798)"/><path class="cls-57" d="M409.32,148.61c-.09.99-1.12.97-1.84.91-2.38995-.22-4.78.14-7.17.04-1.97-.07-2.65-.95-1.94-2.81.52-1.35,1.18-2.64,1.78-3.95.29,1.75-.89,3.16-1.21,4.79-.14.71-.19.96.44.97q4.365.06,8.71-.01c.57995-.01,1.12-.21.47-1.04-.28-.36005-.12-1.08-.15-1.63C409.9,146.38,409.4,147.65,409.32,148.61Z" transform="translate(-138.38555 -68.67798)"/><path class="cls-58" d="M457.05,135.7a5.49443,5.49443,0,0,1-3.43,3.67c.02-1.08,1.11-.85,1.66-1.25C456.16,137.46,456.06,136.19,457.05,135.7Z" transform="translate(-138.38555 -68.67798)"/><path class="cls-59" d="M457.05,135.7a3.79366,3.79366,0,0,1-3.43,3.67c.02-1.08,1.11-.85,1.66-1.25C456.16,137.46,456.06,136.19,457.05,135.7Z" transform="translate(-138.38555 -68.67798)"/></g></svg>