<svg id="Layer_1" data-name="Layer 1" xmlns="http://www.w3.org/2000/svg" viewBox="0 0 190.36938 197.59914"><defs><style>.cls-1{fill:#007db9;}.cls-2{fill:#ccc;}.cls-3{fill:#017dba;}</style></defs><g id="_2nKruJ.tif" data-name="2nKruJ.tif"><path class="cls-1" d="M331.09693,132.20637c.12464,2.62628-1.41181,4.034-2.55817,5.50072-17.03539,21.7962-39.78123,27.97015-66.05667,23.50843-34.74271-5.89946-62.14263-39.55217-60.8374-74.37623.46417-12.38428,5.19886-23.02337,14.23977-32.17809-6.64026,33.07942,3.48344,59.17026,31.63213,77.70819C275.20294,150.60285,303.03387,151.33784,331.09693,132.20637Z" transform="translate(-174.4268 -35.15558)"/><path class="cls-1" d="M334.95452,97.635a31.79489,31.79489,0,0,1-14.106,15.428c-19.67118,11.32389-45.33468,8.0364-62.17457-7.87668-13.3284-12.59484-19.64163-27.66086-16.19808-46.09232,1.1415-6.10976,4.14138-11.36847,9.186-17.36421C247.26333,66.739,254.39,85.54767,274.98515,98.45845,295.04908,111.03622,314.96209,112.426,334.95452,97.635Z" transform="translate(-174.4268 -35.15558)"/><path class="cls-2" d="M238.71,197.28c2.11-10.21-4.15-18.04-14.6-18.5-16.26-.71-29.58,19.48-22.58,34.2a10.31327,10.31327,0,0,0,8.88995,6.25c4.12.34,8.26.4,12.39.58,0-.08.01-.17.01-.25,3.8,0,7.62-.14,11.42.05,2.57.12,3.19-1.47,3.28-3.35.08-1.46,2.13995-3.92.04-4.24-5.04-.76-2.04-3.37-1.6-5.22C236.73,203.59,238.04,200.5,238.71,197.28Zm-9.6.37a78.97283,78.97283,0,0,0-2.1,8.17005c-.67,4.55-2.65,6.97-6.76,5.73-9.51-.08-11.37-2.3-9.58-10.97a38.49872,38.49872,0,0,1,2.69-8.49,9.27437,9.27437,0,0,1,11.85-4.36C229.89,189.66,230.21,193.41,229.11,197.65Z" transform="translate(-174.4268 -35.15558)"/><path class="cls-2" d="M296.99,187.1c-9.64-1.98-18.34,3.13-21.13,12.61a63.64779,63.64779,0,0,0-1.97,9.7c-.75,5.78,1.88,9.28,7.71,9.92a106.57907,106.57907,0,0,0,12.39.3c7.04-.04,7.04-.1,7.71-7.88-4.82,0-9.6.05-14.38-.02-2.05-.03-4.24-.36-4.25-3.05-.02-3.1,2.56-1.9,4.09-1.95,4.46-.15,8.93006-.03,13.4-.06,1.11-.01,2.34.3,3.23-.77C308.7,199.98,304.61,188.67,296.99,187.1Zm-5.83,12.63a37.55215,37.55215,0,0,1-6.34.08c.9-3.53,2.75-4.95,5.46-5.13,2.53-.18,5.62-.14,5.76,3.11C296.21,201.5,292.89,199.41,291.16,199.73Z" transform="translate(-174.4268 -35.15558)"/><path class="cls-2" d="M257.40821,219.59613c-15.03242.0239-16.85564-2.14194-14.16387-16.88037.7434-4.07039,1.601-8.1202,2.31784-12.195.33921-1.92807,1.21436-2.69982,3.29091-2.81341,5.62007-.30742,5.89326-.10165,4.8283,5.596-.88,4.7078-2.56795,9.28408-2.432,14.15559.0515,1.84574-.60231,4.49706,2.65506,4.07568,2.68326-.34712,6.51456,2.0436,7.44389-3.11748,1.055-5.8588,2.77606-11.602,3.7319-17.47294.81172-4.98567,4.4537-3.10442,6.894-2.98676,3.70527.1786,1.29824,3.09643,1.057,4.44891-1.27787,7.16475-3.28193,14.21207-4.32061,21.40317-.69062,4.78135-2.64441,6.6221-7.33374,5.82005A23.85731,23.85731,0,0,0,257.40821,219.59613Z" transform="translate(-174.4268 -35.15558)"/><path class="cls-3" d="M330.97723,71.23277c-8.66639,14.27714-31.51257,12.64724-42.603,3.63649-13.427-10.90915-17.02857-28.1327-7.50526-39.71368-1.61177,13.90613,3.26167,24.53846,14.20785,32.4125C305.99239,75.4201,317.65264,77.24026,330.97723,71.23277Z" transform="translate(-174.4268 -35.15558)"/><path class="cls-2" d="M364.79618,183.57773c-2.67083,3.67418-4.99545,7.04257-7.49478,10.27593-5.75186,7.44108-11.80413,14.6128-15.43231,23.52073-1.84559,4.53131-6.19121.68587-9.98346,2.7874,2.58992-6.77483,1.183-12.12868-.492-17.54119-.44683-1.44393-2.35182-4.20045-.09607-4.58623,2.7618-.47234,6.57181-2.29507,8.75016,1.67261.37533.68362.28285,1.64705,1.65907,1.992,2.71288-3.934,5.95735-7.76206,8.20306-12.10641C353.0668,183.48551,357.54981,181.474,364.79618,183.57773Z" transform="translate(-174.4268 -35.15558)"/><path class="cls-2" d="M328.878,195.32438c-9.4571-.00027-9.46356-.00165-11.42373,9.20392-.82562,3.87742-1.68,7.75048-2.40061,11.64782-.40792,2.20593-1.1983,3.24866-3.79692,3.439-4.57081.33468-5.69666-.841-4.45419-5.45336,2.01623-7.48489,3.42806-15.141,4.87332-22.7668.511-2.69638,1.38248-3.98815,4.43146-3.82235,5.10824.27779,10.24315.02895,15.36457.12365a10.74283,10.74283,0,0,1,4.316.7969,5.08591,5.08591,0,0,1,2.61376,5.484c-.31564,2.47125-2.64737,1.127-4.07575,1.29634A46.47856,46.47856,0,0,1,328.878,195.32438Z" transform="translate(-174.4268 -35.15558)"/><path class="cls-2" d="M178.50941,232.75421c-1.16579-.68008-4.25153,1.07652-4.07537-1.31122.17562-2.38024-.84192-6.57422,3.73785-6.85513,3.04576-.18681,3.62385-2.56767,4.446-4.64706,2.26659-5.73246,2.53177-11.94405,4.0922-17.85171a6.62269,6.62269,0,0,1,8.98932-4.42612c1.33581.596.99272,1.52468.77827,2.43369-2.01031,8.52124-3.821,17.09929-6.16521,25.52859C188.77375,231.15815,185.61055,232.78773,178.50941,232.75421Z" transform="translate(-174.4268 -35.15558)"/><path class="cls-2" d="M192.09579,194.58686c-.55285-.36287-3.59675,2.0482-3.21568-1.86721.348-3.57554,1.65271-5.98027,5.77981-4.99119,1.48364.35556,4.40445-1.54451,3.98165,2.27733C198.25688,193.483,197.24968,196.16874,192.09579,194.58686Z" transform="translate(-174.4268 -35.15558)"/></g></svg>