<svg id="Layer_1" data-name="Layer 1" xmlns="http://www.w3.org/2000/svg" viewBox="0 0 258.95763 175.88089"><defs><style>.cls-1{fill:#6494b0;}.cls-2{fill:#feb21c;}</style></defs><g id="_50C2Io.tif" data-name="50C2Io.tif"><path class="cls-1" d="M92.54541,202.79743a11.10466,11.10466,0,0,0-.84964,2.30244q-2.95137,9.19215-5.87848,18.39206-2.51826,7.87753-5.04362,15.75277-1.6395,5.12543-3.264,10.25563a.66813.66813,0,0,1-.76212.57246c-2.13695-.02826-4.27457-.02316-6.4117-.00334a.62905.62905,0,0,1-.73023-.53q-2.895-9.17838-5.828-18.34476-2.37162-7.46694-4.72945-14.93827-2.04051-6.41676-4.104-12.82619c-.03131-.09782-.05942-.19711-.098-.29208-.05178-.12754-.07014-.30887-.26454-.28368-.20246.02624-.15555.20746-.16654.34262-.08478,1.04228-.18384,2.08372-.24863,3.12727-.263,4.23509-.54568,8.4693-.7625,12.70682q-.30025,5.868-.50895,11.74095c-.21905,6.02627-.43408,12.05149-.50115,18.08166-.01342,1.20677-.04,1.20647-1.23187,1.20647-2.425,0-4.85011-.008-7.275.00774-.41127.00268-.53468-.05647-.51567-.533.13575-3.40365.19148-6.81058.33417-10.21388q.24355-5.809.59512-11.61342c.19412-3.23265.45-6.46174.69369-9.69123.20364-2.69851.40259-5.39783.65186-8.09232.31539-3.40929.66542-6.81558,1.02732-10.22031.2924-2.751.62453-5.49777.9389-8.24642a2.67651,2.67651,0,0,0,.03116-.30642c-.00117-.56174.24233-.71026.82322-.70448,3.65774.03638,7.316.02567,10.97407.00923a.701.701,0,0,1,.81893.57988c1.70835,5.26408,3.45428,10.516,5.18242,15.77363q3.12177,9.49766,6.23191,18.99914,1.31146,3.99943,2.62756,7.99738c.05237.15814.02766.438.2647.431.222-.00657.21014-.27547.26448-.44008q2.16733-6.56517,4.32644-13.1331,3.47577-10.505,6.9648-21.00557c.948-2.86064,1.902-5.71944,2.82274-8.58886a.752.752,0,0,1,.8707-.61633q5.24031.03419,10.48089-.00072c.54468-.00392.68427.18162.73838.69141.33088,3.11731.71117,6.22935,1.0485,9.346.24266,2.242.4448,4.48843.66372,6.733.23471,2.40658.47816,4.81236.69855,7.22026.18315,2.00087.34715,4.00359.50384,6.00671.20941,2.677.41842,5.35421.59917,8.03325.12557,1.86121.20323,3.72567.30236,5.58867.1536,2.88669.33176,5.77234.4531,8.66038.09646,2.29613.1149,4.59545.18812,6.89272.016.50292-.29572.4361-.60235.436-2.91825-.00054-5.83659-.01043-8.75469.01046-.44532.00317-.54172-.13724-.54781-.55568-.03609-2.48081-.07365-4.96221-.16316-7.44152q-.2054-5.68884-.48519-11.37489-.24506-4.82324-.59541-9.64094c-.26618-3.72013-.56662-7.438-.88079-11.15445-.17611-2.0834-.40568-4.16237-.623-6.2421A1.23926,1.23926,0,0,0,92.54541,202.79743Z" transform="translate(-43.36944 -89.85996)"/><path class="cls-2" d="M245.6,251.31c-3.28-1.59-6.54-3.21-9.81-4.82-.6-.29-.61-.32-.11-.75a22.48616,22.48616,0,0,0,5.61-7.47,37.98474,37.98474,0,0,0,3.39-13.44,64.89231,64.89231,0,0,0-.1-12.23,37.26523,37.26523,0,0,0-2.46-10.42,20.05693,20.05693,0,0,0-5.83-8.11,20.846,20.846,0,0,0-11.73-4.4,30.32006,30.32006,0,0,0-7.84.29A20.68665,20.68665,0,0,0,204.34,196.57c-3.64,4.05-5.5,8.92-6.51,14.16a54.407,54.407,0,0,0-.91,10.65,69.70914,69.70914,0,0,0,.41,7.37,35.08884,35.08884,0,0,0,2.94,11.17,17.68719,17.68719,0,0,0,8.61,8.86,23.16113,23.16113,0,0,0,7.98,2.05,30.2019,30.2019,0,0,0,10.25-.65,1.98016,1.98016,0,0,1,1.66.2c4.32,2.55,8.67,5.06,13,7.6.45.27.59.16.82-.23,1.06-1.87,2.13995-3.74,3.25-5.58C246.1,251.73,246.07,251.54,245.6,251.31Zm-12.06-18.43a17.45558,17.45558,0,0,1-3.29,6.74,10.48759,10.48759,0,0,1-6.14,3.7,14.07389,14.07389,0,0,1-8.62-.77,11.48973,11.48973,0,0,1-5.98-6.4,32.95853,32.95853,0,0,1-2.31-10.51,67.66381,67.66381,0,0,1-.24-8.18,39.48831,39.48831,0,0,1,1.73-11.27,15.29681,15.29681,0,0,1,3.83-6.36,10.52374,10.52374,0,0,1,6.2-2.86,14.82936,14.82936,0,0,1,6.74.6,11.11287,11.11287,0,0,1,6.41,5.77,27.2424,27.2424,0,0,1,2.53,9.01,62.25667,62.25667,0,0,1,.50995,8.41A46.63582,46.63582,0,0,1,233.54,232.88Z" transform="translate(-43.36944 -89.85996)"/><path class="cls-1" d="M243.6337,173.74286a5.40018,5.40018,0,0,1-2.586-1.78707,54.71337,54.71337,0,0,0-4.9285-4.33844,56.41168,56.41168,0,0,1-4.4148-4.36893c-2.33138-2.501-3.50318-5.66267-5.07644-8.59791-.099-.18471-.08481-.54195-.35824-.505-.31659.04283-.28769.40581-.33316.65443-.3798,2.07646-.69822,4.16254-.99417,6.25276a5.331,5.331,0,0,1-1.1481,2.81188,4.217,4.217,0,0,1-5.32829.77278,11.567,11.567,0,0,1-3.89336-4.35872,27.1267,27.1267,0,0,1-3.23288-12.12773,31.48246,31.48246,0,0,1,.95646-10.11822c.526-1.91755.87658-3.87906,1.49992-5.76943a4.47777,4.47777,0,0,1,.17888-.45811,1.53318,1.53318,0,0,0-.44871-2.2416,8.83674,8.83674,0,0,1-1.4048-1.61908,37.12438,37.12438,0,0,1-3.8333-7.55178,79.87048,79.87048,0,0,1-2.63938-7.66906,13.18953,13.18953,0,0,0-2.20746-4.68938c-1.44736-1.93331-2.92283-3.84557-4.38408-5.76849a14.53536,14.53536,0,0,1-2.51644-4.75018,6.15488,6.15488,0,0,1,3.005-7.05277,8.04585,8.04585,0,0,1,5.07149-.36307,30.17507,30.17507,0,0,1,10.3734,4.64826,4.23307,4.23307,0,0,1,.86322.78578c1.164,1.3526,2.71843,1.47976,4.35551,1.51257a26.9563,26.9563,0,0,1,11.90048,2.96335,66.94307,66.94307,0,0,1,8.48327,5.43582,78.0766,78.0766,0,0,1,6.81217,5.55526,73.23437,73.23437,0,0,1,11.20494,13.33737,50.86052,50.86052,0,0,1,4.83257,9.65394c1.40212,3.47673,2.99169,6.87553,4.63165,10.24942,1.04774,2.15555,2.20206,4.25832,3.15569,6.46145a24.39391,24.39391,0,0,0,1.25389,2.25638,3.75687,3.75687,0,0,0,2.10154,1.49381,54.99622,54.99622,0,0,1,12.37873,6.46854c2.88154,2.13763,5.76317,4.26989,8.4241,6.67949a13.315,13.315,0,0,1,1.56309,1.81528c.51064.66694,1.00981,1.34062,1.57121,1.96707.36248.40449.26569.73094-.24095.91a29.775,29.775,0,0,1-7.56607,1.55329,25.01029,25.01029,0,0,0-4.67178,1.0351,16.71574,16.71574,0,0,1-2.21961.48962c-.71192.09716-.75473.19356-.3975.836a7.61516,7.61516,0,0,0,2.26211,2.31417c1.56432,1.16568,3.30563,2.04976,4.95972,3.07293a29.9544,29.9544,0,0,1,5.98672,4.988,60.99807,60.99807,0,0,0,4.45464,4.83788,1.70361,1.70361,0,0,1,.40439.60975,12.22184,12.22184,0,0,0,.83266,1.80955,1.93786,1.93786,0,0,1-.95369-.54974,37.13438,37.13438,0,0,0-10.26687-6.77024,37.72924,37.72924,0,0,1-9.12837-5.63839,14.05705,14.05705,0,0,1-4.4144-5.94546c-.029-.07647-.071-.148-.10733-.22168-.42058-.85251-.267-1.33605.65377-1.64792,3.2208-1.09095,6.42137-2.25427,9.8735-2.44611,1.84453-.10251,3.68546-.23334,5.53413-.19278.15252.00334.34091.10972.45143-.07769.11809-.20026-.04031-.35-.1356-.49983a7.14709,7.14709,0,0,0-2.50082-2.1425c-2.23092-1.35171-4.30692-2.92316-6.439-4.41372a28.50506,28.50506,0,0,0-7.252-3.69589c-1.84214-.62321-3.698-1.20978-5.5434-1.82189a6.72375,6.72375,0,0,1-3.70362-3.13039,61.72788,61.72788,0,0,1-3.73-7.47467c-.90529-2.06744-1.86742-4.108-2.85268-6.1381-1.3426-2.76642-2.56139-5.58552-3.68329-8.44966a40.27752,40.27752,0,0,0-3.63693-6.68488,61.04892,61.04892,0,0,0-4.6975-6.46607,66.03751,66.03751,0,0,0-6.7124-6.93116,61.0926,61.0926,0,0,0-8.49543-6.38084,46.557,46.557,0,0,0-9.61427-4.6371,16.168,16.168,0,0,0-4.738-.62055c-1.43522-.04862-2.84424-.34285-4.28687-.3589a3.286,3.286,0,0,1-2.06151-1.25727,20.38226,20.38226,0,0,0-5.88008-3.64564,26.499,26.499,0,0,0-4.86542-1.88442,3.18088,3.18088,0,0,0-2.27645.07489,2.244,2.244,0,0,0-1.231,2.8451,9.34826,9.34826,0,0,0,1.535,3.06445c1.6047,2.17544,3.29572,4.28457,4.84469,6.50457a26.396,26.396,0,0,1,3.15847,6.70377c.923,2.69517,1.6403,5.45957,2.72434,8.10064a23.98144,23.98144,0,0,0,3.20762,5.64547c.46394.59777,1.117,1.01771,1.60917,1.60325a3.58036,3.58036,0,0,1,.749,3.2796,34.23428,34.23428,0,0,1-1.5093,4.54925,25.65117,25.65117,0,0,0-1.49547,7.26652,30.61519,30.61519,0,0,0,1.25223,11.61323,16.96016,16.96016,0,0,0,2.30141,4.94112,3.89306,3.89306,0,0,0,1.83526,1.39578c.50725.18536.71265.05952.78165-.47746.27367-2.12943.49523-4.26479.80948-6.39a14.62836,14.62836,0,0,1,3.9252-8.05165c.0561-.05974.11419-.11759.17051-.17715.19-.201.25986-.61995.57973-.56562.32369.055.37153.45205.46843.7392a78.58275,78.58275,0,0,0,7.40073,15.28665,72.073,72.073,0,0,0,5.25216,7.63841,18.14167,18.14167,0,0,0,3.77375,3.856A5.78658,5.78658,0,0,1,243.6337,173.74286Z" transform="translate(-43.36944 -89.85996)"/><path class="cls-2" d="M174.20455,189.63423a27.54083,27.54083,0,0,1,14.52559,4.06853c.40507.24825.5069.42358.2793.8896-.6469,1.3247-1.23262,2.67994-1.81624,4.03442-.15759.36574-.27891.49412-.7104.31536a28.46138,28.46138,0,0,0-7.01385-1.96857c-2.83549-.39039-5.68812-.62259-8.4466.39519a7.60314,7.60314,0,0,0-5.20356,5.965,7.46546,7.46546,0,0,0,1.80935,6.29371,17.92527,17.92527,0,0,0,5.22954,4.13831c4.23209,2.38079,8.54443,4.62927,12.686,7.15765,3.91537,2.39027,6.58729,5.81232,7.05177,10.55267.77454,7.9044-2.73263,14.13975-10.04047,17.46029a25.09991,25.09991,0,0,1-11.95735,1.89548,30.36982,30.36982,0,0,1-14.96514-5.21769c-.301-.19408-.366-.35106-.19054-.68667.72993-1.3964,1.44565-2.801,2.12682-4.2216.17972-.3748.29541-.41522.673-.2317a32.86886,32.86886,0,0,0,8.01053,2.84363c3.74524.73547,7.45895.78987,11.02586-.83307a8.32082,8.32082,0,0,0,5.03245-8.402,8.151,8.151,0,0,0-2.3544-4.96192,21.07278,21.07278,0,0,0-5.43786-3.97179c-3.87968-2.17249-7.82505-4.24178-11.59561-6.59062a13.55726,13.55726,0,0,1-6.44535-8.44793c-1.06661-4.56018-.69762-8.98063,1.91823-12.99159a15.92589,15.92589,0,0,1,8.95494-6.518A22.60255,22.60255,0,0,1,174.20455,189.63423Z" transform="translate(-43.36944 -89.85996)"/><path class="cls-1" d="M130.50435,243.11234c.30357-.11424.31859-.3336.38535-.51587a153.72568,153.72568,0,0,0,4.80767-15.8197c1.21653-4.89564,2.18033-9.839,3.00025-14.8124.29325-1.77883.52706-3.56794.75715-5.35631.04655-.36169.15039-.48526.5214-.48347q4.19213.02015,8.3844.00016c.42911-.00213.49988.10688.41916.53334-.91872,4.85386-1.92985,9.68672-3.10613,14.48581-1.17194,4.78136-2.5011,9.51677-4.08307,14.178a87.87768,87.87768,0,0,1-7.2186,16.33954,36.11821,36.11821,0,0,1-8.24057,10.09958c-3.27654,2.6513-6.95572,4.24933-11.27089,3.9422a16.82454,16.82454,0,0,1-4.85805-1.29669.39988.39988,0,0,1-.26906-.42951c.00358-1.52031.00888-3.04067-.00305-4.56088-.00306-.391.18191-.338.46748-.30906a17.47989,17.47989,0,0,0,7.55652-.40756,9.22253,9.22253,0,0,0,6.27177-8.618,21.98282,21.98282,0,0,0-1.05784-5.23467c-1.564-5.48051-3.41561-10.87064-5.15462-16.2962q-2.44-7.61278-4.87091-15.2285c-.70752-2.20533-1.42218-4.4085-2.15963-6.60393-.15805-.47056-.08565-.59968.42609-.59607q4.28449.0301,8.56926-.0022a.6381.6381,0,0,1,.72243.55086q1.7492,5.73366,3.52238,11.46,2.08413,6.75552,4.17428,13.50916a57.52379,57.52379,0,0,1,2.12593,8.97021C130.43738,241.418,130.44441,242.24081,130.50435,243.11234Z" transform="translate(-43.36944 -89.85996)"/><path class="cls-2" d="M253.66432,220.22376q0-14.574-.01262-29.148c-.00094-.53467.10759-.67752.6667-.66986q4.03666.0554,8.07447.00283c.57734-.00669.765.11888.75725.73068-.03487,2.77263-.01524,5.546-.01524,8.319q0,21.291-.01686,42.582c-.001.6535.1932.76953.79266.76729,5.7941-.02156,11.58835-.00215,17.3824-.02922.5947-.00277.69072.19445.68481.71433q-.03354,2.94284.00728,5.88623c.00739.523-.097.70909-.68374.70628-5.60912-.027-11.21841-.01619-16.82765-.01622-3.36966,0-6.7394-.01383-10.10885.01354-.5659.00459-.71428-.14476-.71326-.71085Q253.67807,234.79781,253.66432,220.22376Z" transform="translate(-43.36944 -89.85996)"/><path class="cls-1" d="M219.57076,107.79092c1.0252-.30329,1.59755.48992,2.16634,1.00581a3.46885,3.46885,0,0,1,.23046,5.38237c-.28015.29359-.41466.26815-.607-.10179a21.44815,21.44815,0,0,0-1.79174-3.419c-.53787-.69437-1.17831-1.30738-1.675-2.041-.282-.41654-.255-.63275.29242-.69685A5.33327,5.33327,0,0,1,219.57076,107.79092Z" transform="translate(-43.36944 -89.85996)"/></g></svg>