<svg id="Layer_1" data-name="Layer 1" xmlns="http://www.w3.org/2000/svg" viewBox="0 0 225.68497 163.18407"><defs><style>.cls-1{fill:#030303;}.cls-2{fill:#136c9b;}.cls-3{fill:#146b99;}.cls-4{fill:#ccc;}.cls-5{fill:#126e9b;}.cls-6{fill:#f8fcfc;}.cls-7{fill:#111010;}.cls-8{fill:#fdfdfd;}.cls-9{fill:#1676a6;}.cls-10{fill:#1575a6;}.cls-11{fill:#1674a7;}.cls-12{fill:#1f6f9b;}.cls-13{fill:#196993;}.cls-14{fill:#1a6b93;}.cls-15{fill:#20749f;}.cls-16{fill:#186a95;}.cls-17{fill:#176a96;}.cls-18{fill:#0b658e;}.cls-19{fill:#075d89;}.cls-20{fill:#e1f3f8;}.cls-21{fill:#d4e9f2;}</style></defs><g id="_8cLxP1.tif" data-name="8cLxP1.tif"><path class="cls-1" d="M173.70946,68.52965a52.92407,52.92407,0,0,1,13.685,2.43887c1.44786.45923,2.82527.77133,4.27682-.0237,5.34-2.92477,11.13528-3.1862,16.92737-2.29952a25.30641,25.30641,0,0,0,9.3596-.599c10.56909-2.24092,20.77157-1.547,30.21516,4.36632,7.52659,4.713,11.11469,11.12036,9.91914,20.25015-1.81379,13.85092-6.63821,26.5863-13.27573,38.74594-.45831.83957-1.66125,1.63769-.99571,2.67121.60755.94349,1.89093.57845,2.87339.49777,2.26411-.186,4.5229-.461,6.77474-.76693,4.47984-.6087,6.44094,1.85759,4.80968,6.13046-2.10106,5.50345-6.37581,8.37889-11.912,9.55789a23.96524,23.96524,0,0,1-8.47442.66026c-2.17375-.3221-2.73123.50827-2.94375,2.48686-.63082,5.873-1.07211,11.77527-2.49033,17.5445-2.53788,10.32385-17.93316,16.62335-27.07055,11.07468a12.79555,12.79555,0,0,1-6.09254-9.03017,81.48166,81.48166,0,0,1-1.26249-16.30078c.03-2.20821-.28742-2.98288-2.897-2.19812-5.68755,1.71038-11.23684.475-16.4586-2.08534-.99055-.48568-1.67408-1.11585-2.65326-.22039-4.07041,3.72247-8.97676,1.98319-12.41-2.10443-4.55068-5.418-7.137-11.87222-9.30412-18.45-3.981-12.08316-8.05362-24.1965-7.8885-37.158C146.63106,77.25911,155.81153,68.37656,173.70946,68.52965Z" transform="translate(-107.78675 -66.86812)"/><path class="cls-2" d="M303.47,222.52c-2.35-1.54-2.65-2.81-.61-5.01,2.77-2.98,3.24-6.89,3.31-10.83.18-11.05-6.6-18.16-17.51-18.37-11.03-.21-18.19,6.78-18.29,17.89-.1,9.58,5.05,16.3,13.86,17.91a20.37056,20.37056,0,0,0,10.8-.58c2.84-1.05,4.68994-.65,6.56,1.5.66.75,1.43,1.94,2.81994.76C306.54,223.97,304.45,223.15,303.47,222.52Zm-15.09-.8c-8.97.04-14.53-5.78-14.56-15.21-.03-9.67,5.5-15.58,14.57-15.56,8.71.01,14.34,6.07,14.41,15.49C302.86,215.93,297.43,221.69,288.38,221.72Z" transform="translate(-107.78675 -66.86812)"/><path class="cls-3" d="M255.5114,224.43715a22.92632,22.92632,0,0,1-7.39248-1.20885c-4.11845-1.40808-6.225-4.36574-6.76868-8.55533-.10625-.8187-.55541-1.97137.88416-2.1121,1.08178-.10575,2.0953-.30471,2.63893,1.3201a12.44243,12.44243,0,0,0,17.88436,6.73052c2.61621-1.54136,3.46689-4.02271,3.14973-7.0346-.30058-2.85431-2.12776-4.14586-4.5814-4.77-4.40653-1.12092-8.88489-1.97585-13.25643-3.21328-4.17861-1.18282-5.73163-3.49651-5.75977-7.74424-.03073-4.63895,1.65638-7.23988,5.8599-8.46636a23.19659,23.19659,0,0,1,14.4438.22957,8.21779,8.21779,0,0,1,5.781,6.97852c.11611.83668.56265,1.97635-.8289,2.16-1.08017.14255-2.10773.26995-2.68774-1.29316-2.393-6.449-11.16405-8.89955-16.87644-4.88576-2.05561,1.44436-2.38122,3.45038-2.22908,5.69989a4.58878,4.58878,0,0,0,3.56027,4.47815c4.05929,1.0852,8.185,1.92261,12.24187,3.016,6.50774,1.75393,8.26155,3.94065,7.9518,9.57324-.26843,4.88166-3.35448,7.81477-9.25909,8.6987C258.69723,224.27316,257.09748,224.30956,255.5114,224.43715Z" transform="translate(-107.78675 -66.86812)"/><path class="cls-4" d="M201.98,203.28c-1.8-.28-.68,1.81-1.58,2.34-5.09-3.64-10.75-3.87-14.29-.63-3.07,2.82-3.66,9.15-1.23,12.91,1.8,2.79,4.55,3.55,7.63,3.69a11.97952,11.97952,0,0,0,8.1-2.82c.5,7.64-2.39,10.33-9.45,9.26-1.87994-.29-3.49-.9-4.18-2.93-.31-.94-1.02-1.72-2.05-1.15-1.21.66-.19,1.62.07,2.37a3.563,3.563,0,0,0,1.14,1.63c3.77,2.73,7.97,2.42,12.05,1.21,3.65-1.09,4.86-4.14,4.86-7.74-.01-5.12.04-10.24-.03-15.35C203.01,205.08,203.7,203.55,201.98,203.28Zm-8.84,16.47c-4.91-.07-7.46-2.7-7.44-7.7.02-4.68,3.04-7.59,7.78-7.49,4.55.09,7.25,2.93,7.24,7.62C200.71,217.1,197.99,219.81,193.14,219.75Z" transform="translate(-107.78675 -66.86812)"/><path class="cls-5" d="M308.60661,206.37413c0-4.89787.01427-9.79582-.00933-14.69358-.00649-1.34314-.01078-2.56886,1.869-2.49357,1.76394.07065,1.5059,1.29763,1.50546,2.44156-.00325,8.54282.10089,17.08714-.0392,25.62756-.04485,2.73441.61075,3.80909,3.57741,3.65852,5.11253-.25948,10.24778-.08589,15.37335-.06115,1.06015.00511,2.54145-.41865,2.5873,1.32741.04783,1.81957-1.49081,1.36231-2.52319,1.36959-6.60622.04669-13.21388-.02-19.81869.09116-1.97482.03324-2.57878-.67018-2.54211-2.57445.09425-4.89607.0315-9.79517.0315-14.693Z" transform="translate(-107.78675 -66.86812)"/><path class="cls-4" d="M222.64,213.1c2.03.16,4.09.03,6.13.03a59.83974,59.83974,0,0,1,6.13995.04c2.65.27,2.81-.99,2.32-3.04-.88-3.6-2.77-6.27-6.57-7.01-4.05-.79-8.06-.7-10.9,2.9-2.71,3.44-2.84,7.4-1.1,11.27,1.72,3.84,5.01,5.34,9.12006,5.28,3.65-.05,6.68-1.23,8.56-4.55.31-.53.93-1.24.17-1.78a1.44007,1.44007,0,0,0-2.09.45c-.26.36-.42.8-.66,1.18-1.78,2.84-4.55,3.12-7.5,2.81a6.63033,6.63033,0,0,1-5.68-4.28C219.7,214.37,219.66,212.88,222.64,213.1Zm-1.13-5.83c1.72-2.59,4.34-3,7.17-2.73a6.7702,6.7702,0,0,1,5.77,4.09c.84,1.75.87,3.07-1.75,2.86-1.68-.13-3.38-.02-5.08-.02-1.36,0-2.72.07-4.07-.01-1.08-.07-2.59.58-3.15-.48C219.73,209.7,220.77,208.38,221.51,207.27Z" transform="translate(-107.78675 -66.86812)"/><path class="cls-4" d="M111.1,196.58c0,.11-.01.23-.01.34a5.27058,5.27058,0,0,1,.45-1.15A.98352.98352,0,0,0,111.1,196.58Zm-.16,5.28c0,.66.01,1.33.04,1.98A14.57294,14.57294,0,0,0,110.94,201.86Zm.16-5.28c0,.11-.01.23-.01.34a5.27058,5.27058,0,0,1,.45-1.15A.98352.98352,0,0,0,111.1,196.58Zm-.16,5.28c0,.66.01,1.33.04,1.98A14.57294,14.57294,0,0,0,110.94,201.86Zm.16-5.28c0,.11-.01.23-.01.34a5.27058,5.27058,0,0,1,.45-1.15A.98352.98352,0,0,0,111.1,196.58Zm-.12,7.26a14.57294,14.57294,0,0,0-.04-1.98C110.94,202.52,110.95,203.19,110.98,203.84Zm14.99-9.61c-3.84-.61-7.7-.21-11.56-.26-6.23-.07-6.31-.02-6.22,6.21.12,7.14-.42,14.29.32,21.41a1.626,1.626,0,0,0,2.05-.01c.72-3.14.3-6.33.27-9.48-.01-1.99.68-2.5,2.57-2.49,3.05.01,6.13.38,9.17-.25,3.69.02,6.43-1.9,7.3-5.09C131.02,200.02,129.57,196.28,125.97,194.23Zm-6.6,13.37c-2.35.02-4.73-.31-7.05.32-.35-.29-.94-.53-1-.87a24.18777,24.18777,0,0,1-.34-3.17v-.04a14.57294,14.57294,0,0,0-.04-1.98c.01-1.64.11-3.3.15-4.94a5.27058,5.27058,0,0,1,.45-1.15,1.08748,1.08748,0,0,1,.72-.19c4.67.36,9.56-1.06,13.97,1.57C129.05,204.15,126.82,207.51,119.37,207.6Zm-8.43-5.74c0,.66.01,1.33.04,1.98A14.57294,14.57294,0,0,0,110.94,201.86Zm.16-5.28c0,.11-.01.23-.01.34a5.27058,5.27058,0,0,1,.45-1.15A.98352.98352,0,0,0,111.1,196.58Zm-.16,5.28c0,.66.01,1.33.04,1.98A14.57294,14.57294,0,0,0,110.94,201.86Zm.16-5.28c0,.11-.01.23-.01.34a5.27058,5.27058,0,0,1,.45-1.15A.98352.98352,0,0,0,111.1,196.58Z" transform="translate(-107.78675 -66.86812)"/><path class="cls-4" d="M162.73177,222.526c-3.48323-.03937-6.59759-.1473-8.54017-3.1633-.59648-.92607-1.39435-2.28686-.24892-3.01679,1.38829-.8847,1.67168.56949,2.20881,1.61689,1.65493,3.22707,9.4249,4.00213,11.8381,1.27859a2.98954,2.98954,0,0,0-1.60136-5.03138c-2.52412-.63966-5.13443-.94537-7.71215-1.36569-2.932-.47806-4.94755-1.873-4.77-5.12924.163-2.98925,2.1316-4.37962,4.8896-4.77593,2.83024-.40665,5.68709-.60991,8.3971.56248a4.73234,4.73234,0,0,1,2.11273,1.64955c.63056,1.02942,2.03613,2.47591.47952,3.453-1.4523.91158-1.57719-.903-2.11271-1.82907-1.57506-2.72376-8.77432-3.22173-10.73034-.80029-1.44076,1.78357-.67208,4.07666,1.76576,4.69767,2.19311.55864,4.46908.79354,6.70978,1.16352,4.08249.67406,5.94108,2.38324,5.83111,5.3721-.10526,2.86065-2.31038,4.73873-6.14977,5.19057C164.19732,222.50471,163.28257,222.49841,162.73177,222.526Z" transform="translate(-107.78675 -66.86812)"/><path class="cls-4" d="M141.5,202.71c-6.33-.15-10.09,3.4-10.37,9.51-.26,5.97,4.31,11.07,9.11,10.28,6.95.1,10.64-3.16,10.78-9.52C151.16,206.55,147.74,202.86,141.5,202.71Zm3.13,17.35c-2.45.79-4.94.33-7.42.21-3.86-2.63-4.1-6.48-3.34-10.52.6-3.21,3.38-5.11,7.01-5.18,4-.09,6.59,1.63995,7.5,4.99C149.6,214.09,148.26,217.85,144.63,220.06Z" transform="translate(-107.78675 -66.86812)"/><path class="cls-4" d="M212.41977,205.22271a9.683,9.683,0,0,0-3.24246,8.17993c.09481,2.36986.01454,4.74649.02761,7.12.00436.78979-.29946,1.32748-1.13023,1.35616-.8325.02875-1.18985-.47767-1.19061-1.27646q-.00758-7.96836-.012-15.93675c.00056-.71739.176-1.3574,1.08327-1.40048A1.0546,1.0546,0,0,1,209.161,204.521c-.07282,1.137.5008,1.01121,1.21944.74447C211.05592,205.04615,211.72469,204.507,212.41977,205.22271Z" transform="translate(-107.78675 -66.86812)"/><path class="cls-4" d="M179.10469,219.4969c.4993.23091.988.48935,1.50032.68649.829.31906,2.50792-.501,2.3738.9804-.1588,1.7538-1.91354,1.0948-2.99738.97968-1.4072-.14943-2.97063-.35782-3.23687-2.263-.46575-3.79088-.06673-7.5983-.2255-11.394-.04543-1.08633.36146-2.24328-.38688-3.25067l-1.31792-.10066c.51816-1.94518,2.31063-1.28076,3.55651-1.74132.89444.22447,1.97314.32375,1.21283,1.71756a.74838.74838,0,0,1-.59223.131A42.90383,42.90383,0,0,0,179.10469,219.4969Z" transform="translate(-107.78675 -66.86812)"/><path class="cls-4" d="M125.97244,194.23c-4.86386.017-9.73.12711-14.59055.00911-2.22611-.054-2.94082.70751-2.913,2.92216.10214,8.14324.03851,16.28858.03726,24.43312-1.03959-.41677-.64569-1.33788-.64815-2.0482-.027-7.81474.04854-15.63047-.05508-23.44392-.02735-2.06259.56711-2.88417,2.677-2.69752C115.63264,193.86062,120.88262,192.51857,125.97244,194.23Z" transform="translate(-107.78675 -66.86812)"/><path class="cls-4" d="M179.5836,205.11147a1.21191,1.21191,0,0,0-1.228-1.308c-.8376-.45483-.73319-1.276-.79581-1.89193-.12136,2.98656-2.06707,2.54711-4.09414,1.94813,2.58214-.664,3.21531-2.42436,2.84713-4.85823-.13524-.89394-.0656-1.98038,1.23777-1.97744,1.28562.0029,1.29194,1.04546,1.26844,1.97748-.05705,2.26274-.53756,4.80115,3.21392,4.16331a.96193.96193,0,0,1,1.057,1.07247,1.01682,1.01682,0,0,1-1.1225,1.01762C181.173,205.25867,180.37822,205.16379,179.5836,205.11147Z" transform="translate(-107.78675 -66.86812)"/><path class="cls-4" d="M110.55771,221.5751c-.00127-3.14793.11155-6.30144-.0421-9.4419-.1109-2.26672.792-2.95364,2.94758-2.84872,3.02883.1474,6.06908.06,9.10442.073-2.99056.822-6.04935.41492-9.06615.36439-1.99836-.03346-2.47325.68253-2.53859,2.52854C110.85289,215.35777,111.58333,218.50987,110.55771,221.5751Z" transform="translate(-107.78675 -66.86812)"/><path class="cls-4" d="M212.41977,205.22271c-.68618-.29142-1.34381.779-2.03932.04276,1.17072-2.60946,3.55506-2.46875,5.818-2.51191.80864-.01544,1.19726.56737,1.11,1.37564-.07371.68268-.51881.8988-1.17507.91328C214.89482,205.06977,213.65757,205.15912,212.41977,205.22271Z" transform="translate(-107.78675 -66.86812)"/><path class="cls-4" d="M173.46564,203.85969c5.46075.83065,2.58465-3.83244,3.95925-6.07148,1.37085,1.97664.30492,4.15429.92976,6.01548-.83691,1.35472-2.66021.08919-3.54039,1.33154C173.82665,205.279,172.977,205.27684,173.46564,203.85969Z" transform="translate(-107.78675 -66.86812)"/><path class="cls-4" d="M176.13218,205.23589c1.64675,2.84322.42474,5.92553.70215,8.885a49.95654,49.95654,0,0,1-.08977,5.75891C175.68375,215.03481,176.72691,210.10111,176.13218,205.23589Z" transform="translate(-107.78675 -66.86812)"/><path class="cls-4" d="M179.10469,219.4969c-1.64429-1.32412-.89273-3.17469-.80951-4.72294.17078-3.17649-.94728-6.46723.69617-9.53148A90.51565,90.51565,0,0,0,179.10469,219.4969Z" transform="translate(-107.78675 -66.86812)"/><path class="cls-6" d="M178.94138,146.4419q-1.02639.88994-2.05253,1.78016c-3.52816,3.07887-6.75381,3.10067-10.34725.00986a23.75874,23.75874,0,0,1-5.96425-8.59524A123.55981,123.55981,0,0,1,149.56683,96.618a32.41743,32.41743,0,0,1,1.14735-10.47914c2.11325-7.867,7.1452-12.43533,15.13319-13.76828a47.84514,47.84514,0,0,1,22.8782,2.11664c1.27946.41378,2.45377,1.09376,3.829.058a16.02716,16.02716,0,0,1,11.66628-2.90756c6.89394.80215,13.53312-.506,20.2807-1.19381,8.13143-.82887,15.83111.67019,22.74346,5.32022,5.028,3.38241,7.98291,7.80788,7.95479,14.13517-.04966,11.17782-3.53336,21.44654-7.90963,31.503a76.58479,76.58479,0,0,1-6.7316,12.59316c-1.26926,1.86714-.83738,2.53482,1.29578,2.781,3.22646.37236,6.34649-.32436,9.50491-.68081,1.58885-.17932,3.32785-.4912,4.16333,1.3654.79378,1.76388-.34255,3.10556-1.47677,4.22047-4.90392,4.82045-11.112,6.09449-17.61433,5.69-2.872-.17866-3.35977.68414-3.63823,3.19787a181.18036,181.18036,0,0,1-2.671,18.215c-2.14549,9.95914-15.75621,15.04019-23.69018,9.11325-3.29119-2.45863-4.28948-6.07812-4.87-9.8062-.85979-5.52186-.77157-11.117-.7857-16.69024-.00508-2.00117-.01555-2.71958-2.32606-1.40289-6.10383,3.47834-13.64385,2.65685-18.01829-1.57095-1.56706-2.92394.6735-4.05224,2.57963-5.15994,1.56423-.909,3.45373-1.03928,5.15865-1.63933,1.16168-.40885,2.37515-.78422,3.01836-2.15277-2.29924-1.79054-4.09143-1.40772-6.02332.76052A43.71188,43.71188,0,0,1,178.94138,146.4419Z" transform="translate(-107.78675 -66.86812)"/><path class="cls-7" d="M178.94138,146.4419c1.90827-3.36392,4.98578-5.75955,7.27629-8.80111.79557-1.05643,1.55906-.51483,2.39178-.2764,1.394.39914,2.789.79435,4.32762,1.23219-1.33717,3.41168-4.417,3.77409-7.3107,4.57072-2.66776.73441-5.84279,1.16685-5.19435,5.26C179.33494,148.21612,179.77524,146.8507,178.94138,146.4419Z" transform="translate(-107.78675 -66.86812)"/><path class="cls-8" d="M110.94,201.86a14.87307,14.87307,0,0,1,.15-4.94C111.05,198.56,110.95,200.22,110.94,201.86Z" transform="translate(-107.78675 -66.86812)"/><path class="cls-8" d="M112.32,207.92a1.52055,1.52055,0,0,1-1.36-1.32,6.97736,6.97736,0,0,1-.04-2.04c.03-.22.05-.45.06-.68a24.18777,24.18777,0,0,0,.34,3.17C111.38,207.39,111.97,207.63,112.32,207.92Z" transform="translate(-107.78675 -66.86812)"/><path class="cls-8" d="M126.23,197.15c-4.41-2.63-9.3-1.21-13.97-1.57a1.08748,1.08748,0,0,0-.72.19,2.48517,2.48517,0,0,1,.17-.32l.03-.06c.04,0,.07.01.11.01C116.66,195.88,121.78,193.73,126.23,197.15Z" transform="translate(-107.78675 -66.86812)"/><path class="cls-4" d="M126.23,197.15c-4.41-2.63-9.3-1.21-13.97-1.57a1.08748,1.08748,0,0,0-.72.19.98352.98352,0,0,0-.44.81c0,.11-.01.23-.01.34-.04,1.64-.14,3.3-.15,4.94,0,.66.01,1.33.04,1.98v.04a24.18777,24.18777,0,0,0,.34,3.17c.06.34.65.58,1,.87-1.06-.01-1.74-.42-1.74-1.59a23.82152,23.82152,0,0,1-.01-2.39c.27-2.88-1.35-7.46.73-8.33.13-.06.27-.11.41-.16a.5774.5774,0,0,1,.14-.05c3.78-1.36,8.29-.75,12.46.01A2.32307,2.32307,0,0,1,126.23,197.15Z" transform="translate(-107.78675 -66.86812)"/><path class="cls-8" d="M144.63,220.06c-2.45.95-4.93.62-7.42.21C139.69,220.39,142.18,220.85,144.63,220.06Z" transform="translate(-107.78675 -66.86812)"/><path class="cls-4" d="M144.63,220.06c-2.42,1.75-4.91,1.29-7.42.21C139.69,220.39,142.18,220.85,144.63,220.06Z" transform="translate(-107.78675 -66.86812)"/><path class="cls-9" d="M200.02889,128.43955a36.32507,36.32507,0,0,0,1.43343-23.294c-1.33893-5.32993-4.33776-7.46558-9.83847-7.178-3.09255.16166-5.89947,1.316-9.247,2.61569,1.49916-9.09784,3.01731-17.59152,11.5157-22.62194a35.44778,35.44778,0,0,1,15.30721-1.97744c1.77722.20951,3.47975,1.16028,5.34038.62527,10.52723,3.1136,16.6662,10.68347,21.008,20.30726-1.79674.86783-3.40621.33093-4.956.47678-5.75514.54157-8.81833,3.92952-8.618,9.69624.20442,5.88439,2.983,10.8818,5.55774,15.94908,1.38285,2.72157,2.71408,5.46935,4.06859,8.20531,1.19976,2.28829,1.37247,4.28568-.59978,6.48141-2.55784,2.84768-1.73293,6.77215-2.01689,10.14918-.56308,6.69624-2.07273,13.22967-2.7766,19.85829-.80709,7.60056-13.04589,10.65025-17.64516,6.38427-2.22367-2.06251-2.34573-5.07972-3.26973-7.72448-.176-.50375.04974-1.14336-.51266-1.52555l-.09458-.17863.14348-.14237c.08838-7.09959-.02033-14.201.10092-21.29884.06535-3.82579-1.18658-6.63942-5.00128-7.821-1.8724-.57993-1.76829-1.89506-1.32709-3.204A37.76578,37.76578,0,0,0,200.02889,128.43955Z" transform="translate(-107.78675 -66.86812)"/><path class="cls-9" d="M178.35317,122.98284c.913,3.87669,1.81344,7.78025,4.91979,10.6138,1.202,1.09647.32963,1.79049-.29317,2.51874-2.57929,3.01594-5.11318,6.07761-7.82544,8.97088-2.45625,2.62017-4.74779,2.59231-7.25013-.22753-1.70064-1.91638-3.38757-3.9715-3.9698-6.619-.58685-3.83631-2.39434-7.27623-3.70958-10.85484a145.17217,145.17217,0,0,1-6.38719-25.96385c-1.01432-5.97859-.74932-12.26982,2.66386-17.84425a7.387,7.387,0,0,0,1.17006-2.81126c3.46093-4.29187,8.34064-5.2745,13.42078-5.57093A45.94617,45.94617,0,0,1,185.9179,77.185c1.11216.30439,2.50526.389,1.0193,2.08849-3.26707,3.73641-5.025,8.28086-6.65134,12.88023-1.65675.299-1.17822,1.74146-1.31365,2.70911a97.41673,97.41673,0,0,0-.7456,15.91386,58.123,58.123,0,0,1-.47345,9.84752C177.62827,121.47926,177.18011,122.44568,178.35317,122.98284Z" transform="translate(-107.78675 -66.86812)"/><path class="cls-9" d="M250.58677,99.2958c-1.50539,10.60328-5.98856,20.10541-10.97616,29.40228-.64674,1.20552-.82481,2.8239-3.42354,4.06877,4.338-6.87551,2.62072-13.42767,2.23018-19.926a22.79093,22.79093,0,0,1,.43427-6.43525c2.01558-8.68928-1.77214-15.47814-6.88918-21.85531-1.41626-1.765-3.03969-3.36381-4.56808-5.03887-.43248-1.48125-1.84239-1.92045-2.90312-2.73571a1.55744,1.55744,0,0,1-.70868-1.456c.09814-.76919.6708-.68486,1.26017-.72523,9.19116-.62967,17.19239,1.70922,23.49122,8.87962,2.18509,2.48744,2.38391,5.26963,2.34037,8.25006C250.83732,94.25029,250.24335,96.75525,250.58677,99.2958Z" transform="translate(-107.78675 -66.86812)"/><path class="cls-10" d="M198.03839,123.19315c-1.26708,3.5031-2.55278,6.99962-3.79277,10.51228-.55417,1.56986-1.66884,1.16563-2.79362.92321a12.49854,12.49854,0,0,1-9.44994-12.88887,152.046,152.046,0,0,0,.41248-15.29713,3.066,3.066,0,0,1,.04494-1.01271c.58055-1.96,6.91387-4.47278,10.63621-4.19936,2.98968.2196,4.864,1.6361,4.96394,4.84365a7.72063,7.72063,0,0,0,.10839,4.00305C199.4935,114.50153,197.99305,118.82778,198.03839,123.19315Z" transform="translate(-107.78675 -66.86812)"/><path class="cls-11" d="M234.43584,128.82617c-3.27208-6.47162-7.28111-12.03555-8.77614-18.86344-1.47911-6.75511,1.32631-9.997,8.2369-9.32554,1.387.13477,2.28672.5304,1.95656,2.00035-1.572,6.99925-.24382,13.995-.10516,20.99335A9.67257,9.67257,0,0,1,234.43584,128.82617Z" transform="translate(-107.78675 -66.86812)"/><path class="cls-12" d="M204.77957,164.86684a13.7654,13.7654,0,0,1,2.23024,4.44225c1.43181,5.54728,7.45247,7.81379,12.63276,5.17094,3.71551-1.89555,5.85709-4.31767,5.95485-8.74069.06068-2.74487,1.36912-5.43867,1.82876-8.2034.80558-4.84551.31674-9.8123,1.31414-14.6728.31661-1.54292.28311-3.08186,1.26525-4.46146a8.28753,8.28753,0,0,0,1.59482-7.15773c.63312.79241,1.23783,1.61,1.90608,2.37177.979,1.11609,1.31629,1.89656-.37759,2.84769-2.28415,1.28257-2.78105,3.58656-2.97058,6.11613a182.02271,182.02271,0,0,1-3.26964,24.95366c-1.39128,6.43088-8.75158,10.85491-15.14607,9.26233C207.34867,175.7012,204.81327,171.35768,204.77957,164.86684Z" transform="translate(-107.78675 -66.86812)"/><path class="cls-13" d="M157.67157,80.76554c1.37371,1.35-.11491,2.3026-.58736,3.24764-3.2913,6.58356-3.53959,13.27867-1.7555,20.38266,1.03325,4.11423,1.53633,8.39238,2.42366,12.57787,1.33726,6.3078,4.164,12.08142,6.09618,18.16845.31008.97688,1.3211,2.03741.08575,3.09729-2.45438-3.20779-3.40273-7.0603-4.5924-10.803a151.483,151.483,0,0,1-5.98489-24.8302c-.985-7.03746-1.02775-14.063,2.92562-20.45764C156.64415,81.56382,156.93439,80.95283,157.67157,80.76554Z" transform="translate(-107.78675 -66.86812)"/><path class="cls-14" d="M250.58677,99.2958c-1.00848,1.04219-1.59533.80207-1.2043-.58456a26.81168,26.81168,0,0,0,.63323-7.40326c.00243-5.25229-3.79744-11.342-8.72146-12.97278-3.50819-1.16185-6.91557-2.6538-10.64483-3.30413-2.22417-.38786-4.17207,1.16415-6.28254-.09248-.06754,1.6099,1.0721,1.4632,1.76968,1.90663.90509.57534,2.622.95287,1.25733,2.666-2.42623-1.55441-4.85285-3.109-8.04432-5.15364,10.87084-1.40915,20.15656-.66046,28.10808,6.79958C253.25045,86.59193,251.99219,92.83439,250.58677,99.2958Z" transform="translate(-107.78675 -66.86812)"/><path class="cls-15" d="M184.85548,147.31787c.18733-.89119.96454-.89552,1.60063-.96946a13.04719,13.04719,0,0,0,9.59383-5.73628c.76691-1.09211,1.70265-2.38345,3.29786-1.11333,1.562,1.2437,1.81414,2.70775.68571,4.4704C197.27409,148.27957,190.38578,149.83526,184.85548,147.31787Z" transform="translate(-107.78675 -66.86812)"/><path class="cls-16" d="M249.01031,140.64022c-4.097,3.052-8.73,3.43692-13.50005,3.14412-1.61051-.09888-2.11663-1.0514-1.78475-2.565.369-1.6828,1.69124-3.041,3.06607-2.37656C240.73606,140.74909,244.88866,140.07055,249.01031,140.64022Z" transform="translate(-107.78675 -66.86812)"/><path class="cls-12" d="M200.02889,128.43955c.00822.11338.06014.247.01836.3372-1.695,3.6604-1.18457,6.29332,3.05615,7.7804,2.03448.71343,2.47383,2.96184,2.42382,4.8902-.19971,7.69879.78071,15.43667-.69956,23.09668-1.16882-6.62148-.6409-13.3035-.60584-19.96032.02283-4.333-.725-7.96036-5.74063-8.91864-1.12741-.21541-1.20031-.78464-.86407-1.68027C198.32664,132.09482,198.74046,130.07751,200.02889,128.43955Z" transform="translate(-107.78675 -66.86812)"/><path class="cls-17" d="M178.35317,122.98284c-.25571.862-.70041,1.86562-1.26672.31287a7.033,7.033,0,0,1-.17079-3.69014c1.12249-5.27708.50087-10.60322.60886-15.90419a91.60907,91.60907,0,0,1,1.39974-11.721c.09076-.60551-.05027-1.558,1.04267-1.08149.24253.10573.21935.82093.31872,1.25515a51.902,51.902,0,0,0-1.20074,14.15985A101.79138,101.79138,0,0,1,178.35317,122.98284Z" transform="translate(-107.78675 -66.86812)"/><path class="cls-18" d="M214.54011,76.60905c-.85415,1.11424-1.99453.76645-3.09391.59838-5.70781-.87256-11.35223-1.16247-16.6706,1.73128-1.59379.86719-.94022-.33341-.88274-.97765C200.52874,73.74942,207.47813,74.31965,214.54011,76.60905Z" transform="translate(-107.78675 -66.86812)"/><path class="cls-19" d="M198.03839,123.19315a2.29736,2.29736,0,0,1-.62786-2.47975c1.15081-4.5652.55815-9.07927-.24256-13.5926-.14567-.8211.3143-.93783.89168-1.04629C199.48769,111.78231,200.02257,117.4893,198.03839,123.19315Z" transform="translate(-107.78675 -66.86812)"/><path class="cls-20" d="M193.15123,102.84484c1.41878.18571,3.13949.26881,3.27689,2.09572.08823,1.1732-1.12685,1.87643-2.34279,1.92572a2.85689,2.85689,0,0,1-3.23075-2.31925C190.55357,102.87524,192.06064,103.047,193.15123,102.84484Z" transform="translate(-107.78675 -66.86812)"/><path class="cls-21" d="M230.65971,102.0255c.92163.16022,2.18628-.19921,2.16949,1.11912-.02071,1.6265-1.27421,2.33464-2.73543,2.377-1.02278.02964-2.335-.50562-2.32914-1.51342C227.77468,102.26372,229.44887,102.26236,230.65971,102.0255Z" transform="translate(-107.78675 -66.86812)"/></g></svg>