<svg id="Layer_1" data-name="Layer 1" xmlns="http://www.w3.org/2000/svg" viewBox="0 0 134.20638 134.20722"><defs><style>.cls-1{fill:#448ab9;}.cls-2{fill:#feda56;}</style></defs><path class="cls-1" d="M223.74,94.09a12.9162,12.9162,0,0,0-2.16-7.11,17.38772,17.38772,0,0,0-7.6-6.21c-5.23-2.43-10.83-3.27-16.52-3.71-1.11-.08-2.22-.03-3.33-.21H187.2a26.90591,26.90591,0,0,1-3.11.19A67.51365,67.51365,0,0,0,173.98,78.42a28.39151,28.39151,0,0,0-9.74,3.88c-3.56,2.41-5.61,5.61-5.5,10.1.12,4.61005.02,9.24005.03,13.86005,0,.9-.11005.78.76.78h31.08c.86,0,.75-.12.76.73v3.13c-.01.84.09.74005-.75.74005H146.56a29.18082,29.18082,0,0,0-3.62.2,18.38,18.38,0,0,0-10.94,5.2,23.42823,23.42823,0,0,0-5.43,8.82,49.17994,49.17994,0,0,0-2.64,15.67,74.29133,74.29133,0,0,0,.41,10.44,48.391,48.391,0,0,0,2.15,10.3,24.88125,24.88125,0,0,0,6.11,10.33,14.64168,14.64168,0,0,0,10.5,4.35q5.34-.015,10.68005.01c.49,0,.65-.11.65-.63995-.02-5.01,0-10.02-.02-15.04a23.14725,23.14725,0,0,1,.92005-6.72,16.71643,16.71643,0,0,1,7.95-10.42,19.81762,19.81762,0,0,1,9.84-2.3q15.99-.015,31.98,0a22.773,22.773,0,0,0,6.72-.93,15.96469,15.96469,0,0,0,9.4-6.75,17.12618,17.12618,0,0,0,2.52-9.2Q223.80005,109.525,223.74,94.09Zm-51.26,4.8a5.86435,5.86435,0,0,1,.34-11.72,5.86408,5.86408,0,1,1-.34,11.72Z" transform="translate(-123.8936 -76.84998)"/><path class="cls-2" d="M258.01,140.67c-.02-1.62-.18-3.23-.34-4.85a46.98483,46.98483,0,0,0-2.15-10.29,23.65568,23.65568,0,0,0-6.81-10.83,14.79547,14.79547,0,0,0-9.79-3.76c-3.57995,0-7.16.02-10.74-.01-.51,0-.61.15-.61.63.02,5.11.01,10.22.02,15.32a22.75172,22.75172,0,0,1-1.46,8.13,15.94173,15.94173,0,0,1-9.28,9.63995,21.41061,21.41061,0,0,1-8.03,1.4q-15.885.015-31.76,0a22.44335,22.44335,0,0,0-8.35,1.5,15.411,15.411,0,0,0-8.98,8.29,19.39217,19.39217,0,0,0-1.48,7.89q-.015,14.34,0,28.68c0,.69.01,1.38.07,2.07a13.85408,13.85408,0,0,0,5.23,9.76,25.1384,25.1384,0,0,0,9.43,4.67A61.87362,61.87362,0,0,0,188.59,211.02a92.18091,92.18091,0,0,0,13.99-.63,47.26307,47.26307,0,0,0,9.4-2.07,20.84273,20.84273,0,0,0,7.73-4.34,10.84589,10.84589,0,0,0,3.62-8.34c-.06-4.73-.03-9.46-.01-14.2.01-.5-.14-.61-.62-.61-3.49.02-6.97.01-10.46.01-7,.01-14.01,0-21.02.02-.46,0-.6-.13-.59-.59.04-1.06.01-2.13.01-3.19.01-.95-.11-.83.84-.83h44.56a21.51231,21.51231,0,0,0,6.17-.84c5.79-1.72,9.67-5.6,12.2-10.95a41.6334,41.6334,0,0,0,3.49-14.62,18.07817,18.07817,0,0,1,.2-2.65v-6.15A.45392.45392,0,0,1,258.01,140.67Zm-48.77,48.32a5.855,5.855,0,1,1-5.85,5.84A5.76535,5.76535,0,0,1,209.24,188.99Z" transform="translate(-123.8936 -76.84998)"/></svg>