<svg id="Layer_1" data-name="Layer 1" xmlns="http://www.w3.org/2000/svg" viewBox="0 0 404.24296 80.93868"><defs><style>.cls-1{fill:#4992fe;}</style></defs><path class="cls-1" d="M340.66768,279.07824a4.92811,4.92811,0,0,0,1.10236-2.86607,9.17663,9.17663,0,0,0,.5625-3.76474c.02352-10.81.00542-21.62.02991-32.43.00189-.82732-.13181-1.23656-1.0753-1.38578a18.40134,18.40134,0,0,0-5.66912-.32171c-5.15262.77935-7.43126,4.43407-8.63008,8.93594a22.23418,22.23418,0,0,0,.19884,11.97278c1.02762,3.5954,2.63217,4.97931,6.369,5.18645,2.28139.12647,3.52819,1.50327,4.59115,3.17812,1.94589,3.066,2.272,2.25939-1.10345,3.80294-8.81723,4.032-16.44071-.05717-20.25776-7.39484a24.83027,24.83027,0,0,1,2.85186-26.99328c4.246-4.9887,9.84978-7.12681,16.27083-7.32a60.47427,60.47427,0,0,1,16.77423,2.19036c.91358.23247.81358.74581.81377,1.35144q.00281,8.57183.00158,17.14365c.0001,6.76222.016,13.5245-.01038,20.28662-.0072,1.85236-.141,3.70423-.21674,5.55632a2.38207,2.38207,0,0,1-.56477,2.87506,16.71374,16.71374,0,0,1-6.99322,9.71325,20.66622,20.66622,0,0,1-8.49468,3.06821A38.53726,38.53726,0,0,1,317.11,289.3435c-.90755-.36688-1.0888-.73344-.69433-1.6458.7688-1.77813,1.45962-3.596,2.06459-5.436.31911-.97055.6823-1.07935,1.61974-.71632a28.559,28.559,0,0,0,12.20095,2.364C335.8431,283.67913,338.81751,282.30713,340.66768,279.07824Z" transform="translate(-197.1537 -211.30962)"/><path class="cls-1" d="M474.30682,267.09392c-2.63234,2.95582-5.58044,5.29694-9.43768,5.94043a16.42491,16.42491,0,0,1-17.29764-7.91564c-4.96707-8.4216-5.3169-21.21266,2.5134-29.58446a16.38377,16.38377,0,0,1,15.30419-5.42434c1.64528.25515,3.25351.62687,4.87139.98348.70784.156.93855.50447.56225,1.18122-.48331.86918-.9093,1.7713-1.41653,2.6258a6.183,6.183,0,0,1-4.937,3.22924c-4.13117.37052-6.42086,2.83761-7.41,6.61117a22.52006,22.52006,0,0,0,.6622,14.52615c1.506,3.706,4.27012,5.77909,7.33928,5.5022a11.37641,11.37641,0,0,0,6.06346-2.92747,6.664,6.664,0,0,0,2.70038-5.80648c-.15544-14.375-.06049-28.75259-.10061-43.12916-.00332-1.18713.18357-1.65042,1.5216-1.59149,2.80857.1237,5.62822.09665,8.43959.00984,1.20537-.03722,1.51028.34079,1.50748,1.5181-.03732,15.75713-.00353,31.51443-.04064,47.27157a49.88818,49.88818,0,0,0,1.03612,11.17918c.162.71669.05452.93536-.681.92848-2.52767-.02364-5.05573-.01938-7.58351-.004a2.17957,2.17957,0,0,1-1.637-1.00152A8.99724,8.99724,0,0,1,474.30682,267.09392Z" transform="translate(-197.1537 -211.30962)"/><path class="cls-1" d="M197.18106,243.34224c.00006-9.14214.0202-18.28439-.02729-27.42629-.00549-1.0562.30174-1.4658,1.32934-1.63416,6.59-1.07966,13.21512-1.94137,19.89235-1.4454,6.59949.4902,12.566,2.614,16.87265,8.02662a16.39373,16.39373,0,0,1,3.32282,11.19906c-.30891,9.32454-8.07042,15.11116-16.066,16.70812a23.94288,23.94288,0,0,1-9.64257-.02431c-1.04871-.2175-1.32513-.5993-.7824-1.61018a21.56734,21.56734,0,0,1,2.54322-4.103,6.58305,6.58305,0,0,1,4.17422-2.23555,9.38831,9.38831,0,0,0,7.61746-8.27589c.48434-6.34516-3.70241-10.98393-10.113-11.206a40.74315,40.74315,0,0,0-6.56119.29408c-.59866.07606-.86965.21657-.80651.836a9.90231,9.90231,0,0,1,.00535.99931q0,23.641.02518,47.282c.00267,1.13191-.18863,1.56314-1.44606,1.51978-3.0019-.1035-6.011-.08128-9.01466-.00754-1.059.026-1.355-.24267-1.34952-1.32759C197.201,261.72186,197.181,252.532,197.18106,243.34224Z" transform="translate(-197.1537 -211.30962)"/><path class="cls-1" d="M416.97,229.6c-10.23.1-21.68994,7.52-21.68994,21.68,0,13.38,9.47,22.04,21.78,22.02a21.38587,21.38587,0,0,0,21.48-21.9C438.7,238.72,429.55,229.49,416.97,229.6Zm6.42,32a7.98123,7.98123,0,0,1-12.95-.07,15.44593,15.44593,0,0,1-2.9-9.55c-.04-4.02.55-7.26,2.47-10.12a8.1234,8.1234,0,0,1,13.69-.2C427.32,246.79,427.17,256.61,423.39,261.6Z" transform="translate(-197.1537 -211.30962)"/><path class="cls-1" d="M520.19586,253.44315c-3.33979.00025-6.68067-.04915-10.01878.02552-1.26558.02831-1.31685-.33968-.89071-1.37048a15.12959,15.12959,0,0,1,2.02437-3.42075,5.38186,5.38186,0,0,1,4.48275-2.09916q2.71947-.01368,5.439-.00036c.55541.00253,1.09662.002,1.11458-.74989.11351-4.74469-3.01594-8.85942-8.0102-8.101-3.85706.58569-6.2445,3.17593-7.35859,6.77573a19.15664,19.15664,0,0,0,.96159,14.41225,10.30379,10.30379,0,0,0,10.94936,5.8,30.01729,30.01729,0,0,0,9.007-2.51515c.95924-.43431,1.32342-.19665,1.63713.72429.65622,1.9265,1.38566,3.8289,2.121,5.7273.19325.499.3243.84829-.30893,1.13295-6.79647,3.05512-13.84872,4.59456-21.22276,2.80661-8.0924-1.96213-12.60866-7.60724-14.5681-15.39225a23.46614,23.46614,0,0,1,1.50734-16.79465c3.03527-5.97806,8.10239-9.31524,14.62489-10.44382,4.69955-.81317,9.28462-.44979,13.5361,1.99821,5.70576,3.28544,8.15,9.222,7.66985,15.30963a24.75759,24.75759,0,0,1-.99565,5.15731,1.20681,1.20681,0,0,1-1.39583,1.03063C527.06639,253.42543,523.63105,253.44289,520.19586,253.44315Z" transform="translate(-197.1537 -211.30962)"/><path class="cls-1" d="M586.38417,229.9499a35.10677,35.10677,0,0,1,10.939,1.66949c.90563.28113,1.23686.563.83333,1.54726-.69977,1.70669-1.30993,3.45457-1.86264,5.21489-.29677.9451-.75051,1.11062-1.66359.84591a25.81793,25.81793,0,0,0-8.457-1.04805,6.48781,6.48781,0,0,0-1.67854.27684,3.27328,3.27328,0,0,0-2.48444,2.49084,3.36535,3.36535,0,0,0,1.31709,3.277,18.00367,18.00367,0,0,0,4.26321,2.56714c2.66218,1.25558,5.34928,2.44854,7.8974,3.94614,9.01959,5.301,6.78267,16.2374-.47139,20.21612a19.03536,19.03536,0,0,1-10.89734,2.05239,43.74837,43.74837,0,0,1-12.876-2.84005c-1.01155-.39872-1.13607-.83431-.76064-1.78746.67534-1.71446,1.24822-3.47212,1.79348-5.23345.29065-.93907.612-1.23994,1.67547-.82783a29.70055,29.70055,0,0,0,11.54045,2.19173,6.72109,6.72109,0,0,0,2.48522-.5317,3.56777,3.56777,0,0,0,.85887-6.3795c-2.31817-1.80941-5.09651-2.72926-7.72689-3.92991a23.01288,23.01288,0,0,1-7.18941-4.55094c-4.18539-4.28158-3.32819-10.257-.40465-14.07069,2.6466-3.4525,6.3881-4.77885,10.58023-5.08822C584.85429,229.90187,585.621,229.9499,586.38417,229.9499Z" transform="translate(-197.1537 -211.30962)"/><path class="cls-1" d="M381.73394,229.641a27.47191,27.47191,0,0,1,9.08026,1.36452c.89072.28114,1.13938.54436.77022,1.454-.76452,1.88392-1.44155,3.80442-2.11015,5.72527-.24338.69919-.4983.94823-1.33235.7336a28.26919,28.26919,0,0,0-5.06607-.74914c-5.634-.39809-8.31261,3.15848-9.45834,6.618a20.6291,20.6291,0,0,0-.07287,13.0192c1.79149,5.59545,6.04139,7.94719,11.74929,6.5531,1.32952-.32472,2.62446-.79678,3.92443-1.23332.64967-.21817,1.079-.30174,1.36195.56736.6584,2.02237,1.42141,4.01272,2.20272,5.99218.22764.57674.14475.83674-.415,1.08363-8.55226,3.772-16.839,3.596-24.54884-2.01113-4.38307-3.1877-6.48037-7.8289-7.139-13.13375a27.52792,27.52792,0,0,1,.81839-11.8442c2.34822-7.42094,7.57859-11.70244,14.983-13.55418A16.82529,16.82529,0,0,1,381.73394,229.641Z" transform="translate(-197.1537 -211.30962)"/><path class="cls-1" d="M551.81573,237.37838a18.15718,18.15718,0,0,1,3.57072-4.82517c3.2721-3,7.03443-3.21937,11.06427-2.00054.45532.13771.72706.37214.645.92494-.39678,2.67141-.7872,5.34409-1.13922,8.02164-.13576,1.03268-.82393.446-1.15567.35688a11.30489,11.30489,0,0,0-5.08054-.40709,7.56575,7.56575,0,0,0-5.186,4.1302,16.90759,16.90759,0,0,0-2.0379,8.201q-.10007,9.498.00479,18.99751c.01258,1.22034-.33909,1.504-1.50679,1.4637-2.62066-.09036-5.251-.11864-7.86852.00913-1.34834.06581-1.53059-.41635-1.52636-1.60186.03722-10.4273.01817-20.85484-.00192-31.28227a30.68235,30.68235,0,0,0-1.00034-7.45922c-.26877-1.06376-.01478-1.36934,1.0391-1.347,2.14577.04556,4.29449.05787,6.43929-.00661a1.9669,1.9669,0,0,1,1.93484,1.16454A15.46192,15.46192,0,0,1,551.81573,237.37838Z" transform="translate(-197.1537 -211.30962)"/><path class="cls-1" d="M305.98614,255.18047c0,5.98491-.029,10.88965.02405,15.7935.01086,1.00294-.25718,1.28637-1.26417,1.26327-2.95625-.06779-5.91738-.092-8.87176.00857-1.2217.04158-1.35828-.43186-1.35429-1.46346.03488-8.99924.02017-17.99867.01995-26.998,0-.42854.01876-.85834-.00693-1.28542-.20081-3.33789-1.81515-4.5823-5.09944-3.94076-3.14448.61423-4.06375.23249-5.86183-2.4339q-.35906-.53244-.71874-1.06444c-1.18131-1.75405-1.18-1.75153.78782-2.70458a24.74842,24.74842,0,0,1,11.1021-2.7274,11.07274,11.07274,0,0,1,10.95189,9.66377C306.36165,244.93622,305.76914,250.60633,305.98614,255.18047Z" transform="translate(-197.1537 -211.30962)"/><path class="cls-1" d="M247.59746,251.34572c-.00011-6.46925.02275-12.93867-.0233-19.4076-.00742-1.041.23319-1.41609,1.33669-1.38894,2.953.07266,5.90965.05747,8.86359.00564.94608-.01659,1.32895.17945,1.32613,1.236q-.05238,19.62169-.004,39.24357c.00194.91691-.22678,1.21946-1.18046,1.20083q-4.57349-.08934-9.14963-.00065c-.9445.01788-1.19417-.26934-1.18888-1.19578C247.61508,264.47461,247.59757,257.91012,247.59746,251.34572Z" transform="translate(-197.1537 -211.30962)"/><path class="cls-1" d="M268.67947,253.28745c-.07908-4.5803.14925-10.05214-.181-15.5195a39.76833,39.76833,0,0,0-.96868-6.17121c-.18747-.84923.06362-1.02483.79031-1.0234,2.62164.00517,5.24356.022,7.86481-.01062.756-.0094,1.08982.49124,1.4792.96111a12.13864,12.13864,0,0,1,2.51,7.9887c.05877,10.51393.013,21.02841.04726,31.54256.00312.95928-.30113,1.1934-1.21652,1.17774-3.04975-.05217-6.10169-.05685-9.15121.002-.9624.01858-1.19862-.30053-1.1926-1.21688C268.69788,265.40425,268.67947,259.79018,268.67947,253.28745Z" transform="translate(-197.1537 -211.30962)"/><path class="cls-1" d="M253.28755,225.40247a6.549,6.549,0,0,1-6.60752-6.82929,6.63417,6.63417,0,0,1,6.84561-6.64889,6.70534,6.70534,0,0,1,6.59878,6.81809A6.57841,6.57841,0,0,1,253.28755,225.40247Z" transform="translate(-197.1537 -211.30962)"/></svg>