<svg id="Layer_1" data-name="Layer 1" xmlns="http://www.w3.org/2000/svg" viewBox="0 0 140.53685 158.13471"><defs><style>.cls-1{fill:#77abdb;}.cls-2{fill:#005694;}.cls-3{fill:#fefefe;}.cls-4{fill:#006cab;}</style></defs><g id="SAyVWM.tif"><path class="cls-1" d="M209.62844,179.25237V109.20668a11.85225,11.85225,0,0,1,2.98371-7.13488,17.17753,17.17753,0,0,1,4.7694-3.51008q10.92405-6.30021,21.84258-12.60993,11.62007-6.70005,23.23763-13.40447c3.57858-2.05638,7.16641-4.09852,10.71474-6.20523A9.77114,9.77114,0,0,1,278.09,65.04682c2.81452-.06486,5.68022-.35085,8.27658,1.14755q6.75228,3.89682,13.501,7.79993,9.37989,5.42135,18.76279,10.83745c6.647,3.84944,13.32336,7.64827,19.94569,11.54019a67.14539,67.14539,0,0,1,7.16221,4.31382,13.03023,13.03023,0,0,1,2.687,3.10457,1.19013,1.19013,0,0,1,.22154,1.08673c-1.64485,1.52081-3.70952,2.37658-5.608,3.48807-6.71036,3.92868-13.45486,7.79906-20.19685,11.67322-.81672.46931-1.56551,1.29946-2.696.94578-1.29545-1.60683-2.27625-3.43045-3.552-5.05888A46.33546,46.33546,0,0,0,292.2861,99.58642,44.6131,44.6131,0,0,0,282.25463,97.95a45.32919,45.32919,0,0,0-31.31729,10.12828,44.37032,44.37032,0,0,0-12.52516,15.47533,46.73144,46.73144,0,0,0-4.67809,16.90554,45.45327,45.45327,0,0,0,4.75128,24.42231,6.42752,6.42752,0,0,1,1.1444,2.8351c-.3111.74207-1.05047.98572-1.6596,1.33842-8.329,4.82281-16.67567,9.615-24.99435,14.45564a2.03836,2.03836,0,0,1-1.63395.35878,2.96533,2.96533,0,0,1-1.36172-2.265C209.81872,180.82759,209.854,180.02033,209.62844,179.25237Z" transform="translate(-209.62844 -64.98234)"/><path class="cls-2" d="M348.08677,184.06263a11.86051,11.86051,0,0,1-4.75639,4.65542q-19.68986,11.34208-39.36126,22.71622c-5.65061,3.26327-11.307,6.5167-16.93947,9.811a22.44842,22.44842,0,0,1-4.38736,1.87175h-5.51048c-2.90447-.06181-5.14442-1.75834-7.50178-3.11429q-14.80053-8.51335-29.577-17.06859c-8.20151-4.74277-16.42356-9.45031-24.5962-14.24289a12.0155,12.0155,0,0,1-3.774-3.62665c-.289-.41786-.67967-.88722-.19826-1.44063a47.83224,47.83224,0,0,0,5.57206-3.0736c7.1291-4.0834,14.23278-8.2112,21.34749-12.31976a2.20246,2.20246,0,0,1,1.032-.44314c.77359.00282.98278.677,1.29122,1.16343a46.235,46.235,0,0,0,7.28246,8.81627,47.0645,47.0645,0,0,0,15.401,9.73382,46.03,46.03,0,0,0,19.905,2.92722,44.63331,44.63331,0,0,0,14.82959-3.66269A47.14209,47.14209,0,0,0,314.57444,174.93a46.18391,46.18391,0,0,0,4.70882-6.34279,2.027,2.027,0,0,1,1.13958-1.0676,3.78171,3.78171,0,0,1,2.29216.91844c8.14806,4.73852,16.336,9.40811,24.47216,14.167C347.72729,182.921,348.41465,183.19059,348.08677,184.06263Z" transform="translate(-209.62844 -64.98234)"/><path class="cls-3" d="M320.45825,167.72545a48.85406,48.85406,0,0,1-12.8167,14.193,46.83666,46.83666,0,0,1-68.20533-14.13079A44.44318,44.44318,0,0,1,233.129,141.989c1.27586-18.38949,10.33374-31.794,26.76008-40.11959A42.84613,42.84613,0,0,1,279.26252,97.346a46.461,46.461,0,0,1,31.87557,11.97708,45.19074,45.19074,0,0,1,8.65691,10.34377c.23133.37662.59828.72216.49327,1.24181-.01744.64375-.52052.90112-.97345,1.16272-5.7981,3.34878-11.60672,6.67933-17.38262,10.06655a2.60274,2.60274,0,0,1-1.71447.52286c-1.27727-.51877-1.67353-1.84007-2.47135-2.78461-4.31194-5.10492-9.699-8.12879-16.4139-8.46444-9.42259-.471-16.50873,3.54252-21.349,11.5632a21.544,21.544,0,0,0-2.99546,12.29753,21.77536,21.77536,0,0,0,2.085,8.40059c.30962.65693.67117,1.28934.931,1.96932a23.393,23.393,0,0,0,9.36525,8.86611,22.27073,22.27073,0,0,0,8.512,2.51347A22.98463,22.98463,0,0,0,293.525,162.56a21.06959,21.06959,0,0,0,5.16195-5.31792c1.28638-1.90538,1.47122-1.97491,3.48-.82337q7.6579,4.39005,15.281,8.8406c.793.46062,1.61487.87419,2.37449,1.38852C320.18717,166.89478,320.63738,167.13716,320.45825,167.72545Z" transform="translate(-209.62844 -64.98234)"/><path class="cls-4" d="M300.33714,132.43094l19.95111-11.52226q9.36468-5.39279,18.72927-10.78567,4.313-2.484,8.6221-4.97473a1.36878,1.36878,0,0,1,.84983-.27356,14.10788,14.10788,0,0,1,1.67582,6.92094q-.05157,32.7448-.01735,65.48976a11.82658,11.82658,0,0,1-2.06123,6.77738,1.07013,1.07013,0,0,0-.63452-.75616q-11.4236-6.56882-22.83992-13.15026c-1.39-.8012-2.76976-1.62008-4.15413-2.43087-2.35132-1.634-4.90486-2.92862-7.36715-4.37571-3.94632-2.31929-7.93371-4.56881-11.8721-6.90128-.76673-.45408-1.09756-.48145-1.6336.35816a23.40452,23.40452,0,0,1-39.51881-.16657,7.381,7.381,0,0,1-.38518-.813c.1368-.5879.61371-.83784,1.081-1.10864,10.69206-6.19649,21.42142-12.32839,32.09867-18.55056,1.944-1.13286,3.93016-2.194,5.84362-3.37905A2.738,2.738,0,0,1,300.33714,132.43094Z" transform="translate(-209.62844 -64.98234)"/><path class="cls-1" d="M300.33714,132.43094q-9.10927,5.2736-18.21927,10.546-10.85332,6.26892-21.71666,12.52049c-.22774.13118-.47942.22077-.71994.32974a19.49865,19.49865,0,0,1-2.93-7.99822A23.41979,23.41979,0,0,1,299.55211,131.475C299.777,131.821,299.91325,132.246,300.33714,132.43094Z" transform="translate(-209.62844 -64.98234)"/><path class="cls-3" d="M311.11276,144.16631c0-2.57786,0-2.57786,2.61407-2.57786,2.5946,0,2.59461,0,2.59461-2.62275,0-2.61091,0-2.61092,2.62953-2.61092,2.56682,0,2.56681,0,2.56681,2.55884,0,2.67483,0,2.67483,2.65737,2.67483,2.55132,0,2.55132,0,2.55132,2.52581,0,2.71508,0,2.71508-2.7274,2.71507-2.48128,0-2.48129,0-2.48129,2.5207,0,2.6528,0,2.6528-2.68693,2.6528-2.50942,0-2.50941,0-2.50941-2.486,0-2.68755,0-2.68755-2.65881-2.68755C311.11276,146.82933,311.11276,146.82933,311.11276,144.16631Z" transform="translate(-209.62844 -64.98234)"/><path class="cls-3" d="M346.24273,144.14757c0,2.68176,0,2.68176-2.64592,2.68176-2.56273,0-2.56273,0-2.56273,2.554,0,2.61948,0,2.61948-2.6055,2.61948-2.59087,0-2.59087,0-2.59087-2.63411,0-2.53938,0-2.53938-2.57737-2.53938-2.63128,0-2.63128,0-2.63128-2.58157,0-2.65931,0-2.65931,2.64739-2.65931,2.56126,0,2.56126,0,2.56126-2.54129,0-2.69236,0-2.69237,2.6629-2.69237,2.53347,0,2.53347,0,2.53347,2.4774,0,2.75626,0,2.75626,2.80545,2.75626C346.24273,141.58845,346.24273,141.58845,346.24273,144.14757Z" transform="translate(-209.62844 -64.98234)"/></g></svg>