<svg id="Layer_1" data-name="Layer 1" xmlns="http://www.w3.org/2000/svg" viewBox="0 0 93.17466 102.94189"><defs><style>.cls-1{fill:#7081ca;}.cls-2{fill:#4960b8;}.cls-3{fill:#364ba3;}.cls-4{fill:#fdfdfd;}</style></defs><g id="tuRmhx.tif"><path class="cls-1" d="M234.09191,168.16317a4.04664,4.04664,0,0,1-.65533-2.07573c-.04656-.4818-.028-.9705-.02806-1.45612q-.00182-22.444-.00722-44.88812a5.44917,5.44917,0,0,1,3.01248-5.12209Q251.3109,106.299,266.1912,97.94673c3.6249-2.03015,7.24186-4.07483,10.88341-6.07468a5.61583,5.61583,0,0,1,5.72574.0155q16.07441,8.96187,32.13752,17.944,4.246,2.37087,8.49719,4.73237a5.10673,5.10673,0,0,1,1.841,1.57108.91575.91575,0,0,1-.427.37993c-2.60343,1.45865-5.18552,2.95486-7.78094,4.42762q-3.58954,2.03688-7.16443,4.10013c-.15531.08969-.28818.28532-.516.16673a35.26323,35.26323,0,0,0-3.16385-4.46467,34.4903,34.4903,0,0,0-11.13246-8.7701,33.17828,33.17828,0,0,0-11.52079-3.34494,34.60345,34.60345,0,0,0-11.28613.68448,34.166,34.166,0,0,0-22.48336,17.30035,34.39934,34.39934,0,0,0-3.69606,11.66075,33.36016,33.36016,0,0,0-.08491,7.781,34.03459,34.03459,0,0,0,2.0602,8.706,37.50308,37.50308,0,0,0,1.69915,3.77091,1.25154,1.25154,0,0,1,.23318.58808,12.66825,12.66825,0,0,1-2.12925,1.28763q-6.61548,3.79918-13.24984,7.56551A1.00736,1.00736,0,0,1,234.09191,168.16317Z" transform="translate(-233.40129 -91.09526)"/><path class="cls-2" d="M309.41745,125.20905c1.11747-.80345,2.3594-1.3966,3.54414-2.0856q3.83965-2.233,7.71384-4.40646c1.53446-.859,3.01856-1.80819,4.60069-2.582a4.84974,4.84974,0,0,1,1.26428,3.5769c.02413,1.37845.00509,2.75764.00525,4.13651q.00231,19.63446.00166,39.26894a14.83612,14.83612,0,0,1-.208,3.93824,3.24068,3.24068,0,0,1-.5413,1.20977c-.27113.17022-.48617-.00992-.6975-.12837-3.48219-1.95177-6.98684-3.86312-10.48648-5.78292-1.61254-.88459-3.19222-1.83215-4.84955-2.6349-1.86941-1.09906-3.78183-2.12143-5.68256-3.16413-2.95332-1.62014-5.89592-3.25985-8.85883-4.8625a5.674,5.674,0,0,0-.63187-.29349c-1.58482-1.015-3.2751-1.84258-4.91509-2.75938q-3.22158-1.801-6.46128-3.56947c-1.32392-.7271-2.63586-1.47667-3.9715-2.18263a.91787.91787,0,0,1-.372-.27047c-.00863-.29587.23916-.383.43039-.49165q7.4877-4.25585,14.96167-8.53575a1.58892,1.58892,0,0,1,.2117-.0965c1.37181-.64029,2.644-1.46,3.95688-2.20549,3.40354-1.93254,6.796-3.88463,10.19886-5.81838C308.86606,125.33569,309.08366,125.07433,309.41745,125.20905Z" transform="translate(-233.40129 -91.09526)"/><path class="cls-3" d="M309.77582,159.62122a2.65741,2.65741,0,0,1,.84619.35578c2.80324,1.5479,5.61407,3.08205,8.418,4.6287,2.05959,1.13609,4.111,2.28695,6.1695,3.4251a4.86846,4.86846,0,0,0,.5885.23456,4.8361,4.8361,0,0,1-2.00556,1.97006q-6.11125,3.44275-12.22792,6.87593-8.24882,4.63017-16.50089,9.25458-6.14277,3.44607-12.2849,6.89324a5.457,5.457,0,0,1-5.65864-.02582q-11.32136-6.35253-22.63948-12.71078-9.0096-5.05842-18.0216-10.11252a5.50071,5.50071,0,0,1-2.36709-2.24688c1.367-.92111,2.8424-1.65656,4.267-2.47833,3.69277-2.13012,7.405-4.22649,11.10725-6.3402.15227-.08694.28587-.20312.47712-.17336.25941.02777.32546.25287.42975.43159a34.26365,34.26365,0,0,0,24.002,16.65878,32.264,32.264,0,0,0,6.9606.456,34.56793,34.56793,0,0,0,12.57-2.95791,34.04149,34.04149,0,0,0,8.639-5.56155,34.6119,34.6119,0,0,0,6.60893-7.86532C309.31716,160.06715,309.38942,159.7003,309.77582,159.62122Z" transform="translate(-233.40129 -91.09526)"/><path class="cls-4" d="M309.77582,159.62122a35.19544,35.19544,0,0,1-7.79974,9.26928,33.93314,33.93314,0,0,1-17.22758,7.653,34.29713,34.29713,0,0,1-34.74412-17.27292c-.01894-.03389-.04062-.06625-.061-.09933a32.62521,32.62521,0,0,1-4.17828-14.52714c-.49465-13.705,5.14953-24.22606,16.70327-31.53171a31.431,31.431,0,0,1,14.65947-4.69953,33.78617,33.78617,0,0,1,25.62036,8.53176,32.92331,32.92331,0,0,1,6.45687,7.688c.10738.175.29036.32995.21241.57645q-7.07047,4.03146-14.1427,8.05986a1.46543,1.46543,0,0,1-.72818.32923,1.03132,1.03132,0,0,1-.44287-.44486,16.62939,16.62939,0,0,0-12.12514-7.41451,16.26183,16.26183,0,0,0-12.9887,3.91071,16.55432,16.55432,0,0,0-5.9231,11.49659A16.95541,16.95541,0,0,0,265.002,150.587a16.78221,16.78221,0,0,0,8.567,7.71635,16.0459,16.0459,0,0,0,6.82206,1.26694,16.61843,16.61843,0,0,0,11.28263-4.72462,15.53752,15.53752,0,0,0,2.5378-3.02672c.10909-.17973.21826-.37311.44859-.43367.21257-.16433.36429.02012.51937.10526q7.12955,3.9142,14.25429,7.83718C309.56747,159.40129,309.72184,159.45348,309.77582,159.62122Z" transform="translate(-233.40129 -91.09526)"/><path class="cls-1" d="M264.88094,150.66606a16.25547,16.25547,0,0,1-1.983-6.74892,17.13161,17.13161,0,0,1,18.9995-18.34531,16.66193,16.66193,0,0,1,12.487,7.71939,3.18668,3.18668,0,0,1,.16211.30694q-5.59362,3.20782-11.18855,6.41344c-1.49512.85379-3.0294,1.63943-4.47321,2.58212-.03926.1982-.20663.26908-.35665.35444q-6.61559,3.76458-13.22011,7.54856A.90511.90511,0,0,1,264.88094,150.66606Z" transform="translate(-233.40129 -91.09526)"/><path class="cls-3" d="M264.88094,150.66606a12.42637,12.42637,0,0,1,2.30834-1.41987q5.55365-3.19745,11.12918-6.35686c.18488-.1054.37747-.1973.5664-.29555,1.25988.55381,2.42736,1.27977,3.62852,1.94361,1.97738,1.09284,3.964,2.16888,5.9446,3.256q2.9001,1.5918,5.79689,3.18963a.92709.92709,0,0,1,.40519.40226,16.62655,16.62655,0,0,1-11.48052,8.01468,17.05285,17.05285,0,0,1-18.26146-8.62393A.638.638,0,0,1,264.88094,150.66606Z" transform="translate(-233.40129 -91.09526)"/></g></svg>