<svg id="Layer_1" data-name="Layer 1" xmlns="http://www.w3.org/2000/svg" viewBox="0 0 631.19302 325.72519">
  <defs>
    <style>
      .cls-1 {
        fill: #393e46;
      }
    </style>
  </defs>
  <g id="vertical-stripes">
    <path class="cls-1" d="M732.82947,486.88269q11.76114.18379,23.52221.36762-.01913-84.40481-.03833-168.80958H732.66052Q732.745,402.6617,732.82947,486.88269Z" transform="translate(-212.34158 -318.17349)"/>
    <path class="cls-1" d="M299.39328,487.28909q11.75.01387,23.49994.02777l.25745-169.14337-24.20014.25745Z" transform="translate(-212.34158 -318.17349)"/>
  </g>
  <g id="stripes">
    <path class="cls-1" d="M231.08139,325.5184v28.31217l592.90945.32922V325.18918Z" transform="translate(-212.34158 -318.17349)"/>
    <path class="cls-1" d="M231.08139,365.311v28.31216l592.90945.32923V364.98181Z" transform="translate(-212.34158 -318.17349)"/>
    <path class="cls-1" d="M231.40028,404.4466v28.31216l592.90946.32922V404.11737Z" transform="translate(-212.34158 -318.17349)"/>
    <path class="cls-1" d="M231.40028,443.58216v28.31217l592.90946.32922V443.25294Z" transform="translate(-212.34158 -318.17349)"/>
  </g>
  <path id="seat" class="cls-1" d="M212.34158,494.12192l.27851,28.88522,630.91452-.08111q-.13468-14.58673-.26941-29.17356-20.17649-3.45515-40.353-6.91028-277.72027.11581-555.44064.23166Q229.90658,490.59791,212.34158,494.12192Z" transform="translate(-212.34158 -318.17349)"/>
  <g id="Legs">
    <path id="leg-1" class="cls-1" d="M277.46124,520.98157q-22.69977.0954-45.39949.19073,7.81794,61.29849,15.63588,122.59693,6.71871-.15153,13.43744-.3031Q269.29814,582.22385,277.46124,520.98157Z" transform="translate(-212.34158 -318.17349)"/>
    <g id="BackLegs">
      <path id="leg-3" class="cls-1" d="M294.173,530.61182h34.95755q-5.50629,51.22394-11.01263,102.44787-6.21354.05053-12.42712.101Q299.9319,581.88623,294.173,530.61182Z" transform="translate(-212.34158 -318.17349)"/>
      <path id="leg-4" class="cls-1" d="M727.29022,530.5329h35.24921Q756.12122,581.7767,749.703,633.02057q-5.39941-.1019-10.79889-.20374Q733.09721,581.67484,727.29022,530.5329Z" transform="translate(-212.34158 -318.17349)"/>
    </g>
    <path id="leg-2" class="cls-1" d="M794.67737,643.89868l15.02814-.09631q7.22854-61.79187,14.45715-123.5838-22.31827.0954-44.63648.19073Q787.10181,582.154,794.67737,643.89868Z" transform="translate(-212.34158 -318.17349)"/>
  </g>
</svg>
