<svg id="Layer_1" data-name="Layer 1" xmlns="http://www.w3.org/2000/svg" viewBox="0 0 489.56995 263.08002">
  <style>
    #chair{
      fill: #393E46;
    }
  </style>
  <path id="chair" d="M709.41,338.69q-6.06-6.585-12.12994-13.17-25.93506.15006-51.87006.31.195-28.70994.41-57.42,22.95.165,45.92.33l-.54-69.63c-7.27.68-14.86,1.23-22.77,1.6-7.75.36005-15.23.53-22.4.53,0-3.63,0-7.25-.01-10.88q-9.105-.015-18.23-.04-.045,6.075-.08,12.16c-51.62,2.9-105.96,4.62-162.79,4.71-57.36.1-112.2-1.47-164.27-4.26q-.21-6.3-.42-12.61-8.115-.135-16.24-.28c.04,3.74.09,7.47.14,11.21q-11.01-.165-22.69-.75c-8.21-.41-16.15-.98-23.81-1.66q-.57,35.025-1.13,70.06,23.67.07508,47.35.14-.20994,28.71-.42,57.43-25.29-.49494-50.57-.98-6.51,6.51-13.02,13.02,2.025,6.375,4.06,12.75l19.89-.42q-.285,50.64-.56,101.27,12.315-.075,24.65-.14.075-50.775.14-101.55h14.99q.27,41.19.56,82.39l17.19-.39q.21-40.8.42-81.6,163.725.54,327.46,1.09-.18,40.035-.34,80.08,8.655.03,17.32.07-.15-40.155-.3-80.32,7.905.3,15.82.58-.15,50.4-.31,100.8,13.32-.18,26.63-.35-.525-50.7-1.04-101.42,9.285-.165,18.55-.32Q707.19,344.865,709.41,338.69ZM300.94,324.83q-.015-28.2-.04-56.41,163.83.36,327.64.72l.39,56.82Q464.935,325.405,300.94,324.83Z" transform="translate(-219.84003 -190.03998)"/>
</svg>
