<svg id="Layer_1" data-name="Layer 1" xmlns="http://www.w3.org/2000/svg" viewBox="0 0 85.66335 120.11777"><defs><style>.cls-1{fill:#1d87c6;}.cls-2{fill:#eee;}.cls-3{fill:#fefefe;}.cls-4{fill:#1c9ad1;}</style></defs><path class="cls-1" d="M302.84433,106.84307q20.75872,0,41.51737-.02243c1.1408-.00285,1.38375.18986,1.262,1.42481-.77187,7.83313-1.40813,15.67957-2.09618,23.521q-1.22429,13.95249-2.45874,27.90411-1.03207,11.76357-2.0496,23.5284c-.28894,3.337-.5761,6.67423-.835,10.01362a1.478,1.478,0,0,1-1.26209,1.529q-16.62311,4.71192-33.21616,9.52955a2.02051,2.02051,0,0,1-1.20144.02835q-17.05434-4.80506-34.12775-9.542a1.57556,1.57556,0,0,1-1.36626-1.69323c-.955-12.06358-1.96888-24.12249-2.95314-36.18378-.63348-7.76285-1.2292-15.52879-1.86754-23.29123q-1.06031-12.8937-2.19027-25.78153c-.08985-1.00887.38848-.9719,1.0757-.97065q8.80669.016,17.61344.00605Q290.76653,106.84306,302.84433,106.84307Z" transform="translate(-259.98875 -84.26009)"/><path class="cls-2" d="M300.95437,95.41007c-1.50226-2.12927-2.79114-4.01238-4.1404-5.85125-1.14795-1.56454-.43234-3.31228-.571-4.97293-.034-.40761.432-.29674.69671-.29727,3.937-.00778,7.87408.00405,11.811-.01612.57116-.00293.70646.22.69745.7393-.02469,1.42252-.03414,2.84644.00365,4.26839.01736.653-.28765.75644-.83857.74129-1.077-.02961-2.15546-.00869-3.48944-.00869,1.04777,1.34748,1.89034,2.57781,2.88446,3.67043a5.39358,5.39358,0,0,1,1.469,4.18957c-.13679,2.66434-.03663,2.66947-2.70493,2.66948-3.05748,0-6.11549-.03168-9.17208.02054-.84989.01453-1.10528-.24817-1.0307-1.06305.12437-1.35864-.56672-3.171.27078-3.955C297.54125,94.88861,299.34628,95.41007,300.95437,95.41007Z" transform="translate(-259.98875 -84.26009)"/><path class="cls-2" d="M323.59756,90.01269c1.16931,1.495,2.118,2.81433,3.18112,4.03406a4.6063,4.6063,0,0,1,1.18283,3.40348c-.09708,3.08985-.03077,3.092-3.15423,3.09193-2.93625,0-5.87271-.01774-8.80865.013-.68257.00714-.98425-.14529-.94636-.89746a34.99926,34.99926,0,0,0-.00048-3.51924c-.03547-.7028.24321-.843.8685-.81833,1.07574.04235,2.15437.01171,3.46441.01171-1.43827-2.04331-2.7398-3.9207-4.07193-5.77615-1.12408-1.56568-.41924-3.321-.54786-4.98706-.03243-.41992.44176-.27808.69833-.27874,3.901-.01,7.80213.00489,11.703-.01918.61238-.00378.79115.196.77554.79-.0363,1.38223-.04813,2.76744.00372,4.14869.02676.713-.27909.83645-.89263.81391C326.008,89.98488,324.96061,90.01269,323.59756,90.01269Z" transform="translate(-259.98875 -84.26009)"/><path class="cls-2" d="M277.37571,92.28446c.00006-2.34684.033-4.69441-.01847-7.04012-.01717-.78258.21436-.9873.98665-.97943,3.81612.03891,7.63326.04611,11.4491-.00453.83581-.01109.96569.29091.93414,1.00814-.05149,1.17116-.05653,2.34834.00146,3.51889.03719.75082-.15795,1.02279-.96342.99713-1.92728-.0614-3.85849.00926-5.7867-.03474-.701-.016-.97737.16826-.921.90155a35.69426,35.69426,0,0,0,.1506,4.59889c1.46.0271,2.92005.05085,4.37993.08248.9987.02164,2.33564-.3266,2.90764.181.67288.59715.18769,1.96282.20669,2.993.03759,2.03511.01109,2.03561-2.02649,2.0356-3.43906,0-6.87836-.02113-10.317.01629-.76347.00831-1.01728-.19242-1.00119-.98253C277.40706,97.14642,277.37565,94.71512,277.37571,92.28446Z" transform="translate(-259.98875 -84.26009)"/><path class="cls-3" d="M303.00164,185.86555q-8.09259-2.268-16.18545-4.53511c-1.813-.50715-3.62179-1.032-5.44753-1.48885a1.07368,1.07368,0,0,1-.93751-1.10793q-.62755-7.56469-1.30048-15.12556c-.0637-.71131.23871-.83873.85919-.834,2.93154.02236,5.86369.03363,8.79484-.00612.71951-.00975.93124.26893,1.00027.92142.22438,2.12075.51936,4.23418.73175,6.356a1.13935,1.13935,0,0,0,1.03285,1.15174q4.88214,1.16692,9.74033,2.4328a2.64113,2.64113,0,0,0,1.71028-.09969,2.59626,2.59626,0,0,1,1.59542-.64629c2.7246-.46,5.42117-1.07505,8.14963-1.50712a1.67532,1.67532,0,0,0,1.61234-1.71522c.30816-3.4984.69262-6.98936,1.05462-10.48256.15164-1.4632.004-1.5763-1.469-1.58025-3.05607-.00821-6.11219.00518-9.16823-.00838-.61634-.00274-1.27338.09889-1.77086-.4257q-7.48389-.03233-14.96776-.06305c-2.76819-.00884-5.537-.03207-8.30433.01684-.82508.01459-1.17961-.204-1.28529-1.06336q-.49041-3.98831-1.13475-7.95687c-.14368-.87545.12557-1.24612.91981-1.58636,7.50961-3.21708,15.00063-6.4775,22.49614-9.72743a3.26436,3.26436,0,0,0,1.09837-.70347c-.42326-.0189-.84653-.05425-1.26979-.05426-7.54968-.00007-15.0994-.00943-22.64893.025-.92048.0042-1.2841-.18753-1.38741-1.20722-.31628-3.1218-.78961-6.2277-1.20189-9.33979a1.84239,1.84239,0,0,1,.98411-.10894c.587-.01285,1.17452-.00979,1.76169-.00271,16.26593.1963,32.527-.44842,48.79287-.28138,2.94.03019,2.96706.03046,2.96673,2.923q-.00036,3.33223-.00144,6.66449a1.88306,1.88306,0,0,1-1.21693,1.97925q-11.05059,4.55568-22.13223,9.03511c-.13725.05556-.292.05944-.46358.13217a5.87406,5.87406,0,0,1,1.39473-.10725q8.99768.0002,17.99537.0025c2.20983.00256,2.56945.31615,2.37936,2.45925-.54762,6.17418-1.06439,12.35106-1.61933,18.52463-.30371,3.37863-.6154,6.75728-.86483,10.14049-.1661,2.25319-.42031,2.57512-2.57038,3.25848-5.83545,1.85467-11.69327,3.63761-17.53439,5.474A2.98884,2.98884,0,0,1,303.00164,185.86555Z" transform="translate(-259.98875 -84.26009)"/><path class="cls-4" d="M303.00164,185.86555c6.75876-2.10418,13.5114-4.22841,20.28287-6.29085a1.83574,1.83574,0,0,0,1.563-1.854q1.24122-15.14954,2.60481-30.28893c.09342-1.04212-.12011-1.35628-1.21707-1.34853-7.04413.04976-14.08877.02541-21.21294-.14339.4221-.18666.83985-.3839,1.26692-.55841,7.2125-2.947,14.41658-5.91512,21.64931-8.81173,1.15624-.46306,1.697-.9766,1.62038-2.33222-.14176-2.50613-.08719-5.02727-.01756-7.53948.02765-.9977-.2763-1.25762-1.262-1.25507q-19.31053.04993-38.62131.02732c-4.78.0023-9.56.02261-14.33987.03458.42108-.42014.95455-.23355,1.43541-.23424,8.30028-.012,16.60064-.02417,24.90079.0115,1.01051.00434,1.40155-.23,1.368-1.31387-.07647-2.46908.01493-4.943-.04234-7.41315-.02446-1.05558.3664-1.3704,1.39427-1.36784q16.349.04062,32.698-.00325c.98065-.00286,1.25626.34359,1.16821,1.24484-.25476,2.60688-.48522,5.21619-.71356,7.82557-.19228,2.19751-.35778,4.39737-.55378,6.59454-.314,3.52035-.651,7.03866-.96365,10.55913-.19514,2.19722-.353,4.39775-.54625,6.59515-.317,3.60392-.65929,7.20563-.97125,10.81-.1974,2.28083-.34077,4.56634-.54106,6.84688-.30557,3.4792-.65011,6.955-.95754,10.434-.20154,2.28046-.405,4.562-.53306,6.84719-.07,1.24863-.35323,2.47335-.30421,3.73832.026.67189-.41686,1.103-1.12945,1.3056q-10.3575,2.94434-20.70188,5.93481c-2.00578.57711-4.01337,1.14937-6.00784,1.7637-.9868.30394-1.3535.045-1.33542-1.02192C303.03124,191.73045,303.00053,188.79773,303.00164,185.86555Z" transform="translate(-259.98875 -84.26009)"/><path class="cls-4" d="M303.00413,157.1647c4.06437-.01992,8.12881-.0322,12.193-.068.60738-.00534.78458.1783.71842.80412q-.67988,6.43126-1.28668,12.87013c-.04957.52043-.26372.70435-.75677.79152-3.62662.64117-7.24861,1.30862-10.872,1.96779Q303.00219,165.34745,303.00413,157.1647Z" transform="translate(-259.98875 -84.26009)"/></svg>