<svg id="Layer_1" data-name="Layer 1" xmlns="http://www.w3.org/2000/svg" viewBox="0 0 275.06885 117.28039"><defs><style>.cls-1{fill:#f3f2f2;}.cls-2{fill:#9acd51;}.cls-3{fill:#658733;}.cls-4{fill:#a1a1a1;}.cls-5{fill:#72993b;}.cls-6{fill:#fff;}.cls-7{fill:#b7c4a3;}.cls-8{fill:#c6d4c2;}.cls-9{fill:#97cc3f;}.cls-10{fill:#96cc3f;}</style></defs><path d="M326.90142,201.4943a9.23039,9.23039,0,0,1-1.43287,4.23222,13.99035,13.99035,0,0,1-2.00666,2.63247,1.49379,1.49379,0,0,0-.33386.5629,12.71286,12.71286,0,0,1-2.67539,4.6189,2.88813,2.88813,0,0,1-2.78224.89477,11.47379,11.47379,0,0,1-2.5246-.74922,1.25916,1.25916,0,0,0-.46781-.1617c.14231.70584.28809,1.39055.41771,2.0783a42.14814,42.14814,0,0,1,.80961,9.89527,17.13235,17.13235,0,0,1-1.03121,5.35556,9.42181,9.42181,0,0,1-1.0958,2.07576.793.793,0,0,0-.15256.62411,8.32322,8.32322,0,0,1-.55045,4.66344,14.89131,14.89131,0,0,0-.80973,2.7028c-.02814.124-.05149.2491-.08154.39554.17334.08126.34315-.003.50731-.00453.52685-.00484.76564.19517.8149.726a5.29508,5.29508,0,0,1-.13377,1.47987c-.30471,1.604-.62412,3.20515-.92547,4.80973a25.99971,25.99971,0,0,0-.42832,4.39623c-.03081,1.93992-.0629,3.87878.03709,5.81843a1.50822,1.50822,0,0,0,.71568,1.32917,52.86419,52.86419,0,0,0,6.72567,3.985c1.10576.46675,2.23145.87945,3.34557,1.323.44535.1773.88474.3713,1.31839.57567a2.77751,2.77751,0,0,1,.86149.60265,1.33557,1.33557,0,0,1,.04416,1.94,3.33992,3.33992,0,0,1-1.40315.89482,8.22272,8.22272,0,0,1-2.44046.48751,19.91528,19.91528,0,0,1-3.40762-.1326c-1.54505-.1676-3.08768-.36534-4.63612-.4914-1.23022-.10015-2.46783-.02111-3.70213-.01626-1.76345.00693-3.52712.03119-5.2874-.11056a17.22119,17.22119,0,0,1-2.32342-.35693,3.08481,3.08481,0,0,1-2.36619-3.46294,4.9232,4.9232,0,0,1,.31349-1.35174,28.82607,28.82607,0,0,0,1.11062-3.52334,10.79911,10.79911,0,0,0,.04792-4.71635,24.65157,24.65157,0,0,0-1.45116-4.71908,18.039,18.039,0,0,1-1.17352-4.098,19.21347,19.21347,0,0,1-.33677-4.496,3.36814,3.36814,0,0,1,.04637-.42965.8806.8806,0,0,1,1.30469-.73078c.05786.02108.11363.04792.15918.06733.14935-.05964.12957-.19194.164-.29146a7.212,7.212,0,0,1,1.63864-2.57531,13.08452,13.08452,0,0,1,1.67267-1.51644.72839.72839,0,0,0,.31428-.68577,8.52742,8.52742,0,0,0-.30467-2.03906c-.33769-1.214-.7093-2.41859-1.06558-3.6231-.17069.008-.18741.14431-.24072.23157a15.41248,15.41248,0,0,1-4.93474,5.10309.45519.45519,0,0,0-.26792.36194,4.28173,4.28173,0,0,1-1.15156,2.48472,1.2244,1.2244,0,0,0-.32524.94518,18.88018,18.88018,0,0,1-.74122,6.41139,11.50958,11.50958,0,0,1-1.05559,2.41595,23.93476,23.93476,0,0,0-1.55551,3.34865,22.91188,22.91188,0,0,0-.93917,2.36332,14.06958,14.06958,0,0,0-.41738,3.08905c-.04.81624.02815,1.63629-.07848,2.44883a3.4287,3.4287,0,0,1-.36912,1.38093.5982.5982,0,0,0,.00192.50834,9.879,9.879,0,0,1,.30448,1.40645,1.87573,1.87573,0,0,1-.02753.71617,3.60312,3.60312,0,0,0,.046,1.85209c.14449.62353.322,1.23946.46431,1.86345a8.33978,8.33978,0,0,1,.27159,2.90119,1.53165,1.53165,0,0,1-1.00177,1.30015,7.295,7.295,0,0,1-1.76732.42909,18.11132,18.11132,0,0,1-2.387.25594,10.53838,10.53838,0,0,1-5.04783-1.16257c-1.86153-.95946-2.306-2.337-1.885-4.34116a6.43552,6.43552,0,0,1,1.05784-2.29952,6.68206,6.68206,0,0,0,1.07655-2.443,5.593,5.593,0,0,1,.64187-1.70086,3.56651,3.56651,0,0,0,.4518-1.64886c.16166-2.89922.10739-5.80234.1639-8.7034.035-1.7953.03776-3.59158.19972-5.38143a16.77857,16.77857,0,0,1,.77375-3.65032,13.60438,13.60438,0,0,1,.96117-2.48138c-.07707-.15761-.2221-.16514-.33185-.21982a5.61,5.61,0,0,1-1.86547-1.56015c-.44189-.54954-.87613-1.10582-1.33409-1.64173a12.49245,12.49245,0,0,0-7.03632-4.13226,31.97874,31.97874,0,0,0-6.39522-.66636,23.82862,23.82862,0,0,1-7.14742-1.0624,14.72422,14.72422,0,0,1-7.37757-5.04486,13.95762,13.95762,0,0,1-2.557-5.79316c-.2695-1.33587-.37647-2.69615-.58094-4.042a25.01582,25.01582,0,0,0-1.82146-6.84478,10.63936,10.63936,0,0,0-2.10665-3.07781c-.294-.29551-.30047-.3-.63321-.08457q-1.99593,1.29206-4.08861,2.41987a39.771,39.771,0,0,0-4.7421,3.18634c-2.34169,1.74182-4.6207,3.56164-6.79333,5.51207a19.29686,19.29686,0,0,0-1.94067,1.93244,1.74477,1.74477,0,0,1-.62748.51271.49282.49282,0,0,1-.69821-.21042,1.92365,1.92365,0,0,1-.22754-.82691,11.86035,11.86035,0,0,1,.35376-3.52527,28.70511,28.70511,0,0,1,4.5172-10.10974,41.33279,41.33279,0,0,1,8.06646-8.72885,43.11179,43.11179,0,0,1,4.85041-3.28614c3.68-2.24021,7.47217-4.27845,11.29836-6.255,1.52385-.78721,3.12646-1.39166,4.714-2.02948,3.69623-1.485,7.4424-2.83465,11.22708-4.07586,2.81238-.92233,5.64574-1.77584,8.51988-2.48755a1.81458,1.81458,0,0,0,.71484-.36654,6.153,6.153,0,0,1,3.22993-1.35418,2.25366,2.25366,0,0,1,.90754.04638.77584.77584,0,0,0,.63166-.09565,18.2784,18.2784,0,0,0,1.58944-.99,1.7492,1.7492,0,0,1,1.33256-.23848,4.34553,4.34553,0,0,1,1.22437.40731.435.435,0,0,0,.52069-.05406c.3373-.24406.6852-.47342,1.02708-.71121a1.99687,1.99687,0,0,1,2.03775-.29693.967.967,0,0,0,.69874.03274c.44068-.14308.8925-.25159,1.33838-.37906a.57371.57371,0,0,0,.43845-.50083c.21958-1.1332.3781-2.27534.49885-3.42137a5.87994,5.87994,0,0,0-.20849-1.51775,28.45625,28.45625,0,0,1-.18661-7.66587,18.05962,18.05962,0,0,1,.31171-1.84426,1.74028,1.74028,0,0,1,.78346-1.10558,7.33437,7.33437,0,0,1,2.63921-.975,9.60578,9.60578,0,0,1,1.57008-.21134c.10592-.00475.22877.02666.30919-.08342h2.30888a16.61311,16.61311,0,0,1,2.41582.292,9.327,9.327,0,0,1,1.17925.4099,3.15335,3.15335,0,0,1,2.0107,2.39616,11.8025,11.8025,0,0,1,.20166,1.61922,41.34621,41.34621,0,0,1-.45131,6.993,30.36615,30.36615,0,0,0-.04991,6.03623c.02754.40068-.0047.80214.0343,1.20106.04431.45313.17256.55725.62338.49284a4.36737,4.36737,0,0,1,2.90458.61264,4.41711,4.41711,0,0,0,.5917.32,2.46337,2.46337,0,0,1,1.23827,1.02184.51447.51447,0,0,0,.64132.27285,1.40365,1.40365,0,0,1,1.57577.54591.909.909,0,0,0,.9508.3887,1.3064,1.3064,0,0,1,1.31646.54606,8.6169,8.6169,0,0,0,2.5,2.08977,7.20563,7.20563,0,0,1,3.23491,6.16857,7.29114,7.29114,0,0,1-.37044,2.554.8563.8563,0,0,0,.12569.81356,6.67152,6.67152,0,0,1,.90561,5.42843.60052.60052,0,0,0,.22135.629,7.24878,7.24878,0,0,1,1.81614,2.79657,4.6029,4.6029,0,0,1,.19268,1.56442A13.19843,13.19843,0,0,1,326.90142,201.4943Z" transform="translate(-225.8315 -154.91762)"/><path class="cls-1" d="M305.228,216.96094c.05452-.66882.32073-1.29661.41639-2.037a2.71909,2.71909,0,0,0-.52835.81863,17.819,17.819,0,0,0-1.11643,3.164c-.53235,1.94451-1.02048,3.9012-1.5615,5.84322a18.20831,18.20831,0,0,1-2.41975,5.36075,16.505,16.505,0,0,1-4.31628,4.33565.79985.79985,0,0,0-.40124.68822,4.01334,4.01334,0,0,1-1.10222,2.50048c-.24638.274-.50128.54053-.7556.80731a4.70349,4.70349,0,0,0-1.15993,1.96625.45182.45182,0,0,0-.01131.3145,5.76268,5.76268,0,0,1,1.09815-.93354c.09755.1218.055.25024.05749.36805a20.63033,20.63033,0,0,1-2.19775,9.0589c-.39865.87355-.79267,1.74922-1.19277,2.62211a10.051,10.051,0,0,0-.75909,3.59828c-.07424,1.13505-.11087,2.27253-.18036,3.40794-.0262.42781-.047.42707-.4692.48687a10.22917,10.22917,0,0,1-3.89875-.354c-.32551-.07977-.64079-.20043-.96349-.29282a.3507.3507,0,0,1-.29022-.45071c.09875-.82674.16559-1.65734.241-2.4868.13491-1.48486.1765-2.97523.25013-4.46349a41.78955,41.78955,0,0,1,1.17211-8.79323,16.95153,16.95153,0,0,1,.87172-2.97825,14.39225,14.39225,0,0,1,1.63511-2.65277q1.08961-1.40571,2.21242-2.78553a.55586.55586,0,0,0,.11568-.60187,22.84444,22.84444,0,0,1-.93047-8.83021,50.10354,50.10354,0,0,1,2.06835-10.43729,1.73224,1.73224,0,0,1,.8868-1.19359,11.10546,11.10546,0,0,0,3.16854-2.6189,8.51147,8.51147,0,0,1,.8219-.80839,1.20829,1.20829,0,0,0,.39816-1.65544.61742.61742,0,0,1-.01495-.51033,20.22005,20.22005,0,0,0,.56739-2.42665c.04186-.2157.03991-.5152.41288-.43549,1.24639.35034,2.4824.738,3.75715.98262a29.28907,29.28907,0,0,0,5.78295.48492,44.12911,44.12911,0,0,0,4.98567-.2983c.10894-.01329.21972-.01151.33984-.01723a19.00861,19.00861,0,0,0,.75872,5.92559c.4988,2.07248.87355,4.16344,1.19143,6.267a48.73262,48.73262,0,0,1,.582,5.92538,19.77534,19.77534,0,0,1-.54731,5.67094,9.618,9.618,0,0,1-1.84063,3.71335.46692.46692,0,0,0-.1623.42278,11.17478,11.17478,0,0,1-.72236,6.30514,7.921,7.921,0,0,0-.40793,1.2788.48.48,0,0,1-.49535.4508c-.973.08891-1.94256.21594-2.921.23873-.99124.06984-1.9838.01107-2.97554.031-.2694.00541-.29332-.14158-.2133-.34277a4.7628,4.7628,0,0,1,.35926-.67907c.60135-1.00318,1.20231-2.0065,1.8535-2.97883a2.701,2.701,0,0,0,.44744-2.09738c-.7296-3.84254-1.18-7.72545-1.61043-11.6096-.16029-1.44625-.26508-2.899-.33954-4.35482A14.4018,14.4018,0,0,1,305.228,216.96094Z" transform="translate(-225.8315 -154.91762)"/><path class="cls-2" d="M268.97648,228.59944l-.18962-.00727c-.95044-.06367-1.902-.01052-2.85268-.02805a25.33153,25.33153,0,0,1-3.45781-.37429.98365.98365,0,0,0-.33518.00159,14.06926,14.06926,0,0,1-5.01429-1.8202,10.84664,10.84664,0,0,1-4.29347-4.91464A14.74121,14.74121,0,0,1,251.7389,218.04a3.2531,3.2531,0,0,1,.52737-1.66516,42.93445,42.93445,0,0,1,5.8755-9.10112,100.23225,100.23225,0,0,1,8.07424-8.62284c.89226-.8717,1.82637-1.70274,2.74235-2.55129.1539-.14256.316-.34548.5804-.1921a14.14,14.14,0,0,0,1.38692,2.679,11.23892,11.23892,0,0,0,3.19122,2.874,33.11625,33.11625,0,0,0,3.90962,2.04208,47.9468,47.9468,0,0,1,5.126,2.6133,19.47148,19.47148,0,0,1,1.88687,1.32032.50279.50279,0,0,1,.24023.47637,3.16815,3.16815,0,0,0,.96452,2.51927c.31328.32044.62978.638.95376.94756a.29237.29237,0,0,1,.09614.37214.74234.74234,0,0,0,.33933.9453,4.642,4.642,0,0,0,1.92694.81233.52316.52316,0,0,1,.35825.12612l-.76081,2.17787a10.77967,10.77967,0,0,1-1.86872,1.98826,61.34461,61.34461,0,0,1-6.02642,4.98529,38.80091,38.80091,0,0,1-8.58095,4.87069A13.58715,13.58715,0,0,1,268.97648,228.59944Z" transform="translate(-225.8315 -154.91762)"/><path class="cls-1" d="M279.58424,191.056c.314.27307.62668.54771.94228.81893a12.71815,12.71815,0,0,1,3.54884,5.00956,25.65006,25.65006,0,0,0,2.88274,5.46767c.50412.70488,1.05515,1.37077,1.623,2.02467a.83265.83265,0,0,0,.65217.31129,7.26253,7.26253,0,0,1,2.79446.61406,4.98287,4.98287,0,0,1,1.24675.80228c.4742.43113.93588.87621,1.39723,1.3212a2.87734,2.87734,0,0,1,.30833.36733.86125.86125,0,0,1,.01936,1.10744,10.35542,10.35542,0,0,1-1.84416,2.01393c-.50717.41728-1.0624.77288-1.54714,1.21943a1.24883,1.24883,0,0,1-.93018.31873,3.51857,3.51857,0,0,1-1.49484-.48188.28311.28311,0,0,1-.1878-.30361c.05619-.31722-.15884-.46742-.371-.61332a13.95906,13.95906,0,0,1-1.18088-.90673,2.84921,2.84921,0,0,1-1.04174-2.78553.54651.54651,0,0,0-.26419-.59328,35.166,35.166,0,0,0-4.758-3.07017c-1.76152-.98164-3.55018-1.91655-5.24726-3.01009a13.508,13.508,0,0,1-2.85415-2.33851,5.69621,5.69621,0,0,1-.97391-1.47905,12.92651,12.92651,0,0,1-.87906-2.6866,4.08593,4.08593,0,0,1-.04443-1.24468,2.15813,2.15813,0,0,1,.52624-1.21819,11.17419,11.17419,0,0,0,2.46555-5.08791,8.12744,8.12744,0,0,1,.561-1.73272,3.03479,3.03479,0,0,1,2.56971-1.83057,2.793,2.793,0,0,1,1.77121.49225,5.294,5.294,0,0,1,1.14539,1.01877,1.61948,1.61948,0,0,0,.39107.40031,4.37687,4.37687,0,0,0-1.407-2.22066,3.79231,3.79231,0,0,0-.86543-.60252.56345.56345,0,0,1-.33169-.65888,5.0435,5.0435,0,0,1,1.35644-2.95986,8.0279,8.0279,0,0,1,4.26306-2.35193,15.66783,15.66783,0,0,1,2.5168-.36224,4.81931,4.81931,0,0,1,2.26617.31286,10.93413,10.93413,0,0,0,3.8656.86183,16.28377,16.28377,0,0,0,4.63884-.27483,4.54668,4.54668,0,0,1,2.22171.01422c.60393.156,1.20946.30592,1.81528.45449s1.21246.29355,1.81934.43757a6.35726,6.35726,0,0,0,3.36534-.14789,18.22191,18.22191,0,0,1,3.27-.7535,2.051,2.051,0,0,1,1.53846.385,8.37518,8.37518,0,0,0,1.50694.83974,14.0159,14.0159,0,0,1,3.35981,2.20652,1.98246,1.98246,0,0,1,.314.36073,9.44608,9.44608,0,0,1,1.71664,5.45718,2.0525,2.0525,0,0,1-.20439.92942.9124.9124,0,0,1-.93122.54575,3.232,3.232,0,0,1-1.27113-.40957,17.92076,17.92076,0,0,0-4.66779-1.57545,12.92572,12.92572,0,0,0-2.48661-.21372,32.46808,32.46808,0,0,0-8.69648,1.09581,15.52494,15.52494,0,0,1-2.399.47992,5.18018,5.18018,0,0,1-3.31884-.71065,42.16866,42.16866,0,0,1-3.53661-2.39963c-.12946-.09431-.25548-.19335-.38514-.28736-.30463-.22087-.30654-.221-.49357.09919-.21805.3733-.42625.75257-.65313,1.12037a1.15933,1.15933,0,0,0-.13393.50137,10.76866,10.76866,0,0,1-2.21488,5.54675,5.2751,5.2751,0,0,1-2.1468,1.65317,2.63669,2.63669,0,0,1-2.64663-.24073A8.05619,8.05619,0,0,0,279.58424,191.056Z" transform="translate(-225.8315 -154.91762)"/><path class="cls-2" d="M227.52986,215.01352a2.4654,2.4654,0,0,1,.11087-.93192,28.49118,28.49118,0,0,1,6.74221-13.46092,40.79991,40.79991,0,0,1,8.26923-7.07641,101.759,101.759,0,0,1,14.27234-7.81737,126.92989,126.92989,0,0,1,15.61421-5.78935c1.517-.45775,3.03937-.89758,4.56194-1.33637a.8827.8827,0,0,1,.50962-.0914c-.00229.16809-.11759.26987-.18695.39144a6.30205,6.30205,0,0,0-.86191,2.72473c-.01518.22787-.063.359-.3162.37139a3.20334,3.20334,0,0,0-.51912.09108,4.097,4.097,0,0,0-2.662,1.97712,8.12582,8.12582,0,0,0-.91592,2.16045,25.069,25.069,0,0,1-.87821,2.74344,1.04513,1.04513,0,0,1-.60453.62207c-4.44264,1.9146-8.82431,3.96233-13.17692,6.07272-4.00755,1.94307-7.99077,3.93475-11.89013,6.08815a82.22621,82.22621,0,0,0-15.61494,10.8973c-.76086.689-1.47878,1.42249-2.18619,2.16616C227.7253,214.89149,227.68321,215.01351,227.52986,215.01352Z" transform="translate(-225.8315 -154.91762)"/><path class="cls-1" d="M295.33939,187.905c.38665.10015.77041.21379,1.16057.29761a5.21722,5.21722,0,0,0,2.28239-.13866c1.41939-.324,2.83361-.66779,4.27879-.87136a22.92932,22.92932,0,0,1,10.36194.61156c.62561.20071,1.228.45647,1.83386.70758a.63812.63812,0,0,1,.4349.60645,9.25333,9.25333,0,0,1-.302,3.33138,9.8386,9.8386,0,0,1-.71667,1.82936,19.10309,19.10309,0,0,0-1.88015,5.37184,23.32747,23.32747,0,0,0-.32422,4.59459c.012.51713.01519.527-.52931.579-1.83469.175-3.6707.32553-5.51642.32125a23.785,23.785,0,0,1-3.16631-.14988,16.48419,16.48419,0,0,1-3.80891-1.13011,16.18792,16.18792,0,0,1-2.09768-.94328,2.71079,2.71079,0,0,1-.11531-1.46115,12.8892,12.8892,0,0,0-.64718-5.00924,3.57243,3.57243,0,0,1-.20423-.737l-.00077-.00067c-.05126-.06111-.12523-.10618-.15785-.17907A21.88516,21.88516,0,0,0,293.94,192.0556a2.87639,2.87639,0,0,1,.01744-3.4887A1.34016,1.34016,0,0,1,295.33939,187.905Z" transform="translate(-225.8315 -154.91762)"/><path class="cls-3" d="M269.53876,195.90748a.70922.70922,0,0,0-.493.26451c-2.03154,1.88568-4.04683,3.78822-5.97907,5.77669q-2.24208,2.30731-4.30954,4.77239a58.35888,58.35888,0,0,0-3.79962,5.05988,33.10978,33.10978,0,0,0-2.93826,5.44321c-.11215.264-.18783.54351-.28041.81583a6.89148,6.89148,0,0,1-.274-1.40341c-.21587-1.4527-.31889-2.92068-.5827-4.36731a21.9656,21.9656,0,0,0-2.27892-6.88924,12.5725,12.5725,0,0,0-1.39612-2.00954c-.08033-.09455-.19569-.1669-.21514-.32918.99088-.5419,1.984-1.09443,2.98567-1.631,2.73887-1.46716,5.48546-2.92052,8.26514-4.30853,2.72125-1.35882,5.43844-2.73,8.26252-3.86953.75552-.30484,1.52919-.56468,2.28489-.84165.03762.04308.07587.06855.07242.08555a5.29712,5.29712,0,0,0,.45292,2.851C269.38415,195.52261,269.46409,195.71412,269.53876,195.90748Z" transform="translate(-225.8315 -154.91762)"/><path class="cls-2" d="M310.92489,249.87626a70.8297,70.8297,0,0,0-.1866,7.482c.01174.8477.06709,1.69474.09359,2.54234a1.02735,1.02735,0,0,0,.52044.90409c.93384.59138,1.92121,1.08422,2.88946,1.61216a28.9616,28.9616,0,0,1,3.21024,1.91684,12.55647,12.55647,0,0,0,1.83291.93432,3.95123,3.95123,0,0,1,1.16125,1.177,1.65668,1.65668,0,0,1-.77778,2.28231,9.54846,9.54846,0,0,1-2.19889-.13154c-1.98365-.2497-3.95316-.61054-5.94507-.79323-1.75465-.16093-3.5173-.16347-5.27784-.19786-.17547-.00343-.35067-.0199-.526-.03033a1,1,0,0,1-.32011-.6258,5.53025,5.53025,0,0,1-.10092-2.27724c.06582-.35442-.035-.51049-.43362-.5354a9.92943,9.92943,0,0,1-2.79248-.63462c-.21371-.07825-.492-.12915-.4186-.47406.17771-.42856.36149-.85473.53147-1.28633a4.27976,4.27976,0,0,0,.347-1.44249,24.80642,24.80642,0,0,0-.75786-7.3334,21.9066,21.9066,0,0,0-.96507-2.50858c-.092-.22878.076-.23654.21859-.24217.33523-.01325.67127-.01429,1.00626.00486a29.53091,29.53091,0,0,0,8.39175-.41573A.49785.49785,0,0,1,310.92489,249.87626Z" transform="translate(-225.8315 -154.91762)"/><path class="cls-1" d="M316.86509,194.25358a8.87524,8.87524,0,0,0,.59069-1.82072,7.91391,7.91391,0,0,0,.02186-2.20316c-.0779-.594-.108-.45313.37114-.65514a6.57474,6.57474,0,0,0,1.14476-.60339,1.1457,1.1457,0,0,0,.49685-.72935,7.35652,7.35652,0,0,0-.77057-5.25151,11.07026,11.07026,0,0,0-1.86437-2.55423c-.1-.10371-.19789-.20945-.29508-.31579-.00643-.007.00148-.02719.00633-.08223a5.02011,5.02011,0,0,1,3.84475,1.08186,6.13183,6.13183,0,0,1,2.09686,6.39725,8.91453,8.91453,0,0,1-.47264,1.51071.59826.59826,0,0,0,.09673.68779,6.945,6.945,0,0,1,1.41866,3.11609,5.73661,5.73661,0,0,1-.21108,2.798.95619.95619,0,0,1-.44769.54c-.2888.17191-.58611.32958-.87419.50262a4.1207,4.1207,0,0,0-1.35143,1.302c.149.09233.24274-.03306.33659-.08013a5.97981,5.97981,0,0,1,1.94405-.662,2.11314,2.11314,0,0,1,2.48823,1.4764,5.60037,5.60037,0,0,1,.15,3.31257,12.07237,12.07237,0,0,1-2.83673,5.33022,1.90088,1.90088,0,0,0-.44468.816,10.12887,10.12887,0,0,1-2.34,4.25068,2.55378,2.55378,0,0,1-2.63269.84863,8.847,8.847,0,0,1-2.93628-1.37464.42209.42209,0,0,1-.16622-.32843,17.49266,17.49266,0,0,1-.49052-3.51471c.00086-.14448-.029-.29573.08988-.4068a10.6322,10.6322,0,0,1,1.07714-1.09287,2.48032,2.48032,0,0,1,1.6155-.48558,6.54341,6.54341,0,0,0,2.186-.24686c.12249-.03564.24239-.08091.36192-.12589a.35543.35543,0,0,0,.256-.43919,3.11325,3.11325,0,0,0-.5785-1.4568c-.19306-.2756-.3937-.54593-.59259-.81741a4.218,4.218,0,0,1-.65579-3.3905c.138-.7758.38242-.98981,1.20686-1.09221.23052-.10261.1738-.20667.01928-.34424A6.66314,6.66314,0,0,1,316.898,194.726,1.15484,1.15484,0,0,1,316.86509,194.25358Z" transform="translate(-225.8315 -154.91762)"/><path class="cls-3" d="M268.97648,228.59944a3.34964,3.34964,0,0,1,1.01037-.25829,18.57038,18.57038,0,0,0,3.679-1.214,38.55712,38.55712,0,0,0,6.29408-3.57141q2.23811-1.52942,4.3174-3.26966c.835-.69706,1.641-1.42684,2.45645-2.14606.84221-.7428,1.58376-1.58537,2.424-2.32692-.30272,1.06066-.62241,2.11684-.90431,3.183a39.89709,39.89709,0,0,0-1.02751,5.2686,29.65158,29.65158,0,0,0-.14953,5.08545,19.676,19.676,0,0,0,.5821,3.88451.58831.58831,0,0,1-.09242.57732q-1.14982,1.41932-2.288,2.84808c-.14336.18012-.29454.14323-.46983.07507a4.28153,4.28153,0,0,1-1.841-1.421c-.25542-.32916-.49361-.67191-.75384-.9971a14.10656,14.10656,0,0,0-5.30362-4.19252,17.51942,17.51942,0,0,0-4.22311-1.23307c-.85337-.14481-1.72163-.12155-2.56991-.2887a.63255.63255,0,0,0-.46388-.00351A1.93478,1.93478,0,0,1,268.97648,228.59944Z" transform="translate(-225.8315 -154.91762)"/><path class="cls-1" d="M296.68,162.53754a19.03186,19.03186,0,0,1,.23088-3.3644,4.09744,4.09744,0,0,0,.05429-.5247,1.31409,1.31409,0,0,1,.69353-1.182,5.02962,5.02962,0,0,1,2.02259-.7087,13.18451,13.18451,0,0,1,4.728.08744,5.89852,5.89852,0,0,1,1.70533.62213,1.69169,1.69169,0,0,1,.94274,1.40392,18.21225,18.21225,0,0,1,.044,3.69107c-.0878.81126-.11057,1.62939-.17169,2.44375a34.07875,34.07875,0,0,1-.66952,3.82687,4.24956,4.24956,0,0,1-.80476,1.72543,2.45956,2.45956,0,0,1-1.86881,1.0198,15.60408,15.60408,0,0,1-3.926-.11045,1.9514,1.9514,0,0,1-1.53586-1.07836,8.35373,8.35373,0,0,1-.9484-3.19751,10.0011,10.0011,0,0,0-.20367-1.32777A14.69914,14.69914,0,0,1,296.68,162.53754Z" transform="translate(-225.8315 -154.91762)"/><path class="cls-1" d="M284.24408,262.76845a2.59955,2.59955,0,0,0-.886.158c-.156.03557-.30919.0861-.46655.11277-.36369.06166-.49325-.04412-.45093-.40333A2.61252,2.61252,0,0,1,283.16457,261a2.98958,2.98958,0,0,0,.72531-.82427.22623.22623,0,0,1,.19142-.12059,2.207,2.207,0,0,1,.332-.051,14.086,14.086,0,0,1,3.34578.24252.71265.71265,0,0,1,.669.67127,8.541,8.541,0,0,0,.399,1.28025,1.569,1.569,0,0,1,.09459.70748c-.04728.3178-.13724.36216-.40816.20233-.15-.08847-.2681-.231-.44983-.26495-.01428-.00267-.03089.00706-.06751.01643a3.86684,3.86684,0,0,0,.166,1.06548,21.69816,21.69816,0,0,0,1.35,4.34762c.0327.0728.05688.14961.08254.22537a1.339,1.339,0,0,1-.86215,1.88551,3.55386,3.55386,0,0,1-1.3075.26809,19.334,19.334,0,0,1-4.68237-.38236,4.66852,4.66852,0,0,1-2.282-1.351,1.60972,1.60972,0,0,1-.4147-1.10093,3.01417,3.01417,0,0,1,.62421-2.021,10.18008,10.18008,0,0,1,1.87623-1.78379C283.07811,263.60675,283.6249,263.22093,284.24408,262.76845Z" transform="translate(-225.8315 -154.91762)"/><path class="cls-4" d="M305.228,216.96094a1.29691,1.29691,0,0,1,.02226.18908c-.03567,1.39238.06832,2.77842.15675,4.16668.05893.925.14816,1.84683.23009,2.769.08606.96863.22885,1.9322.34546,2.89815.10709.887.20552,1.7751.32018,2.6611.12692.98079.25259,1.96218.40669,2.93891.19128,1.21245.42683,2.418.61209,3.63129a2.42931,2.42931,0,0,1-.44641,1.67978c-.45335.71632-.91783,1.42572-1.36234,2.14744-.35787.58105-.69318,1.176-1.05694,1.79622a1.30357,1.30357,0,0,0,.56055.06685c.70432-.00378,1.4086-.01679,2.11292-.02212a1.56483,1.56483,0,0,1,.52425.023,1.1065,1.1065,0,0,1-.2286.05931,26.53218,26.53218,0,0,1-6.12463-.35935c-.0785-.015-.15816-.02666-.2346-.049a.14051.14051,0,0,1-.1052-.21491c.63343-1.62084,1.553-2.95064,3.392-3.35.06251-.01358.12628-.02141.18864-.03554.19774-.04479.46924.07657.58209-.10753.0851-.13883.02016-.37285.01353-.5642a16.67817,16.67817,0,0,0-1.48257-6.17263c-.30255-.68852-.56292-1.39547-.85509-2.08872a.75091.75091,0,0,1,.00376-.64172,21.96462,21.96462,0,0,0,1.46775-5.65257c.26994-1.85287.50887-3.71053.87485-5.54824A.40321.40321,0,0,1,305.228,216.96094Z" transform="translate(-225.8315 -154.91762)"/><path class="cls-2" d="M284.262,194.11834a10.05264,10.05264,0,0,0,1.56939-.79283.187.187,0,0,1,.28849.04055c.02941.03777.06593.06992.09787.10582a23.62872,23.62872,0,0,0,5.311,4.32821.903.903,0,0,1,.41649.65264c.3056,1.40882.50664,2.83659.772,4.2527.01174.06268.04277.14851.01473.1878-.34611.48493-.12384,1.08557-.33957,1.61248-.57321-.12968-1.14557-.28154-1.73212-.36135-.333-.04532-.66547-.0992-1-.12775a.54661.54661,0,0,1-.40167-.21955,18.15367,18.15367,0,0,1-3.52707-6.01623A15.27846,15.27846,0,0,0,284.262,194.11834Z" transform="translate(-225.8315 -154.91762)"/><path class="cls-2" d="M285.64644,174.95922a9.96143,9.96143,0,0,1,1.66243-.92076,1.82417,1.82417,0,0,1,1.13265-.00443,5.32875,5.32875,0,0,1,2.01441,1.17921c.10309.08844.17567.21913.36488.26819a4.13455,4.13455,0,0,0-.69736-1.172,8.65577,8.65577,0,0,1,1.14864-.87518,1.82766,1.82766,0,0,1,1.10606-.25212,6.75484,6.75484,0,0,1,3.76019,1.28488c.07467.05874.1618.14271.24421.144.58491.00886,1.0162.42938,1.55613.56192.52753.12949,1.04093.31539,1.56427.46328,1.38605.39167,2.784.7366,4.188,1.05771a2.4238,2.4238,0,0,0,1.13966-.01518,9.446,9.446,0,0,0,2.69228-1.24019,4.30572,4.30572,0,0,1,1.14683-.59518,3.9989,3.9989,0,0,1,3.8555,1.04313,4.67557,4.67557,0,0,1,1.11815,1.43128c.08341.17269.17483.19648.33664.13188a2.25273,2.25273,0,0,1,.28208-.05624,1.27191,1.27191,0,0,1,1.30349.40887c.21071.21843.3356.55559.61383.65852.26809.09917.53343-.15365.81239-.21655a.96291.96291,0,0,1,1.30273.87709c-.06236.09858-.16729.08092-.25861.08826-.67068.05386-1.34231.09715-2.01218.15942a.64622.64622,0,0,1-.51929-.17,10.16956,10.16956,0,0,0-3.49169-1.966,2.86186,2.86186,0,0,1-.68966-.33314,3.17209,3.17209,0,0,0-2.577-.38563c-.79558.184-1.59241.35874-2.36748.61594a7.413,7.413,0,0,1-4.39825-.03259c-.98712-.27025-1.96323-.58284-2.97094-.778a12.788,12.788,0,0,0-2.5366-.1514c-.22484.0015-.37119.16267-.58057.19426a14.98624,14.98624,0,0,1-5.02009-.00126,6.06766,6.06766,0,0,1-1.68309-.546,7.9665,7.9665,0,0,0-3.1992-.76758q-.14328-.00909-.28619-.02318C285.69436,175.02338,285.68661,175.00578,285.64644,174.95922Z" transform="translate(-225.8315 -154.91762)"/><path class="cls-4" d="M295.33939,187.905a2.20517,2.20517,0,0,0-1.83114,2.15315,2.68461,2.68461,0,0,0,.51558,1.90042c.51575.71249,1.0447,1.416,1.54147,2.14147a5.51828,5.51828,0,0,1,.81738,1.61417,6.862,6.862,0,0,1-2.28736.13485,4.73212,4.73212,0,0,1-2.10269-.882,21.22252,21.22252,0,0,1-3.66077-3.51959c-.16934-.196-.0645-.30263.0418-.44812a7.76955,7.76955,0,0,0,1.33366-3.00408,6.98484,6.98484,0,0,0,.13851-2.14852,1.442,1.442,0,0,1,.46966-1.25393c.171.18661.335.37961.51359.55805a11.70852,11.70852,0,0,0,3.512,2.30588C294.673,187.60791,295.00656,187.75566,295.33939,187.905Z" transform="translate(-225.8315 -154.91762)"/><path class="cls-2" d="M299.19194,245.06281a7.48784,7.48784,0,0,1-.21495-1.90039,2.1556,2.1556,0,0,1,.02667-.38227c.086-.42437.17943-.49857.57246-.32887a8.72743,8.72743,0,0,0,2.84549.60675,36.29316,36.29316,0,0,0,9.15933-.63493,1.96082,1.96082,0,0,1,.23523-.04193c.33522-.01833.4587.10389.35445.43024a12.65479,12.65479,0,0,0-.41012,1.77017c-.10074.24438-.3338.28116-.54707.33762a27.759,27.759,0,0,1-4.0642.67508c-.92224.10236-1.85043.1332-2.77259.16175a18.85065,18.85065,0,0,1-4.715-.40663C299.476,245.30782,299.27965,245.27086,299.19194,245.06281Z" transform="translate(-225.8315 -154.91762)"/><path class="cls-1" d="M307.24693,172.33888a12.35517,12.35517,0,0,1-.00552,1.58467,2.763,2.763,0,0,0,.07738,1.09409.16371.16371,0,0,1-.09192.231,12.63954,12.63954,0,0,1-2.22063,1.1301,1.99337,1.99337,0,0,1-1.043.07288,32.49744,32.49744,0,0,1-5.97113-1.77526,1.2575,1.2575,0,0,1-.6211-.49633,10.74753,10.74753,0,0,0-1.068-1.35983.96122.96122,0,0,1-.24608-.91463c.13033-.65636.17272-1.33018.25479-2.02035.14142.02507.201.13571.26965.23473.355.45134.64689.94885,1.0302,1.38031a6.4718,6.4718,0,0,0,4.748,2.044,9.259,9.259,0,0,0,2.85385-.22566,3.96487,3.96487,0,0,0,1.657-.82164C306.97589,172.40521,307.07923,172.29045,307.24693,172.33888Z" transform="translate(-225.8315 -154.91762)"/><path class="cls-5" d="M299.19194,245.06281a6.51136,6.51136,0,0,0,1.71571.37049,17.93907,17.93907,0,0,0,3.09142.188c.88726-.04253,1.7777-.05269,2.66557-.148.69353-.07443,1.39242-.11878,2.08329-.21948a13.62409,13.62409,0,0,0,3.01258-.67227c-.11041.74362-.195,1.49138-.35748,2.22665a1.35582,1.35582,0,0,0-.61582-.00162,22.79164,22.79164,0,0,1-6.466.59937,34.32008,34.32008,0,0,1-3.912-.29359,2.517,2.517,0,0,0-.76284-.01023A14.05547,14.05547,0,0,1,299.19194,245.06281Z" transform="translate(-225.8315 -154.91762)"/><path class="cls-2" d="M299.64645,247.10216c.04236-.25993.24429-.22748.41041-.19829a34.02393,34.02393,0,0,0,3.42845.30225,25.52991,25.52991,0,0,0,2.82846.0563,21.9218,21.9218,0,0,0,2.56777-.23689c.75748-.11867,1.50678-.2643,2.24688-.45281.27354-.06968.25342.07637.27461.23551a12.94306,12.94306,0,0,1-.21207,1.43011c-.10824.234-.3353.27728-.549.34078a10.28636,10.28636,0,0,1-2.22125.35586,46.17913,46.17913,0,0,1-7.27419.0094,1.65847,1.65847,0,0,1-1.07923-.32772A9.18731,9.18731,0,0,1,299.64645,247.10216Z" transform="translate(-225.8315 -154.91762)"/><path class="cls-6" d="M313.796,205.69646a24.79891,24.79891,0,0,1,.87541-6.52144,1.96445,1.96445,0,0,1,.238-.60724,4.11,4.11,0,0,0,1.52856.71147c-.12044.38937-.27551.73574-.35264,1.10885a2.97725,2.97725,0,0,0,.35071,2.12976,7.25864,7.25864,0,0,0,1.08024,1.34675,3.75628,3.75628,0,0,1,.61818.794c.16543.31664.14314.37094-.19034.47195a4.50928,4.50928,0,0,1-1.57527.07767c-.25586-.01365-.51267-.031-.76589-.06826a1.99389,1.99389,0,0,0-1.529.42908C314.00194,205.6225,313.9416,205.70858,313.796,205.69646Z" transform="translate(-225.8315 -154.91762)"/><path class="cls-5" d="M301.65487,263.02722c.0228.19264.17044.2552.32459.30834a10.7611,10.7611,0,0,0,3.20382.685c.32692.00929.323.01417.27078.36285a6.39822,6.39822,0,0,0,.26655,3.1909,15.83227,15.83227,0,0,1-2.86365-.08554,2.98175,2.98175,0,0,1-1.28361-.48893,1.53831,1.53831,0,0,1-.68679-1.24935,3.9129,3.9129,0,0,1,.25375-1.54636A6.439,6.439,0,0,1,301.65487,263.02722Z" transform="translate(-225.8315 -154.91762)"/><path class="cls-5" d="M300.06727,248.61666a13.90056,13.90056,0,0,0,2.885.3019c1.24556-.00954,2.49311.03652,3.73624-.01992a22.72,22.72,0,0,0,2.79724-.24488,7.74,7.74,0,0,0,1.70522-.41542,15.5445,15.5445,0,0,1-.26608,1.63791c-.57937.10152-1.15941.19938-1.73789.30572-.46994.08638-.94505.12715-1.41793.18684-1.26188.15929-2.52583.03809-3.78715.0881-.99376.0394-1.97754-.11849-2.96875-.12125-.11514-.00032-.18316-.00232-.20276.12076A11.47017,11.47017,0,0,1,300.06727,248.61666Z" transform="translate(-225.8315 -154.91762)"/><path class="cls-4" d="M296.38344,195.71487a3.63144,3.63144,0,0,1,.55054,1.34056,13.38962,13.38962,0,0,1,.44638,2.96065c.05353.97325-.08106,1.93753-.03018,2.90622a15.75346,15.75346,0,0,1-2.22738-1.19454.6465.6465,0,0,1-.32217-.44431c-.21925-1.1595-.40634-2.323-.5333-3.49691a.511.511,0,0,1,.3413-.58766,5.83221,5.83221,0,0,0,1.46117-1.07085A.896.896,0,0,0,296.38344,195.71487Z" transform="translate(-225.8315 -154.91762)"/><path class="cls-4" d="M307.24693,172.33888a4.6359,4.6359,0,0,1-2.92516,1.26573,9.78131,9.78131,0,0,1-4.39175-.39954,5.804,5.804,0,0,1-3.29887-2.90486.87015.87015,0,0,1-.04983-.18023,12.78056,12.78056,0,0,1,1.278,1.227,2.9434,2.9434,0,0,0,2.13936.91578c1.16878.04107,2.33769.03506,3.50606.06784a2.61964,2.61964,0,0,0,1.62225-.487,16.78632,16.78632,0,0,0,1.59916-1.22776.81277.81277,0,0,1,.41383-.28258A18.02243,18.02243,0,0,1,307.24693,172.33888Z" transform="translate(-225.8315 -154.91762)"/><path class="cls-5" d="M319.6684,268.7273a3.43638,3.43638,0,0,0,.60374-.65919,1.51353,1.51353,0,0,0-.20587-1.96629c-.24364-.2929-.56371-.5156-.78135-.83385,1.281.44807,2.58394.83245,3.84691,1.33285a2.45384,2.45384,0,0,1,.54829.29282c.57285.41744.547.88952-.07181,1.22253a2.63777,2.63777,0,0,1-.528.2259A9.83875,9.83875,0,0,1,319.6684,268.7273Z" transform="translate(-225.8315 -154.91762)"/><path class="cls-4" d="M297.35254,204.55582c-.18234.00361-.24932.13213-.26636.27926a22.151,22.151,0,0,1-.699,3.09322,7.95962,7.95962,0,0,0-1.48861-1.61462.72875.72875,0,0,1-.24025-.90756,6.40539,6.40539,0,0,0,.18534-1.27192c.0237-.16921-.01427-.35472.131-.52274A14.2338,14.2338,0,0,0,297.35254,204.55582Z" transform="translate(-225.8315 -154.91762)"/><path class="cls-4" d="M316.86509,194.25358c.2334.56089.32964,1.16468.56338,1.72853a5.34688,5.34688,0,0,0,1.325,2.03256,1.00011,1.00011,0,0,1,.134.13765c.06445.08491.21025.151.15349.27282-.06513.13972-.21075.10511-.33622.06984.074-.1195.02372-.15807-.09919-.18528-.42134-.09328-.84472-.1821-1.25888-.30182a4.13872,4.13872,0,0,1-1.64032-.96554c-.11454-.10463-.18164-.19537-.09758-.36995A19.7902,19.7902,0,0,1,316.86509,194.25358Z" transform="translate(-225.8315 -154.91762)"/><path class="cls-7" d="M262.14119,228.19142c.36557-.16606.71787.03288,1.06619.07467.38934.04672.78813.0972,1.17457.12725.505.03926,1.00757.12169,1.515.1334q.04233.02657.02615.04925c-.01024.01445-.02047.02172-.03084.02172a17.66279,17.66279,0,0,1-2.6198-.21163C262.89269,228.34775,262.51812,228.25788,262.14119,228.19142Z" transform="translate(-225.8315 -154.91762)"/><path class="cls-8" d="M265.89226,228.59771q.00105-.03563.00464-.071c.80907-.00239,1.6181-.00736,2.42711-.00506a.7724.7724,0,0,1,.46267.07054C267.82208,228.63868,266.8572,228.63564,265.89226,228.59771Z" transform="translate(-225.8315 -154.91762)"/><path class="cls-2" d="M269.65286,228.5993a.36523.36523,0,0,1,.46388.00352Z" transform="translate(-225.8315 -154.91762)"/><path class="cls-9" d="M355.42843,218.80085c.494,1.07828,1.57452,1.33888,2.52761,1.65375a18.09536,18.09536,0,0,0,8.48439.51426c1.24923-.1874,1.82624-.74634,1.78337-2.04762-.05987-1.81751-.06994-3.64124.01038-5.45738.06934-1.56777-.65386-2.07093-2.11413-1.99389-1.23127.065-2.46988.00157-3.70495-.02078-.58442-.01056-1.27131.04463-1.6289-.47606-1.50283-2.18831-1.095-4.606-.55714-6.93993.41185-1.78715,2.03415-1.49618,3.38217-1.49768,4.03118-.00447,8.06244-.00689,12.09355.013,2.167.01069,3.06617.70314,3.095,2.84573.08566,6.36688.05531,12.73575.02043,19.10356-.01084,1.98005-1.3608,3.07845-3.02961,3.65243a40.98314,40.98314,0,0,1-17.87849,1.73329,32.25591,32.25591,0,0,1-10.25474-3.3338c-5.4732-4.27652-7.46266-10.19716-8.0142-16.82741-.58279-7.00593-.333-13.88474,3.23126-20.19775,2.94515-5.21642,7.66414-7.84288,13.42473-8.96925a33.85347,33.85347,0,0,1,18.74525,1.57232c3.05917,1.14668,3.63385,2.69951,2.1109,5.56639a23.7319,23.7319,0,0,1-1.46779,2.28638c-.98656,1.432-2.163,1.73-3.86311,1.04408A21.74526,21.74526,0,0,0,359.6,189.71717c-4.22876.77244-6.785,3.57809-7.89287,7.45336a27.361,27.361,0,0,0,.78534,18.12261,4.00823,4.00823,0,0,0,.56573.7864,33.4069,33.4069,0,0,0,2.37176,2.7222Z" transform="translate(-225.8315 -154.91762)"/><path class="cls-10" d="M461.29526,226.091q-7.35532-21.48051-14.70289-42.9688c-.5544-1.61631-1.43674-2.70167-3.35759-2.63919-1.62408.04685-3.2482-.18739-4.86452-.10932-3.50589.1718-3.74013.49974-4.84893,3.85727-1.913,5.77031-3.9119,11.5094-5.89522,17.25625-2.92028,8.44853-5.864,16.88924-8.76083,25.33777-.58562,1.71.00782,2.56889,1.81152,2.88124a29.48582,29.48582,0,0,0,5.05191.21861c2.1629.01563,3.31069-1.0307,3.84946-3.06864.46852-1.81151,1.13221-3.57619,1.71-5.36426a2.12525,2.12525,0,0,1,2.28-1.6866c2.14727.05466,4.29454.01563,6.434.01563,1.81928-.00782,3.65425.125,5.45795-.039,2.23315-.203,3.18573.71053,3.787,2.85,2.01454,7.16015,3.29511,8.019,9.70565,7.2304C461.631,229.52655,462.16978,228.652,461.29526,226.091ZM443.90633,210.451c-2.52991.02345-5.05978.039-7.59746.03122-1.17905,0-1.17123-.64024-.8667-1.56165,1.29615-3.865,2.5455-7.738,3.7948-11.61863.28108-.89015.47629-1.81151.85112-3.28728,1.67874,5.4111,3.15451,10.22878,4.67713,15.02305C445.05412,209.95127,444.92139,210.4432,443.90633,210.451Z" transform="translate(-225.8315 -154.91762)"/><path class="cls-10" d="M500.35212,190.95385a11.28479,11.28479,0,0,0-6.17635-8.27677,19.51466,19.51466,0,0,0-8.79205-2.10042q-7.30857.01172-14.61706-.00782c-3.69328,0-4.23205.53877-4.23205,4.29454v30.97534c0,3.56838.0234,7.1367-.02345,10.70508-.0234,1.85055.695,2.92809,2.608,3.2014a21.102,21.102,0,0,0,5.43455.0234c2.35806-.28108,2.81095-.69489,2.84217-3.053.05466-4.3492.07029-8.6984.00781-13.04759-.01563-1.57724.531-2.20193,2.14727-2.1863a44.66327,44.66327,0,0,0,7.97224-.35138C499.20428,209.16268,502.31981,200.75319,500.35212,190.95385Zm-10.71294,6.72289a4.80917,4.80917,0,0,1-4.34915,4.06811c-2.0692.14831-4.154.09369-6.2232.14054-1.16342.0234-1.63971-.5544-1.61631-1.67879.02345-1.49135.00782-2.98276.00782-4.47411h.00781c0-1.42892-.00781-2.85784,0-4.28672,0-.66373.05467-1.4914.88234-1.4914,3.00615-.00782,6.09824-.72616,8.97166.812C489.2644,191.81274,490.2014,194.63932,489.63918,197.67674Z" transform="translate(-225.8315 -154.91762)"/><path class="cls-10" d="M414.73024,224.6319c-5.18123,5.77134-11.826,6.39467-18.93195,5.3588a19.41442,19.41442,0,0,1-8.86376-3.20793c-2.09818-1.52367-2.37418-2.67616-1.23119-4.99581a12.70135,12.70135,0,0,1,1.10072-1.8275c1.75539-2.424,2.30592-2.5075,5.00461-1.14109,3.34931,1.69583,6.79949,2.917,10.64486,1.86566,1.95572-.5347,3.39071-1.54116,3.7527-3.7074.41674-2.49394-.84771-4.05064-2.78287-5.29636-2.96686-1.90984-6.34657-2.93626-9.49706-4.45508a14.17545,14.17545,0,0,1,3.308-26.68279,23.7796,23.7796,0,0,1,15.57958,1.4971c1.39249.65946,2.737,1.54532,2.5346,3.29669a7.2004,7.2004,0,0,1-3.05011,5.39727c-.83278.55781-1.75975.0113-2.605-.3193a16.20488,16.20488,0,0,0-9.18885-.69007,3.60365,3.60365,0,0,0-3.00383,2.71962,3.74391,3.74391,0,0,0,1.19959,4.03957c2.52259,2.18707,5.70468,3.01056,8.62922,4.36138a38.88539,38.88539,0,0,1,4.65381,2.385c5.26537,3.70429,6.3124,9.69652,5.25515,15.3658A15.82169,15.82169,0,0,1,414.73024,224.6319Z" transform="translate(-225.8315 -154.91762)"/></svg>