<svg id="Layer_1" data-name="Layer 1" xmlns="http://www.w3.org/2000/svg" viewBox="0 0 85.12936 120.242"><defs><style>.cls-1{fill:#eb6431;}.cls-2{fill:#eee;}.cls-3{fill:#f57b35;}.cls-4{fill:#fefefe;}.cls-5{fill:#eb6432;}</style></defs><path class="cls-1" d="M187.36842,107.89731q20.696,0,41.39205-.02c.98074-.00209,1.28737.20134,1.18487,1.2451-.60156,6.12548-1.1349,12.25768-1.68568,18.38811q-1.47807,16.4517-2.949,32.90405-1.06134,11.88627-2.11,23.77367c-.28564,3.21094-.59675,6.41978-.85579,9.63283a1.22331,1.22331,0,0,1-1.05572,1.27221q-16.66558,4.56771-33.31173,9.20593a2.352,2.352,0,0,1-1.33883-.0168q-16.58757-4.61445-33.18648-9.188a1.18339,1.18339,0,0,1-1.02476-1.265q-1.33616-15.45643-2.74572-30.90652-1.70651-18.95344-3.42331-37.90595c-.475-5.29672-.88563-10.59945-1.40129-15.89209-.09827-1.0087.103-1.25868,1.11948-1.25057,5.91277.04718,11.82612.023,17.73928.023Q175.54211,107.89729,187.36842,107.89731Z" transform="translate(-144.83475 -84.14653)"/><path class="cls-2" d="M197.35022,89.98024c1.09023-1.78184,2.077-3.33686,2.99771-4.93a1.33013,1.33013,0,0,1,1.37849-.79852c1.33839.06422,2.6826.04126,4.02325.00806.54627-.01353.71142.16357.70951.70833q-.02571,7.35146.00325,14.703c.00263.60288-.1833.79955-.78394.78134-1.25647-.03809-2.51625-.04641-3.772.00218-.67432.02608-.84508-.21144-.83471-.85826.0362-2.256.014-4.513.014-7.16177l-3.78666,5.795-3.54527-5.4473-.249.00479c0,1.29017.00963,2.58043-.0028,3.87048-.01165,1.20842.41653,2.82128-.19337,3.51831-.69851.7983-2.36339.1104-3.58691.28371-1.30691.18512-1.555-.32322-1.53334-1.5511.07985-4.52262.05891-9.04779.00858-13.57126-.01-.89513.2303-1.14034,1.10607-1.08588,1.501.09335,3.28194-.419,4.43807.22807,1.153.64529,1.68513,2.401,2.485,3.6726C196.57778,88.71107,196.91837,89.277,197.35022,89.98024Z" transform="translate(-144.83475 -84.14653)"/><path class="cls-2" d="M152.71184,92.31751c.00018-2.34715.0402-4.69535-.02105-7.04091-.0221-.84654.24661-1.06733,1.051-1.02279a34.29744,34.29744,0,0,0,3.52175.00136c.68384-.03256.84962.21117.8248.85272-.04694,1.21367.01413,2.43133-.02459,3.64558-.01983.62193.12332.92116.82241.89116,1.13045-.0485,2.26683-.0575,3.39617.00225.71974.03807.81955-.28173.80256-.88237-.03433-1.21451.02189-2.43186-.0228-3.6457-.02337-.63465.12773-.89481.82237-.86407,1.2559.05556,2.51828.0608,3.77351-.00185.70944-.03541.81734.25113.815.86291-.01861,4.82-.02684,9.64019.00815,14.46.00556.76607-.287.90184-.95255.87749-1.1729-.0429-2.35192-.06672-3.52181.00642-.81983.05126-.98425-.262-.94817-1.00321.059-1.21262-.01564-2.43136.02907-3.64521.02264-.61481-.188-.7907-.783-.77038-1.17309.04006-2.349.03165-3.52276.00256-.54747-.01357-.72905.184-.71609.72755.031,1.29858-.01745,2.59922.02186,3.89735.01806.59615-.15992.80525-.77206.78492-1.257-.04175-2.51764-.04683-3.77413.00158-.66211.02551-.85485-.18291-.84465-.84463C152.73428,97.17983,152.71167,94.7485,152.71184,92.31751Z" transform="translate(-144.83475 -84.14653)"/><path class="cls-2" d="M178.38154,84.27048c2.18017,0,4.361.03027,6.54014-.017.72485-.01573.931.2033.89608.91191a30.67425,30.67425,0,0,0,.00411,3.51708c.05421.824-.26881.9476-1.00068.95632-1.23665.01473-2.92828-.57163-3.58611.25507-.62137.78087-.20683,2.39864-.21645,3.64853-.01515,1.96892-.03138,3.93864.01062,5.90678.01527.71572-.09775,1.06651-.9381,1.01222a33.66,33.66,0,0,0-3.64564-.0056c-.684.03015-.82764-.22215-.821-.85613.03072-2.93228-.01844-5.86564.03344-8.79733.01557-.87977-.12-1.26062-1.13545-1.21977-1.18814.04779-2.789.5662-3.46919-.2262-.58717-.684-.17855-2.23258-.18679-3.39911-.0119-1.68667-.00291-1.68674,1.72918-1.68676Q175.48862,84.27043,178.38154,84.27048Z" transform="translate(-144.83475 -84.14653)"/><path class="cls-2" d="M209.18425,92.32c.00032-2.38728.02711-4.775-.01586-7.16156-.013-.725.21614-.93409.92263-.9029,1.21314.05356,2.43264.05973,3.645-.00167.75149-.03806.89655.252.889.93481-.03292,2.97326.01613,5.9476-.03307,8.92042-.0136.82228.21621,1.06324,1.0389,1.03586,1.84218-.06131,3.68872.01471,5.5316-.035.78187-.02111,1.13613.14334,1.07251,1.01758a25.741,25.741,0,0,0-.00357,3.26463c.04245.77645-.132,1.08305-1.00409,1.07088-3.68772-.05148-7.37676-.04131-11.06485-.00544-.75822.00737-1.01468-.1827-.99732-.97613C209.21731,97.09532,209.18393,94.70731,209.18425,92.32Z" transform="translate(-144.83475 -84.14653)"/><path class="cls-3" d="M160.575,125.81805c.36439-.53876.92042-.29768,1.38582-.2986,8.04875-.01578,16.09769-.03458,24.14617.015,1.1346.007,1.42042-.33274,1.38988-1.422-.07511-2.67878.00709-5.36166-.042-8.04165-.01639-.89438.29872-1.13538,1.16016-1.13353q16.22325.03486,32.44653-.009c1.15173-.00435,1.20861.53143,1.12789,1.3879-.33945,3.60182-.649,7.20647-.99513,10.80763-.3062,3.1861-.66323,6.36734-.96557,9.55378-.20837,2.19588-.34495,4.39848-.54351,6.59537-.30688,3.39534-.64878,6.78751-.9575,10.18268-.19976,2.19681-.355,4.39764-.55126,6.59478-.31449,3.52037-.65773,7.03819-.967,10.559-.20035,2.28056-.34586,4.56592-.54447,6.84665-.32478,3.72938-.67994,7.45612-1.00511,11.18548-.06586.75536-.68758.79573-1.17027.932-3.49386.98664-6.99906,1.93308-10.49813,2.90147-5.02662,1.39114-10.0483,2.80025-15.07822,4.17936-1.42617.391-1.43846.35537-1.44039-1.12593q-.00617-4.71243-.00775-9.42485a.299.299,0,0,1,.10026-.38317,28.98952,28.98952,0,0,1,4.79542-1.44915c4.91362-1.3889,9.83135-2.76438,14.7639-4.08577,1.7-.45541,1.71133-.52785,1.89036-2.27574.62162-6.06878,1.11446-12.1493,1.65868-18.22485.328-3.66208.71651-7.31946.974-10.988a1.04678,1.04678,0,0,0-.22888-.93269,2.34934,2.34934,0,0,0-1.57974-.25555q-10.28672-.01-20.57344-.00991a3.006,3.006,0,0,1-1.82878-.26947,1.86294,1.86294,0,0,1-.37-1.287c-.04211-2.98715.00287-5.97466-.02709-8.962a1.26024,1.26024,0,0,1,.173-.71616,2.78614,2.78614,0,0,1,1.82073-.28988q10.927-.01483,21.85413-.00906c.57593-.00039,1.1873.11549,1.65136-.37783a2.15307,2.15307,0,0,0,.38947-1.17779c.1198-2.12985.3826-4.24748.54217-6.37337.136-1.81181.07641-1.85258-1.70329-1.85423-5.48486-.00507-10.96974.00526-16.45458-.00485-2.72094-.005-5.44221.04823-8.16386-.03079-4.65253.11252-9.30472.029-13.95657.04751q-5.34408.02129-10.68832-.00325A2.77246,2.77246,0,0,1,160.575,125.81805Z" transform="translate(-144.83475 -84.14653)"/><path class="cls-2" d="M187.47017,147.14017q11.653.0247,23.306.0608c.4278.00176.91718-.21533,1.29221.19784-.59061.55739-1.33649.40882-2.03034.41027q-10.04907.02091-20.0982.00873c-.46037.00009-.92037.00027-1.38073.03307a.81589.81589,0,0,0-.87656.85723c-.07186,2.55131-.05293,5.103-.01074,7.65448.01523.92107.70231.90866,1.33829.91283,3.14028.02065,6.28065.004,9.421.01035a6.16244,6.16244,0,0,1,1.37667.07579c.34911.0803.78271.102.75106.64306a2.17017,2.17017,0,0,1-1.54312.3747q-5.00449.02143-10.00906.00076a2.18722,2.18722,0,0,1-1.53828-.397q-10.36015-.02908-20.7203-.06546c-1.04066-.005-2.30033.40624-3.06405-.17427-.76446-.58107-.34149-1.89294-.43672-2.87879-.51035-5.28339-.92243-10.57653-1.46137-15.85682-.39357-3.856-.44829-7.7479-1.2121-11.56715a8.04092,8.04092,0,0,1,.00107-1.62256,8.08847,8.08847,0,0,1,.991-.11966q12.57891-.00987,25.15783-.00265a4.62813,4.62813,0,0,1,.4985.05252,2.517,2.517,0,0,1,.41885,1.79107c.01125,1.96892-.00064,3.9379.00565,5.90684.00684,2.13948.06357,2.20358,2.16783,2.20538,7.08524.00605,14.1705-.00306,21.25574.00922a2.69108,2.69108,0,0,1,2.03581.41572c-.38437.49516-.92434.24181-1.38186.24355q-12.24859.04643-24.49734.05134a2.47178,2.47178,0,0,1-1.80064.36487c-3.64864.01519-7.29739-.00371-10.946.01194-1.62213.007-1.74852.17316-1.57641,1.73788.25181,2.28942.41483,4.58767.59936,6.8825.08275,1.0291.49548,1.373,1.4789,1.368q5.28408-.027,10.56853-.0019A2.65578,2.65578,0,0,1,187.47017,147.14017Z" transform="translate(-144.83475 -84.14653)"/><path class="cls-2" d="M187.48651,185.92151a1.33744,1.33744,0,0,1-.02148.18209c-6.92717-1.92552-13.84861-3.872-20.788-5.75254a1.55566,1.55566,0,0,1-1.36956-1.68131c-.3473-4.71023-.78438-9.41451-1.25178-14.11471-.10252-1.031.11081-1.38286,1.2163-1.35068q4.14209.1206,8.28958-.00192c.97743-.02875,1.21134.36817,1.27338,1.1953.15947,2.12621.36612,4.24886.53671,6.3743.041.51138.02479.951.701,1.1274,3.64052.94962,7.26862,1.94676,10.90343,2.91843a1.71917,1.71917,0,0,0,.49448-.01585c.18085-.07035.28711-.00987.32.18111a87.52966,87.52966,0,0,0-.1176,9.48953C187.67746,184.96851,187.8182,185.4725,187.48651,185.92151Z" transform="translate(-144.83475 -84.14653)"/><path class="cls-3" d="M187.71281,174.86928q-.12214-.02987-.24221-.06726-.00112-8.40945-.00221-16.8189c4.34894-.0429,8.69815-.14483,13.04612.05375.467,1.49755.03721,2.98394-.08063,4.46865-.21812,2.7479-.41369,5.49809-.73385,8.23791a1.66371,1.66371,0,0,1-1.31867,1.60192c-3.14314.88-6.30246,1.6996-9.45347,2.55A1.42994,1.42994,0,0,1,187.71281,174.86928Z" transform="translate(-144.83475 -84.14653)"/><path class="cls-4" d="M187.71281,174.86928c3.46091-.94626,6.91616-1.9141,10.38688-2.82294.82441-.21587,1.206-.51306,1.26836-1.465.26437-4.03545.82118-8.049.95738-12.09642a1.40366,1.40366,0,0,1,.18913-.44817c-.29157-.554-.81488-.32074-1.23455-.32293-3.6418-.019-7.284-.03438-10.92546.00568-.87443.00962-1.165-.25769-1.14886-1.14175.04876-2.67617.06024-5.35482-.00442-8.03033-.0242-1.00146.38-1.16323,1.25766-1.16035,7.86976.02592,15.73964.01317,23.60947.01175-.25365,3.20467-.48476,6.41133-.76547,9.61366-.63879,7.2871-1.31451,14.571-1.9366,21.85948-.06572.76995-.25962,1.17872-1.0653,1.39752-6.73841,1.83008-13.46434,3.70594-20.1953,5.56344a4.76975,4.76975,0,0,1-.61923.08855c-.54517-3.359-.13157-6.74309-.27106-10.11245A1.09739,1.09739,0,0,1,187.71281,174.86928Z" transform="translate(-144.83475 -84.14653)"/><path class="cls-4" d="M213.10606,136.07652q-12.12819.0017-24.25636.00245c-1.49585-.00016-1.62039-.1234-1.62443-1.66524-.00757-2.88844-.0028-5.77691-.00313-8.6654,2.59079-.02281,5.18151-.061,7.77229-.06525,5.97964-.0098,11.9594.0148,17.93883-.02161.94663-.00577,1.18853.19925,1.06748,1.19669C213.62893,129.922,213.39412,133.0025,213.10606,136.07652Z" transform="translate(-144.83475 -84.14653)"/><path class="cls-5" d="M187.47017,147.14017c-4.47843.02159-8.95691.03682-13.43522.07271-.56971.00456-.82395-.18126-.8716-.7717q-.37305-4.623-.8026-9.24134c-.05911-.638.11219-.88972.80057-.88414,4.68834.038,9.377.04124,14.06553.0557a2.39639,2.39639,0,0,1,.24544,1.44408Q187.47142,142.47783,187.47017,147.14017Z" transform="translate(-144.83475 -84.14653)"/></svg>