<svg id="Layer_1" data-name="Layer 1" xmlns="http://www.w3.org/2000/svg" viewBox="0 0 1697.12604 1175.83867">
  <defs>
    <style>
      .cls-1 {
      fill: #fedbb4;
      }

      .cls-2 {
      fill: #640101;
      }

      .cls-3 {
      fill: #cfb1b1;
      }

      .cls-4 {
      fill: #630202;
      }

      .cls-5 {
      fill: #650403;
      }

      .cls-6 {
      fill: #d0b2b2;
      }

      .cls-7 {
      fill: #711211;
      }

      .cls-8 {
      fill: #6d100d;
      }

      .cls-9 {
      fill: #fbf8f8;
      }

      .cls-10 {
      fill: #e4e4e4;
      }

      .cls-11 {
      fill: #ad7c5b;
      }

      .cls-12 {
      fill: #707070;
      }

      .cls-13 {
      fill: #d77c41;
      }

      .cls-14 {
      fill: #975740;
      }

      .cls-15 {
      fill: #fbf2ce;
      }

      .cls-16 {
      fill: #ba9b9b;
      }

      .cls-17 {
      fill: #f7f7f7;
      }

      .cls-18 {
      fill: #6c4e4e;
      }

      .cls-19 {
      fill: #f0efef;
      }

      .cls-20 {
      fill: #c6b2b2;
      }

      .cls-21 {
      fill: #cbacac;
      }

      .cls-22 {
      fill: #01b1f0;
      }

      .cls-23 {
      fill: #f5f5f5;
      }

      .cls-24 {
      fill: #cda98f;
      }

      .cls-25 {
      fill: #e9b795;
      }

      .cls-26 {
      fill: #fcd3b0;
      }

      .cls-27 {
      fill: #d5bcab;
      }

      .cls-28 {
      fill: #138ec1;
      }

      .cls-29 {
      fill: #efeded;
      }

      .cls-30 {
      fill: #6f6c6c;
      }

      .cls-31 {
      fill: #7dddf9;
      }

      .cls-32 {
      fill: #dabca1;
      }

      .cls-33 {
      fill: #f9efcc;
      }

      .cls-34 {
      fill: #eae4e4;
      }

      .cls-35 {
      fill: #ebe6e6;
      }

      .cls-36 {
      fill: #afaaaa;
      }

      .cls-37 {
      fill: #6d4e4e;
      }

      .cls-38 {
      fill: #b17f73;
      }

      .cls-39 {
      fill: #efecec;
      }

      .cls-40 {
      fill: #caa48b;
      }

      .cls-41 {
      fill: #b3afaf;
      }

      .cls-42 {
      fill: #c9a38a;
      }

      .cls-43 {
      fill: #f2994f;
      }

      .cls-44 {
      fill: #f8efcc;
      }

      .cls-45 {
      fill: #6c4b4b;
      }

      .cls-46 {
      fill: #f3bf97;
      }

      .cls-47 {
      fill: #f3e7c5;
      }

      .cls-48 {
      fill: #f7eecb;
      }

      .cls-49 {
      fill: #bb5f33;
      }

      .cls-50 {
      fill: #94513b;
      }

      .cls-51 {
      fill: #c19f9f;
      }

      .cls-52 {
      fill: #6cbedf;
      }

      .cls-53 {
      fill: #d69978;
      }

      .cls-54 {
      fill: #a9a2a2;
      }

      .cls-55 {
      fill: #f7edca;
      }

      .cls-56 {
      fill: #7ce5fe;
      }

      .cls-57 {
      fill: #af7b70;
      }

      .cls-58 {
      fill: #cdafaf;
      }

      .cls-59 {
      fill: #06adea;
      }

      .cls-60 {
      fill: #eae0e0;
      }

      .cls-61 {
      fill: #6ac4e7;
      }

      .cls-62 {
      fill: #00aeed;
      }

      .cls-63 {
      fill: #5084a3;
      }

      .cls-64 {
      fill: #f2eded;
      }

      .cls-65 {
      fill: #fefefe;
      }

      .cls-66 {
      fill: #ceb0b0;
      }

      .cls-67 {
      fill: #cfb2b2;
      }

      .cls-68 {
      fill: #faf8f8;
      }

      .cls-69 {
      fill: #660505;
      }

      .cls-70 {
      fill: #cab8b8;
      }

      .cls-71 {
      fill: #ccbcbc;
      }

      .cls-72 {
      fill: #f39c53;
      }

      .cls-73 {
      fill: #670706;
      }

      .cls-74 {
      fill: #dfdfdf;
      }

      .cls-75 {
      fill: #650505;
      }

      .cls-76 {
      fill: #670606;
      }

      .cls-77 {
      fill: #761e1e;
      }

      .cls-78 {
      fill: #670808;
      }

      .cls-79 {
      fill: #640808;
      }

      .cls-80 {
      fill: #dcdada;
      }

      .cls-81 {
      fill: #c0a8a8;
      }

      .cls-82 {
      fill: #630101;
      }

      .cls-83 {
      fill: #fd0619;
      }

      .cls-84 {
      fill: #de0513;
      }

      .cls-85 {
      fill: #fc808a;
      }

      .cls-86 {
      fill: #630505;
      }

      .cls-87 {
      fill: #fc2a39;
      }

      .cls-88 {
      fill: #e96770;
      }

      .cls-89 {
      fill: #f6f5f5;
      }

      .cls-90 {
      fill: #f47a83;
      }

      .cls-91 {
      fill: #64e5fb;
      }

      .cls-92 {
      fill: #63e3f6;
      }

      .cls-93 {
      fill: #07d5f6;
      }

      .cls-94 {
      fill: #0ccbea;
      }

      .cls-95 {
      fill: #12bed9;
      }

      @keyframes fadeMe {
      from {
      opacity: 0;
      }
      to {
      opacity: 1;
      }
      }
    </style>
  </defs>
  <g>
    <path class="cls-1" d="M1496.12811,590.18414c29.60293-2.11109,36.69869-29.71525,51.12552-47.48058,48.68088-59.946,106.42446-108.597,172.82608-147.39138,72.79511-42.52964,151.25077-67.72554,234.93891-78.23346,113.88625-14.2996,222.70491,2.96411,327.45082,48.73854,59.67268,26.07721,113.22,61.31714,161.74776,104.83594,95.63542,85.764,158.15073,191.11164,189.70775,315.16346,16.04721,63.082,19.89652,127.49164,15.82154,192.01768a554.53471,554.53471,0,0,1-24.93778,134.6008c-1.20454,3.756-1.22383,7.89159-1.79365,11.85082-5.26952,5.11124-11.62268,2.38323-17.34149,1.87225-40.47542-3.61648-74.929,8.35727-102.34053,38.79582-7.54037,8.373-13.63875,7.296-18.9664-1.95108-4.794-8.32041-9.08009-16.92131-15.23966-24.41309-5.93521-7.21869-10.88959-9.50817-17.72691-.24789-10.987,14.88083-17.61547,14.7667-31.59514,1.28689-11.64178-11.22582-14.92572-10.72985-20.91174,4.37062-5.98509,15.09834-15.15362,28.54554-21.45088,43.51188-9.20886,21.88627-11.79207,43.88325-3.67121,66.41908,3.34477,9.28187,1.12972,14.62748-7.45,19.815-30.02019,18.15067-34.88038,40.024-16.86364,71.37368,5.76767,10.03582,4.34691,13.709-7.46528,14.26638-23.24786,1.09717-46.545.66272-69.82111.17091-2.02451-.04279-4.23065-.09837-5.93419-1.091-15.74032-9.1707-10.48331-25.8821-13.72461-39.43945-2.08608-8.72522,3.046-13.936,11.18516-17.17513,23.3951-9.31,33.60936-26.30942,33.35031-51.95344-.78167-77.361-.23957-154.735-.301-232.104-.02976-37.5332-16.59079-54.54969-54.36933-55.4471-22.76547-.5408-45.5493.03521-68.32229-.22088-6.4303-.07231-14.93055,1.69128-18.03574-4.81412-3.45769-7.244,3.56311-12.97338,7.94971-18.32524,6.72254-8.20188,13.97-15.7421,22.773-22.05909,31.43159-22.55529,37.0932-51.44029,16.80848-84.42177-4.70322-7.64722-7.18481-15.449-7.01848-24.31035.53292-28.3877,1.05092-56.74719-13.36711-82.79357-2.18528-3.94789-1.65736-8.88775-1.94932-13.42873-.32589-5.06946.07251-11.16514-3.48977-14.4882-11.09013-10.345-16.11275-22.672-15.574-37.59675a7.86024,7.86024,0,0,0-1.5143-4.24111c-5.13406-8.12573-38.2779-22.55474-47.66644-19.69907-9.84118,2.99351-18.60047,1.75057-27.968-1.83047-72.77769-27.82165-138.89153-15.00117-195.76813,36.97512-34.80361,31.805-53.8046,73.155-54.58924,121.16669-.28547,17.46549-2.24082,33.322-11.58569,49.09672-15.48656,26.142-6.29925,57.61031,20.30177,73.741a77.74641,77.74641,0,0,1,27.29652,27.65268c8.71859,14.70149,6.88906,18.77475-9.9222,19.25984-22.25666.64205-44.53427.15035-66.8028.20287-7.60694.018-15.16252.32862-22.61806,2.09458-25.09024,5.943-37.0167,20.39878-37.0804,46.22423-.18325,74.33449-.05748,148.66963-.06726,223.00449-.00056,4.04539.00811,8.09086-.00283,12.13624-.07658,28.30516-.6904,29.33563-28.73772,29.04429-16.84524-.17489-31.163,3.8905-40.50815,18.79152-6.21326,9.907-7.0113,20.43431-4.04022,32.02076,5.67366,22.12592-3.89563,34.3773-26.38273,34.2037-19.18665-.14812-38.44478,1.74775-57.57339-1.34376-10.24161-6.87409-21.23245-13.25231-19.81234-28.30025,8.60548-6.09873,19.41218-7.93912,27.4419-15.61478,23.92816-22.87229,21.89507-55.57382-6.16968-73.20073-11.37755-7.146-19.89091-14.1517-20.96612-28.79557-.75651-10.30289-9.70734-13.266-19.04633-13.49093-18.18418-.43788-36.37726.08226-54.55935-.281-6.32238-.12636-13.36112,1.56581-18.22589-4.65613-2.75024-10.02193-4.78212-20.45488-15.01492-26.19511,11.36544-9.66232,21.39056-1.58517,34.2921,5.46233-6.23184-13.88009-15.86812-14.77884-24.9698-16.435-8.55263-1.55637-21.00367.22788-19.90964-12.73716.98518-11.67547,12.86056-10.95254,21.75822-11.20988,19.1771-.5548,38.37233-.12654,57.55991-.21223,6.57086-.02937,13.18145.03011,19.44041-2.35414,7.448-2.83723,14.07484-7.172,14.09311-15.907.01789-8.55181-5.92311-14.58-13.59787-16.3013-20.58-4.61537-41.33618-2.28717-62.058-.20565,5.53348,5.54486,12.14476,4.22416,18.39265,4.37572,10.09377.24492,20.20335-.22048,30.29184.23334,8.23254.37045,18.45815,1.10255,18.59667,11.18812.15182,11.05573-10.4727,11.93994-19.17,12.19274-26.238.76266-52.50549-.54322-78.73941.98378a7.11009,7.11009,0,0,1-5.40688-2.27049c-2.69048-5.74227-6.429-11.1366-5.96015-17.92741,4.50736-6.49475,6.1676-11.44787-4.98548-11.534-5.57685-.04307-11.95041,1.50153-16.12077-4.32847,13.08363-1.0277,14.99823-8.08706,11.77336-19.55965-17.45064-62.08163-17.75787-125.84978-14.26367-189.25465,3.33514-60.51841,18.19224-119.27027,40.62418-175.767,3.31138-8.34009,3.93957-16.45605,4.43786-25.041.92757-15.98152-2.93478-32.187,2.1984-47.962,6.476,5.3376,4.97863,12.86884,5.031,19.72084.247,32.35026-.11918,64.70455.17723,97.05416.3016,32.91848,15.69391,48.31557,48.45187,48.53882,34.40183.2345,68.812.41366,103.20638-.11357,14.21929-.21793,25.35416,4.261,34.9972,14.6082,9.98706,10.71642,20.31564,21.17447,31.24727,30.95457,8.14181,7.2841,17.27771,13.21706,28.82089,8.78632,12.48052-4.79054,17.43133-15.48667,17.18712-27.81906-.30767-15.53608,4.61463-26.8499,18.29771-35.43089,10.82705-6.78974,15.39936-18.41056,15.47084-31.379.22572-40.94431.63792-81.8971-.14959-122.83006-.47864-24.87658-17.219-39.98208-43.73062-40.12411-66.27526-.35507-132.5531-.01823-198.82919-.23059C1511.20125,594.99293,1502.63036,597.06284,1496.12811,590.18414Z" transform="translate(-1211.65496 -312.18387)"/>
    <path class="cls-2" d="M1575.0554,1355.73008c21.74367.21537,43.487.50375,65.23115.61769,12.4357.06512,22.37575-15.31,17.76529-27.22438-10.70031-27.6518,7.36607-56.23024,37.05013-59.39336,11.24617-1.19833,26.65513,5.78415,32.66279-3.61953,5.2831-8.26964,1.16955-22.5452,1.17075-34.16823q.01121-108.49632.02207-216.99265c.02925-37.39939,18.426-55.7596,55.94867-55.90763,28.34888-.11186,56.69831-.05919,85.04742-.12455.96442-.00222,1.92763-.48916,4.764-1.25738-10.36807-14.01928-15.57037-29.72618-33.23766-38.51958-31.61387-15.73507-40.09284-57.61657-18.96586-86.14484,5.594-7.55375,7.25982-14.43794,6.98326-23.39813-4.28684-138.91134,132.9068-232.43316,261.04447-177.93185,6.55676,2.78883,11.80375,2.68216,18.51108.81742,12.77429-3.55141,27.338-9.87455,33.87619,9.6273,1.12519,3.35613,3.7185,2.89179,6.08791,2.69189,16.44365-1.38717,19.67243,8.27348,19.0416,21.91337-.39682,8.58015-2.433,18.018,10.10588,21.30369,4.40829,1.15507,6.1796,7.00633,5.67736,11.59844-1.61165,14.73855,4.62442,26.905,10.01029,40.074,9.3344,22.8231,7.93571,47.6479,7.52127,71.90157-.12711,7.43736,1.32415,13.07949,5.95014,19.22964,22.71226,30.19519,14.02742,71.56724-18.57627,90.27882-14.8115,8.50034-22.97992,22.321-33.66341,37.922,31.47619,0,60.17233-.05609,88.86837.01361,39.37713.0957,57.29169,18.15628,57.30513,57.75307q.03965,116.84225.00065,233.6845c-.00964,32.64048-8.99775,45.78209-39.54317,56.19243-4.974,1.695-6.77585,3.36942-5.78993,8.22036.30142,1.483.402,3.006.61183,4.50837,5.16262,36.9811,5.16308,36.9811,42.5563,36.9811,17.19306,0,34.386-.0001,51.37845-.0001,1.681-4.56256-2.10694-5.66334-3.82049-7.76542-21.871-26.83087-14.974-61.97353,16.11062-77.93921,8.01072-4.11448,10.89247-6.40257,6.63048-16.07063-9.48979-21.52676-6.18628-43.35653,2.22876-64.87153,7.7309-19.76549,20.68237-36.96572,26.94921-57.52221,2.82436-9.26473,10.64742-10.40377,17.874-3.52255,3.98366,3.79313,6.65838,8.92364,10.42212,12.99014,6.81108,7.35913,15.706,5.76673,19.87622-3.247,8.57173-18.52806,14.89161-19.17614,26.50177-1.95358,7.01552,10.40673,12.99792,21.50879,20.11431,33.41955,34.26615-41.60665,77.52708-56.60689,129.65865-45.60794,63.81776,18.6233,96.84969,78.14319,88.783,131.29867-1.13168,7.45742,2.26909,8.20452,8.24361,8.53476,8.41717.46522,14.54949,4.82936,15.51428,13.7153,1.00076,9.21368-4.68171,13.77736-12.89158,15.939a24.00257,24.00257,0,0,0-4.38928,1.17434c-9.67142,4.69355-20.82941,11.6171-20.68163,21.46951.13129,8.7456,10.31856,16.89676,20.0063,20.50157,7.88981,2.9357,15.256,5.16506,17.11749,14.82728,1.50309,7.80193,8.06449,4.30346,12.40779,4.4917,10.57334.45827,21.34917-.91116,29.91951,7.58293,10.092,10.0022,7.57959,22.77984,6.617,34.451-.78288,9.49261.57,12.919,10.75636,12.7906,10.03226-.12626,20.11569,1.896,30.12737,3.32107,2.70912.38564,7.14235.22019,7.35114,3.62028.31208,5.07817-5.11487,3.48271-7.97548,4.93356-3.95408,4.50013-9.438,5.9395-14.90941,6.11838-29.29888.958-58.44922,6.47057-87.34776,2.88957,7.85644,4.733,12.1328,11.06889,7.92338,20.8571-9.60244,28.42947-14.36629,30.43354-45.44677,33.99166-35.15565,4.02454-66.39745-.99046-91.53-27.94592-5.80355-3.19286-11.75137-6.47381-14.40179-12.904-5.57891-13.53438-16.28075-15.79894-29.53224-15.79172-341.02811.18694-682.0578-.34719-1023.08243.77221-41.87184.13747-83.87389,2.36868-125.83179,2.29059-27.28929-.05085-54.45511-3.67882-81.79857-3.63148-7.89517.01371-16.27321-.91783-22.75813-6.82055-2.95455-1.37878-7.37935.50792-9.64575-5.90827,12.83736-4.52746,26.28777-3.815,39.29111-4.74033,8.44978-.6013,11.43055-3.09976,9.581-11.77079-1.13492-5.32078-.40532-11.07139-.27237-16.62321.43446-18.14492,8.82618-26.90359,27.06888-27.22772,21.2108-.37693,42.43346-.08791,68.00459-.08791-23.45613-21.59855-20.14421-48.1341-22.24906-73.3142-1.72486-20.63394-3.69712-41.26038-4.77338-61.931-.888-17.054,8.26455-26.17686,25.485-26.61743,12.6239-.32321,25.25564-.34072,37.88553-.49468,23.73972.14813,47.47883.207,71.21554.473,18.91518.21186,26.46673,7.52485,27.14669,26.39891.16582,4.60323-.287,7.83092,5.35514,10.6524,27.60165,13.80321,38.62985,31.63308,35.48623,55.07035-3.17622,23.68006-19.36179,38.83862-48.18565,45.12808-.497,7.136-5.82872,12.15995-8.57618,18.98467C1557.02717,1353.676,1567.16383,1349.23172,1575.0554,1355.73008Z" transform="translate(-1211.65496 -312.18387)"/>
    <path class="cls-3" d="M1295.20765,1422.76417c417.19085,9.2865,834.43445,1.03233,1251.64722,3.45057,17.2778.10023,31.63612.38935,37.301,20.285,1.29541,4.54951,5.55916,8.25529,8.45676,12.34939-92.02974,1.0578-184.14117.12089-276.06,3.88383-59.96947,2.45511-119.8935,6.72448-179.94585,8.95217-124.43234,4.6162-248.85076,2.00945-373.2684,1.59046-46.41786-.15628-93.02036-1.61871-139.19085-6.07947-71.85893-6.94273-143.811-11.15143-215.89224-13.98792-31.29548-1.23158-62.60911-2.0741-93.88883-3.614-31.72081-1.56155-63.44387-3.40693-94.80935-8.89168-2.9577-.51718-6.15-.58666-7.90209-4.96627,10.73389-5.97969,22.71466-5.84787,34.40124-7.40609C1262.40971,1426.1498,1279.11859,1427.15934,1295.20765,1422.76417Z" transform="translate(-1211.65496 -312.18387)"/>
    <path class="cls-4" d="M1496.12811,590.18414c73.32215-.21,146.64425-.56151,219.96641-.56484,32.25364-.00148,51.0342,18.59094,51.26691,50.56065.27592,37.89749-.0731,75.7992.11112,113.69775.09753,20.06007-8.061,35.38944-25.8798,44.50294-6.59441,3.37275-8.64178,7.46663-8.35663,14.14729.19326,4.52774-.36808,9.08326-.4811,13.6291-.35389,14.23554-5.26771,26.05913-19.35,31.37509-13.39622,5.0571-24.61916-.05368-34.248-9.78793-11.7313-11.85958-23.93043-23.2765-35.28132-35.48439-5.98681-6.4387-12.301-8.94736-21.1274-8.83819-36.91472.4566-73.83853.2535-110.75876.17055-34.14868-.07675-52.67687-18.3308-52.84283-52.12752-.19345-39.39586-.2074-78.79265-.29952-118.18564C1462.04377,610.94557,1474.56444,596.66029,1496.12811,590.18414Z" transform="translate(-1211.65496 -312.18387)"/>
    <path class="cls-5" d="M1441.1432,1124.65659c26.58485-4.95135,53.434-1.33116,80.13481-2.48614,8.29655-.35878,21.43266,1.96683,21.39247-8.14616-.04019-10.11808-13.21046-7.86769-21.5078-8.03527-13.65411-.27587-27.318-.13386-40.97724-.05919-5.76063.03149-12.5336.12672-12.95058-7.06372-.43938-7.57793,6.22795-7.66862,12.08069-7.63073,16.69439.1082,33.3899.04159,50.08494.06892a32.90747,32.90747,0,0,1,19.909,6.29836c12.38447,9.1016,12.24971,24.01485-.25065,32.98759-7.32477,5.2577-15.684,6.36386-24.48779,6.31708-23.26984-.12367-46.54608-.20075-69.8085.26595-5.68525.114-13.8031.52626-13.30777,8.71151.41137,6.79748,7.82343,6.71365,13.25932,7.36839,6.50109.78314,13.2254.48884,19.5189,2.02658,8.21135,2.0062,14.718,6.74681,16.12216,16.03108.57919,3.82945-.32279,7.16766-4.31669,8.63981-3.11479,1.148-6.62644.56073-7.90372-2.42722-5.76082-13.47593-17.58209-8.79933-27.56841-9.67047-6.37991-1.44993-12.47533-3.51727-17.40371-8.09345C1421.54963,1148.976,1424.23244,1137.173,1441.1432,1124.65659Z" transform="translate(-1211.65496 -312.18387)"/>
    <path class="cls-6" d="M2729.58939,1452.80337c-1.92828-8.24658-3.81094-16.512-13.45546-25.12036,38.58274.28142,73.3-.4578,107.78925-4.74459q34.94177,4.22763,69.88592,8.436c4.84359.57693,9.9058.437,14.9719,7.73032C2848.37309,1449.07572,2788.96854,1450.80189,2729.58939,1452.80337Z" transform="translate(-1211.65496 -312.18387)"/>
    <path class="cls-7" d="M1414.0768,1090.86669c6.5544.1144,13.10843.27865,19.66334.32691,5.05711.03715,11.11841-.81436,12.22384,5.833,1.29559,7.79053-5.455,8.33708-10.781,9.70262q-8.9727-.3642-17.94548-.728c-4.13442-.16721-8.34885-.66568-9.65288-5.37072C1406.0875,1095.22861,1408.90345,1092.129,1414.0768,1090.86669Z" transform="translate(-1211.65496 -312.18387)"/>
    <path class="cls-8" d="M1562.09017,1068.986c-6.00734,0-12.02961.25957-18.01706-.08485-4.51172-.25975-7.62632-3.01769-7.4897-7.69215.1151-3.93913,2.93348-6.42787,6.89934-6.47335,13.01261-.14887,26.03028-.15924,39.04145.05271a6.51137,6.51137,0,0,1,6.80232,6.57719,6.6569,6.6569,0,0,1-6.24868,7.22814c-6.95821.53571-13.98713.15442-20.98665.15442Z" transform="translate(-1211.65496 -312.18387)"/>
    <path class="cls-8" d="M1504.18263,1054.19639c6.76681,1.46678,16.9704-3.17359,16.982,7.78024.01006,9.45852-9.27891,7.16136-15.36,7.042-6.5188-.12793-16.62588,3.07132-17.19658-6.84982C1487.974,1051.14572,1498.67627,1055.91394,1504.18263,1054.19639Z" transform="translate(-1211.65496 -312.18387)"/>
    <path class="cls-9" d="M1575.0554,1355.73008h-35.91813c6.29035-8.62879,11.878-16.2938,17.46476-23.95872Q1565.82777,1343.75077,1575.0554,1355.73008Z" transform="translate(-1211.65496 -312.18387)"/>
    <path class="cls-10" d="M2261.667,975.8777c3.5199-.30616,6.38728,1.15789,9.00034,3.31185-5.69507,14.44192-4.54152,29.5901-4.558,44.60562-.06212,56.48878.3041,112.97959-.15994,169.46568-.26266,31.96916-16.58856,56.49517-43.0513,66.97981-9.12217,3.61417-18.5784,4.44121-28.21217,4.492-34.3405-.24613-68.68509-.86568-103.0191-.502-9.78925.10366-11.501-4.22213-12.48641-12.41053-3.37416-28.041-7.26863-56.02449-11.344-83.97457-2.91773-20.0106-12.36681-28.10461-32.36541-28.36741q-20.45424-.26874-40.91451-.00454c-20.01622.27976-29.72583,8.38608-32.63067,28.325-3.99933,27.45152-7.73034,54.958-10.70221,82.53493-1.145,10.62387-4.84683,14.19505-15.95,13.95717-27.7574-.59444-55.54865.3861-83.32627.73469-6.36466,1.93135-12.89.74284-19.33717.92616-12.82065.36452-25.20146.047-37.88146,5.40119-12.57838,5.31143-27.07373,7.29753-40.45511-.49115-5.03384-8.20109-4.85049-17.40986-4.86519-26.49191q-.16689-103.18014-.03245-206.36082a124.65254,124.65254,0,0,1,.62434-13.63553c3.65434-33.01918,18.39668-46.58607,51.69447-46.61711q218.6865-.204,437.37348-.06878C2246.64523,977.686,2254.27164,978.19178,2261.667,975.8777Z" transform="translate(-1211.65496 -312.18387)"/>
    <path class="cls-11" d="M1873.0559,907.17992c-.36113,4.16442-.72225,8.32884-1.09987,12.68348-4.61793-1.39833-5.18932-4.40466-4.65649-7.99516,3.16063-15.59551-2.09313-29.85189-7.08534-44.1329-16.06314-45.95078-14.392-90.97271,6.73089-135.103,4.89662-10.23022,11.29642-18.95419,20.648-25.60559,6.59969-4.6941,13.3-10.0725,16.84241-17.21486,12.00884-24.21268,34.17158-34.66267,57.23374-44.25357a31.57181,31.57181,0,0,1,11.608-1.98308c29.40309,7.23272,58.6914,14.7333,86.08592,28.27829,15.59809,7.71225,28.44034,18.61255,41.48628,29.93433,26.91918,23.36154,25.36427,74.87622-10.88921,98.19534-8.80435,5.6632-17.32453,16.52394-30.71741,6.00016-3.86434-3.03639-9.75319,3.72024-14.78888,5.8043-8.09629,3.35089-15.00509,13.66517-25.56712,4.12532-2.05242-1.85377-5.62777,1.23608-8.29414,2.4697-34.64452,16.02812-70.356,28.05069-109.0562,28.16023-9.96134.02812-9.02353,9.55658-13.86332,13.9498l-.10217.20667c-3.29869,9.64074-.325,19.70319-2.1494,29.592C1883.91007,898.48444,1880.83149,904.20087,1873.0559,907.17992Z" transform="translate(-1211.65496 -312.18387)"/>
    <path class="cls-12" d="M2686.8599,1470.87131c-15.11747,3.38971-30.25458,5.44964-45.49239.668-36.27007-14.404-55.09222-41.08224-54.498-80.09732.33952-22.29008,10.683-40.84445,27.24331-55.47841,12.41854-10.97385,19.8496-22.88785,18.49857-40.6538-1.3184-17.332-10.13091-27.30516-24.64239-34.14155-8.51972-.69337-17.03693-1.95349-25.55943-1.9898-63.24237-.26939-126.48577-.2956-189.72889-.39815-12.84781-14.81256-12.97186-32.43474-8.383-49.57411,5.82479-21.75474,16.03014-41.88586,29.50637-60.15862,6.48621,16.12715,21.09208,10.76023,33.0299,12.4562,8.51452,5.01444,9.98441,14.81376,14.81224,22.284,12.74861,19.72537,13.709,20.28193,33.92829,8.30308a2.71817,2.71817,0,0,1,2.09591-.59166c9.98015-7.91642,15.42351-19.75595,24.7452-28.31887,11.68824-10.737,26.05147-16.6673,39.94547-23.51564,3.13653-3.93922,7.713-2.35905,11.69787-3.04677,16.32377-2.78424,26.9342,7.59405,36.13481,17.83089,20.5496,22.86441,31.87615,50.08592,32.10126,81.18691a268.35966,268.35966,0,0,0,4.51,48.01432c6.05852,32.23233-1.82369,61.03707-25.87048,84.47156-9.58111,9.33735-17.72274,19.31556-17.84716,33.74868-.16132,18.688,8.49839,29.024,26.93855,31.558a85.77606,85.77606,0,0,1,17.64727,3.86844l29.78878-.05113c7.34428-2.36063,13.948-2.31264,16.93967,6.38C2698.0802,1454.314,2698.0496,1464.19064,2686.8599,1470.87131Z" transform="translate(-1211.65496 -312.18387)"/>
    <path class="cls-13" d="M2550.209,1407.29122c-6.05685.224-12.11369.64363-18.17054.64409q-579.86711.04654-1159.73425.02621c-24.84833-.00009-29.0268-5.7368-22.75277-31.17342a13.404,13.404,0,0,1,4.75029,3.38638c9.77625,5.97654,20.65734,3.74728,31.066,3.7507q567.26772.1887,1134.5355.18027c9.99786.00241,20.335-1.76062,29.80723,3.42185C2555.41473,1393.97342,2554.99168,1400.57933,2550.209,1407.29122Z" transform="translate(-1211.65496 -312.18387)"/>
    <path class="cls-14" d="M1887.67316,860.49274c-2.26872-14.53924,3.83579-18.298,18.34281-18.35168,42.6289-.15739,81.1881-15.95054,118.47228-35.06665,2.86163,3.858-4.74206,5.88266-.06972,10.14054,11.36846-1.90953,19.77321-11.77514,30.939-15.71186,4.17762-1.473,11.55055-9.75263,10.8576,3.791-.25163,4.91782,2.87294,2.81787,4.80307,1.886,27.45534-13.25564,51.58057-37.04182,42.47462-75.67719-6.14938-26.09044-26.82433-39.29281-47.5423-51.649-23.97929-14.30126-50.75337-21.89754-77.74273-28.50382-5.27916-1.29221-10.93511-1.78429-15.09752-5.96307,6.51458-8.86278,16.7382-8.75106,25.987-9.943,27.93857-3.60073,55.2757-.81162,81.56173,9.84662,2.41178.97785,4.69849,1.77808,7.2257.6081,3.68058.97248,7.33464,1.99166,9.62422,5.4268,5.55814,4.64483,11.59422,3.37873,17.68881,1.43358,4.09056-1.30565,8.05141-3.76521,12.55974-1.43863.18451,3.99277.36892,7.98558.58262,12.611,1.75045,0,3.18141.35025,4.35332-.05229,19.07321-6.552,19.60623-6.02449,20.06006,13.36235.23541,10.06148-4.86537,23.6375,13.91227,23.55422,4.34868-.01927,3.72276,5.58859,3.376,8.84694-1.235,11.605,3.5938,20.94131,8.30258,31.26592,10.68348,23.42435,11.3909,49.38347,8.17917,74.14149-4.25865,32.82784-12.71059,65.11265-19.36276,97.64146-4.86843-.77364-1.79133-5.71448-5.9544-7.70586-4.38882,10.73508-8.77987,21.47563-14.62264,35.7673-2.55475-44.692,5.06786-85.14577,2.18769-127.32856-6.73923,4.54172-12.384,8.34583-20.10151,13.54688,1.861-21.42671-7.80508-18.01361-20.00333-12.07884-11.31821,5.50656-23.37637,9.50326-35.1474,14.06554-2.59285,1.005-7.40964,3.10282-7.40834-.71736.00714-20.152-10.33618-4.614-14.00313-3.43844-9.91553,3.17846-17.66117,11.38441-28.02823,14.23225-4.0098-4.0162,2.48-6.92268,1.25313-11.29529-32.13362,17.08388-64.69836,29.98273-100.23312,34.519C1912.37479,863.88254,1899.99111,864.52631,1887.67316,860.49274Z" transform="translate(-1211.65496 -312.18387)"/>
    <path class="cls-15" d="M2133.40408,855.04232c1.51366,33.29893-4.91043,66.45637-1.77956,99.78518.60116,6.39948-4.45307,4.10013-7.14726,4.10541-70.78.13919-141.5605.04053-212.34028.21454-6.80227.01672-8.4104-2.66284-8.37647-8.94731.09531-17.65169-.41193-35.30662-.68154-52.9603a105.39124,105.39124,0,0,1,49.1139-6.34361c10.73837,5.51054,8.85033,15.75577,9.71517,25.196.69573,7.594-2.9574,21.58744,4.51965,21.16664,10.51984-.59212,4.64833-13.98125,5.15483-21.64478a109.44512,109.44512,0,0,1,4.867-25.06046c-3.50655-5.08128-5.49555-9.59525,2.41391-12.81391,12.15292-4.94561,24.30222-9.947,35.89987-16.15248,1.32563-.70931,3.74594-1.70046,4.23937-1.02075,8.94472,12.32248,14.71907-.65187,21.74858-2.6672,8.41968-2.414,16.91761-14.52868,24.94316,1.05789,1.16032,2.25368,5.645-.2415,8.40178-1.35668,10.76776-4.35632,21.69416-8.3312,32.31274-13.04115,8.408-3.7293,16.47267-7.51382,19.56479,6.04089C2126.7902,854.179,2130.88865,853.58933,2133.40408,855.04232Z" transform="translate(-1211.65496 -312.18387)"/>
    <path class="cls-16" d="M2194.68592,1264.73264c3.59537-4.8828,9.345-2.98128,14.03214-4.23371,34.58314-9.2412,52.68489-32.24012,52.72587-67.982.07483-65.16647.166-130.33378-.15742-195.49868-.0408-8.22935,1.44653-14.3938,9.38084-17.82867,11.21548,5.62194,15.64232,15.6598,15.67625,27.2116q.37174,126.61855-.00139,253.23831c-.07667,19.88823-13.57988,32.93711-33.83688,33.0868-52.105.38546-104.21882-.18971-156.31877.45586-11.03339.13664-12.97687-5.38915-13.18288-13.66017-.2736-10.98117,8.59611-6.3923,13.22923-6.44112,40.60661-.42649,81.21953-.24678,121.83754-2.10745C2210.609,1265.8035,2201.88826,1269.30354,2194.68592,1264.73264Z" transform="translate(-1211.65496 -312.18387)"/>
    <path class="cls-17" d="M1437.9236,1343.67731c-9.71339-7.14162-13.35375-17.56781-14.29543-28.79585-2.52809-30.14285-4.43808-60.33712-6.71913-90.50147-.63055-8.33856-.22634-15.45971,10.97655-15.30834,29.74725.402,59.49611.6817,89.24438,1.01009,8.31806,13.52947,4.08439,28.40011,3.90787,42.62833-.14214,11.45786-1.89866,22.98095-3.0021,34.46271C1514.02668,1328.88689,1475.081,1356.11544,1437.9236,1343.67731Z" transform="translate(-1211.65496 -312.18387)"/>
    <path class="cls-18" d="M2647.67321,1437.29669c-3.53279.08652-7.08264-.01871-10.59541.29245-15.85658,1.404-29.26068-1.60148-35.46976-18.62042-6.04257-16.56262-3.861-31.69524,7.85439-45.02017,5.98843-6.81119,13.34217-12.5529,18.62263-19.83264,15.97266-22.0206,21.04136-46.95208,13.77254-73.01342-6.48667-23.257.09624-47.34624-6.64466-70.33608-9.8051-33.44085-24.51-62.81372-61.15222-74.14653,52.49974-10.61322,109.90222,25.99224,121.90652,82.72446.8322,3.93274,1.74173,7.85565,2.39,11.81989,3.90865,23.90693.98778,27.43586-22.68519,27.61159-16.37337.12145-17.08022,1.632-12.8873,17.60116,7.85606,29.92109,2.63605,56.8168-20.00426,79.23665-9.98108,9.88381-21.17208,18.98291-22.75583,34.49542C2617.72552,1412.6309,2628.06911,1427.64419,2647.67321,1437.29669Z" transform="translate(-1211.65496 -312.18387)"/>
    <path class="cls-19" d="M2261.667,975.8777c-4.42666,9.27432-12.97706,6.2369-20.08084,6.24371q-218.329.20954-436.6581.0069c-41.43408-.07189-50.18,16.35095-50.42674,49.71029-.582,78.69325.37068,157.39762.66852,236.09764a13.07538,13.07538,0,0,1-.67885,2.94506c-.55661.24187-1.11318.48365-1.66956.73219-3.388.16888-5.6044-1.92246-7.80475-4.04464-3.25492-5.0853-2.07824-10.79256-2.0832-16.25507q-.10582-117.432-.03472-234.864c.01521-30.805,12.279-43.01146,43.17823-43.01553q228.99867-.03016,457.99716.07438C2249.96171,973.51268,2256.26509,971.7489,2261.667,975.8777Z" transform="translate(-1211.65496 -312.18387)"/>
    <path class="cls-20" d="M2042.90171,1155.05985c9.307,1.39564,10.091,9.10363,11.01531,15.92316,7.86209,58.00864,15.245,116.08315,23.38666,174.05177,1.2548,8.935-1.63743,10.1732-9.2605,10.1129-33.35689-.2641-66.71713-.14766-100.07606-.08587-18.68818.03464-18.68808.1081-13.71247-18.27517,4.07007,1.53552,3.08517,10.64536,10.59411,6.99257,33.57681-12.05213,53.3071-36.7698,63.98919-69.70987,1.86319-5.7456,2.99941-11.72048,4.97367-17.45785,6.19731-11.3932,4.76227-23.63458,3.99284-35.81027,5.619-20.367.59643-41.10448,2.169-61.614A14.05665,14.05665,0,0,1,2042.90171,1155.05985Z" transform="translate(-1211.65496 -312.18387)"/>
    <path class="cls-21" d="M1437.9236,1343.67731c10.06735-.4076,20.07027-.2944,30.04555-2.95822,25.49763-6.80878,43.217-24.29136,45.49994-50.56549,2.30892-26.57334,6.01281-53.22932,3.66088-80.07186,3.49269-.31042,6.98232-.84677,10.47863-.89467,22.81656-.31236,23.14088-.16146,20.95935,22.447-.73926,7.66149-.22325,11.25713,9.34265,12.365,20.81931,2.41139,33.60041,18.77346,32.45228,38.50523-1.13334,19.47841-16.24195,33.61917-37.32934,33.74368-6.96749.04113-10.07259.86623-12.4706,8.58663-6.54986,21.08739-21.90457,31.16379-44.44128,31.451q-14.3647.18314-28.73369-.01593C1455.867,1356.12442,1445.62715,1352.82022,1437.9236,1343.67731Z" transform="translate(-1211.65496 -312.18387)"/>
    <path class="cls-22" d="M2607.47,1282.72435c.60784.55136,1.8135,1.229,1.72783,1.6338-.61488,2.90495-3.14488,1.73256-4.87919,1.89671-32.3006,3.059-64.68891,1.33756-97.02632,1.2327-16.29076-.05281-28.59888,4.79795-36.28509,19.5087-15.55322,31.365-44.12058,37.56053-74.97558,36.96627-12.09219-.233-25.3395.45558-36.27313-7.51522-14.52984-28.31081,4.194-56.0092,39.06532-56.572,40.39392-.65206,80.80889-.51746,121.20643-.04076C2549.1846,1280.17845,2578.47958,1277.21181,2607.47,1282.72435Z" transform="translate(-1211.65496 -312.18387)"/>
    <path class="cls-16" d="M1754.491,1270.8813c32.62181.31533,64.55085-10.8775,97.45614-5.85612q-21.00775,1.99356-42.016,3.98656-.0192,1.93338-.03848,3.86669c41.37836,0,82.75886-.186,124.13212.27521,4.34507.04845,13.37388-5.12421,12.69706,6.6527-.48684,8.46825-2.13373,13.50325-12.94692,13.37337-51.51437-.61908-103.04043-.21584-154.56156-.38564-7.94007-.02621-16.28557.18222-22.25893-6.78618-.755-5.06279-5.90744-9.41266-2.46139-15.15651Z" transform="translate(-1211.65496 -312.18387)"/>
    <path class="cls-23" d="M2598.7897,1313.1188c-.42908.26373-.87429.505-1.28168.79861a10.68581,10.68581,0,0,0-.888.79369c3.23073.98944,6.46164,1.97888,10.01668,3.06753-6.65152,12.19987-16.55991,17.02209-30.54282,16.57531-23.67946-.75683-47.40175-.07855-71.104-.26151-15.37585-.11866-24.74864-7.34514-24.725-18.47026.02392-11.28677,9.07136-18.23274,24.7669-18.237,31.255-.00862,62.50984.30319,93.7648.48263Q2604.83895,1305.496,2598.7897,1313.1188Z" transform="translate(-1211.65496 -312.18387)"/>
    <path class="cls-24" d="M1951.85724,894.07088c-16.4811-2.35052-32.2548,6.17043-48.77827,3.169-4.92657-14.47495-.6529-20.54,15.50955-20.42968,22.91437.15632,44.67167-6.96557,66.17159-14.50649,12.32759-4.3238,23.73666-13.69959,38.319-7.36515,1.8426.80037,5.08872-.40949,7.17554-1.58777,11.515-6.50169,21.56352-12.40145,37.10061-8.277,11.70056,3.106,24.13941-8.214,36.52254-12.3858,12.24878-4.12657,30.34451,9.42323,29.5263,22.35437-5.20332,3.19675-11.90323,10.80117-11.49038-3.56488.28158-9.79692-4.62951-7.67219-10.49935-5.21129-16.69676,6.99975-33.50552,13.7328-49.71358,20.34381-5.73059-4.52083,2.30275-9.40994-3.1674-13.82317-13.14292,7.20549-26.75925,14.67055-40.3255,22.10809-5.4975-5.01194,4.73233-7.31425,1.11628-11.98343a301.93965,301.93965,0,0,1-44.46214,20.15914c2.72636,1.68892,5.053,3.13028,7.3797,4.57159C1973.45238,896.102,1961.565,889.94426,1951.85724,894.07088Z" transform="translate(-1211.65496 -312.18387)"/>
    <path class="cls-25" d="M1352.83777,1373.6474c4.45975-5.10809,10.44006-2.7949,15.68434-2.79647q587.84014-.17579,1175.67993.27975c8.61966.00973,19.73834-5.94588,26.57984,5.33264-4.42425,4.66743-10.04747,4.36312-15.75608,3.83019a37.64139,37.64139,0,0,1-5.71464-1.14673c-8.02156-1.80537-16.15234-1.01093-24.22156-1.01185q-572.29255-.06309-1144.585-.16767C1371.21023,1377.96346,1361.13632,1380.86377,1352.83777,1373.6474Z" transform="translate(-1211.65496 -312.18387)"/>
    <path class="cls-26" d="M1352.83777,1373.6474q590.69331.07558,1181.38652.27679c6.26462.003,13.22043-2.59971,18.8125,2.76868-7.12019,6.77729-16.13982,4.99091-24.53372,5.01379-65.80936.17944-131.61928.081-197.4291.09884q-483.70155.13186-967.403.14646c-4.55782.00472-9.1356.32043-13.43947-1.66012q-.33816-1.75595-.67818-3.50781Q1351.19366,1375.21983,1352.83777,1373.6474Z" transform="translate(-1211.65496 -312.18387)"/>
    <path class="cls-27" d="M1964.04381,648.3829c-23.08849,10.2901-46.181,20.30791-57.50706,45.7398-2.3097,5.1866-7.62381,9.56194-12.4802,13.00612-29.81678,21.14626-36.26312,53.20009-39.51026,86.05869-2.902,29.36666.18636,58.28881,13.06356,85.642,5.02364,10.671,6.23514,22.09058-.31041,33.0384-3.27059-30.74535-19.17576-58.23917-22.61935-89.01152-8.529-76.21369,30.98646-146.06552,100.92421-177.56108C1951.99678,644.85817,1959.503,637.78061,1964.04381,648.3829Z" transform="translate(-1211.65496 -312.18387)"/>
    <path class="cls-13" d="M2768.92553,1382.9414c.98,25.0066.98,25.0141-24.21089,25.02087q-45.40218.01223-90.80453-.0013c-20.92639-.00843-23.79275-4.621-15.82061-25.38354,25.06164,4.27,50.28053,1.47133,75.43247,1.64882,3.378.02381,5.29938-2.58981,7.48781-4.66743a15.05126,15.05126,0,0,1,4.60346-2.5659c9.788-2.404,19.7224-1.48115,29.61058-1.25354C2760.88348,1375.86962,2766.04322,1377.346,2768.92553,1382.9414Z" transform="translate(-1211.65496 -312.18387)"/>
    <path class="cls-28" d="M2362.43852,1337.11317c18.00756-1.58322,35.38159,4.71143,54.05743,1.65521,19.31687-3.16118,34.22814-10.50317,46.54961-24.8884,2.25648-2.63436,5.28787-4.60619,7.96167-6.88372-.63185,23.50721,4.67994,30.66828,27.68564,37.32468,6.63947,2.70448,14.16556.916,20.72131,4.07548a2.87944,2.87944,0,0,1,.9595,2.47q-.18288,1.35215-.50492,1.3521c-44.192.20158-88.3845.577-132.57563.46846-9.66066-.02372-18.80889-2.94071-25.41145-10.91206Q2359.45947,1339.12207,2362.43852,1337.11317Z" transform="translate(-1211.65496 -312.18387)"/>
    <path class="cls-29" d="M2042.90171,1155.05985q-.02169,1.62241-.0432,3.24492c-8.94036,6.86417-19.41431,3.956-29.28367,4.36636-18.40762.76526-21.457,3.66354-24.20237,21.763-7.02442,46.31261-12.36143,92.84755-18.85088,139.22787-1.10145,7.87307-1.20585,16.225-6.63363,22.93093-1.66154,2.49365-3.693,6.01416-6.85039,4.0351-5.208-3.26447-.473-9.437-2.78292-13.84147q10.98847-83.87652,21.96581-167.75461c1.20066-9.1934,5.89256-15.39209,15.51725-15.28593C2008.7916,1153.93387,2025.92894,1151.71266,2042.90171,1155.05985Z" transform="translate(-1211.65496 -312.18387)"/>
    <path class="cls-30" d="M2129.45454,1307.28111c9.56062.00222,19.16166.55053,28.67083-.14849,9.96152-.73219,13.01544,3.15858,13.14171,12.90547.13722,10.58478-5.577,11.01192-13.40456,10.91188-18.615-.23807-37.25544-.60065-55.84571.11764-11.044.42678-13.52453-4.6-13.968-14.34465-.56-12.30539,7.85615-9.144,14.236-9.36478C2111.33146,1307.04526,2120.39708,1307.2788,2129.45454,1307.28111Z" transform="translate(-1211.65496 -312.18387)"/>
    <path class="cls-31" d="M2362.43852,1337.11317q-.2801,2.32774-.55851,4.65863c-12.287-8.67473-15.55721-20.80958-12.21485-34.69967,3.52407-14.64517,14.11345-23.16113,27.99679-26.99817,7.16377-1.98,14.98766-2.131,22.51589-2.15127q89.44854-.24081,178.89781.02075c9.60577.03576,19.7185-1.40889,28.39528,4.78174-68.63419.01612-137.26856-.18944-205.90024.14581C2368.25385,1283.03375,2350.48244,1308.17235,2362.43852,1337.11317Z" transform="translate(-1211.65496 -312.18387)"/>
    <path class="cls-30" d="M1901.70587,1330.86938c-7.56578,0-15.25589.82009-22.65218-.29875-4.6538-.70394-14.10066,5.27557-13.38287-5.47363.5472-8.19535.24245-18.806,14.5558-18.02793,17.09858.9295,34.28636.23548,51.43556.21528,5.70277-.00667,12.11833-.51551,10.52587,8.19155-1.16236,6.3558.55564,15.23618-10.21945,15.32854-10.08687.08652-20.17512.01852-30.26273.01852Z" transform="translate(-1211.65496 -312.18387)"/>
    <path class="cls-32" d="M1692.712,1285.27487c28.16544-10.76014,48.67156,4.59721,68.59538,20.66516,5.91643,4.77146,2.29825,18.01135-4.94182,18.02107-27.99781.038-56.1213,3.54515-83.9997-1.85474,4.79663-4.9482,11.34069-3.23945,17.10985-4.46928,11.10524-2.3672,21.1878-6.59581,28.5445-15.70788,2.22125-2.75117,4.9866-5.91976,3.80064-9.44555-1.46349-4.35052-5.99157-2.37322-9.28169-2.74441C1705.76214,1288.97472,1698.23456,1291.59584,1692.712,1285.27487Z" transform="translate(-1211.65496 -312.18387)"/>
    <path class="cls-33" d="M1692.712,1285.27487h34.62657c-1.86671,25.63819-18.04659,35.97545-54.97271,36.83149C1664.74481,1305.6876,1672.31754,1291.97907,1692.712,1285.27487Z" transform="translate(-1211.65496 -312.18387)"/>
    <path class="cls-34" d="M1860.77819,1356.52229c-15.123-.00583-30.24624.04475-45.36875-.04011-3.94922-.02214-8.9882.46475-9.46628-4.9809-.54781-6.23954,4.43587-7.03009,9.25647-7.03657q46.88127-.06281,93.76244-.05132c4.677-.0026,9.14118-.342,8.80574,6.77876-.3131,6.64742-4.94558,5.23658-8.59667,5.27076C1893.04142,1356.61372,1876.90939,1356.52813,1860.77819,1356.52229Z" transform="translate(-1211.65496 -312.18387)"/>
    <path class="cls-35" d="M2167.41016,1356.52044c-15.18922-.00435-30.37881.05864-45.56729-.045-4.23306-.0289-9.43351,1.47068-9.33115-6.07168.10365-7.63926,5.52355-5.88447,9.6474-5.90078,30.378-.11977,60.75651-.07679,91.135-.05057,4.56962.004,10.37549-.28069,10.71093,5.63268.42843,7.55579-6.24,6.34644-11.02774,6.38942C2197.78926,1356.61039,2182.59939,1356.5247,2167.41016,1356.52044Z" transform="translate(-1211.65496 -312.18387)"/>
    <path class="cls-36" d="M2607.969,1261.16822c3.64312-4.33283,6.24821-.56591,8.88983,1.28939,24.9413,17.51547,24.58676,53.29082,3.63849,70.61519-41.24412,34.10912-36.89182,81.25628-12.70058,113.46,8.90967,11.86092,23.23053,15.56781,33.57023,25.00576-55.41088-13.61747-76.81587-83.88833-38.58442-126.79993,3.35219-3.76247,7.07486-7.19591,10.63083-10.77663C2638.39824,1308.80246,2636.493,1283.32129,2607.969,1261.16822Z" transform="translate(-1211.65496 -312.18387)"/>
    <path class="cls-37" d="M2495.57451,1192.09078c-12.32527,17.71417-22.31377,17.832-33.18027-.09051-5.91361-9.75374-12.118-19.44709-15.56017-30.49737,9.01666-1.95571,8.30146-11.88676,14.79268-17.829,7.167,12.91751,14.33569,25.40836,21.04952,38.13857C2485.57823,1187.31478,2487.786,1193.008,2495.57451,1192.09078Z" transform="translate(-1211.65496 -312.18387)"/>
    <path class="cls-38" d="M1964.04381,648.3829c-5.31578-5.98179-12.30144-2.0082-18.43951-3.08763,47.52125-21.9627,94.94015-19.78693,142.28116.60264-3.72016,4.26543-7.37423,1.03145-11.00363-.1397-34.5556-11.1498-69.14624-10.56319-103.77333-.37211Q1968.578,646.88533,1964.04381,648.3829Z" transform="translate(-1211.65496 -312.18387)"/>
    <path class="cls-39" d="M1741.98827,1355.50979c-20.5566.31237-41.11445.85271-61.6686.73552-3.88858-.02223-11.57818,3.799-10.86761-5.1972.47432-6.00462,3.30967-13.07926,10.73832-12.04258,10.75965,1.50124,23.40354-7.13968,32.12143,9.11456,4.339,8.08993,10.31082-.55562,11.809-7.53763C1739.56541,1338.162,1742.01766,1340.21071,1741.98827,1355.50979Z" transform="translate(-1211.65496 -312.18387)"/>
    <path class="cls-40" d="M2186.00683,1310.23525c16.668-7.765,33.98411-1.21306,50.963-2.15933.9036-.05039,2.5923,1.89856,2.789,3.10069,2.1939,13.41237,4.18773,26.85773,6.17552,40.30308.322,2.17712-.43668,4.05456-2.836,4.41972-2.30043.35007-3.95186-.85622-4.0442-3.23334-.8501-21.88007-15.81829-22.12314-32.06436-21.66626-5.97007.16794-12.95,3.20768-18.15664-2.83047,4.92694-4.71662,11.3348-3.33793,17.20557-4.22436,2.42829-.36665,5.657-.46873,5.99158-3.52384.40711-3.71717-2.74935-4.93412-5.7877-5.67335C2199.5271,1313.1137,2191.89419,1315.59225,2186.00683,1310.23525Z" transform="translate(-1211.65496 -312.18387)"/>
    <path class="cls-41" d="M2413.804,1149.04754q-10.32412,21.86353-20.64649,43.72818c-10.335,21.92472-9.14553,43.93884-.479,66.00455-7.167,1.36591-8.09647-4.35923-9.97274-8.87-6.96739-16.75021-5.8042-33.32719.44754-50.09481,6.5512-17.57105,16.64493-33.34443,24.5124-50.23118C2409.51984,1145.60466,2411.41678,1145.33917,2413.804,1149.04754Z" transform="translate(-1211.65496 -312.18387)"/>
    <path class="cls-42" d="M1799.50265,1309.89176c16.37945-6.8551,33.34392-1.00862,50.00109-2.1484,5.90331-.40389,3.92646,4.56164,2.923,7.65056-1.96017,6.03472.71418,15.29148-10.4008,15.2762-12.08876-.01658-24.17789.21278-36.26683.33478.28927-8.85537,16.429-4.73783,13.14264-14.18449-2.32977-6.69706-13.10277-.53228-18.37151-5.87437C1800.18568,1310.59662,1799.8451,1310.24322,1799.50265,1309.89176Z" transform="translate(-1211.65496 -312.18387)"/>
    <path class="cls-43" d="M2723.11328,1379.60986c-.082,7.16256-4.42044,9.35922-10.78454,9.3506-21.962-.02982-43.9244-.063-65.886.023-4.62534.01806-7.73442-1.44659-8.353-6.40573q1.42659-1.53015,2.85338-3.05974C2668.34037,1373.1707,2695.73137,1372.309,2723.11328,1379.60986Z" transform="translate(-1211.65496 -312.18387)"/>
    <path class="cls-44" d="M1832.82738,845.30821c8.12095,19.96608,14.561,39.48053,16.2,60.88464C1825.73342,892.23235,1819.49671,869.24288,1832.82738,845.30821Z" transform="translate(-1211.65496 -312.18387)"/>
    <path class="cls-45" d="M2686.8599,1470.87131c2.00467-5.059,5.47274-10.053,5.701-15.19079.43779-9.85185-1.37459-19.44265-15.09744-18.43329,2.81926-.81418,5.60552-2.1711,8.46613-2.35062,17.84438-1.11978,27.81841,5.195,28.177,17.51723C2714.46173,1464.61825,2705.22718,1470.87391,2686.8599,1470.87131Z" transform="translate(-1211.65496 -312.18387)"/>
    <path class="cls-46" d="M2723.11328,1379.60986q-41.08705-.04307-82.17207-.089c3.03232-6.92847,8.3584-8.999,15.77166-8.83166,22.18564.50088,44.38463.4239,66.57824.57258,5.0598,2.73043,5.10337,5.42639-.05563,8.08669Z" transform="translate(-1211.65496 -312.18387)"/>
    <path class="cls-47" d="M2198.98852,845.66055c9.72621,25.92813,5.81978,42.01873-13.09471,57.98932C2185.3124,890.29961,2191.80009,860.64633,2198.98852,845.66055Z" transform="translate(-1211.65496 -312.18387)"/>
    <path class="cls-48" d="M2186.00683,1310.23525c7.46527-.1334,14.93249-.20074,22.39526-.418,8.32845-.24215,9.73205,5.69049,10.22474,11.84286.64974,8.11188-5.72336,6.47186-10.37095,6.59646-6.46878.17341-12.94794-.03965-19.42265-.08726Q2187.42,1319.2023,2186.00683,1310.23525Z" transform="translate(-1211.65496 -312.18387)"/>
    <path class="cls-49" d="M2556.01265,1377.13567q7.38527-.33751,14.76987-.67364c-.74551,8.26713-.73689,16.68962-2.41669,24.76121-2.36487,11.36356-11.89656,4.50615-18.157,6.06742q-.03519-9.17283-.071-18.34669C2547.77219,1382.86034,2551.683,1379.894,2556.01265,1377.13567Z" transform="translate(-1211.65496 -312.18387)"/>
    <path class="cls-50" d="M1873.0559,907.17992a44.85406,44.85406,0,0,0,11.71484-32.53548c-.144-4.70619-1.89054-10.07357,2.80229-13.94466-.002,28.51743-.002,57.03523-.002,84.386C1883.14731,933.5333,1878.1016,920.35659,1873.0559,907.17992Z" transform="translate(-1211.65496 -312.18387)"/>
    <path class="cls-44" d="M1799.50265,1309.89176c4.47-.0352,9.07726-.76128,13.37105.09041,4.21874.83677,12.07833-4.59452,11.93814,5.15339-.09688,6.73782-.028,14.72363-10.93339,13.24943-2.93321-.39648-5.99854-.05363-8.11933,2.61991C1791.18116,1327.66271,1797.11224,1318.25357,1799.50265,1309.89176Z" transform="translate(-1211.65496 -312.18387)"/>
    <path class="cls-51" d="M1741.98827,1355.50988c-2.78343-8.76662-5.3537-17.78781-17.86751-14.92742,9.79737-6.09661,20.30455-1.68921,30.35295-1.39731,6.02551.175,8.75215,6.98784,8.58582,12.6133-.216,7.30309-6.71322,4.0426-10.591,4.47382C1749.04574,1356.65272,1745.487,1355.8116,1741.98827,1355.50988Z" transform="translate(-1211.65496 -312.18387)"/>
    <path class="cls-52" d="M2519.52024,1349.6885c-7.266-.53043-14.84766.16109-20.82524-5.36747l72.88227-.46105c2.31573,5.03584-.14825,6.82046-4.83339,7.09623C2551.0095,1350.28785,2535.19724,1352.50137,2519.52024,1349.6885Z" transform="translate(-1211.65496 -312.18387)"/>
    <path class="cls-53" d="M2723.23548,1379.34845c1.94979-2.68235,2.38851-5.37507.05544-8.08669,11.0015-.15349,22.00262-.36239,33.00449-.44205,8.071-.05846,13.99247,2.28679,12.63012,12.12141C2754.12256,1376.3215,2738.38539,1381.56419,2723.23548,1379.34845Z" transform="translate(-1211.65496 -312.18387)"/>
    <path class="cls-54" d="M2562.36109,1139.66461c-22.6049,12.82674-44.55949,26.35408-57.90231,49.99255-.80921,1.43353-4.45975,1.266-6.78827,1.84279C2511.88679,1165.06714,2532.86352,1147.05792,2562.36109,1139.66461Z" transform="translate(-1211.65496 -312.18387)"/>
    <path class="cls-55" d="M1791.21867,1348.19837c.58373,5.70763-1.41395,10.037-7.36705,7.97571-10.24666-3.548-6.25433-15.42331-11.32743-22.43181-1.32517-1.83066,3.24227-8.52828,4.94984-7.27177C1784.6505,1331.751,1791.01034,1338.33364,1791.21867,1348.19837Z" transform="translate(-1211.65496 -312.18387)"/>
    <path class="cls-56" d="M2718.72233,1277.8911c-12.39555,6.91087-20.45707,12.04351-31.10607,9.31318-3.47364-.8905-7.52433-.60185-7.75593-5.04343-.28519-5.46289,4.4362-4.15581,7.5794-4.21305C2696.33086,1277.78578,2705.227,1277.8911,2718.72233,1277.8911Z" transform="translate(-1211.65496 -312.18387)"/>
    <path class="cls-57" d="M2127.75749,651.3204c-21.45263,9.009-21.45263,9.009-30.24845.00519,7.38767-2.37836,14.789-4.71555,22.15921-7.14685C2126.53005,641.91524,2128.94415,644.54933,2127.75749,651.3204Z" transform="translate(-1211.65496 -312.18387)"/>
    <path class="cls-58" d="M2598.7897,1313.1188q.00335-7.62546.00686-15.251c5.80152-.05846,12.41521-2.94339,16.90723,2.26437,2.19084,2.53978.21806,6.989-1.75583,9.8777C2610.05173,1315.71249,2604.03122,1312.90416,2598.7897,1313.1188Z" transform="translate(-1211.65496 -312.18387)"/>
    <path class="cls-59" d="M2693.39033,1344.03933c8.30221-3.4842,11.78568,4.84964,17.74109,8.2902q-21.758,0-43.51552-.0516c-.28092-.00111-.868-.86391-.77824-1.16739a12.60572,12.60572,0,0,1,1.18674-2.31236C2675.84208,1343.81885,2685.624,1349.29137,2693.39033,1344.03933Z" transform="translate(-1211.65496 -312.18387)"/>
    <path class="cls-60" d="M2674.70021,1334.03518c3.59176-5.603.08011-14.257,8.59222-14.36244,6.15049-.07624,7.427,8.04833,6.33054,11.33809C2687.43936,1337.56273,2680.93118,1333.16182,2674.70021,1334.03518Z" transform="translate(-1211.65496 -312.18387)"/>
    <path class="cls-61" d="M2693.39033,1344.03933c-6.76945,10.55689-16.85919,3.46529-25.368,4.76182C2674.794,1338.24166,2684.88675,1345.36855,2693.39033,1344.03933Z" transform="translate(-1211.65496 -312.18387)"/>
    <path class="cls-62" d="M2519.52024,1349.6885q24.74-.20106,49.47994-.40232,1.04486,1.064.5943,2.01065-.43571.91724-.82423.91746a305.4124,305.4124,0,0,1-48.90149.00426A8.53351,8.53351,0,0,0,2519.52024,1349.6885Z" transform="translate(-1211.65496 -312.18387)"/>
    <path class="cls-10" d="M1754.49308,1270.85138c1.23895,4.98433,5.59768,9.46287,2.46139,15.15651-6.47518-4.53329-11.15429-10.22739-11.93778-18.43913Q1749.75486,1269.21021,1754.49308,1270.85138Z" transform="translate(-1211.65496 -312.18387)"/>
    <path class="cls-63" d="M2568.77025,1352.21429a7.29224,7.29224,0,0,1,.2253-2.9257q1.29169-2.71722,2.578-5.42916c3.85025.435,10.80457-2.66938,10.69675,2.64427C2582.1062,1354.58714,2574.60764,1353.16862,2568.77025,1352.21429Z" transform="translate(-1211.65496 -312.18387)"/>
    <path class="cls-64" d="M2690.40882,1301.00906c-1.65848,3.24557-1.135,8.41887-6.29754,8.83731-3.4423.27883-3.1877-2.946-3.1725-5.36562.0217-3.41463-.6032-7.34431,4.8078-7.13681C2688.1082,1297.43445,2690.89093,1297.06687,2690.40882,1301.00906Z" transform="translate(-1211.65496 -312.18387)"/>
    <path class="cls-65" d="M1483.919,778.7717c-8.60868-5.72513-10.10819-14.5271-10.12173-23.83773-.05651-38.8356-.23308-77.67288.0573-116.5064.153-20.45488,12.37891-34.39337,32.24-34.54418,71.67578-.54414,143.35832-.23016,215.03808-.09634,2.89557.00541,5.7884,1.4685,8.68253,2.25242,8.362,5.0099,10.48795,13.02956,10.54474,21.99174.23915,37.75168.35945,75.50513-.05294,113.25477-.1776,16.26383-6.48149,29.55323-21.74247,36.9049-8.413,4.05288-11.61295,10.27936-11.69152,19.20134a92.08245,92.08245,0,0,1-4.015,25.29261c-2.2423,7.56019-5.88389,14.32-16.00242,11.20789q-24.05439-22.97009-48.10887-45.94017c-7.18468-4.39165-15.16855-4.6049-23.25019-4.60355q-54.16236.00909-108.32473.02056C1499.09107,783.376,1491.11049,783.13436,1483.919,778.7717Z" transform="translate(-1211.65496 -312.18387)"/>
    <path class="cls-66" d="M1686.85553,833.89272c18.40493-4.52481,13.88251-20.97794,14.65384-32.46017.95325-14.19019,2.21157-23.96839,18.26294-29.06736,11.6931-3.71449,16.0409-16.09273,16.08554-28.49108.14158-39.31471-.0573-78.63082.15075-117.94493.03955-7.47455-2.87563-13.65337-6.19341-19.88971,15.88495,4.441,23.14546,16.08537,23.37006,31.3844q.86747,59.08928-.00264,118.199c-.225,16.187-8.44091,28.21614-24.74154,32.2196-7.23576,1.77716-8.44513,5.46219-8.617,11.59687-.22609,8.06848-1.318,16.11167-1.57837,24.18057-.2711,8.4-.90555,16.80579-10.05173,20.19064C1698.28569,847.47754,1692.13706,841.17075,1686.85553,833.89272Z" transform="translate(-1211.65496 -312.18387)"/>
    <path class="cls-67" d="M1483.919,778.7717q67.09686-.12949,134.19377-.2207c8.19712-.00107,16.17367.97925,20.63393,9.40155-45.21355,2.4886-90.45527.91834-135.68342.75206C1495.44517,788.67659,1488.22953,786.058,1483.919,778.7717Z" transform="translate(-1211.65496 -312.18387)"/>
    <path class="cls-68" d="M2194.53869,1085.77787c4.20145,5.46112,3.03167,11.96819,3.54,18.14844.93632,3.38786-.68915,5.88271-3.07932,7.86853-18.85923,15.66925-37.7574,31.292-56.9861,46.50965-2.18732,1.73107-4.44325,2.08976-6.80589.34312-19.06886-2.07753-22.22681-7.82166-12.97251-23.69507,2.78894-4.78369,5.80679-9.43611,8.52676-14.2574,3.24556-5.75311,11.109-10.83221-1.59237-16.71112-6.58838-3.04964-4.6119-12.9227-1.22281-19.30944,8.26021-15.56605,17.12584-30.81539,25.92843-46.08825,2.94238-5.10531,7.3758-8.63481,13.65581-7.727,14.88188,2.15127,29.76857,4.35849,44.5327,7.17432,3.90272.74432,6.46488,4.64306,8.25863,8.41415,5.10189,8.2739.38189,14.51381-4.67763,20.2546C2206.00042,1073.10629,2200.35327,1079.52045,2194.53869,1085.77787Z" transform="translate(-1211.65496 -312.18387)"/>
    <path class="cls-69" d="M2034.75536,1099.44573c-17.07429,3.90152-28.41068.22659-35.92407-11.99-6.77844-11.02174-5.9671-22.30582,2.07569-32.38491,7.95935-9.9745,18.35561-13.331,33.17592-8.85787-9.29,7.66232-15.62072,15.51927-15.49286,26.68738C2018.71474,1083.78315,2024.5334,1091.58637,2034.75536,1099.44573Z" transform="translate(-1211.65496 -312.18387)"/>
    <path class="cls-70" d="M2131.2074,1158.64761a442.77949,442.77949,0,0,0,66.86862-54.72306c1.27121-2.062,2.53982-4.1256,3.72082-6.04695,2.71171,14.3077-57.44986,65.87013-78.29169,65.8529C2126.60153,1161.68716,2128.90446,1160.16738,2131.2074,1158.64761Z" transform="translate(-1211.65496 -312.18387)"/>
    <path class="cls-71" d="M2194.53869,1085.77787c-.33081-8.7041,7.69622-11.64277,12.15746-16.8334,5.74384-6.68289,10.49166-13.24359,9.62292-22.50128,4.88216,2.19351,7.38017,6.2815,4.38289,10.69835C2213.40645,1067.89176,2208.17893,1080.7512,2194.53869,1085.77787Z" transform="translate(-1211.65496 -312.18387)"/>
    <path class="cls-72" d="M2556.01265,1377.13567q-2.93706,5.90439-5.87457,11.80858-591.61838.00987-1183.23606-.17573c-6.2484-.00333-16.62551,4.97044-16.67163-8.48168,6.87908-4.54811,14.65546-3.11282,22.13668-3.11375q580.48242-.07183,1160.96485-.06076c6.56918-.00038,13.13847-.27254,19.70627-.41872A20.94461,20.94461,0,0,1,2556.01265,1377.13567Z" transform="translate(-1211.65496 -312.18387)"/>
    <path class="cls-73" d="M2058.51223,887.7281c6.15021,0,10.2137-.2428,14.23129.08249,2.83892.22988,5.28983,2.66021,3.13839,4.99212-11.28659,12.23322-3.41124,26.81391-5.25552,40.14741-1.02171,7.38655-2.41669,13.27981-11.07836,12.93947-7.71078-.30291-9.05922-5.96543-10.05525-12.62636-2.06354-13.80011,4.5978-28.04481-5.06814-42.12328C2041.62809,887.067,2055.24349,890.384,2058.51223,887.7281Z" transform="translate(-1211.65496 -312.18387)"/>
    <path class="cls-2" d="M1951.85724,894.07088c-.78844-6.90646,4.08815-6.42643,8.49524-6.44672,7.29616-.03367,14.59279.00806,21.88923.018q1.08087.97067,2.16164,1.94136c-12.26844,13.54267-6.11628,30.14369-7.48706,45.47783-.56482,6.31842-2.93785,10.79043-9.84072,10.86435-7.86468.08421-10.21722-5.09044-10.25653-11.93883-.05183-9.043-.00111-18.0867-.0598-27.12961C1956.72772,902.0068,1958.28328,896.4957,1951.85724,894.07088Z" transform="translate(-1211.65496 -312.18387)"/>
    <path class="cls-74" d="M1963.88787,1346.59291c3.50813-28.33137,6.92336-56.67461,10.55127-84.99069,3.43711-26.827,7.62864-53.56938,10.46867-80.45657,1.83945-17.41348,6.604-22.74528,24.58444-22.81078,11.12174-.04048,22.24368-.02232,33.36589-.03029-.07464,21.23783,7.05112,42.781-2.70272,63.608-5.93039-.36646-9.67132-5.07169-14.6245-7.39739-11.17376-5.24676-21.95923-3.3005-30.10206,5.71134-7.6521,8.46871-8.45853,20.34334-2.08886,30.75758,5.85362,9.57051,17.53462,13.71539,28.9448,10.20988,4.70813-1.4465,8.89039-5.01193,14.3216-3.48327-6.721,37.02464-24.2464,66.62141-58.43958,84.71177C1973.71968,1344.77522,1969.19614,1347.08239,1963.88787,1346.59291Z" transform="translate(-1211.65496 -312.18387)"/>
    <path class="cls-75" d="M2036.6064,1257.7107c-7.94266,5.56821-16.11868,10.703-26.45412,8.72189-13.16814-2.52394-22.05565-10.30141-24.73668-23.45858-2.67991-13.1517,2.14792-23.96316,13.69124-31.077,11.65921-7.18515,23.17017-5.73106,33.87943,2.269,2.77226,2.071,4.79964,5.13737,7.16915,7.74653C2045.93635,1234.53448,2044.48286,1246.44042,2036.6064,1257.7107Z" transform="translate(-1211.65496 -312.18387)"/>
    <path class="cls-76" d="M1544.66741,1284.58159c.432-5.382.6707-9.91929,1.181-14.4259,1.7096-15.0975,9.515-18.51158,21.7706-9.08576,9.979,7.67511,13.20254,17.85035,7.38888,29.44041-5.04265,10.05286-13.979,15.39931-24.95924,12.57671C1538.919,1300.22592,1546.7998,1290.21307,1544.66741,1284.58159Z" transform="translate(-1211.65496 -312.18387)"/>
    <path class="cls-77" d="M2518.05953,1316.38539c11.863-4.04575,11.863-4.04575,26.80152-1.18906C2534.7625,1320.67264,2526.41356,1318.64514,2518.05953,1316.38539Z" transform="translate(-1211.65496 -312.18387)"/>
    <g id="dots">
      <path id="dot" style="animation: fadeMe 2s;" class="cls-78" d="M1673.99646,674.69885c9.33217.11176,14.73867,5.13889,15.05821,13.66634.319,8.5128-4.72287,14.37638-13.69656,14.68152-8.9068.30287-14.42368-4.97525-14.79913-13.60432C1660.18033,680.74038,1665.42751,675.68565,1673.99646,674.69885Z" transform="translate(-1211.65496 -312.18387)"/>
      <path id="dot-2" data-name="dot" class="cls-69" d="M1566.208,689.0587c-.97434,8.60248-5.58137,13.95777-14.44477,13.98732-8.98881.02983-13.94013-5.44621-13.9743-14.1769-.03481-8.88858,5.265-14.07263,14.12357-13.99885C1560.698,674.94331,1565.50642,680.12292,1566.208,689.0587Z" transform="translate(-1211.65496 -312.18387)"/>
      <path id="dot-3" data-name="dot" class="cls-69" d="M1627.56423,689.1738c-1.02213,8.56626-5.44146,14.13085-14.45822,13.87009-8.77013-.25364-13.97981-5.51106-13.95612-14.33229.0242-8.99688,5.60107-13.83642,14.32156-13.82729C1622.4266,674.89366,1626.88514,680.37947,1627.56423,689.1738Z" transform="translate(-1211.65496 -312.18387)"/>
    </g>
    <path class="cls-79" d="M2144.14292,1104.57346c-20.40738-6.51364-20.4058-6.51281-10.60347-24.016,2.4636-4.399,4.8917-8.81813,7.37487-13.20617,19.9744-35.29865,21.73931-35.93061,61.12441-23.72583,8.50766,2.6364,10.89534,6.97164,4.77517,14.15985-8.42571,9.896-17.02284,19.64627-25.68079,29.61363,16.09893,8.58849,16.314,10.4777,2.78987,21.60143q-24.57744,20.21512-49.31667,40.23361c-3.49153,2.8376-7.15913,6.63666-11.94894,2.993-5.74774-4.37229-1.9687-8.96375.602-13.23711C2129.99544,1127.79211,2136.8118,1116.64244,2144.14292,1104.57346Z" transform="translate(-1211.65496 -312.18387)"/>
    <path class="cls-80" d="M2018.62777,1221.31868c12.90595,7.6123,16.85614,16.6459,9.9796,25.33712-7.06725,8.93245-15.78167,11.95356-25.2429,2.60009C1998.24626,1233.66806,2001.39726,1227.90069,2018.62777,1221.31868Z" transform="translate(-1211.65496 -312.18387)"/>
    <path class="cls-81" d="M2018.62777,1221.31868c-8.44675,7.48038-18.57107,14.04581-15.2633,27.93721-8.11066-5.1231-8.15414-12.73846-4.41552-19.82468C2002.87373,1221.99223,2009.07707,1216.73546,2018.62777,1221.31868Z" transform="translate(-1211.65496 -312.18387)"/>
    <g id="heart">
      <path class="cls-82" d="M2526.42024,923.87437c22.73646-.00635,45.4769-.2767,68.20816.06878,23.224.353,36.54776,13.79626,36.83,36.90458.25274,20.69457.29075,41.39845-.02411,62.0914-.329,21.606-13.3264,34.89569-34.634,36.04492-3.52723.19028-7.1875.64456-10.589-.02445-17.361-3.41444-27.22068,3.87808-35.45345,19.36817-11.98269,22.54612-36.69174,22.34417-48.31535-.59787-7.921-15.63414-17.96639-19.58447-34.38018-19.04423-35.37,1.16443-45.78518-10.10789-45.79185-45.64786-.00334-17.66878-.18006-35.33992.05136-53.00564.29186-22.28077,13.40215-35.65248,35.891-36.06054C2480.94158,923.55913,2503.68388,923.88067,2526.42024,923.87437Z" transform="translate(-1211.65496 -312.18387)"/>
      <path class="cls-83" d="M2500.48291,1045.86311q-20.67579-.53566-41.35166-1.07142c-12.80377-4.6716-17.06864-14.25656-16.772-27.2796.402-17.65377.34508-35.33116.01-52.9879-.20972-11.04689,3.048-19.76822,13.09693-25.2343,44.78479-2.33612,89.60749-.56883,134.41416-.90181,9.92313-.07373,14.02464,7.59725,15.23586,15.88671,3.49032,23.88646,1.33063,46.31016-18.88955,63.40155-5.76944,4.87678-11.01392,10.54494-17.53147,14.30714-16.38394,9.45741-30.52428,21.092-40.0786,37.68456-8.0478,3.88818-10.32477-3.23269-13.48114-7.5996C2510.81556,1056.0917,2507.38114,1049.46412,2500.48291,1045.86311Z" transform="translate(-1211.65496 -312.18387)"/>
      <path class="cls-84" d="M2525.4218,1070.98254c6.09365-23.43116,26.32988-33.26346,44.1623-45.02535,24.06208-15.87064,36.27044-36.57142,32.49845-66.21076-1.66163-13.05526-5.72957-20.25427-20.29714-20.09059-41.41693.46536-82.843.1183-124.26554.091q-3.29364,2.64-4.22379-1.47531c47.343-2.6704,94.72477-1.55169,142.06319-.49166,15.39579.34474,21.53886,9.35078,21.61433,25.19317.09364,19.66484.17152,39.33185-.02948,58.99507-.142,13.90788-8.14756,22.22643-22.03155,23.56575a6.76107,6.76107,0,0,1-1.51208.02223c-25.76942-3.38544-48.0462-.20731-56.86594,29.38936-.85455,2.86771-4.12792,4.28346-7.50486,4.02028C2525.64478,1077.28924,2523.03051,1075.26506,2525.4218,1070.98254Z" transform="translate(-1211.65496 -312.18387)"/>
      <path class="cls-85" d="M2453.29608,938.27155q2.10861.73651,4.22055,1.47424c-8.824,5.98859-11.49882,14.28477-11.07882,24.80749.6846,17.14886.859,34.38054-.04488,51.50907-.64566,12.23443,2.67138,21.71574,12.73072,28.73091-15.44363-.52922-22.65941-8.4173-22.39518-23.94917.33414-19.64543.42473-39.30892-.04274-58.94889C2436.3909,949.50579,2441.42631,941.70368,2453.29608,938.27155Z" transform="translate(-1211.65496 -312.18387)"/>
      <path class="cls-86" d="M2531.94917,1024.26215c-19.63812-.04188-26.0764-17.55633-37.46794-28.44949-2.05326-1.96349-3.00942-5.07233-4.47218-7.65236-5.66661-14.102,2.10332-28.34036,18.3824-30.04744,13.81371-1.44863,28.22942-3.28758,41.74635,2.97271l-.23624-.024c20.26024,15.49436,21.13064,26.149,3.14293,43.90933C2546.27142,1011.65838,2540.45127,1019.44382,2531.94917,1024.26215Z" transform="translate(-1211.65496 -312.18387)"/>
      <path class="cls-87" d="M2550.1378,961.08557c-12.30274-2.12339-24.5226,1.31537-37.05935-.15262-14.05663-1.646-21.90648,9.096-23.07172,27.2273-14.32308,2.35233-19.26142-3.257-19.30463-18.064-.04348-14.9127,5.24087-19.56123,19.37556-18.44279a272.10316,272.10316,0,0,0,36.07964.03932C2535.877,951.16623,2543.79307,953.74237,2550.1378,961.08557Z" transform="translate(-1211.65496 -312.18387)"/>
      <path class="cls-88" d="M2531.94927,1024.26215c5.873-6.06437,11.68878-12.18533,17.62983-18.18254,17.782-17.95011,17.86561-26.61966.323-45.01771,20.04013,7.95709,24.96958,24.92175,10.29687,39.65793C2551.62828,1009.32759,2545.54992,1021.501,2531.94927,1024.26215Z" transform="translate(-1211.65496 -312.18387)"/>
      <path class="cls-89" d="M2555.75166,983.27462c.04042,5.84066-23.31314,33.68157-28.53463,33.57356-1.76491-.0365-3.83922-1.38508-5.18459-2.72357-7.14968-7.11272-14.52038-14.06962-21.004-21.76261-4.6945-5.57025-4.17669-12.26926.07816-18.21755,4.22917-5.91244,10.68654-9.313,17.10294-6.11921,6.67173,3.32088,11.5614,1.6931,17.87349-.24242C2545.81323,964.79913,2555.68268,973.30411,2555.75166,983.27462Z" transform="translate(-1211.65496 -312.18387)"/>
      <path class="cls-90" d="M2525.4218,1070.98254q1.80055,3.99336,3.60436,7.985c-8.86962,1.76868-12.69919-4.1042-16.1986-10.59136-4.06256-7.53087-8.2234-15.009-12.34307-22.51156,8.15238-2.34729,11.41843,2.93746,14.68763,8.92781C2518.22539,1060.38711,2521.97736,1065.601,2525.4218,1070.98254Z" transform="translate(-1211.65496 -312.18387)"/>
    </g>
    <path class="cls-91" d="M2136.0992,1091.63843q8.32135-14.97772,16.64261-29.95563c10.30466-8.89169,22.91252-11.25759,35.86844-12.6374,4.36574.0126,8.75271-.04937,13.66333,3.66-8.49747,9.29817-16.43586,17.98458-24.37426,26.671C2164.86348,1086.518,2152.33841,1095.39813,2136.0992,1091.63843Z" transform="translate(-1211.65496 -312.18387)"/>
    <path class="cls-92" d="M2138.68445,1127.90179q8.12053-13.43979,16.241-26.87959c3.34736-4.67086,7.73749-7.26325,13.64386-6.83324,5.27916,1.18249,10.55823,2.36488,17.98679,4.0288-12.48465,9.78811-23.1584,18.1565-33.83224,26.525C2148.2548,1126.7307,2144.491,1131.84777,2138.68445,1127.90179Z" transform="translate(-1211.65496 -312.18387)"/>
    <path class="cls-93" d="M2168.56928,1094.189c-3.69133,3.98461-8.40837,5.92245-13.64376,6.82972-4.86362-6.419-13.34236-3.18536-19.11429-7.1595-.31013-.21353-.66838-.75183-.596-1.03446.11394-.44465.57538-.80046.88691-1.19008q20.8912-6.12269,41.7927-12.25564C2175.61929,1084.83577,2169.04212,1087.59324,2168.56928,1094.189Z" transform="translate(-1211.65496 -312.18387)"/>
    <path class="cls-94" d="M2188.61025,1049.0454c-11.19518,6.36228-23.47975,9.63611-35.86621,12.63249C2162.73977,1041.30638,2162.73977,1041.30638,2188.61025,1049.0454Z" transform="translate(-1211.65496 -312.18387)"/>
    <path class="cls-95" d="M2138.68445,1127.9017q7.0156-1.577,14.0353-3.15655c-6.65254,5.86335-13.30916,11.7292-22.462,19.79467C2132.11906,1136.01729,2135.35062,1131.93531,2138.68445,1127.9017Z" transform="translate(-1211.65496 -312.18387)"/>
  </g>
</svg>
