<svg id="Layer_1" data-name="Layer 1" xmlns="http://www.w3.org/2000/svg" viewBox="0 0 118.10256 114.44374"><defs><style>.cls-1{fill:#d83633;}</style></defs><g id="AjNgBF.tif"><path class="cls-1" d="M207.23515,137.29989q-9.86217,0-19.72433.00317c-.54035.0004-.91243.09689-.77255-.77961a92.69584,92.69584,0,0,1,11.62375-31.615,79.8843,79.8843,0,0,1,18.483-21.9062,58.33082,58.33082,0,0,1,20.8041-11.59517,37.00479,37.00479,0,0,1,8.78186-1.3567c11.347-.515,21.7567,2.74636,31.698,7.83112A100.23591,100.23591,0,0,1,300.3265,93.41194c.90937.835.85746.77034-.08267,1.6346-.71987.66178-1.18687.55279-1.93354.012A71.172,71.172,0,0,0,276.808,83.96948a42.16807,42.16807,0,0,0-13.72416-1.86773,38.33271,38.33271,0,0,0-16.11086,4.37355,34.61613,34.61613,0,0,0-16.56926,18.362,48.4001,48.4001,0,0,0-3.09942,12.19563,63.984,63.984,0,0,0-.48376,10.52884,54.67835,54.67835,0,0,0,.96051,8.94764c.16915.83114-.14448.79862-.73188.79762Q217.14216,137.29015,207.23515,137.29989Z" transform="translate(-183.03003 -64.79666)"/><path class="cls-1" d="M201.53,169.37c4.18994-1.03,6.53-3.45,7.37-7.44a15.74491,15.74491,0,0,0,.15-5.52c-.65-4.51-4.87-8.5-9.18-8.54-5.38-.06-10.76-.01-16.14-.03-.54,0-.7.14-.7.7q.02994,14.97,0,29.94c0,.58.13995.76.74.75,2.3-.03,4.6-.04,6.9.01.75.01.89-.25.88-.92-.04-2.14-.01-4.27-.01-6.53a3.35376,3.35376,0,0,1,.38.27c2.11005,2.19,4.23,4.38,6.33,6.59a1.63485,1.63485,0,0,0,1.32.58c3.64-.02,7.29-.01,10.93-.02.22,0,.48.12.77-.29C208.08,175.79,204.87,172.64,201.53,169.37Zm-1.77-8.16a2.41486,2.41486,0,0,1-2.55,1.68c-1.63-.08-3.28-.04-4.92-.01-.58.01-.79-.16-.76-.76.04-.92.01-1.84.01-2.77,0-.98.02-1.97-.01-2.95-.02-.49.12994-.68.65-.68,1.91.03,3.82.02,5.73.01a1.84916,1.84916,0,0,1,1.6,1.11A4.58685,4.58685,0,0,1,199.76,161.21Z" transform="translate(-183.03003 -64.79666)"/><path class="cls-1" d="M238.28,167.15v-10.3a12.13214,12.13214,0,0,0-.26-2.76,8.12489,8.12489,0,0,0-8.12-6.05q-4.17-.06-8.34,0a8.08164,8.08164,0,0,0-8.26,8.2c-.07,7.41-.01,14.82-.03,22.23,0,.59.17.77.76.76q3.58492-.045,7.17,0c.62.01.75-.21.73-.77-.03-1.38.01-2.75-.02-4.13-.00995-.52.16-.65.66-.64,2.22.02,4.43.03,6.64-.01.58-.01.7.19.68.72-.03,1.37.02,2.75-.02,4.12-.01.55.16.72.71.71,2.27-.03,4.55-.04,6.82.01.69.01.9-.16.89-.88C238.26,174.62,238.28,170.89,238.28,167.15Zm-9.15-2.37c-1.07-.05-2.15-.01-3.23-.01-1.13,0-2.27-.03-3.4.01-.52.01-.67-.17-.66-.67.02-2.21-.01-4.43.00995-6.64a1.79319,1.79319,0,0,1,1.7-1.86,16.39481,16.39481,0,0,1,4.64-.02,1.7772,1.7772,0,0,1,1.66,1.97c0,2.16-.02,4.31.01,6.46C229.87,164.58,229.74,164.81,229.13,164.78Z" transform="translate(-183.03003 -64.79666)"/><path class="cls-1" d="M286.165,179.22007c-2.27076,0-4.54182-.02083-6.812.0135-.62817.0095-.81567-.18168-.80557-.8062.0343-2.12025.04-4.24191-.00238-6.36187-.01373-.68708.15784-.90272.87824-.89653,4.18265.036,8.366-.003,12.54862.03385.89159.00784,1.346-.20591,1.16293-1.1727a2.93325,2.93325,0,0,1-.00465-.53678c0-2.32646.00154-2.24766-2.35989-2.20136a25.76229,25.76229,0,0,1-6.24088-.20487,8.01756,8.01756,0,0,1-6.432-7.97136,20.737,20.737,0,0,1,.20449-4.64369,8.31492,8.31492,0,0,1,7.61012-6.394c4.4797-.093,8.96258-.02856,13.44395-.0549.519-.00305.65311.16561.64787.66351-.02322,2.21019-.03363,4.42117.0047,6.631.01117.643-.19892.791-.81166.78722-4.09317-.02544-8.18713.02268-12.27952-.03941-.97377-.01477-1.22994.28766-1.12912,1.18479a10.74316,10.74316,0,0,1,.00379,1.87971c-.03169.49225.166.59536.61746.5909,2.0614-.02037,4.12336.01088,6.18469-.01277a8.15673,8.15673,0,0,1,8.52446,8.56314,27.54887,27.54887,0,0,1-.15971,4.37673,8.193,8.193,0,0,1-8.16092,6.57036C290.587,179.22829,288.376,179.22008,286.165,179.22007Z" transform="translate(-183.03003 -64.79666)"/><path class="cls-1" d="M254.70847,163.542c0-4.86778.018-9.73569-.01868-14.6032-.00578-.76662.22468-.93648.95221-.9225q3.58329.06885,7.16856.00027c.68776-.01269.83756.19953.83539.85554-.02323,7.07762.00042,14.15542-.03423,21.23294-.00411.83706.23474,1.04309,1.04728,1.03237,3.37491-.04451,6.75083-.007,10.12617-.02983.5792-.0039.8475.087.83453.76235-.04241,2.2091-.03874,4.4199-.00143,6.62918.01047.62054-.21835.73258-.7745.73119q-9.67839-.02406-19.3568.00346c-.64656.00228-.79271-.21488-.79018-.8197C254.71754,173.45677,254.70849,168.49936,254.70847,163.542Z" transform="translate(-183.03003 -64.79666)"/><path class="cls-1" d="M251.07778,163.678c0,4.86746-.01452,9.735.01576,14.60228.00451.72421-.1602.97477-.92954.9586-2.41838-.05088-4.83869-.035-7.25781-.007-.582.00675-.76457-.15812-.76354-.75525q.0258-14.87108-.00191-29.74222c-.00133-.64476.26607-.71359.79312-.70934,2.41929.01948,4.83923.03278,7.258-.00694.68661-.01127.9082.15349.9033.87844C251.06188,153.82348,251.07777,158.75076,251.07778,163.678Z" transform="translate(-183.03003 -64.79666)"/><path class="cls-1" d="M188.9,118.36369c-.17574-.05989-.34566-.11465-.5134-.17545-1.56425-.56685-3.12392-1.14677-4.69466-1.695-.47118-.16447-.67349-.32344-.43007-.8732.74579-1.68437,1.44291-3.39061,2.138-5.09685.18462-.45315.39259-.547.87264-.35949q2.36551.92387,4.77226,1.74078c.5037.17237.64317.33616.40772.86806-.74542,1.684-1.43023,3.39469-2.14817,5.091C189.22159,118.05905,189.22108,118.34982,188.9,118.36369Z" transform="translate(-183.03003 -64.79666)"/><path class="cls-1" d="M236.28965,135.67076c-2.04294-.73554-3.91692-1.42309-5.80257-2.07705a.69124.69124,0,0,1-.54309-.60831,48.34576,48.34576,0,0,1-.522-5.60875c-.01392-.41.102-.51722.52727-.35736,1.56216.58723,3.13871,1.13625,4.71143,1.69518a.56251.56251,0,0,1,.42258.50384C235.38391,131.33644,235.79071,133.43629,236.28965,135.67076Z" transform="translate(-183.03003 -64.79666)"/><path class="cls-1" d="M207.36454,88.93641c-.11732.1339-.21326.24194-.30763.35133-.95246,1.10411-1.92682,2.19049-2.84467,3.32264-.31185.38465-.49187.36436-.8289.065-1.02353-.909-2.058-1.80723-3.11927-2.67155-.415-.338-.38256-.5441-.02073-.89685,1.02336-.99767,2.00737-2.0356,3.01358-3.051.1917-.19346.34288-.50348.712-.16892,1.03618.93914,2.10051,1.84721,3.15124,2.77038A2.947,2.947,0,0,1,207.36454,88.93641Z" transform="translate(-183.03003 -64.79666)"/><path class="cls-1" d="M231.69136,107.83546c1.23813.97828,2.34935,1.8683,3.476,2.73828a.66687.66687,0,0,1,.22846.78719,41.70467,41.70467,0,0,0-.9834,5.60785,22.21542,22.21542,0,0,0-2.52537-1.9203c-1.574-.87845-1.86863-2.023-1.2235-3.64226A36.77567,36.77567,0,0,0,231.69136,107.83546Z" transform="translate(-183.03003 -64.79666)"/><path class="cls-1" d="M240.21141,100.62091c-.79948-1.19342-1.53963-2.30582-2.28963-3.41153a.45118.45118,0,0,1-.00337-.62966,37.37682,37.37682,0,0,1,2.73392-2.95992c.24767-.24642.377-.17555.54108.07643q.95265,1.46312,1.92607,2.91268c.1248.18665.21324.3388.01145.542A35.01368,35.01368,0,0,0,240.21141,100.62091Z" transform="translate(-183.03003 -64.79666)"/><path class="cls-1" d="M223.16771,75.68353c-.17278.03356-.24435-.10234-.32425-.22338-.65485-.99213-1.30088-1.99024-1.969-2.97336-.19689-.28972-.16769-.46315.138-.629,1.12228-.60885,2.24637-1.21507,3.35384-1.85006.3494-.20033.47505-.00889.629.22864.59787.92262,1.1956,1.84536,1.801,2.76307.1593.2415.299.44656-.05731.6488-1.13637.64494-2.26565,1.30236-3.39817,1.95411C223.28935,75.63194,223.23314,75.65312,223.16771,75.68353Z" transform="translate(-183.03003 -64.79666)"/><path class="cls-1" d="M252.03746,90.66368c-.24156.00011-.26272-.19-.31808-.35854-.30561-.93035-.59179-1.86813-.93442-2.78477-.13892-.37164.03443-.48608.30282-.58409,1.25434-.45806,2.51546-.898,3.76407-1.3711.35711-.1353.48612.01279.58243.3054.28758.87367.56843,1.74974.87209,2.61782.0959.27415.08438.46349-.218.55688a32.70131,32.70131,0,0,0-3.8855,1.553C252.14909,90.6228,252.093,90.64219,252.03746,90.66368Z" transform="translate(-183.03003 -64.79666)"/><path class="cls-1" d="M272.53117,71.21356c-.06781,2.00944-.06637,2.00565-1.95632,1.28937-.86367-.32733-1.7239-.67028-2.60588-.9402-.47919-.14665-.69139-.33156-.62144-.869a21.64591,21.64591,0,0,0,.15222-2.31963c.00921-.42291.13414-.51865.53088-.38095.98468.34176,1.98586.63666,2.96665.98873C272.59139,69.55406,272.58674,69.567,272.53117,71.21356Z" transform="translate(-183.03003 -64.79666)"/><path class="cls-1" d="M267.30268,85.99371c.089-1.82627.09-1.8346,1.87293-1.6222.946.1127,1.8868.26885,2.83214.38808.43591.055.62437.23714.56832.70583-.10193.85237.25164,1.997-.31115,2.48405-.49805.431-1.55467-.15922-2.37376-.22918a15.662,15.662,0,0,0-1.77925-.1548c-.72708.0218-.96877-.25145-.81593-.94737A2.974,2.974,0,0,0,267.30268,85.99371Z" transform="translate(-183.03003 -64.79666)"/><path class="cls-1" d="M246.04047,68.1204a6.40785,6.40785,0,0,0-1.50953.02164c-.80819.20152-1.069-.19172-1.196-.8562a3.0497,3.0497,0,0,0-.0857-.34571c-.58079-1.83892-.58267-1.85508,1.29826-2.02609.85743-.078,1.72233-.07111,2.58323-.11494.36677-.01866.60434.0632.71648.47493.20245.74326.44464,1.47814.716,2.19928.16478.43782-.0024.5182-.3856.51251-.71214-.01057-1.42453-.003-2.13681-.003Z" transform="translate(-183.03003 -64.79666)"/></g></svg>