<svg id="Layer_1" data-name="Layer 1" xmlns="http://www.w3.org/2000/svg" viewBox="0 0 123.95745 123.27421"><defs><style>.cls-1{fill:#4fe5c3;}</style></defs><g id="_0CbmZ8.tif" data-name="0CbmZ8.tif"><path class="cls-1" d="M234.23228,171.24428c-.001,8.76869-.14257,17.54081.07113,26.30436.08155,3.34439-1.12918,4.118-4.28906,4.144-11.96923.0988-11.96835.20386-11.96835-11.77194,0-15.05569-.02494-30.11145.00587-45.16709.04624-22.592,16.99648-39.46522,39.68758-39.52877,8.82008-.0247,17.64287.11678,26.45906-.06883,3.07723-.06478,3.92108.8951,3.97088,3.92842.20076,12.22994.30825,12.14232-12.098,12.26123-7.13848.06841-14.32514-.73465-21.41037.45121-12.61533,2.11143-20.21036,10.95109-20.40288,23.638C234.12765,154.03618,234.23325,162.641,234.23228,171.24428Z" transform="translate(-218.03647 -105.15302)"/><path class="cls-1" d="M298.88431,113.22748c0-8.00807,0-8.00807,9.17558-8.00665,6.96576.00107,6.96576.00107,6.96,7.73952-.0062,8.30486-.00661,8.35681-9.4282,8.28457C297.69381,121.18437,299.026,122.26726,298.88431,113.22748Z" transform="translate(-218.03647 -105.15302)"/><path class="cls-1" d="M333.91029,105.22083c8.06,0,8.06,0,8.05806,9.11224-.00145,6.93083-.00145,6.93084-9.29923,6.92787-6.85971-.00218-6.91463-.00264-6.83283-9.90036C325.89624,104.10665,324.79681,105.35292,333.91029,105.22083Z" transform="translate(-218.03647 -105.15302)"/><path class="cls-1" d="M325.818,139.61137c0-7.584,0-7.584,7.6477-7.58437,8.50339-.00044,8.50368-.00044,8.50234,8.67946-.00023,1.48756-.08277,2.98009.01216,4.4615.135,2.10611-.71932,3.05136-2.883,2.9267-1.65681-.09547-3.32394-.01208-4.98649-.01189C325.818,148.08369,325.818,148.08327,325.818,139.61137Z" transform="translate(-218.03647 -105.15302)"/><path class="cls-1" d="M325.818,166.46893c.00013-7.65837.00013-7.65838,7.58779-7.65887,8.56315-.00056,8.56315-.00055,8.56255,8.62918-.00052,7.41973-.00052,7.41973-7.29665,7.42047q-.24928,0-.49857,0C325.81786,174.86,325.81786,174.86,325.818,166.46893Z" transform="translate(-218.03647 -105.15302)"/><path class="cls-1" d="M333.9372,201.62257c-8.85929-.20745-8.06513,1.28936-8.10756-6.13249-.0566-9.898-.02124-9.89823,6.31479-9.90258,9.82052-.00674,9.82051-.00672,9.82391,6.38552C341.97346,201.61223,341.97347,201.61223,333.9372,201.62257Z" transform="translate(-218.03647 -105.15302)"/><path class="cls-1" d="M226.16674,228.42022c-8.12219.00008-8.12219.00008-8.1207-9.05017.00115-7.00861.00114-7.00862,9.21556-7.00595,6.92564.002,6.98233.0025,6.9,9.8335C234.10043,229.49119,235.25973,228.29427,226.16674,228.42022Z" transform="translate(-218.03647 -105.15302)"/><path class="cls-1" d="M252.54436,228.42025c-7.53469-.00022-7.53469-.00022-7.53486-7.65779-.00019-8.39865-.00019-8.3987,8.326-8.39832a33.55461,33.55461,0,0,0,3.98688-.025c3.16471-.38115,4.18466,1.08452,3.85734,4.00612a31.30289,31.30289,0,0,0-.02,3.46863C261.16064,228.42051,261.16061,228.42051,252.54436,228.42025Z" transform="translate(-218.03647 -105.15302)"/><path class="cls-1" d="M279.99973,228.42022c-8.03513,0-8.03513,0-8.032-9.13885.0024-6.92076.0024-6.92076,9.31208-6.91726,6.82257.00256,6.87844.003,6.79506,9.92337C288.0141,229.52313,289.132,228.28913,279.99973,228.42022Z" transform="translate(-218.03647 -105.15302)"/><path class="cls-1" d="M306.955,228.42022c-8.07256,0-8.07255,0-8.07065-9.12061.00145-6.94206.00169-6.98208,9.81037-6.92265,7.637.04628,6.1787-.84,6.29861,7.90492C315.10487,228.419,315.01164,228.42025,306.955,228.42022Z" transform="translate(-218.03647 -105.15302)"/><path class="cls-1" d="M341.96841,220.47069c.00006,7.95175.00006,7.95175-9.23654,7.94953-6.91716-.00165-6.91716-.00165-6.91385-9.30642.0024-6.75982.00282-6.812,10.0246-6.73215C343.0741,212.4393,341.83867,211.38276,341.96841,220.47069Z" transform="translate(-218.03647 -105.15302)"/></g></svg>