<svg id="Layer_1" data-name="Layer 1" xmlns="http://www.w3.org/2000/svg" viewBox="0 0 193.5216 145.10207"><defs><style>.cls-1{fill:#d87ea9;}</style></defs><g id="_0cyVhE.tif" data-name="0cyVhE.tif"><path class="cls-1" d="M401.53,190.02a20.684,20.684,0,0,0-10.25-12.17c-7.37006-4.1-15.27-4.51-23.38-3.07a37.2172,37.2172,0,0,0-9.52,3.09c-.31.15-.54.21-.73-.18-1.53-3.24-3.52-6.28-3.9-9.99a24.10574,24.10574,0,0,1-.08-6.68,55.706,55.706,0,0,1,2.02-7.17,1.42345,1.42345,0,0,0-.6-1.9,3.27588,3.27588,0,0,0-1.23-.56,17.20215,17.20215,0,0,0-8.91.69,1.68072,1.68072,0,0,0-1.14,1.21c-.2.76-.51,1.48-.69,2.24a37.95183,37.95183,0,0,1-3.02,8.65q-3.465,6.81-7.32,13.38c-.73,1.25-1.49,2.49-2.27,3.79a23.05714,23.05714,0,0,1-2.96-8.13,21.44228,21.44228,0,0,1,.47-8.81c.5-1.66,1.03-3.32,1.58-4.96a1.42837,1.42837,0,0,0-.57-1.71,2.95244,2.95244,0,0,0-1.22-.59,17.00222,17.00222,0,0,0-9.05.67005,1.907,1.907,0,0,0-1.2,1.53,38.52562,38.52562,0,0,1-1.53,5.36c-2.14,5.24-4.47,10.4-6.79,15.56-3.26,7.28-6.36,14.64-10.09,21.69a9.46685,9.46685,0,0,1-1.06,1.65c-.26.3-.43006.31-.52-.15a11.4707,11.4707,0,0,1-.06-3.46,64.7925,64.7925,0,0,1,1.85-8.92c1.03-4.04,2.09-8.07,3.13-12.11a2.416,2.416,0,0,0-.69-2.55,4.04624,4.04624,0,0,0-5.19-.35c-.14.1-.26.25-.47.21-.12-.25,0-.49.03-.73a17.865,17.865,0,0,0-.1-6.68c-.65-2.6-2.15-4.36-4.94-4.72a9.51454,9.51454,0,0,0-4.8.68,30.89447,30.89447,0,0,0-12.05,9.11c-.56006.66-.91,1.53-1.72,1.97-6.09,3.34-12.19,6.66-18.28,10.01a.72442.72442,0,0,1-1.07-.2,64.79377,64.79377,0,0,0-6.3-5.76c-5.06-4.13995-10.48-7.85-15.24-12.37a31.28208,31.28208,0,0,1-6.38995-8.08c-2.57-4.93-2.51-10.02-.81006-15.15,1.62006-4.92,4.65-8.96,8.21-12.62a81.52615,81.52615,0,0,1,16.18-12.58c10.17-6.23,20.78-11.49,32.41-14.48a71.14235,71.14235,0,0,1,13.67-2.23,48.51324,48.51324,0,0,1,10.7.41,26.61909,26.61909,0,0,1,9.12,3,10.161,10.161,0,0,1,5.31,7.06,15.58494,15.58494,0,0,1-.17,6.45c-1.19,5.22-4,9.57-7.52,13.5a51.11375,51.11375,0,0,1-15.31,11.51,62.27856,62.27856,0,0,1-19.21,6,34.88333,34.88333,0,0,1-11.93-.05,18.97612,18.97612,0,0,1-9.2-4.26c-.55-.48-1.01-1.05-1.54-1.55a1.01111,1.01111,0,0,0-1.23-.32,1.06723,1.06723,0,0,0-.55,1.14,4.10815,4.10815,0,0,0,.2,1.11,12.59694,12.59694,0,0,0,4.66,5.99c4.25,3.34,9.23,4.59,14.5,4.83a62.39,62.39,0,0,0,11.98-.55,72.23437,72.23437,0,0,0,16.36-4.35,49.16263,49.16263,0,0,0,24.71-21.18c3.44-5.86,5.4-12.16,4.76-19.08A20.17567,20.17567,0,0,0,328.72,105a21.60287,21.60287,0,0,0-9.85-9.56,44.05428,44.05428,0,0,0-16.86-4.56,21.144,21.144,0,0,1-3.36-.27h-4.23a.83644.83644,0,0,1-.46.1h-.02c-.11-.00995-.22-.03-.33-.03a49.34176,49.34176,0,0,0-5.95.34,78.77552,78.77552,0,0,0-15.16,3.4,154.72532,154.72532,0,0,0-19.66,8.15A133.55261,133.55261,0,0,0,240,109.79a96.62525,96.62525,0,0,0-18.47,14.89,64.64994,64.64994,0,0,0-7.25,9.17,38.24431,38.24431,0,0,0-5.05,11.25,27.846,27.846,0,0,0-.42,3.27v3.18c.28,1.06.51,2.13.84,3.18a33.4177,33.4177,0,0,0,8.13,12.92,94.79112,94.79112,0,0,0,14.28,11.85c3.86,2.74,7.82,5.34,11.63,8.16a29.61737,29.61737,0,0,1,3.07,2.49,4.063,4.063,0,0,1-.44.26c-3.34,1.77-6.7,3.49-9.93,5.47-5.46,3.35-10.74,6.96-15.14,11.68a21.2221,21.2221,0,0,0-6.1,15.83,14.4303,14.4303,0,0,0,2.6,7.84A8.30453,8.30453,0,0,0,222,234.7a23.644,23.644,0,0,0,7.37,1.01,27.13536,27.13536,0,0,0,10.02-1.93c8.91-3.64,15.22-9.86,18.55-18.93a32.931,32.931,0,0,0,1.87-14.03,24.91449,24.91449,0,0,0-2.17-9.03c-.23-.49-.03-.66.34-.87,2.35-1.36,4.7-2.75,7.05-4.1.99-.57,2.01-1.08,3.17-1.71l.12-.06c-.02.04-.03.09-.05.13a39.31342,39.31342,0,0,0-1.92,7.88,33.75356,33.75356,0,0,0-.06,11.86,27.47758,27.47758,0,0,0,4.2,10.41,6.88026,6.88026,0,0,0,8.3,2.19,8.49542,8.49542,0,0,0,3.72-3.64,95.82208,95.82208,0,0,0,5.85-12.17c.21-.5.43-1,.65-1.51a54.47734,54.47734,0,0,0-.31,6.36,14.69016,14.69016,0,0,0,1.24,6.09,4.393,4.393,0,0,0,6.82,1.81,15.66708,15.66708,0,0,0,4.75-5.3c2.58-4.44,4.97-8.99,7.31-13.57,3.56-7,6.66-14.21,9.61-21.48.09-.22.11-.48.42-.61a59.7572,59.7572,0,0,0,1.9,7.73,59.52018,59.52018,0,0,0,3.63,8.12,1.06947,1.06947,0,0,1-.08,1.27c-2.78,3.97-6.02,7.56-9.1,11.29a45.8061,45.8061,0,0,0-4.1,5.31c-.74,1.23-1.11,2.58-.19,3.9a3.82179,3.82179,0,0,0,3.23,1.51,24.15284,24.15284,0,0,0,16.6-5.76,12.78041,12.78041,0,0,0,4.7-9.45,21.53332,21.53332,0,0,0-1.93-9.53,1.0631,1.0631,0,0,1,.09-1.17,152.60756,152.60756,0,0,0,10.88-18.47c.1-.2.11005-.49.45-.56a45.5436,45.5436,0,0,0,4.95,14.73.71717.71717,0,0,1-.22,1.08,33.989,33.989,0,0,0-3.87994,3.71,30.26967,30.26967,0,0,0-5.32,7.75,15.36978,15.36978,0,0,0-1.58,7,4.48012,4.48012,0,0,0,3.45,4.33,5.226,5.226,0,0,0,2.82995-.08A26.71754,26.71754,0,0,0,358.03,198.69a11.94729,11.94729,0,0,0,3.52-8.95,20.7619,20.7619,0,0,0-1.44-6.3c-.15-.38-.12-.57.3-.7.94-.29,1.85-.68,2.79-.94a37.96138,37.96138,0,0,1,12.47-1.27,37.39877,37.39877,0,0,1,11.13,2.18,18.25506,18.25506,0,0,1,9.71,7.77,11.44118,11.44118,0,0,1,1.76,6.62,9.828,9.828,0,0,1-3.69,6.86c-.85.72-1.79,1.3-2.69,1.94-.34.24-.61.54-.41,1.02a.84446.84446,0,0,0,.99.51,4.41886,4.41886,0,0,0,1.25-.26,13.57721,13.57721,0,0,0,6.99-5.96C402.72,197.63,402.7,193.83,401.53,190.02Zm-55.79,7.65a24.08267,24.08267,0,0,1,6.97-10.83,2.3385,2.3385,0,0,1,.23-.15,10.25533,10.25533,0,0,1-4.57,12.34,24.08614,24.08614,0,0,1-2.17,1.05c-.63.27-.78.14-.81-.56A5.06568,5.06568,0,0,1,345.74,197.67Zm-26.71,8.87a1.80937,1.80937,0,0,1-.57.18c-.18.03-.43.1-.55-.11-.12-.22.08-.38.21-.52a129.13891,129.13891,0,0,0,9.07-10.61,1.22584,1.22584,0,0,1,.2-.14,8.22677,8.22677,0,0,1-.86,4.02A16.598,16.598,0,0,1,319.03,206.54Zm-27.72-33.02a64.35913,64.35913,0,0,1-3.71,13.02c-1.94,5.34-3.91,10.68-6.35,15.82a14.70535,14.70535,0,0,1-1.98,3.2c-.92,1.09-1.82,1.02-2.47-.24a13.435,13.435,0,0,1-1.13-5.12c-.05-.65-.01-1.31-.01-1.96A35.54218,35.54218,0,0,1,281.28,179.26a18.43935,18.43935,0,0,1,5.74-6.51,7.88232,7.88232,0,0,1,2.34-1.03C290.75,171.39,291.5,172.12,291.31,173.52Zm-54.72,50.41a11.37379,11.37379,0,0,1-6.13.82,3.86945,3.86945,0,0,1-3.35-3.56,13.60536,13.60536,0,0,1,1.61-7.94,24.733,24.733,0,0,1,6.69-8.18,108.30737,108.30737,0,0,1,15.4-10.62c.54-.32.67-.15.78.33a28.67271,28.67271,0,0,1,.81,5.36,24.78523,24.78523,0,0,1-5.98,16.73A23.39949,23.39949,0,0,1,236.59,223.93Z" transform="translate(-208.81 -90.60999)"/></g></svg>