<svg id="Layer_1" data-name="Layer 1" xmlns="http://www.w3.org/2000/svg" viewBox="0 0 245.93287 109.22684"><defs><style>.cls-1{fill:#8caebc;}.cls-2{fill:#004c6a;}.cls-3{fill:#0093d5;}.cls-4{fill:#ccc;}.cls-5{fill:#79a1b1;}.cls-6{fill:#a4dff7;}.cls-7{fill:#9ddaf5;}.cls-8{fill:#92d5f2;}.cls-9{fill:#a1ddf6;}.cls-10{fill:#8ad0f0;}.cls-11{fill:#7fcaed;}.cls-12{fill:#7ac7ec;}.cls-13{fill:#8ed2f1;}.cls-14{fill:#65bce7;}.cls-15{fill:#96d7f3;}.cls-16{fill:#45ace0;}.cls-17{fill:#54b3e3;}.cls-18{fill:#77c5eb;}.cls-19{fill:#71c2ea;}.cls-20{fill:#6abee8;}.cls-21{fill:#60bae5;}.cls-22{fill:#83ccee;}.cls-23{fill:#269fda;}.cls-24{fill:#99d9f4;}.cls-25{fill:#4baee1;}.cls-26{fill:#40a9df;}.cls-27{fill:#6dc0e9;}.cls-28{fill:#0f97d6;}.cls-29{fill:#1e9cd9;}.cls-30{fill:#5cb7e4;}.cls-31{fill:#4fb1e2;}.cls-32{fill:#1799d7;}.cls-33{fill:#86ceef;}.cls-34{fill:#35a5dc;}.cls-35{fill:#30a2db;}.cls-36{fill:#2ca1db;}.cls-37{fill:#58b5e4;}.cls-38{fill:#0595d6;}.cls-39{fill:#3ca7de;}.cls-40{fill:#38a6dd;}.cls-41{fill:#2c9fd8;}.cls-42{fill:#3da6da;}.cls-43{fill:#2097d0;}.cls-44{fill:#0372a0;}.cls-45{fill:#076a91;}.cls-46{fill:#187da9;}.cls-47{fill:#2993c5;}.cls-48{fill:#9fbcc7;}</style></defs><g id="GaMDqC.tif"><path class="cls-1" d="M204.23779,115.72443a.46174.46174,0,0,0,.0179.19017,1.76235,1.76235,0,0,1-2.2004-.00056.34506.34506,0,0,0,.01808-.18961Z" transform="translate(-117.29776 -115.72443)"/><path class="cls-2" d="M202.05529,115.914l2.2004.00056c3.9981.65026,6.38153,3.27909,7.99067,6.71054,1.71035,3.64729,1.73913,7.52734,1.17082,11.43032-1.07076,7.35387-3.97145,14.0742-7.28094,20.63873-2.08826,4.14215-4.43988,8.13992-6.89081,12.07945a2.28452,2.28452,0,0,1-1.29151,1.03064,81.651,81.651,0,0,0-12.42658,5.713.66377.66377,0,0,0-.29.33716c3.64785-1.18543,7.36664-2.04444,11.288-2.93328-1.9043,2.94984-3.82923,5.62659-5.75971,8.29939-.44242.61254-.9122,1.20567-1.34589,1.82417a17.7957,17.7957,0,0,1-6.10516,5.72766,20.50372,20.50372,0,0,0-9.175,10.00789.14451.14451,0,0,1-.229.01165,135.06349,135.06349,0,0,1,3.78192-15.71621,196.95546,196.95546,0,0,1,21.77558-48.08123,60.43578,60.43578,0,0,1,4.30534-6.079c.16006-.199.49119-.33871.35556-.783a2.55523,2.55523,0,0,0-1.04568.84432c-6.10621,6.17264-10.84374,13.33288-15.06594,20.86264a133.07856,133.07856,0,0,0-15.08988,42.35228,94.36593,94.36593,0,0,0-1.572,23.54022,42.74941,42.74941,0,0,0,1.41863,8.50268c.10024.35235.63891.98014-.128,1.15394-.64268.14562-.55652-.59407-.67356-.96422a44.77954,44.77954,0,0,1-1.77772-10.397c-.76679-1.42926-.495-3.02021-.66645-4.53589a20.86506,20.86506,0,0,1-.01721-3.67014c.32706-5.06776-.72423-9.96011-1.8212-14.8493-.12608-.56194-.27171-1.11972-.39849-1.6805-.11056-.33188-.19121-.67311-.284-1.0102a14.48014,14.48014,0,0,0-.60795-2.00005c-.23906-.75994-.5721-1.48323-.87312-2.21961a6.36284,6.36284,0,0,1-.09237-2.13693c.023-.44607.16037-.87248.22266-1.312.12144-.59477.291-1.178.42615-1.76971a3.87428,3.87428,0,0,1,.43531-1.25649c.51928-.25106.68938.15789.90838.47666.79488,1.45619,1.56319,2.92771,2.365,4.38073.07156.30006.27735.56178.2641.77226a4.05576,4.05576,0,0,0-.48322-1.283c-.52654-1.21287-.51286-2.59951-1.21912-3.75347-.43772-.82525-.475-1.82106-1.10016-2.56706a1.01212,1.01212,0,0,1-.00149-1.059,11.38473,11.38473,0,0,0,.44724-1.31758c.18058-.65852.36861-1.31458.58823-1.96149a3.60352,3.60352,0,0,1,.18271-.5018c.1475-.31031.20837-.75046.6556-.73771.3534.01007.50818.35757.65852.63926.3354.62844.748,1.21322,1.05207,1.85861a30.21,30.21,0,0,1,1.27359,2.77768,4.09248,4.09248,0,0,1,.26133.69206,9.03736,9.03736,0,0,0,.42911,1.494,1.81251,1.81251,0,0,0-.24788-.80078,2.8539,2.8539,0,0,0-.21814-.85011,3.88444,3.88444,0,0,0-.27619-.71c-.34826-.93792-.52275-1.93241-.93941-2.84749-.53318-.96022-.616-2.08138-1.10311-3.0583a4.01906,4.01906,0,0,1-.42224-1.97353c.104-.60188.32121-1.179.39422-1.78816.14718-.69781.33563-1.38585.5-2.07961.13721-.46427.24214-.938.39119-1.39907.18551-.55305.29181-1.12952.488-1.67961a14.54783,14.54783,0,0,0,.56736-1.80366,24.17227,24.17227,0,0,1,.89033-2.55964c.223-.58874.39356-1.19666.63878-1.77745.25942-.56264.41129-1.16641.656-1.73475.23157-.56646.473-1.12905.67952-1.70573.29267-.65508.595-1.306.84634-1.97887a12.10966,12.10966,0,0,0,.88967-2.10756c.38353-.71187.802-1.40566,1.12573-2.149a8.16829,8.16829,0,0,0,.79117-1.75819c.20531-.56653.67065-.98649.874-1.55443.33239-.72578.81473-1.36867,1.15277-2.0913.30733-.624.704-1.197,1.03371-1.80834.44526-.70952.88286-1.42376,1.29589-2.15274.36181-.5825.76212-1.13973,1.13224-1.71688.38713-.55833.76334-1.12393,1.119-1.7032.55024-.80453,1.17951-1.55129,1.72477-2.35962.4436-.51805.82031-1.09,1.2779-1.597.78144-.95082,1.56464-1.90016,2.40471-2.80105a13.95766,13.95766,0,0,1,2.55317-2.26292,27.0748,27.0748,0,0,1,5.73159-3.82279A11.47607,11.47607,0,0,1,202.05529,115.914Z" transform="translate(-117.29776 -115.72443)"/><path class="cls-3" d="M167.45246,187.04076a77.13721,77.13721,0,0,1,1.93567,8.68125,26.89781,26.89781,0,0,1,.436,6.2108,77.08269,77.08269,0,0,0,.37094,10.09666c-.27736-.58842-.81265-.35078-1.23821-.35112q-21.53254-.01714-43.06512-.01238a8.28622,8.28622,0,0,1-8.33671-6.3573,10.72072,10.72072,0,0,1-.25567-2.57268q-.00142-36.63613.0021-73.27227c.00108-4.43563,2.36953-7.61085,6.3855-8.63713a10.31423,10.31423,0,0,1,2.57914-.20933q32.894-.00789,65.78793-.00106c.32162.00006.64322.04672.96517.07159q-1.19718,1.19043-2.39506,2.38095a3.73854,3.73854,0,0,1-2.20708.3504q-31.16538.00489-62.33074-.00964a5.819,5.819,0,0,0-4.74076,1.8987,4.10762,4.10762,0,0,0-1.12636,1.94413c-.11646.29207-.14949.60561-.236.90621a5.99725,5.99725,0,0,0-.06531,1.40069q-.00266,23.32912.00048,46.65815c-.008,2.53231-.00358,5.06472-.00026,7.597.00032.7204-.00368,1.44088.00133,2.16143a1.01609,1.01609,0,0,0,1.11425,1.155q.59511.01413,1.19.01493,21.42611.00068,42.85221.00386C165.87086,187.14989,166.6614,187.10136,167.45246,187.04076Z" transform="translate(-117.29776 -115.72443)"/><path class="cls-4" d="M273.46,223.17c-.15-.36-.21-.68-.82-.5-3.99,1.2-7.34-.06-10.31-2.76-2.68-2.43-4.8-5.35-7.27-8.13.47-.12.82-.21,1.17-.3a21.31219,21.31219,0,0,0,15.1-27.28c-2.72-8.37-11.89-16.6-25.3-14.12A21.29779,21.29779,0,0,0,228.85,189.92c-.53,11.34,8.34,19.96,16.12,21.63a5.06711,5.06711,0,0,1,2.33,1.29,58.55966,58.55966,0,0,1,4.51,4.8c2.99,3.4,6.42,6.1,11.03,6.92a18.7071,18.7071,0,0,0,10.11-.66C273.28,223.77,273.7,223.69,273.46,223.17Zm-34.81-18.86a21.7611,21.7611,0,0,1-3.35-9.91c-.46-5.04-.16-10.01,2.11-14.67,3.89-8,13.44-11.02,20.73-6.5,3.93,2.43,6.02,6.17,7.13,10.54a31.92774,31.92774,0,0,1,.86,7.52c-.06,4.89-1,9.62-4.04,13.81C256.86,212.29,244.35,213.2,238.65,204.31Z" transform="translate(-117.29776 -115.72443)"/><path class="cls-4" d="M199.55483,206.17359q0-2.32377-.001-4.64752c-.00074-.439-.06471-.83715.62715-.84863.72218-.012.58662.4343.62.84511a9.83293,9.83293,0,0,0,12.94115,8.73847,6.89986,6.89986,0,0,0,4.03481-10.18042,12.40544,12.40544,0,0,0-3.97765-4.0577c-2.72944-1.876-5.54692-3.62475-8.26726-5.51337-4.77688-3.31639-6.66942-7.91552-5.46208-13.035a10.066,10.066,0,0,1,8.95446-7.70956,17.51012,17.51012,0,0,1,6.93914.73823c.75409.23729,1.52511.42035,2.28493.64016.68107.197,1.22571.1097,1.44848-.66381.136-.47233.49733-.44216.8635-.41892.5292.03358.376.44689.37714.73216.01088,2.702.00763,5.40407.00469,8.10612-.00035.313.07943.67109-.4459.67041-.429-.00056-.79461-.008-.84676-.56585a8.88008,8.88008,0,0,0-13.57489-6.56748c-2.592,1.699-3.3808,4.87854-1.96969,7.93691a10.01167,10.01167,0,0,0,2.97659,3.51188,56.086,56.086,0,0,0,6.013,4.01962,42.27136,42.27136,0,0,1,6.048,4.34384c4.11065,3.66953,5.21208,8.89,2.8638,13.59119a11.61538,11.61538,0,0,1-12.7336,6.22071,44.443,44.443,0,0,1-5.90642-1.69847c-1.08134-.3639-1.93079-.26435-2.38132.89848-.22189.5727-.67374.45356-1.08233.42379-.51636-.03762-.33722-.47348-.3401-.75482C199.54648,209.34407,199.55485,207.75879,199.55483,206.17359Z" transform="translate(-117.29776 -115.72443)"/><path class="cls-4" d="M289.04089,211.52919c-4.07544,0-8.15092.00868-12.22621-.01624-.33094-.002-.90869.33481-.952-.46062-.03537-.64965.21911-.812.83653-.929,2.21371-.41951,2.91663-1.2375,3.05268-3.51484.08367-1.40068.06846-2.80828.06843-4.21277-.00015-9.11329.00864-18.22664-.02372-27.33984-.01047-2.94739-.78433-3.74543-3.72649-4.03981-.57575-.0576-.95-.13346-.91644-.84795.03569-.75972.57187-.5134.937-.51481,4.00325-.01554,8.0066-.00324,12.00986-.01752.5313-.00189.88273.04009.91873.71268.03639.68-.39414.63438-.82168.70758-1.98887.34052-2.74279,1.177-2.97111,3.367-.08193.78587-.07218,1.58287-.0765,2.375q-.07588,13.88606-.14093,27.77214a12.71113,12.71113,0,0,0,.03424,1.40335,3.76714,3.76714,0,0,0,3.70265,3.787,30.73031,30.73031,0,0,0,8.72711-.25932,4.816,4.816,0,0,0,4.16112-3.72544c.136-.53218.33237-.83406.93517-.74513.78128.11528.36836.68768.34566,1.01166-.11058,1.5792-.32673,3.151-.43988,4.7301-.05076.70832-.41387.76881-.99157.76634C297.33606,211.52094,293.18846,211.52918,289.04089,211.52919Z" transform="translate(-117.29776 -115.72443)"/><path class="cls-4" d="M362.63,204.02c-.45-.33-.49.27-.63.47a9.99144,9.99144,0,0,1-5.72,3.99c-4.34,1.16-7.78-.82-8.95-5.14-.64-2.38-.64-2.4,1.76-2.89A19.15434,19.15434,0,0,0,360.41,194.03a3.76151,3.76151,0,0,0-1.42-6.01c-3.71-1.39-7.41-1.33-10.61,1.34a14.37871,14.37871,0,0,0-5.25,11.25,15.85191,15.85191,0,0,0,.3,3.23c.64,3.22,1.97,6.13,5.19,7.34,5.64,2.12,11.93,1.03,14.54-6.05C363.41,204.46,362.94,204.25,362.63,204.02Zm-15.73-6.28a10.66187,10.66187,0,0,1,2.44-6.49,3.72534,3.72534,0,0,1,5.11-.89,3.62792,3.62792,0,0,1,.88,5.45,7.98056,7.98056,0,0,1-3.24,2.28,22.67474,22.67474,0,0,1-3.8,1.2C346.87,199.64,346.86,199.64,346.9,197.74Z" transform="translate(-117.29776 -115.72443)"/><path class="cls-4" d="M326.49171,199.39134c0-2.88137-.02361-5.76306.01676-8.64385.01-.70917-.18189-.94394-.89739-.89757-.93368.0605-1.87439.00677-2.81185.01859-.36267.00456-.65068-.02592-.6062-.502.03127-.33454-.12381-.70495.451-.78988,3.5445-.52367,5.406-2.86174,6.45008-6.05386.08819-.26956.07778-.636.41191-.698.54182-.10053,1.08341-.18546,1.05134.70934-.05158,1.43889.053,2.88515-.03723,4.32021-.0595.946.27745,1.13428,1.14406,1.09312,1.51121-.0718,3.03071.03264,4.54216-.03653,1.213-.0555.65837.83046.791,1.33009.18553.69871-.33213.6265-.77026.62537-1.62281-.00419-3.24625.02448-4.86811-.01476-.62963-.01524-.87993.11309-.8776.81752.0171,5.15047-.04008,10.30126-.0115,15.4516.01516,2.73528,1.478,3.69917,4.05156,2.78039a11.44552,11.44552,0,0,0,4.25271-2.89159c.52169-.5279.8161-.42245,1.28227.02156.60172.57309-.07464.74137-.29063.97385a18.149,18.149,0,0,1-5.25438,4.09274,9.9559,9.9559,0,0,1-3.29881.96387c-2.79674.315-4.49227-1.10826-4.68841-3.92153A82.05677,82.05677,0,0,1,326.49171,199.39134Z" transform="translate(-117.29776 -115.72443)"/><path class="cls-4" d="M316.09133,197.81034c0,3.09393-.04259,6.18864.01437,9.28152.04078,2.21516.66559,2.78842,2.85011,2.90679.35967.01949.71969.0416,1.07968.04423.57243.00418.45332.42374.48758.767.04051.40572-.182.46781-.51843.4673q-5.67426-.00859-11.34853.00305c-.40613.00118-.59181-.09857-.554-.543.03232-.38038.01346-.74485.55568-.69566.03558.00322.07194-.00374.10794-.00378,3.11372-.00277,3.03912-.66,3.09344-3.24961.09206-4.38852.10449-8.7788.13206-13.16846a8.63875,8.63875,0,0,0-.17-1.606,1.9741,1.9741,0,0,0-2.18938-1.78528c-.68122.01614-1.35878.15292-2.0404.20194-.297.02137-.79324.335-.77686-.32668.01009-.40771-.259-.94171.488-1.1037,2.459-.53321,4.89991-1.15111,7.36342-1.6611,1.30222-.26958,1.41684-.11347,1.41657,1.18781q-.001,4.64177-.00023,9.28354Z" transform="translate(-117.29776 -115.72443)"/><path class="cls-4" d="M314.60868,180.12319a1.8167,1.8167,0,0,1-1.8234,1.86582,3.086,3.086,0,0,1-2.89619-2.81166,1.88323,1.88323,0,0,1,1.91536-1.79754A2.94727,2.94727,0,0,1,314.60868,180.12319Z" transform="translate(-117.29776 -115.72443)"/><path class="cls-5" d="M173.91057,196.79188l.229-.01165a1.316,1.316,0,0,1-.3201.77933A.54143.54143,0,0,1,173.91057,196.79188Z" transform="translate(-117.29776 -115.72443)"/><path class="cls-6" d="M120.88765,125.42124a5.1676,5.1676,0,0,1,3.92927-2.34927,10.58835,10.58835,0,0,1,1.40287-.04614q31.663-.00294,63.326.00015c.35941,0,.71882.02795,1.07825.04281q-1.21739,1.40282-2.43483,2.80574a1.495,1.495,0,0,1-.93686.17162c-21.32145-.0529-42.64294-.00843-63.96441-.02389a10.15565,10.15565,0,0,1-1.51063-.036C121.41448,125.93144,120.9379,125.99238,120.88765,125.42124Z" transform="translate(-117.29776 -115.72443)"/><path class="cls-7" d="M119.79417,127.83253c.05889-.23229.02605-.4966.2365-.676,1.04253.10285,2.088.107,3.13442.10637,20.95823-.01307,41.91648.01952,62.87471-.01731a1.46725,1.46725,0,0,1,.93938.16509,16.27974,16.27974,0,0,1-1.73333,2.38126,1.3957,1.3957,0,0,1-1.19748.3484q-31.29027-.03772-62.58053-.01471a2.81437,2.81437,0,0,1-1.57841-.24219A3.68526,3.68526,0,0,1,119.79417,127.83253Z" transform="translate(-117.29776 -115.72443)"/><path class="cls-8" d="M182.995,133.23328l-1.30371,2.15324a3.44235,3.44235,0,0,1-1.2808.15052q-29.32587-.00873-58.65173-.00824a3.26784,3.26784,0,0,1-1.89755-.26369,4.47506,4.47506,0,0,1-.02788-2.30918,2.21086,2.21086,0,0,1,1.45508-.287q29.85-.00863,59.70008.00358A2.33655,2.33655,0,0,1,182.995,133.23328Z" transform="translate(-117.29776 -115.72443)"/><path class="cls-9" d="M186.97918,127.41068a3.1777,3.1777,0,0,1-1.3738.20639q-32.21341-.00508-64.42681-.01386c-.40866-.00024-.99009.26893-1.14785-.44658a2.90111,2.90111,0,0,1,.857-1.73534c.377.42712.88041.23854,1.32473.23874q32.08356.01462,64.16712.00366a5.74787,5.74787,0,0,1,1.80968.21084Z" transform="translate(-117.29776 -115.72443)"/><path class="cls-10" d="M180.66151,137.13036a11.73,11.73,0,0,1-1.14677,2.15585,2.37249,2.37249,0,0,1-1.54838.35423q-28.31948.00538-56.639-.00221a2.40339,2.40339,0,0,1-1.46343-.26385,4.39822,4.39822,0,0,1-.02766-2.31314,2.22327,2.22327,0,0,1,1.455-.286q28.91865-.00933,57.83729.00151A1.96315,1.96315,0,0,1,180.66151,137.13036Z" transform="translate(-117.29776 -115.72443)"/><path class="cls-11" d="M177.83008,142.52974a7.71957,7.71957,0,0,1-1.069,2.16575,2.18,2.18,0,0,1-1.05863.14369q-26.91871-.03249-53.83743-.01529a3.51,3.51,0,0,1-2.00373-.26308,4.47383,4.47383,0,0,1-.02809-2.30925,2.21161,2.21161,0,0,1,1.4557-.28705q27.26577-.00848,54.53154.0036A2.36735,2.36735,0,0,1,177.83008,142.52974Z" transform="translate(-117.29776 -115.72443)"/><path class="cls-12" d="M119.82134,144.47623q27.73323-.00016,55.46647.00039a2.62374,2.62374,0,0,1,1.4733.21886,8.54528,8.54528,0,0,1-.90535,2.15031,3.5041,3.5041,0,0,1-1.281.14839q-26.45045-.00886-52.90091-.00755a3.20494,3.20494,0,0,1-1.794-.24837A4.16883,4.16883,0,0,1,119.82134,144.47623Z" transform="translate(-117.29776 -115.72443)"/><path class="cls-13" d="M180.66151,137.13036l-60.84421-.004a4.19748,4.19748,0,0,1-.0012-1.94546q30.25512-.0003,60.51025.00081a2.30938,2.30938,0,0,1,1.36494.2048A7.88008,7.88008,0,0,1,180.66151,137.13036Z" transform="translate(-117.29776 -115.72443)"/><path class="cls-14" d="M173.03156,153.99386l-.87043,2.57541a2.28018,2.28018,0,0,1-1.16549.151q-24.61911-.00781-49.23822-.00674a3.26168,3.26168,0,0,1-1.89738-.264,4.52443,4.52443,0,0,1-.02926-2.30656,2.19853,2.19853,0,0,1,1.45355-.288q25.39922-.01569,50.79846-.00872A1.82444,1.82444,0,0,1,173.03156,153.99386Z" transform="translate(-117.29776 -115.72443)"/><path class="cls-15" d="M182.995,133.23328a10.23686,10.23686,0,0,0-2.8875-.21445q-30.14628-.00027-60.29257.00031a2.81561,2.81561,0,0,1,.066-1.83111,2.513,2.513,0,0,1,1.46917-.24953q30.50106-.00731,61.00212.00588c.6209.00039,1.33215-.154,1.74409.55629Z" transform="translate(-117.29776 -115.72443)"/><path class="cls-16" d="M170.6479,170.65085l-1.52741-2.52685c-.39824.3334-.31837.86386-.60321,1.21157a1.97861,1.97861,0,0,1-1.43443.35084q-22.9311.00979-45.8622-.00039a2.21,2.21,0,0,1-1.35644-.26291,4.4036,4.4036,0,0,1-.02865-2.31281,2.21851,2.21851,0,0,1,1.45392-.28631q23.71493-.00918,47.42986-.005a2.82259,2.82259,0,0,1,1.5575.34791c.57661.92468.55423,2.06273,1.074,3.00767C171.52909,170.94068,171.1033,170.81756,170.6479,170.65085Z" transform="translate(-117.29776 -115.72443)"/><path class="cls-17" d="M170.7353,161.34919l-.51367,2.15662c-.24758.4317-.67416.35376-1.05928.35323-15.98489-.02208-31.9698.00324-47.95469-.01223a2.16094,2.16094,0,0,1-1.3524-.26722,4.49751,4.49751,0,0,1-.01632-2.30888,2.23919,2.23919,0,0,1,1.45646-.28381q23.955-.00924,47.91.00181A1.92474,1.92474,0,0,1,170.7353,161.34919Z" transform="translate(-117.29776 -115.72443)"/><path class="cls-18" d="M119.82224,146.63788q27.28032-.0001,54.56064.00208a2.53244,2.53244,0,0,1,1.4729.20584,8.65942,8.65942,0,0,1-.85084,1.9526,1.23357,1.23357,0,0,1-.82686.16978c-17.50009-.07225-35.00026-.00976-52.50037-.03567a3.25268,3.25268,0,0,1-1.79259-.245A3.362,3.362,0,0,1,119.82224,146.63788Z" transform="translate(-117.29776 -115.72443)"/><path class="cls-19" d="M119.82311,148.5835q26.74209-.00014,53.48418-.00669a5.63371,5.63371,0,0,1,1.69767.2216,6.72384,6.72384,0,0,1-.67356,1.72943,2.4084,2.4084,0,0,1-1.54858.35386q-25.7665.00422-51.533-.00263a2.36309,2.36309,0,0,1-1.36117-.24368A3.31618,3.31618,0,0,1,119.82311,148.5835Z" transform="translate(-117.29776 -115.72443)"/><path class="cls-20" d="M173.03155,153.99386a2.44667,2.44667,0,0,1-1.47062.20713q-25.8674.005-51.7348.00271a3.42764,3.42764,0,0,1,.04764-2.0411,2.46044,2.46044,0,0,1,1.4661-.25509q25.3983-.00758,50.79661.00222a1.98,1.98,0,0,1,1.53462.34706Z" transform="translate(-117.29776 -115.72443)"/><path class="cls-21" d="M119.82676,156.36546q25.42942.00007,50.85886.003a2.51242,2.51242,0,0,1,1.47554.20078q-.2889.87614-.57773,1.75233a2.11851,2.11851,0,0,1-1.44166.34076q-24.49907.00769-48.99815-.00149a2.16126,2.16126,0,0,1-1.25466-.243A3.27078,3.27078,0,0,1,119.82676,156.36546Z" transform="translate(-117.29776 -115.72443)"/><path class="cls-22" d="M177.83008,142.52974a12.66421,12.66421,0,0,0-3.21287-.21586q-27.39861.00069-54.79722.00062a2.78166,2.78166,0,0,1,.05819-1.829,2.498,2.498,0,0,1,1.46885-.25081q27.42243-.00705,54.84487.00427a3.59576,3.59576,0,0,1,2.47376.56127A4.574,4.574,0,0,1,177.83008,142.52974Z" transform="translate(-117.29776 -115.72443)"/><path class="cls-23" d="M165.90323,178.63044l-.22065,1.309a.94739.94739,0,0,1-1.04912.9691c-.39592.01225-.79162.02174-1.18754.02176q-20.8457.001-41.6914-.00471a3.25821,3.25821,0,0,1-1.89374-.26363,4.50543,4.50543,0,0,1-.02936-2.30761,2.202,2.202,0,0,1,1.45437-.2877q21.3015-.009,42.603.00128A2.44811,2.44811,0,0,1,165.90323,178.63044Z" transform="translate(-117.29776 -115.72443)"/><path class="cls-24" d="M184.09628,131.50067a2.5796,2.5796,0,0,0-1.474-.20987q-31.40443-.00266-62.80889-.00114a2.681,2.681,0,0,1-.00028-1.51315q31.86168-.00032,63.72337.00006c.56976,0,1.13952.01,1.70931.01537A7.21668,7.21668,0,0,1,184.09628,131.50067Z" transform="translate(-117.29776 -115.72443)"/><path class="cls-25" d="M170.27684,167.16688l-50.44775.00673a3.38182,3.38182,0,0,1,.04522-2.04077,2.46594,2.46594,0,0,1,1.46758-.255q23.47452-.00761,46.94905.00254a1.962,1.962,0,0,1,1.5346.34825A4.42464,4.42464,0,0,0,170.27684,167.16688Z" transform="translate(-117.29776 -115.72443)"/><path class="cls-26" d="M119.829,169.33533l48.68834.00025q-.31872.97383-.6374,1.94767a1.99523,1.99523,0,0,1-1.435.3487q-22.65174.00932-45.30348-.0007a2.15236,2.15236,0,0,1-1.25394-.24384A3.26137,3.26137,0,0,1,119.829,169.33533Z" transform="translate(-117.29776 -115.72443)"/><path class="cls-27" d="M173.67111,152.25679l-53.84621.00145a3.03106,3.03106,0,0,1-.00053-1.72928l54.50706-.00111Q174.00124,151.39232,173.67111,152.25679Z" transform="translate(-117.29776 -115.72443)"/><path class="cls-28" d="M166.60739,184.24077a5.197,5.197,0,0,1,.62082,1.95642,1.79838,1.79838,0,0,1-1.42354.34894q-22.24848.01429-44.497-.00026c-1.65117-.0014-1.74159-.16835-1.51745-2.31444a1.96373,1.96373,0,0,1,1.43905-.32854q21.96759-.01254,43.93519-.00231A2.13293,2.13293,0,0,1,166.60739,184.24077Z" transform="translate(-117.29776 -115.72443)"/><path class="cls-29" d="M119.8264,180.57682q22.22875.00027,44.45752.00092c.565,0,1.18191.11944,1.39876-.63842q.01138,1.08193.023,2.16372c.21762.53816-.20912.60562-.54044.69208a5.50788,5.50788,0,0,1-1.40012.0813q-21.041.00231-42.08193-.00332a3.265,3.265,0,0,1-1.79556-.24436A3.28921,3.28921,0,0,1,119.8264,180.57682Z" transform="translate(-117.29776 -115.72443)"/><path class="cls-30" d="M119.82723,158.31094l51.75615.01066a5.58363,5.58363,0,0,1-.48724,1.71829,1.92226,1.92226,0,0,1-1.43081.35022q-24.259.01018-48.51807-.00009a2.18506,2.18506,0,0,1-1.25448-.24008A2.62218,2.62218,0,0,1,119.82723,158.31094Z" transform="translate(-117.29776 -115.72443)"/><path class="cls-31" d="M169.82554,165.22867l-49.9967-.00037a2.92334,2.92334,0,0,1-.00048-1.72937q24.2919.00024,48.5838.00075c.60319,0,1.20639.004,1.80952.00611A5.12717,5.12717,0,0,1,169.82554,165.22867Z" transform="translate(-117.29776 -115.72443)"/><path class="cls-32" d="M119.82628,182.52241q22.30174.00027,44.60348-.01481c.43145-.00054,1.04771.33248,1.27592-.40463a5.27254,5.27254,0,0,1,.90156,2.13786q-23.39056.00557-46.78144.01125a.74153.74153,0,0,1-.105-.50846C119.76841,183.33765,119.61253,182.91407,119.82628,182.52241Z" transform="translate(-117.29776 -115.72443)"/><path class="cls-33" d="M178.66566,140.80023c-19.61388-.49487-39.23111-.07778-58.8463-.21522a1.86647,1.86647,0,0,1,.00011-1.29705l59.69529-.00175C179.40412,139.88734,178.85694,140.24423,178.66566,140.80023Z" transform="translate(-117.29776 -115.72443)"/><path class="cls-34" d="M167.43705,173.5052c.73038.68333.69936,1.70407,1.12124,2.52411a.863.863,0,0,1-1.29541.22066c-.22407-.19046-.23138-.61788-.65125-.5943a4.86919,4.86919,0,0,1-1.07269.0955q-21.83319-.0252-43.66639-.01425a3.58282,3.58282,0,0,1-2.00534-.25851,2.36706,2.36706,0,0,1-.035-1.66361,2.8006,2.8006,0,0,1,1.77846-.28615q22.86034-.00584,45.72067-.00075C167.47565,173.528,167.29278,173.50789,167.43705,173.5052Z" transform="translate(-117.29776 -115.72443)"/><path class="cls-35" d="M119.82857,175.38779q22.73455.00068,45.46909.00961c.44259.0003.94845-.18845,1.31381.25813q-.14529.623-.29089,1.24564a1.881,1.881,0,0,1-1.42832.34951q-21.8166.01194-43.63319.00192a2.96863,2.96863,0,0,1-1.273-.17607c-.30984-.15961-.25541-.45346-.2652-.72321C119.75738,176.03206,119.62937,175.69171,119.82857,175.38779Z" transform="translate(-117.29776 -115.72443)"/><path class="cls-36" d="M119.82544,176.90235l46.49525-.00117q-.20875.86463-.41738,1.72927a10.83478,10.83478,0,0,0-2.99373-.21412q-21.54183-.00177-43.08366-.001A2.3764,2.3764,0,0,1,119.82544,176.90235Z" transform="translate(-117.29776 -115.72443)"/><path class="cls-37" d="M119.82811,160.04033l51.26807-.00044q-.18064.65463-.361,1.30928l-50.90737-.01179A1.72452,1.72452,0,0,1,119.82811,160.04033Z" transform="translate(-117.29776 -115.72443)"/><path class="cls-38" d="M119.82523,183.82026l.00057.43182c-.00141,1.94584-.00141,1.94588,1.93172,1.94585q22.73534-.00035,45.47068-.00074a1.3643,1.3643,0,0,1,.22418.84372c-.15922.7154-.741.44111-1.14869.44246-5.25862.01755-10.51732.01162-15.776.01162q-14.74952,0-29.499-.00061c-1.312-.00015-1.40783-.09616-1.41842-1.40855-.00609-.75541-.00082-1.51091-.00066-2.26636C119.68184,183.7196,119.7537,183.72447,119.82523,183.82026Z" transform="translate(-117.29776 -115.72443)"/><path class="cls-39" d="M119.82932,171.281l48.05057.00228a2.66487,2.66487,0,0,1-.40624,1.3069,2.31068,2.31068,0,0,1-1.55028.34051q-22.32643.00594-44.65287-.00117a2.52674,2.52674,0,0,1-1.36739-.23112A1.55407,1.55407,0,0,1,119.82932,171.281Z" transform="translate(-117.29776 -115.72443)"/><path class="cls-40" d="M119.82916,172.578q23.82214.006,47.64439.01209c.07116.30826-.46785.5922-.03646.91493-.24167.65309-.804.35647-1.21192.3569q-23.19813.02432-46.3963.01314A1.70825,1.70825,0,0,1,119.82916,172.578Z" transform="translate(-117.29776 -115.72443)"/><path class="cls-41" d="M167.26288,176.25a3.98371,3.98371,0,0,0,1.29527-.22063c.7686,1.1843.77442,2.61674,1.26887,3.89022.07231.26239.31329.579-.20957.65Z" transform="translate(-117.29776 -115.72443)"/><path class="cls-42" d="M170.64791,170.65085c.3332-.013.67248-.017.70285-.47616a11.04387,11.04387,0,0,1,.87852,3.02312c.10425.23248-.01551.25993-.20506.22353Z" transform="translate(-117.29776 -115.72443)"/><path class="cls-43" d="M169.61745,180.56957c.25082-.15842.18922-.41733.20955-.64995a3.48913,3.48913,0,0,1,.423,1.90367A3.45778,3.45778,0,0,1,169.61745,180.56957Z" transform="translate(-117.29776 -115.72443)"/><path class="cls-44" d="M170.60273,183.01644a.5545.5545,0,0,1-.14323-.64587C170.75714,182.55233,170.71862,182.76958,170.60273,183.01644Z" transform="translate(-117.29776 -115.72443)"/><path class="cls-45" d="M172.64615,174.73954c.22525.17646.25567.39706.11383.74335l-.33308-.74608Q172.53846,174.58386,172.64615,174.73954Z" transform="translate(-117.29776 -115.72443)"/><path class="cls-46" d="M172.64615,174.73954l-.2193-.0027q-.09284-.33522-.18579-.67039a.38489.38489,0,0,1,.19771-.209C172.70926,174.10427,172.63382,174.43219,172.64615,174.73954Z" transform="translate(-117.29776 -115.72443)"/><path class="cls-47" d="M172.43877,173.85747l-.1979.20915q-.10824-.32268-.21676-.64515l.205-.22352A.82005.82005,0,0,1,172.43877,173.85747Z" transform="translate(-117.29776 -115.72443)"/><path class="cls-48" d="M184.53843,174.39845c-.06793-.03321-.19791-.05556-.21617-.1132-.0623-.19676.12593-.22446.2444-.24732.077-.01486.2296.04647.2492.10613C184.88735,174.36176,184.658,174.3003,184.53843,174.39845Z" transform="translate(-117.29776 -115.72443)"/><path class="cls-23" d="M119.82916,172.578q-.00018.64854-.00033,1.29707-.00014.75636-.00029,1.51271-.00254.43444-.00513.86891c-.07335.0937-.144.09656-.21145-.0063q-.0072-23.48-.00607-46.96008c.00016-.48594-.168-1.01108.18836-1.45785q.00945.972.019,1.944.00009.75657.00028,1.51315.00069.86474.00149,1.72948.00054,1.08089.00117,2.16177.00056.97273.0012,1.94546.001,1.08079.00216,2.16159-.00009.64853-.00011,1.29705.00027.86475.00062,1.72949.00063,1.08087.00134,2.16173.00042,1.08083.00089,2.16165.00042.97281.00086,1.94561.00061.97273.00125,1.94547l.00052,1.72928.00123,1.94546.00061,2.16176.00047,1.94548q.00044.86469.00087,1.72939l-.00034,1.297q.0003,1.08078.00059,2.16155.00024.86469.00048,1.72937.00014.97266.00024,1.94532,0,1.08086-.00013,2.16172.0002.97283.00036,1.94564Q119.82927,171.92949,119.82916,172.578Z" transform="translate(-117.29776 -115.72443)"/><path class="cls-28" d="M119.612,176.25042q.10574.00339.21148.00626l.002.64567.00048,1.513.00046,2.16151-.00011,1.94558-.001,1.29785-.21565-.00079Q119.61078,180.03494,119.612,176.25042Z" transform="translate(-117.29776 -115.72443)"/></g></svg>