<svg id="Layer_1" data-name="Layer 1" xmlns="http://www.w3.org/2000/svg" viewBox="0 0 223.82232 223.75174"><defs><style>.cls-1{fill:#85e9c4;}</style></defs><g id="UDT3VG.tif"><path class="cls-1" d="M150.66609,255.68227c-3.31369-2.96848-4.34258-6.61542-4.0622-11.05642a146.53448,146.53448,0,0,0,.008-16.88016c-.19389-3.69428.92876-4.84634,4.7015-4.79435,14.90221.20534,29.8107-.05169,44.71315.14475a34.117,34.117,0,0,0,18.30644-5.10052q48.496-28.58908,97.15369-56.904a26.287,26.287,0,0,1,13.19072-3.788c15.23442-.09485,30.46985-.0321,45.70489-.03v39.76113c-1.78691,1.60143-4.00253,1.38226-6.13685,1.38723-11.59306.027-23.18732-.08305-34.779.04134-8.814.0946-16.66471-2.90821-23.76926-7.61681-7.34246-4.86629-14.04418-5.04659-20.92307.56283-1.78269,1.4537-3.99016,2.35672-5.9068,3.66023-3.64017,2.47563-3.63007,3.98321.00206,6.67438,1.06443.78868,2.23263,1.4258,3.36705,2.10968,7.37477,4.44578,14.883,8.66444,22.25077,13.12417a30.74386,30.74386,0,0,0,16.53287,4.53969c14.24186-.1235,28.48562-.05732,42.72854-.02376,2.28787.0054,4.68621-.33059,6.63364,1.38575v27.83279a6.172,6.172,0,0,1-4.971,4.97014Z" transform="translate(-146.55999 -31.93053)"/><path class="cls-1" d="M370.38232,64.82886c-17.8824-.02229-35.76484-.07039-53.64718-.04854-4.41922.0054-8.408,1.6699-12.14551,3.85475Q255.34792,97.42061,206.14645,126.275a29.22264,29.22264,0,0,1-15.07734,4.17721c-13.41444-.01342-26.83-.09788-40.24254.06368-3.26252.03931-4.26208-.95189-4.2057-4.21294.18314-10.59418.06957-21.19349.06735-31.79083-.00038-1.85018-.21835-3.80467,2.599-3.72733,15.53492.42646,31.10065-.953,46.61251.758,5.79116.63881,10.65449,3.73846,15.25109,6.82506,7.24645,4.86595,13.921,5.15148,20.977-.08806,2.63718-1.95829,5.75944-3.24921,8.536-5.03774,3.62195-2.33314,3.59369-5.49834-.10113-7.69265-9.66648-5.74083-19.35545-11.44651-29.11809-17.02155A28.43527,28.43527,0,0,0,196.751,64.7718c-15.23457.15624-30.473-.0499-45.707.13166-3.54367.04223-4.54484-1.08664-4.42429-4.516.23836-6.78054.01568-13.57595.0881-20.3641.05586-5.23557,2.71885-7.97467,7.92688-7.9769q103.83779-.0445,207.67544-.11594c3.71495-.007,5.60324,2.29634,8.07225,4.0715Z" transform="translate(-146.55999 -31.93053)"/><path class="cls-1" d="M370.38232,130.43472q-26.58532-.04517-53.17064-.08083a24.95874,24.95874,0,0,0-12.64927,3.90663q-49.25928,28.792-98.47537,57.6579a29.10719,29.10719,0,0,1-15.08573,4.13663c-13.253-.03655-26.50714-.09919-39.75853.05069-3.25888.03686-4.72454-.59531-4.63593-4.299q.36241-15.14709-.00071-30.3075c-.089-3.69856,1.36257-4.33277,4.62686-4.30212,15.07406.14156,30.15235-.08517,45.22453.13471a31.06284,31.06284,0,0,0,16.491-4.51349q47.75387-27.9289,95.43825-55.97645a35.82855,35.82855,0,0,1,19.75481-5.38658c14.0711.39544,28.15947.17652,42.2407.21229Z" transform="translate(-146.55999 -31.93053)"/></g></svg>