<svg id="Layer_1" data-name="Layer 1" xmlns="http://www.w3.org/2000/svg" viewBox="0 0 163.68088 163.69779"><defs><style>.cls-1{fill:#838383;}.cls-2{fill:#febe47;}.cls-3{fill:#fefefe;}.cls-4{fill:#2c1800;}.cls-5{fill:#91877a;}.cls-6{fill:#c7c7c7;}</style></defs><g id="hB8mr6.tif"><path d="M294.81289,199.597h-119.961a25.408,25.408,0,0,1-4.26075-.59994,23.25944,23.25944,0,0,1-15.095-12.08729,22.27959,22.27959,0,0,1-2.413-7.749,18.52625,18.52625,0,0,1-.1232-2.15768q-.00453-29.80483.00015-59.60969a23.07276,23.07276,0,0,1,5.82977-15.39581,23.85473,23.85473,0,0,1,14.322-8.033c1.08888-.19771,2.2023-.20274,3.30868-.36484a24.267,24.267,0,0,1-.64061-32.56141,23.61977,23.61977,0,0,1,17.02286-8.20149,24.22854,24.22854,0,0,1,17.84886,6.58219c.44165-7.43584,3.30632-13.5763,9.03713-18.21976a22.8938,22.8938,0,0,1,12.85865-5.20671,24.09735,24.09735,0,0,1,12.78691,2.23359,23.83038,23.83038,0,0,1,9.76835,8.658,24.54075,24.54075,0,0,1,3.87612,12.57463,24.1548,24.1548,0,0,1,19.4225-6.5178,23.17434,23.17434,0,0,1,15.34844,7.964,23.45782,23.45782,0,0,1,6.05089,16.40267,24.31748,24.31748,0,0,1-6.51436,16.21561,10.18653,10.18653,0,0,0,2.48119.33578,24.13435,24.13435,0,0,1,20.5626,19.297,15.40079,15.40079,0,0,1,.23256,3.08738,6.78984,6.78984,0,0,0,.07452,1.549v59.98037a23.69664,23.69664,0,0,1-.60418,4.25288,23.24092,23.24092,0,0,1-14.0301,15.9843,17.072,17.072,0,0,1-6.99508,1.51361A.28231.28231,0,0,0,294.81289,199.597Z" transform="translate(-152.95625 -35.89924)"/><path class="cls-1" d="M316.51926,116.18334a.07265.07265,0,0,1,.11787.0193v1.58984A3.5689,3.5689,0,0,1,316.51926,116.18334Z" transform="translate(-152.95625 -35.89924)"/><path class="cls-2" d="M164.04843,117.77692a12.98456,12.98456,0,0,1,13.24326-12.95032,12.63953,12.63953,0,0,1,8.44613,3.38258,1.393,1.393,0,0,0,1.01339.4279q12.64538-.01761,25.29079-.01227c.15735-.00008.33574.06906.48233-.08047-.05507-.25574-.28062-.37567-.44224-.53748q-8.80867-8.81906-17.61938-17.63607a1.53326,1.53326,0,0,0-1.11688-.50822,12.96661,12.96661,0,1,1,13.43388-14.52A4.298,4.298,0,0,0,208.146,78.177c5.64047,5.56589,11.22736,11.18609,16.8256,16.79469a4.71822,4.71822,0,0,1,.47031.67537.98066.98066,0,0,0,.21955-.84708q.00873-12.46473.01269-24.92943a1.70984,1.70984,0,0,0-.45584-1.22057,12.4671,12.4671,0,0,1-2.55783-13.04453A12.373,12.373,0,0,1,232.93585,47.165a12.88375,12.88375,0,0,1,14.77944,11.53114A12.68309,12.68309,0,0,1,244.39471,68.723a1.24084,1.24084,0,0,0-.40373.87635q.01518,12.826.00984,25.652a1.29346,1.29346,0,0,0,.03661.21174c.27489.015.36735-.21507.50507-.35259q8.897-8.884,17.78909-17.77285a1.277,1.277,0,0,0,.42555-.93185,12.9649,12.9649,0,1,1,15.83858,13.15282,10.28734,10.28734,0,0,1-2.14008.29084,1.82224,1.82224,0,0,0-1.36163.63095q-8.72057,8.75383-17.46405,17.48488c-.176.17627-.42639.30521-.499.66309h.72423q12.42863,0,24.85724.00863a1.81121,1.81121,0,0,0,1.28367-.47972,12.4826,12.4826,0,0,1,13.11748-2.49962c4.75145,1.745,7.47542,5.29968,8.3645,10.26522.10159.56737.11976,1.14968.17661,1.72507a.18452.18452,0,0,1-.08878.24167,3.47955,3.47955,0,0,1-1.49658.13642q-32.29466.00641-64.58931.00364-36.95463,0-73.90924-.00658C165.058,118.023,164.50429,118.17178,164.04843,117.77692Z" transform="translate(-152.95625 -35.89924)"/><path class="cls-3" d="M298.56628,152.46653c.00131,7.19832.0319,14.39679-.00311,21.59494a21.19624,21.19624,0,0,1-41.65508,5.09265,18.908,18.908,0,0,1-.71022-4.8353,2.49006,2.49006,0,0,1-.0429-.78794c-.00256-6.82976.08-13.66092-.03651-20.48868-.0586-3.43439-.05213-6.86815-.1-10.30018a20.34221,20.34221,0,0,1,4.40266-12.2095,24.15817,24.15817,0,0,1,2.98978-3.07176,20.248,20.248,0,0,1,11.93571-5.09571,5.49158,5.49158,0,0,0,1.35405-.07316,20.86766,20.86766,0,0,1,5.71682.573,21.12063,21.12063,0,0,1,11.92112,7.75095,1.29993,1.29993,0,0,1,.30494.484c-.057.30521.17629.48039.31736.693a21.3776,21.3776,0,0,1,3.61726,11.22023c.02161.56923-.15659.6572-.673.65406q-5.55636-.03383-11.113-.0029c-.455.002-.64175-.04665-.67454-.5935a8.76922,8.76922,0,0,0-16.41566-3.6878.88119.88119,0,0,0-.05635.20579,2.663,2.663,0,0,1-.09882.63732,11.14527,11.14527,0,0,0-.67223,4.674q.01983,12.23691.0034,24.47282c-.05193,1.68377-.07578,3.37145-.00511,5.05352a8.55119,8.55119,0,0,0,17.06446-.94541c-.00042-2.38336.02991-4.76689-.022-7.15142-.03533-1.18041-.03533-1.18273-1.24408-1.18462-2.06852-.00323-4.13709.00814-6.20555-.00489-1.14055-.00718-1.36619-.22363-1.3703-1.34832q-.0188-5.15922.00014-10.3185c.00387-1.05106.17358-1.21786,1.22251-1.22318,2.54953-.01293,5.10656-.12808,7.647.024,4.061.24312,8.11936.0506,12.17758.13608A.867.867,0,0,1,298.56628,152.46653Z" transform="translate(-152.95625 -35.89924)"/><path d="M294.64354,131.09978c-.25008.02742-.30925-.19284-.42128-.3345a21.58016,21.58016,0,0,0-8.70207-6.71,18.37991,18.37991,0,0,0-5.27635-1.366,28.1183,28.1183,0,0,0-3.484-.25617c-.48272.1539-.99277-.04781-1.47493.11335a21.32556,21.32556,0,0,0-7.94962,2.38249,24.74518,24.74518,0,0,0-3.8889,2.68061c-1.7883-.1839-3.57773-.04237-5.34612-.0887-.12758.31261.08684.41011.20638.53267.60139.61664,1.21772,1.21864,1.82207,1.83243a1.2173,1.2173,0,0,1,.4468.63225,5.28687,5.28687,0,0,1-.92521,1.394,22.73339,22.73339,0,0,0-3.26877,8.15958,18.65978,18.65978,0,0,0-.18592,2.41379c-.108,1.57717-.02815,3.15621-.04394,4.73429-.01461,1.46035-.00376,2.921-.00266,4.37948-.00083.201.00912.42232-.30246.26068a2.57657,2.57657,0,0,1-.6-.50492c-1.32067-1.31171-2.6222-2.64263-3.95649-3.94062a.89685.89685,0,0,1-.35641-.5972c.2865-2.10308.80868-4.15975,1.23544-6.23427q1.57954-7.67831,3.17373-15.35371c.12219-.58969.26909-1.174.38116-1.76554.14246-.75206.08274-.83054-.7066-.83426-1.975-.00929-3.95-.003-5.925-.00314-1.42105-.0001-2.84213-.00572-4.26314.00227-.88.00495-.97737.0791-1.15082.948-.66463,3.32939-1.3588,6.653-2.05154,9.97627-1.08585,5.20911-2.1535,10.422-3.2464,15.62968-.989,4.71255-1.92752,9.43561-2.94381,14.14239-.071.32894-.02664.87534-.4559.87877-.4599.00368-.46548-.54962-.54277-.90414-.76429-3.50536-1.46843-7.02341-2.20355-10.535q-1.15448-5.51456-2.29011-11.033c-1.20174-5.8985-2.48322-11.78053-3.64132-17.688-.27844-1.42033-.29542-1.41721-1.72327-1.41724q-4.80506-.00014-9.61012.0009c-.96567.00076-.99832.03341-.79776.98814,1.624,7.73059,3.16537,15.47834,4.82517,23.20148.06455.30031.18868.6107-.0581.89351-.63577-.58406-1.00372-.09385-1.42418.32827q-4.81644,4.83562-9.64585,9.65838c-.19721.1977-.477.34786-.49123.68211-.29228.1405-.4474-.09932-.615-.24479-3.64337-3.1615-7.997-4.62981-12.675-5.32172a18.85833,18.85833,0,0,1-5.68008-1.28291,6.288,6.288,0,0,1-3.2344-3.03941.327.327,0,0,1,.24312-.323,6.26924,6.26924,0,0,0,1.93323-1.22821,11.20995,11.20995,0,0,1,2.64193-1.11987c.89048-.35213,1.88395-.24617,2.76734-.63132a.51244.51244,0,0,1,.487.05779c.53032.35884.877.07829,1.24534-.29393q2.48731-2.51328,4.99986-5.00158c.21491-.2135.39042-.50249.7494-.51542a1.62638,1.62638,0,0,1,.61748.94491,9.311,9.311,0,0,1,.61153,2.44458c.04974.43778.212.64546.67176.64507q5.37864-.00462,10.75728.0006c.52981.00078.65015-.28267.63739-.73445a18.52106,18.52106,0,0,0-1.42509-6.74384c-3.19911-7.55266-8.85667-12.09411-17.00125-13.157-7.04307-.91913-13.07959,1.40284-18.01552,6.52316-.4662.48361-.87405,1.02435-1.29274,1.55245-.16933.21356-.29235.52206-.65943.4709.02859-.29947-.11329-.41478-.40736-.46015a25.4246,25.4246,0,0,1-3.2518-1.03371,7.91317,7.91317,0,0,1-1.99934-1.37643c-.80288-.538-1.33346-1.42444-2.08308-1.9679a11.05136,11.05136,0,0,1-1.88595-2.23626,4.08007,4.08007,0,0,1-.73025-1.4552,14.96785,14.96785,0,0,1-.88448-2.84686c-.016-.14544-.06195-.308.05542-.40957.314-.27191.10731-.40337-.09134-.6193-.44093-.47927-.36546-.84455.18482-1.19876.31254.00931.62508.0268.93762.02681q69.84642.00184,139.69285,0c.31251,0,.625-.01812.93752-.02778.72708.2193.31986.75331.32539,1.1728-.26627.17411-.45839.28824-.276.72552.20681.49592-.1145,1.0516-.15759,1.587a3.56413,3.56413,0,0,0-.43359,1.30078c-.41761.44962-.38135,1.10553-.72266,1.58984a3.75824,3.75824,0,0,0-1.09316,1.455,1.54129,1.54129,0,0,1-.78515.71154l-.14654.14652a1.70412,1.70412,0,0,1-1.00969,1.00972,3.42136,3.42136,0,0,1-1.44593,1.44672,1.4773,1.4773,0,0,0-.86719.57813,8.459,8.459,0,0,1-1.58985.72265,4.20119,4.20119,0,0,0-1.30078.4336C295.65525,130.90844,295.08255,130.78279,294.64354,131.09978Z" transform="translate(-152.95625 -35.89924)"/><path class="cls-3" d="M185.2558,148.43842a7.86922,7.86922,0,0,0,5.2762,3.59027c2.37534.50523,4.8134.64148,7.16717,1.27791a23.241,23.241,0,0,1,7.511,3.35477c.75084.53261,1.44656,1.14294,2.16747,1.71773a24.45464,24.45464,0,0,1,4.56683,6.67228,21.07834,21.07834,0,0,1,1.52988,5.38368,19.15894,19.15894,0,0,1,.26941,4.19315,21.424,21.424,0,0,1-14.89164,19.253,15.99705,15.99705,0,0,1-4.35556.85148c-.90143.03253-1.8068.114-2.71169.10018A20.19733,20.19733,0,0,1,181.875,191.971a20.9581,20.9581,0,0,1-8.2646-8.73563,19.85184,19.85184,0,0,1-2.119-6.87026,23.73378,23.73378,0,0,1-.102-2.6388.80029.80029,0,0,1,.49127-.069q5.70762-.00261,11.41524,0a.79146.79146,0,0,1,.491.0692,8.29132,8.29132,0,0,0,1.72948,5.1014,8.50121,8.50121,0,0,0,5.18676,3.39326,8.82223,8.82223,0,0,0,10.40909-6.77294,7.81918,7.81918,0,0,0-.67451-5.48557,1.62715,1.62715,0,0,1-.36865-.43821,8.15213,8.15213,0,0,0-5.61187-4.0375c-1.873-.44237-3.78277-.68824-5.66024-1.10364a29.36842,29.36842,0,0,1-6.67226-2.27095,2.37415,2.37415,0,0,1-.76546-.52868c-.68207-.61143-1.52893-.97734-2.2454-1.55335a20.991,20.991,0,0,1-3.81728-4.00048,21.2835,21.2835,0,0,1-3.28847-6.90968,20.95346,20.95346,0,0,1-.6373-6.65283,20.58349,20.58349,0,0,1,3.59115-10.707,2.71257,2.71257,0,0,0,.17985-.37928,29.129,29.129,0,0,1,2.90506-3.304,20.90967,20.90967,0,0,1,10.31374-5.24419,20.33582,20.33582,0,0,1,4.6941-.41964,21.37138,21.37138,0,0,1,20.22324,16.58766,16.43818,16.43818,0,0,1,.49065,4.177c-.01026.41454-.13788.51388-.53538.51243q-5.70683-.02079-11.41374-.00064c-.39793.00133-.511-.10538-.54587-.5184a7.794,7.794,0,0,0-1.12655-3.7045c-.22977-.11677-.32353-.34871-.455-.54613a8.20611,8.20611,0,0,0-6.26785-3.75333,8.35067,8.35067,0,0,0-8.63772,4.82231,8.598,8.598,0,0,0,.15361,7.65525A2.87922,2.87922,0,0,1,185.2558,148.43842Z" transform="translate(-152.95625 -35.89924)"/><path class="cls-3" d="M218.93891,147.71034c-.26048-1.2842-.51838-2.56892-.782-3.85248-.45974-2.238-.91491-4.47708-1.38693-6.71254-.5636-2.66921-1.17939-5.32794-1.70381-8.00467-.417-2.12836-.83535-4.25545-1.32194-6.3689-.05578-.24225.01241-.36236.28045-.35135.28853.01185.57794.00234.867.00234,3.5406,0,7.08138.01827,10.62158-.01957a.67641.67641,0,0,1,.79779.63168c.53583,2.65387,1.04623,5.313,1.59742,7.96364.608,2.9237,1.2611,5.838,1.87484,8.76053.45018,2.14365.85938,4.29587,1.30393,6.44074.36709,1.77113.77214,3.53439,1.137,5.306.4515,2.19243.86531,4.39264,1.32061,6.58426.41195,1.98293.85711,3.959,1.29192,5.93709.01252.057.07371.10326.1943.26389.23724-1.14152.45139-2.18018.66917-3.21808.44134-2.10314.89036-4.20471,1.32552-6.30913.43219-2.09013.8451-4.18425,1.27777-6.27428.43548-2.10351.89118-4.20284,1.32639-6.30641.43216-2.08883.84334-4.182,1.27572-6.27079.43522-2.10258.89167-4.20074,1.32688-6.30331.43212-2.08759.88066-4.17268,1.25524-6.27079.12182-.68227.3378-.942,1.075-.9338,3.63649.04034,7.27371.02576,10.91057.00948.48418-.00217.70721.07648.5884.62862q-.93952,4.36643-1.84342,8.74052-1.23406,5.92269-2.457,11.84774c-.23259,1.12072-.47038,2.24036-.70579,3.3605a.4969.4969,0,0,1-.03562.57463c-.43181,1.99043-.87751,3.978-1.29276,5.97186q-1.64343,7.89118-3.26336,15.78724c-.04321.20962-.05263.4262-.07779.63953a8.76327,8.76327,0,0,1-.39815,2.69337q-1.21885,5.89141-2.43925,11.78255a1.46938,1.46938,0,0,1-.39507.9639c-.6092,2.9088-1.23465,5.81436-1.81325,8.72924-.10946.55148-.29979.71435-.87045.70963-3.70795-.03057-7.41634-.02487-11.12443-.00439-.47934.00265-.64291-.13643-.73674-.61057-.54526-2.7551-1.1318-5.50206-1.7084-8.25092a2.96239,2.96239,0,0,0-.14389-.39934,1.31266,1.31266,0,0,1-.31224-.79039c-.88785-4.36307-1.806-8.71988-2.70486-13.08069a8.98141,8.98141,0,0,1-.31311-2.33331c-.39724-2.02011-.78028-4.04315-1.19448-6.05976q-1.569-7.639-3.16308-15.27294A2.05594,2.05594,0,0,0,218.93891,147.71034Z" transform="translate(-152.95625 -35.89924)"/><path class="cls-4" d="M298.56628,152.46653c-.215-.01336-.42989-.03818-.64485-.03841-6.59127-.00707-13.18255-.00451-19.77374-.02905-.59613-.00221-.82268.08922-.81521.77032.0403,3.68013.03118,7.361.006,11.04142-.00376.54651.14592.68337.68324.67694,2.45339-.02934,4.90773.01215,7.36073-.03.63556-.01093.87207.14643.76886.78128a6.54389,6.54389,0,0,0-.03031.863,7.40882,7.40882,0,0,1-2.55921,2.69094,13.01874,13.01874,0,0,1-14.16108.99152,1.58363,1.58363,0,0,1-.74928-.65088c-.012-.19095-.03451-.38189-.03454-.57284q-.00225-12.54993-.0041-25.09986a8.08369,8.08369,0,0,1,1.03292-4.27228c1.24842,1.43493,2.72586,2.65153,3.97067,4.0821a6.62567,6.62567,0,0,0,4.42333,2.35887,11.86886,11.86886,0,0,1,8.64942,5.83133.96615.96615,0,0,0,.961.46142q5.08854-.01144,10.17712.0013C298.07488,152.32422,298.362,152.20737,298.56628,152.46653Z" transform="translate(-152.95625 -35.89924)"/><path class="cls-4" d="M181.35924,161.58368a38.14808,38.14808,0,0,0,4.65879,1.88554,44.76265,44.76265,0,0,0,5.7444,1.29318c2.17806.36868,4.37141.73649,6.214,2.06866a6.8283,6.8283,0,0,1,2.46132,3.13163,18.02307,18.02307,0,0,1-3.91564,1.38512,12.83755,12.83755,0,0,1-10.83567-2.74665A12.54084,12.54084,0,0,1,181.35924,161.58368Z" transform="translate(-152.95625 -35.89924)"/><path class="cls-4" d="M223.42611,169.37358c.465,2.15607.93909,4.31021,1.39276,6.46865q.96278,4.5807,1.89846,9.16707a4.11642,4.11642,0,0,1,.039.56863,4.32419,4.32419,0,0,1-1.69842-1.49619,12.72239,12.72239,0,0,1-3.11828-8.27533A14.67,14.67,0,0,1,223.42611,169.37358Z" transform="translate(-152.95625 -35.89924)"/><path class="cls-4" d="M243.15349,185.40432q1.36417-6.63716,2.73086-13.27378c.15-.72557.33356-1.44417.50161-2.166a6.86378,6.86378,0,0,1,1.12135,3.07281,12.97184,12.97184,0,0,1-1.333,8.78256A10.07591,10.07591,0,0,1,243.15349,185.40432Z" transform="translate(-152.95625 -35.89924)"/><path class="cls-5" d="M256.04984,151.89643c.00717-2.71337.00945-5.42678.02658-8.14008a2.71183,2.71183,0,0,1,.11922-1.27073c.01124.47951.032.95907.03228,1.43865q.0079,14.94754.00988,29.89511c0,.16651-.026.333-.03993.49947a3.04869,3.04869,0,0,1-.0964-1.2107q-.00747-10.06344-.005-20.12689c-.00009-.31169-.0213-.62338-.03268-.93506q-.06119-.04468-.047-.09634Q256.03142,151.89645,256.04984,151.89643Z" transform="translate(-152.95625 -35.89924)"/><path d="M256.04984,151.89643l.0139.14977a1.53681,1.53681,0,0,1-.89823-.54935q-1.75016-1.75773-3.50843-3.50736c-.18228-.18131-.33123-.42379-.63721-.42362l.03562-.57463q2.20524,2.18523,4.41144,4.36946C255.65448,151.54611,255.85521,151.71818,256.04984,151.89643Z" transform="translate(-152.95625 -35.89924)"/><path class="cls-6" d="M183.7869,173.72651q-6.19876-.00012-12.39752-.00021c.1024-.26331.33086-.13818.49573-.13853q5.70162-.01233,11.40327-.00037C183.455,173.58773,183.6815,173.46937,183.7869,173.72651Z" transform="translate(-152.95625 -35.89924)"/><path d="M302.47365,126.3184c.64784-.40383.77084-1.19968,1.27833-1.715.18368-.18652.2943-.43782.6-.45157a19.02847,19.02847,0,0,0-1.09519,1.68044A.77736.77736,0,0,1,302.47365,126.3184Z" transform="translate(-152.95625 -35.89924)"/><path d="M301.31742,127.47464l1.00971-1.00973C302.2815,127.09244,302.04391,127.528,301.31742,127.47464Z" transform="translate(-152.95625 -35.89924)"/><path d="M296.11367,130.65574a1.379,1.379,0,0,1,1.30078-.4336A2.88834,2.88834,0,0,1,296.11367,130.65574Z" transform="translate(-152.95625 -35.89924)"/><path d="M305.07462,122.562a1.379,1.379,0,0,1,.43359-1.30078A4.60693,4.60693,0,0,1,305.07462,122.562Z" transform="translate(-152.95625 -35.89924)"/><path d="M305.94181,118.94872c-.07447-.40036.21244-.901-.32539-1.1728a.20783.20783,0,0,1,.03823-.128C306.39777,117.93862,306.09235,118.46076,305.94181,118.94872Z" transform="translate(-152.95625 -35.89924)"/><path d="M299.0043,129.49949a.72092.72092,0,0,1,.86719-.57813Z" transform="translate(-152.95625 -35.89924)"/><path d="M268.65138,169.53357a12.54455,12.54455,0,0,0,5.4186,1.96408,12.95035,12.95035,0,0,0,6.35024-.76974,12.2202,12.2202,0,0,0,5.173-3.74134,4.29776,4.29776,0,0,1,.52773-.48456,70.32275,70.32275,0,0,1-.12708,8.57594,8.74832,8.74832,0,0,1-17.19734.35522A31.14078,31.14078,0,0,1,268.65138,169.53357Z" transform="translate(-152.95625 -35.89924)"/><path d="M260.57555,130.51816c-1.00509-.82318-1.84921-1.81213-2.78341-2.70837-.07975-.07652-.17842-.2096-.16108-.29452.03189-.15617.20227-.1812.35053-.18129q2.55792-.00149,5.11582-.00142c.19419-.00015.32362.07.349.27695Z" transform="translate(-152.95625 -35.89924)"/><path class="cls-5" d="M275.28494,122.54641a2.60554,2.60554,0,0,1,1.47489-.11334A3.93958,3.93958,0,0,1,275.28494,122.54641Z" transform="translate(-152.95625 -35.89924)"/><path d="M185.2558,148.43842a8.72271,8.72271,0,0,1,1.70312-11.56727,8.04552,8.04552,0,0,1,5.50495-1.97165,8.54905,8.54905,0,0,1,7.60448,4.3061,1.13788,1.13788,0,0,1,.07869.26117q-1.94171,1.97942-3.88428,3.958c-.641.6506-1.29875,1.28484-1.93348,1.94143-.31307.32382-.60811.4411-.99489.116-.13781-.11583-.37117-.29963-.51457-.15407-.64078.65032-1.51327.22952-2.26183.53087a21.87476,21.87476,0,0,1-2.35661.79181,4.42486,4.42486,0,0,0-1.2937.85688A6.91692,6.91692,0,0,1,185.2558,148.43842Z" transform="translate(-152.95625 -35.89924)"/></g></svg>