<svg id="Layer_1" data-name="Layer 1" xmlns="http://www.w3.org/2000/svg" viewBox="0 0 434.4301 386.62512">
  <defs>
    <style>
      .cls-1 {
        fill: #ef4b33;
      }

      .cls-2 {
        fill: #f04f34;
      }

      .cls-3 {
        fill: #ef4532;
      }

      .cls-4 {
        fill: #f37339;
      }

      .cls-5 {
        fill: #f15935;
      }

      .cls-6 {
        fill: #f37139;
      }

      .cls-7 {
        fill: #f36d38;
      }

      .cls-8 {
        fill: #f26737;
      }

      .cls-9 {
        fill: #f26a38;
      }

      .cls-10 {
        fill: #f26337;
      }

      .cls-11 {
        fill: #f15e36;
      }

      .cls-12 {
        fill: #f4783a;
      }

      .cls-13 {
        fill: #ee4232;
      }

      .cls-14 {
        fill: #f05234;
      }

      .cls-15 {
        fill: #f05434;
      }

      .cls-16 {
        fill: #f16036;
      }

      .cls-17 {
        fill: #f05635;
      }

      .cls-18 {
        fill: #f5853c;
      }

      .cls-19 {
        fill: #f5813b;
      }

      .cls-20 {
        fill: #f6923e;
      }

      .cls-21 {
        fill: #f68d3d;
      }

      .cls-22 {
        fill: #f47e3b;
      }

      .cls-23 {
        fill: #ee3f31;
      }

      .cls-24 {
        fill: #f47a3a;
      }

      .cls-25 {
        fill: #f5883c;
      }

      .cls-26 {
        fill: #f47b3a;
      }

      .cls-27 {
        fill: #f4773a;
      }

      .cls-28 {
        fill: #f68b3d;
      }

      .cls-29 {
        fill: #f8a140;
      }

      .cls-30 {
        fill: #f79d3f;
      }

      .cls-31 {
        fill: #f5843c;
      }

      .cls-32 {
        fill: #f79a3f;
      }

      .cls-33 {
        fill: #f7953e;
      }

      .cls-34 {
        fill: #f7973f;
      }

      .cls-35 {
        fill: #f8a541;
      }

      .cls-36 {
        fill: #f68c3d;
      }

      .cls-37 {
        fill: #f9a942;
      }

      .cls-38 {
        fill: #f05235;
      }

      .cls-39 {
        fill: #f5893d;
      }

      .cls-40 {
        fill: #f6923f;
      }

      .cls-41 {
        fill: #f05436;
      }

      .cls-42 {
        fill: #f8a458;
      }

      .cls-43 {
        fill: #f69347;
      }
    </style>
  </defs>
  <g>
    <path class="cls-1" d="M477.339,477.67678c-8.4804,4.81584-17.01391,9.51821-26.41752,12.361-13.72145-4.35375-27.7797-7.459-41.71925-10.96161-52.107-13.09306-104.15168-26.43311-156.27921-39.44535-16.23164-4.05181-32.37017-8.47534-48.72767-12.01642a232.14016,232.14016,0,0,1-25.0194-25.44175c1.43993-2.362,3.63112-1.45224,5.54838-1.12113,5.06676.87512,9.92962,2.59514,14.91257,3.82845,50.97958,12.618,101.85767,25.64033,152.77949,38.48707,39.54126,9.9756,79.132,19.76083,118.58805,30.07244C473.5098,474.09418,476.77711,473.96444,477.339,477.67678Z" transform="translate(-152.07931 -114.01364)"/>
    <path class="cls-2" d="M477.339,477.67678c-1.11537-1.79828-2.9485-2.14082-4.83747-2.61439q-56.058-14.05437-112.09181-28.20507-81.931-20.68146-163.84282-41.43884c-4.8045-1.21959-9.496-2.85758-14.432-3.58316a5.09762,5.09762,0,0,0-2.95871.3372c-6.31191-6.85-12.415-13.86657-17.39413-21.78081-.80261-3.34452,1.51448-2.8479,3.3459-2.56158a68.10771,68.10771,0,0,1,11.75072,3.0487c15.12277,7.76762,30.39391,15.20337,46.434,20.93982A262.28152,262.28152,0,0,0,289.721,416.26971c2.97122.84658,6.083-.27519,9.04884.64615q2.50535.03988,5.0107.07981c7.92753,2.664,16.09172,4.48381,24.18655,6.49736,52.132,12.96766,104.13058,26.465,156.28817,39.32978,2.8522.70353,5.66727,1.53463,8.47548,2.3875,1.679.5099,3.4336.98372,4.10717,2.93274A130.72689,130.72689,0,0,1,477.339,477.67678Z" transform="translate(-152.07931 -114.01364)"/>
    <path class="cls-3" d="M204.19532,427.61435c2.72908-2.07983,5.42177-.127,7.85.47974q74.99658,18.7406,149.91017,37.8133,42.45885,10.74657,84.9174,21.49438c1.69209.42717,3.59435.375,4.04851,2.636a122.746,122.746,0,0,1-33.44393,8.74464c-1.46464-2.45741-4.09707-2.67-6.47338-3.26764-38.142-9.59211-76.24955-19.32039-114.39511-28.89875-18.07527-4.53873-36.12184-9.195-54.20975-13.68544-2.39656-.595-4.7837-1.47657-7.33613-.92034A241.09332,241.09332,0,0,1,204.19532,427.61435Z" transform="translate(-152.07931 -114.01364)"/>
    <path class="cls-4" d="M556.74568,350.17726a40.62311,40.62311,0,0,1-1.83426,12.19015c-2.35862,1.429-4.59037.09834-6.77155-.4598-66.22529-16.94716-132.55684-33.47424-198.81022-50.31016-15.07114-3.82976-30.16966-7.5518-45.25645-11.3199a36.92648,36.92648,0,0,0-7.32907-1.392c-4.81192-5.1993-9.73357-10.302-14.03505-15.95048,1.37-3.144,3.94774-1.79616,5.94817-1.31047,13.22524,3.211,26.44314,6.45639,39.6044,9.92683,9.74917,2.57074,19.46451,5.29043,29.40358,7.07544l3.484,1.22976c3.56036-.14877,6.93532.91752,10.30834,1.76168,60.255,15.08,120.42344,30.50313,180.66239,45.64717C553.826,347.69441,556.508,347.17222,556.74568,350.17726Z" transform="translate(-152.07931 -114.01364)"/>
    <path class="cls-5" d="M583.15819,451.35792c1.5242,4.879,2.852,9.79184,2.5785,14.98029-1.62484,1.32309-3.36926.63566-5.04274.21823q-75.76013-18.89728-151.40983-38.23216c-20.74987-5.27156-41.54479-10.36431-62.28649-15.667-2.04151-.52194-4.98409-.24329-5.091-3.65325l21.68027-7.99492c1.92251-.60557,3.75993-.10452,5.62035.37358q78.92085,20.28078,157.99335,39.96213c10.539,2.63553,20.99454,5.599,31.56442,8.1171A9.08893,9.08893,0,0,1,583.15819,451.35792Z" transform="translate(-152.07931 -114.01364)"/>
    <path class="cls-6" d="M296.74413,298.88557c.91936-3.19551,3.11513-.87194,4.237-.60311,16.75113,4.01407,33.44941,8.24937,50.15412,12.45642q53.51134,13.47669,107.01478,26.9848,48.39644,12.25977,96.76138,24.64371c-.95108,3.81924-.69412,7.91424-2.62746,11.50923a9.29454,9.29454,0,0,1-3.87408-.61359q-65.09554-16.198-130.07576-32.8529c-32.8212-8.35883-65.772-16.20735-98.49531-24.95156-2.96343-.79187-5.93983-1.65633-9.07724-1.35953A140.90913,140.90913,0,0,1,296.74413,298.88557Z" transform="translate(-152.07931 -114.01364)"/>
    <path class="cls-7" d="M310.76155,314.099c.20169-2.185,1.49192-1.44048,2.83745-1.20412,10.51979,1.84783,20.66239,5.19065,30.99639,7.76831Q418.9629,339.21292,493.278,357.97276c18.5464,4.66468,37.07493,9.40042,55.617,14.08235a5.42861,5.42861,0,0,1,3.38894,1.82148,33.52444,33.52444,0,0,1-3.41513,10.74219,11.87387,11.87387,0,0,1-4.77153-.55658c-44.8494-11.14187-89.61026-22.63524-134.42952-33.89709-28.31092-7.11378-56.57643-14.40615-84.97436-21.16986A131.44368,131.44368,0,0,1,310.76155,314.099Z" transform="translate(-152.07931 -114.01364)"/>
    <path class="cls-8" d="M356.621,360.66293a208.77759,208.77759,0,0,1-16.71351-15.9215c-1.02041-2.42689.80909-2.40979,2.24449-2.44173a18.34154,18.34154,0,0,1,4.74157.92738c51.45359,12.75252,102.79071,25.96777,154.21427,38.84031,17.2341,4.31412,34.40488,8.88207,51.71063,12.9103a10.58146,10.58146,0,0,1,4.03313,1.68021,79.58571,79.58571,0,0,1,9.72723,14.98252c-1.566,1.5069-3.34081.76-4.98463.32768C528.80757,403.34478,495.816,395.53253,463.007,386.996c-25.42383-6.615-50.96639-12.76464-76.44246-19.17583C376.6116,365.31542,366.83235,362.086,356.621,360.66293Z" transform="translate(-152.07931 -114.01364)"/>
    <path class="cls-9" d="M556.85154,396.6579c-9.94267-.89767-19.38-4.11145-28.98442-6.48978C493.30685,381.61,458.80176,372.82891,424.283,364.10355c-26.17251-6.61571-52.319-13.336-78.53656-19.76712-1.62859-.3995-4.21343-3.31916-5.839.405a183.08482,183.08482,0,0,1-15.214-15.74623c1.47392-.89574,2.873-.74362,4.57278-.31555q78.121,19.67416,156.2807,39.19434c20.38246,5.11878,40.72351,10.40228,61.09083,15.5817.86758.22063,1.73683.29027,2.231,1.163C550.27805,389.46176,554.9427,392.1462,556.85154,396.6579Z" transform="translate(-152.07931 -114.01364)"/>
    <path class="cls-10" d="M356.621,360.66293c1.65091-1.60543,3.5116-.945,5.34522-.48323q92.1287,23.2006,184.24282,46.45894c6.77914,1.718,13.43838,3.9036,20.36961,5.00181a66.52109,66.52109,0,0,1,7.101,13.203c-2.43822,2.19-5.04067.79176-7.489.18175q-37.12189-9.24975-74.19825-18.68139-52.22829-13.18975-104.45274-26.39552c-3.83471-.96508-7.69276-1.81164-11.60461-2.401A164.477,164.477,0,0,1,356.621,360.66293Z" transform="translate(-152.07931 -114.01364)"/>
    <path class="cls-11" d="M583.15819,451.35792c-8.15439-.95869-15.94871-3.53325-23.86752-5.49155-27.63749-6.83477-55.27156-13.70047-82.78847-21.00094-30.90927-8.2005-62.17248-15.01156-92.91452-23.8562,4.372-2.86624,9.53252-4.36176,13.57482-7.80281,2.08572-1.78034,4.42821-1.18278,6.69153-.60657,56.38991,14.35635,112.8589,28.39995,169.23832,42.79761,1.96655.50221,4.11064.46924,5.83637,1.77692A45.681,45.681,0,0,1,583.15819,451.35792Z" transform="translate(-152.07931 -114.01364)"/>
    <path class="cls-12" d="M556.74568,350.17726c-8.54709-3.43844-17.63774-4.892-26.50139-7.14392-38.78656-9.85444-77.65893-19.37384-116.40947-29.36638-14.99212-3.866-30.01043-7.61862-45.01893-11.415-2.592-.65564-5.51771-.30748-7.66691-2.39546-1.35546-3.72069-4.97-5.50328-7.24424-8.438-1.48695-1.91877-3.84873-3.1113-4.65658-5.59757,2.09384-2.04681,4.38382-.9126,6.59161-.34525,25.66724,6.59558,51.40651,12.90337,77.11641,19.32833a5.17841,5.17841,0,0,0,1.30569.12538q9.31826,6.60081,18.63659,13.20157c4.52979,3.2084,4.53,3.20805,6.4673-1.70516,1.83073-1.14869,3.69376-.52733,5.532-.06174,29.84036,7.55753,59.64165,15.27019,89.54857,22.56356a7.06646,7.06646,0,0,1,3.17382,1.4126C557.57578,343.64123,557.92391,346.97709,556.74568,350.17726Z" transform="translate(-152.07931 -114.01364)"/>
    <path class="cls-13" d="M235.06315,452.0102c.92-2.55131,2.79385-1.47894,4.38913-1.07821q54.0934,13.58859,108.17485,27.22473,32.44752,8.18194,64.878,16.43119c1.69543.431,3.32989,1.097,5.00407,1.61725,2.92443.90865.44257,1.72511-.03167,2.57721a44.45014,44.45014,0,0,1-12.00631,1.13268c-2.4078.829-4.968-.14921-7.38063.62225q-3.11188.02868-6.22379.05738c-37.43421-9.43352-74.83562-18.99744-112.30785-28.2796-5.66818-1.40408-11.15745-3.7019-17.1465-3.58251A191.16038,191.16038,0,0,1,235.06315,452.0102Z" transform="translate(-152.07931 -114.01364)"/>
    <path class="cls-14" d="M496.83792,468.14307c-10.00994-4.26147-20.72734-6.04138-31.17762-8.69411-47.12663-11.96275-94.31271-23.69124-141.47241-35.52387-5.52213-1.38555-11.01764-2.87823-16.51673-4.35389-1.56494-.42-3.11327-.93373-3.89061-2.57553q10.89293-.478,21.78585-.956c3.69439-.914,7.29048-.07666,10.82154.80867q84.52435,21.19278,168.977,42.66975a14.29356,14.29356,0,0,1,4.55655,1.56961c1.50238.99619,2.05937,2.16168.06749,3.30176Q503.41347,466.26631,496.83792,468.14307Z" transform="translate(-152.07931 -114.01364)"/>
    <path class="cls-15" d="M509.989,464.38949c1.7303-3.51258-1.76541-2.83827-2.94959-3.15242-10.72668-2.84575-21.529-5.40451-32.29122-8.11831q-70.1001-17.67651-140.1752-35.45161c-2.98958-.76068-5.87145-1.79188-9.0054-1.62729q9.24811-1.327,18.4986-2.6537c6.1986.20812,11.98515,2.39207,17.87094,3.94957,16.44079,4.35061,32.969,8.34539,49.45844,12.4961,36.81827,9.26788,73.59645,18.69376,110.43211,27.89385,19.48312,4.8661,38.92674,9.89539,58.40257,14.7947,2.08465.52439,4.42079.6526,5.79494,2.74117a6.69489,6.69489,0,0,1-.20828,3.6876q-.0918,1.62461-.18355,3.24925c-1.92153,1.47864-3.92877.64074-5.89975.1826-6.26588-1.45653-12.42863-3.36659-18.82146-4.26329-8.99172-6.42138-18.39859-11.9169-29.52-13.841A65.32356,65.32356,0,0,0,509.989,464.38949Z" transform="translate(-152.07931 -114.01364)"/>
    <path class="cls-16" d="M375.93507,377.54728c2.83386-2.32579,5.626-.239,8.19924.40535,41.77932,10.46193,83.51088,21.11444,125.26809,31.66507,19.81749,5.00719,39.67133,9.8705,59.49127,14.868a17.04478,17.04478,0,0,0,4.78564.35784,22.85911,22.85911,0,0,1,3.191,7.13276c-2.11514,1.85434-4.4473.95253-6.687.43445-8.28445-1.91624-16.43573-4.37373-24.70865-6.3192-50.08816-11.77869-99.81987-24.98563-149.78085-37.27226a64.20548,64.20548,0,0,1-8.38039-2.59721A63.04753,63.04753,0,0,1,375.93507,377.54728Z" transform="translate(-152.07931 -114.01364)"/>
    <path class="cls-17" d="M585.8169,478.94915q-.08272-1.89919-.16542-3.79838c-1.00954-2.10828-3.01214-2.60339-5.01946-3.11039-7.54379-1.9054-15.0512-3.96138-22.601-5.832-51.01721-12.64014-101.90737-25.78376-152.89527-38.5403q-23.71092-5.93216-47.38411-12.02963c-2.30616-.59818-5.14587-.725-5.64036-4.0005a46.17376,46.17376,0,0,1,9.79541-2.63394c.64353,1.68442,2.1852,1.64315,3.6082,2.00131q72.98228,18.37038,145.94926,36.80165,35.84775,9.04843,71.69217,18.11031c.842.21237,1.71944.28379,2.58038.4209A27.7635,27.7635,0,0,1,585.8169,478.94915Z" transform="translate(-152.07931 -114.01364)"/>
    <path class="cls-18" d="M467.76869,279.54608q.46912-5.73995.93822-11.47988a1.97594,1.97594,0,0,1,1.4613-1.43234c2.402-.13468,4.56833.88936,6.82117,1.45051,24.25072,6.04049,48.48532,12.14553,72.74325,18.15722,1.5115.3746,3.281.31945,4.10338,2.08386A96.681,96.681,0,0,1,556.497,304.171c-4.83577-2.15168-9.99383-3.22443-15.09237-4.48949-22.22744-5.51517-44.3492-11.44663-66.59458-16.89184C472.276,282.16937,469.54672,281.858,467.76869,279.54608Z" transform="translate(-152.07931 -114.01364)"/>
    <path class="cls-19" d="M467.76866,279.54609q41.385,10.57349,82.76642,21.16093c2.28619.586,5.01478.52477,5.9619,3.464a40.23281,40.23281,0,0,1,.98092,10.61632c-1.85937,1.27732-3.70871.30627-5.48768-.14184-27.13578-6.8359-54.34624-13.37667-81.39533-20.55526-1.686-.44744-3.47337-.7159-4.671-2.21081Z" transform="translate(-152.07931 -114.01364)"/>
    <path class="cls-20" d="M533.8958,233.67039a84.485,84.485,0,0,1,7.84936,16.77889c-2.43926,2.06935-5.04973.85923-7.53325.25536-19.67153-4.78316-39.20568-10.11-58.86482-14.9468-2.78794-.68593-5.13556-.87768-6.927,1.764q-1.36324-9.80329-2.72652-19.60656c1.624-1.62966,3.52667-1.082,5.35463-.59573,19.52109,5.19254,39.17864,9.84213,58.76141,14.789A19.13407,19.13407,0,0,1,533.8958,233.67039Z" transform="translate(-152.07931 -114.01364)"/>
    <path class="cls-21" d="M468.42008,237.52185c-.39282-4.103,1.62533-4.4398,5.01709-3.56646,20.73686,5.33948,41.515,10.5189,62.24838,15.87148a24.84528,24.84528,0,0,0,6.05956.62241,75.6544,75.6544,0,0,1,6.01271,15.86162c-1.79779.78071-3.45785-.07667-5.1269-.4927q-32.4144-8.08-64.82386-16.17972c-.99494-.249-2.00382-.4516-2.98587-.74072-3.1937-.94021-4.34639.44014-4.17785,3.51707a34.87821,34.87821,0,0,1,.02977,3.9592c-.2032,3.63877,1.03828,7.43942-1.23766,10.83515l-.72856.857Q468.56349,252.794,468.42008,237.52185Z" transform="translate(-152.07931 -114.01364)"/>
    <path class="cls-22" d="M465.92387,291.8794q25.433,6.34571,50.8654,12.69382,20.34858,5.0901,40.68866,10.21411a90.81926,90.81926,0,0,1,.17354,24.897c-1.36393-1.12725-1.29862-2.69993-1.33159-4.24068-.16614-9.51335,1.37639-8.58513-8.86424-11.10574-26.71416-6.57534-53.35222-13.45115-80.01817-20.21695-1.40766-.35714-2.90351-.51824-3.98217-1.66743Q464.68961,297.16646,465.92387,291.8794Z" transform="translate(-152.07931 -114.01364)"/>
    <path class="cls-23" d="M262.41244,468.73257c.95486-1.51309,2.14229-1.42621,3.788-1.01158,28.02151,7.06075,56.08007,13.97466,84.09941,21.044,12.59508,3.17772,25.12184,6.62619,37.68017,9.94958a7.21155,7.21155,0,0,1,3.88682,1.88015c-33.34816.62-65.563-5.31553-96.777-16.87722A219.42874,219.42874,0,0,1,262.41244,468.73257Z" transform="translate(-152.07931 -114.01364)"/>
    <path class="cls-24" d="M434.26187,304.92942c-.96084,1.40185-2.2067.98942-3.53178.6532q-38.3504-9.731-76.70326-19.45194a15.90142,15.90142,0,0,0-4.77809-.30981,92.24616,92.24616,0,0,1-11.21753-13.129c-.09578-2.35273,1.73631-1.96514,3.0566-1.99271a19.53958,19.53958,0,0,1,5.143,1.00976c21.92944,5.57386,43.96383,10.73466,65.791,16.71114C419.65891,293.62174,427.10383,299.08233,434.26187,304.92942Z" transform="translate(-152.07931 -114.01364)"/>
    <path class="cls-25" d="M469.43545,267.20918q.05-5.7.09992-11.4c1.7531-.86187,3.46076-.18475,5.13782.2306q35.62329,8.82261,71.20894,17.79639a10.64007,10.64007,0,0,1,4.75925,2.12781,58.78757,58.78757,0,0,1,3.19466,12.3615Z" transform="translate(-152.07931 -114.01364)"/>
    <path class="cls-26" d="M463.45533,302.45351c8.19749.65725,15.92876,3.44056,23.83335,5.37455,21.37583,5.23,42.64063,10.9163,64.03474,16.06737,4.80609,1.15718,7.28213,2.93628,6.23969,8.09314a17.45535,17.45535,0,0,0-.08674,3.07076c-1.26195,1.12682-2.70644.92582-4.15841.54531-30.78205-8.06781-61.78016-15.2847-92.527-23.491Q462.12315,307.28361,463.45533,302.45351Z" transform="translate(-152.07931 -114.01364)"/>
    <path class="cls-22" d="M412.02179,288.42a4.60119,4.60119,0,0,1-3.74619.29255c-21.92884-5.62938-43.88526-11.15123-65.83384-16.7038-1.57615-.39871-3.15534-.937-4.41048.683a128.45208,128.45208,0,0,1-13.12585-16.01949c.83432-3.11706,3.2444-1.86674,4.95881-1.51431,5.71911,1.17569,11.341,2.79225,17.02139,4.1524,13.06138,3.12749,25.98949,6.80356,39.15279,9.511C394.9263,275.05362,403.5671,281.61348,412.02179,288.42Z" transform="translate(-152.07931 -114.01364)"/>
    <path class="cls-16" d="M387.31349,386.22206c8.69269.42057,16.82745,3.48168,25.15124,5.531,34.98746,8.6142,69.827,17.83836,104.87141,26.20838,17.87242,4.26867,35.59153,9.12071,53.46927,13.35069a27.30916,27.30916,0,0,0,6.06494.66411,12.79108,12.79108,0,0,1,2.05829,5.19813c-7.60243.17352-14.55224-2.87538-21.71988-4.65171q-74.93625-18.57132-149.7546-37.61793c-3.4005-.859-6.691-2.14891-10.29166-1.69835C394.0015,390.70625,390.0673,389.29642,387.31349,386.22206Z" transform="translate(-152.07931 -114.01364)"/>
    <path class="cls-27" d="M357.66523,298.62688c-2.4899,2.3869-5.02632.25089-7.26119-.29255-20.79861-5.05737-41.53338-10.37756-62.28195-15.64-1.84761-.46863-3.66324-1.09277-5.413.24081q-5.75633-6.55846-11.51268-13.11687c.09851-2.7137,1.99666-2.44989,3.74889-2.15216,3.03825.51629,6.00656,1.36821,8.98787,2.14037,16.04295,4.15519,32.23478,7.72843,48.1662,12.31921Q344.88231,290.37627,357.66523,298.62688Z" transform="translate(-152.07931 -114.01364)"/>
    <path class="cls-28" d="M550.64138,275.964c-13.17885-3.20276-26.37122-6.351-39.5328-9.62324-13.87361-3.44926-27.71778-7.01693-41.574-10.53222-.33006-10.77435-.69366-9.64526,8.76495-7.26007,21.48333,5.41747,43.00339,10.68913,64.49931,16.057,1.68964.42192,3.30773,1.13029,4.95906,1.70554A33.93581,33.93581,0,0,1,550.64138,275.964Z" transform="translate(-152.07931 -114.01364)"/>
    <path class="cls-17" d="M352.11127,411.638a9.07255,9.07255,0,0,0,4.89678,2.65421q61.55232,15.44568,123.09723,30.921,50.94709,12.85914,101.85612,25.86927c2.15712.54768,4.5049.8558,3.6908,4.0684q-66.418-16.73415-132.83167-33.47926c-34.50923-8.73267-68.985-17.5981-103.51082-26.26411-1.89639-.476-3.25319-2.01474-5.24277-2.02114A26.83868,26.83868,0,0,1,352.11127,411.638Z" transform="translate(-152.07931 -114.01364)"/>
    <path class="cls-24" d="M332.09935,282.12565c-1.2143.77452-2.37156.536-3.73605.18611q-26.30506-6.7461-52.66492-13.27727c-1.48435-.36813-3.42189-1.80815-4.502.78376q-7.06175-8.34235-14.12351-16.68466c-.58542-.91228-.44407-1.65936.56341-2.11944a4.54424,4.54424,0,0,1,3.02276-.00442c14.38918,3.44038,28.695,7.20891,43.008,10.94928Z" transform="translate(-152.07931 -114.01364)"/>
    <path class="cls-29" d="M453.49026,174.71834q-3.52014-8.32763-7.04034-16.65525c.29307-2.45344,2.22323-2.03939,3.59109-1.69829,10.94628,2.72968,22.06433,4.81582,32.73812,8.58326a156.75237,156.75237,0,0,1,18.50725,20.27446c-1.884,1.78485-4.14547,1.35057-6.23974.78859-12.62409-3.38757-25.34837-6.37494-38.00756-9.62051A8.35253,8.35253,0,0,1,453.49026,174.71834Z" transform="translate(-152.07931 -114.01364)"/>
    <path class="cls-19" d="M386.03842,268.82137a5.61942,5.61942,0,0,1-4.56106.39488c-17.21064-4.37589-34.46452-8.58154-51.69729-12.87105-1.69686-.42238-3.34581-1.26329-4.87464.32706a138.526,138.526,0,0,1-10.71171-13.84032c.70607-3.28231,3.12314-1.83592,4.75722-1.45886,9.24051,2.13222,18.44325,4.43539,27.61468,6.84762,6.34041,1.66762,12.82843,2.74653,19.063,4.82452Q376.19641,260.4638,386.03842,268.82137Z" transform="translate(-152.07931 -114.01364)"/>
    <path class="cls-30" d="M453.49026,174.71834c9.64323,1.295,18.80984,4.65461,28.30813,6.5472,6.50095,1.29535,12.62369,4.47207,19.48786,3.957a104.68106,104.68106,0,0,1,12.39063,15.87195c-2.785,1.1725-5.46452.11693-8.10158-.52637-13.31705-3.24869-26.61155-6.5898-39.90717-9.92547a17.03245,17.03245,0,0,0-6.90114-.77228A119.22465,119.22465,0,0,1,453.49026,174.71834Z" transform="translate(-152.07931 -114.01364)"/>
    <path class="cls-31" d="M365.62858,253.04522c-9.49521.13866-18.1636-3.76553-27.24848-5.632-6.97382-1.43275-13.8505-3.34474-20.75411-5.10729-1.28-.32681-2.50271-1.094-3.43207.52571-4.01887-4.84624-8.20493-9.56552-11.41934-15.02334.3464-3.7419,3.04254-2.3961,4.87227-1.98859,8.1225,1.809,16.16228,3.97254,24.24033,5.97424a43.36685,43.36685,0,0,0,9.00884,1.70608Q353.60342,242.841,365.62858,253.04522Z" transform="translate(-152.07931 -114.01364)"/>
    <path class="cls-32" d="M458.767,189.87038c.424-2.71107,2.06273-1.61509,3.6068-1.231q22.246,5.53393,44.512,10.98715c2.24816.55164,4.52611.98164,6.7907,1.46793a71.16694,71.16694,0,0,1,8.51065,12.36976c-1.61048,1.565-3.54874,1.16779-5.36936.71533-17.14623-4.26117-34.3426-8.32429-51.39958-12.93931a8.47261,8.47261,0,0,1-3.904-1.87772A39.4241,39.4241,0,0,1,458.767,189.87038Z" transform="translate(-152.07931 -114.01364)"/>
    <path class="cls-22" d="M303.66705,261.959c-10.677.05265-20.31823-4.69021-30.56923-6.6304-4.55953-.863-9.04659-2.12627-13.54068-3.30641-1.26046-.331-2.31024-.74022-2.48424,1.11138-5.23788-6.00516-10.60944-11.89965-15.23753-18.40954,1.277-2.17936,3.34845-1.584,5.061-1.12663,9.518,2.54206,19.14376,4.64816,28.66107,7.18682Q289.61224,251.37162,303.66705,261.959Z" transform="translate(-152.07931 -114.01364)"/>
    <path class="cls-33" d="M533.8958,233.67039c-8.65026-.438-16.71981-3.584-25.03984-5.51384-13.01084-3.01793-25.88393-6.62767-38.83341-9.91568a24.41476,24.41476,0,0,0-4.32856-.32559q-1.14322-4.87-2.28561-9.74c1.35543-1.275,2.9807-1.12149,4.55391-.70675,19.52593,5.14758,39.13341,9.97118,58.72885,14.8431a4.12671,4.12671,0,0,1,1.52591.84648Q531.05644,228.41424,533.8958,233.67039Z" transform="translate(-152.07931 -114.01364)"/>
    <path class="cls-12" d="M460.79092,312.11367c3.47109-1.79682,6.58091.419,9.66611,1.18192,26.347,6.51509,52.62487,13.30958,78.94744,19.9247,2.66876.6707,5.17164,2.17268,8.07254,1.839q.08624,2.31195.17408,4.62439a.51082.51082,0,0,1-.031.65659c-8.79866-.71461-17.10272-3.67711-25.58483-5.77214-23.5309-5.81188-46.99377-11.89913-70.48735-17.86242a17.598,17.598,0,0,0-2.18161-.27978Q460.07808,314.26969,460.79092,312.11367Z" transform="translate(-152.07931 -114.01364)"/>
    <path class="cls-25" d="M340.896,233.50006c-1.41156,1.789-3.094,1.00571-4.79821.57154-9.46739-2.41185-18.92813-4.85525-28.43663-7.0947-1.53824-.36228-3.715-1.98256-4.88648.83122a166.70307,166.70307,0,0,1-13.18134-17.72073c.48793-2.967,2.78917-2.16084,4.40054-1.78568,7.80032,1.816,15.65424,3.44433,23.28406,5.93512Z" transform="translate(-152.07931 -114.01364)"/>
    <path class="cls-34" d="M528.21705,223.1581c-8.94278-.45658-17.28266-3.70688-25.88906-5.69164-11.45642-2.642-22.81408-5.71827-34.18382-8.723a18.844,18.844,0,0,0-4.73579-.56822c-.50434-2.9649-1.9691-5.72335-1.89425-8.81274,9.03709,2.17868,18.08238,4.32377,27.10893,6.54526,9.46325,2.32895,18.91949,4.689,28.3518,7.13929a25.77146,25.77146,0,0,0,5.21232.41714A56.171,56.171,0,0,1,528.21705,223.1581Z" transform="translate(-152.07931 -114.01364)"/>
    <path class="cls-35" d="M482.77913,164.94806c-8.95271-.60733-17.26269-4.13306-25.99028-5.70018-3.38657-.60809-6.61888-3.35008-10.33879-1.1849q-4.47035-8.84058-8.9404-17.68138a4.26718,4.26718,0,0,1,4.4156-1.02684c6.03307,1.37579,12.13382,2.48772,18.0326,4.414A188.16671,188.16671,0,0,1,482.77913,164.94806Z" transform="translate(-152.07931 -114.01364)"/>
    <path class="cls-36" d="M317.278,214.23683c-7.98633.22189-15.221-3.27044-22.88317-4.65978-1.708-.30973-3.35529-1.18005-4.80137.51027-6.52281-8.23776-12.82417-16.637-18.55854-25.44977-.00983-2.41942,1.83-1.99423,3.11516-1.75621,3.14859.58313,6.39773.86645,9.30688,2.404Q300.36746,199.76106,317.278,214.23683Z" transform="translate(-152.07931 -114.01364)"/>
    <path class="cls-19" d="M275.55744,240.78423c-9.09186.19095-17.4168-3.37877-26.06592-5.34858-2.53936-.57834-4.99539-1.6114-7.65592-.71171a142.27977,142.27977,0,0,1-12.17824-14.90224c.33731-2.72176,2.44671-2.102,3.91307-1.73965,6.44617,1.593,12.99217,2.81864,19.28542,5.002Z" transform="translate(-152.07931 -114.01364)"/>
    <path class="cls-37" d="M459.95786,143.76875c-5.482.73869-10.4609-1.57468-15.6248-2.68027a24.01551,24.01551,0,0,0-6.823-.70693c-5.691-8.66358-10.33286-18.01139-16.74843-26.36791C434.47125,123.0687,447.804,132.6289,459.95786,143.76875Z" transform="translate(-152.07931 -114.01364)"/>
    <path class="cls-18" d="M252.85585,223.08409c-6.757.45988-12.8274-2.57637-19.25078-3.81691-1.45277-.28058-2.82-1.03228-3.94765.55444a175.17328,175.17328,0,0,1-14.35236-17.7067c4.85184-2.5138,9.09391-.08887,13.41982,1.6569C236.91859,210.02175,245.22953,216.12519,252.85585,223.08409Z" transform="translate(-152.07931 -114.01364)"/>
    <path class="cls-38" d="M560.91214,478.11771c2.47726-2.44238,4.92341-.07968,7.266.253,5.89362.83688,11.46529,3.29918,17.45526,3.82772-1.1307,4.18239-.65951,8.65658-2.40194,12.74291-.72865,1.70884-.87076,3.67061-2.39705,5.34581C575.39517,491.71226,568.2672,484.811,560.91214,478.11771Z" transform="translate(-152.07931 -114.01364)"/>
    <path class="cls-39" d="M228.72488,203.77182c-4.57647.28764-8.80182-2.268-13.419-1.657-6.65588-7.7377-12.905-15.79619-18.96478-24.00433-.22871-.8664.09437-1.11924.913-.82109C207.905,185.92589,218.61565,194.49154,228.72488,203.77182Z" transform="translate(-152.07931 -114.01364)"/>
    <path class="cls-40" d="M283.45692,185.28532a24.99859,24.99859,0,0,1-9.40133-1.28259c-1.1986-.36574-2.242-.68606-3.02054.63458q-9.391-11.93415-17.644-24.682c-.20669-1.01964.19807-1.43557,1.22326-1.23893Q269.0356,172.00086,283.45692,185.28532Z" transform="translate(-152.07931 -114.01364)"/>
    <path class="cls-41" d="M176.87864,380.87883c-4.13146.26368-8.01688-1.09162-11.98611-1.86506-1.45912-.28433-2.93279-1.04551-3.11042,1.3774-3.98059-4.23781-6.52077-9.49022-9.7028-14.53885Q164.479,373.36561,176.87864,380.87883Z" transform="translate(-152.07931 -114.01364)"/>
    <path class="cls-42" d="M254.61426,158.71641q-.61138.61923-1.223,1.23868a14.56774,14.56774,0,0,1-3.885-5.9959Q252.06025,156.33781,254.61426,158.71641Z" transform="translate(-152.07931 -114.01364)"/>
    <path class="cls-14" d="M298.76985,416.91589c-3.01947-.17075-6.12121.81052-9.04884-.64618C292.75129,416.28912,295.80029,416.04631,298.76985,416.91589Z" transform="translate(-152.07931 -114.01364)"/>
    <path class="cls-3" d="M398.09058,500.5373c2.35467-1.44216,4.9127-.47221,7.37848-.62209C403.07911,500.93042,400.57281,500.591,398.09058,500.5373Z" transform="translate(-152.07931 -114.01364)"/>
    <path class="cls-43" d="M197.25407,177.2894l-.913.82112c-.76659-.56049-1.51734-1.13062-1.44987-2.2622C196.20151,175.58651,196.70765,176.47018,197.25407,177.2894Z" transform="translate(-152.07931 -114.01364)"/>
  </g>
</svg>
