<svg id="Layer_1" data-name="Layer 1" xmlns="http://www.w3.org/2000/svg" viewBox="0 0 155.17002 154.12294"><defs><style>.cls-1{fill:#5cd8e4;}</style></defs><g id="Rw4Bfz.tif"><path class="cls-1" d="M211.255,250.75469q-35.51146.00027-71.02292-.00089c-4.80919-.00047-6.43965-1.605-6.4408-6.40335q-.01161-48.49069-.04929-96.9813c-.0042-2.15075.53107-2.87841,2.77608-2.8504,9.46825.11807,18.93883.04448,28.40852.06193.63146.00116,1.46-.32242,1.85752.28826.4298.66035-.29067,1.20819-.61556,1.75029A52.167,52.167,0,0,0,185.994,219.639a55.17906,55.17906,0,0,0,26.99884,6.56861c24.25566.01886,48.51155.0507,72.76674-.058,2.59037-.01162,3.213.72591,3.12371,3.19838-.18881,5.22869-.044,10.469-.06356,15.7044-.01514,4.05927-1.66843,5.69569-5.79423,5.69738Q247.14027,250.7644,211.255,250.75469Z" transform="translate(-133.72141 -96.63285)"/><path class="cls-1" d="M211.44979,96.63353q35.5098,0,71.01961.00089c4.70213.00039,6.2871,1.57031,6.2876,6.25575q.00516,48.61313.05333,97.22612c.00519,2.22429-.59405,2.784-2.77513,2.75555-9.30157-.12141-18.60564-.04492-27.90878-.05586-2.68119-.00315-2.6866-.03492-1.34226-2.33247,7.954-13.59376,9.89545-28.20166,4.7831-42.90364-6.81785-19.60662-20.85739-31.71892-41.56345-35.54217a63.02243,63.02243,0,0,0-11.39608-.84822c-23.92236-.0288-47.845-.06108-71.76686.05174-2.61487.01233-3.20184-.75371-3.11064-3.21031.18793-5.06207.0491-10.136.05917-15.20506.00887-4.45993,1.71986-6.18914,6.14239-6.19Q175.69079,96.62855,211.44979,96.63353Z" transform="translate(-133.72141 -96.63285)"/><path class="cls-1" d="M256.75,175.45c-1.31-3.02-4.32-4.1-7.7-2.86a50.49293,50.49293,0,0,1-12.29,3.04c-.8.09-1.65.27-1.68-.81-.08-2.4-.61005-4.76,1.82-6.76a51.91954,51.91954,0,0,0,10.19-12.18c2.00995-3.12,1.63995-6.32-.92005-8.21-2.73-2.01-5.82995-1.44-8.27,1.54a19.53335,19.53335,0,0,0-1.27,1.85,55.98356,55.98356,0,0,1-5.26,6.62c-.38.44-.98,1.48-1.52.81-1.53-1.91-4.44-2.68-4.58-5.8a66.01481,66.01481,0,0,0-4.25-20.38c-.85-2.27-2.22-3.92-4.71-4.27-4.54-.64-7.7,3.18-6.2,7.57a68.5754,68.5754,0,0,1,3.24,12.26c.11.79.67,1.9-.49,2.42-1.82.81-5.49-.1-6.98-1.7a63.67219,63.67219,0,0,0-12.25-10.14c-1.59-1.02-3.25-1.72-5.16-1.09a5.71957,5.71957,0,0,0-4.28,4.71c-.36,2.52.93,4.36,2.9,5.66a51.34268,51.34268,0,0,1,8.12,6.16c.42.42,1.21.69.94,1.57-.29.91-4.69,4.47-5.62,4.54-2.06006.16-4.14.25-6.2.49a57.998,57.998,0,0,0-15.36,4.01,5.53541,5.53541,0,0,0-1.11,9.94c1.9,1.32,3.94,1.06,5.96.31a52.21758,52.21758,0,0,1,12.04-3.02c.63-.07,1.29-.47,1.72.4.7,1.42-.08,5.64-1.32,6.81a61.5565,61.5565,0,0,0-10.54,12.55,5.96638,5.96638,0,0,0-1.17,3.62,5.10618,5.10618,0,0,0,3.08,5.08c2.8,1.4,5.72.5,7.72-2.5a49.71553,49.71553,0,0,1,6.21-8.08c.38-.38.62-1.04,1.38-.85.98.24,4.6,4.74,4.61,5.81.05,7.07,1.9,13.78,4.13,20.4a6.23643,6.23643,0,0,0,2.19,3.26,5.73256,5.73256,0,0,0,6.76.05,5.43277,5.43277,0,0,0,2-6.62,71.29755,71.29755,0,0,1-3.31-12.5c-.11-.72-.5-1.49.39-1.99,1.31-.73,5.39-.06,6.49,1.1A68.62713,68.62713,0,0,0,229,208.9c3.43,2.18,6.8,1.75,8.74-1.18,1.79-2.71.8-6.12-2.49-8.27a73.3568,73.3568,0,0,1-7.73-5.86c-.74-.64-1.5-1.18-.49-2.42a10.96985,10.96985,0,0,1,8.88995-4.28,51.07607,51.07607,0,0,0,17.39-3.96C256.62,181.62,258,178.37,256.75,175.45ZM210.7,186.38c-6.72-.12-12.22-6.11-12.13-13.2.08-6.63,6.27-12.31,13.22-12.16a12.652,12.652,0,0,1,12.22,12.86C223.92,181.09,218.14,186.52,210.7,186.38Z" transform="translate(-133.72141 -96.63285)"/></g></svg>