<svg id="Layer_1" data-name="Layer 1" preserveAspectRatio="none" xmlns="http://www.w3.org/2000/svg" viewBox="0 0 853.72945 138.84955">
  <defs>
    <style>
      .cls-1 {
        fill: #393e46;
      }
    </style>
  </defs>
  <path class="cls-1" d="M196.47254,482.60984a34.88768,34.88768,0,0,0-8.87621,2.43737c-4.92331,1.94162-7.49788.93432-10.00109-3.70912-4.01176-7.442-14.33354-11.82717-22.68773-9.48888-2.92844.81964-5.11162-.60475-7.25152-1.999a36.33568,36.33568,0,0,1-6.06264-4.8605c-2.28588-2.32235-4.74078-3.21329-7.9154-2.33235-3.83617,1.06451-6.16044-.32484-7.287-4.24647a63.455,63.455,0,0,0-18.28357-29.89442c-1.49273-1.367-2.90092-3.03915-3.17091-4.79684-1.08935-7.09315-4.69123-12.88609-8.44315-18.78679-2.70222-4.24987-1.92914-5.18564,3.05359-5.18782q104.87266-.046,209.74539-.0508,315.35358-.0029,630.70712.009c10.27191.00015,9.8206-.14412,6.81428,9.38683-2.65052,8.403-6.33019,15.412-14.97587,18.93883a6.32409,6.32409,0,0,0-4.04037,6.62188c.14351,2.38941-.77542,4.68655-2.79323,5.19469-4.12236,1.03811-5.84008,4.14838-7.948,7.16408-2.51095,3.59233-5.63845,6.05724-10.49648,5.92718-3.7391-.1001-6.57714,2.41405-9.4648,4.48676a20.9012,20.9012,0,0,1-11.91642,1.07729c-1.73527-.27437-3.52135-.99728-5.29978-.49089-7.7611,2.21-15.31754,5.08666-23.28456,6.65894-2.13466.42127-3.68178,2.7156-4.98319,4.506-5.81921,8.00585-13.71648,13.07121-22.79908,16.556a17.79922,17.79922,0,0,0-7.14521,4.92769,6.96759,6.96759,0,0,1-8.79522,1.95925c-14.9441-6.76846-29.54127-14.14945-41.566-25.6007-3.26217-3.10658-6.6924-5.403-11.38424-5.91761-10.26614-1.12591-19.96287-4.01279-28.31789-10.40114a9.292,9.292,0,0,0-7.9358,2.77963c-4.18094,4.17291-9.0616,4.86109-14.261,2.16262-2.72-1.41167-5.05344-.766-7.86815-.14322-6.52068,1.44279-12.67315,6.39058-19.89774,2.66691-9.77623,4.216-13.6539-4.75831-18.77075-9.25737-4.87925-4.29014-9.41694-5.57814-15.85149-.50328-3.95747,3.1212-7.295,3.68962-11.95049,1.58909-3.90585-1.76234-8.33693-1.83337-11.18131,2.64656-2.50474,3.945-5.88248,3.1155-9.37566,1.767-4.39281-2.44167-8.70715-2.77948-12.89212.46945-1.16557.90485-2.71771.81336-3.96606,1.50858-7.19677,2.24413-13.80325,5.15766-18.48036,11.65351-2.265,3.14586-6.05016,4.57983-10.35,4.38583-6.95248-.31367-13.79477,2.11091-20.84526.94123-1.96071-.3253-3.7086.7989-5.08061,2.41247-2.3203,2.72893-5.10712,3.90479-8.65517,2.19846-1.36359-.65578-3.2125-.92917-4.2277.02905-5.3383,5.03861-12.85188,3.98384-18.90123,6.954-2.31511,1.1367-4.68544.78136-7.10005-.06878a17.9498,17.9498,0,0,0-13.26759.37973c-8.60293,3.51012-16.93091,7.12068-23.44,14.24721-4.79613,5.25112-8.19513,5.07007-13.94932.7156a6.08508,6.08508,0,0,0-4.95651-1.48468,10.53139,10.53139,0,0,1-8.39742-1.42518c-2.23692-1.53647-4.1181-.23994-5.82005.93031-3.24608,2.232-6.45366,2.66267-10.06837.87977-2.78121-1.37178-5.0638-.98977-7.07682,1.91669-3.27493,4.72863-7.93278,8.13328-12.84755,11.015-14.14493,8.29392-28.37541,16.444-42.60255,24.59826-5.23051,2.99789-7.61848,2.513-11.24251-2.18681a16.93811,16.93811,0,0,1-2.74694-4.53848c-2.82061-8.0896-9.82931-9.6325-16.96912-10.9799-2.05845-.38846-3.71156.68322-5.39995,1.77883-3.50492,2.27446-6.60985,2.0404-10.21932-.652-6.56017-4.89341-10.55952-11.80125-15.61675-17.87788-4.37013-3.98046-10.45546-5.17726-14.88864-9.07807a3.22332,3.22332,0,0,0-2.32528-.61247c-10.16761.861-15.94366-5.9246-21.81165-12.46953-1.40311-1.565-2.72228-3.20877-4.13029-4.78046a6.54764,6.54764,0,0,0-8.82426-1.36066c-4.69254,2.76923-9.29123,3.60814-14.21323,1.05416a4.56007,4.56007,0,0,0-5.04344.27356c-3.54146,2.61032-6.62687,1.17223-9.1671-1.19906-2.92355-2.72911-5.41589-2.14247-7.44276.46817C207.66758,479.49627,202.17616,481.168,196.47254,482.60984Z" transform="translate(-94.95819 -399.6939)"/>
</svg>
