<svg id="Layer_1" data-name="Layer 1" xmlns="http://www.w3.org/2000/svg" viewBox="0 0 196.4518 170.26698"><defs><style>.cls-1{fill:#4ac295;}.cls-2{fill:#3f5a71;}</style></defs><g id="fdk83B.tif"><path class="cls-1" d="M328.0907,69.35329c.08326.31181-.12965.52149-.26484.75564q-18.92733,32.77917-37.85613,65.55747-19.65237,34.036-39.30173,68.07371-10.03278,17.37744-20.06743,34.7538c-.1887.32674-.39249.64474-.6609,1.08409-1.03865-1.7933-2.01783-3.47976-2.99315-5.16844q-21.37767-37.01351-42.754-74.02781-23.19789-40.1753-46.39013-80.35385-2.902-5.02641-5.8145-10.0467c-.09449-.163-.21948-.30835-.33027-.46192.1842-.34715.50417-.15542.74722-.15564q19.30289-.01757,38.60581-.01035a1.01707,1.01707,0,0,0,.06853.23814q4.93347,8.53883,9.872,17.07474,4.48051,7.74783,8.95988,15.49631,4.82863,8.36013,9.65081,16.724,4.495,7.78721,8.99273,15.57282,4.80793,8.32431,9.61674,16.64812,4.49642,7.78641,8.99069,15.57406c.90607,1.569,1.8162,3.13571,2.77211,4.78566.13943-.197.22366-.29773.28827-.4098q6.35294-11.02065,12.70413-22.04232,7.35437-12.73881,14.724-25.46881,4.54168-7.85573,9.08153-15.71254,4.76592-8.25288,9.52647-16.50886,4.49433-7.7874,8.98886-15.57469c1.22621-2.128,2.438-4.26429,3.65629-6.39681Z" transform="translate(-131.65766 -69.31102)"/><path class="cls-2" d="M288.90372,69.35329c-1.21833,2.13252-2.43008,4.26883-3.65629,6.39681q-4.48915,7.79039-8.98886,15.57469-4.76371,8.25416-9.52647,16.50886-4.53786,7.858-9.08153,15.71254-7.3622,12.73433-14.724,25.46881-6.36011,11.01654-12.70413,22.04232c-.06461.11207-.14884.21284-.28827.4098-.95591-1.64995-1.866-3.21664-2.77211-4.78566q-4.49643-7.78639-8.99069-15.57406-4.80724-8.3247-9.61674-16.64812-4.497-7.786-8.99273-15.57282-4.8264-8.36142-9.65081-16.724-4.47638-7.75021-8.95988-15.49631-4.93683-8.53687-9.872-17.07474a1.01707,1.01707,0,0,1-.06853-.23814h36.36418c-.06971.28476.15.46048.26805.665q10.94656,18.97386,21.90735,37.93955c.11436.19788.15842.47463.4766.55225.11256-.18921.22545-.37419.33382-.56178Q241.33645,88.95,252.307,69.94867c.10465-.18133.29846-.342.23254-.59538Z" transform="translate(-131.65766 -69.31102)"/></g></svg>