<svg id="Layer_1" data-name="Layer 1" xmlns="http://www.w3.org/2000/svg" viewBox="0 0 390.43478 390.43478">
  <defs>
    <style>
      .cls-1 {
        fill: none;
        stroke: #fea92e;
        stroke-miterlimit: 10;
        stroke-width: 20px;
      }

      .cls-2 {
        fill: #fed631;
      }

      .cls-3 {
        fill: #fea92e;
      }
    </style>
  </defs>
  <circle class="cls-1" cx="195.21739" cy="195.21739" r="185.21739"/>
  <g>
    <path class="cls-2" d="M533.4236,314.98162c-1.02981-5.41748-1.98317-10.851-3.11255-16.24755A64.74064,64.74064,0,0,0,525.8403,285.13c-6.49411-14.24578-18.554-20.44018-33.18849-22.88384-13.31974-2.22415-24.28917,3.0558-34.30693,10.98773a85.77467,85.77467,0,0,0-17.67964,18.91893c-2.01585,2.95507-2.86836,2.01135-4.43322-.182a90.605,90.605,0,0,0-24.80827-23.69418c-18.19925-11.739-42.55022-6.6392-56.34488,9.87092-5.73433,6.86316-7.56795,16.00444-9.57409,24.75149-.97527,4.2523-.37125,8.75647-2.23186,12.83266-1.27886-25.5879-.1847-51.18278-.67038-77.77976l19.03834,18.03434,22.54952-53.79281c6.78813,13.51881,13.29357,26.4747,20.17524,40.17979,11.49923-21.8833,22.741-43.27654,34.36765-65.40234,11.41412,21.78362,22.48562,42.91341,33.78178,64.4719,6.32135-13.00454,12.45033-25.6133,19.03024-39.14971l23.68523,53.9163,18.56668-17.71272c.8792,1.25121.54309,2.42809.54423,3.50229.02316,21.77052-.00809,43.54115.0497,65.31154A45.35021,45.35021,0,0,1,533.4236,314.98162Z" transform="translate(-243.40048 -128.89247)"/>
    <path class="cls-3" d="M343.3,320.78254c.54025-.03308.58019-2.52033,1.45893-.46678,12.79471,29.90078,34.74209,53.0409,56.31625,76.43329,11.31616,12.26987,22.86978,24.3201,35.16021,35.63766,1.52223,1.40174,2.40116,2.08721,4.31014.24013,25.593-24.76278,50.5055-50.1528,71.95059-78.69735,8.5475-11.3772,16.10678-23.39789,20.87573-36.95475q.08358.64051.16759,1.27952c1.74965,4.40454,1.13242,8.81081.00957,13.21742-3.01428,25.90675-15.33192,47.84309-29.84933,68.66074-17.92207,25.69984-39.55451,48.1513-62.47608,69.38812-1.22853,1.13821-2.20953,2.794-4.40475.78723-31.28231-28.59627-59.97948-59.35049-80.02718-97.16863C348.15535,356.84753,342.47636,339.60788,343.3,320.78254Z" transform="translate(-243.40048 -128.89247)"/>
  </g>
</svg>
