<svg id="Layer_1" data-name="Layer 1" xmlns="http://www.w3.org/2000/svg" viewBox="0 0 246.21209 377.30836">
  <defs>
    <style>
      .cls-1 {
        fill: #fed631;
      }

      .cls-2 {
        fill: #fea92e;
      }
    </style>
  </defs>
  <g>
    <path class="cls-1" d="M489.69812,328.48134c-1.32036-6.946-2.54273-13.91258-3.99076-20.83179a83.00832,83.00832,0,0,0-5.73219-17.44249c-8.32642-18.26524-23.78907-26.20737-42.55262-29.3405-17.07792-2.85167-31.14235,3.918-43.98662,14.08792A109.97589,109.97589,0,0,0,370.768,299.21139c-2.58462,3.78886-3.67768,2.57885-5.68405-.23333a116.16925,116.16925,0,0,0-31.80791-30.37949c-23.33418-15.05114-54.55575-8.51245-72.24259,12.656-7.35227,8.79958-9.70325,20.52007-12.27542,31.7351-1.25044,5.45209-.476,11.22712-2.86158,16.4534-1.63969-32.80752-.23681-65.624-.85952-99.7253l24.41,23.12272,28.91186-68.97044c8.70339,17.33314,17.04435,33.94453,25.86767,51.51651,14.74375-28.05766,29.15734-55.487,44.06448-83.85558,14.6346,27.92986,28.82993,55.02142,43.31328,82.66262,8.10493-16.67377,15.96319-32.84008,24.39962-50.19578l30.368,69.12876,23.80528-22.71035c1.12725,1.60423.69631,3.11318.69777,4.49047.02969,27.91306-.01039,55.82627.06372,83.73917A58.146,58.146,0,0,1,489.69812,328.48134Z" transform="translate(-245.03694 -151.53103)"/>
    <path class="cls-2" d="M245.93119,335.919c.69269-.04241.7439-3.23144,1.87057-.59848,16.40472,38.33728,44.54455,68.00637,72.20586,97.99895,14.509,15.73181,29.32248,31.182,45.08066,45.69281,1.95172,1.79725,3.07863,2.67612,5.52626.3079,32.8141-31.7496,64.75562-64.30341,92.25145-100.9018,10.95917-14.58727,20.65131-29.9996,26.7658-47.38154q.10711.82122.21486,1.64052c2.24333,5.64728,1.45194,11.29678.01228,16.94673-3.86474,33.21634-19.65781,61.342-38.27131,88.03336-22.97879,32.95105-50.71482,61.73719-80.1037,88.966-1.57517,1.45934-2.83294,3.5823-5.64755,1.00934C325.72775,490.96805,288.9337,451.53653,263.22951,403.048,252.15647,382.15972,244.87514,360.05592,245.93119,335.919Z" transform="translate(-245.03694 -151.53103)"/>
  </g>
</svg>
