<svg id="Layer_1" data-name="Layer 1" xmlns="http://www.w3.org/2000/svg" viewBox="0 0 154.33627 236.75186">
  <defs>
    <style>
      .cls-1 {
        fill: #6a97e0;
      }

      .cls-2 {
        fill: #6588e1;
      }

      .cls-3 {
        fill: #6c9edf;
      }

      .cls-4 {
        fill: #6483e1;
      }

      .cls-5 {
        fill: #6993e0;
      }

      .cls-6 {
        fill: #678ce0;
      }

      .cls-7 {
        fill: #6587e1;
      }

      .cls-8 {
        fill: #6ea3df;
      }

      .cls-9 {
        fill: #637ee2;
      }

      .cls-10 {
        fill: #6890e0;
      }

      .cls-11 {
        fill: #6c9cdf;
      }
    </style>
  </defs>
  <path class="cls-1" d="M405.85591,304.01123l9.20353,20.65953a163.80821,163.80821,0,0,0,1.297-21.3833,37.80843,37.80843,0,0,1,.67821-10.71518c1.22028,2.39915,2.49859,3.12071,5.24792,1.44827q10.99721-6.69016,22.27566-12.92936c1.94114-1.07644,3.73594-2.76852,6.2845-2.15467l-.84334,49.35674c-12.05524,7.249-24.369,14.05507-36.4812,21.206-5.07207,2.9945-10.23974,5.82063-15.32057,8.79925-1.329.77909-2.65676,1.81338-4.39426,1.16066l-15.64963-38.96453a31.28241,31.28241,0,0,1,9.98638-6.62845A179.45813,179.45813,0,0,1,405.85591,304.01123Z" transform="translate(-309.35888 -169.62553)"/>
  <path class="cls-2" d="M351.15283,255.53056l-2.39289-4.28946-1.19315,7.74a67.76247,67.76247,0,0,1-11.74067,7.302c-5.86708,3.42214-11.68959,6.92236-17.6269,10.22264-4.50025,2.50145-5.63938,1.88147-5.59158-3.06882a17.464,17.464,0,0,1,.32476-6.00241,198.24543,198.24543,0,0,1,.85075-25.77449c17.93042-9.81512,35.57291-20.12918,53.13716-30.5786l11.1612,27.97631c.99958,1.98951-.45281,2.93876-1.76738,3.73544-7.10619,4.307-14.38908,8.31334-21.56307,12.5063C353.66967,255.93169,352.41939,256.54774,351.15283,255.53056Z" transform="translate(-309.35888 -169.62553)"/>
  <path class="cls-3" d="M393.80328,359.459q24.953-14.32773,49.9043-28.65866a12.13643,12.13643,0,0,1,6.29178-2.50718q-.02339,9.12442-.04649,18.24876a167.035,167.035,0,0,0-.231,18.91827,5.779,5.779,0,0,1-3.2375,5.87661c-11.66962,6.53974-23.19725,13.33049-34.809,19.97343-1.68352.96316-3.39742,2.36411-5.56932,1.08085C401.28874,381.68059,398.00153,370.40018,393.80328,359.459Z" transform="translate(-309.35888 -169.62553)"/>
  <path class="cls-4" d="M366.92031,211.08154c-2.18549,4.11349-6.65317,5.19312-10.21215,7.33306-12.42478,7.47065-25.075,14.56677-37.606,21.86267a8.80285,8.80285,0,0,1-5.31859,1.38287c.39785-14.74928.82873-29.49783,1.17375-44.24842.10042-4.29453-.04473-8.59484-.07731-12.89248,2.24516.472,1.73379,2.376,1.80315,3.792.176,3.5905.031,7.19172.07141,10.78819.05566,4.95732.60656,5.33226,4.73982,2.938,11.70523-6.78036,23.5534-13.31755,35.04313-20.46577Z" transform="translate(-309.35888 -169.62553)"/>
  <path class="cls-1" d="M316.3367,398.54681a85.58668,85.58668,0,0,1-6.53707-32.15961,154.02673,154.02673,0,0,1,.51272-28.75565c1.74041,1.61261,1.1309,3.7514,1.23,5.70506a130.10183,130.10183,0,0,0,.3981,13.82115c7.93332-4.287,15.26777-8.54119,22.58156-12.83212a23.34987,23.34987,0,0,1,3.74916-2.15787c3.96023-1.41536,6.34592-3.80706,5.84363-8.3405a2.40463,2.40463,0,0,1,1.07664-2.24749c1.46344,5.79215.6307,11.73654,1.12321,17.60349a259.05806,259.05806,0,0,0,5.06712,30.183c-5.723,4.32891-12.32075,7.2067-18.35979,11.021-3.9931,2.52208-8.20321,4.70835-12.3081,7.05929C319.39045,398.20478,318.074,399.29832,316.3367,398.54681Z" transform="translate(-309.35888 -169.62553)"/>
  <path class="cls-5" d="M345.19142,331.58c1.04926,6.24107-1.59072,9.57965-7.41859,12.34628-9.158,4.34741-17.68194,10.02645-27.45938,15.71466,0-7.87309,0-14.94007-.00057-22.00811.19349-8.37562-.46848-16.77972.87248-25.11441,1.43283,2.90037,3.15172,3.16768,6.017,1.4305,7.62067-4.62028,15.422-8.94592,23.09752-13.48206,1.42932-.84481,2.84226-2.20436,4.6759-.7651Q345.08365,315.64092,345.19142,331.58Z" transform="translate(-309.35888 -169.62553)"/>
  <path class="cls-6" d="M344.9758,299.7018c-6.087,1.84456-10.86983,6.123-16.50725,8.83927-4.10461,1.97772-7.909,4.58492-11.81278,6.96762-4.2523,2.59541-5.16893,2.11432-5.47-2.98934q.60346-21.736,1.22863-43.46941a6.14186,6.14186,0,0,1,.51816-1.61375c.31454,10.94549.30946,10.9369,9.90115,5.266,7.29512-4.31311,14.61877-8.57834,21.89172-12.92829a5.16561,5.16561,0,0,1,2.84136-.79292Q346.27125,279.3415,344.9758,299.7018Z" transform="translate(-309.35888 -169.62553)"/>
  <path class="cls-7" d="M418.02655,214.79775c-.0225-6.48047-.29767-12.97249-.00712-19.4388.41705-9.279,6.64675-14.71487,13.933-18.97368a44.93,44.93,0,0,1,27.4656-5.68767c4.67528.43947,5.34445,1.77421,2.84963,5.49382-4.00566,5.97221-5.55079,12.89306-7.79906,19.54729-10.54768,6.77627-21.7205,12.48764-32.44149,18.96983A3.11015,3.11015,0,0,1,418.02655,214.79775Z" transform="translate(-309.35888 -169.62553)"/>
  <path class="cls-6" d="M351.15283,255.53056c9.196-3.98581,17.42519-9.70586,26.12176-14.58665.47332-.26551.5471-1.241.80692-1.88606q7.36761,16.91434,14.73525,33.82878c1.08351,2.11433-.71256,2.9057-1.93333,3.61743-7.32561,4.27055-14.57311,8.67869-22.03618,12.71148-1.16872.63152-2.36322,1.15681-3.583.08438C360.31686,278.1449,355.38405,266.98391,351.15283,255.53056Z" transform="translate(-309.35888 -169.62553)"/>
  <path class="cls-5" d="M365.26416,289.29992c7.08638-2.42043,13.11171-6.81367,19.45972-10.57972,2.84226-1.68627,6.56559-2.28972,8.093-5.83365,4.73093,10.21445,9.0377,20.60585,13.03911,31.12476-2.24728,3.12839-5.99329,4.041-9.05044,5.92572-6.07677,3.74642-12.41913,7.0633-18.65165,10.55771Q371.70911,304.89734,365.26416,289.29992Z" transform="translate(-309.35888 -169.62553)"/>
  <path class="cls-6" d="M418.02655,214.79775c5.753-.96455,9.871-5.13124,14.8243-7.66028,6.14253-3.13625,11.95064-6.925,17.90967-10.421a6.08258,6.08258,0,0,1,3.708-.97781,223.24414,223.24414,0,0,0-2.61416,31.1895,37.16183,37.16183,0,0,1-9.25885,6.1499c-6.737,3.785-13.28252,7.90361-20.11649,11.5099-1.54926.81756-3.49089,2.692-4.90637-.34866a47.00079,47.00079,0,0,1,.34989-8.8518Q417.97456,225.09278,418.02655,214.79775Z" transform="translate(-309.35888 -169.62553)"/>
  <path class="cls-5" d="M417.92253,235.38772l.13995,9.72231c2.12763,3.9349.93378,8.18213,1.01812,12.27148.19533,9.47054.01531,9.38845,8.2141,4.88456,8.16543-4.48565,15.93629-9.67394,24.39371-13.6361.43448,10.122-.62117,20.20267-.84559,30.30646-9.61231,5.45069-19.26144,10.83763-28.82027,16.38006-4.44361,2.57643-4.67884,2.54132-4.98731-2.7429q.16562-27.355.35537-54.70742A12.28151,12.28151,0,0,1,417.92253,235.38772Z" transform="translate(-309.35888 -169.62553)"/>
  <path class="cls-8" d="M406.10619,392.391c8.836-3.2609,16.34061-8.9753,24.58057-13.33858,5.33623-2.82573,10.40609-6.15187,15.73323-8.99626a4.497,4.497,0,0,0,2.85961-4.67855c-.16361-4.898-.08008-9.80555-.02741-14.70836.01493-1.39359-.454-2.91134.70105-4.12749q.04254,21.17467.08409,42.34894a3.84877,3.84877,0,0,1-.88864,3.20868c-9.04614,8.30728-18.91781,13.89506-31.96977,11.20446C410.82227,401.99351,408.28947,397.54518,406.10619,392.391Z" transform="translate(-309.35888 -169.62553)"/>
  <path class="cls-9" d="M356.53743,181.57164c-.195,2.07439-1.98534,2.78-3.398,3.60765-10.90883,6.39126-21.868,12.697-32.82539,19.00518-3.42562,1.97216-4.50672,1.29513-4.72235-2.58461-.31629-5.69124.89041-11.4459-.71185-17.08083-.15227-.99258-.45625-2.02245.71709-2.66314,8.53886-4.662,16.33738-10.72,26.57875-11.89871C352.23978,168.79894,354.43034,170.223,356.53743,181.57164Z" transform="translate(-309.35888 -169.62553)"/>
  <path class="cls-10" d="M451.68841,248.62989c-2.153,4.04179-6.78678,4.41779-10.149,6.665-6.33029,4.2311-13.16634,7.70218-19.734,11.58724-2.903,1.71729-3.98573,1.3052-3.86464-2.29176.21816-6.48743.09883-12.98616.12117-19.4803,3.55326-.42233,6.16594-2.80453,9.13613-4.41886,8.27016-4.49473,16.05042-9.86546,24.65631-13.76312Z" transform="translate(-309.35888 -169.62553)"/>
  <path class="cls-11" d="M316.3367,398.54681q13.82124-7.90128,27.64393-15.79985a23.79622,23.79622,0,0,1,7.40038-3.3804c1.73419,5.01183,3.3306,10.07735,5.26646,15.01012.81031,2.06489-.30705,2.90537-1.48043,3.95832a33.8452,33.8452,0,0,1-20.54827,7.9032c-2.29094.19872-4.63092-.14888-6.91847.06826C321.68749,406.87741,318.177,403.97581,316.3367,398.54681Z" transform="translate(-309.35888 -169.62553)"/>
</svg>
