<svg id="Layer_1" data-name="Layer 1" xmlns="http://www.w3.org/2000/svg" viewBox="0 0 390.43478 390.43478">
  <defs>
    <style>
      .cls-1 {
        fill: #6a97e0;
      }

      .cls-2 {
        fill: #6588e1;
      }

      .cls-3 {
        fill: #6c9edf;
      }

      .cls-4 {
        fill: #6483e1;
      }

      .cls-5 {
        fill: #6993e0;
      }

      .cls-6 {
        fill: #678ce0;
      }

      .cls-7 {
        fill: #6587e1;
      }

      .cls-8 {
        fill: #6ea3df;
      }

      .cls-9 {
        fill: #637ee2;
      }

      .cls-10 {
        fill: #6890e0;
      }

      .cls-11 {
        fill: #6c9cdf;
      }

      .cls-12 {
        fill: none;
        stroke: #6587e1;
        stroke-miterlimit: 10;
        stroke-width: 20px;
      }
    </style>
  </defs>
  <g>
    <path class="cls-1" d="M450.57222,334.78129l9.20352,20.65955a163.8129,163.8129,0,0,0,1.297-21.3833,37.80848,37.80848,0,0,1,.67823-10.71518c1.22027,2.39914,2.49859,3.1207,5.24792,1.44827q10.99722-6.69017,22.27567-12.92935c1.94113-1.07645,3.73593-2.76852,6.28448-2.15466l-.84335,49.35675c-12.05524,7.249-24.369,14.05508-36.4812,21.206-5.07209,2.99451-10.23975,5.82062-15.32056,8.79926-1.329.77908-2.65677,1.81338-4.39426,1.16067L422.87,351.26475a31.28206,31.28206,0,0,1,9.98639-6.62845A179.45906,179.45906,0,0,1,450.57222,334.78129Z" transform="translate(-236.02594 -123.55414)"/>
    <path class="cls-2" d="M395.86915,286.30063l-2.39288-4.28946-1.19315,7.74a67.763,67.763,0,0,1-11.74066,7.302c-5.86706,3.42215-11.68961,6.92237-17.62689,10.22263-4.50025,2.50147-5.63938,1.88147-5.59158-3.06882a17.46354,17.46354,0,0,1,.32476-6.00241,198.24537,198.24537,0,0,1,.85074-25.77449c17.93042-9.81512,35.57291-20.12918,53.13718-30.5786l11.16119,27.97632c.99957,1.98952-.45282,2.93877-1.76739,3.73545-7.1062,4.307-14.38907,8.31333-21.56308,12.5063C398.386,286.70175,397.13572,287.31779,395.86915,286.30063Z" transform="translate(-236.02594 -123.55414)"/>
    <path class="cls-3" d="M438.5196,390.22908q24.953-14.32773,49.9043-28.65866a12.13625,12.13625,0,0,1,6.29178-2.50717q-.0234,9.12441-.04648,18.24874a167.03761,167.03761,0,0,0-.231,18.91828,5.779,5.779,0,0,1-3.23749,5.87662c-11.66961,6.53973-23.19723,13.33047-34.809,19.97342-1.68353.96316-3.39743,2.3641-5.5693,1.08084C446.00505,412.45067,442.71785,401.17024,438.5196,390.22908Z" transform="translate(-236.02594 -123.55414)"/>
    <path class="cls-4" d="M411.63664,241.85161c-2.18549,4.11349-6.65317,5.19311-10.21216,7.33305-12.42477,7.47066-25.075,14.56677-37.606,21.86267a8.80286,8.80286,0,0,1-5.3186,1.38287c.39786-14.74928.82873-29.49783,1.17374-44.24842.10043-4.29453-.04474-8.59484-.07731-12.89249,2.24515.472,1.7338,2.376,1.80317,3.792.176,3.5905.031,7.19172.07141,10.78819.05566,4.95732.60656,5.33226,4.7398,2.938,11.70523-6.78036,23.55341-13.31755,35.04313-20.46577Z" transform="translate(-236.02594 -123.55414)"/>
    <path class="cls-1" d="M361.053,429.31688a85.587,85.587,0,0,1-6.53708-32.15961,154.02507,154.02507,0,0,1,.51273-28.75565c1.74041,1.61261,1.13089,3.75141,1.23,5.70505a130.10475,130.10475,0,0,0,.3981,13.82114c7.93332-4.287,15.26776-8.5412,22.58157-12.83212a23.34934,23.34934,0,0,1,3.74915-2.15787c3.96023-1.41538,6.34592-3.80707,5.84363-8.34049a2.4046,2.4046,0,0,1,1.07663-2.24749c1.46344,5.79214.6307,11.73654,1.1232,17.60348a259.06225,259.06225,0,0,0,5.0671,30.183c-5.723,4.32891-12.32074,7.20669-18.3598,11.021-3.9931,2.5221-8.20322,4.70834-12.3081,7.0593C364.10676,428.97484,362.79032,430.06837,361.053,429.31688Z" transform="translate(-236.02594 -123.55414)"/>
    <path class="cls-5" d="M389.90773,362.35005c1.04925,6.24106-1.59073,9.57965-7.41858,12.34628-9.158,4.34741-17.68195,10.02646-27.45938,15.71466,0-7.87307,0-14.94006-.00058-22.00811.19348-8.37561-.46848-16.77973.87246-25.11441,1.43283,2.90036,3.15174,3.16769,6.017,1.43051,7.62067-4.62027,15.422-8.94593,23.09753-13.48206,1.42933-.84482,2.84226-2.20434,4.67591-.7651Q389.8,346.411,389.90773,362.35005Z" transform="translate(-236.02594 -123.55414)"/>
    <path class="cls-6" d="M389.69212,330.47188c-6.087,1.84457-10.86984,6.123-16.50726,8.83926-4.10462,1.97772-7.909,4.58493-11.81278,6.96762-4.25229,2.5954-5.16894,2.11432-5.47-2.98935q.60342-21.736,1.22864-43.46942a6.14241,6.14241,0,0,1,.51816-1.61374c.31454,10.9455.30944,10.93689,9.90115,5.266,7.2951-4.31311,14.61877-8.57834,21.89172-12.92828a5.1654,5.1654,0,0,1,2.84137-.79291Q390.98756,310.11156,389.69212,330.47188Z" transform="translate(-236.02594 -123.55414)"/>
    <path class="cls-7" d="M462.74287,245.56781c-.02249-6.48047-.29767-12.97249-.00711-19.4388.417-9.279,6.64676-14.71487,13.933-18.97368a44.93,44.93,0,0,1,27.46561-5.68767c4.67529.43947,5.34445,1.77422,2.84964,5.49382-4.00565,5.97222-5.55078,12.89307-7.79907,19.54729-10.54767,6.77628-21.72049,12.48764-32.4415,18.96984A3.11015,3.11015,0,0,1,462.74287,245.56781Z" transform="translate(-236.02594 -123.55414)"/>
    <path class="cls-6" d="M395.86915,286.30063c9.196-3.98581,17.4252-9.70586,26.12177-14.58666.47332-.2655.54708-1.241.80691-1.88606q7.36761,16.91432,14.73526,33.82878c1.0835,2.11432-.71255,2.9057-1.93332,3.61743-7.32562,4.27054-14.57312,8.67868-22.03619,12.71149-1.16873.63153-2.36322,1.1568-3.583.08438C405.03318,308.915,400.10038,297.754,395.86915,286.30063Z" transform="translate(-236.02594 -123.55414)"/>
    <path class="cls-5" d="M409.98048,320.07c7.08636-2.42044,13.11169-6.81366,19.45972-10.57971,2.84225-1.68628,6.56558-2.28974,8.093-5.83365,4.73093,10.21445,9.03769,20.60586,13.03913,31.12476-2.24729,3.12838-5.99329,4.041-9.05045,5.92572-6.07678,3.74642-12.41913,7.06329-18.65164,10.5577Q416.42546,335.66739,409.98048,320.07Z" transform="translate(-236.02594 -123.55414)"/>
    <path class="cls-6" d="M462.74287,245.56781c5.753-.96456,9.871-5.13124,14.82431-7.66028,6.14252-3.13625,11.95065-6.925,17.90967-10.421a6.08255,6.08255,0,0,1,3.708-.97781,223.24352,223.24352,0,0,0-2.61417,31.1895,37.16155,37.16155,0,0,1-9.25885,6.1499c-6.737,3.785-13.28253,7.90361-20.11649,11.5099-1.54925.81757-3.49087,2.692-4.90637-.34866a47.00073,47.00073,0,0,1,.34989-8.8518Q462.69082,255.86283,462.74287,245.56781Z" transform="translate(-236.02594 -123.55414)"/>
    <path class="cls-5" d="M462.63884,266.15779l.13995,9.7223c2.12762,3.93491.93378,8.18213,1.01813,12.27147.19534,9.47055.01532,9.38846,8.21411,4.88456,8.16543-4.48566,15.93628-9.67394,24.3937-13.6361.43448,10.122-.62115,20.20268-.84558,30.30648-9.6123,5.45068-19.26144,10.83761-28.82028,16.38006-4.4436,2.57642-4.67883,2.54132-4.9873-2.74289q.16562-27.355.35537-54.70743A12.28239,12.28239,0,0,1,462.63884,266.15779Z" transform="translate(-236.02594 -123.55414)"/>
    <path class="cls-8" d="M450.82252,423.16105c8.836-3.26089,16.34061-8.97531,24.58057-13.33859,5.33624-2.82574,10.40609-6.15185,15.73321-8.99624a4.497,4.497,0,0,0,2.85962-4.67856c-.1636-4.898-.08008-9.80554-.0274-14.70838.01492-1.39358-.454-2.91134.70105-4.1275q.04252,21.17469.08407,42.34894a3.84876,3.84876,0,0,1-.88864,3.20868c-9.04614,8.30728-18.91782,13.89505-31.96976,11.20447C455.53858,432.76356,453.00578,428.31523,450.82252,423.16105Z" transform="translate(-236.02594 -123.55414)"/>
    <path class="cls-9" d="M401.25376,212.3417c-.195,2.07439-1.98535,2.78-3.398,3.60765-10.90884,6.39127-21.868,12.697-32.82537,19.00519-3.42563,1.97215-4.50672,1.29514-4.72236-2.58461-.31628-5.69124.89042-11.44591-.71185-17.08082-.15228-.99259-.45624-2.02245.7171-2.66315,8.53885-4.662,16.33738-10.72,26.57877-11.89871C396.9561,199.569,399.14665,200.99307,401.25376,212.3417Z" transform="translate(-236.02594 -123.55414)"/>
    <path class="cls-10" d="M496.40473,279.4c-2.153,4.04179-6.78677,4.41778-10.149,6.665-6.33029,4.23109-13.16635,7.70219-19.734,11.58723-2.903,1.71729-3.98572,1.30521-3.86466-2.29174.21817-6.48743.09882-12.98616.12116-19.48031,3.55325-.42233,6.166-2.80453,9.13614-4.41885,8.27017-4.49473,16.05041-9.86546,24.65631-13.76312Z" transform="translate(-236.02594 -123.55414)"/>
    <path class="cls-11" d="M361.053,429.31688q13.82126-7.90128,27.64392-15.79987a23.7966,23.7966,0,0,1,7.40039-3.3804c1.73419,5.01184,3.3306,10.07736,5.26645,15.01013.8103,2.06488-.307,2.90537-1.48044,3.95831a33.84521,33.84521,0,0,1-20.54828,7.9032c-2.291.19873-4.63092-.14889-6.91845.06827C366.40382,437.64747,362.89332,434.74586,361.053,429.31688Z" transform="translate(-236.02594 -123.55414)"/>
  </g>
  <circle class="cls-12" cx="195.21739" cy="195.21739" r="185.21739"/>
</svg>
