<svg id="Layer_1" data-name="Layer 1" xmlns="http://www.w3.org/2000/svg" viewBox="0 0 166.22365 238.75294">
  <defs>
    <style>
      .cls-1 {
        fill: #4992fe;
      }
    </style>
  </defs>
  <path class="cls-1" d="M318.38164,269.72482c.00024-36.64925.081-73.299-.10937-109.94725-.022-4.23412,1.20963-5.87616,5.32912-6.55105,26.41816-4.3282,52.97713-7.78264,79.745-5.79438,26.45621,1.96515,50.37491,10.47907,67.63955,32.17737a65.71976,65.71976,0,0,1,13.3206,44.89513c-1.23839,37.38047-32.35293,60.578-64.40581,66.98a95.98357,95.98357,0,0,1-38.65538-.09744c-4.20408-.87192-5.31223-2.40251-3.13648-6.45495a86.45967,86.45967,0,0,1,10.1953-16.44821,26.39033,26.39033,0,0,1,16.73375-8.96193,37.63612,37.63612,0,0,0,30.5371-33.17664c1.94165-25.43663-14.84232-44.03269-40.54131-44.9229a163.33679,163.33679,0,0,0-26.30267,1.17893c-2.39994.30493-3.48625.86818-3.23313,3.35137a39.70814,39.70814,0,0,1,.02147,4.00608q-.00009,94.77269.10093,189.54545c.0107,4.53758-.75618,6.26636-5.797,6.09252-12.03413-.41486-24.09707-.32579-36.13823-.03022-4.24537.10423-5.43195-.97285-5.41-5.322C318.46159,343.40557,318.3814,306.565,318.38164,269.72482Z" transform="translate(-318.27198 -146.85575)"/>
</svg>
