<svg id="Layer_1" data-name="Layer 1" xmlns="http://www.w3.org/2000/svg" viewBox="0 0 390.43478 390.43478">
  <defs>
    <style>
      .cls-1 {
        fill: none;
        stroke: #4992fe;
        stroke-miterlimit: 10;
        stroke-width: 20px;
      }

      .cls-2 {
        fill: #4992fe;
      }
    </style>
  </defs>
  <circle class="cls-1" cx="195.21739" cy="195.21739" r="185.21739"/>
  <path class="cls-2" d="M368.61571,328.60246c.00025-36.64924.081-73.299-.10937-109.94725-.022-4.23411,1.20963-5.87616,5.32913-6.55105,26.41815-4.3282,52.97714-7.78264,79.745-5.79439,26.4562,1.96515,50.37491,10.47906,67.63955,32.17737a65.71981,65.71981,0,0,1,13.32059,44.89512c-1.2384,37.38048-32.35293,60.578-64.40579,66.98a95.98349,95.98349,0,0,1-38.6554-.09744c-4.20407-.87192-5.31222-2.4025-3.13647-6.455a86.46123,86.46123,0,0,1,10.19531-16.44821,26.39038,26.39038,0,0,1,16.73377-8.962,37.63611,37.63611,0,0,0,30.53711-33.17663c1.94165-25.43663-14.84232-44.03269-40.54133-44.9229a163.33674,163.33674,0,0,0-26.30267,1.17893c-2.39993.30493-3.48624.86818-3.23312,3.35136a39.71375,39.71375,0,0,1,.02148,4.00607q-.00009,94.77267.10092,189.54544c.01071,4.53757-.75619,6.26636-5.797,6.09253-12.03412-.41485-24.09708-.32577-36.13825-.03021-4.24536.10422-5.43194-.97284-5.41-5.322C368.69564,402.28322,368.61547,365.44264,368.61571,328.60246Z" transform="translate(-243.40048 -128.89247)"/>
</svg>
