<svg id="Layer_1" data-name="Layer 1" xmlns="http://www.w3.org/2000/svg" viewBox="0 0 474.74635 92.70567">
  <defs>
    <style>
      .cls-1 {
        fill: #cd0000;
      }

      .cls-2 {
        fill: #f77274;
      }

      .cls-3 {
        fill: #7b0000;
      }

      .cls-10, .cls-11, .cls-14, .cls-4 {
        fill: #fa191d;
      }

      .cls-5 {
        fill: #8f0000;
      }

      .cls-6 {
        fill: #fff;
      }

      .cls-15, .cls-16, .cls-7 {
        fill: #654fef;
      }

      .cls-12, .cls-13, .cls-8 {
        fill: #16213e;
      }

      .cls-10, .cls-11, .cls-12, .cls-13, .cls-14, .cls-15, .cls-16, .cls-9 {
        isolation: isolate;
      }

      .cls-10, .cls-11, .cls-12, .cls-13, .cls-14, .cls-15, .cls-16 {
        font-size: 47px;
        font-family: ComicSansMS, Comic Sans MS;
      }

      .cls-11 {
        letter-spacing: -0.03em;
      }

      .cls-12 {
        letter-spacing: 0.025em;
      }

      .cls-14 {
        letter-spacing: -0.078em;
      }

      .cls-15 {
        letter-spacing: -0.045em;
      }
    </style>
  </defs>
  <g id="ruby">
    <path class="cls-1" d="M197.52141,341.094c-.10437.20447-.20633.42407-.40066.06378a6.59382,6.59382,0,0,1-.65323-1.74588c-1.81113-5.36612-3.52-10.76579-5.29016-16.1454-1.89124-5.7476-3.75185-11.50534-5.63062-17.25711-1.91219-5.85408-3.80246-11.71533-5.72743-17.56529-.30272-.92-.58754-1.84656-.87775-2.771-.09666-.3079-.20978-.65231.272-.77345a3.30836,3.30836,0,0,1,.77309-.05333q17.86772-.003,35.73306-.00285a1.12191,1.12191,0,0,0,.798-.59291q2.74983-4.02811,5.503-8.05391c3.02343-4.42758,6.04746-8.85478,9.13207-13.24016.151-.21475.24119-.53036.60448-.50023q2.86038,3.97916,5.71946,7.95924,5.009,7.00852,10.0009,14.02924c.13575.19081.37111.34282.331.63084a2.07832,2.07832,0,0,1-1.19295.19042q-14.567.00157-29.13393.00085c-1.2297,0-1.23077.00006-1.61836,1.163q-8.7696,26.31383-17.54623,52.62539A11.51432,11.51432,0,0,1,197.52141,341.094Z" transform="translate(-146.88451 -259.58252)"/>
    <path class="cls-2" d="M179.00486,285.0625a20.808,20.808,0,0,0,.9882,3.28266q4.559,14.06086,9.16063,28.10792,3.90825,11.97879,7.80994,23.95975a1.28922,1.28922,0,0,1,.1571.74493c-1.41789-1.3829-2.673-2.91485-3.99792-4.38232-3.24593-3.59506-6.46453-7.2148-9.693-10.82561q-8.97452-10.03743-17.94838-20.07542-5.23135-5.84793-10.472-11.68755-3.94272-4.39989-7.88047-8.8042c-.10132-.11355-.38306-.20625-.16176-.45228a5.008,5.008,0,0,1,.89962-.05547q14.82062.00266,29.64127-.00174c.25269-.00009.61337.11849.73283-.09224.14719-.25958-.17471-.49067-.32489-.70829q-6.45336-9.35082-12.9212-18.69167c-.50312-.72472-.99937-1.45421-1.50546-2.17693a1.62871,1.62871,0,0,1-.35633-.74949c.13557-.21154.35017-.12258.52861-.12264q16.54974-.00654,33.09952-.00224c.12844,0,.2569.01742.38535.02669a.25614.25614,0,0,1,.01088.18116c-.89243,1.31832-1.94155,2.51572-2.9373,3.75324q-5.94139,7.38384-11.86,14.7858c-.92847,1.15585-1.86489,2.30549-2.78835,3.46548A2.35955,2.35955,0,0,1,179.00486,285.0625Z" transform="translate(-146.88451 -259.58252)"/>
    <path class="cls-3" d="M197.52141,341.094a10.22556,10.22556,0,0,1,.68645-2.33816q8.82243-26.49591,17.65872-52.98719c.15025-.4512.29512-.7147.86409-.71351q15.53895.0324,31.078.02043c-1.24618,1.56409-2.63374,3.00386-3.96769,4.49011q-22.83942,25.44759-45.69313,50.88242C197.94759,340.671,197.73059,340.879,197.52141,341.094Z" transform="translate(-146.88451 -259.58252)"/>
    <path class="cls-4" d="M197.148,262.44359a.35663.35663,0,0,0-.00147-.08723c.236-.00954.47211-.02739.70815-.02742q16.59279-.00209,33.18561.00508c.23776.00015.51432-.12259.717.12225-.93808,1.1451-1.7278,2.39626-2.56375,3.61327q-5.79208,8.43238-11.56023,16.88124c-.36341.53082-.74258,1.05093-1.10293,1.58378-.13616.20133-.26122.39754-.533.41695-.41867-.05077-.57322-.42427-.796-.68919q-5.50644-6.54834-10.97466-13.12868-3.35412-4.01354-6.71026-8.02533A1.1601,1.1601,0,0,1,197.148,262.44359Z" transform="translate(-146.88451 -259.58252)"/>
    <path class="cls-4" d="M163.13306,262.45456c1.008,1.19971,1.82342,2.53693,2.714,3.81957q6.40613,9.22585,12.78432,18.471a1.5978,1.5978,0,0,1,.10847.22734,1.04121,1.04121,0,0,1-.70148.09322q-15.1733.0068-30.34658-.00133c-.24242-.00015-.52134.11118-.72464-.134q7.05707-9.83125,14.11508-19.66182C161.75934,264.32589,162.44915,263.39235,163.13306,262.45456Z" transform="translate(-146.88451 -259.58252)"/>
    <path class="cls-5" d="M197.148,262.44359c1.19128,1.40853,2.38766,2.81281,3.57269,4.22661q2.50241,2.98554,4.99136,5.98231,2.782,3.33913,5.5624,6.6796,2.354,2.81589,4.723,5.61932c-.15332.1724-.3592.11615-.54623.11615q-18.22309-.00015-36.44627-.00506c.95219-1.21671,1.89335-2.44231,2.85881-3.64847q4.87509-6.09058,9.76581-12.1687C193.46031,266.97107,195.30794,264.71039,197.148,262.44359Z" transform="translate(-146.88451 -259.58252)"/>
  </g>
  <g id="tag">
    <path class="cls-6" d="M229.5788,336.926l-.264-1.77211c-.30057-2.00814-.57417-4.02087-.91287-6.02258-.18773-1.10953-.34045-2.22385-.52982-3.33256-.02421-.14177.01958-.19193.14237-.2388q1.18481-.45229,2.3642-.91863a.16959.16959,0,0,1,.24862.08153c1.50681,2.35744,3.00125,4.7231,4.5383,7.06071.51969.79038,1.02538,1.59015,1.55249,2.37572.021.03137.04746.05913.072.08936.05191-.05033.02153-.10106.0137-.14968-.07687-.47735-.14079-.95724-.2337-1.43147-.53012-2.7057-.9025-5.43787-1.37294-8.15353-.08472-.48894-.15644-.98014-.23488-1.47019-.01567-.098-.03078-.17615.10164-.22462.829-.30349,1.6215-.69765,2.45428-.99269.22251-.07885.22142-.08432.25256.14274.49473,3.608.97,7.21874,1.49175,10.82282q.3972,2.744.78807,5.48884c.02072.14676.00472.22541-.15549.28537-.834.31232-1.66333.63745-2.49107.96613a.18886.18886,0,0,1-.2776-.09226q-2.48311-3.88723-4.97516-7.7688c-.30968-.483-.623-.96363-.93559-1.44473a.29.29,0,0,0-.18773-.15658c.06483.41188.12745.81056.19041,1.20918q.77815,4.92824,1.56073,9.85576c.02413.151-.02054.20291-.14935.25219q-1.284.49114-2.56272.99582c-.11364.0448-.17976.04032-.25329-.07147q-4.52185-6.87428-9.05335-13.74216c-.09758-.14781-.04144-.17358.08173-.22093q1.26507-.48624,2.52621-.98279a.17567.17567,0,0,1,.26177.08594q2.8787,4.6442,5.76692,9.28252c.04324.06955.09132.13605.13715.204Z" transform="translate(-146.88451 -259.58252)"/>
    <path class="cls-6" d="M254.44239,332.86538c-.427.166-.85671.32548-1.27955.50152a.21553.21553,0,0,1-.29576-.07373l0,0-.00752-.01363c-.68169-.90631-1.3723-1.80594-2.05219-2.71359a.2307.2307,0,0,0-.30708-.11022h0l-.01985.01058c-.6634.26976-1.34644.49453-1.99787.78965-.91673.41532-1.86822.73867-2.79829,1.11771a.17149.17149,0,0,0-.13393.20216l.00736.0257c.17779,1.11369.34358,2.22932.52186,3.34293a.21044.21044,0,0,1-.162.2803q-1.23168.46413-2.45409.95291c-.1582.063-.21806.05759-.23858-.13235-.05332-.4932-.12-.98526-.19472-1.47576-.6745-4.43152-1.20221-8.883-1.81969-13.32232-.07457-.53615-.139-1.07376-.21812-1.60921a.16535.16535,0,0,1,.1076-.2076h0l.02074-.00512q2.10367-.81258,4.20378-1.63451a.17379.17379,0,0,1,.23613.06813h0l.00369.0071c.48757.641.96373,1.29187,1.4757,1.913,1.27412,1.546,2.45814,3.16139,3.68586,4.743,1.70668,2.19859,3.40012,4.40747,5.10323,6.60885.102.13179.0684.17359-.06879.22478C255.31906,332.52036,254.88143,332.69474,254.44239,332.86538ZM247.037,328.9498c.58939-.22906,1.17734-.462,1.76918-.68445.14436-.05429.176-.10084.07823-.23689q-1.71458-2.38616-3.4192-4.77951a.1672.1672,0,0,0-.22127-.0834h0l-.01671.00871c-.29743.12469-.59784.24339-.90216.35-.13317.04665-.15467.11294-.13433.24415q.446,2.8752.879,5.75239c.02245.14955.05666.17726.20036.11929.58638-.23649,1.17748-.46124,1.76691-.6903Z" transform="translate(-146.88451 -259.58252)"/>
    <path class="cls-7" d="M224.10443,350.07177l-5.70286,2.21643c-1.83943-4.66333-3.61893-9.34986-5.47565-14.00672-2.58568-6.48512-5.03187-13.0251-7.62626-19.50725-1.26633-3.16394-2.47388-6.35139-3.71207-9.52662-.05309-.13616-.04271-.19222.10441-.25022,3.318-1.308,6.66425-2.54376,9.96167-3.90463,1.13918-.47015,2.29631-.89682,3.44523-1.34335.95643-.37171,1.91384-.741,2.86819-1.118.13451-.05313.20409-.05125.25064.10376a3.69127,3.69127,0,0,0,.31172.68659,5.32427,5.32427,0,0,0,8.7732.84156,5.18254,5.18254,0,0,0,.84948-5.36723c-.03761-.10194-.09727-.18481.06963-.25168q1.28172-.5136,2.56552-1.02212c4.57513-1.80312,9.16357-3.57248,13.7459-5.35741.14657-.0571.21093-.05966.27806.11119,1.82621,4.64769,3.60856,9.31236,5.448,13.95513,2.49642,6.30082,4.92045,12.63032,7.37755,18.94674.02816.07234.02474.16883.11914.20484l3.85836,9.92759c-6.10456,2.3994-12.23249,4.73854-18.33059,7.155-6.30989,2.50042-12.6492,4.92663-18.97482,7.38733C224.2367,349.98091,224.14014,349.97716,224.10443,350.07177ZM229.5788,336.926l-.04474.01206c-.04584-.06793-.0939-.13446-.13715-.204q-2.88554-4.64-5.76692-9.28252a.17565.17565,0,0,0-.26176-.08594q-1.26048.4982-2.52622.98279c-.12317.04734-.17929.07312-.08172.22093q4.53291,6.867,9.05336,13.74216c.07353.11176.13963.11627.25329.07147q1.27893-.50413,2.56272-.99582c.12881-.04925.17349-.10116.14935-.25219q-.78676-4.92687-1.56073-9.85576c-.06293-.39862-.12555-.7973-.19041-1.20918a.28991.28991,0,0,1,.18772.15658c.31261.4811.62589.96178.9356,1.44473q2.48983,3.883,4.97514,7.7688a.18887.18887,0,0,0,.2776.09226c.82778-.32871,1.65706-.65381,2.49108-.96613.1602-.06.17619-.13861.15548-.28537q-.38746-2.74539-.78807-5.48884c-.52171-3.60407-.997-7.21483-1.49174-10.82282-.03113-.22706-.03006-.22157-.25256-.14274-.8328.29505-1.62533.68922-2.45429.99269-.13242.04847-.11731.12663-.10164.22462.07845.49.15018.98123.23488,1.47019.47044,2.71568.84282,5.44781,1.37294,8.15353.09291.47423.15681.95412.2337,1.43147.00782.04862.0382.09934-.0137.14968-.02453-.03022-.05093-.058-.072-.08936-.52715-.78555-1.03281-1.58534-1.55249-2.37572-1.537-2.33761-3.0315-4.70327-4.5383-7.06071a.16958.16958,0,0,0-.24863-.08153q-1.17957.46587-2.3642.91863c-.12279.04687-.16658.097-.14236.2388.18937,1.1087.34208,2.223.52981,3.33256.33869,2.00169.61231,4.01444.91288,6.02258q.13263.886.26406,1.77208Zm24.86357-4.0607c.439-.17062.87669-.345,1.318-.5097.1372-.05121.17075-.093.06879-.22478-1.70311-2.20138-3.39655-4.41025-5.10323-6.60885-1.22775-1.58162-2.41174-3.197-3.68586-4.743-.512-.62119-.9881-1.272-1.4757-1.91306a.17378.17378,0,0,0-.23272-.07893h0l-.0071.00371q-2.09969.82285-4.20378,1.63451a.16533.16533,0,0,0-.1335.192l0,0,.00512.02075c.07912.53544.14353,1.07306.21813,1.60921.61748,4.43928,1.1452,8.89082,1.81969,13.32232.07466.4905.14137.98256.19471,1.47576.02054.18994.08039.1954.23859.13235q1.22276-.48734,2.45409-.95291a.21046.21046,0,0,0,.162-.28029c-.17829-1.11362-.34409-2.22923-.52187-3.34293a.17149.17149,0,0,1,.10088-.22053l.02569-.00734c.93006-.379,1.88155-.70239,2.7983-1.11771.65144-.2951,1.33446-.51988,1.99786-.78965a.23071.23071,0,0,1,.31638.0798l.01057.01985c.67989.90766,1.37049,1.8073,2.05219,2.71359a.21554.21554,0,0,0,.28968.0949h0l.01363-.00752c.42285-.176.85254-.33556,1.27954-.50155Z" transform="translate(-146.88451 -259.58252)"/>
    <path class="cls-7" d="M247.037,328.94979c-.58939.22906-1.18053.45379-1.76692.69027-.14371.058-.17792.03025-.20036-.11929q-.43216-2.8773-.879-5.7524c-.02034-.13121.00117-.19749.13432-.24414.30431-.10659.60474-.22531.90216-.35a.16721.16721,0,0,1,.22926.058h0l.00872.01669q1.70556,2.39264,3.41919,4.77953c.09778.136.06614.18261-.07823.23689C248.21434,328.48784,247.62641,328.72072,247.037,328.94979Z" transform="translate(-146.88451 -259.58252)"/>
  </g>
  <g id="line">
    <path class="cls-8" d="M173.26059,324.97582c-4.97247.00033-9.30765-1.11279-12.15672-3.65021-5.15836-4.5941-6.92734-13.1004-4.21582-19.40485a14.68573,14.68573,0,0,1,2.03139-3.37184l1.08426,1.21535a12.86751,12.86751,0,0,0-1.60141,2.75246c-2.42753,5.71679-.76986,13.53747,3.78386,17.59341,3.60111,3.20744,10.49562,4.08978,18.9163,2.422a53.81378,53.81378,0,0,0,22.31032-10.08353c.26271-.21136.55067-.44913.86424-.70785,3.57507-2.94994,10.31658-8.14016,19.34049-9.11074a27.87529,27.87529,0,0,1,4.66693-.1031,5.95113,5.95113,0,0,1-.84374,1.57915,26.36907,26.36907,0,0,0-3.67.144c-8.55893.94263-14.97465,5.87174-18.458,8.74584-.319.26318-.61219.50506-.87934.72026C196.20282,320.34186,183.406,324.97582,173.26059,324.97582Z" transform="translate(-146.88451 -259.58252)"/>
    <path class="cls-8" d="M221.34746,262.34513a39.9559,39.9559,0,0,0-18.761-.00556l-4.04613-.01069a33.12858,33.12858,0,0,1,9.51233-2.54575,34.73854,34.73854,0,0,1,5.30557-.16476,38.17923,38.17923,0,0,1,12.46224,2.71281Z" transform="translate(-146.88451 -259.58252)"/>
    <path class="cls-8" d="M247.47666,299.21736q-.40517-1.04205-.81034-2.08407a19.03194,19.03194,0,0,0,1.74331-7.09732c.33906-7.69391-4.3034-13.33264-6.14217-15.566a28.92967,28.92967,0,0,0-5.65639-5.24292l-2.187-3.06506a29.6552,29.6552,0,0,1,9.07092,7.23953c1.867,2.22725,6.92123,8.25678,6.54011,16.71422A21.32849,21.32849,0,0,1,247.47666,299.21736Z" transform="translate(-146.88451 -259.58252)"/>
  </g>
  <g class="cls-9">
    <text class="cls-10" transform="translate(137.47114 53.492)">Ru</text>
    <text class="cls-11" transform="translate(191.63667 53.492)">b</text>
    <text class="cls-10" transform="translate(216.46187 53.492)">y </text>
    <text class="cls-12" transform="translate(259.61812 53.492)">o</text>
    <text class="cls-13" transform="translate(283.7148 53.492)">n</text>
    <text class="cls-14" transform="translate(307.70698 53.492)"> </text>
    <text class="cls-15" transform="translate(321.98823 53.492)">W</text>
    <text class="cls-16" transform="translate(366.2881 53.492)">ASM</text>
  </g>
</svg>
