<svg id="Layer_1" data-name="Layer 1" xmlns="http://www.w3.org/2000/svg" viewBox="0 0 185 180.25322">
  <defs>
    <style>
      .cls-1, .cls-2 {
        fill: none;
      }

      .cls-2 {
        stroke: #e6e7e8;
        stroke-miterlimit: 10;
        stroke-width: 5px;
      }
    </style>
  </defs>
  <rect class="cls-1" x="2.5" y="0.79899" width="180" height="178.65523"/>
  <g id="uyRIdq.tif">
    <path class="cls-2" d="M255.143,303.2319V187.4766c.30455-.46451.143-.99856.19259-1.494a30.56152,30.56152,0,0,1,6.81488-16.37633,31.75416,31.75416,0,0,1,19.29313-11.51872c1.16877-.22635,2.36753-.13541,3.54107-.31809H405.5215a4.88743,4.88743,0,0,0,1.50767.11994,25.70021,25.70021,0,0,1,8.79768,2.2519,31.69247,31.69247,0,0,1,16.30946,15.42893,31.1461,31.1461,0,0,1,2.78771,8.51655,9.62508,9.62508,0,0,1,.14636,1.67009,3.54452,3.54452,0,0,0,.0706.95484c.00367.39457.001.78852.0017,1.18333q0,57.53361.00014,115.06346a27.74086,27.74086,0,0,1-4.4017,14.875,31.37365,31.37365,0,0,1-13.30575,12.16886,32.06,32.06,0,0,1-8.44785,2.7775,11.14477,11.14477,0,0,1-2.25609.159c-40.45692.16584-80.912.026-121.36522.07228-.08656.00034-.17493-.00014-.26169-.00131-.836-.10672-1.68173-.09122-2.52049-.16652a1.14515,1.14515,0,0,1-.22189-.03657,2.38209,2.38209,0,0,0-.73149-.12574,1.49151,1.49151,0,0,1-.20769-.038,1.71316,1.71316,0,0,0-.72718-.07242,26.1836,26.1836,0,0,1-5.92454-1.80055,30.9304,30.9304,0,0,1-8.31466-5.08771,31.67688,31.67688,0,0,1-9.44115-13.57026,25.87863,25.87863,0,0,1-1.72784-8.40094A.7447.7447,0,0,0,255.143,303.2319Z" transform="translate(-252.64297 -155.26949)"/>
    <path class="cls-2" d="M328.34382,202.674q4.46054,0,8.92107.00007c.195,0,.39014-.00369.585.0026.72617.02339.85972.12048,1.10719.81578q1.09044,3.06361,2.1773,6.12849,3.5648,10.05607,7.12822,20.11272,3.53963,9.9867,7.08016,19.973,4.74078,13.35947,9.48619,26.71727c.42374,1.19369.84067,2.38982,1.26118,3.58462.02427.069.05613.13541.07819.205.32864,1.03725.079,1.391-1.02083,1.39213q-7.56828.00756-15.13659.00021c-.91557-.00068-1.17325-.18691-1.48641-1.0926q-2.51889-7.285-5.02625-14.574c-.28593-.82955-.58646-1.65456-.84976-2.49125-.1137-.36129-.29966-.52728-.681-.484a5.21442,5.21442,0,0,1-.58454.00345q-13.016-.00026-26.032-.00013c-.894,0-.72368-.06405-.98444.73791q-2.69886,8.30094-5.38534,16.6059c-.34615,1.06853-.63511,1.29574-1.72659,1.29641-4.48492.00282-8.97-.02171-13.45465.01436-1.43389.0115-1.48746-.67825-1.1509-1.6424q2.58933-7.41732,5.16449-14.8396,5.65413-16.25389,11.30785-32.50791,3.71808-10.69658,7.42985-21.39535a21.24772,21.24772,0,0,0,1.31274-7.14957c-.00091-.17048.0093-.34118.01869-.51154.03826-.694.23729-.88664.95511-.90041.48732-.00936.975-.00126,1.46244-.00126Q324.322,202.67407,328.34382,202.674Z" transform="translate(-252.64297 -155.26949)"/>
    <path class="cls-2" d="M390.94516,251.72522q.00024,14.15363.00982,28.30727c.00345,1.63829-.43252,1.66654-1.68856,1.66043-4.43564-.02152-8.87143-.00825-13.30718-.00881a8.00526,8.00526,0,0,1-.80375-.01285.99139.99139,0,0,1-.95492-.93172,5.23392,5.23392,0,0,1-.02261-.65695q-.00135-28.4536-.00073-56.90718c0-.09754-.0008-.19508.001-.29258.01595-.87113.25442-1.12045,1.14911-1.12154q7.202-.00885,14.404-.0007c.984.00111,1.21261.25308,1.21277,1.2916Q390.94651,237.3887,390.94516,251.72522Z" transform="translate(-252.64297 -155.26949)"/>
    <path class="cls-2" d="M382.6655,215.47852a9.07372,9.07372,0,0,1-6.41338-2.31583,8.26592,8.26592,0,0,1-2.432-3.92518,10.06247,10.06247,0,0,1,.01516-6.46623,8.88029,8.88029,0,0,1,7.25317-5.95132,10.33432,10.33432,0,0,1,4.21027.12948,8.123,8.123,0,0,1,5.973,5.09865,10.2334,10.2334,0,0,1,.22933,7.29349A8.77153,8.77153,0,0,1,382.6655,215.47852Z" transform="translate(-252.64297 -155.26949)"/>
    <path class="cls-2" d="M328.26415,216.513a2.726,2.726,0,0,1,.38327.96281c2.39355,8.71347,5.219,17.29443,7.942,25.90683.39635,1.25359.80238,2.50411,1.19421,3.75908.18659.59763.17627.61027-.44782.611q-4.1298.005-8.25965.00036-4.6415-.00033-9.283.00009c-.09745,0-.19512.00593-.2923.00106-.478-.024-.51474-.06152-.36545-.51485.40294-1.22371.84488-2.43512,1.22456-3.66588.96117-3.1157,1.88963-6.24148,2.84441-9.35917,1.01226-3.3054,2.04222-6.60527,3.05976-9.909.724-2.35086,1.30678-4.73839,1.83558-7.13972C328.13931,216.98587,328.18936,216.80843,328.26415,216.513Z" transform="translate(-252.64297 -155.26949)"/>
  </g>
</svg>
