<svg id="Layer_1" data-name="Layer 1" xmlns="http://www.w3.org/2000/svg" viewBox="0 0 310.01512 71.66988"><defs><style>.cls-1{fill:#da0037;}</style></defs><path class="cls-1" d="M141.61,317.48c-5.06-18.28-9.14-36.78-12.8-55.38a19.59957,19.59957,0,0,0-1.14-4.66,2.52406,2.52406,0,0,0-4.48-.4,5.767,5.767,0,0,0-.92,2.25q-1.35,6.255-2.68,12.5c-2.8,13.07-5.49,26.16-8.59,39.16-.55,2.32-1.13,4.63-1.82,6.92a2.227,2.227,0,0,0,.62,2.61,2.1674,2.1674,0,0,0,2.33.28c.95-.43,1.12-1.34,1.28-2.2,1.07-5.87,2.27-11.72,3.47-17.56.13-.6.33-.77.91-.79,5.03-.19,10.06-.18,15.09-.04.63.01.86.21.99.83q1.14,5.355,2.38,10.69c.6,2.62,1.04,5.28,1.85,7.85a2.11767,2.11767,0,0,0,2.26,1.52c.86-.15,1.51-1.07,1.52-2.39C141.82,318.41,141.74,317.94,141.61,317.48Zm-9.76-20.88c-4.41.17-8.81995-.02-13.22-.04-.97-.01-.75-.52-.64-1.04q2.205-10.395,4.42-20.8,1.27506-6.045,2.54-12.09c.06-.27.14-.52.21-.78.05-.01.1-.01.15-.02.9,4.2,1.79,8.39,2.71,12.58q2.295,10.53,4.65,21.06C132.84,296.25,132.82,296.56,131.85,296.6Z" transform="translate(-109.01611 -250.02163)"/><path class="cls-1" d="M282.79958,289.84549a74.21362,74.21362,0,0,1,2.14728-18.46375,28.74382,28.74382,0,0,1,5.26285-11.10135,11.74543,11.74543,0,0,1,14.35271-3.18888c2.88827,1.42907,4.44128,3.99439,5.37451,6.93281a44.37723,44.37723,0,0,1,1.68216,14.47936,1.99192,1.99192,0,0,1-2.0839,2.06125c-1.05673-.01378-1.67735-.64476-1.72293-1.99229a77.60219,77.60219,0,0,0-.49292-8.48385,26.00939,26.00939,0,0,0-1.64817-6.312c-2.08886-5.03857-8.49258-5.16452-11.5862-2.11013a19.03114,19.03114,0,0,0-4.62,8.20942c-2.55772,8.25767-3.11847,16.74144-2.79248,25.32a52.99649,52.99649,0,0,0,1.953,14.0494c.896,2.84578,2.12513,5.51664,4.78933,7.16105,3.197,1.97324,8.48371,2.267,11.5843-2.1532a15.08338,15.08338,0,0,0,2.5211-7.78247,24.1628,24.1628,0,0,1,.18675-3.16765,2.14464,2.14464,0,0,1,2.33231-1.83691,1.95913,1.95913,0,0,1,1.8018,2.21517c-.23045,5.6525-1.61532,10.871-5.92259,14.90222a11.79094,11.79094,0,0,1-17.13008-1.31691c-2.59263-3.277-3.80825-7.12666-4.67028-11.12265A72.52941,72.52941,0,0,1,282.79958,289.84549Z" transform="translate(-109.01611 -250.02163)"/><path class="cls-1" d="M325.19927,296.5407a19.69356,19.69356,0,0,1,4.28451-5.04441c3.53115-2.61111,9.34227-2.57636,11.38794,3.32039a16.90709,16.90709,0,0,1,.92849,5.31882c.09513,6.01148-.11808,12.02677.29427,18.035a2.26452,2.26452,0,0,1-3.02809,2.39009,1.66177,1.66177,0,0,1-1.23652-1.46273,14.501,14.501,0,0,1,.11784-2.96294,153.23923,153.23923,0,0,0-.04837-16.90282,9.77929,9.77929,0,0,0-.841-3.46666,3.3171,3.3171,0,0,0-4.44537-1.97161c-2.66067.80394-4.21205,2.823-5.46193,5.11032a13.47319,13.47319,0,0,0-1.74793,7.25944c.198,3.9572.2085,7.92289.51184,11.87645a2.28635,2.28635,0,0,1-1.24454,2.478,2.07544,2.07544,0,0,1-3.13141-1.96338c-.058-1.603.02153-3.211.04134-4.81683.17116-13.87188.411-27.74341.48383-41.61581.03424-6.52349-.25586-13.04859-.39122-19.57313a2.07475,2.07475,0,0,1,1.60627-2.4012,1.96229,1.96229,0,0,1,2.72515,1.8498c.04473,1.56954-.0016,3.14324-.05264,4.71368-.42193,12.97833-.57073,25.96182-.75189,38.94473C325.19568,295.9508,325.19927,296.24578,325.19927,296.5407Z" transform="translate(-109.01611 -250.02163)"/><path class="cls-1" d="M217.1,318.67a14.29144,14.29144,0,0,1-.85-5.42q.045-6.45.05-12.91a20.55549,20.55549,0,0,0-.38-4.07,7.8314,7.8314,0,0,0-6.25-6.52,10.61637,10.61637,0,0,0-10.75,5.2,6.04873,6.04873,0,0,0-.66,3.87,1.83813,1.83813,0,0,0,2.02,1.75,1.81159,1.81159,0,0,0,1.87994-1.96,6.36727,6.36727,0,0,1,1.16-3.45,5.39214,5.39214,0,0,1,5.39-2.46c1.87.26,2.95,1.65,3.58,3.32.98,2.55.46,5.21.59,7.89a15.59862,15.59862,0,0,0-7.28-.38c-3.83.75-6.89,2.63-8.49,6.34a8.42426,8.42426,0,0,0,2.42,10.25,8.75707,8.75707,0,0,0,10.49-.55,21.53272,21.53272,0,0,0,2.98-2.93,17.66664,17.66664,0,0,0,.24,2.99,2.18678,2.18678,0,0,0,2.79,1.84C217.26,321.11,217.68,320.17,217.1,318.67Zm-4.24-8.8c-.06,1.47.25,2.87-.81,4.08a12.8042,12.8042,0,0,1-5.16,4.07,5.53438,5.53438,0,0,1-5.72-1.48,5.92215,5.92215,0,0,1-.19-6.37,7.48889,7.48889,0,0,1,5.82-3.52,15.67716,15.67716,0,0,1,5.2.21c.61.13.96.35.88,1.07A18.17837,18.17837,0,0,0,212.86,309.87Z" transform="translate(-109.01611 -250.02163)"/><path class="cls-1" d="M370.6,318.65a14.9577,14.9577,0,0,1-.85-5.43c.04-4.3.03-8.61.04-12.91a15.78556,15.78556,0,0,0-.26-3.57c-.65-2.87-1.82-5.41-4.8-6.56a10.35442,10.35442,0,0,0-12.4,4.99,5.58863,5.58863,0,0,0-.55,3.68c.27,1.21.99,1.81,2.05,1.72a1.83715,1.83715,0,0,0,1.87-2,6.33443,6.33443,0,0,1,1.68-4.07c2.09-2.28,6.05-2.97,8.09.71a7.49877,7.49877,0,0,1,.8,2.52,33.58358,33.58358,0,0,1,.16,4.91c.02,1.36.01,1.34-1.3,1.05a13.58937,13.58937,0,0,0-10.64,1.66,9.68973,9.68973,0,0,0-4.38,10.34c1.28,5.09,6.51,7.07,11.04,5.28a14.07035,14.07035,0,0,0,5.27-4.21c.28,1.11.1,2.09.39,3.01a2.2,2.2,0,0,0,2.79,1.71C370.81,321.09,371.18,320.19,370.6,318.65Zm-4.17-8.66c-.04,1.34.21,2.7-.81,3.89-1.52,1.74-3.05,3.44-5.32,4.17a5.442,5.442,0,0,1-5.68-1.61,6.09706,6.09706,0,0,1-.16-6.2,7.42111,7.42111,0,0,1,5.89-3.59,14.84869,14.84869,0,0,1,5.39.29c.55.14.73.37.7.9C366.4,308.56,366.43,309.28,366.43,309.99Z" transform="translate(-109.01611 -250.02163)"/><path class="cls-1" d="M259.5,306.86c4.65-.08,9.31.03,13.95-.24,1.53-.09,2.18-.65,2.2-2.13a24.811,24.811,0,0,0-1.37-9.36c-2.14-5.62-8.74-6.26-12.08-4.65a11.81934,11.81934,0,0,0-5.4,6.07,26.95548,26.95548,0,0,0-2.18,11.17c.06,1.06.05,2.12.19,3.17a11.04419,11.04419,0,0,0,.58,2.48c2.07,5.85,7.05,9.82,13.69,7.78,2.95-.9,5.24-2.66,6.12-5.78a1.91357,1.91357,0,0,0-.82-2.41,2.10235,2.10235,0,0,0-2.47.96,7.84043,7.84043,0,0,0-.47.79,9.86943,9.86943,0,0,1-1.45,2.22c-2.37,2.39-6.77,2.01-9.12-.77-1.94-2.29-2.35-5.09-2.6-7.93C258.15,306.88,258.18,306.88,259.5,306.86Zm2.09-11.96c3.04-3.37,7.41-2.66,9.25,1.48a15.99183,15.99183,0,0,1,1.16,6.49c.01.59-.29.62-.75.66-2.32.19-4.64.22-6.97.22-1.74-.08-3.48-.16-5.22-.23-.38-.02-.7-.05-.61-.56C258.94,300.06,259.54,297.18,261.59,294.9Z" transform="translate(-109.01611 -250.02163)"/><path class="cls-1" d="M230.302,296.10979a16.62178,16.62178,0,0,1,3.84351-4.13074c2.21565-1.522,4.57187-2.24759,7.24254-1.23634a6.61217,6.61217,0,0,1,3.68555,3.64474,14.19849,14.19849,0,0,1,1.236,5.971c.03058,4.37322-.00872,8.74693.01933,13.12018.01052,1.63808.14676,3.275.191,4.91334a2.0305,2.0305,0,0,1-1.38551,2.07177,2.08078,2.08078,0,0,1-2.28149-.46725,2.25758,2.25758,0,0,1-.485-2.0047,128.61968,128.61968,0,0,0,.44439-15.35665,21.79194,21.79194,0,0,0-.563-5.38085c-1.07968-3.63447-3.67669-4.23078-6.78945-2.4723-2.6037,1.4709-3.99018,3.948-4.93885,6.6887a8.4653,8.4653,0,0,0-.43464,2.91658c.05835,4.23538-.09732,8.47362.19795,12.70613a9.00533,9.00533,0,0,1-.05154,1.84006c-.16586,1.20733-.66049,1.63353-1.80557,1.67539a1.88,1.88,0,0,1-2.10328-1.53347,4.97263,4.97263,0,0,1-.11381-1.729,215.96757,215.96757,0,0,0,.16412-24.07156c-.01026-.273-.01746-.54716-.0043-.81973a2.01334,2.01334,0,0,1,2.37972-2.05764c1.16537.08047,1.72488.84723,1.65253,2.24012-.05135.9885-.08694,1.97785-.124,2.967C230.27185,295.77247,230.29337,295.94137,230.302,296.10979Z" transform="translate(-109.01611 -250.02163)"/><path class="cls-1" d="M409.23442,321.63272a9.1351,9.1351,0,0,1-8.27458-4.35456,6.65124,6.65124,0,0,1-.74911-4.84644,1.92831,1.92831,0,0,1,1.62385-1.75315,1.50519,1.50519,0,0,1,2.01325,1.33537,6.19953,6.19953,0,0,1,.16033,1.31725c.032,3.06739,1.41109,4.73606,4.43409,5.24565a6.9639,6.9639,0,0,0,3.73545-.35314,4.92422,4.92422,0,0,0,1.69291-8.1597,19.45128,19.45128,0,0,0-5.04249-3.282,19.80085,19.80085,0,0,1-5.12894-3.34338,7.48651,7.48651,0,0,1-1.81464-8.48783c1.21042-3.13736,3.83586-4.58855,7.07776-4.96249a8.66908,8.66908,0,0,1,6.49214,1.62252c2.369,1.80471,3.01247,4.29322,2.73488,7.10157a2.038,2.038,0,0,1-2.00671,1.72136,2.07456,2.07456,0,0,1-1.82842-1.91766c-.07529-.53758-.02658-1.09164-.048-1.63769a3.93423,3.93423,0,0,0-4.02685-4.02821c-2.709-.12166-3.87452.57211-4.9286,2.93352a4.72631,4.72631,0,0,0,1.3246,5.39394,16.27445,16.27445,0,0,0,4.04836,2.761,41.15068,41.15068,0,0,1,4.53663,2.5851c3.0328,2.11219,4.33215,4.97133,3.54641,8.60154-.76239,3.5223-3.17162,5.43045-6.58242,6.233A15.52254,15.52254,0,0,1,409.23442,321.63272Z" transform="translate(-109.01611 -250.02163)"/><path class="cls-1" d="M383.88224,303.95627a88.09006,88.09006,0,0,0,.44236,9.4108,8.76056,8.76056,0,0,0,.93511,3.01246,3.08345,3.08345,0,0,0,2.93372,1.88247,3.22453,3.22453,0,0,0,2.96846-2.01352c.16831-.37156.28817-.76471.44176-1.14329a1.691,1.691,0,1,1,3.279.81873,5.3613,5.3613,0,0,1-1.56194,3.259c-3.44515,3.60355-10.31552,3.75605-12.43893-3.28095a17.43754,17.43754,0,0,1-.62919-5.05955c-.00582-4.91974-.02184-9.83963.016-14.75908.00632-.81933-.21872-1.11154-1.02955-.97892a4.12286,4.12286,0,0,1-1.732-.04983,2.05733,2.05733,0,0,1-1.54471-1.94038,1.85221,1.85221,0,0,1,1.62662-1.7237,4.93084,4.93084,0,0,1,1.63059-.10686c.79268.11744,1.06791-.13945,1.04933-.97611-.05382-2.4245-.01243-4.851-.02231-7.27667a4.26773,4.26773,0,0,1,.259-1.60735,2.12581,2.12581,0,0,1,2.16578-1.37183,1.962,1.962,0,0,1,1.65173,2.034c-.04125,1.70511-.19789,3.40712-.283,5.11158-.05794,1.15958-.05411,2.32247-.1233,3.48117-.03525.58964.1781.75032.75376.75a37.56925,37.56925,0,0,0,5.01326-.3044,8.17,8.17,0,0,1,2.65694-.03132,1.76911,1.76911,0,0,1,1.64653,1.67975,1.7957,1.7957,0,0,1-1.48412,1.9276,3.33565,3.33565,0,0,1-1.31722.1337c-2.15037-.22338-4.306-.07072-6.4596-.08617-.68342-.00489-.86388.25516-.85679.90679C383.89959,298.42147,383.88224,301.189,383.88224,303.95627Z" transform="translate(-109.01611 -250.02163)"/><path class="cls-1" d="M173.42592,305.40794a23.00751,23.00751,0,0,0,1.19656,7.75067c.92228,2.28285,2.16813,4.27,4.77441,4.95061a4.23051,4.23051,0,0,0,4.7304-1.586,8.70772,8.70772,0,0,0,1.50127-2.88744,4.67119,4.67119,0,0,1,.74093-1.564,1.448,1.448,0,0,1,1.687-.64992,1.55551,1.55551,0,0,1,1.18056,1.49816,8.13671,8.13671,0,0,1-1.94267,5.36449,9.04376,9.04376,0,0,1-15.14308-1.81321,18.79356,18.79356,0,0,1-2.14763-7.52077c-.346-4.71385-.13018-9.37508,2.13329-13.674,1.60589-3.05,3.936-5.17637,7.57412-5.57765a8.51069,8.51069,0,0,1,9.28764,6.72467,11.00319,11.00319,0,0,1,.27074,4.16122,1.78935,1.78935,0,0,1-1.84739,1.6958,1.83559,1.83559,0,0,1-1.98512-1.66772c-.2539-1.10536-.036-2.24556-.28526-3.36141-.41685-1.86628-1.14113-3.44236-3.1878-3.98777a4.86148,4.86148,0,0,0-5.46019,1.84231C174.1149,298.16183,173.48331,301.75344,173.42592,305.40794Z" transform="translate(-109.01611 -250.02163)"/><path class="cls-1" d="M153.48636,300.73665a35.06215,35.06215,0,0,1,4.42967-6.76823,14.04278,14.04278,0,0,1,4.47887-3.67946,3.81526,3.81526,0,0,1,1.4792-.35076c1.26056-.0586,1.93935.38876,2.139,1.41368.26648,1.36819-.23692,2.51261-1.42237,2.77475-2.82363.6244-4.70413,2.52293-6.48473,4.57624a16.84887,16.84887,0,0,0-4.28814,12.42817c.14381,2.52133.22162,5.04724.28076,7.57222a2.21152,2.21152,0,0,1-2.16176,2.37288,2.082,2.082,0,0,1-2.09934-2.45252,223.31814,223.31814,0,0,0,.21761-24.6703c-.01474-.40918-.02332-.82073.00254-1.22882a2.10584,2.10584,0,0,1,2.25174-2.13154,2.07971,2.07971,0,0,1,1.94274,2.41035c-.20373,2.24217-.45223,4.48029-.67986,6.72031C153.538,300.06073,153.51472,300.399,153.48636,300.73665Z" transform="translate(-109.01611 -250.02163)"/></svg>