<svg id="Layer_1" data-name="Layer 1" xmlns="http://www.w3.org/2000/svg" viewBox="0 0 182.5 178.65523">
  <defs>
    <style>
      .cls-1, .cls-3 {
        fill: none;
      }

      .cls-2 {
        fill: #e6e7e8;
      }

      .cls-3 {
        stroke: #e6e7e8;
        stroke-linecap: round;
        stroke-linejoin: round;
        stroke-width: 5px;
      }
    </style>
  </defs>
  <rect class="cls-1" width="180" height="178.65523"/>
  <g>
    <path class="cls-2" d="M356.37714,228.83a76.186,76.186,0,0,1,34.12942,8.26716,69.32985,69.32985,0,0,1,24.15421,22.24507l-18.0734,10.40406-5.62811,3.23984c-8.38358-10.69718-20.66251-16.9563-33.6575-16.9563-.59226,0-1.1919.01361-1.78232.04037a42.21951,42.21951,0,0,0-1.19846,84.23126c.93695.06824,1.88938.10285,2.83084.10285,12.82926,0,25.39185-6.46033,33.7833-17.12873l12.0173,7.13038,11.50232,6.82479a70.90388,70.90388,0,0,1-31.58081,25.15909,73.4729,73.4729,0,0,1-26.36255,4.83808,67.36727,67.36727,0,0,1-27.878-5.9079,70.9274,70.9274,0,0,1-29.03183-24.26258A67.54277,67.54277,0,0,1,300.081,258.6a72.14273,72.14273,0,0,1,32.46051-25.38987A66.17763,66.17763,0,0,1,356.37714,228.83m.00021-5a71.05107,71.05107,0,0,0-25.62933,4.71286c-27.31552,10.49667-49.17951,38.19742-48.451,71.19659.662,29.98425,19.77258,55.09155,44.28161,66.13892a72.41566,72.41566,0,0,0,29.93271,6.34955,78.48219,78.48219,0,0,0,28.21421-5.19358A76.45348,76.45348,0,0,0,421.48785,335.59q-15.984-9.48405-31.96807-18.96805c-7.35459,11.6568-19.63831,18.78241-32.368,18.78241q-1.23192,0-2.46762-.08963c-18.66668-1.35953-35.14709-18.12082-34.34436-38.55985.77286-19.6785,17.25644-34.86719,35.406-35.68976.5188-.02353,1.039-.03521,1.5563-.03524,12.72531-.00074,24.90284,7.05087,32.20713,18.5603q16.06563-9.24825,32.13113-18.49646a75.12087,75.12087,0,0,0-28.73129-28.38147,80.72093,80.72093,0,0,0-36.53171-8.8822Z" transform="translate(-282.27937 -208.70136)"/>
    <path class="cls-3" d="M409.2772,285.5802q.017,4.282.034,8.564l-8.3957.034q-.017,3.92592-.034,7.85186l8.29373.136v8.12378l7.57993.136q.07841-4.078.15684-8.15605,4.17042.05012,8.34083.10026.051-4.12989.102-8.25976l-8.22575-.102q.068-4.19786.136-8.3957Z" transform="translate(-282.27937 -208.70136)"/>
    <path class="cls-3" d="M446.20175,285.43821q.017,4.282.034,8.564l-8.39571.034q-.017,3.92592-.034,7.85186,4.14685.068,8.29374.136v8.12378l7.57992.136q.07841-4.078.15684-8.15606,4.17042.05012,8.34083.10026.051-4.12988.102-8.25975l-8.22575-.102q.068-4.19787.13595-8.3957Q450.19566,285.45438,446.20175,285.43821Z" transform="translate(-282.27937 -208.70136)"/>
  </g>
</svg>
