<svg id="Layer_1" data-name="Layer 1" xmlns="http://www.w3.org/2000/svg" viewBox="0 0 180 178.65523">
  <defs>
    <style>
      .cls-1 {
        fill: none;
      }

      .cls-2 {
        fill: #e6e7e8;
      }
    </style>
  </defs>
  <rect class="cls-1" width="180" height="178.65523"/>
  <path class="cls-2" d="M283.91968,198.53473a76.18861,76.18861,0,0,1,34.12945,8.26717A69.32938,69.32938,0,0,1,342.20334,229.047l-4.11264,2.36745-19.58887,11.27641c-8.38364-10.69717-20.66257-16.95628-33.65753-16.95628-.59226,0-1.1919.01361-1.78232.04037a42.2195,42.2195,0,0,0-1.19842,84.23124c.93695.06823,1.88937.10284,2.83084.10284,12.82925,0,25.39184-6.46033,33.78329-17.12872l23.51959,13.9552A70.90256,70.90256,0,0,1,310.4165,332.0946a73.47237,73.47237,0,0,1-26.36254,4.83805,67.36716,67.36716,0,0,1-27.87806-5.9079,70.92764,70.92764,0,0,1-29.03183-24.26257,67.54255,67.54255,0,0,1,.4795-78.45742,72.14261,72.14261,0,0,1,32.46051-25.3899,66.1773,66.1773,0,0,1,23.8356-4.38013m.00018-5a71.05128,71.05128,0,0,0-25.6293,4.71286c-27.31549,10.49667-49.17949,38.19743-48.451,71.19659.662,29.98426,19.77257,55.09156,44.28163,66.13892a72.41549,72.41549,0,0,0,29.93273,6.34955,78.48328,78.48328,0,0,0,28.2142-5.19354,76.4532,76.4532,0,0,0,36.76224-31.44443q-15.984-9.484-31.96805-18.96805c-7.35459,11.6568-19.63831,18.78241-32.368,18.78241q-1.23193,0-2.46762-.08963c-18.66669-1.35953-35.14711-18.12082-34.34438-38.55985.77287-19.67846,17.25642-34.8672,35.40593-35.68972.5188-.02352,1.039-.03521,1.55631-.03524,12.72534-.00074,24.90283,7.05086,32.20715,18.56026q16.06559-9.24825,32.13113-18.49643a75.12068,75.12068,0,0,0-28.73129-28.3815,80.72173,80.72173,0,0,0-36.53177-8.8822Z" transform="translate(-189.50243 -178.40608)"/>
</svg>
