<svg id="Layer_1" data-name="Layer 1" xmlns="http://www.w3.org/2000/svg" viewBox="0 0 338.38668 83.1647"><defs><style>.cls-1{fill:#e7b455;}.cls-2{fill:#e78347;}.cls-3{fill:#e78d4a;}.cls-4{fill:#e7a450;}.cls-5{fill:#e7b054;}.cls-6{fill:#e79d4f;}.cls-7{fill:#e7994d;}.cls-8{fill:#e7c059;}.cls-9{fill:#e8c85b;}.cls-10{fill:#e79f4f;}.cls-11{fill:#e7974e;}.cls-12{fill:#e7a852;}.cls-13{fill:#e7924c;}.cls-14{fill:#e7ba58;}.cls-15{fill:#e7ac54;}.cls-16{fill:#e7b958;}.cls-17{fill:#e8c45b;}.cls-18{fill:#e78748;}.cls-19{fill:#e8c55b;}.cls-20{fill:#e78949;}.cls-21{fill:#e8bc59;}.cls-22{fill:#e78b4b;}.cls-23{fill:#e8c85e;}.cls-24{fill:#e7884b;}.cls-25{fill:#f5e4d6;}.cls-26{fill:#e79c50;}.cls-27{fill:#f6f1ec;}</style></defs><path class="cls-1" d="M476.95165,158.0389c-5.524-.97863-7.92895.965-7.04685,6.81652a52.88627,52.88627,0,0,1,.17855,10.05908c-.1145,2.69257,1.10517,3.70337,3.59647,3.67686,1.87.90482,4.62806-.44658,5.71788,2.56076,1.34195,3.70314-.42061,6.60309-4.3948,6.935-1.60173.13377-3.40124-.74319-4.78328.77371-.43784,9.234,1.52166,18.4341.41035,27.67343-.23367,1.94259.484,2.80783,2.44783,2.81075,2.46275.00367,4.9253.10259,7.38795.16041,3.3998,6.78478,1.92478,9.45008-5.20618,9.53191-2.05293.02355-4.14413-.3647-6.15726.37483-8.724.40461-9.38038-.64005-8.68915-9.21475a125.48171,125.48171,0,0,0-1.57218-34.93284c-.714-3.552,1.27773-6.6058.981-10.063-.48448-5.64664-.5784-11.32823-.77423-16.99723-.29424-8.51763,2.06438-10.90761,10.58691-10.758,2.46924.04335,4.93636.20638,7.40445.31454C479.48164,151.20775,479.73869,154.63616,476.95165,158.0389Z" transform="translate(-225.2173 -146.59755)"/><path class="cls-2" d="M242.95568,148.73005a.79259.79259,0,0,1,.89449.01825c.90785,1.52132.39131,3.22335.63738,4.81982.50774,3.29415-.94236,4.99888-4.07335,5.57184q-.00079,10.72113-.00157,21.44228c.89566.94216,2.08247.51556,3.14867.68909,2.254.36685,5.21335-1.25155,6.61842,1.45854,1.52341,2.93831.38691,5.75491-1.7798,8.1302-8.00361.47116-8.0113.47122-7.94594,8.4477.06038,7.36831.28212,14.73908.14564,22.10349-.06086,3.28469,1.38265,7.97218-4.23157,8.23727-5.175.24436-5.244-3.94054-5.47719-7.57094-1.15167-17.92827-.29746-35.88371-.70377-53.822-.09283-4.098.84372-8.1386-3.56736-11.516-3.33333-2.55221-.23415-8.74736,4.16491-9.09771a39.11333,39.11333,0,0,1,5.10427.2325C238.15825,148.86512,240.701,147.61925,242.95568,148.73005Z" transform="translate(-225.2173 -146.59755)"/><path class="cls-3" d="M291.83935,229.43852c-15.97553.73385-16.01093.73389-16.02928-15.11044-.01292-11.14594.08684-22.292.13627-33.438.97027-7.915.416-15.85279.27972-23.77988-.023-1.33758-.36137-2.61486.55526-3.7734-.3788-5.40761,3.03686-6.13716,7.3019-5.93773,5.10578.23875,5.543,3.59767,5.23917,7.53507-1.435,18.59356-3.47527,37.15951-2.94447,55.84965.108,3.80354-.49159,8.37962,5.46539,8.6857C295.44737,222.79389,294.3746,226.11649,291.83935,229.43852Z" transform="translate(-225.2173 -146.59755)"/><path class="cls-4" d="M400.18776,187.66618c-2.7122-1.42111-4.32218-1.93263-4.18558,2.44738.3306,10.60007.13718,21.2175.07255,31.82742-.01017,1.6694.025,3.63133-.79493,4.94053-1.53324,2.4481-4.23088,3.17809-7.04094,2.55193-2.6703-.595-2.64871-2.877-2.64782-4.99929q.01434-34.105.07288-68.20982c.01256-3.79346.72026-7.46171,5.72831-7.48174,4.79374-.01918,5.38174,3.55385,5.41528,7.106a40.48721,40.48721,0,0,0,5.87032,20.45025C403.13954,180.36825,405.48744,184.84685,400.18776,187.66618Z" transform="translate(-225.2173 -146.59755)"/><path class="cls-5" d="M435.48413,156.56936a51.69722,51.69722,0,0,1,2.036-5.88646c1.202-2.51018,3.05-4.547,6.20648-3.994,3.40333.59627,3.67058,3.3411,3.74186,6.11158.27739,10.7869.68558,21.57192.82579,32.36045.13788,10.60747.05279,21.21871-.03384,31.82749-.02,2.44365-.45413,4.88323-.68254,7.32608-.37886,4.05236-2.84317,5.58792-6.64015,5.26591-3.80276-.3225-3.63629-3.3316-3.65783-5.95526-.09024-10.9877-.06434-21.97628-.12262-32.96432-.02512-4.7357-.15153-9.47085-.23191-14.20626-3.19564-4.64916-1.52067-9.85854-1.67224-14.84627C435.20238,159.93946,436.02185,158.28216,435.48413,156.56936Z" transform="translate(-225.2173 -146.59755)"/><path class="cls-6" d="M366.7,203.08c-.72,3.43-.79,3.42-3.68,2.68-.43-6.69-5.44-7.53-10.59-8.22a6.16645,6.16645,0,0,1-1.23-2.01,8.266,8.266,0,0,1-.18-4.31c.09-.52.2-1.04.32-1.56a3.31741,3.31741,0,0,1,.56-.87c.18.01.35.02.53.02.41.02.81.04,1.22.06,1.87-.16,3.73-.31,5.6-.47-.85-7.35-3.28-14.3-5.55-21.28-.64-1.96-1.23-4.03-3.56-4.78a10.749,10.749,0,0,1-.16,1.27c-.1-.19-.21-.39-.33-.58-.18-.31-.37-.63-.56-.94-.85-4.45-1.03-8.97-1.53-13.46,4.7-2.56,8.19-.77,10.39,3.42a93.61277,93.61277,0,0,1,9.53,27.14C366.09,187.12,368.35,195.17,366.7,203.08Z" transform="translate(-225.2173 -146.59755)"/><path class="cls-7" d="M351.2,195.53c-.41.79-1.41,1.27-3.58,1.17a29.07915,29.07915,0,0,1-5.12-.11c-4.02-.79-5.95,1.33-7.18,4.65-2.99-3.16-2.49-7.19-2.9-11.03-.31-2.83,1.12-5.99-1.44-8.45,2.33-9.06,4.83-18.07,9.63-26.22,1.68-2.86,3.32-5.92,6.95-6.91,4.43,3.91,1.92,9.11,2.58,13.71a10.749,10.749,0,0,1-.16,1.27c-.1-.19-.21-.39-.33-.58-4.07,5.82-6.07,12.57-8.67,19.07-1.93,4.84,1.07,5.79,4.7,6.35,1.46.23,2.97.2,4.46.29.17,0,.34.01.5.02a2.83264,2.83264,0,0,1,.49,1,3.32844,3.32844,0,0,0-.11,1.46C351.15,192.7,351.78,194.42,351.2,195.53Z" transform="translate(-225.2173 -146.59755)"/><path class="cls-8" d="M532.80571,187.6796c-17.60065-2.17113-25.86173-16.18777-17.511-29.87763,3.226-5.28854,8.352-7.89771,14.32453-9.02541,3.21148,2.65525,3.52159,5.67634,1.15024,9.03552-3.62775,2.18481-7.03628,4.69224-6.82629,9.44115.28179,6.37328,5.9645,7.51253,10.30365,9.88687C537.04788,182.7279,536.72935,185.05734,532.80571,187.6796Z" transform="translate(-225.2173 -146.59755)"/><path class="cls-9" d="M546.61142,215.84409c7.08471-8.13785,7.786-12.4259,3.46184-21.16875-1.08452-4.4219-3.12269-8.93763,1.27343-12.82034,9.63335,3.68091,12.68442,11.56214,12.21037,20.77567-.56965,11.07283-3.20712,21.43517-15.63882,25.57421C545.791,224.26175,547.31266,219.93654,546.61142,215.84409Z" transform="translate(-225.2173 -146.59755)"/><path class="cls-10" d="M363.021,205.7647c3.7282-3.16525,2.89854-7.51825,2.44688-11.40238-.61917-5.3247-1.06165-10.42165,2.01342-15.17423,4.99,14.68814,7.06445,30.02077,10.01831,45.15738.56088,2.8742-.68188,4.79791-3.74158,5.19849-3.50361.45871-6.08016-.868-6.8596-4.39776C365.478,218.71367,364.30005,212.22812,363.021,205.7647Z" transform="translate(-225.2173 -146.59755)"/><path class="cls-11" d="M330.9753,181.7565c2.77207-1.51279,3.25471.08181,3.15564,2.34492a80.031,80.031,0,0,0,1.18488,17.13658q-1.82794,12.006-3.65,24.01226c-.49017,3.27092-2.5612,4.47165-5.624,4.2313-3.29587-.25863-4.63284-2.30611-4.4112-5.40709.674-9.4307,3.08547-18.55628,5.15832-27.72795C327.90238,191.42005,329.56211,186.61587,330.9753,181.7565Z" transform="translate(-225.2173 -146.59755)"/><path class="cls-12" d="M400.18776,187.66618c3.16025-3.28375-.09706-7.96,2.49026-11.36766,6.95372,5.69179,13.78021,3.001,20.59728-.30979,2.77041,3.80945,2.63621,7.6275.0342,11.45284A20.12448,20.12448,0,0,1,400.18776,187.66618Z" transform="translate(-225.2173 -146.59755)"/><path class="cls-13" d="M291.83935,229.43852c-.15258-3.32315,1.85313-6.64545.004-9.96916,5.83073-.43862,11.65834-.9261,17.49353-1.29476,2.77169-.17512,5.60594.19824,6.25367,3.46887.70616,3.56554-1.5512,5.67847-4.66042,6.75225C304.69087,230.55044,298.22985,229.53738,291.83935,229.43852Z" transform="translate(-225.2173 -146.59755)"/><path class="cls-8" d="M531.801,228.54c-6.31006-.32089-11.62-3.16655-16.60419-6.69038-2.3666-1.6732-3.7335-4.10239-2.0554-6.86034,1.80906-2.97318,4.45746-4.47308,8.2218-3.18893,4.09647,1.39743,7.18933,4.89927,11.68928,5.38115,1.69823,2.87646,1.06436,6.05824,1.083,9.12133C534.14268,227.489,533.70369,228.9654,531.801,228.54Z" transform="translate(-225.2173 -146.59755)"/><path class="cls-14" d="M469.10231,229.41215a4.2555,4.2555,0,0,1,3.08732-.95713c8.28843-.45167,8.288-.46,8.27615-8.94985,5.71024-.09517,11.42023-.21427,17.13089-.27442,2.30914-.02434,4.8723-.10553,5.52526,2.8034.63883,2.84609-1.29318,4.7241-3.4349,6.0013a10.21922,10.21922,0,0,1-4.88148,1.27662C486.23944,229.44764,477.67037,229.39757,469.10231,229.41215Z" transform="translate(-225.2173 -146.59755)"/><path class="cls-15" d="M423.3095,187.44157q-.01705-5.72615-.03415-11.45256c6.25033-5.11486,8.748-12.567,12.21007-19.41862,3.1387,4.05165.974,8.72524,1.492,13.085a51.42522,51.42522,0,0,1-.05192,6.79844C432.591,180.36756,429.78605,186.15794,423.3095,187.44157Z" transform="translate(-225.2173 -146.59755)"/><path class="cls-16" d="M470.21962,188.86083a2.89639,2.89639,0,0,1,2.30761-1.34152c2.33961-.30928,5.31339,1.02372,5.75751-3.302.39717-3.8685-2.05313-4.59136-4.6052-5.62631,6.63357-.04667,13.26781-.176,19.89978-.10289,2.93025.0323,6.11821.5841,6.21768,4.29879.10407,3.88879-2.66605,5.70115-6.2832,5.80059C485.75245,188.80088,477.98475,188.78365,470.21962,188.86083Z" transform="translate(-225.2173 -146.59755)"/><path class="cls-17" d="M530.76949,157.81208a23.63839,23.63839,0,0,0-1.15021-9.03541c7.64253-2.75888,15.25983-1.89366,22.86886.15765,2.58546,3.74912,2.66814,7.49967.00646,11.25177C545.47293,157.4002,538.38324,155.23134,530.76949,157.81208Z" transform="translate(-225.2173 -146.59755)"/><path class="cls-18" d="M240.4142,159.14c1.45131-1.19108,3.27264-1.97939,2.384-4.6222a7.18056,7.18056,0,0,1,1.05189-5.76927q9.706.06022,19.41185.12083c2.4266,3.35221,2.52843,6.70385-.00246,10.05485Z" transform="translate(-225.2173 -146.59755)"/><path class="cls-19" d="M551.34669,181.855c-2.01218,4.11626-.18721,8.60986-1.273,12.8188-4.985-4.21394-11.4172-4.892-17.26685-6.99531,2.75826-3.20318.75853-7.052,1.43985-10.538A59.08117,59.08117,0,0,1,551.34669,181.855Z" transform="translate(-225.2173 -146.59755)"/><path class="cls-17" d="M531.801,228.54c2.80829-3.5254-1.44347-7.82129,1.25153-11.35877,4.68471,1.21105,9.29522,1.67616,13.55923-1.33687,4.01075,3.746,1.326,8.19333,1.3065,12.36106C542.57311,229.61554,537.21939,230.61923,531.801,228.54Z" transform="translate(-225.2173 -146.59755)"/><path class="cls-16" d="M476.95169,158.0389l.0875-10.27818q7.46586.05481,14.93184.10921c3.68411.20321,5.131,2.379,5.41617,5.8089.26082,3.13639-.422,5.10842-4.18275,4.82712-5.40434-.40424-10.86018.591-16.248-.51973Z" transform="translate(-225.2173 -146.59755)"/><path class="cls-20" d="M255.26582,181.029c3.18343-.02624,6.384-.26688,9.54534-.01677,2.9979.23717,4.6938,1.88706,4.417,5.23874-.26214,3.17416-1.70486,4.83644-4.94936,4.78791-2.62544-.03927-5.25036-.11259-7.87552-.17081C253.28,187.9026,252.59461,184.658,255.26582,181.029Z" transform="translate(-225.2173 -146.59755)"/><path class="cls-21" d="M476.95647,157.98622c4.55374-.02252,9.11084.04778,13.65956-.11446,1.7553-.06261,4.95883.8807,4.9439-1.05925-.01985-2.57487,1.37726-6.17031-2.18366-8.01426a15.28236,15.28236,0,0,1-1.40552-.92867c3.0285-.03875,6.07266-.28437,9.08022-.0551,2.6652.20318,5.39771.83669,5.74038,4.28826.33213,3.34513-1.93362,4.93465-4.61159,5.52864A58.9547,58.9547,0,0,1,476.95647,157.98622Z" transform="translate(-225.2173 -146.59755)"/><path class="cls-22" d="M263.25948,158.92417q.00123-5.02749.00247-10.05491c4.81039-.19224,10.00371-1.448,12.60472,4.49551,1.16167,1.59585.05315,2.55118-1.00307,3.52126C271.31466,159.36489,267.29767,159.20431,263.25948,158.92417Z" transform="translate(-225.2173 -146.59755)"/><path class="cls-23" d="M552.4946,160.18609q-.0032-5.62622-.00646-11.2521a8.03729,8.03729,0,0,1,5.15033,2.10966c2.719,2.29275,5.20252,5.09795,2.84369,8.70571C558.38768,162.95282,555.27138,161.80836,552.4946,160.18609Z" transform="translate(-225.2173 -146.59755)"/><path class="cls-24" d="M255.26582,181.029a25.40407,25.40407,0,0,0,1.13746,9.83913q-4.00169-.004-8.00335-.008a2.0181,2.0181,0,0,1,.00973-.56506c1.87156-6.0168.81754-9.77874-6.68155-8.73553-.38521.05359-.87456-.63419-1.31545-.977Q247.83921,180.80549,255.26582,181.029Z" transform="translate(-225.2173 -146.59755)"/><path class="cls-25" d="M274.8636,156.886q.50148-1.76063,1.003-3.52125.45734-.01993.91482-.028c.02114,9.19258.74124,18.40619-.83554,27.552-.04062-6.2066-.04442-12.41506-.14581-18.62194C275.77034,160.4462,276.38638,158.467,274.8636,156.886Z" transform="translate(-225.2173 -146.59755)"/><path class="cls-26" d="M352.43,188.81v8.73c-1.67.14-3.34.24-4.81-.84,4.48-1.51,1.77-5.28,2.52-7.96.17,0,.34.01.5.02q.63.01493,1.26.03C352.08,188.8,352.25,188.81,352.43,188.81Z" transform="translate(-225.2173 -146.59755)"/><path class="cls-18" d="M242.95568,148.73005c-2.37142-.15644-4.88539.85306-7.06687-.85577C238.28929,147.79322,240.71528,147.50255,242.95568,148.73005Z" transform="translate(-225.2173 -146.59755)"/><path class="cls-27" d="M349.65,163.03c.12.19.23.39.33.58a10.749,10.749,0,0,0,.16-1.27C349.97,162.57,349.81,162.8,349.65,163.03Zm4,25.84c1.9.26,3.84,1.02,5.6-.47C357.38,188.56,355.52,188.71,353.65,188.87Z" transform="translate(-225.2173 -146.59755)"/><path class="cls-10" d="M359.25,188.4c-1.7,2.11005-3.62,1.71-5.6.47C355.52,188.71,357.38,188.56,359.25,188.4Z" transform="translate(-225.2173 -146.59755)"/></svg>