<svg id="Layer_1" data-name="Layer 1" xmlns="http://www.w3.org/2000/svg" viewBox="0 0 180 180">
  <defs>
    <style>
      .cls-1 {
        fill: none;
      }

      .cls-2 {
        fill: #e6e7e8;
      }
    </style>
  </defs>
  <rect class="cls-1" y="0.67239" width="180" height="178.65523"/>
  <g>
    <path class="cls-2" d="M399.35318,243.30307a57.40961,57.40961,0,0,0,13.109,1.51483c1.356,0,2.71948-.0487,4.0787-.14535.25809,2.01614.695,3.94586,1.12271,5.83467.18418.81329.36863,1.62665.536,2.44279q.01122.05483.024.1093a79.19552,79.19552,0,0,1,2.0827,18.9511c-.16195,3.98214-.989,6.727-2.67752,8.88241a5.52615,5.52615,0,0,0-1.137,4.78339c.46783,2.34155-.2565,4.73681-1.13431,7.484q-.46929.03909-.93863.07757a11.055,11.055,0,0,0,1.16577-8.24154c-.938-4.88422-1.50427-9.99143-2.052-14.93155l-.19629-1.76456q-.00614-.05493-.01379-.10962a37.09453,37.09453,0,0,1-.20923-8.45056l.39337-2.42416.29672-1.82831a3.99989,3.99989,0,0,0-7.48614-2.50731,36.75524,36.75524,0,0,0-3.3931,9.27434c-.2753.98629-.533,1.97824-.79037,2.97021a41.49168,41.49168,0,0,1-3.24988,9.43219,21.47357,21.47357,0,0,1-6.12317,7.09616,6.94462,6.94462,0,0,0-3.20761,5.16013c-.04733.47348-.8328,1.31085-1.40714,1.90777a10.2639,10.2639,0,0,0-3.15567,5.74527,4.00031,4.00031,0,0,0,1.45105,3.83258,33.07667,33.07667,0,0,1-1.67263,6.01334q-.01617.04491-.03128.09015a17.9841,17.9841,0,0,1-1.17179,2.73593,29.94,29.94,0,0,0-3.6358,13.56427q-.35659-.04646-.71045-.10705c.25986-2.53058.3894-5.0413.51575-7.49012.15442-2.993.30026-5.82.66314-8.64038.9169-7.12637,3.00489-12.02624,6.76767-15.87567a6.50454,6.50454,0,0,0,1.56641-7.029c-1.87555-6.27564-1.0795-12.71036-.04926-18.18546.55539-2.95141,1.366-5.90817,2.0857-8.41125l.0086-.03047a23.79522,23.79522,0,0,0,5.6377-4.69622c.48178-.49987.9368-.972,1.39459-1.41383.57971-.55951,2.25086-2.17265,1.54358-5.62m20.76447,1.003h0m-29.25992,10.37979h0m5.87552-16.23382c-1.37076,1.44351-1.21869,3.3186-1.44373,5.08682.26337.87169.51886,1.75657-.25772,2.50607-2.04825,1.97685-3.83185,4.27521-6.42023,5.61a3.287,3.287,0,0,0-1.68713,2.30335c-.83383,2.9-1.6146,5.81239-2.17243,8.77684-1.27273,6.7637-1.85485,13.53628.20478,20.25894a2.50069,2.50069,0,0,1-.59394,2.84064c-4.97039,5.05365-7.04623,11.33593-7.93194,18.21984-.80158,6.22992-.60007,12.52579-1.49747,18.73682-.12826.88779.40445,1.04978,1.00119,1.2327a21.94046,21.94046,0,0,0,6.11481.92816q.05337.00087.105.00088c1.33618,0,1.85248-.45275,1.80774-1.91741a25.96845,25.96845,0,0,1,3.11685-13.88547,22.0149,22.0149,0,0,0,1.45273-3.382c1.34326-3.72766,2.43548-7.50659,2.04373-11.75833l-1.647,1.2561a6.22086,6.22086,0,0,1,2.00161-3.56976c1.216-1.26117,2.42231-2.57657,2.60306-4.38529a2.91677,2.91677,0,0,1,1.45182-2.22863,25.3444,25.3444,0,0,0,7.42709-8.54093c2.26361-4.18063,3.13043-8.81485,4.39554-13.32162a32.75085,32.75085,0,0,1,3.0473-8.373c-.28717,1.7696-.49976,3.07951-.71231,4.38945a41.04259,41.04259,0,0,0,.21844,9.50891c.641,5.72619,1.22434,11.46747,2.31809,17.12384a7.10987,7.10987,0,0,1-1.14255,6.00689,25.51182,25.51182,0,0,0-2.54477,4.34064c-.33682.72565-.33209,1.22876.57761,1.22876q.08267,0,.17563-.00561c.31964-.01944.63949-.026.95974-.026.67041,0,1.34171.0288,2.01239.0288a12.1277,12.1277,0,0,0,1.88276-.12335c1.28259-.10708,2.56567-.20862,3.8475-.32428.43448-.03921.90506-.00259,1.07934-.58093,1.14124-3.78659,2.72211-7.50369,1.87034-11.60492a1.52828,1.52828,0,0,1,.32965-1.385c2.62558-3.31375,3.41894-7.226,3.57855-11.31027A83.12226,83.12226,0,0,0,422.118,252.1465c-.75168-3.66557-1.832-7.27788-1.80911-11.05756.00384-.63395-.18332-.7682-.47553-.7682-.15176,0-.33184.03621-.52819.05743a53.46653,53.46653,0,0,1-22.57193-1.92617Z" transform="translate(-274.16234 -162.76413)"/>
    <path class="cls-2" d="M354.49564,227.6329h0m-3.0799,2.99883a23.67909,23.67909,0,0,0,9.62729,8.01858q1.71872.8438,3.44324,1.67614c1.97506.95732,4.01736,1.94723,5.99609,2.94516.73184.36909,1.48773.84558,2.288,1.35.288.18158.57608.36306.8655.54152.13959.08608.25034.15663.3382.21446q.00618.09474.01682.18915a8.07848,8.07848,0,0,0,2.93518,5.38182q.06073.04956.12335.09673a.12649.12649,0,0,1,.04275.05713,5.21113,5.21113,0,0,0,2.67771,3.98253,43.55413,43.55413,0,0,1-6.64319,6.0818l-.51694.414a67.873,67.873,0,0,1-13.42654,8.58252q-.04917.02376-.09766.04892a17.6609,17.6609,0,0,1-5.77109,1.827c-1.09085.03192-2.353.06271-3.60977.06271a34.865,34.865,0,0,1-10.72919-1.38074c-5.582-1.82223-8.77648-5.49756-10.05746-11.587a.55064.55064,0,0,1,.06055-.39048q.07657-.13362.1427-.27289c2.82019-5.93934,6.82144-11.6297,12.97375-18.45051,2.848-3.1575,5.85159-6.12262,9.32071-9.38855m.92261-6.13219c-.61115,0-.93146.66957-1.32813,1.03763-4.09485,3.79947-8.13537,7.64644-11.88543,11.804-5.34262,5.92314-10.17774,12.17105-13.61686,19.41391a4.55138,4.55138,0,0,0-.49987,3.223c1.52011,7.2265,5.58825,12.21554,12.72613,14.54565a38.06642,38.06642,0,0,0,11.97049,1.57822c1.30673,0,2.61719-.03119,3.928-.07037a21.71877,21.71877,0,0,0,7.29382-2.26813,71.79152,71.79152,0,0,0,14.21878-9.08893c3.17569-2.54385,6.4047-5.04648,8.76755-8.4397a22.63123,22.63123,0,0,1,.81085-2.19183c.49924-1.029.237-1.43843-.89111-1.67409-1.13409-.23686-2.69562-.67374-2.7753-1.81547a4.12727,4.12727,0,0,0-1.60187-2.70362,4.12261,4.12261,0,0,1-1.48974-2.73156c.105-1.80306-.979-2.58819-2.23035-3.35981-1.1405-.70329-2.25845-1.45652-3.45175-2.05832-3.1405-1.58384-6.3201-3.09022-9.47775-4.64042-4.5759-2.24649-8.1897-5.41374-9.89624-10.39168a1.19217,1.19217,0,0,0-.5712-.16846Z" transform="translate(-274.16234 -162.76413)"/>
    <path class="cls-2" d="M379.29666,197.20236a11.629,11.629,0,0,1,3.79987.641,26.1879,26.1879,0,0,0,16.348.03046c.12018.02942.26852.06967.38983.10259a11.96065,11.96065,0,0,0,1.61987.35148c.43021.10048.87769.21932,1.34781.34419a20.41532,20.41532,0,0,0,5.35254.89118,11.805,11.805,0,0,0,2.48844-.26123c1.01235-.20848,1.95138-.47444,2.85977-.73169.7496-.2123,1.45764-.41281,2.13757-.5604l.00992-.00216a4.00067,4.00067,0,0,0,.33056.24469,32.87678,32.87678,0,0,0,3.35093,1.88214,18.55829,18.55829,0,0,1,3.25912,1.93233,7.87324,7.87324,0,0,1,2.67972,4.262c-.79169-.33086-1.61148-.656-2.48346-.93939a29.39659,29.39659,0,0,0-9.21606-1.377,61.38024,61.38024,0,0,0-10.1402,1.03363c-1.40943.23662-2.753.56358-4.05225.87981-.67691.16473-1.35385.32983-2.03369.47879q-.06519.01428-.12982.0307a4.74648,4.74648,0,0,1-3.83515-.67235l-.85784-.58035c-1.41584-.956-2.75318-1.85894-4.00309-2.83635a5.41646,5.41646,0,0,0-3.31988-1.26331,4.83226,4.83226,0,0,0-4.35214,2.8683,13.65217,13.65217,0,0,0-1.52808,4.42688l-.011.07208a11.4636,11.4636,0,0,1-2.75949,5.98391c-.59338.65567-1.13016,1.063-1.40082,1.063a3.56973,3.56973,0,0,1-1.538-.584c-.54767-.30709-1.08182-.56324-1.511-.769-.147-.07053-.28546-.13672-.41049-.199a3.99978,3.99978,0,0,0-2.71475-.30957,4.20464,4.20464,0,0,0-3.30927,3.16481,4.0995,4.0995,0,0,0,1.36451,4.05859,20.30039,20.30039,0,0,1,5.85565,8.5524q.02755.07738.05823.15361a37.13636,37.13636,0,0,0,2.54873,5.14465q-2.54731-1.53756-5.1904-2.901a44.55487,44.55487,0,0,1-7.61508-4.93973,9.43355,9.43355,0,0,1-2.89184-6.02435q-.004-.04632-.0091-.09254a23.15161,23.15161,0,0,0,4.84689-10.2174,8.975,8.975,0,0,1,.41791-1.24c.20261-.48712.45416-.742.598-.742a1.5321,1.5321,0,0,1,.82853.41582c.20532.16974.43615.38406.75564.68067.19806.18391.4184.38841.675.62191a4,4,0,0,0,6.5488-4.01907,10.32672,10.32672,0,0,0-3.36707-5.23268,5.06658,5.06658,0,0,1,2.77136-2.48976q.18105-.06768.35489-.15259a11.64466,11.64466,0,0,1,5.08185-1.17464m20.53156.53942h0m-16.24195,44.91081a6.783,6.783,0,0,0,1.17435.102h.00467a5.64822,5.64822,0,0,1,3.81491,1.82448,15.797,15.797,0,0,1-2.128,1.88077,7.98519,7.98519,0,0,0-1.7966-1.54379c-.09067-.061-.18347-.11873-.26874-.186a3.448,3.448,0,0,1-.87109-.85451l-.00016.00031a.52768.52768,0,0,1,.00827-.10321,5.74407,5.74407,0,0,0,.06244-1.12m-4.28961-49.45023a15.57791,15.57791,0,0,0-6.83731,1.58045,9.08962,9.08962,0,0,0-5.70117,6.591,1.67079,1.67079,0,0,0,.85608,2.08588,6.39724,6.39724,0,0,1,2.98449,3.85278c-.70483-.64128-1.123-1.05409-1.57418-1.427a5.32958,5.32958,0,0,0-3.377-1.33274,4.69837,4.69837,0,0,0-4.29129,3.206,12.888,12.888,0,0,0-.62985,1.90417,19.08588,19.08588,0,0,1-4.03238,8.55,3.62846,3.62846,0,0,0-.88528,2.97623,13.4519,13.4519,0,0,0,4.2467,8.69717,48.46464,48.46464,0,0,0,8.42246,5.48284,84.651,84.651,0,0,1,10.03189,6.0885c.57452.43535,1.19873.79274,1.059,1.7166-.31656,2.09219.81051,3.48878,2.34009,4.6958.60232.47531,1.341.78543,1.7279,1.54239a2.83983,2.83983,0,0,0,3.80957,1.19589,19.92662,19.92662,0,0,0,5.64261-5.206,1.50473,1.50473,0,0,0-.08649-1.99942c-2.202-2.48363-4.64779-4.58426-8.2055-4.64865l-.03638.00024a2.69787,2.69787,0,0,1-2.12039-1.02994,33.13019,33.13019,0,0,1-5.98728-9.6538,24.266,24.266,0,0,0-7.02667-10.25359c-.12659-.1042-.09164-.20288.27857-.29153.47827.23822,1.12918.52928,1.7485.87654a7.23781,7.23781,0,0,0,3.49426,1.09506c1.53952,0,2.91727-.7775,4.36658-2.37888a15.52686,15.52686,0,0,0,3.75333-8.10087,9.6898,9.6898,0,0,1,1.0816-3.13339c.283-.51931.52-.801.84955-.801a1.5289,1.5289,0,0,1,.85629.4142c1.62854,1.27352,3.36493,2.41156,5.07767,3.57478a8.74662,8.74662,0,0,0,7.06833,1.24c1.96643-.43083,3.91009-.98837,5.89221-1.32115a57.48152,57.48152,0,0,1,9.47784-.97843,25.54879,25.54879,0,0,1,7.97992,1.18119c1.69489.55082,3.30814,1.34825,4.97538,1.98962a4.052,4.052,0,0,0,1.40326.32108c.91723,0,1.39495-.61495,1.479-1.96236a11.90157,11.90157,0,0,0-4.28369-10.57008c-2.09534-1.71471-4.69852-2.57053-6.93283-4.05275a1.83537,1.83537,0,0,0-1.2609-.89411,5.10861,5.10861,0,0,0-2.13934.07582c-1.67554.3637-3.29483.94312-4.97519,1.28728a7.734,7.734,0,0,1-1.662.175c-2.05957,0-4.02206-.738-6.02356-1.18371-.94265-.08715-1.84811-.54141-2.79919-.54141a2.58272,2.58272,0,0,0-.9444.17211,22.1884,22.1884,0,0,1-14.03534.03528,15.57277,15.57277,0,0,0-5.05545-.8432Z" transform="translate(-274.16234 -162.76413)"/>
    <path class="cls-2" d="M354.722,204.76822a15.42191,15.42191,0,0,0-.71841,1.55044l-.02686.06913c-.60382,1.59663-1.13476,3.24038-1.5816,4.89737-14.6022,6.44194-28.851,12.90127-42.64,21.05684a146.37072,146.37072,0,0,0-14.3494,9.55712,40.1283,40.1283,0,0,1,2.62643-3.99357c5.77509-7.82942,13.632-13.06667,20.55607-17.15715A181.44669,181.44669,0,0,1,354.722,204.76822m10.558-7.33167q-.04235,0-.08469.00179c-16.998,4.70409-33.39859,10.861-48.64166,19.86615-8.26007,4.87976-15.96564,10.39748-21.74057,18.22665a44.17333,44.17333,0,0,0-8.23822,19.53014c.53366-.50006.73889-.677.92691-.87074,7.15585-7.37378,15.51791-13.21762,24.28961-18.40566,13.54709-8.01246,27.87656-14.51335,42.264-20.86021a3.39524,3.39524,0,0,0,2.13165-2.33513,48.36146,48.36146,0,0,1,1.53107-4.78685c.9797-2.45224,2.54339-4.33957,5.35763-4.80869.406-.06768.94712-.0836.97852-.71388a11.61875,11.61875,0,0,1,1.63437-4.80154,2.00759,2.00759,0,0,0-.40863-.042Z" transform="translate(-274.16234 -162.76413)"/>
    <path class="cls-2" d="M412.49155,214.55753a26.80392,26.80392,0,0,1,9.40252,1.59425,10.91276,10.91276,0,0,1-1.17712,4.1759,34.15365,34.15365,0,0,0-3.92706,14.86652c-1.63593.13972-3.38782.24487-5.13944.24487a25.93572,25.93572,0,0,1-11.00033-2.09265,24.58668,24.58668,0,0,0-5.9036-16.738l-.026-.02988a13.24643,13.24643,0,0,0,1.79465.11865,24.385,24.385,0,0,0,5.48147-.79542c.4267-.09725.85352-.19478,1.281-.28362a45.28346,45.28346,0,0,1,9.2139-1.06063m-17.5524.49684h0m17.5524-4.49683a49.36577,49.36577,0,0,0-10.02777,1.14429,29.73669,29.73669,0,0,1-5.94864.99537,8.37419,8.37419,0,0,1-3.10468-.56385q-.09544-.0087-.19-.00866a2.0863,2.0863,0,0,0-1.87186,1.16671,4.82415,4.82415,0,0,0,.36771,5.92811,20.40746,20.40746,0,0,1,4.887,14.89388,2.456,2.456,0,0,0,.48145,1.90111,28.70075,28.70075,0,0,0,14.56573,3.42457,76.58281,76.58281,0,0,0,8.00907-.5039c.89581-.09456,1.17654-.44079,1.14352-1.38045a30.115,30.115,0,0,1,3.45166-15.36043,15.04379,15.04379,0,0,0,1.65158-6.10849c.1615-2.47905.02521-2.67432-2.27579-3.5547a30.78582,30.78582,0,0,0-11.139-1.97356Z" transform="translate(-274.16234 -162.76413)"/>
    <path class="cls-2" d="M345.16351,226.04616A128.34135,128.34135,0,0,0,326.841,247.05727a33.60991,33.60991,0,0,0-3.73611-9.8378l.13782-.07358c7.12765-3.8055,14.4458-7.71274,21.9208-11.09973m6.82041-7.033c-.89438.28154-1.60016.45134-2.26544.721-10.96735,4.44478-21.3154,10.14069-31.73923,15.68529-.80777.42966-.508.78917-.12393,1.25764,3.63946,4.43967,4.94192,9.76691,5.85788,15.259.44671,2.67853.38681,5.43883,1.29489,8.042a4.6165,4.6165,0,0,1,.4367-2.10556,53.87226,53.87226,0,0,1,4.66117-8.50232c6.11059-9.0932,13.79059-16.78206,21.80932-24.16115a1.42424,1.42424,0,0,1,.94776-.54219l.04651.00117a10.19134,10.19134,0,0,1-.92563-5.65481Z" transform="translate(-274.16234 -162.76413)"/>
    <path class="cls-2" d="M417.47876,313.54718h0m-3.42709.49481c-.12461,3.7843-.085,7.58713.11911,11.353a6.3834,6.3834,0,0,0,3.3616,5.57529q3.45869,1.9194,6.90771,3.85553-.49169-.0759-.992-.14508l-.06183-.008c-3.40356-.4118-6.85516-.66257-10.2941-.74869a5.26971,5.26971,0,0,0-4.53091-5.29873c1.185-5.06086.39383-9.90613-.8281-14.317.69144.03714,1.40439.07016,2.149.07016a18.82272,18.82272,0,0,0,2.50458-.15405c.55194-.07358,1.10806-.12793,1.66495-.18244m2.88147-4.40362a2.32255,2.32255,0,0,0-.75583.12643c-1.43378.22827-2.889.304-4.31925.49472a14.90236,14.90236,0,0,1-1.97592.119c-1.53418,0-3.05987-.16834-4.58734-.16834-.31686,0-.634.00727-.95114.02475-.042.00232-.085.00327-.12869.00327-.20484,0-.426-.021-.64164-.021a.994.994,0,0,0-1.13421.84217c.18728.46194.40582.914.5571,1.38745,1.90231,5.95343,3.3262,11.92956.76117,18.07168-.355.86884.32757,1.06256.87994,1.26816a11.28561,11.28561,0,0,0,2.88949.7316c1.29389.116,1.62815.70038,1.56672,1.94446-.06028,1.22055-.17322,2.58023,1.09845,3.42794l.21444-.00021a104.0682,104.0682,0,0,1,12.49942.75342,60.97961,60.97961,0,0,0,8.24024,1.01141c.41137,0,.82464-.01394,1.23913-.04471a2.27469,2.27469,0,0,0,1.40406-2.22164,3.24828,3.24828,0,0,0-2.08066-3.07526c-4.08954-2.28943-8.17435-4.58737-12.27243-6.86148a2.34529,2.34529,0,0,1-1.26453-2.15021,126.17028,126.17028,0,0,1,.08139-15.25229,2.32271,2.32271,0,0,0-1.31991-.41128Z" transform="translate(-274.16234 -162.76413)"/>
    <path class="cls-2" d="M432.83057,217.52879a6.3705,6.3705,0,0,0,.4667.66516,5.54525,5.54525,0,0,1,1.039,4.08236,9.551,9.551,0,0,0-2.0683,1.40332,2.67849,2.67849,0,0,1-.42184-1.06925,16.29041,16.29041,0,0,0,.90012-5.03094c.02813-.01663.05612-.03345.08435-.05065m4.74911,13.38671a6.26877,6.26877,0,0,1-.60553,4.47908q-.03854.07024-.07425.142c-.47339.95114-.97482,1.88675-1.498,2.82553-.04071-.21049-.09385-.428-.16086-.65224q-.02267-.07584-.04831-.15074a11.49546,11.49546,0,0,0-2.07666-3.67856,2.97341,2.97341,0,0,1-.59674-1.58758,1.01246,1.01246,0,0,1,1.36761-.38143,4.00338,4.00338,0,0,0,.65543-.05407,11.27147,11.27147,0,0,0,2.38476-.71726c.21271-.08432.504-.19978.56113-.21557q.047-.00527.0914-.00911m-5.527,13.26788c-.50589.8898-1.00766,1.79387-1.49154,2.711a5.27165,5.27165,0,0,1-1.05811,1.53309,6.49881,6.49881,0,0,1-2.34332-.99467c-.13614-.724-.24991-1.4006-.34515-2.05214a1.73424,1.73424,0,0,1-.01365-.492,1.78825,1.78825,0,0,1,.57517-.08471,18.94686,18.94686,0,0,0,4.04019-.44272,6.42941,6.42941,0,0,0,.63641-.17789m-5.235.63295h0m1.63421-44.95807a7.4375,7.4375,0,0,0-1.24615.10513,19.42128,19.42128,0,0,1,2.9382,3.69123,13.901,13.901,0,0,1,1.72769,4.3304,9.62047,9.62047,0,0,1-.16256,4.96885c-.39429,1.207-1.6222,1.45325-2.61814,1.89548-.70669.31384-.428.81871-.39563,1.27252a12.173,12.173,0,0,1-.72186,5.43575c-.55621,2.25668.74872,3.93048,1.756,5.71217.28845.51009,1.18314.85866.5817,1.68793-1.047.11987-1.49463.7063-1.66281,1.75409a6.97753,6.97753,0,0,0,1.35867,5.68678,7.54545,7.54545,0,0,1,1.40152,2.45648c.253.84648.07284,1.39066-.87378,1.60454a14.8564,14.8564,0,0,1-3.16321.34438c-3.15481.02893-4.96112,2.10212-4.51489,5.15518.14538.99455.32239,1.98543.51907,2.9712a1.7082,1.7082,0,0,0,.67136,1.28531c2.27313,1.4625,4.044,2.21468,5.51495,2.21468,1.85407,0,3.23145-1.19516,4.5369-3.66937,2.0422-3.87061,4.43664-7.53374,6.382-11.44211a10.29009,10.29009,0,0,0,.95135-7.48715,3.46517,3.46517,0,0,0-3.62979-2.92687,6.83965,6.83965,0,0,0-.75827.04448c-1.078.12036-1.98364.76746-3.15646.962a5.58287,5.58287,0,0,1,2.48437-2.17443,3.18816,3.18816,0,0,0,1.87076-2.56361,9.529,9.529,0,0,0-1.79566-7.44586,2.40057,2.40057,0,0,1-.31439-2.58548,11.02579,11.02579,0,0,0,.65137-5.60858,8.71024,8.71024,0,0,0-8.33225-7.67516Z" transform="translate(-274.16234 -162.76413)"/>
    <path class="cls-2" d="M377.09671,267.6976a43.98428,43.98428,0,0,0,.31705,15.48755q-.24995.26083-.48841.5322a27.52413,27.52413,0,0,0-10.55047-8.7229,80.92182,80.92182,0,0,0,10.72183-7.29685m6.8161-11.4628c-2.22378,1.861-4.12179,4.06018-6.35486,5.92685-7.18515,6.00632-14.7644,11.28729-23.92529,13.86991,8.38586.43325,15.41916,3.47433,20.4024,10.5147a7.73429,7.73429,0,0,0,2.084,1.93595,2.46086,2.46086,0,0,0,1.28577.50278c.4757,0,.90545-.28339,1.30453-.99146a12.75814,12.75814,0,0,1,1.895-2.34616,3.03012,3.03012,0,0,0,.77344-3.04,40.16244,40.16244,0,0,1-.26782-14.67,103.12557,103.12557,0,0,1,2.80279-11.70261Z" transform="translate(-274.16234 -162.76413)"/>
    <path class="cls-2" d="M400.20572,166.71417h0m3.95074.05a12.2914,12.2914,0,0,1,4.1185.70665,45.90639,45.90639,0,0,1-1.33307,14.07061l-.015.0612c-.17294.72878-.19775.83327-1.19663.94513-.46105.03627-.92874.05466-1.39083.05466a17.76885,17.76885,0,0,1-2.784-.22013c-1.72437-4.17349-1.83591-8.71631-1.70944-12.63871.00946-.29366.05767-.67048.10873-1.06943.04376-.34206.08673-.68433.11829-1.02718.01324-.14381.02627-.26674.03869-.37155.098-.03073.21274-.06515.34674-.10333a10.3442,10.3442,0,0,1,2.82871-.39426l.126.00076.04937.00031q.08482,0,.16956-.0036.26225-.01114.52444-.01113m0-4q-.34666,0-.69415.01474c-.0585-.00072-.11676-.00107-.17523-.00107a14.34629,14.34629,0,0,0-3.92249.54671c-2.53772.72284-3.03482,1.349-3.27481,3.95572-.07174.77916-.21667,1.55462-.24179,2.33456-.16473,5.10929.13837,10.14626,2.27649,14.91252a2.82586,2.82586,0,0,0,2.29849,1.719,21.71643,21.71643,0,0,0,3.91642.356q.88521,0,1.77017-.07226c2.61539-.28432,4.103-1.44925,4.7092-4.004a49.98482,49.98482,0,0,0,1.41729-15.78433,3.07775,3.07775,0,0,0-2.00393-2.80712,16.35137,16.35137,0,0,0-6.07566-1.17059Z" transform="translate(-274.16234 -162.76413)"/>
    <path class="cls-2" d="M378.59021,333.39673a42.38759,42.38759,0,0,0,1.518,5.28992c-.59256.05224-1.1391.07748-1.65934.07748a9.59442,9.59442,0,0,1-4.70013-1.04492c-.05206-.028-.09851-.05454-.13986-.07956.03958-.06256.08825-.13376.148-.2135a24.97,24.97,0,0,1,4.443-3.73682,4.00827,4.00827,0,0,0,.39029-.2926m-1.28976-7.60477c-1.61518,0-2.54548,1.18949-3.40287,2.44745-.43158.63327-.87283,1.54163-.45807,2.18158a.63878.63878,0,0,0,.56952.32339,14.69816,14.69816,0,0,0,1.41758-.39227q.15632-.00892.31292-.00891.12974,0,.25943.0061a28.9453,28.9453,0,0,0-5.28787,4.47776c-1.99185,2.49395-1.62906,4.92627,1.14517,6.41613a13.63706,13.63706,0,0,0,6.59265,1.52094,28.207,28.207,0,0,0,4.35559-.3873c1.92038-.30133,2.4227-1.56326,1.70087-3.39892a38.25258,38.25258,0,0,1-2.09677-6.85743c-.06009-.3172-.9025-1.43258-.00439-1.43255a2.77135,2.77135,0,0,1,.77389.151.39211.39211,0,0,0,.11533.01941c.30075,0,.28134-.47693.28143-.76044q.00718-.07727.01111-.15478a3.72254,3.72254,0,0,0-3.529-3.90653c-.66251-.09161-1.35056-.03235-2.00193-.16479a3.7803,3.7803,0,0,0-.7546-.07984Z" transform="translate(-274.16234 -162.76413)"/>
    <path class="cls-2" d="M385.80566,207.02264a2.09705,2.09705,0,0,0-.82095,2.08406,11.57949,11.57949,0,0,1-2.01153,7.47878c-.55924.80276-.3465,1.276.224,1.86591,2.855,2.95236,5.45465,6.3612,9.95789,6.3612a10.04416,10.04416,0,0,0,1.9447-.19818,5.24647,5.24647,0,0,1-2.26782,2.0424,1.35353,1.35353,0,0,0-.82834,1.45057c.18442,3.545.74326,6.83024,4.91483,7.88194a1.67388,1.67388,0,0,0,.16629.02513c-.153-2.71979.159-5.45491-.42264-8.1637-.74774-3.4823-2.655-6.3162-4.71683-9.1194-1.84189-2.50425-1.18976-5.11093,1.46524-6.598-2.76425-1.394-5.60284-2.67257-7.6048-5.11071Z" transform="translate(-274.16234 -162.76413)"/>
    <path class="cls-2" d="M409.14255,259.23618a8.43147,8.43147,0,0,0-.29044.9375c-.8876,4.66177-1.0022,9.49121-2.71683,13.96511a6.14066,6.14066,0,0,0,.26523,5.24729,27.56309,27.56309,0,0,1,2.79157,10.46686c.04489.88479-.161,1.25207-1.12891,1.38073-2.843.37787-4.2504,2.44168-5.32019,4.83069-.24713.55188-.09787.79434.52011.87827a51.855,51.855,0,0,0,6.94989.68982,17.29141,17.29141,0,0,0,3.387-.31327h-5.73407a30.94512,30.94512,0,0,1,2.09573-3.57855,10.63487,10.63487,0,0,0,2.01892-9.3143,188.29855,188.29855,0,0,1-2.838-25.19015Zm4.45743,38.083h0Z" transform="translate(-274.16234 -162.76413)"/>
    <path class="cls-2" d="M429.04938,200.77554h0M389.14026,188.983q-.23812,0-.47687.0128c-2.00568.0694-3.0762,1.45836-2.55722,3.23416-1.802-1.33777-3.20172-2.00505-4.4104-2.00505a3.97509,3.97509,0,0,0-3.067,1.75531q.161-.00449.32157-.00447a11.53289,11.53289,0,0,1,4.75647,1.02663,17.61828,17.61828,0,0,0,6.51071,1.38612q.26394.01594.526.01555c2.16632,0,4.2562-.7555,6.40756-.75548a7.95223,7.95223,0,0,1,1.2258.09091c1.18494.5809,2.60852.332,3.74637,1.07639a20.755,20.755,0,0,0,5.695,1.23428,7.47014,7.47014,0,0,0,2.00122-.26526,19.76835,19.76835,0,0,1,3.69052-1.12655,11.7741,11.7741,0,0,1,2.50308-.52916,2.64369,2.64369,0,0,1,1.26712.30989q.4553.23955.91281.48126a11.82759,11.82759,0,0,1,5.95768,2.56464,4.62182,4.62182,0,0,0,3.17865,1.174,14.56139,14.56139,0,0,0,2.57882-.32713c-.18936-1.07916-.76443-1.37-1.525-1.37a4.59671,4.59671,0,0,0-.62866.05044c-.30292.04232-.62561.30739-.93665.30739a.54826.54826,0,0,1-.4476-.25163,3.11977,3.11977,0,0,0-2.4292-1.51338,2.92593,2.92593,0,0,0-.867.14065.38806.38806,0,0,1-.115.0188c-.2507,0-.34586-.30049-.5011-.47616-2.41733-2.73616-3.62293-3.87766-5.445-3.87766a15.15328,15.15328,0,0,0-4.85272,1.32926c-.08484.00706-.16968.01411-.25421.02279a8.57117,8.57117,0,0,1-7.85514.73169,19.61642,19.61642,0,0,0-5.67083-1.39168,48.30683,48.30683,0,0,1-4.86606-1.91909,8.89062,8.89062,0,0,0-4.37384-1.15033Z" transform="translate(-274.16234 -162.76413)"/>
    <path class="cls-2" d="M383.98093,230.191q.29676.19794.59713.391.086.45069.17173.90033-.40329-.6348-.76886-1.29134m-5.0705-9.48657a.61437.61437,0,0,0-.28537.08086,6.80737,6.80737,0,0,0-2.15314,1.2279c-.40991.49814.46061,1.10953.64472,1.72391.23993.80052.583,1.57.82809,2.36931a30.05037,30.05037,0,0,0,4.51285,9.11244c1.09345,1.48587,2.15094,2.56662,4.23856,2.72186.74325.05527,1.27865.11413,1.66943.11413,1.017,0,1.05383-.39881,1.22028-2.2974.00485-.05551.00061-.11183.00061-.25253-.43317-2.27686-.88007-4.6353-1.33176-6.99277-.09689-.50545-.54648-.67851-.91446-.91759a37.98581,37.98581,0,0,1-7.77356-6.35237c-.18454-.20585-.34631-.53776-.65625-.53775Z" transform="translate(-274.16234 -162.76413)"/>
    <path class="cls-2" d="M419.81842,302.17975h0m-19.78983-4.01233c-.40615,0-.56076.29553-.59545.82294a9.07,9.07,0,0,0,.368,3.31286c.39325.88245,1.2561.84656,1.99692.95539a45.32591,45.32591,0,0,0,16.06079-.6796,2.60667,2.60667,0,0,0,1.7048-.95349c.19083-.75678.34119-1.5267.582-2.26724.27942-.85932.06122-1.16727-.53317-1.16727a3.00659,3.00659,0,0,0-.52323.05554c-1.20745.21854-2.42157.4241-3.64181.54395-2.572.25262-5.1474.54782-7.71207.54782a22.18306,22.18306,0,0,1-7.22879-1.07587,1.52338,1.52338,0,0,0-.478-.095Z" transform="translate(-274.16234 -162.76413)"/>
    <path class="cls-2" d="M413.33426,191.39319h0m-18.364-7.49329c.58108,1.58568-1.0112,3.13564.31433,4.56546,1.07611,1.16074,1.64865,2.85922,3.4328,3.28192,2.03073,1.21651,4.38711,1.437,6.57412,2.17006a7.313,7.313,0,0,0,6.8747-1.24072c.714-1.62767.22027-3.33028.30524-4.9969a1.25178,1.25178,0,0,0-.27408-.03082c-.60208,0-1.05173.44975-1.56693.67832a12.46524,12.46524,0,0,1-14.25226-3.36605c-.36444-.36417-.53839-.96671-1.40792-1.06127Zm17.21911,8.758-.02316.01868-.00574.013.0289-.03171Z" transform="translate(-274.16234 -162.76413)"/>
    <path class="cls-2" d="M419.56366,301.62558h0Zm0,0c-.42929.1178-.85751.23978-1.28806.35278a51.75172,51.75172,0,0,1-9.25283,1.15006q-.97458.063-1.94928.06293a30.21891,30.21891,0,0,1-7.27234-.88813,16.80908,16.80908,0,0,0,.94208,4.07056,3.06332,3.06332,0,0,1,1.64514-.42392c.81155.00006,1.63385.20865,2.4436.21976q1.564.066,3.12778.06595a74.19892,74.19892,0,0,0,11.029-.82432,18.06163,18.06163,0,0,0,.57489-3.78567Z" transform="translate(-274.16234 -162.76413)"/>
    <path class="cls-2" d="M419.01141,308.79016h0m-.52984-3.95206a3.02641,3.02641,0,0,0-.5994.108,34.05093,34.05093,0,0,1-7.27493.78616q-.8595,0-1.71964-.04343c-.356-.01489-.71212-.0198-1.06854-.0198-.69781,0-1.39612.01886-2.09421.01886a14.963,14.963,0,0,1-3.36621-.30481,3.34445,3.34445,0,0,0-.72244-.10193c-.50256,0-.929.22027-.893,1.0925l.45182,1.62155a3.28755,3.28755,0,0,0,2.14761.79834l.02008-.00006c2.182.02484,4.36636.13321,6.54822.13321a35.1135,35.1135,0,0,0,6.52078-.51548,3.03456,3.03456,0,0,0,2.2161-1.02944,4.71065,4.71065,0,0,0,.34091-1.97068c-.0715-.44958-.25479-.573-.50714-.573Z" transform="translate(-274.16234 -162.76413)"/>
    <path class="cls-2" d="M403.75739,330.51846a9.65813,9.65813,0,0,0-1.07288,2.5976c-.72434,2.54629.11066,3.91693,2.67841,4.53967a17.65407,17.65407,0,0,0,3.26422.30438q.78273,0,1.56479-.06949a6.73205,6.73205,0,0,1-.62571-4.23486c.20343-1.14416-.06161-1.28628-1.15527-1.48691-1.60135-.2937-3.48468-.05755-4.65356-1.65039Z" transform="translate(-274.16234 -162.76413)"/>
    <path class="cls-2" d="M418.6478,307.38177a23.02171,23.02171,0,0,1-6.07666.9719q-.35184-.00375-.70365-.00357c-1.61276,0-3.2272.05139-4.84024.05139a34.4664,34.4664,0,0,1-5.83224-.40625,12.56567,12.56567,0,0,0,1.24414,3.06406,1.00126,1.00126,0,0,1,.85141-.36017c.21338,0,.43222.029.64267.029q.0351,0,.06994-.00116.441-.0152.88135-.0145c1.779,0,3.55283.15967,5.33923.15967.63886,0,1.27964-.02044,1.92243-.0759,2.03921-.176,4.01929-.74673,6.06943-.74673l.03744.00006a8.51048,8.51048,0,0,0,.39475-2.66782Z" transform="translate(-274.16234 -162.76413)"/>
    <path class="cls-2" d="M412.18588,184.56985c-1.5665,1.06618-2.75949,2.83794-4.558,2.907-1.50882.05789-3.06421.24759-4.58371.24759a7.94906,7.94906,0,0,1-6.666-2.76325c1.49341,3.03813,5.54023,4.77939,9.50614,4.77939a10.57879,10.57879,0,0,0,6.58713-2.06082,6.95753,6.95753,0,0,0-.28556-3.10987Z" transform="translate(-274.16234 -162.76413)"/>
    <path class="cls-2" d="M431.70862,334.31366c2.18686,2.5137,2.25781,3.06931.6766,5.29691a11.81809,11.81809,0,0,0,4.642-.40955c.81354-.22281,1.98212-.36475,1.99317-1.46536.00933-.93659-.98-1.27042-1.77482-1.548-1.83938-.64255-3.69055-1.25143-5.53692-1.874Z" transform="translate(-274.16234 -162.76413)"/>
    <path class="cls-2" d="M393.16266,237.07881c-.77921,2.11823-.9921,4.07054,1.20343,5.51833a6.12372,6.12372,0,0,1,.92346.94165c.95728-1.56069.76068-3.44837,1.4437-5.08679l-3.57059-1.37319Z" transform="translate(-274.16234 -162.76413)"/>
    <path class="cls-2" d="M427.97345,221.55763c-.61435,1.17128-1.172,2.37715-1.85962,3.50377-.64609,1.0585-.27792,1.61293.62448,2.29088,1.09412.822,2.58591.63528,3.57291,1.60535,1.08035-.028,1.14874-.41295.44647-1.15854a10.70189,10.70189,0,0,1-2.78424-6.24146Z" transform="translate(-274.16234 -162.76413)"/>
    <path class="cls-2" d="M398.71729,191.74727q-.16846.15264-.33719.30522a36.80029,36.80029,0,0,0,8.46289,2.44507,5.68324,5.68324,0,0,0,5.34631-1.83965,8.8116,8.8116,0,0,1-7.75821.82759c-1.86606-.68437-3.80658-1.166-5.7138-1.73823Zm13.472.91064h0Z" transform="translate(-274.16234 -162.76413)"/>
    <path class="cls-2" d="M398.377,193.7395a1.05726,1.05726,0,0,1,.0105.27078q1.868.40286,3.73578.80545c-1.0708-.97761-2.44949-.88455-3.74628-1.07623Z" transform="translate(-274.16234 -162.76413)"/>
    <path class="cls-2" d="M416.08978,194.098a12.49809,12.49809,0,0,0-6.27026,1.68693c.59268-.12337,1.19076-.22543,1.777-.374a20.18882,20.18882,0,0,1,4.91983-1.0144,6.774,6.774,0,0,1,.7633.04237c.01129-.09774.03421-.28076.0336-.28085q-.61212-.06022-1.22348-.06Z" transform="translate(-274.16234 -162.76413)"/>
  </g>
</svg>
