<svg id="Layer_1" data-name="Layer 1" xmlns="http://www.w3.org/2000/svg" viewBox="0 0 398.86305 805.10652"><defs><style>.cls-1{fill:#c4aaff;}.cls-2{fill:#1e1f00;}.cls-3{fill:#333;}.cls-4{fill:#323232;}.cls-5{fill:#343434;}</style></defs><path class="cls-1" d="M1960.90057,1328.20984q-22.42511.02985-44.84008-.02c-3.40992-.01-6.24,1.08-6.19,4.83.04,3.73,2.85,4.78,6.27,4.74,7.30994-.08,14.61988-.02991,21.91993-.02991,7.64,0,15.28-.04,22.92.0199,3.26.03,5.77991-1.11,5.9-4.56995C1967.02045,1329.34973,1964.34052,1328.19983,1960.90057,1328.20984Zm-.5,6.76c-7.47.02991-14.94006.0199-22.41.0199v.01c-7.30005,0-14.61.02-21.91-.01-1.46,0-3.37.20007-3.48-1.85-.13-2.39,1.87-2.30005,3.55005-2.30005q22.155.00018,44.32-.01c1.66.01,3.75-.15991,3.73,2.15015C1964.17059,1335.33972,1961.99054,1334.96985,1960.40057,1334.96985Z" transform="translate(-1738.61844 -1307.90974)"/><path class="cls-1" d="M1981.65057,1325.59973a1.76539,1.76539,0,0,0-.23.01,7.30756,7.30756,0,0,0-7,7.51,7.46272,7.46272,0,0,0,7.66956,7.25h.14038a7.55524,7.55524,0,0,0,7.05994-7.57,7.41414,7.41414,0,0,0-7.62183-7.20056Zm.17994,12.14c-3.18995-.00989-4.87-2.07-4.72-5.15a4.42179,4.42179,0,0,1,4.36-4.48,2.88307,2.88307,0,0,1,.59.03c2.78.15,4.42,2,4.57006,5C1986.31049,1335.95984,1984.72052,1337.74976,1981.83051,1337.73975Z" transform="translate(-1738.61844 -1307.90974)"/><path class="cls-1" d="M2117.80048,1711.77979q0-172.19971-.01-344.41c0-2.33.02-4.65991-.07984-6.99-1-21.57007-17.18017-37.29-38.81006-37.58-11.16-.15-22.33007-.06994-33.49-.02-6.41015.0299-8.15014,1.9-8.14013,8.43.02,9-5.12989,15.8999-13.79993,18.58-3.89,1.2-7.87,1.26-11.88,1.26q-73.47-.015-146.95-.02a56.74157,56.74157,0,0,1-7.48-.32c-11.51-1.57007-17.83007-8.77-17.8601-20.15015-.01-5.33984-2.14991-7.72-7.46-7.75989-11.65992-.06994-23.33008-.21008-34.99.09-22.66.59009-38.24,16.76-38.24,39.35q0,347.655-.23,695.31018c-.04,21.34985,16.40992,40.78979,40.40992,40.73q139.20008-.33033,278.4.02978c21.01.06006,41.00989-15.18994,40.87-41.12988C2117.45038,1942.04993,2117.80048,1826.90979,2117.80048,1711.77979Zm-2.5,347.89c0,20.32007-15.54,35.8999-36.09,35.92993q-75.46491.09009-150.93.02H1798.83051c-22.39991,0-37.67994-15.22-37.67994-37.55q-.01482-173.93994-.01-347.86987c.01-115.46008.27-230.92-.21-346.37012-.10009-24.33,17.82984-38.96,38.86988-38.54992,10.33007.20007,20.66.11,30.99-.01,4.15-.04993,5.98,1.34,5.92,5.82995-.13,11.46,6.69006,19.54,18,21.72a45.09751,45.09751,0,0,0,8.43.82007q75.22467.07489,150.43995.03a35.18637,35.18637,0,0,0,11.78-1.88c9.14991-3.2301,14.39991-10.35,14.2-20.05993-.09-4.8,1.66-6.57007,6.4-6.4801,10.66.19006,21.31995.02,31.98.05993,21.75.1001,37.36,15.83008,37.36,37.62012Z" transform="translate(-1738.61844 -1307.90974)"/><path class="cls-1" d="M2128.56049,1364.08972c0-29.69995-21.77-51.30993-51.46-51.30993q-138.93-.015-277.9,0c-30.31995,0-51.03992,20.77-51.04993,51.16v177.93994c.02,21.65.16993,43.30005.26,64.94995v.93006c-.09008,1.31994-.25,2.64-.25,3.96008q-.015,223.43994,0,446.86987c.01,28.26,21.18994,49.53,49.67994,49.56006q35.52007.04468,71.06005.05,105.16481.06006,210.34-.06006c28.55994-.03,49.32-21.14014,49.33-49.76q.015-251.59515,0-503.17993Q2128.58551,1459.64972,2128.56049,1364.08972Zm-2.39991,694.27c0,20.86011-12.1101,38.23-31.17,44.82007a49.15706,49.15706,0,0,1-16.19006,2.55q-140.20515-.24024-280.40992.07983c-21.53.06006-45.17-14.61987-47.96-44.08984.04993-2.99.15992-5.99.15992-8.98q.0152-221.66986.01-443.32007v-4.08008q.0002-120.26989-.01-240.52c0-1.65991-.11-3.31994-.16993-4.98,3.23-28.30993,21.67993-44.69995,50.29993-44.69995h274.4c30.79,0,51.05005,20.23,51.05005,50.91992Q2126.18561,1712.21472,2126.16058,2058.35974Z" transform="translate(-1738.61844 -1307.90974)"/><path class="cls-2" d="M1960.90057,1328.20984q-22.42511.02985-44.84008-.02c-3.40992-.01-6.24,1.08-6.19,4.83.04,3.73,2.85,4.78,6.27,4.74,7.30994-.08,14.61988-.02991,21.91993-.02991,7.64,0,15.28-.04,22.92.0199,3.26.03,5.77991-1.11,5.9-4.56995C1967.02045,1329.34973,1964.34052,1328.19983,1960.90057,1328.20984Zm-.5,6.76c-7.47.02991-14.94006.0199-22.41.0199v.01c-7.30005,0-14.61.02-21.91-.01-1.46,0-3.37.20007-3.48-1.85-.13-2.39,1.87-2.30005,3.55005-2.30005q22.155.00018,44.32-.01c1.66.01,3.75-.15991,3.73,2.15015C1964.17059,1335.33972,1961.99054,1334.96985,1960.40057,1334.96985Z" transform="translate(-1738.61844 -1307.90974)"/><path class="cls-2" d="M1981.65057,1325.59973a1.76539,1.76539,0,0,0-.23.01,7.30756,7.30756,0,0,0-7,7.51,7.46272,7.46272,0,0,0,7.66956,7.25h.14038a7.55524,7.55524,0,0,0,7.05994-7.57,7.41414,7.41414,0,0,0-7.62183-7.20056Zm.17994,12.14c-3.18995-.00989-4.87-2.07-4.72-5.15a4.42179,4.42179,0,0,1,4.36-4.48,2.88307,2.88307,0,0,1,.59.03c2.78.15,4.42,2,4.57006,5C1986.31049,1335.95984,1984.72052,1337.74976,1981.83051,1337.73975Z" transform="translate(-1738.61844 -1307.90974)"/><path class="cls-2" d="M2117.80048,1711.77979q0-172.19971-.01-344.41c0-2.33.02-4.65991-.07984-6.99-1-21.57007-17.18017-37.29-38.81006-37.58-11.16-.15-22.33007-.06994-33.49-.02-6.41015.0299-8.15014,1.9-8.14013,8.43.02,9-5.12989,15.8999-13.79993,18.58-3.89,1.2-7.87,1.26-11.88,1.26q-73.47-.015-146.95-.02a56.74157,56.74157,0,0,1-7.48-.32c-11.51-1.57007-17.83007-8.77-17.8601-20.15015-.01-5.33984-2.14991-7.72-7.46-7.75989-11.65992-.06994-23.33008-.21008-34.99.09-22.66.59009-38.24,16.76-38.24,39.35q0,347.655-.23,695.31018c-.04,21.34985,16.40992,40.78979,40.40992,40.73q139.20008-.33033,278.4.02978c21.01.06006,41.00989-15.18994,40.87-41.12988C2117.45038,1942.04993,2117.80048,1826.90979,2117.80048,1711.77979Zm-2.5,347.89c0,20.32007-15.54,35.8999-36.09,35.92993q-75.46491.09009-150.93.02H1798.83051c-22.39991,0-37.67994-15.22-37.67994-37.55q-.01482-173.93994-.01-347.86987c.01-115.46008.27-230.92-.21-346.37012-.10009-24.33,17.82984-38.96,38.86988-38.54992,10.33007.20007,20.66.11,30.99-.01,4.15-.04993,5.98,1.34,5.92,5.82995-.13,11.46,6.69006,19.54,18,21.72a45.09751,45.09751,0,0,0,8.43.82007q75.22467.07489,150.43995.03a35.18637,35.18637,0,0,0,11.78-1.88c9.14991-3.2301,14.39991-10.35,14.2-20.05993-.09-4.8,1.66-6.57007,6.4-6.4801,10.66.19006,21.31995.02,31.98.05993,21.75.1001,37.36,15.83008,37.36,37.62012Z" transform="translate(-1738.61844 -1307.90974)"/><path class="cls-2" d="M2128.56049,1364.08972c0-29.69995-21.77-51.30993-51.46-51.30993q-138.93-.015-277.9,0c-30.31995,0-51.03992,20.77-51.04993,51.16v177.93994c.02,21.65.16993,43.30005.26,64.94995v.93006c-.09008,1.31994-.25,2.64-.25,3.96008q-.015,223.43994,0,446.86987c.01,28.26,21.18994,49.53,49.67994,49.56006q35.52007.04468,71.06005.05,105.18.045,210.34-.06006c28.55994-.03,49.32-21.14014,49.33-49.76q.015-251.59515,0-503.17993Q2128.58551,1459.64972,2128.56049,1364.08972Zm-2.39991,694.27c0,20.86011-12.1101,38.23-31.17,44.82007a49.15706,49.15706,0,0,1-16.19006,2.55q-140.20515-.01466-280.40992.07983c-21.53.06006-45.17-14.61987-47.96-44.08984.04993-2.99.15992-5.99.15992-8.98q.0152-221.66986.01-443.32007v-4.08008q.0002-120.26989-.01-240.52c0-1.65991-.11-3.31994-.16993-4.98,3.23-28.30993,21.67993-44.69995,50.29993-44.69995h274.4c30.79,0,51.05005,20.23,51.05005,50.91992Q2126.18561,1712.21472,2126.16058,2058.35974Zm2.39991-694.27c0-29.69995-21.77-51.30993-51.46-51.30993q-138.93-.015-277.9,0c-30.31995,0-51.03992,20.77-51.04993,51.16v177.93994c.02,21.65.16993,43.30005.26,64.94995v.93006c-.09008,1.31994-.25,2.64-.25,3.96008q-.015,223.43994,0,446.86987c.01,28.26,21.18994,49.53,49.67994,49.56006q35.52007.04468,71.06005.05,105.18.045,210.34-.06006c28.55994-.03,49.32-21.14014,49.33-49.76q.015-251.59515,0-503.17993Q2128.58551,1459.64972,2128.56049,1364.08972Zm-2.39991,694.27c0,20.86011-12.1101,38.23-31.17,44.82007a49.15706,49.15706,0,0,1-16.19006,2.55q-140.20515-.01466-280.40992.07983c-21.53.06006-45.17-14.61987-47.96-44.08984.04993-2.99.15992-5.99.15992-8.98q.0152-221.66986.01-443.32007v-4.08008q.0002-120.26989-.01-240.52c0-1.65991-.11-3.31994-.16993-4.98,3.23-28.30993,21.67993-44.69995,50.29993-44.69995h274.4c30.79,0,51.05005,20.23,51.05005,50.91992Q2126.18561,1712.21472,2126.16058,2058.35974Zm2.39991-694.27c0-29.69995-21.77-51.30993-51.46-51.30993q-138.93-.015-277.9,0c-30.31995,0-51.03992,20.77-51.04993,51.16v177.93994c.02,21.65.16993,43.30005.26,64.94995v.93006c-.09008,1.31994-.25,2.64-.25,3.96008q-.015,223.43994,0,446.86987c.01,28.26,21.18994,49.53,49.67994,49.56006q35.52007.04468,71.06005.05,105.18.045,210.34-.06006c28.55994-.03,49.32-21.14014,49.33-49.76q.015-251.59515,0-503.17993Q2128.58551,1459.64972,2128.56049,1364.08972Zm-2.39991,694.27c0,20.86011-12.1101,38.23-31.17,44.82007a49.15706,49.15706,0,0,1-16.19006,2.55q-140.20515-.01466-280.40992.07983c-21.53.06006-45.17-14.61987-47.96-44.08984.04993-2.99.15992-5.99.15992-8.98q.0152-221.66986.01-443.32007v-4.08008q.0002-120.26989-.01-240.52c0-1.65991-.11-3.31994-.16993-4.98,3.23-28.30993,21.67993-44.69995,50.29993-44.69995h274.4c30.79,0,51.05005,20.23,51.05005,50.91992Q2126.18561,1712.21472,2126.16058,2058.35974Zm2.39991-694.27c0-29.69995-21.77-51.30993-51.46-51.30993q-138.93-.015-277.9,0c-30.31995,0-51.03992,20.77-51.04993,51.16v177.93994c.02,21.65.16993,43.30005.26,64.94995v.93006c-.09008,1.31994-.25,2.64-.25,3.96008q-.015,223.43994,0,446.86987c.01,28.26,21.18994,49.53,49.67994,49.56006q35.52007.04468,71.06005.05,105.18.045,210.34-.06006c28.55994-.03,49.32-21.14014,49.33-49.76q.015-251.59515,0-503.17993Q2128.58551,1459.64972,2128.56049,1364.08972Zm-2.39991,694.27c0,20.86011-12.1101,38.23-31.17,44.82007a49.15706,49.15706,0,0,1-16.19006,2.55q-140.20515-.01466-280.40992.07983c-21.53.06006-45.17-14.61987-47.96-44.08984.04993-2.99.15992-5.99.15992-8.98q.0152-221.66986.01-443.32007v-4.08008q.0002-120.26989-.01-240.52c0-1.65991-.11-3.31994-.16993-4.98,3.23-28.30993,21.67993-44.69995,50.29993-44.69995h274.4c30.79,0,51.05005,20.23,51.05005,50.91992Q2126.18561,1712.21472,2126.16058,2058.35974Zm2.39991-694.27c0-29.69995-21.77-51.30993-51.46-51.30993q-138.93-.015-277.9,0c-30.31995,0-51.03992,20.77-51.04993,51.16v177.93994c.02,21.65.16993,43.30005.26,64.94995v.93006c-.09008,1.31994-.25,2.64-.25,3.96008q-.015,223.43994,0,446.86987c.01,28.26,21.18994,49.53,49.67994,49.56006q35.52007.04468,71.06005.05,105.18.045,210.34-.06006c28.55994-.03,49.32-21.14014,49.33-49.76q.015-251.59515,0-503.17993Q2128.58551,1459.64972,2128.56049,1364.08972Zm-2.39991,694.27c0,20.86011-12.1101,38.23-31.17,44.82007a49.15706,49.15706,0,0,1-16.19006,2.55q-140.20515-.01466-280.40992.07983c-21.53.06006-45.17-14.61987-47.96-44.08984.04993-2.99.15992-5.99.15992-8.98q.0152-221.66986.01-443.32007v-4.08008q.0002-120.26989-.01-240.52c0-1.65991-.11-3.31994-.16993-4.98,3.23-28.30993,21.67993-44.69995,50.29993-44.69995h274.4c30.79,0,51.05005,20.23,51.05005,50.91992Q2126.18561,1712.21472,2126.16058,2058.35974Zm2.39991-694.27c0-29.69995-21.77-51.30993-51.46-51.30993q-138.93-.015-277.9,0c-30.31995,0-51.03992,20.77-51.04993,51.16v177.93994c.02,21.65.16993,43.30005.26,64.94995v.93006c-.09008,1.31994-.25,2.64-.25,3.96008q-.015,223.43994,0,446.86987c.01,28.26,21.18994,49.53,49.67994,49.56006q35.52007.04468,71.06005.05,105.18.045,210.34-.06006c28.55994-.03,49.32-21.14014,49.33-49.76q.015-251.59515,0-503.17993Q2128.58551,1459.64972,2128.56049,1364.08972Zm-2.39991,694.27c0,20.86011-12.1101,38.23-31.17,44.82007a49.15706,49.15706,0,0,1-16.19006,2.55q-140.20515-.01466-280.40992.07983c-21.53.06006-45.17-14.61987-47.96-44.08984.04993-2.99.15992-5.99.15992-8.98q.0152-221.66986.01-443.32007v-4.08008q.0002-120.26989-.01-240.52c0-1.65991-.11-3.31994-.16993-4.98,3.23-28.30993,21.67993-44.69995,50.29993-44.69995h274.4c30.79,0,51.05005,20.23,51.05005,50.91992Q2126.18561,1712.21472,2126.16058,2058.35974Zm2.39991-694.27c0-29.69995-21.77-51.30993-51.46-51.30993q-138.93-.015-277.9,0c-30.31995,0-51.03992,20.77-51.04993,51.16v177.93994c.02,21.65.16993,43.30005.26,64.94995v.93006c-.09008,1.31994-.25,2.64-.25,3.96008q-.015,223.43994,0,446.86987c.01,28.26,21.18994,49.53,49.67994,49.56006q35.52007.04468,71.06005.05,105.18.045,210.34-.06006c28.55994-.03,49.32-21.14014,49.33-49.76q.015-251.59515,0-503.17993Q2128.58551,1459.64972,2128.56049,1364.08972Zm-2.39991,694.27c0,20.86011-12.1101,38.23-31.17,44.82007a49.15706,49.15706,0,0,1-16.19006,2.55q-140.20515-.01466-280.40992.07983c-21.53.06006-45.17-14.61987-47.96-44.08984.04993-2.99.15992-5.99.15992-8.98q.0152-221.66986.01-443.32007v-4.08008q.0002-120.26989-.01-240.52c0-1.65991-.11-3.31994-.16993-4.98,3.23-28.30993,21.67993-44.69995,50.29993-44.69995h274.4c30.79,0,51.05005,20.23,51.05005,50.91992Q2126.18561,1712.21472,2126.16058,2058.35974Zm2.39991-694.27c0-29.69995-21.77-51.30993-51.46-51.30993q-138.93-.015-277.9,0c-30.31995,0-51.03992,20.77-51.04993,51.16v177.93994c.02,21.65.16993,43.30005.26,64.94995v.93006c-.09008,1.31994-.25,2.64-.25,3.96008q-.015,223.43994,0,446.86987c.01,28.26,21.18994,49.53,49.67994,49.56006q35.52007.04468,71.06005.05,105.18.045,210.34-.06006c28.55994-.03,49.32-21.14014,49.33-49.76q.015-251.59515,0-503.17993Q2128.58551,1459.64972,2128.56049,1364.08972Zm-2.39991,694.27c0,20.86011-12.1101,38.23-31.17,44.82007a49.15706,49.15706,0,0,1-16.19006,2.55q-140.20515-.01466-280.40992.07983c-21.53.06006-45.17-14.61987-47.96-44.08984.04993-2.99.15992-5.99.15992-8.98q.0152-221.66986.01-443.32007v-4.08008q.0002-120.26989-.01-240.52c0-1.65991-.11-3.31994-.16993-4.98,3.23-28.30993,21.67993-44.69995,50.29993-44.69995h274.4c30.79,0,51.05005,20.23,51.05005,50.91992Q2126.18561,1712.21472,2126.16058,2058.35974Zm2.39991-694.27c0-29.69995-21.77-51.30993-51.46-51.30993q-138.93-.015-277.9,0c-30.31995,0-51.03992,20.77-51.04993,51.16v177.93994c.02,21.65.16993,43.30005.26,64.94995v.93006c-.09008,1.31994-.25,2.64-.25,3.96008q-.015,223.43994,0,446.86987c.01,28.26,21.18994,49.53,49.67994,49.56006q35.52007.04468,71.06005.05,105.18.045,210.34-.06006c28.55994-.03,49.32-21.14014,49.33-49.76q.015-251.59515,0-503.17993Q2128.58551,1459.64972,2128.56049,1364.08972Zm-2.39991,694.27c0,20.86011-12.1101,38.23-31.17,44.82007a49.15706,49.15706,0,0,1-16.19006,2.55q-140.20515-.01466-280.40992.07983c-21.53.06006-45.17-14.61987-47.96-44.08984.04993-2.99.15992-5.99.15992-8.98q.0152-221.66986.01-443.32007v-4.08008q.0002-120.26989-.01-240.52c0-1.65991-.11-3.31994-.16993-4.98,3.23-28.30993,21.67993-44.69995,50.29993-44.69995h274.4c30.79,0,51.05005,20.23,51.05005,50.91992Q2126.18561,1712.21472,2126.16058,2058.35974Zm2.39991-694.27c0-29.69995-21.77-51.30993-51.46-51.30993q-138.93-.015-277.9,0c-30.31995,0-51.03992,20.77-51.04993,51.16v177.93994c.02,21.65.16993,43.30005.26,64.94995v.93006c-.09008,1.31994-.25,2.64-.25,3.96008q-.015,223.43994,0,446.86987c.01,28.26,21.18994,49.53,49.67994,49.56006q35.52007.04468,71.06005.05,105.18.045,210.34-.06006c28.55994-.03,49.32-21.14014,49.33-49.76q.015-251.59515,0-503.17993Q2128.58551,1459.64972,2128.56049,1364.08972Zm-2.39991,694.27c0,20.86011-12.1101,38.23-31.17,44.82007a49.15706,49.15706,0,0,1-16.19006,2.55q-140.20515-.01466-280.40992.07983c-21.53.06006-45.17-14.61987-47.96-44.08984.04993-2.99.15992-5.99.15992-8.98q.0152-221.66986.01-443.32007v-4.08008q.0002-120.26989-.01-240.52c0-1.65991-.11-3.31994-.16993-4.98,3.23-28.30993,21.67993-44.69995,50.29993-44.69995h274.4c30.79,0,51.05005,20.23,51.05005,50.91992Q2126.18561,1712.21472,2126.16058,2058.35974Zm2.39991-694.27c0-29.69995-21.77-51.30993-51.46-51.30993q-138.93-.015-277.9,0c-30.31995,0-51.03992,20.77-51.04993,51.16v177.93994c.02,21.65.16993,43.30005.26,64.94995v.93006c-.09008,1.31994-.25,2.64-.25,3.96008q-.015,223.43994,0,446.86987c.01,28.26,21.18994,49.53,49.67994,49.56006q35.52007.04468,71.06005.05,105.18.045,210.34-.06006c28.55994-.03,49.32-21.14014,49.33-49.76q.015-251.59515,0-503.17993Q2128.58551,1459.64972,2128.56049,1364.08972Zm-2.39991,694.27c0,20.86011-12.1101,38.23-31.17,44.82007a49.15706,49.15706,0,0,1-16.19006,2.55q-140.20515-.01466-280.40992.07983c-21.53.06006-45.17-14.61987-47.96-44.08984.04993-2.99.15992-5.99.15992-8.98q.0152-221.66986.01-443.32007v-4.08008q.0002-120.26989-.01-240.52c0-1.65991-.11-3.31994-.16993-4.98,3.23-28.30993,21.67993-44.69995,50.29993-44.69995h274.4c30.79,0,51.05005,20.23,51.05005,50.91992Q2126.18561,1712.21472,2126.16058,2058.35974Zm2.39991-694.27c0-29.69995-21.77-51.30993-51.46-51.30993q-138.93-.015-277.9,0c-30.31995,0-51.03992,20.77-51.04993,51.16v177.93994c.02,21.65.16993,43.30005.26,64.94995v.93006c-.09008,1.31994-.25,2.64-.25,3.96008q-.015,223.43994,0,446.86987c.01,28.26,21.18994,49.53,49.67994,49.56006q35.52007.04468,71.06005.05,105.18.045,210.34-.06006c28.55994-.03,49.32-21.14014,49.33-49.76q.015-251.59515,0-503.17993Q2128.58551,1459.64972,2128.56049,1364.08972Zm-2.39991,694.27c0,20.86011-12.1101,38.23-31.17,44.82007a49.15706,49.15706,0,0,1-16.19006,2.55q-140.20515-.01466-280.40992.07983c-21.53.06006-45.17-14.61987-47.96-44.08984.04993-2.99.15992-5.99.15992-8.98q.0152-221.66986.01-443.32007v-4.08008q.0002-120.26989-.01-240.52c0-1.65991-.11-3.31994-.16993-4.98,3.23-28.30993,21.67993-44.69995,50.29993-44.69995h274.4c30.79,0,51.05005,20.23,51.05005,50.91992Q2126.18561,1712.21472,2126.16058,2058.35974Zm2.39991-694.27c0-29.69995-21.77-51.30993-51.46-51.30993q-138.93-.015-277.9,0c-30.31995,0-51.03992,20.77-51.04993,51.16v177.93994c.02,21.65.16993,43.30005.26,64.94995v.93006c-.09008,1.31994-.25,2.64-.25,3.96008q-.015,223.43994,0,446.86987c.01,28.26,21.18994,49.53,49.67994,49.56006q35.52007.04468,71.06005.05,105.18.045,210.34-.06006c28.55994-.03,49.32-21.14014,49.33-49.76q.015-251.59515,0-503.17993Q2128.58551,1459.64972,2128.56049,1364.08972Zm-2.39991,694.27c0,20.86011-12.1101,38.23-31.17,44.82007a49.15706,49.15706,0,0,1-16.19006,2.55q-140.20515-.01466-280.40992.07983c-21.53.06006-45.17-14.61987-47.96-44.08984.04993-2.99.15992-5.99.15992-8.98q.0152-221.66986.01-443.32007v-4.08008q.0002-120.26989-.01-240.52c0-1.65991-.11-3.31994-.16993-4.98,3.23-28.30993,21.67993-44.69995,50.29993-44.69995h274.4c30.79,0,51.05005,20.23,51.05005,50.91992Q2126.18561,1712.21472,2126.16058,2058.35974Zm2.39991-694.27c0-29.69995-21.77-51.30993-51.46-51.30993q-138.93-.015-277.9,0c-30.31995,0-51.03992,20.77-51.04993,51.16v177.93994c.02,21.65.16993,43.30005.26,64.94995v.93006c-.09008,1.31994-.25,2.64-.25,3.96008q-.015,223.43994,0,446.86987c.01,28.26,21.18994,49.53,49.67994,49.56006q35.52007.04468,71.06005.05,105.18.045,210.34-.06006c28.55994-.03,49.32-21.14014,49.33-49.76q.015-251.59515,0-503.17993Q2128.58551,1459.64972,2128.56049,1364.08972Zm-2.39991,694.27c0,20.86011-12.1101,38.23-31.17,44.82007a49.15706,49.15706,0,0,1-16.19006,2.55q-140.20515-.01466-280.40992.07983c-21.53.06006-45.17-14.61987-47.96-44.08984.04993-2.99.15992-5.99.15992-8.98q.0152-221.66986.01-443.32007v-4.08008q.0002-120.26989-.01-240.52c0-1.65991-.11-3.31994-.16993-4.98,3.23-28.30993,21.67993-44.69995,50.29993-44.69995h274.4c30.79,0,51.05005,20.23,51.05005,50.91992Q2126.18561,1712.21472,2126.16058,2058.35974Zm2.39991-694.27c0-29.69995-21.77-51.30993-51.46-51.30993q-138.93-.015-277.9,0c-30.31995,0-51.03992,20.77-51.04993,51.16v177.93994c.02,21.65.16993,43.30005.26,64.94995v.93006c-.09008,1.31994-.25,2.64-.25,3.96008q-.015,223.43994,0,446.86987c.01,28.26,21.18994,49.53,49.67994,49.56006q35.52007.04468,71.06005.05,105.18.045,210.34-.06006c28.55994-.03,49.32-21.14014,49.33-49.76q.015-251.59515,0-503.17993Q2128.58551,1459.64972,2128.56049,1364.08972Zm-2.39991,694.27c0,20.86011-12.1101,38.23-31.17,44.82007a49.15706,49.15706,0,0,1-16.19006,2.55q-140.20515-.01466-280.40992.07983c-21.53.06006-45.17-14.61987-47.96-44.08984.04993-2.99.15992-5.99.15992-8.98q.0152-221.66986.01-443.32007v-4.08008q.0002-120.26989-.01-240.52c0-1.65991-.11-3.31994-.16993-4.98,3.23-28.30993,21.67993-44.69995,50.29993-44.69995h274.4c30.79,0,51.05005,20.23,51.05005,50.91992Q2126.18561,1712.21472,2126.16058,2058.35974Zm2.39991-694.27c0-29.69995-21.77-51.30993-51.46-51.30993q-138.93-.015-277.9,0c-30.31995,0-51.03992,20.77-51.04993,51.16v177.93994c.02,21.65.16993,43.30005.26,64.94995v.93006c-.09008,1.31994-.25,2.64-.25,3.96008q-.015,223.43994,0,446.86987c.01,28.26,21.18994,49.53,49.67994,49.56006q35.52007.04468,71.06005.05,105.18.045,210.34-.06006c28.55994-.03,49.32-21.14014,49.33-49.76q.015-251.59515,0-503.17993Q2128.58551,1459.64972,2128.56049,1364.08972Zm-2.39991,694.27c0,20.86011-12.1101,38.23-31.17,44.82007a49.15706,49.15706,0,0,1-16.19006,2.55q-140.20515-.01466-280.40992.07983c-21.53.06006-45.17-14.61987-47.96-44.08984.04993-2.99.15992-5.99.15992-8.98q.0152-221.66986.01-443.32007v-4.08008q.0002-120.26989-.01-240.52c0-1.65991-.11-3.31994-.16993-4.98,3.23-28.30993,21.67993-44.69995,50.29993-44.69995h274.4c30.79,0,51.05005,20.23,51.05005,50.91992Q2126.18561,1712.21472,2126.16058,2058.35974Zm2.39991-694.27c0-29.69995-21.77-51.30993-51.46-51.30993q-138.93-.015-277.9,0c-30.31995,0-51.03992,20.77-51.04993,51.16v177.93994c.02,21.65.16993,43.30005.26,64.94995v.93006c-.09008,1.31994-.25,2.64-.25,3.96008q-.015,223.43994,0,446.86987c.01,28.26,21.18994,49.53,49.67994,49.56006q35.52007.04468,71.06005.05,105.18.045,210.34-.06006c28.55994-.03,49.32-21.14014,49.33-49.76q.015-251.59515,0-503.17993Q2128.58551,1459.64972,2128.56049,1364.08972Zm-2.39991,694.27c0,20.86011-12.1101,38.23-31.17,44.82007a49.15706,49.15706,0,0,1-16.19006,2.55q-140.20515-.01466-280.40992.07983c-21.53.06006-45.17-14.61987-47.96-44.08984.04993-2.99.15992-5.99.15992-8.98q.0152-221.66986.01-443.32007v-4.08008q.0002-120.26989-.01-240.52c0-1.65991-.11-3.31994-.16993-4.98,3.23-28.30993,21.67993-44.69995,50.29993-44.69995h274.4c30.79,0,51.05005,20.23,51.05005,50.91992Q2126.18561,1712.21472,2126.16058,2058.35974Zm2.39991-694.27c0-29.69995-21.77-51.30993-51.46-51.30993q-138.93-.015-277.9,0c-30.31995,0-51.03992,20.77-51.04993,51.16v177.93994c.02,21.65.16993,43.30005.26,64.94995v.93006c-.09008,1.31994-.25,2.64-.25,3.96008q-.015,223.43994,0,446.86987c.01,28.26,21.18994,49.53,49.67994,49.56006q35.52007.04468,71.06005.05,105.18.045,210.34-.06006c28.55994-.03,49.32-21.14014,49.33-49.76q.015-251.59515,0-503.17993Q2128.58551,1459.64972,2128.56049,1364.08972Zm-2.39991,694.27c0,20.86011-12.1101,38.23-31.17,44.82007a49.15706,49.15706,0,0,1-16.19006,2.55q-140.20515-.01466-280.40992.07983c-21.53.06006-45.17-14.61987-47.96-44.08984.04993-2.99.15992-5.99.15992-8.98q.0152-221.66986.01-443.32007v-4.08008q.0002-120.26989-.01-240.52c0-1.65991-.11-3.31994-.16993-4.98,3.23-28.30993,21.67993-44.69995,50.29993-44.69995h274.4c30.79,0,51.05005,20.23,51.05005,50.91992Q2126.18561,1712.21472,2126.16058,2058.35974Zm2.39991-694.27c0-29.69995-21.77-51.30993-51.46-51.30993q-138.93-.015-277.9,0c-30.31995,0-51.03992,20.77-51.04993,51.16v177.93994c.02,21.65.16993,43.30005.26,64.94995v.93006c-.09008,1.31994-.25,2.64-.25,3.96008q-.015,223.43994,0,446.86987c.01,28.26,21.18994,49.53,49.67994,49.56006q35.52007.04468,71.06005.05,105.18.045,210.34-.06006c28.55994-.03,49.32-21.14014,49.33-49.76q.015-251.59515,0-503.17993Q2128.58551,1459.64972,2128.56049,1364.08972Zm-2.39991,694.27c0,20.86011-12.1101,38.23-31.17,44.82007a49.15706,49.15706,0,0,1-16.19006,2.55q-140.20515-.01466-280.40992.07983c-21.53.06006-45.17-14.61987-47.96-44.08984.04993-2.99.15992-5.99.15992-8.98q.0152-221.66986.01-443.32007v-4.08008q.0002-120.26989-.01-240.52c0-1.65991-.11-3.31994-.16993-4.98,3.23-28.30993,21.67993-44.69995,50.29993-44.69995h274.4c30.79,0,51.05005,20.23,51.05005,50.91992Q2126.18561,1712.21472,2126.16058,2058.35974Zm2.39991-694.27c0-29.69995-21.77-51.30993-51.46-51.30993q-138.93-.015-277.9,0c-30.31995,0-51.03992,20.77-51.04993,51.16v177.93994c.02,21.65.16993,43.30005.26,64.94995v.93006c-.09008,1.31994-.25,2.64-.25,3.96008q-.015,223.43994,0,446.86987c.01,28.26,21.18994,49.53,49.67994,49.56006q35.52007.04468,71.06005.05,105.18.045,210.34-.06006c28.55994-.03,49.32-21.14014,49.33-49.76q.015-251.59515,0-503.17993Q2128.58551,1459.64972,2128.56049,1364.08972Zm-2.39991,694.27c0,20.86011-12.1101,38.23-31.17,44.82007a49.15706,49.15706,0,0,1-16.19006,2.55q-140.20515-.01466-280.40992.07983c-21.53.06006-45.17-14.61987-47.96-44.08984.04993-2.99.15992-5.99.15992-8.98q.0152-221.66986.01-443.32007v-4.08008q.0002-120.26989-.01-240.52c0-1.65991-.11-3.31994-.16993-4.98,3.23-28.30993,21.67993-44.69995,50.29993-44.69995h274.4c30.79,0,51.05005,20.23,51.05005,50.91992Q2126.18561,1712.21472,2126.16058,2058.35974Zm2.39991-694.27c0-29.69995-21.77-51.30993-51.46-51.30993q-138.93-.015-277.9,0c-30.31995,0-51.03992,20.77-51.04993,51.16v177.93994c.02,21.65.16993,43.30005.26,64.94995v.93006c-.09008,1.31994-.25,2.64-.25,3.96008q-.015,223.43994,0,446.86987c.01,28.26,21.18994,49.53,49.67994,49.56006q35.52007.04468,71.06005.05,105.18.045,210.34-.06006c28.55994-.03,49.32-21.14014,49.33-49.76q.015-251.59515,0-503.17993Q2128.58551,1459.64972,2128.56049,1364.08972Zm-2.39991,694.27c0,20.86011-12.1101,38.23-31.17,44.82007a49.15706,49.15706,0,0,1-16.19006,2.55q-140.20515-.01466-280.40992.07983c-21.53.06006-45.17-14.61987-47.96-44.08984.04993-2.99.15992-5.99.15992-8.98q.0152-221.66986.01-443.32007v-4.08008q.0002-120.26989-.01-240.52c0-1.65991-.11-3.31994-.16993-4.98,3.23-28.30993,21.67993-44.69995,50.29993-44.69995h274.4c30.79,0,51.05005,20.23,51.05005,50.91992Q2126.18561,1712.21472,2126.16058,2058.35974Zm2.39991-694.27c0-29.69995-21.77-51.30993-51.46-51.30993q-138.93-.015-277.9,0c-30.31995,0-51.03992,20.77-51.04993,51.16v177.93994c.02,21.65.16993,43.30005.26,64.94995v.93006c-.09008,1.31994-.25,2.64-.25,3.96008q-.015,223.43994,0,446.86987c.01,28.26,21.18994,49.53,49.67994,49.56006q35.52007.04468,71.06005.05,105.18.045,210.34-.06006c28.55994-.03,49.32-21.14014,49.33-49.76q.015-251.59515,0-503.17993Q2128.58551,1459.64972,2128.56049,1364.08972Zm-2.39991,694.27c0,20.86011-12.1101,38.23-31.17,44.82007a49.15706,49.15706,0,0,1-16.19006,2.55q-140.20515-.01466-280.40992.07983c-21.53.06006-45.17-14.61987-47.96-44.08984.04993-2.99.15992-5.99.15992-8.98q.0152-221.66986.01-443.32007v-4.08008q.0002-120.26989-.01-240.52c0-1.65991-.11-3.31994-.16993-4.98,3.23-28.30993,21.67993-44.69995,50.29993-44.69995h274.4c30.79,0,51.05005,20.23,51.05005,50.91992Q2126.18561,1712.21472,2126.16058,2058.35974Zm2.39991-694.27c0-29.69995-21.77-51.30993-51.46-51.30993q-138.93-.015-277.9,0c-30.31995,0-51.03992,20.77-51.04993,51.16v177.93994c.02,21.65.16993,43.30005.26,64.94995v.93006c-.09008,1.31994-.25,2.64-.25,3.96008q-.015,223.43994,0,446.86987c.01,28.26,21.18994,49.53,49.67994,49.56006q35.52007.04468,71.06005.05,105.18.045,210.34-.06006c28.55994-.03,49.32-21.14014,49.33-49.76q.015-251.59515,0-503.17993Q2128.58551,1459.64972,2128.56049,1364.08972Zm-2.39991,694.27c0,20.86011-12.1101,38.23-31.17,44.82007a49.15706,49.15706,0,0,1-16.19006,2.55q-140.20515-.01466-280.40992.07983c-21.53.06006-45.17-14.61987-47.96-44.08984.04993-2.99.15992-5.99.15992-8.98q.0152-221.66986.01-443.32007v-4.08008q.0002-120.26989-.01-240.52c0-1.65991-.11-3.31994-.16993-4.98,3.23-28.30993,21.67993-44.69995,50.29993-44.69995h274.4c30.79,0,51.05005,20.23,51.05005,50.91992Q2126.18561,1712.21472,2126.16058,2058.35974Zm2.39991-694.27c0-29.69995-21.77-51.30993-51.46-51.30993q-138.93-.015-277.9,0c-30.31995,0-51.03992,20.77-51.04993,51.16v177.93994c.02,21.65.16993,43.30005.26,64.94995v.93006c-.09008,1.31994-.25,2.64-.25,3.96008q-.015,223.43994,0,446.86987c.01,28.26,21.18994,49.53,49.67994,49.56006q35.52007.04468,71.06005.05,105.18.045,210.34-.06006c28.55994-.03,49.32-21.14014,49.33-49.76q.015-251.59515,0-503.17993Q2128.58551,1459.64972,2128.56049,1364.08972Zm-2.39991,694.27c0,20.86011-12.1101,38.23-31.17,44.82007a49.15706,49.15706,0,0,1-16.19006,2.55q-140.20515-.01466-280.40992.07983c-21.53.06006-45.17-14.61987-47.96-44.08984.04993-2.99.15992-5.99.15992-8.98q.0152-221.66986.01-443.32007v-4.08008q.0002-120.26989-.01-240.52c0-1.65991-.11-3.31994-.16993-4.98,3.23-28.30993,21.67993-44.69995,50.29993-44.69995h274.4c30.79,0,51.05005,20.23,51.05005,50.91992Q2126.18561,1712.21472,2126.16058,2058.35974Zm2.39991-694.27c0-29.69995-21.77-51.30993-51.46-51.30993q-138.93-.015-277.9,0c-30.31995,0-51.03992,20.77-51.04993,51.16v177.93994c.02,21.65.16993,43.30005.26,64.94995v.93006c-.09008,1.31994-.25,2.64-.25,3.96008q-.015,223.43994,0,446.86987c.01,28.26,21.18994,49.53,49.67994,49.56006q35.52007.04468,71.06005.05,105.18.045,210.34-.06006c28.55994-.03,49.32-21.14014,49.33-49.76q.015-251.59515,0-503.17993Q2128.58551,1459.64972,2128.56049,1364.08972Zm-2.39991,694.27c0,20.86011-12.1101,38.23-31.17,44.82007a49.15706,49.15706,0,0,1-16.19006,2.55q-140.20515-.01466-280.40992.07983c-21.53.06006-45.17-14.61987-47.96-44.08984.04993-2.99.15992-5.99.15992-8.98q.0152-221.66986.01-443.32007v-4.08008q.0002-120.26989-.01-240.52c0-1.65991-.11-3.31994-.16993-4.98,3.23-28.30993,21.67993-44.69995,50.29993-44.69995h274.4c30.79,0,51.05005,20.23,51.05005,50.91992Q2126.18561,1712.21472,2126.16058,2058.35974Zm2.39991-694.27c0-29.69995-21.77-51.30993-51.46-51.30993q-138.93-.015-277.9,0c-30.31995,0-51.03992,20.77-51.04993,51.16v177.93994c.02,21.65.16993,43.30005.26,64.94995v.93006c-.09008,1.31994-.25,2.64-.25,3.96008q-.015,223.43994,0,446.86987c.01,28.26,21.18994,49.53,49.67994,49.56006q35.52007.04468,71.06005.05,105.18.045,210.34-.06006c28.55994-.03,49.32-21.14014,49.33-49.76q.015-251.59515,0-503.17993Q2128.58551,1459.64972,2128.56049,1364.08972Zm-2.39991,694.27c0,20.86011-12.1101,38.23-31.17,44.82007a49.15706,49.15706,0,0,1-16.19006,2.55q-140.20515-.01466-280.40992.07983c-21.53.06006-45.17-14.61987-47.96-44.08984.04993-2.99.15992-5.99.15992-8.98q.0152-221.66986.01-443.32007v-4.08008q.0002-120.26989-.01-240.52c0-1.65991-.11-3.31994-.16993-4.98,3.23-28.30993,21.67993-44.69995,50.29993-44.69995h274.4c30.79,0,51.05005,20.23,51.05005,50.91992Q2126.18561,1712.21472,2126.16058,2058.35974Zm2.39991-694.27c0-29.69995-21.77-51.30993-51.46-51.30993q-138.93-.015-277.9,0c-30.31995,0-51.03992,20.77-51.04993,51.16v177.93994c.02,21.65.16993,43.30005.26,64.94995v.93006c-.09008,1.31994-.25,2.64-.25,3.96008q-.015,223.43994,0,446.86987c.01,28.26,21.18994,49.53,49.67994,49.56006q35.52007.04468,71.06005.05,105.18.045,210.34-.06006c28.55994-.03,49.32-21.14014,49.33-49.76q.015-251.59515,0-503.17993Q2128.58551,1459.64972,2128.56049,1364.08972Zm-2.39991,694.27c0,20.86011-12.1101,38.23-31.17,44.82007a49.15706,49.15706,0,0,1-16.19006,2.55q-140.20515-.01466-280.40992.07983c-21.53.06006-45.17-14.61987-47.96-44.08984.04993-2.99.15992-5.99.15992-8.98q.0152-221.66986.01-443.32007v-4.08008q.0002-120.26989-.01-240.52c0-1.65991-.11-3.31994-.16993-4.98,3.23-28.30993,21.67993-44.69995,50.29993-44.69995h274.4c30.79,0,51.05005,20.23,51.05005,50.91992Q2126.18561,1712.21472,2126.16058,2058.35974Zm2.39991-694.27c0-29.69995-21.77-51.30993-51.46-51.30993q-138.93-.015-277.9,0c-30.31995,0-51.03992,20.77-51.04993,51.16v177.93994c.02,21.65.16993,43.30005.26,64.94995v.93006c-.09008,1.31994-.25,2.64-.25,3.96008q-.015,223.43994,0,446.86987c.01,28.26,21.18994,49.53,49.67994,49.56006q35.52007.04468,71.06005.05,105.18.045,210.34-.06006c28.55994-.03,49.32-21.14014,49.33-49.76q.015-251.59515,0-503.17993Q2128.58551,1459.64972,2128.56049,1364.08972Zm-2.39991,694.27c0,20.86011-12.1101,38.23-31.17,44.82007a49.15706,49.15706,0,0,1-16.19006,2.55q-140.20515-.01466-280.40992.07983c-21.53.06006-45.17-14.61987-47.96-44.08984.04993-2.99.15992-5.99.15992-8.98q.0152-221.66986.01-443.32007v-4.08008q.0002-120.26989-.01-240.52c0-1.65991-.11-3.31994-.16993-4.98,3.23-28.30993,21.67993-44.69995,50.29993-44.69995h274.4c30.79,0,51.05005,20.23,51.05005,50.91992Q2126.18561,1712.21472,2126.16058,2058.35974Zm2.39991-694.27c0-29.69995-21.77-51.30993-51.46-51.30993q-138.93-.015-277.9,0c-30.31995,0-51.03992,20.77-51.04993,51.16v177.93994c.02,21.65.16993,43.30005.26,64.94995v.93006c-.09008,1.31994-.25,2.64-.25,3.96008q-.015,223.43994,0,446.86987c.01,28.26,21.18994,49.53,49.67994,49.56006q35.52007.04468,71.06005.05,105.18.045,210.34-.06006c28.55994-.03,49.32-21.14014,49.33-49.76q.015-251.59515,0-503.17993Q2128.58551,1459.64972,2128.56049,1364.08972Zm-2.39991,694.27c0,20.86011-12.1101,38.23-31.17,44.82007a49.15706,49.15706,0,0,1-16.19006,2.55q-140.20515-.01466-280.40992.07983c-21.53.06006-45.17-14.61987-47.96-44.08984.04993-2.99.15992-5.99.15992-8.98q.0152-221.66986.01-443.32007v-4.08008q.0002-120.26989-.01-240.52c0-1.65991-.11-3.31994-.16993-4.98,3.23-28.30993,21.67993-44.69995,50.29993-44.69995h274.4c30.79,0,51.05005,20.23,51.05005,50.91992Q2126.18561,1712.21472,2126.16058,2058.35974Zm2.39991-694.27c0-29.69995-21.77-51.30993-51.46-51.30993q-138.93-.015-277.9,0c-30.31995,0-51.03992,20.77-51.04993,51.16v177.93994c.02,21.65.16993,43.30005.26,64.94995v.93006c-.09008,1.31994-.25,2.64-.25,3.96008q-.015,223.43994,0,446.86987c.01,28.26,21.18994,49.53,49.67994,49.56006q35.52007.04468,71.06005.05,105.18.045,210.34-.06006c28.55994-.03,49.32-21.14014,49.33-49.76q.015-251.59515,0-503.17993Q2128.58551,1459.64972,2128.56049,1364.08972Zm-2.39991,694.27c0,20.86011-12.1101,38.23-31.17,44.82007a49.15706,49.15706,0,0,1-16.19006,2.55q-140.20515-.01466-280.40992.07983c-21.53.06006-45.17-14.61987-47.96-44.08984.04993-2.99.15992-5.99.15992-8.98q.0152-221.66986.01-443.32007v-4.08008q.0002-120.26989-.01-240.52c0-1.65991-.11-3.31994-.16993-4.98,3.23-28.30993,21.67993-44.69995,50.29993-44.69995h274.4c30.79,0,51.05005,20.23,51.05005,50.91992Q2126.18561,1712.21472,2126.16058,2058.35974Zm2.39991-694.27c0-29.69995-21.77-51.30993-51.46-51.30993q-138.93-.015-277.9,0c-30.31995,0-51.03992,20.77-51.04993,51.16v177.93994c.02,21.65.16993,43.30005.26,64.94995v.93006c-.09008,1.31994-.25,2.64-.25,3.96008q-.015,223.43994,0,446.86987c.01,28.26,21.18994,49.53,49.67994,49.56006q35.52007.04468,71.06005.05,105.18.045,210.34-.06006c28.55994-.03,49.32-21.14014,49.33-49.76q.015-251.59515,0-503.17993Q2128.58551,1459.64972,2128.56049,1364.08972Zm-2.39991,694.27c0,20.86011-12.1101,38.23-31.17,44.82007a49.15706,49.15706,0,0,1-16.19006,2.55q-140.20515-.01466-280.40992.07983c-21.53.06006-45.17-14.61987-47.96-44.08984.04993-2.99.15992-5.99.15992-8.98q.0152-221.66986.01-443.32007v-4.08008q.0002-120.26989-.01-240.52c0-1.65991-.11-3.31994-.16993-4.98,3.23-28.30993,21.67993-44.69995,50.29993-44.69995h274.4c30.79,0,51.05005,20.23,51.05005,50.91992Q2126.18561,1712.21472,2126.16058,2058.35974Zm2.39991-694.27c0-29.69995-21.77-51.30993-51.46-51.30993q-138.93-.015-277.9,0c-30.31995,0-51.03992,20.77-51.04993,51.16v177.93994c.02,21.65.16993,43.30005.26,64.94995v.93006c-.09008,1.31994-.25,2.64-.25,3.96008q-.015,223.43994,0,446.86987c.01,28.26,21.18994,49.53,49.67994,49.56006q35.52007.04468,71.06005.05,105.18.045,210.34-.06006c28.55994-.03,49.32-21.14014,49.33-49.76q.015-251.59515,0-503.17993Q2128.58551,1459.64972,2128.56049,1364.08972Zm-2.39991,694.27c0,20.86011-12.1101,38.23-31.17,44.82007a49.15706,49.15706,0,0,1-16.19006,2.55q-140.20515-.01466-280.40992.07983c-21.53.06006-45.17-14.61987-47.96-44.08984.04993-2.99.15992-5.99.15992-8.98q.0152-221.66986.01-443.32007v-4.08008q.0002-120.26989-.01-240.52c0-1.65991-.11-3.31994-.16993-4.98,3.23-28.30993,21.67993-44.69995,50.29993-44.69995h274.4c30.79,0,51.05005,20.23,51.05005,50.91992Q2126.18561,1712.21472,2126.16058,2058.35974Zm2.39991-694.27c0-29.69995-21.77-51.30993-51.46-51.30993q-138.93-.015-277.9,0c-30.31995,0-51.03992,20.77-51.04993,51.16v177.93994c.02,21.65.16993,43.30005.26,64.94995v.93006c-.09008,1.31994-.25,2.64-.25,3.96008q-.015,223.43994,0,446.86987c.01,28.26,21.18994,49.53,49.67994,49.56006q35.52007.04468,71.06005.05,105.18.045,210.34-.06006c28.55994-.03,49.32-21.14014,49.33-49.76q.015-251.59515,0-503.17993Q2128.58551,1459.64972,2128.56049,1364.08972Zm-2.39991,694.27c0,20.86011-12.1101,38.23-31.17,44.82007a49.15706,49.15706,0,0,1-16.19006,2.55q-140.20515-.01466-280.40992.07983c-21.53.06006-45.17-14.61987-47.96-44.08984.04993-2.99.15992-5.99.15992-8.98q.0152-221.66986.01-443.32007v-4.08008q.0002-120.26989-.01-240.52c0-1.65991-.11-3.31994-.16993-4.98,3.23-28.30993,21.67993-44.69995,50.29993-44.69995h274.4c30.79,0,51.05005,20.23,51.05005,50.91992Q2126.18561,1712.21472,2126.16058,2058.35974Zm2.39991-694.27c0-29.69995-21.77-51.30993-51.46-51.30993q-138.93-.015-277.9,0c-30.31995,0-51.03992,20.77-51.04993,51.16v177.93994c.02,21.65.16993,43.30005.26,64.94995v.93006c-.09008,1.31994-.25,2.64-.25,3.96008q-.015,223.43994,0,446.86987c.01,28.26,21.18994,49.53,49.67994,49.56006q35.52007.04468,71.06005.05,105.18.045,210.34-.06006c28.55994-.03,49.32-21.14014,49.33-49.76q.015-251.59515,0-503.17993Q2128.58551,1459.64972,2128.56049,1364.08972Zm-2.39991,694.27c0,20.86011-12.1101,38.23-31.17,44.82007a49.15706,49.15706,0,0,1-16.19006,2.55q-140.20515-.01466-280.40992.07983c-21.53.06006-45.17-14.61987-47.96-44.08984.04993-2.99.15992-5.99.15992-8.98q.0152-221.66986.01-443.32007v-4.08008q.0002-120.26989-.01-240.52c0-1.65991-.11-3.31994-.16993-4.98,3.23-28.30993,21.67993-44.69995,50.29993-44.69995h274.4c30.79,0,51.05005,20.23,51.05005,50.91992Q2126.18561,1712.21472,2126.16058,2058.35974Zm2.39991-694.27c0-29.69995-21.77-51.30993-51.46-51.30993q-138.93-.015-277.9,0c-30.31995,0-51.03992,20.77-51.04993,51.16v177.93994c.02,21.65.16993,43.30005.26,64.94995v.93006c-.09008,1.31994-.25,2.64-.25,3.96008q-.015,223.43994,0,446.86987c.01,28.26,21.18994,49.53,49.67994,49.56006q35.52007.04468,71.06005.05,105.18.045,210.34-.06006c28.55994-.03,49.32-21.14014,49.33-49.76q.015-251.59515,0-503.17993Q2128.58551,1459.64972,2128.56049,1364.08972Zm-2.39991,694.27c0,20.86011-12.1101,38.23-31.17,44.82007a49.15706,49.15706,0,0,1-16.19006,2.55q-140.20515-.01466-280.40992.07983c-21.53.06006-45.17-14.61987-47.96-44.08984.04993-2.99.15992-5.99.15992-8.98q.0152-221.66986.01-443.32007v-4.08008q.0002-120.26989-.01-240.52c0-1.65991-.11-3.31994-.16993-4.98,3.23-28.30993,21.67993-44.69995,50.29993-44.69995h274.4c30.79,0,51.05005,20.23,51.05005,50.91992Q2126.18561,1712.21472,2126.16058,2058.35974Zm2.39991-694.27c0-29.69995-21.77-51.30993-51.46-51.30993q-138.93-.015-277.9,0c-30.31995,0-51.03992,20.77-51.04993,51.16v177.93994c.02,21.65.16993,43.30005.26,64.94995v.93006c-.09008,1.31994-.25,2.64-.25,3.96008q-.015,223.43994,0,446.86987c.01,28.26,21.18994,49.53,49.67994,49.56006q35.52007.04468,71.06005.05,105.18.045,210.34-.06006c28.55994-.03,49.32-21.14014,49.33-49.76q.015-251.59515,0-503.17993Q2128.58551,1459.64972,2128.56049,1364.08972Zm-2.39991,694.27c0,20.86011-12.1101,38.23-31.17,44.82007a49.15706,49.15706,0,0,1-16.19006,2.55q-140.20515-.01466-280.40992.07983c-21.53.06006-45.17-14.61987-47.96-44.08984.04993-2.99.15992-5.99.15992-8.98q.0152-221.66986.01-443.32007v-4.08008q.0002-120.26989-.01-240.52c0-1.65991-.11-3.31994-.16993-4.98,3.23-28.30993,21.67993-44.69995,50.29993-44.69995h274.4c30.79,0,51.05005,20.23,51.05005,50.91992Q2126.18561,1712.21472,2126.16058,2058.35974Zm11.28-479.88989q.01466-42.24024.00977-84.4801c0-1.7.14014-3.86-1.71-4.28992-3.62989-.8501-2.84986-3.44006-2.84986-5.78-.02-40.49.05005-80.99-.03-121.48a54.20322,54.20322,0,0,0-53.9154-54.48987l-.01453-.00012h-.71008q-140.71509,0-281.43-.04c-29.19995-.04-53.54993,24.05005-53.34,53.23.1,12.66992.04,25.33008.01,37.99-.01,4.55005,1.25,9.55005-4.05994,12.37a215.26611,215.26611,0,0,0,.09,28.96008c0,.05994.00989.10986.00989.16992.01.08008.01.16.02.24,4.99,2.09009,3.88012,6.5,3.94006,10.43994q.0597,3.24024,0,6.4801c-.07,4.97,1.43,10.4-4.01,13.82h-.01a25.74327,25.74327,0,0,0-.48,4.11011v.10986c-.07,2.38013.1,4.76.13,7.13013.14,14.29993-.49,28.60986.32006,42.8999,0,.08008.01.15.01.23-.3601,3.23,5.19995,2.13013,4.24,6.49-1.07006,4.83008,1.58,10.62012-4.18,14.07007h-.01v.07007c-.74,18.15991-.57,36.30994-.08,54.47,5.96,4.35,4.03,10.74,4.04,16.48q.0749,219.705.04993,439.40991c0,3.33008-.37,6.74.20007,9.98,4.90992,27.93994,26.46,45.92017,54.90992,45.92017q139.71.02965,279.41992.01977a59.02392,59.02392,0,0,0,16.32007-1.8999c23.3-6.65991,38.52-26.87988,38.53-51.65991q.045-234.19519.05005-468.4c0-3.36-1.34008-7.3,3.58985-8.9C2137.78046,1581.71985,2137.44061,1579.78979,2137.44061,1578.46985Zm-393.93017-140.21008c.01,1.4-.76,1.61-1.86988,1.53q.045-13.96471.04993-27.89c1.12-.07007,1.84.16992,1.83,1.57007Q1743.46057,1425.85969,1743.51044,1438.25977Zm-2.16992,86.54992q.19482-26.45966.37-52.91992c1.69006-.22,1.81995.81006,1.81995,2.12q-.03,24.72-.03,49.45007C1743.50043,1524.92981,1743.72052,1527.02979,1741.34052,1524.80969Zm.31005,75.95008q-.1201-26.47486-.25-52.95008c2.54993-1.71,2.09.4701,2.09986,1.7201.05005,5.96.02,11.92.02,17.88,0,9.92993.05005,19.87-.04993,29.80005C1743.4505,1598.50977,1744.66058,1600.82971,1741.65057,1600.75977Zm388.81006,457.61c0,25.06006-14.94018,44.66992-38.47009,50.71a57.22387,57.22387,0,0,1-14.35,1.48q-138.18-.04467-276.35009-.02c-29.68995,0-47.77-14.10986-54.86988-42.82983-.10009-3.15991-.29-6.32007-.29-9.47q-.0152-220.83013.01-441.64014.045-131.87988.29993-263.75c4.57-20.31994,16.28-34.21,36.45007-40.48a49.34589,49.34589,0,0,1,14.79993-1.87l279.85.03c30.03.01,52.92016,22.83,52.92016,52.68Q2130.49066,1710.7898,2130.46063,2058.36975Zm3.83985-477.81006c-.31006-.0199-.61988-.0299-.93995-.04992v-88.48h.93995Zm-57.2-267.7799q-138.93-.015-277.9,0c-30.31995,0-51.03992,20.77-51.04993,51.16v177.93994c.02,21.65.16993,43.30005.26,64.94995v.93006c-.09008,1.31994-.25,2.64-.25,3.96008q-.015,223.43994,0,446.86987c.01,28.26,21.18994,49.53,49.67994,49.56006q35.52007.04468,71.06005.05,105.18.045,210.34-.06006c28.55994-.03,49.32-21.14014,49.33-49.76q.015-251.59515,0-503.17993.015-95.55011-.01-191.11011C2128.56049,1334.38977,2106.79047,1312.77979,2077.10052,1312.77979Zm49.06006,745.57995c0,20.86011-12.1101,38.23-31.17,44.82007a49.15706,49.15706,0,0,1-16.19006,2.55q-140.20515-.01466-280.40992.07983c-21.53.06006-45.17-14.61987-47.96-44.08984.04993-2.99.15992-5.99.15992-8.98q.0152-221.66986.01-443.32007v-4.08008q.0002-120.26989-.01-240.52c0-1.65991-.11-3.31994-.16993-4.98,3.23-28.30993,21.67993-44.69995,50.29993-44.69995h274.4c30.79,0,51.05005,20.23,51.05005,50.91992Q2126.18561,1712.21472,2126.16058,2058.35974Zm2.39991-694.27c0-29.69995-21.77-51.30993-51.46-51.30993q-138.93-.015-277.9,0c-30.31995,0-51.03992,20.77-51.04993,51.16v177.93994c.02,21.65.16993,43.30005.26,64.94995v.93006c-.09008,1.31994-.25,2.64-.25,3.96008q-.015,223.43994,0,446.86987c.01,28.26,21.18994,49.53,49.67994,49.56006q35.52007.04468,71.06005.05,105.18.045,210.34-.06006c28.55994-.03,49.32-21.14014,49.33-49.76q.015-251.59515,0-503.17993Q2128.58551,1459.64972,2128.56049,1364.08972Zm-2.39991,694.27c0,20.86011-12.1101,38.23-31.17,44.82007a49.15706,49.15706,0,0,1-16.19006,2.55q-140.20515-.01466-280.40992.07983c-21.53.06006-45.17-14.61987-47.96-44.08984.04993-2.99.15992-5.99.15992-8.98q.0152-221.66986.01-443.32007v-4.08008q.0002-120.26989-.01-240.52c0-1.65991-.11-3.31994-.16993-4.98,3.23-28.30993,21.67993-44.69995,50.29993-44.69995h274.4c30.79,0,51.05005,20.23,51.05005,50.91992Q2126.18561,1712.21472,2126.16058,2058.35974Zm2.39991-694.27c0-29.69995-21.77-51.30993-51.46-51.30993q-138.93-.015-277.9,0c-30.31995,0-51.03992,20.77-51.04993,51.16v177.93994c.02,21.65.16993,43.30005.26,64.94995v.93006c-.09008,1.31994-.25,2.64-.25,3.96008q-.015,223.43994,0,446.86987c.01,28.26,21.18994,49.53,49.67994,49.56006q35.52007.04468,71.06005.05,105.18.045,210.34-.06006c28.55994-.03,49.32-21.14014,49.33-49.76q.015-251.59515,0-503.17993Q2128.58551,1459.64972,2128.56049,1364.08972Zm-2.39991,694.27c0,20.86011-12.1101,38.23-31.17,44.82007a49.15706,49.15706,0,0,1-16.19006,2.55q-140.20515-.01466-280.40992.07983c-21.53.06006-45.17-14.61987-47.96-44.08984.04993-2.99.15992-5.99.15992-8.98q.0152-221.66986.01-443.32007v-4.08008q.0002-120.26989-.01-240.52c0-1.65991-.11-3.31994-.16993-4.98,3.23-28.30993,21.67993-44.69995,50.29993-44.69995h274.4c30.79,0,51.05005,20.23,51.05005,50.91992Q2126.18561,1712.21472,2126.16058,2058.35974Zm2.39991-694.27c0-29.69995-21.77-51.30993-51.46-51.30993q-138.93-.015-277.9,0c-30.31995,0-51.03992,20.77-51.04993,51.16v177.93994c.02,21.65.16993,43.30005.26,64.94995v.93006c-.09008,1.31994-.25,2.64-.25,3.96008q-.015,223.43994,0,446.86987c.01,28.26,21.18994,49.53,49.67994,49.56006q35.52007.04468,71.06005.05,105.18.045,210.34-.06006c28.55994-.03,49.32-21.14014,49.33-49.76q.015-251.59515,0-503.17993Q2128.58551,1459.64972,2128.56049,1364.08972Zm-2.39991,694.27c0,20.86011-12.1101,38.23-31.17,44.82007a49.15706,49.15706,0,0,1-16.19006,2.55q-140.20515-.01466-280.40992.07983c-21.53.06006-45.17-14.61987-47.96-44.08984.04993-2.99.15992-5.99.15992-8.98q.0152-221.66986.01-443.32007v-4.08008q.0002-120.26989-.01-240.52c0-1.65991-.11-3.31994-.16993-4.98,3.23-28.30993,21.67993-44.69995,50.29993-44.69995h274.4c30.79,0,51.05005,20.23,51.05005,50.91992Q2126.18561,1712.21472,2126.16058,2058.35974Zm2.39991-694.27c0-29.69995-21.77-51.30993-51.46-51.30993q-138.93-.015-277.9,0c-30.31995,0-51.03992,20.77-51.04993,51.16v177.93994c.02,21.65.16993,43.30005.26,64.94995v.93006c-.09008,1.31994-.25,2.64-.25,3.96008q-.015,223.43994,0,446.86987c.01,28.26,21.18994,49.53,49.67994,49.56006q35.52007.04468,71.06005.05,105.18.045,210.34-.06006c28.55994-.03,49.32-21.14014,49.33-49.76q.015-251.59515,0-503.17993Q2128.58551,1459.64972,2128.56049,1364.08972Zm-2.39991,694.27c0,20.86011-12.1101,38.23-31.17,44.82007a49.15706,49.15706,0,0,1-16.19006,2.55q-140.20515-.01466-280.40992.07983c-21.53.06006-45.17-14.61987-47.96-44.08984.04993-2.99.15992-5.99.15992-8.98q.0152-221.66986.01-443.32007v-4.08008q.0002-120.26989-.01-240.52c0-1.65991-.11-3.31994-.16993-4.98,3.23-28.30993,21.67993-44.69995,50.29993-44.69995h274.4c30.79,0,51.05005,20.23,51.05005,50.91992Q2126.18561,1712.21472,2126.16058,2058.35974Zm2.39991-694.27c0-29.69995-21.77-51.30993-51.46-51.30993q-138.93-.015-277.9,0c-30.31995,0-51.03992,20.77-51.04993,51.16v177.93994c.02,21.65.16993,43.30005.26,64.94995v.93006c-.09008,1.31994-.25,2.64-.25,3.96008q-.015,223.43994,0,446.86987c.01,28.26,21.18994,49.53,49.67994,49.56006q35.52007.04468,71.06005.05,105.18.045,210.34-.06006c28.55994-.03,49.32-21.14014,49.33-49.76q.015-251.59515,0-503.17993Q2128.58551,1459.64972,2128.56049,1364.08972Zm-2.39991,694.27c0,20.86011-12.1101,38.23-31.17,44.82007a49.15706,49.15706,0,0,1-16.19006,2.55q-140.20515-.01466-280.40992.07983c-21.53.06006-45.17-14.61987-47.96-44.08984.04993-2.99.15992-5.99.15992-8.98q.0152-221.66986.01-443.32007v-4.08008q.0002-120.26989-.01-240.52c0-1.65991-.11-3.31994-.16993-4.98,3.23-28.30993,21.67993-44.69995,50.29993-44.69995h274.4c30.79,0,51.05005,20.23,51.05005,50.91992Q2126.18561,1712.21472,2126.16058,2058.35974Zm2.39991-694.27c0-29.69995-21.77-51.30993-51.46-51.30993q-138.93-.015-277.9,0c-30.31995,0-51.03992,20.77-51.04993,51.16v177.93994c.02,21.65.16993,43.30005.26,64.94995v.93006c-.09008,1.31994-.25,2.64-.25,3.96008q-.015,223.43994,0,446.86987c.01,28.26,21.18994,49.53,49.67994,49.56006q35.52007.04468,71.06005.05,105.18.045,210.34-.06006c28.55994-.03,49.32-21.14014,49.33-49.76q.015-251.59515,0-503.17993Q2128.58551,1459.64972,2128.56049,1364.08972Zm-2.39991,694.27c0,20.86011-12.1101,38.23-31.17,44.82007a49.15706,49.15706,0,0,1-16.19006,2.55q-140.20515-.01466-280.40992.07983c-21.53.06006-45.17-14.61987-47.96-44.08984.04993-2.99.15992-5.99.15992-8.98q.0152-221.66986.01-443.32007v-4.08008q.0002-120.26989-.01-240.52c0-1.65991-.11-3.31994-.16993-4.98,3.23-28.30993,21.67993-44.69995,50.29993-44.69995h274.4c30.79,0,51.05005,20.23,51.05005,50.91992Q2126.18561,1712.21472,2126.16058,2058.35974Zm2.39991-694.27c0-29.69995-21.77-51.30993-51.46-51.30993q-138.93-.015-277.9,0c-30.31995,0-51.03992,20.77-51.04993,51.16v177.93994c.02,21.65.16993,43.30005.26,64.94995v.93006c-.09008,1.31994-.25,2.64-.25,3.96008q-.015,223.43994,0,446.86987c.01,28.26,21.18994,49.53,49.67994,49.56006q35.52007.04468,71.06005.05,105.18.045,210.34-.06006c28.55994-.03,49.32-21.14014,49.33-49.76q.015-251.59515,0-503.17993Q2128.58551,1459.64972,2128.56049,1364.08972Zm-2.39991,694.27c0,20.86011-12.1101,38.23-31.17,44.82007a49.15706,49.15706,0,0,1-16.19006,2.55q-140.20515-.01466-280.40992.07983c-21.53.06006-45.17-14.61987-47.96-44.08984.04993-2.99.15992-5.99.15992-8.98q.0152-221.66986.01-443.32007v-4.08008q.0002-120.26989-.01-240.52c0-1.65991-.11-3.31994-.16993-4.98,3.23-28.30993,21.67993-44.69995,50.29993-44.69995h274.4c30.79,0,51.05005,20.23,51.05005,50.91992Q2126.18561,1712.21472,2126.16058,2058.35974Zm2.39991-694.27c0-29.69995-21.77-51.30993-51.46-51.30993q-138.93-.015-277.9,0c-30.31995,0-51.03992,20.77-51.04993,51.16v177.93994c.02,21.65.16993,43.30005.26,64.94995v.93006c-.09008,1.31994-.25,2.64-.25,3.96008q-.015,223.43994,0,446.86987c.01,28.26,21.18994,49.53,49.67994,49.56006q35.52007.04468,71.06005.05,105.18.045,210.34-.06006c28.55994-.03,49.32-21.14014,49.33-49.76q.015-251.59515,0-503.17993Q2128.58551,1459.64972,2128.56049,1364.08972Zm-2.39991,694.27c0,20.86011-12.1101,38.23-31.17,44.82007a49.15706,49.15706,0,0,1-16.19006,2.55q-140.20515-.01466-280.40992.07983c-21.53.06006-45.17-14.61987-47.96-44.08984.04993-2.99.15992-5.99.15992-8.98q.0152-221.66986.01-443.32007v-4.08008q.0002-120.26989-.01-240.52c0-1.65991-.11-3.31994-.16993-4.98,3.23-28.30993,21.67993-44.69995,50.29993-44.69995h274.4c30.79,0,51.05005,20.23,51.05005,50.91992Q2126.18561,1712.21472,2126.16058,2058.35974Zm2.39991-694.27c0-29.69995-21.77-51.30993-51.46-51.30993q-138.93-.015-277.9,0c-30.31995,0-51.03992,20.77-51.04993,51.16v177.93994c.02,21.65.16993,43.30005.26,64.94995v.93006c-.09008,1.31994-.25,2.64-.25,3.96008q-.015,223.43994,0,446.86987c.01,28.26,21.18994,49.53,49.67994,49.56006q35.52007.04468,71.06005.05,105.18.045,210.34-.06006c28.55994-.03,49.32-21.14014,49.33-49.76q.015-251.59515,0-503.17993Q2128.58551,1459.64972,2128.56049,1364.08972Zm-2.39991,694.27c0,20.86011-12.1101,38.23-31.17,44.82007a49.15706,49.15706,0,0,1-16.19006,2.55q-140.20515-.01466-280.40992.07983c-21.53.06006-45.17-14.61987-47.96-44.08984.04993-2.99.15992-5.99.15992-8.98q.0152-221.66986.01-443.32007v-4.08008q.0002-120.26989-.01-240.52c0-1.65991-.11-3.31994-.16993-4.98,3.23-28.30993,21.67993-44.69995,50.29993-44.69995h274.4c30.79,0,51.05005,20.23,51.05005,50.91992Q2126.18561,1712.21472,2126.16058,2058.35974Zm2.39991-694.27c0-29.69995-21.77-51.30993-51.46-51.30993q-138.93-.015-277.9,0c-30.31995,0-51.03992,20.77-51.04993,51.16v177.93994c.02,21.65.16993,43.30005.26,64.94995v.93006c-.09008,1.31994-.25,2.64-.25,3.96008q-.015,223.43994,0,446.86987c.01,28.26,21.18994,49.53,49.67994,49.56006q35.52007.04468,71.06005.05,105.18.045,210.34-.06006c28.55994-.03,49.32-21.14014,49.33-49.76q.015-251.59515,0-503.17993Q2128.58551,1459.64972,2128.56049,1364.08972Zm-2.39991,694.27c0,20.86011-12.1101,38.23-31.17,44.82007a49.15706,49.15706,0,0,1-16.19006,2.55q-140.20515-.01466-280.40992.07983c-21.53.06006-45.17-14.61987-47.96-44.08984.04993-2.99.15992-5.99.15992-8.98q.0152-221.66986.01-443.32007v-4.08008q.0002-120.26989-.01-240.52c0-1.65991-.11-3.31994-.16993-4.98,3.23-28.30993,21.67993-44.69995,50.29993-44.69995h274.4c30.79,0,51.05005,20.23,51.05005,50.91992Q2126.18561,1712.21472,2126.16058,2058.35974Zm2.39991-694.27c0-29.69995-21.77-51.30993-51.46-51.30993q-138.93-.015-277.9,0c-30.31995,0-51.03992,20.77-51.04993,51.16v177.93994c.02,21.65.16993,43.30005.26,64.94995v.93006c-.09008,1.31994-.25,2.64-.25,3.96008q-.015,223.43994,0,446.86987c.01,28.26,21.18994,49.53,49.67994,49.56006q35.52007.04468,71.06005.05,105.18.045,210.34-.06006c28.55994-.03,49.32-21.14014,49.33-49.76q.015-251.59515,0-503.17993Q2128.58551,1459.64972,2128.56049,1364.08972Zm-2.39991,694.27c0,20.86011-12.1101,38.23-31.17,44.82007a49.15706,49.15706,0,0,1-16.19006,2.55q-140.20515-.01466-280.40992.07983c-21.53.06006-45.17-14.61987-47.96-44.08984.04993-2.99.15992-5.99.15992-8.98q.0152-221.66986.01-443.32007v-4.08008q.0002-120.26989-.01-240.52c0-1.65991-.11-3.31994-.16993-4.98,3.23-28.30993,21.67993-44.69995,50.29993-44.69995h274.4c30.79,0,51.05005,20.23,51.05005,50.91992Q2126.18561,1712.21472,2126.16058,2058.35974Zm2.39991-694.27c0-29.69995-21.77-51.30993-51.46-51.30993q-138.93-.015-277.9,0c-30.31995,0-51.03992,20.77-51.04993,51.16v177.93994c.02,21.65.16993,43.30005.26,64.94995v.93006c-.09008,1.31994-.25,2.64-.25,3.96008q-.015,223.43994,0,446.86987c.01,28.26,21.18994,49.53,49.67994,49.56006q35.52007.04468,71.06005.05,105.18.045,210.34-.06006c28.55994-.03,49.32-21.14014,49.33-49.76q.015-251.59515,0-503.17993Q2128.58551,1459.64972,2128.56049,1364.08972Zm-2.39991,694.27c0,20.86011-12.1101,38.23-31.17,44.82007a49.15706,49.15706,0,0,1-16.19006,2.55q-140.20515-.01466-280.40992.07983c-21.53.06006-45.17-14.61987-47.96-44.08984.04993-2.99.15992-5.99.15992-8.98q.0152-221.66986.01-443.32007v-4.08008q.0002-120.26989-.01-240.52c0-1.65991-.11-3.31994-.16993-4.98,3.23-28.30993,21.67993-44.69995,50.29993-44.69995h274.4c30.79,0,51.05005,20.23,51.05005,50.91992Q2126.18561,1712.21472,2126.16058,2058.35974Zm2.39991-694.27c0-29.69995-21.77-51.30993-51.46-51.30993q-138.93-.015-277.9,0c-30.31995,0-51.03992,20.77-51.04993,51.16v177.93994c.02,21.65.16993,43.30005.26,64.94995v.93006c-.09008,1.31994-.25,2.64-.25,3.96008q-.015,223.43994,0,446.86987c.01,28.26,21.18994,49.53,49.67994,49.56006q35.52007.04468,71.06005.05,105.18.045,210.34-.06006c28.55994-.03,49.32-21.14014,49.33-49.76q.015-251.59515,0-503.17993Q2128.58551,1459.64972,2128.56049,1364.08972Zm-2.39991,694.27c0,20.86011-12.1101,38.23-31.17,44.82007a49.15706,49.15706,0,0,1-16.19006,2.55q-140.20515-.01466-280.40992.07983c-21.53.06006-45.17-14.61987-47.96-44.08984.04993-2.99.15992-5.99.15992-8.98q.0152-221.66986.01-443.32007v-4.08008q.0002-120.26989-.01-240.52c0-1.65991-.11-3.31994-.16993-4.98,3.23-28.30993,21.67993-44.69995,50.29993-44.69995h274.4c30.79,0,51.05005,20.23,51.05005,50.91992Q2126.18561,1712.21472,2126.16058,2058.35974Zm2.39991-694.27c0-29.69995-21.77-51.30993-51.46-51.30993q-138.93-.015-277.9,0c-30.31995,0-51.03992,20.77-51.04993,51.16v177.93994c.02,21.65.16993,43.30005.26,64.94995v.93006c-.09008,1.31994-.25,2.64-.25,3.96008q-.015,223.43994,0,446.86987c.01,28.26,21.18994,49.53,49.67994,49.56006q35.52007.04468,71.06005.05,105.18.045,210.34-.06006c28.55994-.03,49.32-21.14014,49.33-49.76q.015-251.59515,0-503.17993Q2128.58551,1459.64972,2128.56049,1364.08972Zm-2.39991,694.27c0,20.86011-12.1101,38.23-31.17,44.82007a49.15706,49.15706,0,0,1-16.19006,2.55q-140.20515-.01466-280.40992.07983c-21.53.06006-45.17-14.61987-47.96-44.08984.04993-2.99.15992-5.99.15992-8.98q.0152-221.66986.01-443.32007v-4.08008q.0002-120.26989-.01-240.52c0-1.65991-.11-3.31994-.16993-4.98,3.23-28.30993,21.67993-44.69995,50.29993-44.69995h274.4c30.79,0,51.05005,20.23,51.05005,50.91992Q2126.18561,1712.21472,2126.16058,2058.35974Zm-380.03-.11987q-.0152-220.83013.01-441.64014Q1746.0655,1837.41467,1746.13055,2058.23987Zm382.42994-694.15015c0-29.69995-21.77-51.30993-51.46-51.30993q-138.93-.015-277.9,0c-30.31995,0-51.03992,20.77-51.04993,51.16v177.93994c.02,21.65.16993,43.30005.26,64.94995v.93006c-.09008,1.31994-.25,2.64-.25,3.96008q-.015,223.43994,0,446.86987c.01,28.26,21.18994,49.53,49.67994,49.56006q35.52007.04468,71.06005.05,105.18.045,210.34-.06006c28.55994-.03,49.32-21.14014,49.33-49.76q.015-251.59515,0-503.17993Q2128.58551,1459.64972,2128.56049,1364.08972Zm-2.39991,694.27c0,20.86011-12.1101,38.23-31.17,44.82007a49.15706,49.15706,0,0,1-16.19006,2.55q-140.20515-.01466-280.40992.07983c-21.53.06006-45.17-14.61987-47.96-44.08984.04993-2.99.15992-5.99.15992-8.98q.0152-221.66986.01-443.32007v-4.08008q.0002-120.26989-.01-240.52c0-1.65991-.11-3.31994-.16993-4.98,3.23-28.30993,21.67993-44.69995,50.29993-44.69995h274.4c30.79,0,51.05005,20.23,51.05005,50.91992Q2126.18561,1712.21472,2126.16058,2058.35974Zm2.39991-694.27c0-29.69995-21.77-51.30993-51.46-51.30993q-138.93-.015-277.9,0c-30.31995,0-51.03992,20.77-51.04993,51.16v177.93994c.02,21.65.16993,43.30005.26,64.94995v.93006c-.09008,1.31994-.25,2.64-.25,3.96008q-.015,223.43994,0,446.86987c.01,28.26,21.18994,49.53,49.67994,49.56006q35.52007.04468,71.06005.05,105.18.045,210.34-.06006c28.55994-.03,49.32-21.14014,49.33-49.76q.015-251.59515,0-503.17993Q2128.58551,1459.64972,2128.56049,1364.08972Zm-2.39991,694.27c0,20.86011-12.1101,38.23-31.17,44.82007a49.15706,49.15706,0,0,1-16.19006,2.55q-140.20515-.01466-280.40992.07983c-21.53.06006-45.17-14.61987-47.96-44.08984.04993-2.99.15992-5.99.15992-8.98q.0152-221.66986.01-443.32007v-4.08008q.0002-120.26989-.01-240.52c0-1.65991-.11-3.31994-.16993-4.98,3.23-28.30993,21.67993-44.69995,50.29993-44.69995h274.4c30.79,0,51.05005,20.23,51.05005,50.91992Q2126.18561,1712.21472,2126.16058,2058.35974Zm2.39991-694.27c0-29.69995-21.77-51.30993-51.46-51.30993q-138.93-.015-277.9,0c-30.31995,0-51.03992,20.77-51.04993,51.16v177.93994c.02,21.65.16993,43.30005.26,64.94995v.93006c-.09008,1.31994-.25,2.64-.25,3.96008q-.015,223.43994,0,446.86987c.01,28.26,21.18994,49.53,49.67994,49.56006q35.52007.04468,71.06005.05,105.18.045,210.34-.06006c28.55994-.03,49.32-21.14014,49.33-49.76q.015-251.59515,0-503.17993Q2128.58551,1459.64972,2128.56049,1364.08972Zm-2.39991,694.27c0,20.86011-12.1101,38.23-31.17,44.82007a49.15706,49.15706,0,0,1-16.19006,2.55q-140.20515-.01466-280.40992.07983c-21.53.06006-45.17-14.61987-47.96-44.08984.04993-2.99.15992-5.99.15992-8.98q.0152-221.66986.01-443.32007v-4.08008q.0002-120.26989-.01-240.52c0-1.65991-.11-3.31994-.16993-4.98,3.23-28.30993,21.67993-44.69995,50.29993-44.69995h274.4c30.79,0,51.05005,20.23,51.05005,50.91992Q2126.18561,1712.21472,2126.16058,2058.35974Zm2.39991-694.27c0-29.69995-21.77-51.30993-51.46-51.30993q-138.93-.015-277.9,0c-30.31995,0-51.03992,20.77-51.04993,51.16v177.93994c.02,21.65.16993,43.30005.26,64.94995v.93006c-.09008,1.31994-.25,2.64-.25,3.96008q-.015,223.43994,0,446.86987c.01,28.26,21.18994,49.53,49.67994,49.56006q35.52007.04468,71.06005.05,105.18.045,210.34-.06006c28.55994-.03,49.32-21.14014,49.33-49.76q.015-251.59515,0-503.17993Q2128.58551,1459.64972,2128.56049,1364.08972Zm-2.39991,694.27c0,20.86011-12.1101,38.23-31.17,44.82007a49.15706,49.15706,0,0,1-16.19006,2.55q-140.20515-.01466-280.40992.07983c-21.53.06006-45.17-14.61987-47.96-44.08984.04993-2.99.15992-5.99.15992-8.98q.0152-221.66986.01-443.32007v-4.08008q.0002-120.26989-.01-240.52c0-1.65991-.11-3.31994-.16993-4.98,3.23-28.30993,21.67993-44.69995,50.29993-44.69995h274.4c30.79,0,51.05005,20.23,51.05005,50.91992Q2126.18561,1712.21472,2126.16058,2058.35974Zm2.39991-694.27c0-29.69995-21.77-51.30993-51.46-51.30993q-138.93-.015-277.9,0c-30.31995,0-51.03992,20.77-51.04993,51.16v177.93994c.02,21.65.16993,43.30005.26,64.94995v.93006c-.09008,1.31994-.25,2.64-.25,3.96008q-.015,223.43994,0,446.86987c.01,28.26,21.18994,49.53,49.67994,49.56006q35.52007.04468,71.06005.05,105.18.045,210.34-.06006c28.55994-.03,49.32-21.14014,49.33-49.76q.015-251.59515,0-503.17993Q2128.58551,1459.64972,2128.56049,1364.08972Zm-2.39991,694.27c0,20.86011-12.1101,38.23-31.17,44.82007a49.15706,49.15706,0,0,1-16.19006,2.55q-140.20515-.01466-280.40992.07983c-21.53.06006-45.17-14.61987-47.96-44.08984.04993-2.99.15992-5.99.15992-8.98q.0152-221.66986.01-443.32007v-4.08008q.0002-120.26989-.01-240.52c0-1.65991-.11-3.31994-.16993-4.98,3.23-28.30993,21.67993-44.69995,50.29993-44.69995h274.4c30.79,0,51.05005,20.23,51.05005,50.91992Q2126.18561,1712.21472,2126.16058,2058.35974Zm2.39991-694.27c0-29.69995-21.77-51.30993-51.46-51.30993q-138.93-.015-277.9,0c-30.31995,0-51.03992,20.77-51.04993,51.16v177.93994c.02,21.65.16993,43.30005.26,64.94995v.93006c-.09008,1.31994-.25,2.64-.25,3.96008q-.015,223.43994,0,446.86987c.01,28.26,21.18994,49.53,49.67994,49.56006q35.52007.04468,71.06005.05,105.18.045,210.34-.06006c28.55994-.03,49.32-21.14014,49.33-49.76q.015-251.59515,0-503.17993Q2128.58551,1459.64972,2128.56049,1364.08972Zm-2.39991,694.27c0,20.86011-12.1101,38.23-31.17,44.82007a49.15706,49.15706,0,0,1-16.19006,2.55q-140.20515-.01466-280.40992.07983c-21.53.06006-45.17-14.61987-47.96-44.08984.04993-2.99.15992-5.99.15992-8.98q.0152-221.66986.01-443.32007v-4.08008q.0002-120.26989-.01-240.52c0-1.65991-.11-3.31994-.16993-4.98,3.23-28.30993,21.67993-44.69995,50.29993-44.69995h274.4c30.79,0,51.05005,20.23,51.05005,50.91992Q2126.18561,1712.21472,2126.16058,2058.35974Zm2.39991-694.27c0-29.69995-21.77-51.30993-51.46-51.30993q-138.93-.015-277.9,0c-30.31995,0-51.03992,20.77-51.04993,51.16v177.93994c.02,21.65.16993,43.30005.26,64.94995v.93006c-.09008,1.31994-.25,2.64-.25,3.96008q-.015,223.43994,0,446.86987c.01,28.26,21.18994,49.53,49.67994,49.56006q35.52007.04468,71.06005.05,105.18.045,210.34-.06006c28.55994-.03,49.32-21.14014,49.33-49.76q.015-251.59515,0-503.17993Q2128.58551,1459.64972,2128.56049,1364.08972Zm-2.39991,694.27c0,20.86011-12.1101,38.23-31.17,44.82007a49.15706,49.15706,0,0,1-16.19006,2.55q-140.20515-.01466-280.40992.07983c-21.53.06006-45.17-14.61987-47.96-44.08984.04993-2.99.15992-5.99.15992-8.98q.0152-221.66986.01-443.32007v-4.08008q.0002-120.26989-.01-240.52c0-1.65991-.11-3.31994-.16993-4.98,3.23-28.30993,21.67993-44.69995,50.29993-44.69995h274.4c30.79,0,51.05005,20.23,51.05005,50.91992Q2126.18561,1712.21472,2126.16058,2058.35974Zm2.39991-694.27c0-29.69995-21.77-51.30993-51.46-51.30993q-138.93-.015-277.9,0c-30.31995,0-51.03992,20.77-51.04993,51.16v177.93994c.02,21.65.16993,43.30005.26,64.94995v.93006c-.09008,1.31994-.25,2.64-.25,3.96008q-.015,223.43994,0,446.86987c.01,28.26,21.18994,49.53,49.67994,49.56006q35.52007.04468,71.06005.05,105.18.045,210.34-.06006c28.55994-.03,49.32-21.14014,49.33-49.76q.015-251.59515,0-503.17993Q2128.58551,1459.64972,2128.56049,1364.08972Zm-2.39991,694.27c0,20.86011-12.1101,38.23-31.17,44.82007a49.15706,49.15706,0,0,1-16.19006,2.55q-140.20515-.01466-280.40992.07983c-21.53.06006-45.17-14.61987-47.96-44.08984.04993-2.99.15992-5.99.15992-8.98q.0152-221.66986.01-443.32007v-4.08008q.0002-120.26989-.01-240.52c0-1.65991-.11-3.31994-.16993-4.98,3.23-28.30993,21.67993-44.69995,50.29993-44.69995h274.4c30.79,0,51.05005,20.23,51.05005,50.91992Q2126.18561,1712.21472,2126.16058,2058.35974Zm2.39991-694.27c0-29.69995-21.77-51.30993-51.46-51.30993q-138.93-.015-277.9,0c-30.31995,0-51.03992,20.77-51.04993,51.16v177.93994c.02,21.65.16993,43.30005.26,64.94995v.93006c-.09008,1.31994-.25,2.64-.25,3.96008q-.015,223.43994,0,446.86987c.01,28.26,21.18994,49.53,49.67994,49.56006q35.52007.04468,71.06005.05,105.18.045,210.34-.06006c28.55994-.03,49.32-21.14014,49.33-49.76q.015-251.59515,0-503.17993Q2128.58551,1459.64972,2128.56049,1364.08972Zm-2.39991,694.27c0,20.86011-12.1101,38.23-31.17,44.82007a49.15706,49.15706,0,0,1-16.19006,2.55q-140.20515-.01466-280.40992.07983c-21.53.06006-45.17-14.61987-47.96-44.08984.04993-2.99.15992-5.99.15992-8.98q.0152-221.66986.01-443.32007v-4.08008q.0002-120.26989-.01-240.52c0-1.65991-.11-3.31994-.16993-4.98,3.23-28.30993,21.67993-44.69995,50.29993-44.69995h274.4c30.79,0,51.05005,20.23,51.05005,50.91992Q2126.18561,1712.21472,2126.16058,2058.35974Zm2.39991-694.27c0-29.69995-21.77-51.30993-51.46-51.30993q-138.93-.015-277.9,0c-30.31995,0-51.03992,20.77-51.04993,51.16v177.93994c.02,21.65.16993,43.30005.26,64.94995v.93006c-.09008,1.31994-.25,2.64-.25,3.96008q-.015,223.43994,0,446.86987c.01,28.26,21.18994,49.53,49.67994,49.56006q35.52007.04468,71.06005.05,105.18.045,210.34-.06006c28.55994-.03,49.32-21.14014,49.33-49.76q.015-251.59515,0-503.17993Q2128.58551,1459.64972,2128.56049,1364.08972Zm-2.39991,694.27c0,20.86011-12.1101,38.23-31.17,44.82007a49.15706,49.15706,0,0,1-16.19006,2.55q-140.20515-.01466-280.40992.07983c-21.53.06006-45.17-14.61987-47.96-44.08984.04993-2.99.15992-5.99.15992-8.98q.0152-221.66986.01-443.32007v-4.08008q.0002-120.26989-.01-240.52c0-1.65991-.11-3.31994-.16993-4.98,3.23-28.30993,21.67993-44.69995,50.29993-44.69995h274.4c30.79,0,51.05005,20.23,51.05005,50.91992Q2126.18561,1712.21472,2126.16058,2058.35974Zm2.39991-694.27c0-29.69995-21.77-51.30993-51.46-51.30993q-138.93-.015-277.9,0c-30.31995,0-51.03992,20.77-51.04993,51.16v177.93994c.02,21.65.16993,43.30005.26,64.94995v.93006c-.09008,1.31994-.25,2.64-.25,3.96008q-.015,223.43994,0,446.86987c.01,28.26,21.18994,49.53,49.67994,49.56006q35.52007.04468,71.06005.05,105.18.045,210.34-.06006c28.55994-.03,49.32-21.14014,49.33-49.76q.015-251.59515,0-503.17993Q2128.58551,1459.64972,2128.56049,1364.08972Zm-2.39991,694.27c0,20.86011-12.1101,38.23-31.17,44.82007a49.15706,49.15706,0,0,1-16.19006,2.55q-140.20515-.01466-280.40992.07983c-21.53.06006-45.17-14.61987-47.96-44.08984.04993-2.99.15992-5.99.15992-8.98q.0152-221.66986.01-443.32007v-4.08008q.0002-120.26989-.01-240.52c0-1.65991-.11-3.31994-.16993-4.98,3.23-28.30993,21.67993-44.69995,50.29993-44.69995h274.4c30.79,0,51.05005,20.23,51.05005,50.91992Q2126.18561,1712.21472,2126.16058,2058.35974Zm2.39991-694.27c0-29.69995-21.77-51.30993-51.46-51.30993q-138.93-.015-277.9,0c-30.31995,0-51.03992,20.77-51.04993,51.16v177.93994c.02,21.65.16993,43.30005.26,64.94995v.93006c-.09008,1.31994-.25,2.64-.25,3.96008q-.015,223.43994,0,446.86987c.01,28.26,21.18994,49.53,49.67994,49.56006q35.52007.04468,71.06005.05,105.18.045,210.34-.06006c28.55994-.03,49.32-21.14014,49.33-49.76q.015-251.59515,0-503.17993Q2128.58551,1459.64972,2128.56049,1364.08972Zm-2.39991,694.27c0,20.86011-12.1101,38.23-31.17,44.82007a49.15706,49.15706,0,0,1-16.19006,2.55q-140.20515-.01466-280.40992.07983c-21.53.06006-45.17-14.61987-47.96-44.08984.04993-2.99.15992-5.99.15992-8.98q.0152-221.66986.01-443.32007v-4.08008q.0002-120.26989-.01-240.52c0-1.65991-.11-3.31994-.16993-4.98,3.23-28.30993,21.67993-44.69995,50.29993-44.69995h274.4c30.79,0,51.05005,20.23,51.05005,50.91992Q2126.18561,1712.21472,2126.16058,2058.35974Zm2.39991-694.27c0-29.69995-21.77-51.30993-51.46-51.30993q-138.93-.015-277.9,0c-30.31995,0-51.03992,20.77-51.04993,51.16v177.93994c.02,21.65.16993,43.30005.26,64.94995v.93006c-.09008,1.31994-.25,2.64-.25,3.96008q-.015,223.43994,0,446.86987c.01,28.26,21.18994,49.53,49.67994,49.56006q35.52007.04468,71.06005.05,105.18.045,210.34-.06006c28.55994-.03,49.32-21.14014,49.33-49.76q.015-251.59515,0-503.17993Q2128.58551,1459.64972,2128.56049,1364.08972Zm-2.39991,694.27c0,20.86011-12.1101,38.23-31.17,44.82007a49.15706,49.15706,0,0,1-16.19006,2.55q-140.20515-.01466-280.40992.07983c-21.53.06006-45.17-14.61987-47.96-44.08984.04993-2.99.15992-5.99.15992-8.98q.0152-221.66986.01-443.32007v-4.08008q.0002-120.26989-.01-240.52c0-1.65991-.11-3.31994-.16993-4.98,3.23-28.30993,21.67993-44.69995,50.29993-44.69995h274.4c30.79,0,51.05005,20.23,51.05005,50.91992Q2126.18561,1712.21472,2126.16058,2058.35974Zm2.39991-694.27c0-29.69995-21.77-51.30993-51.46-51.30993q-138.93-.015-277.9,0c-30.31995,0-51.03992,20.77-51.04993,51.16v177.93994c.02,21.65.16993,43.30005.26,64.94995v.93006c-.09008,1.31994-.25,2.64-.25,3.96008q-.015,223.43994,0,446.86987c.01,28.26,21.18994,49.53,49.67994,49.56006q35.52007.04468,71.06005.05,105.18.045,210.34-.06006c28.55994-.03,49.32-21.14014,49.33-49.76q.015-251.59515,0-503.17993Q2128.58551,1459.64972,2128.56049,1364.08972Zm-2.39991,694.27c0,20.86011-12.1101,38.23-31.17,44.82007a49.15706,49.15706,0,0,1-16.19006,2.55q-140.20515-.01466-280.40992.07983c-21.53.06006-45.17-14.61987-47.96-44.08984.04993-2.99.15992-5.99.15992-8.98q.0152-221.66986.01-443.32007v-4.08008q.0002-120.26989-.01-240.52c0-1.65991-.11-3.31994-.16993-4.98,3.23-28.30993,21.67993-44.69995,50.29993-44.69995h274.4c30.79,0,51.05005,20.23,51.05005,50.91992Q2126.18561,1712.21472,2126.16058,2058.35974Zm2.39991-694.27c0-29.69995-21.77-51.30993-51.46-51.30993q-138.93-.015-277.9,0c-30.31995,0-51.03992,20.77-51.04993,51.16v177.93994c.02,21.65.16993,43.30005.26,64.94995v.93006c-.09008,1.31994-.25,2.64-.25,3.96008q-.015,223.43994,0,446.86987c.01,28.26,21.18994,49.53,49.67994,49.56006q35.52007.04468,71.06005.05,105.18.045,210.34-.06006c28.55994-.03,49.32-21.14014,49.33-49.76q.015-251.59515,0-503.17993Q2128.58551,1459.64972,2128.56049,1364.08972Zm-2.39991,694.27c0,20.86011-12.1101,38.23-31.17,44.82007a49.15706,49.15706,0,0,1-16.19006,2.55q-140.20515-.01466-280.40992.07983c-21.53.06006-45.17-14.61987-47.96-44.08984.04993-2.99.15992-5.99.15992-8.98q.0152-221.66986.01-443.32007v-4.08008q.0002-120.26989-.01-240.52c0-1.65991-.11-3.31994-.16993-4.98,3.23-28.30993,21.67993-44.69995,50.29993-44.69995h274.4c30.79,0,51.05005,20.23,51.05005,50.91992Q2126.18561,1712.21472,2126.16058,2058.35974Zm2.39991-694.27c0-29.69995-21.77-51.30993-51.46-51.30993q-138.93-.015-277.9,0c-30.31995,0-51.03992,20.77-51.04993,51.16v177.93994c.02,21.65.16993,43.30005.26,64.94995v.93006c-.09008,1.31994-.25,2.64-.25,3.96008q-.015,223.43994,0,446.86987c.01,28.26,21.18994,49.53,49.67994,49.56006q35.52007.04468,71.06005.05,105.18.045,210.34-.06006c28.55994-.03,49.32-21.14014,49.33-49.76q.015-251.59515,0-503.17993Q2128.58551,1459.64972,2128.56049,1364.08972Zm-2.39991,694.27c0,20.86011-12.1101,38.23-31.17,44.82007a49.15706,49.15706,0,0,1-16.19006,2.55q-140.20515-.01466-280.40992.07983c-21.53.06006-45.17-14.61987-47.96-44.08984.04993-2.99.15992-5.99.15992-8.98q.0152-221.66986.01-443.32007v-4.08008q.0002-120.26989-.01-240.52c0-1.65991-.11-3.31994-.16993-4.98,3.23-28.30993,21.67993-44.69995,50.29993-44.69995h274.4c30.79,0,51.05005,20.23,51.05005,50.91992Q2126.18561,1712.21472,2126.16058,2058.35974Zm2.39991-694.27c0-29.69995-21.77-51.30993-51.46-51.30993q-138.93-.015-277.9,0c-30.31995,0-51.03992,20.77-51.04993,51.16v177.93994c.02,21.65.16993,43.30005.26,64.94995v.93006c-.09008,1.31994-.25,2.64-.25,3.96008q-.015,223.43994,0,446.86987c.01,28.26,21.18994,49.53,49.67994,49.56006q35.52007.04468,71.06005.05,105.18.045,210.34-.06006c28.55994-.03,49.32-21.14014,49.33-49.76q.015-251.59515,0-503.17993Q2128.58551,1459.64972,2128.56049,1364.08972Zm-2.39991,694.27c0,20.86011-12.1101,38.23-31.17,44.82007a49.15706,49.15706,0,0,1-16.19006,2.55q-140.20515-.01466-280.40992.07983c-21.53.06006-45.17-14.61987-47.96-44.08984.04993-2.99.15992-5.99.15992-8.98q.0152-221.66986.01-443.32007v-4.08008q.0002-120.26989-.01-240.52c0-1.65991-.11-3.31994-.16993-4.98,3.23-28.30993,21.67993-44.69995,50.29993-44.69995h274.4c30.79,0,51.05005,20.23,51.05005,50.91992Q2126.18561,1712.21472,2126.16058,2058.35974Zm2.39991-694.27c0-29.69995-21.77-51.30993-51.46-51.30993q-138.93-.015-277.9,0c-30.31995,0-51.03992,20.77-51.04993,51.16v177.93994c.02,21.65.16993,43.30005.26,64.94995v.93006c-.09008,1.31994-.25,2.64-.25,3.96008q-.015,223.43994,0,446.86987c.01,28.26,21.18994,49.53,49.67994,49.56006q35.52007.04468,71.06005.05,105.18.045,210.34-.06006c28.55994-.03,49.32-21.14014,49.33-49.76q.015-251.59515,0-503.17993Q2128.58551,1459.64972,2128.56049,1364.08972Zm-2.39991,694.27c0,20.86011-12.1101,38.23-31.17,44.82007a49.15706,49.15706,0,0,1-16.19006,2.55q-140.20515-.01466-280.40992.07983c-21.53.06006-45.17-14.61987-47.96-44.08984.04993-2.99.15992-5.99.15992-8.98q.0152-221.66986.01-443.32007v-4.08008q.0002-120.26989-.01-240.52c0-1.65991-.11-3.31994-.16993-4.98,3.23-28.30993,21.67993-44.69995,50.29993-44.69995h274.4c30.79,0,51.05005,20.23,51.05005,50.91992Q2126.18561,1712.21472,2126.16058,2058.35974Zm2.39991-694.27c0-29.69995-21.77-51.30993-51.46-51.30993q-138.93-.015-277.9,0c-30.31995,0-51.03992,20.77-51.04993,51.16v177.93994c.02,21.65.16993,43.30005.26,64.94995v.93006c-.09008,1.31994-.25,2.64-.25,3.96008q-.015,223.43994,0,446.86987c.01,28.26,21.18994,49.53,49.67994,49.56006q35.52007.04468,71.06005.05,105.18.045,210.34-.06006c28.55994-.03,49.32-21.14014,49.33-49.76q.015-251.59515,0-503.17993Q2128.58551,1459.64972,2128.56049,1364.08972Zm-2.39991,694.27c0,20.86011-12.1101,38.23-31.17,44.82007a49.15706,49.15706,0,0,1-16.19006,2.55q-140.20515-.01466-280.40992.07983c-21.53.06006-45.17-14.61987-47.96-44.08984.04993-2.99.15992-5.99.15992-8.98q.0152-221.66986.01-443.32007v-4.08008q.0002-120.26989-.01-240.52c0-1.65991-.11-3.31994-.16993-4.98,3.23-28.30993,21.67993-44.69995,50.29993-44.69995h274.4c30.79,0,51.05005,20.23,51.05005,50.91992Q2126.18561,1712.21472,2126.16058,2058.35974Zm2.39991-694.27c0-29.69995-21.77-51.30993-51.46-51.30993q-138.93-.015-277.9,0c-30.31995,0-51.03992,20.77-51.04993,51.16v177.93994c.02,21.65.16993,43.30005.26,64.94995v.93006c-.09008,1.31994-.25,2.64-.25,3.96008q-.015,223.43994,0,446.86987c.01,28.26,21.18994,49.53,49.67994,49.56006q35.52007.04468,71.06005.05,105.18.045,210.34-.06006c28.55994-.03,49.32-21.14014,49.33-49.76q.015-251.59515,0-503.17993Q2128.58551,1459.64972,2128.56049,1364.08972Zm-2.39991,694.27c0,20.86011-12.1101,38.23-31.17,44.82007a49.15706,49.15706,0,0,1-16.19006,2.55q-140.20515-.01466-280.40992.07983c-21.53.06006-45.17-14.61987-47.96-44.08984.04993-2.99.15992-5.99.15992-8.98q.0152-221.66986.01-443.32007v-4.08008q.0002-120.26989-.01-240.52c0-1.65991-.11-3.31994-.16993-4.98,3.23-28.30993,21.67993-44.69995,50.29993-44.69995h274.4c30.79,0,51.05005,20.23,51.05005,50.91992Q2126.18561,1712.21472,2126.16058,2058.35974Zm2.39991-694.27c0-29.69995-21.77-51.30993-51.46-51.30993q-138.93-.015-277.9,0c-30.31995,0-51.03992,20.77-51.04993,51.16v177.93994c.02,21.65.16993,43.30005.26,64.94995v.93006c-.09008,1.31994-.25,2.64-.25,3.96008q-.015,223.43994,0,446.86987c.01,28.26,21.18994,49.53,49.67994,49.56006q35.52007.04468,71.06005.05,105.18.045,210.34-.06006c28.55994-.03,49.32-21.14014,49.33-49.76q.015-251.59515,0-503.17993Q2128.58551,1459.64972,2128.56049,1364.08972Zm-2.39991,694.27c0,20.86011-12.1101,38.23-31.17,44.82007a49.15706,49.15706,0,0,1-16.19006,2.55q-140.20515-.01466-280.40992.07983c-21.53.06006-45.17-14.61987-47.96-44.08984.04993-2.99.15992-5.99.15992-8.98q.0152-221.66986.01-443.32007v-4.08008q.0002-120.26989-.01-240.52c0-1.65991-.11-3.31994-.16993-4.98,3.23-28.30993,21.67993-44.69995,50.29993-44.69995h274.4c30.79,0,51.05005,20.23,51.05005,50.91992Q2126.18561,1712.21472,2126.16058,2058.35974Zm2.39991-694.27c0-29.69995-21.77-51.30993-51.46-51.30993q-138.93-.015-277.9,0c-30.31995,0-51.03992,20.77-51.04993,51.16v177.93994c.02,21.65.16993,43.30005.26,64.94995v.93006c-.09008,1.31994-.25,2.64-.25,3.96008q-.015,223.43994,0,446.86987c.01,28.26,21.18994,49.53,49.67994,49.56006q35.52007.04468,71.06005.05,105.18.045,210.34-.06006c28.55994-.03,49.32-21.14014,49.33-49.76q.015-251.59515,0-503.17993Q2128.58551,1459.64972,2128.56049,1364.08972Zm-2.39991,694.27c0,20.86011-12.1101,38.23-31.17,44.82007a49.15706,49.15706,0,0,1-16.19006,2.55q-140.20515-.01466-280.40992.07983c-21.53.06006-45.17-14.61987-47.96-44.08984.04993-2.99.15992-5.99.15992-8.98q.0152-221.66986.01-443.32007v-4.08008q.0002-120.26989-.01-240.52c0-1.65991-.11-3.31994-.16993-4.98,3.23-28.30993,21.67993-44.69995,50.29993-44.69995h274.4c30.79,0,51.05005,20.23,51.05005,50.91992Q2126.18561,1712.21472,2126.16058,2058.35974Z" transform="translate(-1738.61844 -1307.90974)"/><path class="cls-1" d="M2134.30414,1492.02966v88.53c-.31006-.02-.62012-.03-.94019-.05005v-88.48Z" transform="translate(-1738.61844 -1307.90974)"/><path class="cls-1" d="M1741.65411,1600.75964q-.1201-26.475-.25-52.94995c2.54993-1.71008,2.09.47,2.1,1.72.05005,5.96.02,11.91992.02,17.87989,0,9.93.05,19.87011-.05005,29.8C1743.454,1598.50964,1744.664,1600.82959,1741.65411,1600.75964Z" transform="translate(-1738.61844 -1307.90974)"/><path class="cls-1" d="M1743.50409,1523.45959c0,1.47.22,3.57007-2.15991,1.3501q.19464-26.4602.36987-52.92c1.69006-.22009,1.82007.80993,1.82007,2.12Q1743.50391,1498.72943,1743.50409,1523.45959Z" transform="translate(-1738.61844 -1307.90974)"/><path class="cls-1" d="M1743.5141,1438.25964c.01,1.39991-.76,1.61-1.87,1.53q.04486-13.96509.04993-27.89013c1.12012-.06995,1.84009.17016,1.83008,1.57006Q1743.46405,1425.85962,1743.5141,1438.25964Z" transform="translate(-1738.61844 -1307.90974)"/><path class="cls-1" d="M2077.54047,1310.52979l-279.85-.03a49.34589,49.34589,0,0,0-14.79993,1.87c-20.17,6.27-31.88012,20.16-36.45007,40.48q-.15,131.86506-.29993,263.75-.015,220.80011-.01,441.64014c0,3.1499.18995,6.31006.29,9.47,7.09986,28.72,25.17993,42.82983,54.86988,42.82983q138.18-.03,276.35009.02a57.22387,57.22387,0,0,0,14.35-1.48c23.52991-6.04,38.47009-25.6499,38.47009-50.71q.03-347.58013,0-695.15991C2130.46063,1333.35974,2107.5705,1310.53979,2077.54047,1310.52979Zm51.03,747.85c-.01,28.61987-20.77,49.73-49.33,49.76q-105.18018.12012-210.34.06006-35.53491-.015-71.06005-.05c-28.49-.03-49.66993-21.30005-49.67994-49.56006q-.015-223.43976,0-446.86987c0-1.32007.15992-2.64014.25-3.96008v-.93006c-.09008-21.6499-.24-43.29992-.26-64.94995q-.04523-88.96527,0-177.93994c.01-30.39,20.73-51.16,51.04993-51.16q138.96-.015,277.9,0c29.68995,0,51.46,21.61,51.46,51.30993q.01464,95.54992.01,191.11011Q2128.60053,1806.78,2128.5705,2058.37976Z" transform="translate(-1738.61844 -1307.90974)"/><path class="cls-2" d="M1739.45148,1471.60474l-.02527,54.48523c-1.13843-10.39393-.41834-20.82129-.4408-31.2295C1738.96881,1487.113,1738.21954,1479.33252,1739.45148,1471.60474Z" transform="translate(-1738.61844 -1307.90974)"/><path class="cls-2" d="M1739.47882,1546.6521c.2749,18.17908.43848,36.35815-.08484,54.5365-1.06885-11.7406-.34765-23.50733-.41589-35.2605C1738.94086,1559.50842,1738.25494,1553.04736,1739.47882,1546.6521Z" transform="translate(-1738.61844 -1307.90974)"/><path class="cls-2" d="M1739.40375,1411.49805q.06408,14.68286.12829,29.3656A127.50369,127.50369,0,0,1,1739.40375,1411.49805Z" transform="translate(-1738.61844 -1307.90974)"/><path class="cls-2" d="M1960.90057,1328.20984q-22.42511.02985-44.84008-.02c-3.40992-.01-6.24,1.08-6.19,4.83.04,3.73,2.85,4.78,6.27,4.74,7.30994-.08,14.61988-.02991,21.91993-.02991,7.64,0,15.28-.04,22.92.0199,3.26.03,5.77991-1.11,5.9-4.56995C1967.02045,1329.34973,1964.34052,1328.19983,1960.90057,1328.20984Zm-.5,6.76c-7.47.02991-14.94006.0199-22.41.0199v.01c-7.30005,0-14.61.02-21.91-.01-1.46,0-3.37.20007-3.48-1.85-.13-2.39,1.87-2.30005,3.55005-2.30005q22.155.00018,44.32-.01c1.66.01,3.75-.15991,3.73,2.15015C1964.17059,1335.33972,1961.99054,1334.96985,1960.40057,1334.96985Z" transform="translate(-1738.61844 -1307.90974)"/><path class="cls-2" d="M1981.65057,1325.59973a1.76539,1.76539,0,0,0-.23.01,7.30756,7.30756,0,0,0-7,7.51,7.46272,7.46272,0,0,0,7.66956,7.25h.14038a7.55524,7.55524,0,0,0,7.05994-7.57,7.41414,7.41414,0,0,0-7.62183-7.20056Zm.17994,12.14c-3.18995-.00989-4.87-2.07-4.72-5.15a4.42179,4.42179,0,0,1,4.36-4.48,2.88307,2.88307,0,0,1,.59.03c2.78.15,4.42,2,4.57006,5C1986.31049,1335.95984,1984.72052,1337.74976,1981.83051,1337.73975Z" transform="translate(-1738.61844 -1307.90974)"/><path class="cls-2" d="M2117.80048,1711.77979q0-172.19971-.01-344.41c0-2.33.02-4.65991-.07984-6.99-1-21.57007-17.18017-37.29-38.81006-37.58-11.16-.15-22.33007-.06994-33.49-.02-6.41015.0299-8.15014,1.9-8.14013,8.43.02,9-5.12989,15.8999-13.79993,18.58-3.89,1.2-7.87,1.26-11.88,1.26q-73.47-.015-146.95-.02a56.74157,56.74157,0,0,1-7.48-.32c-11.51-1.57007-17.83007-8.77-17.8601-20.15015-.01-5.33984-2.14991-7.72-7.46-7.75989-11.65992-.06994-23.33008-.21008-34.99.09-22.66.59009-38.24,16.76-38.24,39.35q0,347.655-.23,695.31018c-.04,21.34985,16.40992,40.78979,40.40992,40.73q139.20008-.33033,278.4.02978c21.01.06006,41.00989-15.18994,40.87-41.12988C2117.45038,1942.04993,2117.80048,1826.90979,2117.80048,1711.77979Zm-2.5,347.89c0,20.32007-15.54,35.8999-36.09,35.92993q-75.46491.09009-150.93.02H1798.83051c-22.39991,0-37.67994-15.22-37.67994-37.55q-.01482-173.93994-.01-347.86987c.01-115.46008.27-230.92-.21-346.37012-.10009-24.33,17.82984-38.96,38.86988-38.54992,10.33007.20007,20.66.11,30.99-.01,4.15-.04993,5.98,1.34,5.92,5.82995-.13,11.46,6.69006,19.54,18,21.72a45.09751,45.09751,0,0,0,8.43.82007q75.22467.07489,150.43995.03a35.18637,35.18637,0,0,0,11.78-1.88c9.14991-3.2301,14.39991-10.35,14.2-20.05993-.09-4.8,1.66-6.57007,6.4-6.4801,10.66.19006,21.31995.02,31.98.05993,21.75.1001,37.36,15.83008,37.36,37.62012Z" transform="translate(-1738.61844 -1307.90974)"/><path class="cls-2" d="M2128.56049,1364.08972c0-29.69995-21.77-51.30993-51.46-51.30993q-138.93-.015-277.9,0c-30.31995,0-51.03992,20.77-51.04993,51.16v177.93994c.02,21.65.16993,43.30005.26,64.94995v.93006c-.09008,1.31994-.25,2.64-.25,3.96008q-.015,223.43994,0,446.86987c.01,28.26,21.18994,49.53,49.67994,49.56006q35.52007.04468,71.06005.05,105.18.045,210.34-.06006c28.55994-.03,49.32-21.14014,49.33-49.76q.015-251.59515,0-503.17993Q2128.58551,1459.64972,2128.56049,1364.08972Zm-2.39991,694.27c0,20.86011-12.1101,38.23-31.17,44.82007a49.15706,49.15706,0,0,1-16.19006,2.55q-140.20515-.01466-280.40992.07983c-21.53.06006-45.17-14.61987-47.96-44.08984.04993-2.99.15992-5.99.15992-8.98q.0152-221.66986.01-443.32007v-4.08008q.0002-120.26989-.01-240.52c0-1.65991-.11-3.31994-.16993-4.98,3.23-28.30993,21.67993-44.69995,50.29993-44.69995h274.4c30.79,0,51.05005,20.23,51.05005,50.91992Q2126.18561,1712.21472,2126.16058,2058.35974Zm-380.02-441.76q.045-131.87988.29993-263.75c-.73,1.76-.37,3.62012-.37,5.43006q-.03,351.98986,0,703.98986c0,1.81006-.34,3.66016.35009,5.44019-.10009-3.15991-.29-6.32007-.29-9.47Q1746.11536,1837.40974,1746.14056,1616.59973Z" transform="translate(-1738.61844 -1307.90974)"/><path class="cls-1" d="M2075.12054,1315.13977h-274.4c-28.62,0-47.07,16.39-50.29993,44.69995.05994,1.66.16993,3.32007.16993,4.98q0,120.25526.01,240.52v4.08008q.0002,221.65485-.01,443.32007c0,2.99-.11,5.99-.15992,8.98,2.78992,29.47,26.42993,44.1499,47.96,44.08984q140.205-.31494,280.40992-.07983a49.15706,49.15706,0,0,0,16.19006-2.55c19.05994-6.59009,31.17-23.96,31.17-44.82007q.015-346.14.01-692.3C2126.17059,1335.36975,2105.91058,1315.13977,2075.12054,1315.13977Zm-93.69995,10.47a1.76539,1.76539,0,0,1,.23-.01,7.41429,7.41429,0,0,1,7.63941,7.182l.00049.01806a7.55524,7.55524,0,0,1-7.05994,7.57h-.14a7.46272,7.46272,0,0,1-7.66993-7.24963v-.00037A7.30756,7.30756,0,0,1,1981.42059,1325.60974Zm-65.3601,2.58008q22.42493.045,44.84008.02c3.43995-.01,6.11988,1.13989,5.98,4.97-.12011,3.46-2.64,4.6-5.9,4.56995-7.64-.05994-15.28-.0199-22.92-.0199-7.30005,0-14.61-.05-21.91993.02991-3.42.04-6.23-1.01-6.27-4.74C1909.8205,1329.26978,1912.65057,1328.17981,1916.06049,1328.18982Zm161.13,770.11987q-139.1997-.36-278.4-.02978c-24,.05981-40.44995-19.38013-40.40992-40.73q.23968-347.65521.23-695.31018c0-22.59,15.58-38.75989,38.24-39.35,11.65992-.30005,23.33008-.15991,34.99-.09,5.31005.03992,7.44995,2.42,7.46,7.75989.03,11.38013,6.35009,18.58008,17.8601,20.15015a56.74157,56.74157,0,0,0,7.48.32q73.485,0,146.95.02c4.01,0,7.99-.06005,11.88-1.26,8.67-2.68,13.81995-9.58,13.79993-18.58-.01-6.53,1.73-8.40015,8.14013-8.43,11.15992-.04993,22.33-.13,33.49.02,21.62989.28992,37.81006,16.00989,38.81006,37.58.09986,2.33008.07984,4.66.07984,6.99q.015,172.20025.01,344.41c0,115.13-.3501,230.27014.26,345.4C2118.20038,2083.11975,2098.2005,2098.36975,2077.19049,2098.30969Z" transform="translate(-1738.61844 -1307.90974)"/><path class="cls-2" d="M1746.13409,2058.23962c0,3.15015.19007,6.31006.28992,9.47-1.82-2.56005-.97-5.49-.97-8.23q-.0749-233.055-.04993-466.11,0-115.65.04993-231.29993c0-3.07007-.88989-6.32007.99-9.22009q-.15,131.86487-.29993,263.75Q1746.0694,1837.41473,1746.13409,2058.23962Z" transform="translate(-1738.61844 -1307.90974)"/><path class="cls-2" d="M1741.71405,1471.88965q-.18,26.45983-.36987,52.92c-.63013-17.20007-.16016-34.41015-.26-51.62011C1741.08417,1472.61963,1741.46405,1472.29968,1741.71405,1471.88965Z" transform="translate(-1738.61844 -1307.90974)"/><path class="cls-2" d="M1741.65411,1600.75964c-.18-.28-.51-.56006-.51-.85009.03992-17.35987-.49-34.74.26-52.09986Q1741.52405,1574.28454,1741.65411,1600.75964Z" transform="translate(-1738.61844 -1307.90974)"/><path class="cls-2" d="M1741.694,1411.89954q-.0152,13.93506-.04993,27.89013A128.738,128.738,0,0,1,1741.694,1411.89954Z" transform="translate(-1738.61844 -1307.90974)"/><path class="cls-2" d="M1741.71405,1471.88965q-.18,26.45983-.36987,52.92c-1.07007-1.07007-.79-2.45007-.79-3.75q-.02985-22.57488,0-45.14013C1740.56415,1474.49963,1740.09418,1472.87964,1741.71405,1471.88965Z" transform="translate(-1738.61844 -1307.90974)"/><path class="cls-2" d="M1741.65411,1600.75964c-1.22009-.72-1.11-1.93-1.11-3.08007v-47.1399a3.32483,3.32483,0,0,1,.86-2.73Q1741.52405,1574.28454,1741.65411,1600.75964Z" transform="translate(-1738.61844 -1307.90974)"/><path class="cls-2" d="M1741.694,1411.89954q-.0152,13.93506-.04993,27.89013c-1.69006-1.20007-1.05993-3-1.08-4.56006q-.09009-9.405.01-18.81005C1740.58417,1414.85962,1739.924,1413.04968,1741.694,1411.89954Z" transform="translate(-1738.61844 -1307.90974)"/><path class="cls-2" d="M2128.57416,1555.19958q.03,251.58,0,503.17994c-.01,28.62011-20.77,49.73-49.33008,49.76025q-105.18.11974-210.34.05981-35.53509-.01464-71.05993-.05c-28.49012-.02979-49.67017-21.29981-49.68018-49.56006q-.01484-223.43976,0-446.86988c0-1.32006.16016-2.64.25-3.96a2.10127,2.10127,0,0,1,2.19006,1.65992q0,221.655-.00988,443.32006c0,2.99-.11011,5.99-.16016,8.98,2.79,29.47,26.43005,44.15015,47.96008,44.09009q140.205-.31494,280.41-.08008a49.14307,49.14307,0,0,0,16.18994-2.55c19.06006-6.59009,31.16992-23.96,31.16992-44.82007q.01465-346.13983.01-692.29981c0-30.69006-20.26-50.92-51.0498-50.92H1800.72406c-28.62,0-47.07,16.39-50.30005,44.69995.06006,1.66.17017,3.32.17017,4.9801q-.00018,120.2547.00988,240.5199a4.14178,4.14178,0,0,1-2.19006,1.49c-.08984-21.65-.24-43.29993-.25989-64.94995V1363.93958c.00989-30.3899,20.73-51.15992,51.04993-51.15992q138.96-.015,277.90015,0c29.68994,0,51.46,21.61,51.46,51.30994Q2128.57917,1459.6397,2128.57416,1555.19958Z" transform="translate(-1738.61844 -1307.90974)"/><path class="cls-2" d="M1750.60406,1605.3396v4.08q0,221.655-.00988,443.32006c0,2.99-.11011,5.99-.16016,8.98-1.60986-1.8999-.85986-4.15991-.85986-6.25q-.05988-220.545-.08008-441.1c0-2.20007.98-4.69006-1.08008-6.61v-.93c1.99011-1.74,1.08008-4.05994,1.08008-6.11q.07508-117.31475.08008-234.64c0-2.08-.75-4.35.84985-6.24.06006,1.66.17017,3.32.17017,4.9801Q1750.594,1485.0744,1750.60406,1605.3396Z" transform="translate(-1738.61844 -1307.90974)"/><path class="cls-2" d="M1960.90057,1328.20984q-22.42511.02985-44.84008-.02c-3.40992-.01-6.24,1.08-6.19,4.83.04,3.73,2.85,4.78,6.27,4.74,7.30994-.08,14.61988-.02991,21.91993-.02991,7.64,0,15.28-.04,22.92.0199,3.26.03,5.77991-1.11,5.9-4.56995C1967.02045,1329.34973,1964.34052,1328.19983,1960.90057,1328.20984Zm-.5,6.76c-7.47.02991-14.94006.0199-22.41.0199v.01c-7.30005,0-14.61.02-21.91-.01-1.46,0-3.37.20007-3.48-1.85-.13-2.39,1.87-2.30005,3.55005-2.30005q22.155.00018,44.32-.01c1.66.01,3.75-.15991,3.73,2.15015C1964.17059,1335.33972,1961.99054,1334.96985,1960.40057,1334.96985Z" transform="translate(-1738.61844 -1307.90974)"/><path class="cls-2" d="M1981.65057,1325.59973a1.76539,1.76539,0,0,0-.23.01,7.30756,7.30756,0,0,0-7,7.51,7.46272,7.46272,0,0,0,7.66956,7.25h.14038a7.55524,7.55524,0,0,0,7.05994-7.57,7.41414,7.41414,0,0,0-7.62183-7.20056Zm.17994,12.14c-3.18995-.00989-4.87-2.07-4.72-5.15a4.42179,4.42179,0,0,1,4.36-4.48,2.88307,2.88307,0,0,1,.59.03c2.78.15,4.42,2,4.57006,5C1986.31049,1335.95984,1984.72052,1337.74976,1981.83051,1337.73975Z" transform="translate(-1738.61844 -1307.90974)"/><path class="cls-2" d="M2117.80048,1711.77979q0-172.19971-.01-344.41c0-2.33.02-4.65991-.07984-6.99-1-21.57007-17.18017-37.29-38.81006-37.58-11.16-.15-22.33007-.06994-33.49-.02-6.41015.0299-8.15014,1.9-8.14013,8.43.02,9-5.12989,15.8999-13.79993,18.58-3.89,1.2-7.87,1.26-11.88,1.26q-73.47-.015-146.95-.02a56.74157,56.74157,0,0,1-7.48-.32c-11.51-1.57007-17.83007-8.77-17.8601-20.15015-.01-5.33984-2.14991-7.72-7.46-7.75989-11.65992-.06994-23.33008-.21008-34.99.09-22.66.59009-38.24,16.76-38.24,39.35q0,347.655-.23,695.31018c-.04,21.34985,16.40992,40.78979,40.40992,40.73q139.20008-.33033,278.4.02978c21.01.06006,41.00989-15.18994,40.87-41.12988C2117.45038,1942.04993,2117.80048,1826.90979,2117.80048,1711.77979Zm-2.5,347.89c0,20.32007-15.54,35.8999-36.09,35.92993q-75.46491.09009-150.93.02H1798.83051c-22.39991,0-37.67994-15.22-37.67994-37.55q-.01482-173.93994-.01-347.86987c.01-115.46008.27-230.92-.21-346.37012-.10009-24.33,17.82984-38.96,38.86988-38.54992,10.33007.20007,20.66.11,30.99-.01,4.15-.04993,5.98,1.34,5.92,5.82995-.13,11.46,6.69006,19.54,18,21.72a45.09751,45.09751,0,0,0,8.43.82007q75.22467.07489,150.43995.03a35.18637,35.18637,0,0,0,11.78-1.88c9.14991-3.2301,14.39991-10.35,14.2-20.05993-.09-4.8,1.66-6.57007,6.4-6.4801,10.66.19006,21.31995.02,31.98.05993,21.75.1001,37.36,15.83008,37.36,37.62012Z" transform="translate(-1738.61844 -1307.90974)"/><path class="cls-2" d="M2117.80048,1711.77979q0-172.19971-.01-344.41c0-2.33.02-4.65991-.07984-6.99-1-21.57007-17.18017-37.29-38.81006-37.58-11.16-.15-22.33007-.06994-33.49-.02-6.41015.0299-8.15014,1.9-8.14013,8.43.02,9-5.12989,15.8999-13.79993,18.58-3.89,1.2-7.87,1.26-11.88,1.26q-73.47-.015-146.95-.02a56.74157,56.74157,0,0,1-7.48-.32c-11.51-1.57007-17.83007-8.77-17.8601-20.15015-.01-5.33984-2.14991-7.72-7.46-7.75989-11.65992-.06994-23.33008-.21008-34.99.09-22.66.59009-38.24,16.76-38.24,39.35q0,347.655-.23,695.31018c-.04,21.34985,16.40992,40.78979,40.40992,40.73q139.20008-.33033,278.4.02978c21.01.06006,41.00989-15.18994,40.87-41.12988C2117.45038,1942.04993,2117.80048,1826.90979,2117.80048,1711.77979Zm-2.5,347.89c0,20.32007-15.54,35.8999-36.09,35.92993q-75.46491.09009-150.93.02H1798.83051c-22.39991,0-37.67994-15.22-37.67994-37.55q-.01482-173.93994-.01-347.86987c.01-115.46008.27-230.92-.21-346.37012-.10009-24.33,17.82984-38.96,38.86988-38.54992,10.33007.20007,20.66.11,30.99-.01,4.15-.04993,5.98,1.34,5.92,5.82995-.13,11.46,6.69006,19.54,18,21.72a45.09751,45.09751,0,0,0,8.43.82007q75.22467.07489,150.43995.03a35.18637,35.18637,0,0,0,11.78-1.88c9.14991-3.2301,14.39991-10.35,14.2-20.05993-.09-4.8,1.66-6.57007,6.4-6.4801,10.66.19006,21.31995.02,31.98.05993,21.75.1001,37.36,15.83008,37.36,37.62012Z" transform="translate(-1738.61844 -1307.90974)"/><path class="cls-2" d="M1960.90057,1328.20984q-22.42511.02985-44.84008-.02c-3.40992-.01-6.24,1.08-6.19,4.83.04,3.73,2.85,4.78,6.27,4.74,7.30994-.08,14.61988-.02991,21.91993-.02991,7.64,0,15.28-.04,22.92.0199,3.26.03,5.77991-1.11,5.9-4.56995C1967.02045,1329.34973,1964.34052,1328.19983,1960.90057,1328.20984Zm-.5,6.76c-7.47.02991-14.94006.0199-22.41.0199v.01c-7.30005,0-14.61.02-21.91-.01-1.46,0-3.37.20007-3.48-1.85-.13-2.39,1.87-2.30005,3.55005-2.30005q22.155.00018,44.32-.01c1.66.01,3.75-.15991,3.73,2.15015C1964.17059,1335.33972,1961.99054,1334.96985,1960.40057,1334.96985Z" transform="translate(-1738.61844 -1307.90974)"/><path class="cls-1" d="M1964.204,1332.97961c-.03,2.36-2.21,1.99-3.79993,1.99-7.47009.03-14.94006.02-22.41.02v.01c-7.3,0-14.61.02-21.90991-.01-1.46009,0-3.37012.2-3.48011-1.85-.13-2.39,1.87-2.30005,3.55005-2.30005q22.15485,0,44.32-.01C1962.13409,1330.8396,1964.22406,1330.66956,1964.204,1332.97961Z" transform="translate(-1738.61844 -1307.90974)"/><path class="cls-2" d="M1981.65057,1325.59973a1.76539,1.76539,0,0,0-.23.01,7.30756,7.30756,0,0,0-7,7.51,7.46272,7.46272,0,0,0,7.66956,7.25h.14038a7.55524,7.55524,0,0,0,7.05994-7.57,7.41414,7.41414,0,0,0-7.62183-7.20056Zm.17994,12.14c-3.18995-.00989-4.87-2.07-4.72-5.15a4.42179,4.42179,0,0,1,4.36-4.48,2.88307,2.88307,0,0,1,.59.03c2.78.15,4.42,2,4.57006,5C1986.31049,1335.95984,1984.72052,1337.74976,1981.83051,1337.73975Z" transform="translate(-1738.61844 -1307.90974)"/><path class="cls-1" d="M1986.63409,1333.13965c-.31994,2.81994-1.91,4.61-4.79992,4.6-3.19007-.01-4.87012-2.07006-4.7201-5.15a4.42187,4.42187,0,0,1,4.36-4.48,2.8842,2.8842,0,0,1,.59009.03C1984.84418,1328.28967,1986.48407,1330.13965,1986.63409,1333.13965Z" transform="translate(-1738.61844 -1307.90974)"/><path class="cls-3" d="M2088.97022,1347.55252c.00934.46679-.17733.55546-.58349.55078-1.51242-.01863-3.02015-.00467-4.53256-.00467-1.48905,0-2.9781-.00929-4.47182.00467-.39215.00468-.54623-.112-.54156-.53209.01869-1.82519.014-3.6457,0-5.47082-.00467-.35477.10269-.48082.46213-.48082q4.5933.014,9.17714,0c.4015,0,.49016.154.48549.52281C2088.95164,1343.9442,2088.94686,1345.7507,2088.97022,1347.55252Z" transform="translate(-1738.61844 -1307.90974)"/><path class="cls-3" d="M2095.90684,1340.12118H2087.668q-4.15227,0-8.29963.00467c-1.33508,0-1.95128.6068-1.95128,1.93248q-.007,2.73779,0,5.47083c0,1.49377.56947,2.07259,2.04929,2.07259q8.21324.007,16.42181,0c1.377,0,1.98388-.59751,1.98855-1.96057q.007-2.77274,0-5.53612C2097.8767,1340.742,2097.26517,1340.12585,2095.90684,1340.12118Zm1.39571,7.54336c-.00467.97565-.37346,1.35372-1.35377,1.35372-2.76806.00935-5.53145.00467-8.29951.00467-2.74482,0-5.48951.00468-8.23433,0-1.069,0-1.4144-.34542-1.41907-1.40038v-5.59225c.00467-.94288.37813-1.32563,1.31639-1.32563q8.32521-.007,16.65065,0c.96618,0,1.335.38742,1.33964,1.37235Q2097.30956,1344.87079,2097.30255,1347.66454Z" transform="translate(-1738.61844 -1307.90974)"/><path class="cls-3" d="M2055.74664,1344.396c0-1.17623.00946-2.35258-.00466-3.52863-.00564-.46969.19185-.67119.65914-.69346,1.622-.07729,1.62134-.08483,1.62116,1.54872q-.00035,3.0288-.001,6.05758c-.001.69421-.09591.79228-.77123.80231-1.70074.02527-1.50192.029-1.5051-1.48119-.00189-.90178-.00034-1.80356-.00034-2.70533Z" transform="translate(-1738.61844 -1307.90974)"/><path class="cls-4" d="M2054.02011,1345.21857c.00016.9004-.00749,1.80089.00347,2.70116.00528.43411-.16877.65906-.61836.66268-1.89481.01526-1.65431.10916-1.65934-1.55373-.00438-1.44845.013-2.89712-.00771-4.34529-.00771-.53887.16512-.78859.74-.78242,1.67618.018,1.54206-.13695,1.54175,1.49723Q2054.01981,1344.30838,2054.02011,1345.21857Z" transform="translate(-1738.61844 -1307.90974)"/><path class="cls-3" d="M2067.57011,1340.385a7.70614,7.70614,0,0,1,5.19422,2.05743c.31113.28466.57624.61351.20315.99652-.33557.34448-.66276.14-.97086-.13216a6.52662,6.52662,0,0,0-8.95594.00851c-.30962.27725-.62421.474-.96269.11586-.34027-.36-.1281-.67945.17308-.95674A7.76573,7.76573,0,0,1,2067.57011,1340.385Z" transform="translate(-1738.61844 -1307.90974)"/><path class="cls-3" d="M2047.74284,1346.06668c.00033-.60586.0086-1.21186-.00254-1.81752a.55285.55285,0,0,1,.58878-.64079c.01949-.00119.039-.00248.05854-.00263,1.88927-.01451,1.62733-.05721,1.6346,1.52646.00422.91854-.01094,1.83733.00591,2.75559.00925.50388-.21874.70025-.706.70339-1.83534.01179-1.56769.0061-1.57925-1.52776C2047.74038,1346.73119,2047.74252,1346.39893,2047.74284,1346.06668Z" transform="translate(-1738.61844 -1307.90974)"/><path class="cls-3" d="M2067.591,1343.27664a4.81443,4.81443,0,0,1,3.115,1.18555c.32163.27478.5778.59433.23783.99529-.328.38684-.64959.168-.96083-.09a3.64308,3.64308,0,0,0-4.92128.00452c-.32252.27142-.63948.4495-.9597.07538-.3177-.37118-.08929-.68434.20811-.95743A4.88638,4.88638,0,0,1,2067.591,1343.27664Z" transform="translate(-1738.61844 -1307.90974)"/><path class="cls-3" d="M2046.02032,1346.9812q0,.05883,0,.11764c.00158,1.53112-.24728,1.73342-1.79238,1.47775a.48442.48442,0,0,1-.47268-.50139,13.71029,13.71029,0,0,1,.01636-2.23123c.1405-.91962.94216-.40113,1.4482-.50018.37669-.07374.77817-.0214.7936.52.01061.3722.002.745.002,1.11745Z" transform="translate(-1738.61844 -1307.90974)"/><path class="cls-3" d="M2067.50761,1346.13874a2.07529,2.07529,0,0,1,.68976.10766c.966.34173,1.105.78971.48448,1.58637-.2278.29245-.43792.60062-.6852.87545a.56.56,0,0,1-.94847-.01307c-.28854-.34342-.56018-.7014-.83119-1.05908-.38661-.51026-.31627-.85655.23381-1.20122A1.94552,1.94552,0,0,1,2067.50761,1346.13874Z" transform="translate(-1738.61844 -1307.90974)"/><path class="cls-5" d="M2099.16973,1343.076c-.37346-.028-.54144.112-.5321.49477.01391.42948.00456.859.00456,1.28836h-.00456c0,.42947.00456.859,0,1.28836-.00934.37346.14462.53215.5321.50418a1.80314,1.80314,0,0,0,0-3.57567Zm.4154,2.83342c-.20536.112-.37335.14941-.36879-.182.00935-.29414.00479-.58816.00479-.87763,0-.21471-.014-.42942.00456-.64412.014-.15876-.10736-.39215.12148-.45284.168-.042.32206.112.44811.2334A1.235,1.235,0,0,1,2099.58513,1345.90939Z" transform="translate(-1738.61844 -1307.90974)"/><path class="cls-3" d="M2088.97022,1347.55252c.00934.46679-.17733.55546-.58349.55078-1.51242-.01863-3.02015-.00467-4.53256-.00467-1.48905,0-2.9781-.00929-4.47182.00467-.39215.00468-.54623-.112-.54156-.53209.01869-1.82519.014-3.6457,0-5.47082-.00467-.35477.10269-.48082.46213-.48082q4.5933.014,9.17714,0c.4015,0,.49016.154.48549.52281C2088.95164,1343.9442,2088.94686,1345.7507,2088.97022,1347.55252Z" transform="translate(-1738.61844 -1307.90974)"/><path class="cls-3" d="M1814.98545,1339.88135a3.72933,3.72933,0,0,0-6.54.18,6.82729,6.82729,0,0,0-.81982,3.84,7.19567,7.19567,0,0,0,.62988,3.36,3.61768,3.61768,0,0,0,3.26,2.33008,3.4825,3.4825,0,0,0,3.54-1.87012A7.60847,7.60847,0,0,0,1814.98545,1339.88135Zm-1.15991,5.77c-.32007,1.09-.59009,2.37-2.13013,2.25-1.44995-.11-1.83984-1.25-1.93994-2.45008a19.77311,19.77311,0,0,1-.01-3.16992c.09009-1.19995.48-2.38,1.89014-2.5,1.67993-.14,1.91992,1.26,2.24,2.45a7.59991,7.59991,0,0,1-.05005,3.42Z" transform="translate(-1738.61844 -1307.90974)"/><path class="cls-3" d="M1791.07554,1345.97131c-.353-.58008-.81348-.76562-.92651-1.03637-.39868-.95435.15967-1.92859-.1836-2.67359a5.01246,5.01246,0,0,0-.02-1.26c-.27-.90991.74024-2.26-.80981-2.68994-1.51-.42-2.45.35-3.14014,1.68994-.74,1.4-1.6499,2.69995-2.45,4.07007-1.69995,2.90991-1.55,3.1,1.78,3.24.87988.03,2.36987-.8501,2.61987.76.18116,1.08569,1.21338,1.55737,1.44556,1.27454a.20917.20917,0,0,0,.04468-.11463c.06274-1.13537-.02759-1.8269.21728-2.127.37793-.463,1.47242.1051,1.69507-.2948C1791.46153,1346.60559,1791.26988,1346.29065,1791.07554,1345.97131Zm-6.48-.61987c1.02-1.69006,1.98-3.28,3.07983-5.09009C1788.6356,1345.67139,1788.47544,1345.95129,1784.59556,1345.35144Z" transform="translate(-1738.61844 -1307.90974)"/><path class="cls-3" d="M1800.62526,1347.71888c1.54473,0,2.57414-.02434,3.60161.00958.57182.01888,1.32538-.16447,1.38685.773.06243.95208-.64607.87439-1.25711.8771-1.67768.00745-3.35562.01437-5.033-.00946-.48723-.00692-1.1292.18972-1.31894-.51229a1.4512,1.4512,0,0,1,.50951-1.41624c1.29723-1.323,2.61212-2.63038,3.86588-3.99362.85758-.93246,1.75133-2.078.53018-3.206-1.10964-1.025-2.32972-.66221-3.06771.66315-.39676.71255-1.01848.85825-1.51945.53315-.85447-.55451-.2016-1.26017.14873-1.80111,1.07654-1.66224,4.0266-2.089,5.69983-.87246,1.60128,1.16425,1.7785,3.00658.29262,4.86461C1803.42332,1344.92993,1802.1843,1346.07358,1800.62526,1347.71888Z" transform="translate(-1738.61844 -1307.90974)"/><path class="cls-3" d="M1793.30176,1341.16927c.06308-.97259.50337-1.3448,1.20964-1.33131a1.06427,1.06427,0,0,1,1.11876,1.181,1.015,1.015,0,0,1-1.18366,1.08732A1.06644,1.06644,0,0,1,1793.30176,1341.16927Z" transform="translate(-1738.61844 -1307.90974)"/><path class="cls-3" d="M1795.67412,1346.66871c-.08635.66033-.40793,1.141-1.14572,1.14753a1.07389,1.07389,0,0,1-1.20718-1.09283c-.03654-.76024.44374-1.08768,1.1396-1.14782C1795.22836,1345.50924,1795.558,1345.956,1795.67412,1346.66871Z" transform="translate(-1738.61844 -1307.90974)"/></svg>