<svg id="Layer_1" data-name="Layer 1" xmlns="http://www.w3.org/2000/svg" viewBox="0 0 185 185">
  <defs>
    <style>
      .cls-1, .cls-2 {
        fill: none;
      }

      .cls-2 {
        stroke: #e6e7e8;
        stroke-linecap: round;
        stroke-linejoin: round;
        stroke-width: 5px;
      }
    </style>
  </defs>
  <rect class="cls-1" x="2.5" y="3.17238" width="180" height="178.65523"/>
  <g>
    <path class="cls-2" d="M201.98913,150.8088l180-.33054L381.85332,330.356l-179.81523.12229Z" transform="translate(-199.48913 -147.97826)"/>
    <path class="cls-2" d="M266.216,302.026a17.22727,17.22727,0,0,0,6.55,6.246c7.60451,4.03679,15.228.30256,15.81945,0,7.43493-3.80332,9.13855-11.5083,9.341-12.50327q.16443-28.69983.32893-57.39956" transform="translate(-199.48913 -147.97826)"/>
    <path class="cls-2" d="M311.8157,300.54433a26.04564,26.04564,0,0,0,11.90881,8.03263c1.68154.5297,12.71037,3.79268,21.0926-3.04956,1.161-.94769,6.69439-5.46447,6.73827-12.41279.03847-6.09132-4.16556-10.31213-6.28629-12.4413-2.49955-2.50951-5.81306-4.15724-12.33807-7.35025-9.141-4.47314-10.665-4.28227-13.25617-7.04064-.88374-.94081-5.174-5.508-4.87521-12.08559a16.59705,16.59705,0,0,1,9.90414-13.9969c6.49151-2.85639,14.4114-1.07547,19.71368,4.52105" transform="translate(-199.48913 -147.97826)"/>
  </g>
</svg>
