<svg id="Layer_1" data-name="Layer 1" xmlns="http://www.w3.org/2000/svg" viewBox="0 0 1971.12 1132.90558"><defs><style>.cls-1,.cls-4{fill:#1a1a1a;}.cls-1,.cls-2{stroke:#000;stroke-miterlimit:10;}.cls-2,.cls-5{fill:#e3e4e6;}.cls-3{fill:#4d4d4d;}</style></defs><path class="cls-1" d="M2689.35-1295.17642c-.36011-.02-.72-.02-1.08008-.02H1202.27c-.43,0-.86.01-1.29.02a50.049,50.049,0,0,0-48.92,49.98v1002a49.6558,49.6558,0,0,0,2.87994,16.7c57.463.007,619.48474.07591,620.99.08a4.50368,4.50368,0,0,1,1.02539.13441,3.95688,3.95688,0,0,1,1.46466.74559h321.14a3.954,3.954,0,0,1,2.49-.88h.21q316.46988-.03,632.92-.08a49.65559,49.65559,0,0,0,2.88-16.7v-1002A50.04869,50.04869,0,0,0,2689.35-1295.17642Zm-744.78,22.98c.17-.01.34-.01.51-.01.1,0,.2,0,.3.01a9.96863,9.96863,0,0,1,9.45,9.94995,9.96869,9.96869,0,0,1-9.45,9.9502c-.1.01-.2.01-.3.01-.17,0-.34,0-.51-.01a9.95127,9.95127,0,0,1-9.66-9.9502A9.95121,9.95121,0,0,1,1944.57-1272.19644Zm752.91992,991.89a5.21319,5.21319,0,0,1-5.17993,5.24H1198.95a5.21332,5.21332,0,0,1-5.18-5.24v-943.23986a5.20685,5.20685,0,0,1,5.18-5.24H2692.31a5.20672,5.20672,0,0,1,5.17993,5.24Z" transform="translate(-959.5 1308.13202)"/><path class="cls-2" d="M2689.56-1304.01428c-.42993-.02-.86-.02-1.29-.02h-1486c-.5,0-1,.01-1.5.02a57.997,57.997,0,0,0-56.71,57.98V-244.03418q0,2.175.18005,4.56a58.70124,58.70124,0,0,0,2.26,12.14v.01l5.2699-.01a52.72721,52.72721,0,0,1-2.07984-8.55792,52.76824,52.76824,0,0,1-.63012-8.14209V-1246.03424a53.05512,53.05512,0,0,1,51.84009-52.98c.46-.01.90991-.02,1.36987-.02h1486c.39014,0,.77,0,1.16.02a53.055,53.055,0,0,1,51.63,52.98V-244.03418a52.70111,52.70111,0,0,1-2.71,16.7h5.26a55.54943,55.54943,0,0,0,1.48-6.09,58.362,58.362,0,0,0,.97-10.61005V-1246.03424A57.99632,57.99632,0,0,0,2689.56-1304.01428Z" transform="translate(-959.5 1308.13202)"/><path class="cls-2" d="M1945.37994-1272.63653c-.1-.00989-.2-.00989-.3-.00989-.17,0-.34,0-.51.00989a9.96865,9.96865,0,0,0-9.45,9.95007,9.96865,9.96865,0,0,0,9.45,9.95007c.17.01.34.01.51.01.1,0,.2,0,.3-.01a9.95128,9.95128,0,0,0,9.66-9.95007A9.95128,9.95128,0,0,0,1945.37994-1272.63653Zm-.3,15.91015a5.975,5.975,0,0,1-5.96-5.96008,5.96851,5.96851,0,0,1,5.96-5.96,5.96213,5.96213,0,0,1,5.96,5.96A5.96858,5.96858,0,0,1,1945.08-1256.72638Z" transform="translate(-959.5 1308.13202)"/><path class="cls-2" d="M2692.5199-1229.22638H1199.16a5.20685,5.20685,0,0,0-5.18,5.24v943.23993a5.21332,5.21332,0,0,0,5.18,5.24H2692.5199a5.21329,5.21329,0,0,0,5.18005-5.24v-943.23993A5.20683,5.20683,0,0,0,2692.5199-1229.22638ZM1199.16-280.74646v-943.23993H2692.5199v943.23993Z" transform="translate(-959.5 1308.13202)"/><path class="cls-2" d="M2741.27225-1245.632v1002a52.70145,52.70145,0,0,1-2.71008,16.7h-3.16993a49.65611,49.65611,0,0,0,2.88-16.7v-1002a50.05679,50.05679,0,0,0-50-50h-1486a50.05674,50.05674,0,0,0-50,50v1002a49.65635,49.65635,0,0,0,2.88,16.7h-3.17a52.70142,52.70142,0,0,1-2.71-16.7v-1002a53.06559,53.06559,0,0,1,53-53h1486A53.05916,53.05916,0,0,1,2741.27225-1245.632Z" transform="translate(-959.5 1308.13202)"/><path class="cls-2" d="M2750.27225-1245.632v1002a61.72933,61.72933,0,0,1-2.29993,16.7h-4.15014a57.89908,57.89908,0,0,0,2.45007-16.7v-1002a58.0033,58.0033,0,0,0-58-58h-1486a58.00322,58.00322,0,0,0-58,58v1002a58.24688,58.24688,0,0,0,2.45,16.7h-4.14a61.733,61.733,0,0,1-2.31-16.7v-1002a62.07912,62.07912,0,0,1,62-62h1486A62.07265,62.07265,0,0,1,2750.27225-1245.632Z" transform="translate(-959.5 1308.13202)"/><path class="cls-2" d="M1628.78226-198.572c-.26.87-.80005,2.7-9.04,2.94-.51.01-1.01.02-1.51.02-4.17,0-9.78-.50995-11.86005-1.93994a2.52546,2.52546,0,0,1-1.15-2.82c.26-.88.8-2.7,9.04-2.94.5-.01,1.01-.02,1.51-.02,4.17,0,9.78.51,11.86,1.93A2.53861,2.53861,0,0,1,1628.78226-198.572Z" transform="translate(-959.5 1308.13202)"/><path class="cls-2" d="M2251.73221-198.572a2.531,2.531,0,0,1,1.14-2.83c2.08-1.42,7.69-1.93,11.86-1.93.5,0,1.01.01,1.51.02,8.24.24,8.78,2.06,9.04,2.94a2.51781,2.51781,0,0,1-1.14,2.82c-2.09,1.43-7.69,1.93994-11.86,1.93994h-.01c-.5,0-1-.00995-1.5-.02C2252.52225-195.872,2251.98221-197.702,2251.73221-198.572Z" transform="translate(-959.5 1308.13202)"/><path class="cls-2" d="M2926.12-226.85644H2102.26a3.95377,3.95377,0,0,0-2.49.88h-321.14a3.95375,3.95375,0,0,0-2.49-.88H964a3.99887,3.99887,0,0,0-4,4v3.54a6.55584,6.55584,0,0,0,2.01,4.57c.71.75,2.16,2.25,7.24,4.43,5.09,2.18,13.81,5.04,29.1,8.47,19.04,4.28,44.17,8.57,72.66,12.4,64.80005,8.72,135.78,13.72,194.74,13.72H2580.87c121.48,0,205.41992-8.63,254.45-15.86,48.41992-7.14,86.60009-16.6,93.11-23.04.02-.02.04-.05.05994-.07a.17648.17648,0,0,1,.05005-.04c.07007-.08.13012-.16.19995-.24.03-.04.06006-.07.09009-.11a5.03484,5.03484,0,0,0,1.29-3.27v-4.5A3.9989,3.9989,0,0,0,2926.12-226.85644Zm-1961.22,9.35a2.73345,2.73345,0,0,1-.9-1.81v-3.54h808.14v5.35Zm1615.97,37.78H1265.74994c-118.18994,0-259.12-19.75-293.75995-33.77l-.11005-.01h802.88c3.71,2.46,10.05,3.59,14.93,3.59h301.62c5.28,0,9.38-1.18,12.46-3.59h813.97992C2887.92-202.34643,2777.7699-179.72644,2580.87-179.72644Z" transform="translate(-959.5 1308.13202)"/><path class="cls-3" d="M1945.37994-1272.63653c-.1-.00989-.2-.00989-.3-.00989-.17,0-.34,0-.51.00989a9.96865,9.96865,0,0,0-9.45,9.95007,9.96865,9.96865,0,0,0,9.45,9.95007c.17.01.34.01.51.01.1,0,.2,0,.3-.01a9.95128,9.95128,0,0,0,9.66-9.95007A9.95128,9.95128,0,0,0,1945.37994-1272.63653Zm-.3,15.91015a5.975,5.975,0,0,1-5.96-5.96008,5.96851,5.96851,0,0,1,5.96-5.96,5.96213,5.96213,0,0,1,5.96,5.96A5.96858,5.96858,0,0,1,1945.08-1256.72638Z" transform="translate(-959.5 1308.13202)"/><circle class="cls-4" cx="1945.08223" cy="-1262.68202" r="5.95997" transform="translate(1767.59567 2228.605) rotate(-76.71742)"/><path id="mac-screen" class="cls-3" d="M2692.5199-1229.22638H1199.16a5.20685,5.20685,0,0,0-5.18,5.24v943.23993a5.21332,5.21332,0,0,0,5.18,5.24H2692.5199a5.21329,5.21329,0,0,0,5.18005-5.24v-943.23993A5.20683,5.20683,0,0,0,2692.5199-1229.22638ZM1199.16-280.74646v-943.23993H2692.5199v943.23993Z" transform="translate(-959.5 1308.13202)"/><path class="cls-3" d="M1628.78226-198.572c-.26.87-.80005,2.7-9.04,2.94-.51.01-1.01.02-1.51.02-4.17,0-9.78-.50995-11.86005-1.93994a2.52546,2.52546,0,0,1-1.15-2.82c.26-.88.8-2.7,9.04-2.94.5-.01,1.01-.02,1.51-.02,4.17,0,9.78.51,11.86,1.93A2.53861,2.53861,0,0,1,1628.78226-198.572Z" transform="translate(-959.5 1308.13202)"/><path class="cls-3" d="M2274.14224-197.552c-2.09,1.43-7.69,1.93994-11.86,1.93994h-.01c-.5,0-1-.00995-1.5-.02-8.25-.24-8.79-2.07-9.04-2.94a2.531,2.531,0,0,1,1.14-2.83c2.08-1.42,7.69-1.93,11.86-1.93.5,0,1.01.01,1.51.02,8.24.24,8.78,2.06,9.04,2.94A2.51781,2.51781,0,0,1,2274.14224-197.552Z" transform="translate(-959.5 1308.13202)"/><path class="cls-3" d="M2750.27225-1245.632v1002a61.72933,61.72933,0,0,1-2.29993,16.7h-4.15014a57.89908,57.89908,0,0,0,2.45007-16.7v-1002a58.0033,58.0033,0,0,0-58-58h-1486a58.00322,58.00322,0,0,0-58,58v1002a58.24688,58.24688,0,0,0,2.45,16.7h-4.14a61.733,61.733,0,0,1-2.31-16.7v-1002a62.07912,62.07912,0,0,1,62-62h1486A62.07265,62.07265,0,0,1,2750.27225-1245.632Z" transform="translate(-959.5 1308.13202)"/><path class="cls-3" d="M2741.27225-1245.632v1002a52.70145,52.70145,0,0,1-2.71008,16.7h-3.16993a49.65611,49.65611,0,0,0,2.88-16.7v-1002a50.05679,50.05679,0,0,0-50-50h-1486a50.05674,50.05674,0,0,0-50,50v1002a49.65635,49.65635,0,0,0,2.88,16.7h-3.17a52.70142,52.70142,0,0,1-2.71-16.7v-1002a53.06559,53.06559,0,0,1,53-53h1486A53.05916,53.05916,0,0,1,2741.27225-1245.632Z" transform="translate(-959.5 1308.13202)"/><path class="cls-3" d="M2926.12-226.85644H2102.26a3.95377,3.95377,0,0,0-2.49.88h-321.14a3.95375,3.95375,0,0,0-2.49-.88H964a3.99887,3.99887,0,0,0-4,4v3.54a6.55584,6.55584,0,0,0,2.01,4.57c.71.75,2.16,2.25,7.24,4.43,5.09,2.18,13.81,5.04,29.1,8.47,19.04,4.28,44.17,8.57,72.66,12.4,64.80005,8.72,135.78,13.72,194.74,13.72H2580.87c121.48,0,205.41992-8.63,254.45-15.86,48.41992-7.14,86.60009-16.6,93.11-23.04.02-.02.04-.05.05994-.07a.17648.17648,0,0,1,.05005-.04c.07007-.08.13012-.16.19995-.24.03-.04.06006-.07.09009-.11a5.03484,5.03484,0,0,0,1.29-3.27v-4.5A3.9989,3.9989,0,0,0,2926.12-226.85644Zm-823.86,4.88v4.47c-1.94,1.95-5.08,3.59-10.95,3.59h-301.62c-5.87,0-11.6-1.64-13.55-3.59v-4.47Zm-1137.36,4.47a2.73345,2.73345,0,0,1-.9-1.81v-3.54h808.14v5.35Zm1615.97,37.78H1265.74994c-118.18994,0-259.12-19.75-293.75995-33.77l-.11005-.01h802.88c3.71,2.46,10.05,3.59,14.93,3.59h301.62c5.28,0,9.38-1.18,12.46-3.59h813.97992C2887.92-202.34643,2777.7699-179.72644,2580.87-179.72644Zm345.25-38.63a1.33922,1.33922,0,0,1-.46.85H2106.26v-5.35h819.86Z" transform="translate(-959.5 1308.13202)"/><path class="cls-5" d="M1772.14224-222.852v5.35h-807.24a2.73342,2.73342,0,0,1-.9-1.81v-3.54Z" transform="translate(-959.5 1308.13202)"/><path class="cls-5" d="M2103.77-213.50647c-3.08,2.41-7.18,3.59-12.46,3.59h-301.62c-4.88,0-11.22-1.13-14.93-3.59h-802.88l.11005.01c34.64,14.02,175.57,33.77,293.75995,33.77H2580.87c196.8999,0,307.05-22.62,336.87988-33.78Zm-474.99,14.93c-.26.87006-.8,2.7-9.04,2.94-.50995.01-1.00995.02-1.50995.02-4.17,0-9.78-.51-11.86005-1.94a2.52545,2.52545,0,0,1-1.15-2.82c.26-.88.8-2.7,9.04-2.94.5-.01,1.01-.01995,1.51-.01995,4.17,0,9.78.50994,11.86,1.93A2.53852,2.53852,0,0,1,1628.78-198.57648Zm645.36,1.02c-2.09,1.43-7.69,1.94-11.86,1.94h-.01c-.5,0-1-.01-1.5-.02-8.25-.24-8.79-2.07-9.04-2.94a2.53077,2.53077,0,0,1,1.13995-2.82995c2.08-1.42005,7.69-1.93,11.86005-1.93.5,0,1.01.00994,1.51.01995,8.24.24,8.78,2.06,9.04,2.94A2.51769,2.51769,0,0,1,2274.14-197.55646Z" transform="translate(-959.5 1308.13202)"/></svg>