<svg preserveAspectRatio="none" xmlns="http://www.w3.org/2000/svg" viewBox="0 0 945.36362 184.23697"><defs><style>.cls-1{fill:#76abcf;}.cls-2{fill:#d86149;}.cls-3{fill:#ffd6ce;}.cls-4{fill:#ec9c8c;}.cls-5{fill:#feece9;}</style></defs><path class="cls-1" d="M709.22,397.79c.01.95-1.44995,1.26-2.75.68-12.11-5.4-26.83-5.62-39.92-9.13-3.62-.97-4.87-2.53-5.57-4.67-.58-1.77-1.34-3.58-1.27-5.36.19-5.46.5-9.93-11.61-7.36-4.74,1-4.63-3.74-4.95-6.37-.81-6.49-2.86-12.67-8.79-18-1.49-1.34-3.46-2.2-7.12-3.26a5.14348,5.14348,0,0,1,.52-.2c3.01-.98,5.54.82,7.6,2.24,6.56,4.54,7.57,10.63,9.67,16.4a9.94952,9.94952,0,0,1,.31,2.98c.18,3.51,2.35,5.33,7.93,4.34,5.88995-1.05,7.8.82,8.25,4.6,1.53,12.88,1.69995,12.79,20.21,16.26,7.09,1.33,14.39,2.22,21.16,4.26,4.35,1.31,4.49-.39,4.23-2.54-.28-2.3-2.57-3.87-4.29-5.67-3.18-3.34-4.29-6.71.83-9.77-2.31994,4.22-2.24,7.85,3.55,11.13C711.53,390.79,709.18,394.58,709.22,397.79Z" transform="translate(-54.86636 -295.65448)"/><path class="cls-2" d="M1000.23,372.27v31.94c-2.48.18-3.06-1.94-6.35-2.56v12.91c-6.44-8.39-10.95-16.72-7.2-26.15,1.48-3.73-2.7-6.64-5.72-10.42-2.28,3.81-1.93,7.42-5.46,11.23-.65-5.85-.3-10.57-4.24-15.19a22.0922,22.0922,0,0,0-11.84-7.52c-5.17-1.44-10.56-8.62-9.36-12.21,7.21,5.04,16.78,7.08,26.09,9.59A178.884,178.884,0,0,1,1000.23,372.27Z" transform="translate(-54.86636 -295.65448)"/><path class="cls-2" d="M439.43,394.24c.02,1.29-.8,2.31-2.51,2.81-8.03,2.36-10.52,7.02-11.31,13.96-10.22-10.5-22.36-8.31-33.73-3.63-6.39,2.63-1.02,7.93-2.57,12.27-3.55-.65-5.16-2.68-7.32-4.31-13.36-10.04-18.92-22.46-23.75-35.14-1.25-3.29-1.81-6.87-7.54-8.56-3.8-1.11-5.94-1.43-5.74,2.15.22,3.93.05,7.87.05,12.56-1.9-.96-2.5-1.1-2.58-1.33-.87-2.49-.21-6.21-4.08-6.84-3.1-.51-5.33,2.97-8.11,4.56a17.44208,17.44208,0,0,0-2.01,1.45c-8.9,6.93-9.34,7.05-14.13995-1.06-3.04-5.12-9.91-7.21-15.45-10.25-3.13-1.71-3.69.82-3.77,2.54-.15,3.35,3.78,6.18,1.93,9.88-4.72-8.34-16.33-14.18-16.99-24.11-.49-7.55-2.71-15.06-4.39-22.56-.57995-2.6-3.35-4.44-6.73-7.32-.09-.07-.17-.14-.26-.22v11.9c-8.14-3.06-10.98-8.24-15.81-12.22-1.41-1.16.3-2.53,1.12-3.7,2.89-4.14,3.56-8.39-.82-12.07-3.42-2.86-2.01-7.13-6.69-9.44l-.18-.09c-2.23-.05-3.36-.58-3.93-1.36a2.5498,2.5498,0,0,1-.47-1.08,12.35327,12.35327,0,0,1-.15-2.3c.52-1.6,1.04-3.2,3.42-4.1,2.37-1.82,4.19-.76,6.09.48a141.06324,141.06324,0,0,0,29.37,14.02c2.68.96,3.84,2.21,4.36,4.2,1.62,6.2,3.84,12.33,5.29,18.55.62,2.67,2.15,3.93,5.93,4.86,32.31,7.89,64.62,15.79,96.03,25.27,3.53,1.07,6.15,2.28,8.16,4.6,3.83,4.45,8.4,8.59,12.39,12.97,4.71,5.16,13.45,6.43,20.03,9.78C434.71,392.45,437.14,393.29,439.43,394.24Z" transform="translate(-54.86636 -295.65448)"/><path class="cls-3" d="M244.92,296.63c-.61,1.26-1.21,2.52-1.81,3.78a36.69822,36.69822,0,0,1-.99,3.7c-3.07,9.42-9.73,18.1-12.99,27.49-1.35,3.9-7.11,4.94-11.83,6.09-6.81,1.67-9.62,4.47-8.89,9.38a32.68545,32.68545,0,0,1-.24,10.44c-.65,3.75-3.17,6.27-9.32,6.26a18.26424,18.26424,0,0,0-11.42,3.95,43.13086,43.13086,0,0,1-20.24,8.58c-4.2.61-6.43,2.46-5.88,5.39,1.57,8.25-3.96,15.17-8.73,22.28-1.47,2.2-3.72,3.31-7.17005,3.72-5.81994.69-11.7.93-17.54,1.43a320.12279,320.12279,0,0,0-40.9,6.09c-2.01.44-4.02.78-6.05,1.02a99.13342,99.13342,0,0,1-20.81.02c-1.44-.02-2.87-.03-4.31-.05v-.27c.01-1.93.03-3.85.04-5.78A82.17763,82.17763,0,0,0,91.98,402.51c8.97-4.26,17.98-8.52,27.43-12.24,9.01-3.54,15.21-8.56,19.58-14.71,3.23-4.56,9.46-6.95,15.34-8.84,11.47-3.69,17.55-9.1,19.89-17.61,1.79-6.52,10.83-10.02,18.48-13.52,4.63-2.12,8.35-4.66,10.92-7.81,7.33-9.01,17.49-16.62,26.32-24.89a32.586,32.586,0,0,1,4.47-3.92C237.28,297.09,240.11,294.7,244.92,296.63Z" transform="translate(-54.86636 -295.65448)"/><path class="cls-2" d="M709.22,397.79c.01.95-1.44995,1.26-2.75.68-12.11-5.4-26.83-5.62-39.92-9.13-3.62-.97-4.87-2.53-5.57-4.67-.58-1.77-1.34-3.58-1.27-5.36.19-5.46.5-9.93-11.61-7.36-4.74,1-4.63-3.74-4.95-6.37-.81-6.49-2.86-12.67-8.79-18-1.49-1.34-3.46-2.2-7.12-3.26-.31-.09-.64-.18-.98-.28.14.19.27.39.4.58,4.97,7.38,5.47,13.8-1.61,20.13-2.5-3.99-2.71-7.95-2.64-11.96.06-3.34-1.09-6.25-6.49-7.39-8.18-1.73-10.88995-5.54-9.74-11.07.4-1.95.01-3.98-.01-5.97-.06-.06-.12-.13-.18-.19-3.49-3.72-2.36-7.69-1.48-11.65.05-.22.09-.43.14-.65a4.44755,4.44755,0,0,1,.38-.48,2.79311,2.79311,0,0,1,2.66-1.02c4.61-.61,7.19,1.33,9.74,3.45,9.14,7.57,18,15.34,30.89,20.3a5.82558,5.82558,0,0,1,3.79,3.53c2.12,7.2,9.4,11.66,17.34,16.01,11.61,6.36,22.83,13.02,34.21,19.56-2.31994,4.22-2.24,7.85,3.55,11.13C711.53,390.79,709.18,394.58,709.22,397.79Z" transform="translate(-54.86636 -295.65448)"/><path class="cls-3" d="M607.69,314.37c-.5.34-1.01.67-1.52,1.01a14.20571,14.20571,0,0,0-1.66,1.14,17.74451,17.74451,0,0,0-4.75,6.56c-1.75,3.52-4.01,7.02-9.36,8.55-8.98,2.56-12.24,7.49-12.53,13.44-.26,5.32-2.97,9.45-8.75,13.1-6.21,3.92-6.52,9.9-9.38,14.94-2.42,4.25-5.4,6.24-12.33,5.72-5.84-.44-11.4,1.29-17.19,1.75-1.03.07-2.06.11-3.11.09-.83-.01-1.68.09-2.51.09a4.585,4.585,0,0,1-2.4-.55c-1.03-2.3-2.07-4.61-3.11-6.91.62994-5.85,6.13995-10.5,10.46-14.91,6.2-6.31,11.44-12.96,17.24-19.39,4.2-4.65,10.82-6.9,17.52-8.31,5.25-1.1,8.53-2.87,11.16-5.69,5.08-5.46,12.51-9.23,20.42-12.44C599.81,310.96,605.22,309.48,607.69,314.37Z" transform="translate(-54.86636 -295.65448)"/><path class="cls-3" d="M947.28,372.79a190.03871,190.03871,0,0,1-15.5,18c-1.80005,1.78-5.23,2.48-8.66,1.87-6.14-1.08-8.74,1.18-9.68,4.75-1.51,5.79-6.29,10.39-11.45,14.85a9.531,9.531,0,0,1-3.85,2.3,6.82232,6.82232,0,0,1-4.19-.35Q883.555,412.77,873.14,411.32c4.88-6.68,12.87-12.31,12.46-20.71-.17-3.74,3.71-7.67,6.66-10.83,2.4-2.56,8.74-3.75,13.67-4.85,11.86-2.63,18.93-9.15,27.3-14.63,3.87-2.53,7.05005-5.59,12.34-6.95a4.061,4.061,0,0,1,.11.92c1.54,2.7.07,5.59.93,8.34l.09.27a4.919,4.919,0,0,0,.26.58,18.27115,18.27115,0,0,0,.5,2.42C948.09,368.31,948.86,370.79,947.28,372.79Z" transform="translate(-54.86636 -295.65448)"/><path class="cls-2" d="M827.39,405.32c-3.75,1.91-4.49,6.68-8.89,6.74-3.85.04-8.02-2.7-11.61-4.59-4.54-2.38-5.87.65-8.31,1.86-1.52.76-2.46,2.52-4.59,2.1-2.25-.44-1.34-2.25-1.93-3.44-2.44-4.94.7-10.71-5.22-15.16-1.66-1.25-2.69-2.96-5.67-2.41-3.4.61-2,2.67-2.28,4.19a10.85922,10.85922,0,0,1-1.13,4.06c-5.15-4.57-14.08-7.58-12.17-14.84.99-3.73-1.3-6.23-5.94-8.19-2.64-1.12-4.76-2.79-7.12-4.21,20.71.04,37.54,5.58,48.68,17.33C808.03,395.95,816.87,401.1,827.39,405.32Z" transform="translate(-54.86636 -295.65448)"/><path class="cls-3" d="M500.42,389.62a6.676,6.676,0,0,1-1.54,3.6,11.45762,11.45762,0,0,1-5.4,3.42,19.83919,19.83919,0,0,1-4.74.91c-.16.02-.31.03-.47.04a47.21145,47.21145,0,0,0-19.21,4.83q-.78.405-1.53.84c-2.49,3.12-5.6,1.88995-8.47.41-4.66-2.4-9.17-4.93-13.74-7.41-1.81-3.9,3.13-3.8,6.19-4.54,10.4-2.54,20.82-5.08,31.39-7.27,6.74-1.39,8.88-5.6,13.05-8.57,1.02-.73,1.32-2.41,3.6-1.46.51.22.3,1.23.43,1.87a11.51437,11.51437,0,0,1,.35,1.24C501.34,381.55,500.84,385.61,500.42,389.62Z" transform="translate(-54.86636 -295.65448)"/><path class="cls-4" d="M750.96,371.33c-5.29,6.08-10.44,12.16-10.78,19.55-.11,2.35-2.9,1.95-5.58,1.52-7.17-1.17-10.8-5.49-16.36-8.07a3.93878,3.93878,0,0,1,.96-.81,8.98867,8.98867,0,0,1,3.84-1.14,17.39649,17.39649,0,0,0,10.81-5.17c2.58-2.44,5.48-5.03,11.01-3.98Q747.905,372.27,750.96,371.33Z" transform="translate(-54.86636 -295.65448)"/><path class="cls-3" d="M744.86,373.23c-3.44.57-7.03,1.7-8.31,3.72-3.23,5.09-9.17,6.6-16.05,7.21-.74.07-1.5.12-2.26.17-2.12-.86-4.5-1.49-5.8-3.06,8.63-5.77,19.14-8.79,31.1-9.61C743.9,371.64,744.42,372.68,744.86,373.23Z" transform="translate(-54.86636 -295.65448)"/><path class="cls-4" d="M501.31,391.11c-.32,6.48-3.02,8.3-12.42,8.06-4.87-.12-8.58.51-10.77,3.67-3.12,4.5-7.08,0-10.59.42.07-.19.15-.37.23-.54,3.09-6.53,12.42-5.25,19.48-6.37,6.46-1.02,10.8-3.25,12.2-7.11a8.2464,8.2464,0,0,0,.49-2.54c.12-2.85.07-5.7.06-8.56-.01-.61-.01-1.23-.01-1.85.44-.02.88-.04,1.33-.07h.01C501.33,381.18,501.56,386.15,501.31,391.11Z" transform="translate(-54.86636 -295.65448)"/><path class="cls-2" d="M517.43,373.32c-1.37,2.92-2.61,5.87-4.17,8.73-.72,1.32-3.63,2.52-3.69.52-.15-4.73-6.31-7.68-6.58-12.17005,2.92,1.14,6.11.77,9.24.85C514.41,371.3,517.5,370.58,517.43,373.32Z" transform="translate(-54.86636 -295.65448)"/><path class="cls-5" d="M1000.23,404.21v73.84c-2.32,1.5-5.25,1.68-8.23,1.75-3.44.08-6.88.05-10.32.05q-400.755,0-801.5-.21c-38.3-.06-76.63-.62-114.95-.82-3.18-.02-6.44.07-9.2-1.33-2.22-6.63-.51-13.35-.89-20.02a4.84585,4.84585,0,0,1,.8-.65q-.015-8.625-.02-17.25A3.38336,3.38336,0,0,1,55.05,438.4c.01-7.25-.13-14.5.07-21.75a2.60843,2.60843,0,0,1,.68-.72v.27c1.44.02,2.87.03,4.31.05,2.3,1.44,5.14.89,7.75.87,6.88-.04,13.79-.12,20.46,1.12,13.99,2.61,27.34,2.13,39.96-3.13a44.86733,44.86733,0,0,1,25.76-2.7A40.026,40.026,0,0,0,177.12,410c4.5-1.78,7.74-3.65,7.12-7.73-.61-3.95-.06-7.97-.17-11.96-.13-4.3,1.99-6.81,8.91-8.07,9.24-1.68,17.98-.3,26.92.31,2.12.15,4.5,1.36,6.18-.05,1.94-1.63.54-3.44-.58-5.13-5.93-9.01-10.15-18.19-9.06-28.31.4-3.71,1.84-5.68,7.22-6.86,11.48-2.5,11.68006-3.05,12.17005-11.34.31-5.31,1.52-10.37,6.56-14.91,3.2-2.87,6.75-6.23,3.75-10.35.03-.01.06-.03.09-.04,4.68,2.31,3.27,6.58,6.69,9.44,4.38,3.68,3.71,7.93.82,12.07-.82,1.17-2.53,2.54-1.12,3.7,4.83,3.98,7.67,9.16,15.81,12.22v-11.6a1.96639,1.96639,0,0,1,.26-.08c3.38,2.88,6.15,4.72,6.73,7.32,1.68,7.5,3.9,15.01,4.39,22.56.66,9.93,12.27,15.77,16.99,24.11,1.85-3.7-2.08-6.53-1.93-9.88.08-1.72.64-4.25,3.77-2.54,5.54,3.04,12.41,5.13,15.45,10.25,4.8,8.11,5.24,7.99,14.14,1.06a17.44208,17.44208,0,0,1,2.01-1.45c2.78-1.59,5.01-5.07,8.11-4.56,3.87.63,3.21,4.35,4.08,6.84.08.23.68.37,2.58,1.33,0-4.69.17-8.63-.05-12.56-.2-3.58,1.94-3.26,5.74-2.15,5.73,1.69,6.29,5.27,7.54,8.56,4.83,12.68,10.39,25.1,23.75,35.14,2.16,1.63,3.77,3.66,7.32,4.31,1.55-4.34-3.82-9.63995,2.57-12.27,11.37-4.68,23.51-6.87,33.73,3.63.79-6.94,3.28-11.6,11.31-13.96,1.71-.5,2.53-1.52,2.51-2.81,2.17.4,3.35,2.12,5.89,2.02,4.57,2.48,9.08,5.01,13.74,7.41,2.87,1.48,5.98,2.71,8.47-.41,3.51-.42,7.47,4.08,10.59-.42,2.19-3.16,5.9-3.79,10.77-3.67,9.4.24,12.1-1.58,12.42-8.06.25-4.96.02-9.93.01-14.89h-.01c.77-1.91-1.37-4.21,1.68-5.82.27,4.49,6.43,7.44,6.58,12.17005.06,2,2.97.8,3.69-.52,1.56-2.86,2.8-5.81,4.17-8.73.55,0,1.11-.01,1.66-.02,1.04,2.3,2.08,4.61,3.11,6.91a4.585,4.585,0,0,0,2.4.55c13.67,3.03,28.26,4.29,40.68005,9.83,2.67,1.19,3.48-.89,3.98-2.41,2.85-8.68,5-17.46,13.14-24.97a14.04082,14.04082,0,0,0,4.81-12.68c-.36-2.58-1.4-5.6,1.2-7.77,5.8-4.86005,10.05-10.62,17.76-14.4.02,1.99.41,4.02.01,5.97-1.15,5.53,1.56,9.34,9.74,11.07,5.4,1.14,6.55,4.05,6.49,7.39-.06994,4.01.14,7.97,2.64,11.96,7.08-6.33,6.58-12.75,1.61-20.13a3.49224,3.49224,0,0,1,.58-.3c3.66,1.06,5.63,1.92,7.12,3.26,5.93,5.33,7.98,11.51,8.79,18,.31995,2.63.21,7.37,4.95,6.37,12.11-2.57,11.8,1.9,11.61,7.36-.07,1.78.69,3.59,1.27,5.36.7,2.14,1.95,3.7,5.57,4.67,13.09,3.51,27.81,3.73,39.92,9.13,1.30005.58,2.76.27,2.75-.68-.04-3.21,2.31006-7-2.01-9.44-5.79-3.28-5.87-6.91-3.55-11.13q4.39509,2.02506,8.78,4.05c1.3,1.57,3.68,2.2,5.8,3.06,5.56,2.58,9.19,6.9,16.36,8.07,2.68005.43,5.47.83,5.58-1.52.34-7.39,5.49-13.47,10.78-19.55.52.03,1.03.07,1.56.1h.01c2.36,1.42,4.48,3.09,7.12,4.21,4.64,1.96,6.93,4.46,5.94,8.19-1.91,7.26,7.02,10.27,12.17,14.84a10.85922,10.85922,0,0,0,1.13-4.06c.28-1.52-1.12-3.58,2.28-4.19,2.98-.55,4.01,1.16,5.67,2.41,5.92,4.45,2.78,10.22,5.22,15.16.59,1.19-.32,3,1.93,3.44,2.13.42,3.07-1.34,4.59-2.1,2.44-1.21,3.77-4.24,8.31-1.86,3.59,1.89,7.76,4.63,11.61,4.59,4.4-.06,5.14-4.83,8.89-6.74,14.57,4.38995,30.35,4.54,45.75,6Q883.55,412.76,893.95,414.21c3.34,1.34,6.59,2.81,10.03,4.01,10.95,3.8,10.98,3.76,12.14-4.37,1.14-7.94,6.72-10.87,17.65-9.14a15.72665,15.72665,0,0,0,7.19-.03c1.32-.41,2.51-.68,1.59-2.15-3.26-5.21-.57-10.07,2.72-14.75,5.9-8.38,8.79-16.81,1.94-25.61-.58-2.63,1.05-5.45-1.53-7.9a4.061,4.061,0,0,0-.11-.92c2.47-1.81,3.35-.14,4.49.95-1.2,3.59,4.19,10.77,9.36,12.21a22.0922,22.0922,0,0,1,11.84,7.52c3.94,4.62,3.59,9.34,4.24,15.19,3.53-3.81,3.18-7.42,5.46-11.23,3.02,3.78,7.2,6.69,5.72,10.42-3.75,9.43.76,17.76,7.2,26.15V401.65C997.17,402.27,997.75,404.39,1000.23,404.21Z" transform="translate(-54.86636 -295.65448)"/><path class="cls-4" d="M242.39,315.95c-5.04,4.54-6.25,9.6-6.56,14.91-.49,8.29-.69,8.84-12.17005,11.34-5.37994,1.18-6.81994,3.15-7.22,6.86-1.09,10.12,3.13,19.3,9.06,28.31,1.12,1.69,2.52,3.5.58,5.13-1.68,1.41-4.06.2-6.18.05-8.94-.61-17.68005-1.99-26.92-.31-6.92,1.26-9.04,3.77-8.91,8.07.11,3.99-.44,8.01.17,11.96.62,4.08-2.62,5.95-7.12,7.73a40.026,40.026,0,0,1-23.08,2.41,44.86733,44.86733,0,0,0-25.76,2.7c-12.62006,5.26-25.97,5.74-39.96,3.13-6.67-1.24-13.58-1.16-20.46-1.12-2.61.02-5.45.57-7.75-.87A71.83868,71.83868,0,0,0,74,415.81c9.27-1.13,18.14-3.59,27.33-5.15,14.14-2.38,28.9-3.16,43.44-4.37,3.49-.29,4.44-1.18,5.97-3.24,5.74-7.7,10.45-15.39,7.95-24.27-.75-2.66,2.78-3.1,5.09-3.34,10.4-1.12,17.81995-5.25,24.36-10.37a12.42594,12.42594,0,0,1,9.64-2.78c6.48.74,8.23-1.98,8.42-5.48.24-4.65.23-9.32.03-13.97-.11-2.61.42-4.33,5.06-4.85,14.77-1.65,18.12-9.68,20.85-17.83,2.01-6.02,6.18-11.47,9.51-17.13.50995-.87,1-1.74,1.46-2.62-.21,2-.1,3.92,2.94,5.06.03.04.06.09.09.13C249.14,309.72,245.59,313.08,242.39,315.95Z" transform="translate(-54.86636 -295.65448)"/><path class="cls-4" d="M606.17,315.38v12.98c-7.71,3.78-11.96,9.54-17.76,14.4-2.6,2.17-1.56,5.19-1.2,7.77a14.04082,14.04082,0,0,1-4.81,12.68c-8.14,7.51-10.29,16.29-13.14,24.97-.5,1.52-1.31,3.6-3.98,2.41-12.42-5.54-27.01-6.8-40.68005-9.83-.8-.17-1.6-.36005-2.4-.55a47.04867,47.04867,0,0,0,5.05-.36c8.59-1.03,16.85-3.79,25.96-2.26,2.13.36,2.46-1.23,3.03-2.32,1.39-2.62,3.42-5.15,4.22-7.84,1.71-5.77,6.01-10.24,12.37-14.19,5.02-3.12,2-7.88,3.51-11.84,1.7-4.49,3.66-8.31,10.44-9.94C594.6,329.57,596.85,325.07,598.78,320.4c1.03-2.48,1.96-4.84,6.25-5.01A8.58409,8.58409,0,0,1,606.17,315.38Z" transform="translate(-54.86636 -295.65448)"/><path class="cls-4" d="M945.27,387.78c-3.29,4.68-5.98,9.54-2.72,14.75.92,1.47-.27,1.74-1.59,2.15a15.72665,15.72665,0,0,1-7.19.03c-10.93-1.73-16.51,1.2-17.65,9.14-1.16,8.13-1.19,8.17-12.14,4.37-3.44-1.2-6.69-2.67-10.03-4.01.59-.15,1.16-.32,1.7-.49,8.06995-2.67,10.75-8.28,14.4-13.27,1.25-1.71.94-3.92,1.85-5.78,1.61-3.28,5.39-4.84,10.25-4.06,6.5,1.03,12.75-1.28,12.94-5.8.15-3.4,1.69-5.59,6.09-7.23,3.46-1.28,4.86-3.54,4.53-6.33a56.06474,56.06474,0,0,1,.01-6.98,1.19627,1.19627,0,0,0,.59-.8c0-.01.01-.03.01-.04a2.23864,2.23864,0,0,1,.29-.82,1.20684,1.20684,0,0,1,.6-.44C954.06,370.97,951.17,379.4,945.27,387.78Z" transform="translate(-54.86636 -295.65448)"/><path class="cls-4" d="M947.21,362.17c-.17.24-.34.47-.51.71-.12.18-.25.37-.38.55l-.02.02c-.19.27-.38.55-.58.82,0-.61,0-1.21-.01-1.82q-.015-4.09506-.03-8.18C948.26,356.72,946.63,359.54,947.21,362.17Z" transform="translate(-54.86636 -295.65448)"/></svg>