<svg id="Layer_1" data-name="Layer 1" xmlns="http://www.w3.org/2000/svg" viewBox="0 0 410.03423 88.31344"><defs><style>.cls-1{fill:#6a97e0;}.cls-2{fill:#71adde;}.cls-3{fill:#7fd4dd;}.cls-4{fill:#7ed1dd;}.cls-5{fill:#6ea4df;}.cls-6{fill:#6588e1;}.cls-7{fill:#7bcadd;}.cls-8{fill:#6c9edf;}.cls-9{fill:#76bcde;}.cls-10{fill:#79c5de;}.cls-11{fill:#6fa7df;}.cls-12{fill:#75b9de;}.cls-13{fill:#7dcede;}.cls-14{fill:#78c1de;}.cls-15{fill:#73b3de;}.cls-16{fill:#6483e1;}.cls-17{fill:#73b5df;}.cls-18{fill:#7dcfde;}.cls-19{fill:#6ea3df;}.cls-20{fill:#80dadd;}.cls-21{fill:#6993e0;}.cls-22{fill:#6b99e0;}.cls-23{fill:#84e2dd;}.cls-24{fill:#678ce0;}.cls-25{fill:#6c9ddf;}.cls-26{fill:#6587e1;}.cls-27{fill:#80d7dd;}.cls-28{fill:#81dddd;}.cls-29{fill:#82dddd;}.cls-30{fill:#83e2dd;}.cls-31{fill:#76bbde;}.cls-32{fill:#82dedd;}.cls-33{fill:#87eadd;}.cls-34{fill:#7bc9dd;}.cls-35{fill:#637ee2;}.cls-36{fill:#7ed4dd;}.cls-37{fill:#6fa9df;}.cls-38{fill:#75b8de;}.cls-39{fill:#6890e0;}.cls-40{fill:#72b0de;}.cls-41{fill:#6fa8df;}.cls-42{fill:#7ed1de;}.cls-43{fill:#6da1df;}.cls-44{fill:#86e6dd;}.cls-45{fill:#7bcbdd;}.cls-46{fill:#74b7de;}.cls-47{fill:#72b1de;}.cls-48{fill:#6c9cdf;}.cls-49{fill:#89eedc;}.cls-50{fill:#70abdf;}.cls-51{fill:#83e0dd;}.cls-52{fill:#fefefe;}</style></defs><path class="cls-1" d="M188.25521,297.76824l3.43168,7.70326a61.07848,61.07848,0,0,0,.48361-7.97312,14.09757,14.09757,0,0,1,.25288-3.99534c.455.89456.93164,1.16361,1.95677.54q4.10046-2.49453,8.30585-4.82091c.72378-.40138,1.393-1.03229,2.34327-.80342l-.31446,18.40348c-4.495,2.70292-9.08638,5.24065-13.60262,7.907-1.89121,1.11655-3.81806,2.17032-5.71253,3.28094-.49556.2905-.99062.67616-1.63848.43277L177.926,303.91436a11.664,11.664,0,0,1,3.72359-2.47152A66.91067,66.91067,0,0,1,188.25521,297.76824Z" transform="translate(-152.28329 -247.66035)"/><path class="cls-2" d="M313.71936,286.81568l.126,1.21519a21.98309,21.98309,0,0,1,5.2739-5.75667,10.35441,10.35441,0,0,1,9.66036-1.44064c2.4782.82487,3.7376,3.08936,4.44044,5.57054a1.29522,1.29522,0,0,1-.60059,1.7768c-2.93407,1.75474-5.87662,3.49587-8.88418,5.12359a.71747.71747,0,0,1-.89245-.04968c-1.67639-2.25055-2.17344-2.2916-4.13165-.185-2.03754,2.192-3.10929,4.94273-4.29928,7.61987-1.56527,1.79916-3.81149,2.57035-5.77205,3.76269-1.83643,1.11687-3.68063,2.23013-5.58011,3.2432-.65147.34746-1.32875.999-2.06578.513-.66527-.43868-.20914-1.29349-.30305-1.95669a1.10291,1.10291,0,0,1,.12928-.77772c.15087-6.6308.60437-13.25608.36358-19.89412a.70447.70447,0,0,1,.312-.68967c.52528.51732.40866,1.191.41561,1.819.02257,2.03481.01856,4.07.00442,6.10491-.00709,1.02022.25175,1.43378,1.303.81756,2.86689-1.68048,5.71361-3.40072,8.64951-4.95547C312.73333,288.21842,312.83042,287.1541,313.71936,286.81568Z" transform="translate(-152.28329 -247.66035)"/><path class="cls-3" d="M542.88978,277.42418c-.03081-.96481-.13318-1.934-.07374-2.89328.0688-1.11038-.41358-1.48682-1.42442-1.26975a31.3126,31.3126,0,0,1-6.74476.2633c-1.05633-.003-1.48752.224-1.539,1.39942-.12626,2.88419-.43644,5.76035-.67261,8.63975-2.16666,1.77607-4.77308,2.83587-7.10866,4.33926a21.39008,21.39008,0,0,1-2.51649,1.42452c-1.6164.75368-2.14435.41711-2.12235-1.32324a1.57668,1.57668,0,0,1,.137-.9343,68.69049,68.69049,0,0,1,.33021-8.67128c1.12462-1.392,2.82529-1.92621,4.29272-2.77316,10.34-5.96772,20.64151-12.00237,31.02256-17.899.57594-.32715,1.14836-.9102,1.90008-.32982l-.04692,5.83553a15.72523,15.72523,0,0,0,.06916,4.82211l-.00676-.01476c.40248,1.51635-.95594,1.77333-1.76935,2.25251q-5.88535,3.467-11.82163,6.84953C544.21072,277.47605,543.62116,277.98572,542.88978,277.42418Z" transform="translate(-152.28329 -247.66035)"/><path class="cls-4" d="M558.37033,257.39658c-2.04533.4302-3.64735,1.76266-5.3955,2.75433-8.06886,4.5772-16.06858,9.27577-24.10581,13.90877-2.55559,1.47318-5.02718,3.09746-7.714,4.33887-.20016-1.45433.6454-3.33265-.35244-4.2688-.90555-.84954-2.7396-.16887-4.16018-.27152-.10577-.00765-.21094-.02363-.31639-.03573-.09435-.94932.65046-1.28933,1.27632-1.65562,4.671-2.73374,9.37883-5.40391,14.06183-8.11712.64406-.37317,1.31628-.80575,2.06788-.19247-.14766,1.31642.39778,1.7274,1.73792,1.65291,2.03282-.113,4.071-.05083,6.103-.32408.77265-.10391.97585-.38364.99283-1.10079.05075-2.14243.29573-4.2881.22026-6.42389-.11825-3.34488,1.56829-5.45491,4.33908-6.90963a17.21694,17.21694,0,0,1,9.528-1.73666c1.072.082,1.81185.46889,1.76485,1.78108C558.33925,252.9941,558.37993,255.19624,558.37033,257.39658Z" transform="translate(-152.28329 -247.66035)"/><path class="cls-5" d="M252.58,305.23a4.38875,4.38875,0,0,1-.08,2.07c-.43,1.45-1.75,2.33-3.34,3.22-8.28,4.62-16.44,9.43-24.65,14.18a4.02849,4.02849,0,0,1-1.33.57,10.71987,10.71987,0,0,1-6.12-6.17c3.14-1.57,6.09-3.49,9.16-5.17a5.443,5.443,0,0,1,1.53-.75h.01a.06.06,0,0,1,.04-.01c.84.26.97,1.1,1.36,1.71,1.32,2.07,1.92005,2.2,3.97.78a12.93681,12.93681,0,0,0,3.42-3.8,28.88249,28.88249,0,0,0,3.78-8.82,3.21766,3.21766,0,0,1,.49-1.18c.02-.01.03-.02.05-.03a.9111.9111,0,0,1,.13-.08c2.72-1.75,5.61-3.24,8.39-4.88.64-.38,1.27-.8,1.95-1.12.5-.25,1.00995-.68,1.62-.23C253.1,298.76,252.69,301.99,252.58,305.23Z" transform="translate(-152.28329 -247.66035)"/><path class="cls-6" d="M167.85826,279.69143l-.89222-1.5994-.44489,2.886a25.26672,25.26672,0,0,1-4.3777,2.7227c-2.18764,1.276-4.35865,2.58112-6.57248,3.81168-1.678.93272-2.10273.70154-2.08492-1.14425a6.51193,6.51193,0,0,1,.12109-2.23811,73.918,73.918,0,0,1,.31721-9.61044c6.68565-3.65973,13.26394-7.50548,19.81307-11.40173l4.16164,10.43144c.37271.74182-.16884,1.09577-.659,1.39283-2.64966,1.60592-5.3652,3.09976-8.04015,4.66318C168.7967,279.841,168.33052,280.0707,167.85826,279.69143Z" transform="translate(-152.28329 -247.66035)"/><path class="cls-7" d="M414.77733,322.9577a17.63741,17.63741,0,0,1-5.16138-10.322c.73-.9444,1.88979-1.20889,2.85507-1.77342,9.71336-5.68074,19.48456-11.2622,29.20554-16.93.63139-.36814,1.25487-.87811,2.08842-.6583-2.14608,8.04982-6.78619,13.88516-14.92154,16.49674-2.17217.6973-4.48654.32617-6.7215.17616-.97075-.06516-1.00207.245-.88029.91535a14.4812,14.4812,0,0,0,2.5312,6.65165c.15553.59068-.2481.90857-.64536,1.15822-2.43569,1.53067-4.93,2.96268-7.46781,4.31767A.69442.69442,0,0,1,414.77733,322.9577Z" transform="translate(-152.28329 -247.66035)"/><path class="cls-8" d="M183.76119,318.44287q9.30414-5.34236,18.60764-10.68585a4.5253,4.5253,0,0,1,2.346-.93485q-.00871,3.40218-.01734,6.80436a62.281,62.281,0,0,0-.08613,7.054,2.15479,2.15479,0,0,1-1.20715,2.19119c-4.35121,2.43846-8.64948,4.97048-12.97911,7.44741-.62773.35913-1.26678.8815-2.07661.403C186.55226,326.72854,185.32657,322.52245,183.76119,318.44287Z" transform="translate(-152.28329 -247.66035)"/><path class="cls-9" d="M374.57,293.58c-.05,4.42-.28,8.84-.63,13.24a56.39818,56.39818,0,0,1-6.87,4.13995c-7.74,4.53-15.56,8.9-23.23,13.53a.61821.61821,0,0,1-.6.09,10.98043,10.98043,0,0,1-4.85-5.8,77.58287,77.58287,0,0,1,7.38-4.44,16.25564,16.25564,0,0,1,3.28-1.78.035.035,0,0,1,.02-.01c.02-.01.04-.01.06-.02.88.44.94,1.38,1.29,2.13.98,2.13,2.08,2.43,4.02,1.1a13.48377,13.48377,0,0,0,4.07-4.69c1.7-3.05,3.26-6.16,3.45-9.75a3.00047,3.00047,0,0,1,.56-1.65c.02-.01.03-.02.05-.03.03-.01.06-.03.09-.04,3.27-1.66,6.36005-3.63,9.56-5.4C372.92,293.81,373.61,293.1,374.57,293.58Z" transform="translate(-152.28329 -247.66035)"/><path class="cls-10" d="M443.76,293.27c-7.52,4.35-15.01,8.77-22.59,13.01-3.84,2.15-7.45,4.7-11.55,6.36-.03-.32-.06-.63-.08-.94-.34-.51.02-1.12-.26-1.63-.01-1.51-.02-3.02-.03-4.54,3.69-2.51,7.67-4.51,11.5-6.79a1.22143,1.22143,0,0,1,1.39-.09.35056.35056,0,0,1,.08.05c.01,0,.02.01.03.02.39,1-.22,1.89-.3,2.83-.07.79.1,1.17.96.86,5.28-1.9,10.34-5.9,10.17005-12.62a26.87907,26.87907,0,0,0-.39-5.45,298.24676,298.24676,0,0,1,.08-.16,3.39752,3.39752,0,0,1,1.69-1.34,40.694,40.694,0,0,1,5.16-2.78c3.2,1.91,4.09,5.06,4.48,8.43A11.70068,11.70068,0,0,1,443.76,293.27Z" transform="translate(-152.28329 -247.66035)"/><path class="cls-11" d="M293.70689,282.9571c3.38757,4.58227,3.54473,9.03123.44585,12.8328A16.47145,16.47145,0,0,1,289.806,299.829a6.37963,6.37963,0,0,1-1.91957.79636c-2.54017.49712-2.798.19316-2.38062-2.31312a8.22124,8.22124,0,0,0-.61685-5.34315c-.89656-1.70209-2.05951-1.90836-3.41424-.5577a20.96293,20.96293,0,0,0-4.61778,7.96266c-.84228,1.079-2.24123,1.14906-3.3235,1.81907-2.91128,1.80225-5.90264,3.47635-8.882,5.16693-.49885.28306-.98986.67738-1.6375.42652l.02946-2.27654c.32078-1.18794-.1106-2.426.24159-3.61188l.05055-1.5363c4.97-3.0124,10.05081-5.83505,15.06537-8.77117,4.646-2.7203,9.34593-5.34786,13.97257-8.1016A2.66983,2.66983,0,0,1,293.70689,282.9571Z" transform="translate(-152.28329 -247.66035)"/><path class="cls-12" d="M411.17671,273.17441a89.44113,89.44113,0,0,1-9.50884.36359c-.90827-.05263-1.2168.27082-1.2319,1.18212-.02042,1.23084-.2092,2.4589-.32575,3.68815-1.21954,1.354-2.97217,1.86844-4.46835,2.7806-1.88037,1.1464-3.77515,2.2801-5.72108,3.31848-.53929.28778-1.0487.842-1.75338.34928q.04011-1.78746.08019-3.57493c.25521-2.20292.04753-4.41363.11149-6.61647-.02352-.79555.58166-1.083,1.14751-1.40118,3.51789-1.97814,6.96375-4.0841,10.51042-6.00706.92648-.50232,1.14206-.997.84007-1.88644,4.22582.354,8.42559-.19688,12.63215-.40915a22.957,22.957,0,0,1,8.35076.90316c.576.8578-.06979,1.31871-.64434,1.66878A104.09373,104.09373,0,0,1,411.17671,273.17441Z" transform="translate(-152.28329 -247.66035)"/><path class="cls-13" d="M534.08,252.18c.12,3.9-.24,7.79-.35,11.68-2.29.24-3.93,1.82-5.83,2.85-3.29,1.8-6.5,3.74-9.76,5.58a4.6447,4.6447,0,0,0-1.81,1.53c-1.4.02-2.81,0-4.2.06a2.4044,2.4044,0,0,1-2.5-1.09c-.35-.63-.69-.53-1.11-.06-2.77,3.15-6.44,3.35-10.23,3.05a3.369,3.369,0,0,1-2.39-1.2.86579.86579,0,0,1,.47-1.08,15.16219,15.16219,0,0,1,4.22-2.29,2.666,2.666,0,0,0,.3-.05,2.12581,2.12581,0,0,0-.07.44c1.56-.24,2.18-1.61,3.12-2.6a2.48968,2.48968,0,0,1,.03-.27h.01c2.45-.87,4.49-2.51,6.83-3.58.25,1.15,1.01,1.29,2.09,1.33,2.42.09,4.8-.43,7.21-.35.91.03,1.07-.42,1.02-1.18a63.86925,63.86925,0,0,1-.24-8.18c1.04.34.65,1.23.68,1.89.1,2.62.07,2.63,2.39,1.25,2.62-1.56,5.27-3.07,7.93-4.56a2.40759,2.40759,0,0,0,1.49-2.53,2.51125,2.51125,0,0,1,.4-2.13C534.3,251.1,534.07,251.68,534.08,252.18Z" transform="translate(-152.28329 -247.66035)"/><path class="cls-14" d="M343.23562,324.58374c2.47363-2.09322,5.43043-3.4108,8.1907-5.03646,6.60366-3.88927,13.25958-7.69014,19.89934-11.51812a8.7912,8.7912,0,0,1,2.61814-1.20574c.17614,3.8838-.33072,7.75-.30067,11.63-2.71639,1.825-5.63084,3.3146-8.45,4.96557a1.35467,1.35467,0,0,1-1.22837.19231,13.50284,13.50284,0,0,1-1.52007-3.52019,16.34469,16.34469,0,0,1-7.15336,5.38765A14.21593,14.21593,0,0,1,343.23562,324.58374Z" transform="translate(-152.28329 -247.66035)"/><path class="cls-15" d="M400.85709,265.37055c1.47309.93691,1.434,1.05729-.21222,1.97693-4.04628,2.2604-8.07064,4.55984-12.10381,6.84359-.20219-.01316-.23448-.198-.32654-.32234-3.01383.00043-6.02826-.03338-9.04121.01865a2.49039,2.49039,0,0,1-2.49671-1.39577q-1.31556-2.49191-2.65208-4.97272c-.46922-.86628-.1655-1.10634.737-1.08887,1.99054.03856,3.98675-.0713,5.97245.03379,2.21784.11738,4.38569-.43643,6.59138-.34241.69987.02984.94651-.27818.92809-.95975-.03186-1.18059-.00413-2.36278-.00141-3.54431a1.80437,1.80437,0,0,0,2.26966.02128c2.9995-1.74483,5.96338-3.55356,9.02264-5.19425.48062-.25776.94056-.79636,1.59029-.33982A64.51871,64.51871,0,0,1,400.85709,265.37055Z" transform="translate(-152.28329 -247.66035)"/><path class="cls-16" d="M173.73742,263.11788c-.8149,1.53379-2.48074,1.93634-3.80777,2.73424-4.63278,2.78555-9.34964,5.43145-14.022,8.15185a3.28223,3.28223,0,0,1-1.98313.51563c.14834-5.49952.309-10.99876.43766-16.49875.03745-1.6013-.01668-3.20473-.02882-4.80718.83715.176.64647.88594.67234,1.41393.06564,1.33877.01157,2.68156.02662,4.02256.02075,1.84841.22616,1.98823,1.76732,1.09549,4.36449-2.52817,8.78227-4.96566,13.06641-7.631Z" transform="translate(-152.28329 -247.66035)"/><path class="cls-17" d="M374.92,281.8c-.01,1.02-.02,2.04-.04,3.06q-4.815,2.925-9.77,5.65c-.5.27-1.07.63-1.57.1a.75084.75084,0,0,1-.15-.16.2919.2919,0,0,1-.02-.09,5.60977,5.60977,0,0,1,.32-3.65,26.45461,26.45461,0,0,0-12.28,11.79c-.03.01-.05.03-.07995.04v.01a1.30241,1.30241,0,0,0-.17005.08c-4.3,2.25-8.38995,4.85-12.63995,7.18-.53.29-1.04.84-1.75.37a19.83547,19.83547,0,0,1,2.88-9.71c6.89-3.64,13.51-7.75,20.29-11.58a20.78944,20.78944,0,0,1,3.66-1.97c.25.34.5.67.86,1.16a2.67963,2.67963,0,0,1,1.76-2.18c2.42-1.31,5.04-1.32,7.68-1.24C374.69,280.68,374.92,281.12,374.92,281.8Z" transform="translate(-152.28329 -247.66035)"/><path class="cls-18" d="M414.77733,322.9577c3.08216-1.677,6.31258-3.10968,8.9956-5.44395,1.62742,1.01174,3.12784,2.26593,5.2196,2.26836,4.03.00471,6.65241-2.40023,8.9989-5.2206a23.13821,23.13821,0,0,0,1.95146-3.1424,3.946,3.946,0,0,1,4.39064-1.24307,1.44837,1.44837,0,0,1,.59221,1.56008c-.73944,7.096-7.43375,15.61165-15.95845,15.4456-2.94806-.05743-5.89677.14925-8.76419-.891A13.56856,13.56856,0,0,1,414.77733,322.9577Z" transform="translate(-152.28329 -247.66035)"/><path class="cls-1" d="M154.87649,333.01741a31.91242,31.91242,0,0,1-2.43746-11.99123,57.43125,57.43125,0,0,1,.19118-10.722c.64894.6013.42168,1.39878.45863,2.12722a48.51243,48.51243,0,0,0,.14843,5.15345c2.95807-1.59848,5.69284-3.18473,8.41991-4.78468a8.70724,8.70724,0,0,1,1.39793-.8046c1.47664-.52775,2.36618-1.41953,2.1789-3.10989a.89662.89662,0,0,1,.40144-.838c.54567,2.15969.23517,4.37616.41881,6.56376a96.59517,96.59517,0,0,0,1.88936,11.25425c-2.13389,1.6141-4.594,2.68714-6.84575,4.10938-1.48889.94041-3.0587,1.75559-4.58928,2.63216C156.01514,332.88986,155.52427,333.29762,154.87649,333.01741Z" transform="translate(-152.28329 -247.66035)"/><path class="cls-19" d="M293.70689,282.9571a44.25626,44.25626,0,0,1-6.54974,4.03081c-7.13462,4.17869-14.30508,8.29642-21.46069,12.43943a4.45373,4.45373,0,0,1-2.36094.93453q.0168-.49461.03349-.98922c.30691-.96875-.10166-1.99526.23974-2.96123q.03451-2.22479.069-4.44955c1.38206-1.3173,3.18366-1.96559,4.76377-2.968,2.56116-1.6248,5.35179-2.87851,7.75228-4.76582.17934,1.20641-.22044,2.39728-.23031,3.95566,1.32077-1.63724,2.35218-3.05056,3.57441-4.312a11.30873,11.30873,0,0,1,9.77313-3.50058A5.37458,5.37458,0,0,1,293.70689,282.9571Z" transform="translate(-152.28329 -247.66035)"/><path class="cls-20" d="M542.88978,277.42418c1.4414-.02027,2.42226-1.07074,3.56833-1.6901,3.37425-1.82361,6.67347-3.78865,9.96313-5.763.77925-.46769,1.834-.76185,1.96446-1.9315a11.62489,11.62489,0,0,1,3.4643,3.29139,2.67041,2.67041,0,0,1,.29533,2.45281c-.29845.80391-1.22592.28049-1.86394.40811a.76142.76142,0,0,1-.32045-.00042c-1.61983-.39767-2.06548.252-1.98333,1.85225a41.57981,41.57981,0,0,1-.29917,4.95461,2.25975,2.25975,0,0,1-1.39369,2.05711c-3.517,1.9397-6.98922,3.96339-10.45175,6.00123-.18582.10936.04976-.02375-.13657.08476-1.76762,1.02942-1.92113.95565-2.15378-1.03492C543.26777,284.54921,542.85771,281.00016,542.88978,277.42418Z" transform="translate(-152.28329 -247.66035)"/><path class="cls-21" d="M165.63545,308.04769c.39124,2.32708-.59312,3.57194-2.76614,4.60353-3.41472,1.621-6.593,3.73854-10.23868,5.85947,0-2.93562,0-5.57064-.00022-8.20608.07215-3.123-.17469-6.25659.32532-9.36433.53425,1.08144,1.17517,1.18113,2.24355.53339,2.84149-1.72275,5.75034-3.33562,8.61229-5.027.53295-.315,1.05978-.82194,1.74349-.28527Q165.59526,302.10454,165.63545,308.04769Z" transform="translate(-152.28329 -247.66035)"/><path class="cls-11" d="M223.18186,325.26728c1.35051-1.43928,3.20807-2.09508,4.85243-3.06364,7.20729-4.24518,14.461-8.41174,21.6981-12.6065a1.73165,1.73165,0,0,1,.42276-.23078c1.832-.43612,2.48843-1.59581,2.17482-3.40792-.03847-.22219.15947-.48519.24776-.7292q-.16106,4.36106-.32193,8.72194a.75448.75448,0,0,0-.10484.45985c.60425,2.89978-.59578,4.63836-3.30953,5.74473a38.41654,38.41654,0,0,0-4.59227,2.60036,2.3703,2.3703,0,0,1-1.94235.53563,8.733,8.733,0,0,1-1.25694-3.22332C236.11645,325.75221,230.31518,327.92833,223.18186,325.26728Z" transform="translate(-152.28329 -247.66035)"/><path class="cls-22" d="M250.03,280.71c-.02,1.24-1.12006,1.48-1.89,1.94-2.12,1.27-4.34,2.36005-6.34,3.83a2.48155,2.48155,0,0,0-.26.19,5.567,5.567,0,0,0-.54.42,1.88564,1.88564,0,0,0-.2.2,2.04126,2.04126,0,0,1-1.06.52c-.01,0-.01,0-.02.01q-.375.11992-.75.27a48.98444,48.98444,0,0,0-6.35,3.4c-4.39,2.49-8.74,5.03-13.1,7.57a8.88372,8.88372,0,0,1-2.19,1.01c-.24.06-.68.24-.61005-.35a30.25366,30.25366,0,0,1,16.02-17.56,13.71984,13.71984,0,0,1,5.1-1.3c2.5-.13,4.12.8,4.87994,3.22C244.31,281,247.23,280.97,250.03,280.71Z" transform="translate(-152.28329 -247.66035)"/><path class="cls-23" d="M530.84485,308.76188c.27934,4.164.261,8.36736,1.61545,12.39053a5.66312,5.66312,0,0,0,.7155,1.7819c.9798,1.20279.36591,1.82753-.71274,2.27149-3.25621,1.3403-6.60092,2.22966-10.16984,1.65972-2.0861-.33315-2.82273-.98381-3.09354-3.08236a42.15769,42.15769,0,0,1,.00182-11.19817c.80168,1.71158.79228,1.69512,2.62079.65231,2.23491-1.27459,4.45536-2.57357,6.68367-3.85886C529.19978,308.97828,529.8891,308.28546,530.84485,308.76188Z" transform="translate(-152.28329 -247.66035)"/><path class="cls-24" d="M165.55506,296.16141c-2.26965.68777-4.053,2.28306-6.155,3.29588-1.53047.73742-2.949,1.70955-4.40459,2.598-1.58554.96775-1.92732.78837-2.03956-1.11463q.225-8.10462.45812-16.20829a2.29039,2.29039,0,0,1,.1932-.6017c.11728,4.08122.11539,4.078,3.6918,1.96353,2.72011-1.60821,5.45085-3.19858,8.16269-4.82052a1.92619,1.92619,0,0,1,1.05945-.29564Q166.03809,288.56972,165.55506,296.16141Z" transform="translate(-152.28329 -247.66035)"/><path class="cls-14" d="M439.62,280.06c-2.02,1.78-4.56,2.73-6.8,4.16-.03.01-.06.03-.09.04-1.21.54-2.13995,1.51-3.28,2.13995a1.1772,1.1772,0,0,1-.19.11005c-.09.05-.17.09-.26.13995-5.26,2.85-10.35,6-15.56,8.92005a4.90632,4.90632,0,0,1-1.61.74c-.5.06-.91-.02-.76-.55v-.01l.09-.24c2.57-7.77,7.12006-13.77,15.06-16.69,3.06006-1.13,6.26-.83,9.41-.64A6.96927,6.96927,0,0,1,439.62,280.06Z" transform="translate(-152.28329 -247.66035)"/><path class="cls-25" d="M253.48,284.09a101.45558,101.45558,0,0,1-.52,11.43c-2.86,1.09-5.31,2.94-8.01,4.34-1.33.69-2.64,1.41-3.96,2.12a1.57574,1.57574,0,0,1-.12-.15,2.82888,2.82888,0,0,1-.29-2.13c.41-3.71.6-7.44,1.18-11.12.14-.88-.04-1.35-.76-1.49a1.7388,1.7388,0,0,0-.34-.05c1.23-1.42,2.94-2.15,4.48-3.14,1.64-1.05,3.59-1.62,4.89-3.19C253.34,280.74,253.63,279.65,253.48,284.09Z" transform="translate(-152.28329 -247.66035)"/><path class="cls-7" d="M463.59249,295.46642c-3.46119.63961-7.0448.55786-10.36222,2.06725-2.12216.96554-3.2952.16833-3.9216-2.08656a10.43547,10.43547,0,0,1,.09028-4.78244c.14921-.82331.74951-1.10123,1.47461-1.27088,3.709-.86775,7.48258-1.36669,11.24159-1.93883q5.47843-.83385,10.98152-1.5023c1.32963-.1621,2.68651-.10112,4.031-.14194a.64748.64748,0,0,1,.45141-.13491c.40125.06174.97916-.24361,1.16889.22586.22168.54842-.334.86042-.72506,1.10549-2.1406,1.34122-4.38672,2.50357-6.539,3.82739-2.33017,1.43327-4.87186,2.52237-6.99117,4.30044C464.24472,295.34308,463.88209,295.32479,463.59249,295.46642Z" transform="translate(-152.28329 -247.66035)"/><path class="cls-25" d="M239.78,287.48a.89651.89651,0,0,1-.06006.34c-.12994.41-.53.61-.9.82995-5.62,3.42005-8.75,8.54-10.23,14.80005-.16.66-.16,1.38-.74005,1.88-.00995,0-.02.01-.03.02a.83072.83072,0,0,0-.13.07c-3.45,1.7-6.69,3.78-10.04,5.67-.77.43-1.48,1.11-2.49005.89a26.52753,26.52753,0,0,1,1.56-12.26c1.9-.15,3.27-1.43,4.81006-2.29,5.61-3.12,11.15-6.38,16.72-9.58A2.15059,2.15059,0,0,1,239.78,287.48Z" transform="translate(-152.28329 -247.66035)"/><path class="cls-14" d="M399.1324,289.722q-.47931,7.268-.95859,14.536c.087,1.41542-.67607,2.166-1.88732,2.79032-2.7206,1.40234-5.2924,3.07788-7.985,4.53638-.50909.27577-1.13777.74414-1.64234.37976-.4933-.3562-.28365-1.06375-.0973-1.62863a138.68225,138.68225,0,0,1,.95453-14.56348c.39932-.1935-.22376.97131.72638.41826,2.92376-1.70178,5.83051-3.44089,8.81194-5.04225C397.81134,290.7419,398.27335,289.94954,399.1324,289.722Z" transform="translate(-152.28329 -247.66035)"/><path class="cls-15" d="M300.82023,305.47422c.066,2.87844.08637,2.9147,2.55636,1.52819,3.69534-2.07435,7.35859-4.20567,11.03541-6.31274a56.56778,56.56778,0,0,0-2.30259,10.67753,22.52256,22.52256,0,0,0-.09947,3.83711,1.40807,1.40807,0,0,1-.71791,1.46232c-3.08262,1.62659-6.03339,3.48664-9.08966,5.16061-.40627.22251-.82773.55781-1.32837.17788-.64618-5.19447-.27077-10.40792-.27975-15.61395A3.87679,3.87679,0,0,1,300.82023,305.47422Z" transform="translate(-152.28329 -247.66035)"/><path class="cls-10" d="M386.56185,310.33577l.09429,1.50626c2.5009-.884,4.47807-2.50155,6.72072-3.62052,1.00276-.50032,1.88463-1.26749,2.91508-1.68029a2.90072,2.90072,0,0,0,1.882-2.28339,94.55861,94.55861,0,0,0,.74212,14.50809,18.23652,18.23652,0,0,1-3.9146,2.52374c-1.94971,1.14737-3.9034,2.28973-5.87292,3.40212-.6568.37094-1.31384,1.042-2.21528.545a4.05952,4.05952,0,0,1-.40712-1.03231A64.23506,64.23506,0,0,1,386.56185,310.33577Z" transform="translate(-152.28329 -247.66035)"/><path class="cls-26" d="M192.79323,264.50354c-.00839-2.41636-.111-4.837-.00266-7.24809.1555-3.45982,2.47835-5.48668,5.19516-7.07465a16.75288,16.75288,0,0,1,10.241-2.12074c1.74325.16386,1.99277.66155,1.06253,2.04846-1.49358,2.22684-2.0697,4.80739-2.908,7.28854-3.93288,2.52664-8.09884,4.65621-12.09634,7.0732A1.15968,1.15968,0,0,1,192.79323,264.50354Z" transform="translate(-152.28329 -247.66035)"/><path class="cls-24" d="M167.85826,279.69143c3.42889-1.48618,6.49727-3.619,9.73993-5.43886.17649-.099.204-.46274.30087-.70325q2.74715,6.30679,5.49428,12.61361c.404.78836-.26568,1.08345-.72087,1.34881-2.73147,1.59236-5.43382,3.236-8.21655,4.7397-.43578.23548-.88117.43134-1.336.03145C171.27523,288.12356,169.43594,283.962,167.85826,279.69143Z" transform="translate(-152.28329 -247.66035)"/><path class="cls-18" d="M463.59249,295.46642c3.84916-3.40449,8.64349-5.29151,12.91548-8.01732.67289-.42934,1.3692-.82208,2.177-1.30485-.53463-.50482-1.09022-.23483-1.55712-.33345a14.73749,14.73749,0,0,1,9.65383,1.18937c2.03672,1.0772,1.935,3.29981,1.59483,5.1839-.66421,3.67889.416,3.9002-4.27677,3.34736a93.16547,93.16547,0,0,0-13.31611-.63449C468.3833,294.95923,465.98932,295.26855,463.59249,295.46642Z" transform="translate(-152.28329 -247.66035)"/><path class="cls-2" d="M274.58321,309.74152a44.828,44.828,0,0,0,.326,12.03791c.15467.94447,1.26294,1.99719.36251,2.82664a8.93939,8.93939,0,0,1-5.091,2.23087,15.43381,15.43381,0,0,1-1.77659.01348c-4.17714.00045-5.06693-.79245-5.35123-5.01322-.12627-1.87469-.0644-3.762-.08792-5.64359a8.21735,8.21735,0,0,1,2.62277-1.78206c2.25293-1.31911,4.49111-2.6644,6.7729-3.9327A3.52036,3.52036,0,0,1,274.58321,309.74152Z" transform="translate(-152.28329 -247.66035)"/><path class="cls-20" d="M520.82476,287.06986c.19621.73532-.44177,1.79065.44778,2.18564.83742.37186,1.57035-.44668,2.31634-.83856,2.97838-1.56446,5.68061-3.63071,8.84658-4.85333q-.61931,6.94575-1.23821,13.89147c-3.237,1.92547-6.47743,3.84542-9.78269,5.65241-.459.251-1.02739.59727-1.49977.1765-.37989-.33842-.2573-.88827-.06-1.35284q.03264-1.11754.06532-2.23509c.32973-.84323-.10711-1.76319.26129-2.60255A71.56348,71.56348,0,0,1,520.82476,287.06986Z" transform="translate(-152.28329 -247.66035)"/><path class="cls-27" d="M494.29705,313.28553a107.39834,107.39834,0,0,1,.3492-11.63378c.96886-1.3156,2.55386-1.70832,3.85505-2.51345,3.0779-1.90443,6.296-3.57775,9.34234-5.539q-.62167,6.61194-1.24326,13.22388c-3.56225,2.28235-7.26213,4.3299-10.95846,6.38253C495.23431,313.43208,494.76888,313.67607,494.29705,313.28553Z" transform="translate(-152.28329 -247.66035)"/><path class="cls-21" d="M173.1199,292.28289c2.64228-.90251,4.88892-2.54059,7.25587-3.94483,1.05978-.62874,2.44809-.85376,3.01759-2.17518,1.764,3.80863,3.36986,7.68324,4.86184,11.60539-.83794,1.16647-2.23469,1.50673-3.37461,2.2095-2.26583,1.39691-4.63068,2.63367-6.95458,3.9366Q175.523,298.09863,173.1199,292.28289Z" transform="translate(-152.28329 -247.66035)"/><path class="cls-24" d="M192.79323,264.50354c2.14509-.35965,3.68055-1.91326,5.52748-2.85626,2.29035-1.1694,4.456-2.58209,6.67791-3.88563a2.268,2.268,0,0,1,1.3826-.36459,83.23828,83.23828,0,0,0-.97473,11.62952,13.856,13.856,0,0,1-3.45232,2.2931c-2.512,1.41128-4.95261,2.947-7.50077,4.29167-.57767.30485-1.30163,1.00375-1.82942-.13a17.52478,17.52478,0,0,1,.13046-3.30053Q192.77384,268.34219,192.79323,264.50354Z" transform="translate(-152.28329 -247.66035)"/><path class="cls-28" d="M494.29705,313.28553c2.42984-.7781,4.418-2.3811,6.64358-3.53955,1.88329-.98029,3.55249-2.37617,5.65983-2.92278q-.34312,4.85582-.68612,9.71165c-.02267.04825-.07184.10127-.06418.1441.485,2.70428-.84157,4.17778-3.234,5.18479-2.00916.8457-3.77452,2.20094-5.706,3.22909-.50263.26758-.95748.72387-1.61477.46413C494.2,321.52834,494.242,317.40746,494.29705,313.28553Z" transform="translate(-152.28329 -247.66035)"/><path class="cls-29" d="M543.54265,288.10649c.46322.33949.10872.93307.50982,1.46665,2.51389-1.42834,5.04819-2.85432,7.56805-4.30528,1.52342-.87718,2.98086-1.88164,4.55412-2.65393a2.527,2.527,0,0,0,1.504-1.61576q-.32653,5.33188-.65279,10.66347c.06848,1.45366-.69939,2.23057-1.95012,2.9123q-4.36631,2.38-8.64638,4.92448c-1.89336,1.1245-1.98925,1.07045-2.241-1.05481C543.91629,295.00143,543.54387,291.56552,543.54265,288.10649Z" transform="translate(-152.28329 -247.66035)"/><path class="cls-21" d="M192.75444,272.18084q.0261,1.81255.05219,3.62512c.79332,1.46719.34817,3.05084.37963,4.57562.07283,3.53124.00571,3.50064,3.06276,1.82128,3.04462-1.67256,5.94211-3.60708,9.09559-5.08445.162,3.77418-.23162,7.5329-.31529,11.30026-3.5841,2.03237-7.18194,4.041-10.74611,6.10757-1.65687.96067-1.74459.94757-1.85961-1.02275q.06175-10.19976.1325-20.39856A4.57881,4.57881,0,0,1,192.75444,272.18084Z" transform="translate(-152.28329 -247.66035)"/><path class="cls-30" d="M544.18829,298.44361c.5.36286.04889,1.06218.56693,1.49258,3.81718-2.1465,7.64814-4.31589,11.49731-6.45263.77889-.43238.22175-1.3433.77348-1.82209-.23917,4.52193-.43834,9.04644-.93343,13.55062a4.35275,4.35275,0,0,1-1.94435,1.60572c-2.28834,1.37695-4.65208,2.62392-6.93307,4.01433-.53652.32705-1.11191.71689-1.76169.19018C544.82469,306.85017,544.45831,302.65173,544.18829,298.44361Z" transform="translate(-152.28329 -247.66035)"/><path class="cls-31" d="M399.13238,289.722a2.83884,2.83884,0,0,1-1.22732,1.39282c-2.95186,1.70458-5.89411,3.42681-8.877,5.07555-.471.26033-1.41136,1.134-1.5114-.41755a100.523,100.523,0,0,1,.65094-10.91615c2.7108-1.03482,5.00179-2.832,7.55525-4.15516a34.80056,34.80056,0,0,1,4.38754-2.29323Q399.62122,284.06514,399.13238,289.722Z" transform="translate(-152.28329 -247.66035)"/><path class="cls-32" d="M519.8548,301.93115c-.08815,1.11231.22417,1.51024,1.33291.855,2.53438-1.49784,5.098-2.94652,7.64948-4.41551a4.36449,4.36449,0,0,1,2.36006-.91555q-.176,5.65338-.35224,11.30679c-3.15926,1.22465-5.84767,3.30916-8.84488,4.82985-.14158.07186-.25746.1927-.39466.27519-2.33751,1.40521-2.33782,1.40466-2.40378-1.28147A70.88564,70.88564,0,0,1,519.8548,301.93115Z" transform="translate(-152.28329 -247.66035)"/><path class="cls-10" d="M429.08,287.34a34.22492,34.22492,0,0,0-6.29,10.56,1.37546,1.37546,0,0,1-.57.8.53721.53721,0,0,1-.11.05c-1.53.12-2.62,1.2-3.87,1.88-2.73,1.49-5.37,3.14-8.07,4.7a3.01378,3.01378,0,0,1-.92.2,27.4307,27.4307,0,0,1,1.82-9.77v-.01l.09-.24c.31,1.2.96.33,1.31.13,2.34-1.3,4.64-2.67,6.96-4.01,3.01-1.74,6.01-3.49,9.03-5.21a3.88467,3.88467,0,0,1,.92-.24.69831.69831,0,0,1,.07.22A1.07963,1.07963,0,0,1,429.08,287.34Z" transform="translate(-152.28329 -247.66035)"/><path class="cls-19" d="M188.34852,330.72212c3.29467-1.21589,6.09286-3.34659,9.16526-4.97351,1.9897-1.05361,3.88008-2.29381,5.8664-3.35439a1.67681,1.67681,0,0,0,1.06625-1.74447c-.061-1.82628-.02986-3.65615-.01023-5.48426.00557-.51961-.16929-1.08554.2614-1.539q.01587,7.89533.03136,15.79051a1.43508,1.43508,0,0,1-.33135,1.19641c-3.373,3.09751-7.05382,5.181-11.92046,4.17778C190.107,334.30256,189.1626,332.64392,188.34852,330.72212Z" transform="translate(-152.28329 -247.66035)"/><path class="cls-33" d="M544.77682,334.60883c-2.30769-1.88755-1.737-6.26718.37132-8.899,3.12355-3.89911,8.349-4.35626,12.31467-3.27175a3.42955,3.42955,0,0,1,2.868,3.0825c.36677.73769-.23278.932-.68565,1.18709-4.43921,2.50044-8.81747,5.10622-13.24384,7.62868C545.90251,334.6206,545.40414,335.03273,544.77682,334.60883Z" transform="translate(-152.28329 -247.66035)"/><path class="cls-34" d="M510.81,265.15c-.5,1.33-1.92,1.39-2.91,1.98-1.24.74-2.34,1.9-3.96,1.87a2.48968,2.48968,0,0,1,.03-.27h.01a1.35258,1.35258,0,0,0-.04-1.04c-1.35.93-2.74,1.76-3.05,3.47a2.12581,2.12581,0,0,0-.07.44,10.876,10.876,0,0,0-4.92,2.98c-3.84-3.25-2.43-10.37,2.47-12.24a13.87489,13.87489,0,0,1,8.57-.33A6.417,6.417,0,0,1,510.81,265.15Z" transform="translate(-152.28329 -247.66035)"/><path class="cls-35" d="M169.866,252.11464c-.07269.77347-.74026,1.03656-1.267,1.34517-4.06753,2.38308-8.15382,4.73429-12.23949,7.0864-1.2773.73534-1.6804.48292-1.7608-.96372-.11794-2.12208.332-4.26779-.26543-6.36886-.05678-.3701-.17012-.7541.26738-.993,3.18386-1.73829,6.09166-3.99712,9.91033-4.43663C168.26355,247.35213,169.08033,247.88312,169.866,252.11464Z" transform="translate(-152.28329 -247.66035)"/><path class="cls-15" d="M363.604,282.9229c-1.66324,1.6413-3.83519,2.49623-5.79538,3.66317-5.37889,3.20216-10.82722,6.28809-16.253,9.41154a2.15733,2.15733,0,0,1-1.90276.46821,26.73886,26.73886,0,0,1,7.56336-9.838,28.573,28.573,0,0,1,6.71619-4.372,13.36851,13.36851,0,0,1,6.36633-1.3683C361.85369,280.95565,363.0042,281.42868,363.604,282.9229Z" transform="translate(-152.28329 -247.66035)"/><path class="cls-36" d="M507.84364,293.59932c-.92526,1.6644-2.76546,2.10229-4.21993,3.00561-2.91337,1.8094-5.97634,3.37854-8.9775,5.04683-.04937-3.54572.04858-7.09523-.27578-10.63383,1.06024,1.10967,1.05234,1.096,2.65989.17141,2.93892-1.69036,5.84865-3.43279,8.823-5.05928.78821-.431,1.56339-1.2761,2.64347-.62827Q508.17022,289.55055,507.84364,293.59932Z" transform="translate(-152.28329 -247.66035)"/><path class="cls-37" d="M313.71936,286.81568c-.10019,1.33841-1.09466,1.93113-2.10248,2.5113q-4.24048,2.44107-8.48221,4.88c-1.48671.85462-1.6408.76833-1.64329-.95532-.004-2.78715.00241-5.5743.00447-8.36136a16.09655,16.09655,0,0,1,10.6307-3.46557c1.84672.03965,2.08251.49718,1.88779,2.3448C313.90743,284.784,313.81715,285.80025,313.71936,286.81568Z" transform="translate(-152.28329 -247.66035)"/><path class="cls-38" d="M351.31,299.49a55.05545,55.05545,0,0,0-1.93,7.26,3.0914,3.0914,0,0,1-.21.65,1.91779,1.91779,0,0,1-.27.46,4.15853,4.15853,0,0,1-1.36,1.14c-2.65,1.51-5.31,2.99-7.93,4.54-.78.47-1.55,1.22-2.63.75a4.46511,4.46511,0,0,1-.25-2.23v-.02a20.58135,20.58135,0,0,1,.01-5.26l.03-.6c2.65-1.15,5.02-2.81,7.56-4.16,2.29-1.21,4.32-2.94,6.91-3.6l.09.12v.01A1.07134,1.07134,0,0,1,351.31,299.49Z" transform="translate(-152.28329 -247.66035)"/><path class="cls-39" d="M205.34461,277.11841c-.80279,1.50706-2.53057,1.64724-3.78422,2.48517-2.36035,1.57764-4.90928,2.87189-7.35814,4.32049-1.08243.64032-1.48614.48667-1.441-.85452.08134-2.41894.03685-4.84209.04518-7.26354,1.32489-.15746,2.29907-1.04573,3.40656-1.64763,3.08367-1.67593,5.98466-3.67851,9.19352-5.1318Q205.37555,273.0725,205.34461,277.11841Z" transform="translate(-152.28329 -247.66035)"/><path class="cls-40" d="M401.13461,256.10455c-3.80448,1.78888-7.29669,4.13529-10.95577,6.18339-1.193.66778-1.61268.50718-1.92692-.67069-.08335-2.1422-.17631-4.2842-.24535-6.427a1.87136,1.87136,0,0,1,1.07985-1.68136c3.266-1.91471,6.60239-3.55411,10.58207-3.25217,1.20738.0916,1.618.51869,1.55705,1.66384C401.15149,253.31294,401.16115,254.70971,401.13461,256.10455Z" transform="translate(-152.28329 -247.66035)"/><path class="cls-41" d="M274.58321,309.74152c-3.95539,2.00216-7.60106,4.56037-11.6181,6.45207q.02423-4.20346.04879-8.407c3.35231-1.90764,6.73208-3.76933,10.04238-5.74694a18.43362,18.43362,0,0,1,3.80083-1.66564A61.20129,61.20129,0,0,0,274.58321,309.74152Z" transform="translate(-152.28329 -247.66035)"/><path class="cls-38" d="M374.57,293.58c-3.18,1.2-5.87,3.28-8.85,4.84a7.22173,7.22173,0,0,1-3.07,1.3.60336.60336,0,0,1-.08-.08,1.66385,1.66385,0,0,1-.38-1.4c.24-2.33.39-4.68.69-7.01.04-.36.12-.74.49-.87a.711.711,0,0,1,.22-.05c.55.65,1,.03,1.38995-.19,2.53-1.41,5.04-2.87,7.55-4.32a4.49659,4.49659,0,0,1,2.35-.94A63.50844,63.50844,0,0,1,374.57,293.58Z" transform="translate(-152.28329 -247.66035)"/><path class="cls-42" d="M508.49675,285.50179c-1.9972.26127-3.46644,1.62529-5.1529,2.51629-2.41045,1.27351-4.71948,2.73745-7.0876,4.09262a2.72394,2.72394,0,0,1-1.47011.57229c-.35778-.50743.103-1.20909-.41591-1.66522-.1235-1.817-.22081-3.6366-.38186-5.45051a1.74548,1.74548,0,0,1,1.08125-1.93055,23.9983,23.9983,0,0,1,12.184-2.30647,1.2882,1.2882,0,0,1,1.34472,1.59869C508.5221,283.78278,508.52751,284.64389,508.49675,285.50179Z" transform="translate(-152.28329 -247.66035)"/><path class="cls-43" d="M227.76,313.18v.03c-1.23,1.31-2.93,1.87-4.42,2.76-1.56.93-3.1,1.88-4.66,2.78-.49.28-.98.74-1.62.35a16.39751,16.39751,0,0,1-1.9-7.12c3.44-1.98,6.87006-3.97,10.32-5.94a3.98593,3.98593,0,0,1,2.23-.83,1.7264,1.7264,0,0,0,.14.12.2274.2274,0,0,1,.06.12A60.44859,60.44859,0,0,1,227.76,313.18Z" transform="translate(-152.28329 -247.66035)"/><path class="cls-44" d="M545.45347,311.02232c2.13435-.36232,3.64648-1.93757,5.50671-2.84232,1.77287-.86225,3.42655-1.96881,5.13252-2.96794.1011,3.64376-.6259,7.235-.68862,10.87122-.02476,1.4357-1.29416,1.91076-2.36175,2.31921a6.70236,6.70236,0,0,1-4.72755-.03819,3.09747,3.09747,0,0,1-2.33945-2.57869A35.00784,35.00784,0,0,1,545.45347,311.02232Z" transform="translate(-152.28329 -247.66035)"/><path class="cls-45" d="M533.78045,250.68922c.63486,3.05126-.55836,4.87327-3.46553,6.10653a68.25587,68.25587,0,0,0-7.253,4.16825c-1.65012.9558-1.8425.81508-1.91145-1.03868-.0391-1.05114.29695-2.1425-.2562-3.15356-.51393-2.02193.41484-3.18427,2.19091-4.04609,2.91826-1.416,5.82389-2.75393,9.19293-2.44156C532.80982,250.3334,533.36356,250.24008,533.78045,250.68922Z" transform="translate(-152.28329 -247.66035)"/><path class="cls-46" d="M300.874,322.00512c3.48413-1.94185,6.95925-3.90011,10.46127-5.80923.57862-.31545.45426-.76034.50611-1.21645.13657-1.20091-.31409-2.44523.26814-3.61235.03813,3.69994-.41109,7.47877.76,11.04036.64916,1.97428-.17727,2.55928-1.61543,3.35719-2.421,1.34317-4.99507,1.27791-7.54516.97274C301.63563,326.48927,300.82345,324.88738,300.874,322.00512Z" transform="translate(-152.28329 -247.66035)"/><path class="cls-47" d="M322.84287,293.25481c3.31306-1.59821,6.38471-3.62158,9.58749-5.41361a1.43568,1.43568,0,0,0,.78962-1.43671,7.83806,7.83806,0,0,1-.25916,7.67645,16.37584,16.37584,0,0,1-4.68908,5.24456,13.18944,13.18944,0,0,1-2.1201,1.14375,3.82793,3.82793,0,0,1-2.69277.14158c-1.4103-.44444-.28671-1.55372-.22464-2.2831A13.205,13.205,0,0,0,322.84287,293.25481Z" transform="translate(-152.28329 -247.66035)"/><path class="cls-48" d="M154.87649,333.01741q5.15349-2.9461,10.3075-5.89124a8.87276,8.87276,0,0,1,2.75936-1.26043c.64662,1.86874,1.24187,3.75752,1.96369,5.59678.30214.76993-.11448,1.0833-.552,1.47593a12.61975,12.61975,0,0,1-7.66176,2.94685c-.85421.07411-1.72671-.0555-2.57966.02546C156.87163,336.1236,155.56269,335.0417,154.87649,333.01741Z" transform="translate(-152.28329 -247.66035)"/><path class="cls-9" d="M411.17671,273.17441c2.017-1.7759,4.54582-2.71716,6.7795-4.1405,1.03128-.65714,2.0777-1.29425,3.14768-1.88552a1.23107,1.23107,0,0,0,.73613-1.284,14.74389,14.74389,0,0,1,7.69057,6.27028c.99941,1.67973.69825,2.21549-1.20789,2.029C422.61816,273.60573,416.88463,273.622,411.17671,273.17441Z" transform="translate(-152.28329 -247.66035)"/><path class="cls-43" d="M276.19382,284.228a3.295,3.295,0,0,1-1.59821,1.651c-3.1739,1.77726-6.29271,3.65235-9.444,5.47041a11.90891,11.90891,0,0,1-1.47392.61247c-.033-2.03851-.05478-4.07729-.10607-6.11533a1.43387,1.43387,0,0,1,.63026-1.38563A17.17854,17.17854,0,0,1,274.355,281.436C276.37837,281.54394,276.38094,281.67488,276.19382,284.228Z" transform="translate(-152.28329 -247.66035)"/><path class="cls-49" d="M544.77682,334.60883c2.62854-.99123,4.85156-2.721,7.31474-4.01844,2.65349-1.39765,5.12287-3.13223,7.84-4.42509a.747.747,0,0,0,.39912-.64441c.90752,3.11317-.40347,5.60843-2.49138,7.6543-3.1416,3.07834-7.13239,3.07968-11.1654,2.50334A2.371,2.371,0,0,1,544.77682,334.60883Z" transform="translate(-152.28329 -247.66035)"/><path class="cls-50" d="M242.30681,323.29175c2.82742-1.5943,5.63676-3.222,8.49283-4.76336a1.94336,1.94336,0,0,0,1.22236-2.09475,3.60076,3.60076,0,0,1,.2339-2.48254c.01466,1.60944.0025,3.21962.05125,4.82795a4.29339,4.29339,0,0,0,2.54191,4.1318c.62555.27921.73893.50737.38774,1.03935-.53755.81427-1.10575,1.72933-2.08643,1.90719-2.85087.517-5.73075.78419-8.54263-.25125A3.62073,3.62073,0,0,1,242.30681,323.29175Z" transform="translate(-152.28329 -247.66035)"/><path class="cls-34" d="M386.91325,325.23673c3.18091-1.215,5.871-3.328,8.88814-4.84129,1.04782-.52556,1.89575-1.43139,3.11445-1.62949.59177,1.59659.87766,3.31391,1.84551,4.76124.42008.62818.13545,1.002-.40986,1.27286a17.907,17.907,0,0,1-11.49367,1.96511A2.46708,2.46708,0,0,1,386.91325,325.23673Z" transform="translate(-152.28329 -247.66035)"/><path class="cls-10" d="M363.96478,323.61134c2.788-1.56536,5.58472-3.11547,8.35462-4.71207a2.20992,2.20992,0,0,1,1.32369-.44581c.35236,1.8867.8223,3.70194,2.83959,4.55065.62.26082.38357.64878.17692,1.04439a3.57415,3.57415,0,0,1-2.89125,2.08532,34.112,34.112,0,0,1-6.12561-.01284A4.152,4.152,0,0,1,363.96478,323.61134Z" transform="translate(-152.28329 -247.66035)"/><path class="cls-31" d="M349.07,312.55c0,.02-.01.03-.01.05-1.1,1.29-2.69,1.85-4.11,2.62-2.18,1.19-4.14,2.81-6.56,3.56a11.84768,11.84768,0,0,1-1.41-4.49c2.37-.65,4.21-2.31,6.37-3.37,1.49-.72,2.83-1.75,4.31-2.49a2.57581,2.57581,0,0,0,1.33-1.61c.04.04.11.07.11.11.03.16.05.31.07.47A13.94277,13.94277,0,0,1,349.07,312.55Z" transform="translate(-152.28329 -247.66035)"/><path class="cls-51" d="M495.29541,325.557c3.1448-1.7871,6.28-3.5914,9.44229-5.347a1.57193,1.57193,0,0,0,.91795-1.51554c.016-.71995-.2714-1.49642.25888-2.15972.0038,2.40927-.02563,4.81912.027,7.22718a2.0206,2.0206,0,0,1-1.4008,2.10055,14.82147,14.82147,0,0,1-7.98684,1.03329C495.68505,326.75653,495.33237,326.36261,495.29541,325.557Z" transform="translate(-152.28329 -247.66035)"/><path class="cls-31" d="M388.21452,273.86873q.16307.1612.32636.32237c-.20351,2.35922.31028,4.74811-.2934,7.09072Q388.2311,277.57516,388.21452,273.86873Z" transform="translate(-152.28329 -247.66035)"/><path class="cls-31" d="M336.73756,306.78022q-.00336,2.63711-.0068,5.27475A10.51417,10.51417,0,0,1,336.73756,306.78022Z" transform="translate(-152.28329 -247.66035)"/><path class="cls-20" d="M558.39257,268.05422a7.88033,7.88033,0,0,1-.069-4.82227Q558.35792,265.64324,558.39257,268.05422Z" transform="translate(-152.28329 -247.66035)"/><path class="cls-41" d="M263.285,301.89817c-.09329,1.20317.327,2.44061-.24167,3.612A9.63529,9.63529,0,0,1,263.285,301.89817Z" transform="translate(-152.28329 -247.66035)"/><path class="cls-41" d="M263.60875,296.41142c-.072.98777.298,2.01126-.23985,2.96132A7.045,7.045,0,0,1,263.60875,296.41142Z" transform="translate(-152.28329 -247.66035)"/><path class="cls-32" d="M520.18141,297.09351c-.09806.86654.29289,1.78208-.26149,2.60271A4.941,4.941,0,0,1,520.18141,297.09351Z" transform="translate(-152.28329 -247.66035)"/><path class="cls-7" d="M409.27749,310.07319c.46343.48057.2053,1.07671.26059,1.62283C409.12512,311.2074,409.26965,310.62935,409.27749,310.07319Z" transform="translate(-152.28329 -247.66035)"/><path class="cls-52" d="M241.54,286.67c-.31.13-.6.25-.88.37-.29.15-.57995.29-.87994.44a4.24152,4.24152,0,0,1-.62006.5c-.06.04-.12994.07-.19.11a22.2499,22.2499,0,0,0-8.42,8.79,37.929,37.929,0,0,0-2.84,8.33,1.49087,1.49087,0,0,0-.02.21,22.229,22.229,0,0,0,.06,7.76.03671.03671,0,0,1,.01.03c.25.47.47.95.75,1.4,2.04,3.25,2.29,3.07,5.16,1.15a8.78366,8.78366,0,0,0,2.14-2.16,28.84678,28.84678,0,0,0,5.18-11.62,1.76769,1.76769,0,0,1,.01-.23c.17-5.14.9-10.24,1.44-15.46C242.11,286.43,241.81,286.56,241.54,286.67Zm-.96,13.03a2.82888,2.82888,0,0,0,.29,2.13c-.02.01-.03.02-.05.03a3.21766,3.21766,0,0,0-.49,1.18,28.88249,28.88249,0,0,1-3.78,8.82,12.93681,12.93681,0,0,1-3.42,3.8c-2.05,1.42-2.65,1.29-3.97-.78-.38995-.61-.52-1.45-1.36-1.71a.06.06,0,0,0-.04.01,60.44859,60.44859,0,0,0,.15-7.73.2274.2274,0,0,0-.06-.12c.58-.5.58-1.22.74005-1.88,1.48-6.26,4.61-11.38,10.23-14.8.37-.22.77-.42.9-.82995.01-.01.01-.01.02-.01a2.04126,2.04126,0,0,0,1.06-.52,1.88564,1.88564,0,0,1,.2-.2c.72.14.9.61.76,1.49C241.18,292.26,240.99,295.99,240.58,299.7Z" transform="translate(-152.28329 -247.66035)"/><path class="cls-52" d="M357.8,289.93c-2.77,2.36-5.28,4.97-6.56,8.49-.03.07-.05.14-.08.21a42.08031,42.08031,0,0,0-2.17,8.19c-.04.35-.07.69-.09,1.04a19.46187,19.46187,0,0,0,.15,4.7.06.06,0,0,1,.01.04c.47,1.02.86,2.07,1.41,3.04.9,1.6,2.04,1.82,3.6.86a12.76625,12.76625,0,0,0,3.68-3.53,26.01045,26.01045,0,0,0,4.9-13.25.48936.48936,0,0,1,.01-.12,64.408,64.408,0,0,1,.88-8.99c.01-.1.03-.2.05-.3.07995-1.3.17-2.59.26-4.01A22.78815,22.78815,0,0,0,357.8,289.93Zm5.57.43c-.37.13-.45.51-.49.87-.3,2.33-.45,4.68-.69,7.01a1.66385,1.66385,0,0,0,.38,1.4c-.02.01-.03.02-.05.03a3.00047,3.00047,0,0,0-.56,1.65c-.19,3.59-1.75,6.7-3.45,9.75a13.48377,13.48377,0,0,1-4.07,4.69c-1.94,1.33-3.04,1.03-4.02-1.1-.35-.75-.41-1.69-1.29-2.13-.02.01-.04.01-.06.02a13.94277,13.94277,0,0,0,.1-5.15,3.0914,3.0914,0,0,0,.21-.65,55.05545,55.05545,0,0,1,1.93-7.26,1.07134,1.07134,0,0,0,.02-.94v-.01c.03-.01.05-.03.07995-.04a26.45461,26.45461,0,0,1,12.28-11.79A5.60977,5.60977,0,0,0,363.37,290.36Z" transform="translate(-152.28329 -247.66035)"/><path class="cls-52" d="M432.82,284.22c-.02-.01-.03-.03-.05-.04-.54-.37-.93,0-1.33.32-.69.55-1.37,1.12-2.06,1.68-.13.16-.26.31-.38.47a37.15793,37.15793,0,0,0-6.86,12c-.01.03-.02.07-.03.1-.22,1.1-.35,2.22-.66,3.29-.4,1.43.22,1.21,1.17.91a21.36482,21.36482,0,0,0,5.81-3C433.57,296.36,434.59,289.68,432.82,284.22Zm-9.91,18.19c-.86.31-1.03-.07-.96-.86.08-.94.69-1.83.3-2.83-.01-.01-.02-.02-.03-.02a1.37546,1.37546,0,0,0,.57-.8,34.22492,34.22492,0,0,1,6.29-10.56,1.07963,1.07963,0,0,0,.37-.94c1.14-.63,2.07-1.6,3.28-2.13995a.20139.20139,0,0,0-.04.08,26.87907,26.87907,0,0,1,.39,5.45C433.25,296.51,428.19,300.51,422.91,302.41Z" transform="translate(-152.28329 -247.66035)"/></svg>