<svg id="Layer_1" data-name="Layer 1" xmlns="http://www.w3.org/2000/svg" viewBox="0 0 185 178.65523">
  <defs>
    <style>
      .cls-1, .cls-2 {
        fill: none;
      }

      .cls-2 {
        stroke: #e6e7e8;
        stroke-miterlimit: 10;
        stroke-width: 5px;
      }
    </style>
  </defs>
  <rect class="cls-1" x="2.5" width="180" height="178.65523"/>
  <g>
    <path class="cls-2" d="M266.57065,327.14448a3.68452,3.68452,0,0,1,6.09484-.37507q36.51168,64.41695,73.02335,128.83385-72.42438-.09291-144.84873-.18577c-1.57679-.279-3.64583-.91377-4.407-2.53171-1.03557-2.20114.88333-5.08709,1.4065-5.90732C201.17685,441.74621,228.55781,393.83122,266.57065,327.14448Z" transform="translate(-193.63119 -301.20577)"/>
    <path class="cls-2" d="M310.739,348.30852a4.85958,4.85958,0,0,1,4.09132-1.76828,4.80961,4.80961,0,0,1,3.53659,2.323q28.71735,50.97939,57.43467,101.95882a3.19447,3.19447,0,0,1,.11379,2.54106,3.148,3.148,0,0,1-2.579,1.8963q-17.83961.215-35.80223.33335-51.812.34044-102.62837-.13161c-.09549-.00088,9.4976,1.1849,16.509-4.59218a18.30356,18.30356,0,0,0,3.60593-4.022C261.82118,436.68234,306.19507,356.52154,310.739,348.30852Z" transform="translate(-193.63119 -301.20577)"/>
  </g>
</svg>
