<svg id="Layer_1" data-name="Layer 1" xmlns="http://www.w3.org/2000/svg" viewBox="0 0 185 180">
  <defs>
    <style>
      .cls-1, .cls-2 {
        fill: none;
      }

      .cls-2 {
        stroke: #e6e7e8;
        stroke-linecap: round;
        stroke-linejoin: round;
        stroke-width: 5px;
      }
    </style>
  </defs>
  <rect class="cls-1" x="2.5" width="180" height="180"/>
  <g>
    <path class="cls-2" d="M279.06447,328.26424q-4.41348-.14062-8.827-.28129a14.55762,14.55762,0,0,1-7.85774-2.44737c-7.01223-4.92846-5.73983-15.12468-5.24154-40.45448.55346-28.13454-.63783-34.79275,5.42231-40.32615,5.44364-4.97047,12.92958-5.55561,17.749-5.41635l29.04936.05386c8.43789.01564,20.388,1.079,35.2009.02918" transform="translate(-254.21739 -193.63043)"/>
    <path class="cls-2" d="M307.80022,239.38962q.24774-13.0287.49552-26.05743a16.90017,16.90017,0,0,1,5.73046-11.139,16.64881,16.64881,0,0,1,9.91556-3.86321l50.02878.5151a15.21945,15.21945,0,0,1,14.10075,15.3885q-.25854,27.41416-.51711,54.82839a14.71572,14.71572,0,0,1-13.58513,14.87894q-25.44514.21562-50.89022.43127a15.9603,15.9603,0,0,0-10.276,3.90657A16.3746,16.3746,0,0,0,307.553,300.545q.21568,27.70929.43128,55.41862a13.38524,13.38524,0,0,0,12.29131,12.29128q27.17021.32343,54.34046.64693a13.78173,13.78173,0,0,0,14.6401-12.86627q.01619-.25137.02323-.50321-.02454-13.50584-.049-27.01163" transform="translate(-254.21739 -193.63043)"/>
    <path class="cls-2" d="M415.3006,239.28274l9.422.24521a12.74478,12.74478,0,0,1,8.40632,4.4483,13.90149,13.90149,0,0,1,2.83709,8.2662c.42949,7.55992.83721,27.97672.73562,55.41142a19.40538,19.40538,0,0,1-2.14452,8.54418,20.02982,20.02982,0,0,1-8.89239,8.56425,22.61168,22.61168,0,0,1-8.34813,2.34909c-7.93642.729-33.36695,1.15064-67.77162.83671" transform="translate(-254.21739 -193.63043)"/>
    <path class="cls-2" d="M333.20463,217.61857a1.76478,1.76478,0,0,1,1.64538,1.39384,1.88808,1.88808,0,0,1-1.80174,2.20209,1.80422,1.80422,0,0,1,.15636-3.59593Z" transform="translate(-254.21739 -193.63043)"/>
    <path class="cls-2" d="M360.69079,347.60025a1.76761,1.76761,0,0,1,.52071,3.49667l-.00706.001a1.78881,1.78881,0,1,1-.51365-3.4977Z" transform="translate(-254.21739 -193.63043)"/>
  </g>
</svg>
