<svg id="Layer_1" data-name="Layer 1" xmlns="http://www.w3.org/2000/svg" viewBox="0 0 180 179.99998">
  <defs>
    <style>
      .cls-1 {
        fill: none;
      }

      .cls-2 {
        fill: #e6e7e8;
      }
    </style>
  </defs>
  <rect class="cls-1" y="0.67238" width="180" height="178.65523"/>
  <g>
    <path class="cls-2" d="M345.43954,200.2458l1.32493,2.30812,1.40362,2.44521a127.811,127.811,0,0,0-30.33758,40.47353c-13.44666,28.26428-12.53977,53.939-12.19837,63.60443a146.83256,146.83256,0,0,0,9.99332,48.27383l-59.57077.46179a200.18388,200.18388,0,0,1,9.26159-62.96106c5.86643-18.50015,14.73182-46.45782,40.83063-70.17695a129.34765,129.34765,0,0,1,39.29263-24.4289m2.21018-6.19317a135.57867,135.57867,0,0,0-44.8656,26.92186c-27.09509,24.62454-36.34445,53.79287-42.23395,72.36584a205.79429,205.79429,0,0,0-9.38032,69.51041q35.971-.27882,71.94206-.55768A143.0852,143.0852,0,0,1,310.629,308.9006c-.386-10.92767-.94678-34.66217,11.71655-61.2799a124.1441,124.1441,0,0,1,32.20636-41.5439q-3.45108-6.01211-6.90222-12.02417Z" transform="translate(-198.15641 -182.85075)"/>
    <path class="cls-2" d="M235.93027,324.45279l-.26572,2.88489-.5654,6.13842-4.18553-.29895-3.59688-.25692.522-4.59973.43259-3.8122,5.35426-.03882,2.30472-.01669m5.48535-5.03989h0Zm0,0q-8.80632.06386-17.6127.12766-1.02106,8.99779-2.04206,17.99554,8.934.63817,17.86795,1.27631.89344-9.69974,1.78681-19.39951Z" transform="translate(-198.15641 -182.85075)"/>
    <path class="cls-2" d="M239.07971,269.831l3.66812,1.58771,4.23412,1.83267-.02249.06211-2.51326,6.93881-8.02077-3.06677,1.39742-3.872,1.25686-3.48255m-2.89685-6.70211q-3.06306,8.4873-6.12617,16.97457,8.67868,3.31833,17.35746,6.63666,2.93544-8.10434,5.87088-16.2088-8.55107-3.70125-17.10217-7.40243Z" transform="translate(-198.15641 -182.85075)"/>
    <path class="cls-2" d="M267.313,221.99438l3.02307,2.962,2.33444,2.28727-2.85641,3.20478-1.53873,1.72641-.78513-.52575-5.27771-3.53419,5.10047-6.12052m-.37171-7.36419q-6.06234,7.27481-12.12471,14.54959,7.14718,4.78608,14.29442,9.57214,5.23275-5.87088,10.46549-11.74183-6.3176-6.19-12.6352-12.3799Z" transform="translate(-198.15641 -182.85075)"/>
    <path class="cls-2" d="M306.53848,189.98532l1.42612,2.44479,1.47626,2.53075-1.81574,1.1324-2.24911,1.40268-2.18625-2.60667-1.41336-1.68514,3.68661-2.49188,1.07547-.72693m1.62668-7.13457q-6.89194,4.65846-13.78387,9.31687l9.955,11.86941q5.93474-3.70125,11.86942-7.40243-4.02027-6.892-8.04056-13.78385Z" transform="translate(-198.15641 -182.85075)"/>
    <path class="cls-2" d="M345.63513,244.00182l1.13812,2.00843-.77639,1.17289-1.48273-1.61548,1.121-1.56584m.491-9.27526q-4.02027,5.61564-8.04056,11.2313,4.27555,4.65843,8.55112,9.31689,2.99926-4.53083,5.99853-9.0616-3.25455-5.74326-6.50909-11.48659Z" transform="translate(-198.15641 -182.85075)"/>
    <path class="cls-2" d="M334.71686,268.90933l.1615.09229,2.018,1.15317-.605,2.26889-.59195-.243-1.86792-.76681.4664-1.31928.419-1.18521m-2.7182-7.312q-2.23348,6.31759-4.467,12.63519,6.06234,2.48872,12.12466,4.97751,1.53154-5.74323,3.06311-11.48651-5.36041-3.06307-10.72079-6.12619Z" transform="translate(-198.15641 -182.85075)"/>
    <path class="cls-2" d="M328.57843,295.90872l1.52744.44434,3.1008.90207.34872,2.88943.2305,1.90973-3.22989-.58493-2.10187-.38065.08878-3.69934.03552-1.48065m-4.84268-6.61609q-.1914,7.97676-.38281,15.95359,8.10433,1.46767,16.20874,2.93539-.89348-7.40241-1.78681-14.80481-7.01958-2.04213-14.03912-4.08417Z" transform="translate(-198.15641 -182.85075)"/>
    <path class="cls-2" d="M332.0484,330.99832l6.21448.19571,2.12686,6.13031.77347,2.22946-1.73966-.12082-5.43222-.37725-1.94293-8.05741m-6.39819-5.204q2.1697,8.99777,4.33938,17.99552,9.18919.63821,18.37842,1.27633-3.25452-9.38067-6.509-18.76138-8.10438-.25525-16.2088-.51047Z" transform="translate(-198.15641 -182.85075)"/>
  </g>
</svg>
