<svg id="Layer_1" data-name="Layer 1" xmlns="http://www.w3.org/2000/svg" viewBox="0 0 185 180">
  <defs>
    <style>
      .cls-1, .cls-2 {
        fill: none;
      }

      .cls-1 {
        stroke: #e6e7e8;
        stroke-linecap: round;
        stroke-linejoin: round;
        stroke-width: 5px;
      }
    </style>
  </defs>
  <g>
    <path class="cls-1" d="M398.78261,240.83868l-180-.29128,90.622,89.54639Z" transform="translate(-216.28261 -170.91304)"/>
    <path class="cls-1" d="M249.022,192.32922l119.93349-.59693q-15.05428,24.36714-30.10852,48.73427-14.55131-23.43943-29.10262-46.87885-15.57379,22.88885-31.14772,45.77771Q263.8092,215.84727,249.022,192.32922Z" transform="translate(-216.28261 -170.91304)"/>
    <path class="cls-1" d="M278.59652,239.36539q15.404,45.36423,30.80811,90.7284,14.72112-44.8136,29.44223-89.62723" transform="translate(-216.28261 -170.91304)"/>
    <path class="cls-1" d="M368.95545,191.73229q14.91363,24.55318,29.82716,49.10634" transform="translate(-216.28261 -170.91304)"/>
    <path class="cls-1" d="M249.022,192.32922q-15.1197,24.10908-30.23935,48.21818" transform="translate(-216.28261 -170.91304)"/>
  </g>
  <rect class="cls-2" x="2.5" width="180" height="180"/>
</svg>
