<svg id="Layer_1" data-name="Layer 1" xmlns="http://www.w3.org/2000/svg" viewBox="0 0 463.1431 92.70568"><defs><style>.cls-1{fill:#cd0000;}.cls-2{fill:#f77274;}.cls-3{fill:#7b0000;}.cls-4,.cls-9{fill:#fa191d;}.cls-5{fill:#8f0000;}.cls-6{fill:#fff;}.cls-14,.cls-15,.cls-7{fill:#654fef;}.cls-11,.cls-12,.cls-8{fill:#16213e;}.cls-9{font-size:47px;font-family:ChalkboardSE-Regular, Chalkboard SE;}.cls-10{letter-spacing:-0.03092em;}.cls-11{letter-spacing:0.02541em;}.cls-12,.cls-15{letter-spacing:-0.00002em;}.cls-13{letter-spacing:-0.07846em;}.cls-14{letter-spacing:-0.0453em;}</style></defs><g id="ruby"><path class="cls-1" d="M151.99382,261.05149c-.10437.20446-.20633.42407-.40066.06379a6.594,6.594,0,0,1-.65323-1.74588c-1.81112-5.36612-3.52-10.76579-5.29016-16.1454-1.89124-5.7476-3.75184-11.50534-5.63061-17.25711-1.91219-5.85408-3.80246-11.71533-5.72743-17.5653-.30272-.92-.58754-1.84656-.87774-2.771-.09667-.30791-.20978-.65232.272-.77345a3.30833,3.30833,0,0,1,.77309-.05333q17.8677-.003,35.73306-.00286a1.12194,1.12194,0,0,0,.798-.59291q2.74982-4.0281,5.503-8.05391c3.02342-4.42758,6.04746-8.85478,9.13207-13.24016.151-.21475.24119-.53037.60448-.50023q2.86039,3.97916,5.71946,7.95925,5.009,7.00851,10.0009,14.02923c.13574.19081.37111.34282.331.63084a2.07823,2.07823,0,0,1-1.19295.19041q-14.567.00157-29.13392.00085c-1.22971,0-1.23078.00006-1.61836,1.163q-8.76961,26.31385-17.54624,52.62539A11.51589,11.51589,0,0,1,151.99382,261.05149Z" transform="translate(-101.3569 -179.54003)"/><path class="cls-2" d="M133.47727,205.02a20.8094,20.8094,0,0,0,.98821,3.28266q4.559,14.06088,9.16063,28.10793,3.90825,11.97881,7.80993,23.95974a1.28916,1.28916,0,0,1,.1571.74494c-1.41789-1.38289-2.673-2.91487-3.99793-4.38233-3.24593-3.59507-6.46453-7.2148-9.693-10.82561q-8.97453-10.03741-17.94839-20.07543-5.23135-5.84793-10.472-11.68754-3.94273-4.39989-7.88047-8.8042c-.10131-.11356-.38306-.20626-.16176-.45228a5.00809,5.00809,0,0,1,.89963-.05546q14.82061.00267,29.64127-.00174c.25268-.00009.61337.11848.73283-.09224.14719-.25959-.17471-.49068-.32489-.7083q-6.45337-9.35082-12.9212-18.69167c-.50312-.72471-.99937-1.45421-1.50546-2.17692a1.6287,1.6287,0,0,1-.35632-.74949c.13557-.21154.35017-.12258.5286-.12264q16.54974-.00654,33.09953-.00225c.12844,0,.25689.01742.38534.02669a.25617.25617,0,0,1,.01088.18117c-.89242,1.31832-1.94155,2.51572-2.9373,3.75323q-5.94139,7.38383-11.86,14.78579c-.92847,1.15585-1.86489,2.3055-2.78834,3.46548A2.36,2.36,0,0,1,133.47727,205.02Z" transform="translate(-101.3569 -179.54003)"/><path class="cls-3" d="M151.99382,261.05149a10.22568,10.22568,0,0,1,.68644-2.33818q8.82243-26.49591,17.65872-52.98719c.15026-.45121.29512-.71471.86409-.71352q15.53895.03239,31.078.02043c-1.24619,1.56409-2.63375,3.00386-3.9677,4.49011q-22.83942,25.44759-45.69313,50.88243C152.42,260.62853,152.203,260.83651,151.99382,261.05149Z" transform="translate(-101.3569 -179.54003)"/><path class="cls-4" d="M151.6204,182.4011a.35712.35712,0,0,0-.00146-.08723c.236-.00954.4721-.02739.70814-.02742q16.59279-.00207,33.18561.00508c.23776.00015.51433-.12259.717.12226-.93808,1.14509-1.7278,2.39626-2.56375,3.61326q-5.7921,8.4324-11.56023,16.88124c-.36342.53082-.74258,1.05093-1.10294,1.58379-.13616.20133-.26122.39754-.533.41694-.41867-.05076-.57322-.42427-.796-.6892q-5.50644-6.54832-10.97465-13.12868-3.35412-4.01353-6.71026-8.02533A1.16012,1.16012,0,0,1,151.6204,182.4011Z" transform="translate(-101.3569 -179.54003)"/><path class="cls-4" d="M117.60547,182.41207c1.008,1.1997,1.82342,2.53692,2.71405,3.81956q6.40613,9.22584,12.78432,18.47106a1.59671,1.59671,0,0,1,.10847.22734,1.04121,1.04121,0,0,1-.70148.09321q-15.17331.00681-30.34659-.00133c-.24242-.00015-.52133.11118-.72463-.134q7.05705-9.83127,14.11507-19.66182C116.23175,184.28338,116.92156,183.34985,117.60547,182.41207Z" transform="translate(-101.3569 -179.54003)"/><path class="cls-5" d="M151.6204,182.4011c1.19129,1.40853,2.38767,2.8128,3.57269,4.22661q2.5024,2.98553,4.99137,5.98231,2.782,3.33913,5.5624,6.67959,2.35405,2.81588,4.723,5.61932c-.15332.17239-.35921.11615-.54623.11615q-18.22309-.00014-36.44627-.00507c.9522-1.2167,1.89335-2.4423,2.85881-3.64847q4.87507-6.0906,9.76581-12.1687C147.93272,186.92858,149.78035,184.6679,151.6204,182.4011Z" transform="translate(-101.3569 -179.54003)"/></g><g id="tag"><path class="cls-6" d="M184.05121,256.88356q-.132-.88607-.264-1.77211c-.30057-2.00815-.57418-4.02088-.91287-6.02259-.18773-1.10953-.34046-2.22385-.52982-3.33256-.02422-.14177.01957-.19193.14236-.2388q1.18482-.45228,2.3642-.91862a.16962.16962,0,0,1,.24862.08153c1.50681,2.35744,3.00125,4.7231,4.5383,7.06072.51969.79037,1.02537,1.59015,1.55249,2.37571.021.03137.04746.05913.072.08935.05191-.05033.02153-.10106.01371-.14967-.07688-.47735-.14079-.95724-.2337-1.43147-.53012-2.70571-.9025-5.43786-1.37294-8.15354-.08471-.48894-.15643-.98013-.23488-1.47019-.01567-.098-.03077-.17615.10164-.22463.829-.30348,1.6215-.69764,2.45429-.99269.22251-.07884.22142-.08432.25257.14274.49472,3.608.97,7.21874,1.49174,10.82281q.39722,2.744.78807,5.48885c.02072.14676.00471.22539-.15549.28538-.834.31232-1.66333.63744-2.49108.96614a.18887.18887,0,0,1-.2776-.09225q-2.48311-3.88724-4.97516-7.7688c-.30968-.483-.623-.96364-.93559-1.44474a.28992.28992,0,0,0-.18773-.15659c.06484.41188.12746.81056.19041,1.20918q.77813,4.92825,1.56073,9.85576c.02412.151-.02054.20292-.14935.25219q-1.284.49113-2.56272.99583c-.11365.04481-.17976.0403-.25329-.07147q-4.52187-6.87426-9.05334-13.74215c-.09758-.14781-.04144-.17359.08173-.22093q1.26508-.48624,2.52622-.98279a.17567.17567,0,0,1,.26177.08593q2.87869,4.64421,5.76692,9.28251c.04325.06954.09132.13605.13715.204Z" transform="translate(-101.3569 -179.54003)"/><path class="cls-6" d="M208.9148,252.82287c-.427.166-.85671.32548-1.27954.50153a.21554.21554,0,0,1-.29578-.07375l-.00753-.01362c-.68169-.90631-1.3723-1.80594-2.05219-2.7136a.2307.2307,0,0,0-.30708-.11022l-.01985.01057c-.66339.26976-1.34643.49454-1.99787.78965-.91674.41531-1.86823.73867-2.79829,1.1177a.17149.17149,0,0,0-.13393.20217l.00735.0257c.1778,1.1137.34358,2.22932.52187,3.34293a.21045.21045,0,0,1-.162.28029q-1.23169.46413-2.45408.95291c-.15821.063-.21806.05759-.23858-.13234-.05332-.49319-.12-.98527-.19471-1.47576-.6745-4.43152-1.20221-8.883-1.81968-13.32232-.07457-.53615-.139-1.07376-.21812-1.6092a.16534.16534,0,0,1,.10761-.2076l.02074-.00513q2.10369-.81258,4.20378-1.63451a.17378.17378,0,0,1,.23613.06813l.00369.00709c.48757.641.96373,1.29187,1.47569,1.91306,1.27413,1.546,2.45814,3.16139,3.68587,4.743,1.70668,2.1986,3.40011,4.40747,5.10322,6.60885.102.13179.0684.17358-.06879.22478C209.79147,252.47786,209.35383,252.65223,208.9148,252.82287Zm-7.40537-3.91558c.58938-.22906,1.17734-.462,1.76918-.68445.14437-.05429.176-.10084.07823-.2369q-1.7146-2.38617-3.41921-4.77951a.16721.16721,0,0,0-.22128-.08341l-.01671.00872c-.29743.12469-.59784.2434-.90216.35-.13316.04665-.15467.11293-.13433.24414q.446,2.87521.879,5.75239c.02244.14955.05665.17726.20036.1193C200.32891,249.3611,200.92,249.13636,201.50943,248.90729Z" transform="translate(-101.3569 -179.54003)"/><path class="cls-7" d="M178.57685,270.02928l-5.70287,2.21643c-1.83943-4.66332-3.61892-9.34985-5.47565-14.0067-2.58568-6.48513-5.03188-13.0251-7.62627-19.50725-1.26632-3.16394-2.47387-6.35139-3.71206-9.52662-.05309-.13615-.04271-.19222.10441-.25022,3.318-1.308,6.66424-2.54376,9.96167-3.90464,1.13917-.47015,2.29631-.89682,3.44522-1.34335.95644-.37171,1.91385-.741,2.8682-1.118.13451-.05313.20408-.05125.25064.10376a3.69092,3.69092,0,0,0,.31172.68659,5.32427,5.32427,0,0,0,8.7732.84157,5.18256,5.18256,0,0,0,.84948-5.36724c-.03761-.10195-.09727-.18481.06962-.25168q1.28173-.51361,2.56552-1.02212c4.57514-1.80312,9.16357-3.57248,13.74589-5.3574.14657-.0571.21094-.05966.27806.11119,1.82622,4.64769,3.60857,9.31237,5.448,13.95512,2.49641,6.30083,4.92044,12.63033,7.37755,18.94675.02815.07234.02474.16882.11914.20483l3.85836,9.9276c-6.10456,2.3994-12.23248,4.73855-18.33058,7.155-6.30989,2.50042-12.6492,4.92663-18.97483,7.38733C178.7091,269.93841,178.61255,269.93467,178.57685,270.02928Zm5.47436-13.14571-.04474.01206c-.04583-.06794-.0939-.13447-.13715-.204q-2.88552-4.64-5.76692-9.28251a.17563.17563,0,0,0-.26177-.08593q-1.26045.49817-2.52622.98279c-.12317.04733-.17929.07312-.08173.22093q4.53293,6.867,9.05336,13.74215c.07353.11177.13964.11628.25329.07147q1.27893-.50411,2.56272-.99583c.12881-.04927.17349-.10117.14935-.25219q-.78677-4.92685-1.56073-9.85576c-.06293-.39862-.12555-.7973-.19041-1.20918a.28989.28989,0,0,1,.18773.15659c.31261.4811.62589.96177.9356,1.44474q2.48985,3.883,4.97515,7.7688a.18886.18886,0,0,0,.2776.09225c.82777-.3287,1.65706-.65382,2.49108-.96614.1602-.06.17619-.13862.15549-.28538q-.38746-2.74539-.78807-5.48885c-.52171-3.60406-.997-7.21483-1.49174-10.82281-.03113-.22706-.03006-.22157-.25257-.14274-.83279.29506-1.62532.68922-2.45429.99269-.13241.04847-.11731.12664-.10164.22463.07845.49.15017.98123.23488,1.47019.47044,2.71568.84282,5.44782,1.37294,8.15354.09291.47423.15682.95412.2337,1.43147.00782.04861.0382.09934-.01371.14967-.02453-.03022-.05094-.058-.072-.08935-.52714-.78556-1.0328-1.58534-1.55249-2.37571-1.53705-2.33762-3.03149-4.70328-4.5383-7.06072a.16961.16961,0,0,0-.24862-.08153q-1.17956.46586-2.3642.91862c-.12279.04687-.16658.097-.14236.2388.18938,1.10871.34209,2.223.52982,3.33256.33869,2.0017.6123,4.01444.91287,6.02259q.13263.88594.26407,1.77209Zm24.86357-4.0607c.439-.17063.87669-.345,1.318-.5097.13719-.05121.17074-.093.06879-.22478-1.70311-2.20138-3.39654-4.41025-5.10322-6.60885-1.22775-1.58162-2.41174-3.197-3.68587-4.743-.512-.62119-.9881-1.272-1.47569-1.91306a.17377.17377,0,0,0-.23272-.07893l-.0071.00371q-2.09968.82284-4.20378,1.63451a.16533.16533,0,0,0-.13348.192l.00513.02075c.07912.53545.14353,1.07306.21812,1.6092.61747,4.43928,1.1452,8.89082,1.81968,13.32232.07466.49049.14137.98257.19471,1.47576.02054.18993.08039.1954.23858.13234q1.22276-.48733,2.45408-.95291a.21043.21043,0,0,0,.162-.28029c-.17829-1.11361-.34409-2.22923-.52187-3.34293a.17149.17149,0,0,1,.10088-.22053l.0257-.00734c.93006-.379,1.88155-.70239,2.79829-1.1177.65144-.2951,1.33446-.51988,1.99787-.78965a.23072.23072,0,0,1,.31637.0798l.01057.01985c.67988.90765,1.37049,1.80729,2.05218,2.7136a.21555.21555,0,0,0,.28969.0949l.01362-.00753c.42285-.176.85254-.33555,1.27954-.50154Z" transform="translate(-101.3569 -179.54003)"/><path class="cls-7" d="M201.50943,248.90729c-.58938.22906-1.18052.4538-1.76692.69028-.14371.058-.17792.03024-.20036-.1193q-.43215-2.87729-.879-5.75239c-.02034-.13121.00117-.19749.13433-.24414.3043-.1066.60473-.22531.90216-.35a.16722.16722,0,0,1,.22927.058l.00872.01669q1.70556,2.39263,3.41919,4.77952c.09778.13605.06614.18261-.07823.2369C202.68675,248.44534,202.09881,248.67823,201.50943,248.90729Z" transform="translate(-101.3569 -179.54003)"/></g><g id="line"><path class="cls-8" d="M127.733,244.93332c-4.97247.00033-9.30765-1.1128-12.15672-3.65021-5.15836-4.5941-6.92734-13.10041-4.21582-19.40484a14.68573,14.68573,0,0,1,2.03139-3.37184l1.08427,1.21535a12.86726,12.86726,0,0,0-1.60141,2.75245c-2.42753,5.7168-.76986,13.53748,3.78386,17.59341,3.60111,3.20744,10.49562,4.08979,18.9163,2.422a53.81379,53.81379,0,0,0,22.31032-10.08353c.26271-.21137.55068-.44912.86424-.70785,3.57508-2.94993,10.31657-8.14015,19.34048-9.11074a27.8764,27.8764,0,0,1,4.66693-.1031,5.95138,5.95138,0,0,1-.84374,1.57914,26.37044,26.37044,0,0,0-3.67.144c-8.55893.94262-14.97465,5.87173-18.458,8.74584-.319.26318-.61218.50507-.87934.72026C150.67523,240.29936,137.87836,244.93332,127.733,244.93332Z" transform="translate(-101.3569 -179.54003)"/><path class="cls-8" d="M175.81987,182.30263a39.95585,39.95585,0,0,0-18.761-.00555l-4.04612-.0107a33.12856,33.12856,0,0,1,9.51233-2.54574,34.73722,34.73722,0,0,1,5.30557-.16476,38.1793,38.1793,0,0,1,12.46223,2.71282Z" transform="translate(-101.3569 -179.54003)"/><path class="cls-8" d="M201.94906,219.17487q-.40518-1.04205-.81033-2.08407a19.03193,19.03193,0,0,0,1.7433-7.09732c.33907-7.69391-4.30339-13.33264-6.14216-15.566a28.92965,28.92965,0,0,0-5.65639-5.24292q-1.09349-1.53252-2.187-3.06507a29.65524,29.65524,0,0,1,9.07093,7.23953c1.867,2.22725,6.92124,8.25678,6.54011,16.71422A21.3285,21.3285,0,0,1,201.94906,219.17487Z" transform="translate(-101.3569 -179.54003)"/></g><text class="cls-9" transform="translate(137.47116 53.49201)">Ru<tspan class="cls-10" x="54.16553" y="0">b</tspan><tspan x="78.99072" y="0">y </tspan><tspan class="cls-11" x="122.14697" y="0">o</tspan><tspan class="cls-12" x="146.24365" y="0">n</tspan><tspan class="cls-13" x="170.23584" y="0"> </tspan><tspan class="cls-14" x="184.51709" y="0">W</tspan><tspan class="cls-15" x="228.81689" y="0">ASM</tspan></text></svg>