<svg id="Layer_1" data-name="Layer 1" xmlns="http://www.w3.org/2000/svg" viewBox="0 0 185 184.99995">
  <defs>
    <style>
      .cls-1, .cls-2 {
        fill: none;
      }

      .cls-2 {
        stroke: #e6e7e8;
        stroke-linecap: round;
        stroke-linejoin: round;
        stroke-width: 5px;
      }
    </style>
  </defs>
  <rect class="cls-1" x="2.5" y="3.17236" width="180" height="178.65523"/>
  <g>
    <path class="cls-2" d="M180.03148,430.23555q0-88.52331-.05847-177.04652c-.00267-2.15752.4433-2.60323,2.60065-2.60054q88.52313.10965,177.04644.05845c.56106,1.03422.28489,2.15468.28521,3.23073q.0231,86.48959.00888,172.9793c-.0005,4.10376.431,3.67216-3.67163,3.67267q-86.48959.01052-172.97928-.0089C182.18685,430.52044,181.06607,430.79657,180.03148,430.23555Z" transform="translate(-177.473 -248.08848)"/>
    <path class="cls-2" d="M272.988,278.61658c7.393-.08736,14.90018,2.046,22.09215,5.51941,5.128,2.47656,9.94307,5.48722,14.79145,8.4515,1.56533.957,2.0851,1.67252.72618,3.34473-3.77182,4.64123-7.42366,9.38348-11.00326,14.17525-1.09674,1.46818-1.91865,1.42089-3.41195.55369-7.81582-4.53888-15.91421-8.32147-25.21208-8.53327-3.46168-.07885-6.76179.418-9.69374,2.41851-6.6661,4.5483-6.52875,12.85581.68258,16.34665,7.4302,3.59679,15.25337,6.3775,22.87786,9.579,3.94962,1.65842,7.96521,3.22177,11.7385,5.22778,19.966,10.61463,24.47093,32.544,10.35353,50.34356-8.57851,10.816-20.50069,14.33917-33.6381,14.69852-15.13043.41383-28.76967-4.68809-41.76942-11.89791-.697-.38657-1.37771-.80258-2.06737-1.20256-5.24448-3.04164-5.25957-3.05336-1.39236-7.91616,3.28827-4.13482,6.68991-8.18213,9.88336-12.38815.99688-1.313,1.79933-1.15086,2.99959-.56961,5.20272,2.51951,10.36713,5.13219,15.66237,7.44308a36.97492,36.97492,0,0,0,21.04186,2.8889c4.56194-.74045,7.67726-3.22153,8.77609-7.83216,1.11525-4.67954-.47186-8.42216-4.20554-11.33131a27.01508,27.01508,0,0,0-6.805-3.70081c-8.43545-3.3292-16.885-6.62463-25.28559-10.0398-13.80026-5.61026-20.85833-15.9138-20.58387-29.86445.28748-14.61284,9.07144-27.34712,22.27269-32.0605A61.05252,61.05252,0,0,1,272.988,278.61658Z" transform="translate(-177.473 -248.08848)"/>
  </g>
</svg>
