<svg id="Layer_1" data-name="Layer 1" xmlns="http://www.w3.org/2000/svg" viewBox="0 0 185 178.65523">
  <defs>
    <style>
      .cls-1, .cls-2 {
        fill: none;
      }

      .cls-2 {
        stroke: #e6e7e8;
        stroke-linecap: round;
        stroke-linejoin: round;
        stroke-width: 5px;
      }
    </style>
  </defs>
  <rect class="cls-1" x="2.5" width="180" height="178.65523"/>
  <g>
    <path class="cls-2" d="M232.56471,268.17771c-21.70338,8.64234-34.41137,24.91853-32.15723,37.84659,1.40161,8.03858,8.527,14.43281,10.63663,16.326,7.94243,7.1274,16.88138,9.327,23.74684,10.63663,30.13926,5.74926,58.25852,1.58433,69.01433-.24737,20.44774-3.48223,30.67163-5.22333,43.231-12.21812,9.62336-5.3596,35.35545-19.69078,32.95688-37.74923-1.65814-12.48372-16.29388-23.24264-35.1256-26.96258" transform="translate(-197.65017 -187.35735)"/>
    <path class="cls-2" d="M230.41765,290.84323a59.49074,59.49074,0,0,0,16.60982,11.22918c3.03368,1.3633,9.21439,3.8228,29.2427,5.1467a250.071,250.071,0,0,0,48.19191-2.57333,31.1993,31.1993,0,0,0,14.27043-5.38065,28.51049,28.51049,0,0,0,6.3164-6.31644q-.23392-10.99524-.46788-21.99047a34.11955,34.11955,0,0,1-8.18795,7.01823c-5.03452,3.07295-9.87927,4.18559-14.97225,4.91277-9.57723,1.36741-14.30075.55334-26.45944.38591-13.77-.1896-13.648.77282-26.4113.3159-13.824-.49488-18.73974-1.79476-23.1602-3.977a38.31408,38.31408,0,0,1-11.885-9.25565Q231.96129,280.60082,230.41765,290.84323Z" transform="translate(-197.65017 -187.35735)"/>
    <path class="cls-2" d="M344.581,270.95822q-.13029-12.69432-.26063-25.38864a20.2299,20.2299,0,0,0-4.03358-9.68062c-3.14412-3.97135-7.20046-5.69672-12.63861-7.52938a152.60135,152.60135,0,0,0-22.11667-5.64226c-24.28387-4.34227-26.65017-5.56726-35.184-5.20609-12.17953.51546-16.51695,3.39821-18.89631,5.80311-2.109,2.1317-3.2353,4.8676-5.47731,10.34978-3.43922,8.40954-3.81349,12.551-6.30835,19.96129a97.65046,97.65046,0,0,1-6.775,15.47737" transform="translate(-197.65017 -187.35735)"/>
  </g>
</svg>
