<svg id="Layer_1" data-name="Layer 1" xmlns="http://www.w3.org/2000/svg" viewBox="0 0 185 184.9433">
  <defs>
    <style>
      .cls-1, .cls-2 {
        fill: none;
      }

      .cls-2 {
        stroke: #e6e7e8;
        stroke-linecap: round;
        stroke-linejoin: round;
        stroke-width: 5px;
      }
    </style>
  </defs>
  <rect class="cls-1" x="2.5" y="3.14403" width="180" height="178.65523"/>
  <g>
    <path class="cls-2" d="M207.03732,367.64259c-2.6649-2.38728-3.49233-5.32018-3.26685-8.89168a117.84463,117.84463,0,0,0,.00643-13.57518c-.15593-2.971.74692-3.89747,3.781-3.85566,11.98449.16513,23.974-.04158,35.95873.1164a27.43717,27.43717,0,0,0,14.7222-4.10189q39.00093-22.9916,78.13188-45.7627a21.1402,21.1402,0,0,1,10.60808-3.04634c12.25165-.07628,24.50413-.02582,36.7563-.02413v31.97627c-1.437,1.28788-3.21888,1.11163-4.93531,1.11563-9.32323.02171-18.64745-.06679-27.96958.03324-7.08829.07608-13.4019-2.3388-19.11545-6.1255-5.90488-3.91351-11.29446-4.05851-16.82652.45264-1.43365,1.16908-3.20893,1.89529-4.7503,2.94359-2.92746,1.99092-2.91933,3.20334.00167,5.36759.856.63427,1.7955,1.14664,2.7078,1.69663,5.93084,3.57534,11.969,6.968,17.89426,10.55458a24.72453,24.72453,0,0,0,13.29589,3.65086c11.45342-.09933,22.9084-.04611,34.36268-.01911,1.83993.00434,3.7687-.26587,5.33483,1.11444v22.38338a4.96358,4.96358,0,0,1-3.99773,3.997Z" transform="translate(-201.23516 -185.19939)"/>
    <path class="cls-2" d="M383.73512,214.15654c-14.38118-.01793-28.76241-.05661-43.14356-.039a19.40539,19.40539,0,0,0-9.76753,3.1q-39.60064,23.1496-79.16889,46.35456a23.50113,23.50113,0,0,1-12.12534,3.35935c-10.788-.01079-21.57693-.07872-32.36342.05121-2.62375.03161-3.42761-.76552-3.38226-3.38809.14728-8.51993.05594-17.044.05416-25.56647-.00031-1.48794-.1756-3.05975,2.09014-2.99756,12.49333.343,25.01142-.76641,37.4862.6096,4.6573.51373,8.56844,3.0065,12.26506,5.48877,5.82766,3.91324,11.1954,4.14287,16.8699-.07082,2.12084-1.57487,4.63179-2.613,6.86472-4.0514,2.91281-1.87633,2.89008-4.42181-.08133-6.1865-7.77387-4.61682-15.56583-9.20538-23.417-13.68888a22.86789,22.86789,0,0,0-11.81671-3.02065c-12.25178.12565-24.50665-.04012-36.758.10589-2.84986.034-3.655-.87389-3.55805-3.63181.19169-5.453.01261-10.9179.07085-16.377.04493-4.2105,2.18653-6.41331,6.37487-6.4151q83.50731-.03579,167.01448-.09324c2.98758-.00563,4.50618,1.84674,6.49176,3.27434Z" transform="translate(-201.23516 -185.19939)"/>
    <path class="cls-2" d="M383.73512,266.91737q-21.38016-.03631-42.76033-.065a20.07217,20.07217,0,0,0-10.17265,3.14175q-39.61474,23.15478-79.19479,46.369a23.4082,23.4082,0,0,1-12.13207,3.32671c-10.65819-.02939-21.31729-.07977-31.97418.04077-2.62082.02964-3.79951-.47875-3.72825-3.4573q.29145-12.18142-.00058-24.37356c-.07157-2.97442,1.09579-3.48445,3.721-3.45981,12.1227.11384,24.24879-.06849,36.37.10833a24.98084,24.98084,0,0,0,13.26221-3.62978q38.40408-22.46067,76.75231-45.01678a28.8137,28.8137,0,0,1,15.887-4.33194c11.31611.318,22.64612.142,33.97035.17073Z" transform="translate(-201.23516 -185.19939)"/>
  </g>
</svg>
