<svg id="Layer_1" data-name="Layer 1" xmlns="http://www.w3.org/2000/svg" viewBox="0 0 180 182.50001">
  <defs>
    <style>
      .cls-1, .cls-3 {
        fill: none;
      }

      .cls-2 {
        fill: #e6e7e8;
      }

      .cls-3 {
        stroke: #e6e7e8;
        stroke-miterlimit: 10;
        stroke-width: 5px;
      }
    </style>
  </defs>
  <rect class="cls-1" y="3.17238" width="180" height="178.65523"/>
  <g>
    <path class="cls-2" d="M366.91135,256.24h0m-25.904,2.90063h0m-4.18274.10587.08719.44015c.39774,2.00809.7956,4.01618,1.21234,6.0203.39817,1.91476.81208,3.82626,1.22605,5.73776.35635,1.64557.71277,3.29114,1.05881,4.93894.29083,1.38479.56735,2.77261.844,4.1604.2439,1.22369.48782,2.44735.74106,3.66916.22055,1.06405.45209,2.12582.68368,3.18753.23737,1.0881.47483,2.17617.69947,3.26693.259,1.25751.5076,2.51718.75625,3.7768.27982,1.41726.55966,2.83447.85349,4.24884.389,1.87262.80542,3.75567,1.208,5.57672l.37658,1.70648a5.28439,5.28439,0,0,0,1.14865,2.28738,5,5,0,0,0,8.86725-2.01971l.2692-1.29739c.186-.897.36377-1.75449.54364-2.61158l.57586-2.73239q.5241-2.48139,1.04111-4.9642.39231-1.89711.77307-3.79666.38818-1.9216.7825-3.84183.39235-1.8951.79679-3.78766.4124-1.94526.81845-3.89184.39519-1.91025.77771-3.82306.38452-1.90663.77551-3.81189.39483-1.90732.80246-3.81192.40989-1.93093.81323-3.86325l.28635-1.377c.2316-1.111.46744-2.24243.69574-3.38482,1.04629.00512,2.14462.00766,3.30942.00766q.81638,0,1.63272-.0015c-.37824,1.79315-.75293,3.58759-1.12116,5.36951q-1.50362,7.21623-2.99252,14.43-.29,1.3976-.58606,2.794l-.27075,1.28543a5,5,0,0,0-.10678.99106q-.21168.973-.42539,1.94543c-.36831,1.68-.73651,3.36-1.08715,5.04361q-2.00259,9.61578-3.97562,19.233a9.49662,9.49662,0,0,0-.15039,1.07147l-.01288.131a4.99454,4.99454,0,0,0-.03421.63174,5.66145,5.66145,0,0,1-.25763,1.7428q-.07356.23565-.12369.47766l-2.91678,14.08935a4.99972,4.99972,0,0,0-.53183,1.41907l-.574,2.72745c-.33041,1.56644-.66757,3.16489-.99915,4.77112q-1.7443-.00687-3.48822-.00663-1.75986,0-3.51791.00583c-.33685-1.63528-.67944-3.26291-1.01517-4.85785l-.40869-1.94378q-.0346-.16494-.08026-.32736a8.63887,8.63887,0,0,0-.41824-1.16056q-.05356-.12062-.11325-.238-.96246-4.72335-1.94992-9.44129-.64362-3.09544-1.28364-6.19165-.03108-.15078-.07141-.29947a5.93628,5.93628,0,0,1-.20691-1.542,5.002,5.002,0,0,0-.094-.95505q-.22623-1.1505-.4491-2.30163c-.33181-1.70728-.66372-3.41452-1.01361-5.118q-1.91212-9.30949-3.85479-18.6128-.04156-.19921-.09928-.39456-.06642-.22476-.14715-.44592l-.20145-.9953q-.32777-1.62108-.65887-3.24176l-.35993-1.75458q-.66083-3.22407-1.33444-6.44556c-.252-1.19369-.51254-2.38571-.7731-3.57766-.438-2.00431-.89106-4.07685-1.28693-6.09739-.1398-.71356-.285-1.45486-.43622-2.21456l1.66852.0014c1.21628,0,2.30194-.00189,3.30331-.00583m3.42808-5.03708a.82914.82914,0,0,0-.14975.01369c-2.194.02345-4.38743.0292-6.58164.0292-2.11688,0-4.23459-.00535-6.35147-.00535-.21674,0-.43359.00438-.65033.00438-.13522,0-.27039-.00171-.40536-.00725l-.03989-.00084c-.29315,0-.36664.1461-.30161.42867.5925,2.57336,1.1019,5.16336,1.60965,7.75491.63852,3.25925,1.38834,6.49658,2.07459,9.74667.57474,2.722,1.129,5.44831,1.68878,8.17334.321,1.5629.635,3.1272.95218,4.69089a2.50247,2.50247,0,0,1,.1579.40253q1.941,9.29524,3.85144,18.59671c.50433,2.45544.97073,4.91876,1.45443,7.37848a10.93412,10.93412,0,0,0,.38126,2.84109c1.09445,5.30985,2.21243,10.61481,3.29349,15.92737a1.59847,1.59847,0,0,0,.38019.9624,3.60437,3.60437,0,0,1,.1752.48624c.70208,3.34707,1.41629,6.69186,2.0802,10.04651.11319.572.30969.7435.88092.7435l.01617-.00007q3.4293-.01895,6.85794-.02063,3.34342,0,6.68744.026l.02893.00012c.67237,0,.89951-.20212,1.031-.8642.7045-3.54922,1.46606-7.0871,2.20785-10.62894a1.7893,1.7893,0,0,0,.48105-1.17364q1.48595-7.17326,2.97009-14.34674a10.67023,10.67023,0,0,0,.48478-3.27951c.03064-.25977.04211-.52344.09472-.77869q1.97246-9.61446,3.97357-19.22293c.50562-2.42779,1.04831-4.8479,1.57407-7.27148a.60507.60507,0,0,0,.04337-.69971c.28665-1.36392.5762-2.7272.8594-4.09183q1.48906-7.21445,2.9917-14.42608,1.10059-5.32594,2.2446-10.64264c.14276-.66355-.11984-.76548-.69345-.76548l-.023.00007q-3.46761.01549-6.9346.02011-3.175,0-6.35038-.03168l-.04055-.00023c-.865,0-1.12232.31917-1.26841,1.13724-.45608,2.5547-1.00225,5.09355-1.52838,7.63548-.52993,2.56012-1.08569,5.1149-1.61566,7.675-.52646,2.54333-1.02713,5.092-1.55334,7.63547-.52991,2.56137-1.08478,5.11755-1.615,7.67883-.52683,2.54486-1.02958,5.09473-1.55582,7.63971-.52988,2.56238-1.0766,5.12131-1.614,7.68216-.2652,1.26376-.52594,2.52844-.81482,3.91839-.14682-.19558-.22135-.25189-.23658-.32132-.52941-2.40856-1.07147-4.81466-1.57309-7.22912-.55438-2.66858-1.05822-5.3476-1.608-8.01715-.44424-2.15717-.93744-4.30414-1.38443-6.46073-.54129-2.61163-1.03955-5.23223-1.5877-7.8424-.74732-3.55854-1.54255-7.10706-2.28284-10.667-.67114-3.22747-1.29263-6.4653-1.94507-9.69673a.82374.82374,0,0,0-.82165-.78282Z" transform="translate(-261.48322 -159.92794)"/>
    <path class="cls-2" d="M403.40027,259.069a20.48744,20.48744,0,0,1,4.83523.58093,20.77291,20.77291,0,0,1,11.387,7.2107,6.42694,6.42694,0,0,0,.95523,1.67987,20.98642,20.98642,0,0,1,2.88379,6.55475q-1.141-.00225-2.2818-.00223-1.53786,0-3.076.00406a15.7186,15.7186,0,0,0-14.85187-10.69037c-.34283,0-.69043.01138-1.033.03378a15.61575,15.61575,0,0,0-12.68118,8.02866,5.00013,5.00013,0,0,0-.25675.53436,6.07916,6.07916,0,0,0-.38839,1.41913q-.01694.11544-.02848.2315a18.42664,18.42664,0,0,0-.96313,7.12916c.01575,9.79315.01709,19.73364.004,29.55145-.0539,1.7673-.10111,4.0816-.0019,6.4429q.00531.126.01694.25156A15.33645,15.33645,0,0,0,403.254,332.01953c.47626,0,.959-.02237,1.43469-.06647a15.47568,15.47568,0,0,0,13.98792-15.57782q-.0001-1.15613.00509-2.31237c.007-2.1077.01431-4.28714-.03412-6.50394-.12484-4.16873-2.31332-6.28586-6.50485-6.29248l-1.02533-.00073-1.81564.00128-1.40018.001c-.0032-1.91413-.00326-3.834-.00009-5.74878.72983-.011,1.45963-.01957,2.18881-.01957,1.28668,0,2.34207.02729,3.32129.08591,2.4527.14685,4.86926.16568,6.70053.16568.893,0,1.7861-.005,2.67914-.01q.63332-.00357,1.2666-.00659.002,1.6078.0044,3.21545c.00851,5.938.01733,12.07734-.01181,18.10883a20.91581,20.91581,0,0,1-20.79361,20.34619c-.14508,0-.28955-.00143-.43558-.00445a20.91822,20.91822,0,0,1-19.66422-15.3798l-.01556-.05639a18.03077,18.03077,0,0,1-.677-4.60889,4.99783,4.99783,0,0,0-.05594-.669q.0044-.10547.00436-.21106-.00136-3.7272.01578-7.45477c.01932-5.753.03931-11.70178-.06094-17.57614-.03842-2.25278-.054-4.55591-.069-6.7832-.0127-1.88352-.02542-3.76679-.05124-5.64954a19.88391,19.88391,0,0,1,4.2579-11.75867,24.48077,24.48077,0,0,1,3.002-3.08032q.03726-.032.07388-.06482a19.76811,19.76811,0,0,1,11.29031-4.92117q.18792.006.3758.006a11.71991,11.71991,0,0,0,1.655-.11783q.249-.00609.4978-.00607m4.51251,32.88321h0M403.40027,254.069q-.4849,0-.97037.01852a6.68593,6.68593,0,0,1-1.18246.10538q-.23314,0-.46628-.01628a24.65435,24.65435,0,0,0-14.5332,6.20467,29.41445,29.41445,0,0,0-3.64042,3.74023,24.76908,24.76908,0,0,0-5.36077,14.86661c.05828,4.17892.05041,8.36.12176,12.54175.14185,8.31363.04132,16.63144.04443,24.94751a3.032,3.032,0,0,0,.05225.95941,23.0228,23.0228,0,0,0,.86478,5.88757,25.80909,25.80909,0,0,0,24.38913,19.07526c.18005.00369.35852.00549.53775.00549a25.80983,25.80983,0,0,0,25.79336-25.28171c.0426-8.76461.00537-17.52966.00379-26.29449a1.05592,1.05592,0,0,0-.51587-.0687c-1.04172-.02194-2.08271-.02884-3.12445-.02884-1.76685,0-3.53437.01987-5.30155.01987-2.13339,0-4.26736-.029-6.40173-.15674-1.20435-.07211-2.41135-.09488-3.62009-.09488-1.89584,0-3.79538.05607-5.69107.06568-1.27719.00647-1.48385.20956-1.48855,1.48935q-.02308,6.28208-.00019,12.56405c.005,1.36945.27973,1.633,1.66849,1.64176q1.45917.0092,2.91794.00781,1.81013,0,3.62051-.00259.50867,0,1.01758.00073c1.47177.00232,1.47177.00513,1.5148,1.44241.06323,2.90344.02628,5.8057.0268,8.70774a10.41211,10.41211,0,0,1-9.44938,10.5578q-.49067.0455-.97323.04513a10.41383,10.41383,0,0,1-10.35547-9.45178c-.08606-2.04816-.057-4.10309.00619-6.15329q.02-14.89875-.00412-29.79871a13.57055,13.57055,0,0,1,.81855-5.69116,3.24368,3.24368,0,0,0,.12033-.776,1.07283,1.07283,0,0,1,.06857-.25058,10.67764,10.67764,0,0,1,8.63681-5.46811q.35559-.02325.70694-.02313a10.67833,10.67833,0,0,1,10.64435,9.9816c.03918.65365.259.72274.79108.72274l.03024-.00006q3.23141-.018,6.46219-.018,3.53443,0,7.06927.02148l.03113.00009c.6048,0,.81421-.115.78833-.79647a26.02974,26.02974,0,0,0-4.40445-13.662c-.17172-.25885-.45581-.47217-.38641-.84381a1.58282,1.58282,0,0,0-.37128-.58933,25.717,25.717,0,0,0-14.51544-9.43771,25.40853,25.40853,0,0,0-5.99057-.71625Z" transform="translate(-261.48322 -159.92794)"/>
    <path class="cls-2" d="M299.91263,259.22632c.17779,0,.35547.00238.52572.007a21.02354,21.02354,0,0,1,19.79242,15.89782q-1.06822-.00114-2.13623-.00116-1.65839,0-3.31564.00281a14.47848,14.47848,0,0,0-1.29019-2.7301,4.99849,4.99849,0,0,0-.71378-.91483,15.076,15.076,0,0,0-11.23706-6.69793,15.163,15.163,0,0,0-15.56024,8.74167,15.55214,15.55214,0,0,0,.29092,13.74206l.00309.00592a4.99946,4.99946,0,0,0,.56534,1.28262,14.60818,14.60818,0,0,0,9.69924,6.63849c1.3642.2873,2.68665.47922,3.96619.66489a38.43012,38.43012,0,0,1,4.42828.81293q.05292.01428.10611.02743a23.22365,23.22365,0,0,1,7.48908,3.33548c.47162.33744.97131.74805,1.49948,1.1821q.30057.247.60226.4924a24.71814,24.71814,0,0,1,4.39191,6.4849,20.67212,20.67212,0,0,1,1.476,5.22314q.01086.075.024.14972a18.278,18.278,0,0,1,.25986,3.9689,21.19687,21.19687,0,0,1-14.657,18.94962q-.057.01812-.11356.03766a14.474,14.474,0,0,1-3.903.76846c-.385.01446-.77057.03516-1.1565.05615-.59234.0322-1.15188.06262-1.66025.06262l-.14016-.00058a19.62758,19.62758,0,0,1-9.61319-2.77621q-.037-.02211-.07434-.04364A20.4628,20.4628,0,0,1,281.37,326.044l-.03321-.06473a19.11131,19.11131,0,0,1-1.6369-4.34909l2.0484-.00049,3.36057.00079a15.1155,15.1155,0,0,0,2.2756,4.27457,15.31431,15.31431,0,0,0,9.32019,6.0502,15.73063,15.73063,0,0,0,18.56015-12.0231A14.51205,14.51205,0,0,0,313.997,309.808a5,5,0,0,0-.75519-1.06939,14.88319,14.88319,0,0,0-9.90893-6.94635c-1.32309-.30869-2.61521-.5387-3.86582-.7613-1.04547-.18609-2.033-.36187-3.03946-.58432a30.78891,30.78891,0,0,1-6.812-2.2944,14.88675,14.88675,0,0,0-2.12082-1.513c-.30768-.19049-.59833-.37039-.75772-.49853a20.521,20.521,0,0,1-3.72424-3.8982,20.79337,20.79337,0,0,1-3.22162-6.75256,20.47758,20.47758,0,0,1-.62393-6.51306q.00306-.04729.00525-.09464a20.04579,20.04579,0,0,1,3.50033-10.43622q.11508-.16767.21628-.34433.09851-.172.18909-.34939a30.588,30.588,0,0,1,2.68093-3.00327,20.437,20.437,0,0,1,10.05039-5.09274l.07471-.01495a19.80059,19.80059,0,0,1,4.02841-.415M289.5864,321.55179h0m10.32626-67.32547a24.76029,24.76029,0,0,0-5.04776.52,25.46013,25.46013,0,0,0-12.55826,6.38543,35.46882,35.46882,0,0,0-3.53726,4.023,3.30524,3.30524,0,0,1-.219.46183,25.06289,25.06289,0,0,0-4.37268,13.03711,25.51414,25.51414,0,0,0,.776,8.10064,25.91588,25.91588,0,0,0,4.00412,8.41339,25.55806,25.55806,0,0,0,4.648,4.87107c.87241.70135,1.90357,1.14691,2.73407,1.89139a2.89049,2.89049,0,0,0,.932.64373,35.75725,35.75725,0,0,0,8.1243,2.76517c2.28607.50583,4.61145.80518,6.89206,1.34384a9.92616,9.92616,0,0,1,6.83313,4.91614,1.98154,1.98154,0,0,0,.44888.5336,9.52091,9.52091,0,0,1,.82132,6.67935,10.73071,10.73071,0,0,1-12.67438,8.24689,10.35113,10.35113,0,0,1-6.31549-4.13171,10.09566,10.09566,0,0,1-2.10586-6.21158.96387.96387,0,0,0-.59784-.08426q-3.47484-.0016-6.94974-.00162t-6.94974.00162a.97432.97432,0,0,0-.59817.084,28.89858,28.89858,0,0,0,.12417,3.21305,24.17234,24.17234,0,0,0,2.58017,8.36538,25.519,25.519,0,0,0,10.06318,10.63672,24.59246,24.59246,0,0,0,12.06649,3.48468q.1274.00192.25476.00189c1.01694,0,2.03406-.08728,3.04706-.12384a19.47826,19.47826,0,0,0,5.30344-1.0368,26.08638,26.08638,0,0,0,18.13241-23.44293,23.329,23.329,0,0,0-.328-5.10565,25.66634,25.66634,0,0,0-1.86282-6.55533,29.77734,29.77734,0,0,0-5.56067-8.12433c-.87781-.69986-1.72495-1.443-2.63916-2.09155a28.29909,28.29909,0,0,0-9.1456-4.08484c-2.866-.77494-5.83466-.94083-8.7269-1.556a9.58184,9.58184,0,0,1-6.42444-4.37162A3.50559,3.50559,0,0,0,290.7,284.958a10.46908,10.46908,0,0,1-.187-9.3212,10.16324,10.16324,0,0,1,10.51749-5.87177,9.992,9.992,0,0,1,7.63189,4.57016c.1601.24036.27426.52277.554.665a9.48962,9.48962,0,0,1,1.37173,4.51068c.04221.49985.17838.6312.6558.6312h.00885q3.421-.012,6.84182-.01206,3.52785,0,7.05585.01285l.01035,0c.47586,0,.62915-.12286.64154-.624a20.01647,20.01647,0,0,0-.59742-5.086,26.02234,26.02234,0,0,0-24.62429-20.19754q-.33408-.009-.66791-.009Z" transform="translate(-261.48322 -159.92794)"/>
    <path class="cls-3" d="M265.26184,248.59a15.8103,15.8103,0,0,1,15.84882-15.77171q.13827.00033.27648.00309a15.39016,15.39016,0,0,1,10.28422,4.11871,1.69615,1.69615,0,0,0,1.23394.521q15.39732-.02145,30.79467-.01494c.19159-.00009.40881.08409.5873-.098-.067-.31139-.3417-.45743-.53849-.65445q-10.72566-10.7383-21.45379-21.47411a1.86694,1.86694,0,0,0-1.35994-.61881,15.78846,15.78846,0,1,1,16.35742-17.67991,5.2334,5.2334,0,0,0,1.66362,3.45127c6.868,6.77716,13.6707,13.62045,20.48725,20.44962a5.74461,5.74461,0,0,1,.57266.82235,1.19406,1.19406,0,0,0,.26732-1.03143q.01062-15.17735.01546-30.35467a2.082,2.082,0,0,0-.555-1.4862,15.78626,15.78626,0,0,1,9.39709-26.16063,15.68756,15.68756,0,0,1,17.88332,13.12959q.06956.45375.11248.911a15.44323,15.44323,0,0,1-4.04321,12.209,1.51083,1.51083,0,0,0-.4916,1.06706q.01848,15.61725.012,31.23449a1.57394,1.57394,0,0,0,.04457.25782c.33471.01827.4473-.26187.615-.42932q10.83321-10.81739,21.66041-21.64065a1.55487,1.55487,0,0,0,.51814-1.13464,15.78637,15.78637,0,1,1,19.28546,16.01519,12.52691,12.52691,0,0,1-2.60581.35413,2.21883,2.21883,0,0,0-1.658.76826q-10.6184,10.65886-21.26465,21.29c-.21429.21463-.51918.37163-.60758.8074h.88185q15.13342,0,30.26678.01051a2.20537,2.20537,0,0,0,1.563-.58412,15.19912,15.19912,0,0,1,15.97218-3.0436c5.7855,2.12476,9.10226,6.453,10.18482,12.49918.1237.69084.14581,1.39988.215,2.10048a.2247.2247,0,0,1-.1081.29426,4.23669,4.23669,0,0,1-1.82227.16611q-39.32272.0078-78.6455.00444-44.99685,0-89.99368-.008C266.49111,248.88966,265.8169,249.07082,265.26184,248.59Z" transform="translate(-261.48322 -159.92794)"/>
  </g>
</svg>
