<svg id="Layer_1" data-name="Layer 1" xmlns="http://www.w3.org/2000/svg" viewBox="0 0 180 178.65523">
  <defs>
    <style>
      .cls-1 {
        fill: none;
      }

      .cls-2 {
        fill: #e6e7e8;
      }
    </style>
  </defs>
  <rect class="cls-1" width="180" height="178.65523"/>
  <g>
    <path class="cls-2" d="M295.12662,229.42723a3.19825,3.19825,0,0,1,.44415.03269c.39935.05616.852.11976,1.4679,1.76429a71.17552,71.17552,0,0,1,4.59024,22.00226c.21234,4.7327,3.29379,7.11508,5.13491,8.53851a9.4332,9.4332,0,0,1,1.26127,1.07944,5.56522,5.56522,0,0,0,4.33526,2.11554,6.37493,6.37493,0,0,0,5.03711-2.83942l.04508-.0599a69.94266,69.94266,0,0,0,6.45114-8.13651q.07255-.107.13952-.21768a17.64349,17.64349,0,0,1,1.09912-1.60809c.77887-.93489,1.44764-1.26824,1.78733-1.26824a1.7988,1.7988,0,0,1,.89346.39193c.298.22,1.08966.80447-.17007,2.75987q-.03946.06129-.07718.12373A54.94126,54.94126,0,0,1,316.82,266.96646c-4.32352,3.60892-4.06076,8.108-3.9032,10.80176.019.3259.03872.65332.0488.95361a5.87229,5.87229,0,0,0,6.03323,5.87845,10.70187,10.70187,0,0,0,1.31314-.0943l.17627-.02066a63.4072,63.4072,0,0,0,15.37787-3.79755,4.02834,4.02834,0,0,1,1.32269-.26565,1.15448,1.15448,0,0,1,1.2273.85687,1.20093,1.20093,0,0,1,.0372.97415,2.15223,2.15223,0,0,1-1.25708,1.05542q-.05238.0207-.10431.04264a53.87177,53.87177,0,0,1-18.25119,4.18246q-.06588-.00045-.1319-.00049a17.7915,17.7915,0,0,0-13.97421,6.84992c-3.90671,4.868.2348,8.83459,1.108,9.58282l.10483.09006a90.18067,90.18067,0,0,0,9.47754,7.18323,3.28525,3.28525,0,0,1,1.6112,1.88437.87932.87932,0,0,1-.16675.7293c-.47161.71232-.83609.71232-1.07727.71232a4.44853,4.44853,0,0,1-2.152-.79337,74.42767,74.42767,0,0,1-13.87247-11.52274c-2.38236-2.51217-6.89584-3.18249-9.1872-3.18249a8.81723,8.81723,0,0,0-4.39187.99234c-1.225.68817-3.96692,2.77527-2.97467,7.28055.012.05484.025.10959.03024.13406l.01309.08121a87.64269,87.64269,0,0,0,4.05829,15.32574q.04009.11.08536.218a1.28191,1.28191,0,0,1-.47119,1.55963q-.07434.04949-.14682.1016a1.62658,1.62658,0,0,1-1.87723.0151,2.224,2.224,0,0,1-.73288-1.12057q-.036-.12942-.07889-.25678c-2.31134-6.86136-4.45773-14.278-4.5126-22.0314-.01279-1.37229-.42581-3.14468-3.33606-6.79047-2.89-3.62039-4.497-4.41543-5.78015-4.72967a6.22593,6.22593,0,0,0-1.50757-.18808A6.116,6.116,0,0,0,264.006,292.26l-.0162.02063a62.59549,62.59549,0,0,0-7.71253,10.02679c-.57742.84491-1.218,1.347-1.72223,1.347a1.839,1.839,0,0,1-.76355-.21756q-.13137-.06569-.26642-.12357a.90244.90244,0,0,1-.54434-.89782q.01662-.21858.014-.438a1.90777,1.90777,0,0,1,.37194-1.15082q.10715-.14475.20366-.297a66.16905,66.16905,0,0,1,11.32736-13.48751q.03259-.02972.06473-.06c3.03922-2.86768,4.389-10.04794,2.57691-13.72382a5.9383,5.9383,0,0,0-5.38987-3.42346,7.59989,7.59989,0,0,0-1.68948.20764l-.06619.01422a65.32315,65.32315,0,0,0-14.98288,3.758,5.20177,5.20177,0,0,1-1.71439.40561.87434.87434,0,0,1-.58185-.18289q-.10862-.07545-.22113-.14508a1.3986,1.3986,0,0,1,.28051-2.51145q.14364-.04948.2841-.10763a62.01809,62.01809,0,0,1,16.42053-4.28836c1.4953-.1742,3.0159-.27546,4.62577-.38266.7846-.05222,1.56829-.1045,2.33758-.16428,1.142-.08594,2.66422-.42331,6.29373-3.35733,3.8844-3.14011,4.34427-4.583,4.59131-5.35819l.01618-.05166a6.1324,6.1324,0,0,0-2.45163-6.93887l-.0326-.025a64.49493,64.49493,0,0,0-10.075-7.65162c-1.21127-.81556-1.14484-1.28037-1.10019-1.59362a1.60635,1.60635,0,0,1,1.2059-1.32708q.18293-.04539.36206-.10445a.36538.36538,0,0,1,.12021-.02518,3.76735,3.76735,0,0,1,1.596.75641,68.612,68.612,0,0,1,13.18332,10.909c2.51251,2.69808,6.7218,3.90576,9.77884,3.90576a9.753,9.753,0,0,0,3.994-.78563c1.45343-.65158,4.70456-2.728,3.5061-7.92428-.01407-.061-.02872-.12075-.04059-.17873l-.013-.08194a84.48182,84.48182,0,0,0-3.95868-15.00323,1.90334,1.90334,0,0,1,.06934-1.67176,1.48325,1.48325,0,0,1,1.23932-.50343m-5.02,67.52147a19.66566,19.66566,0,0,0,1.10528-39.31454l-.0624-.00174q-.2098-.00449-.41892-.00452c-10.70038.00009-19.84543,8.70062-19.96969,18.996-.13981,11.01608,8.353,20.132,18.9266,20.32083.14026.00266.27966.00394.41913.00394m5.0206-72.52145c-4.62094-.00045-7.63272,4.13324-6.02731,8.83177a79.26681,79.26681,0,0,1,3.74523,14.17172c.12714.91315.77448,2.19623-.5664,2.79733a4.86763,4.86763,0,0,1-1.94864.34816,9.22139,9.22139,0,0,1-6.11975-2.31323,73.59922,73.59922,0,0,0-14.16016-11.72113,8.029,8.029,0,0,0-4.278-1.53677,5.34305,5.34305,0,0,0-1.68662.27679,6.61152,6.61152,0,0,0-4.94739,5.44446c-.4161,2.91293,1.075,5.03984,3.35221,6.54254a59.35109,59.35109,0,0,1,9.38617,7.12056c.48547.48549,1.39868.79761,1.08658,1.81483-.33524,1.05188-5.42133,5.167-6.49634,5.2479-2.38129.185-4.78556.289-7.16678.56644a67.04149,67.04149,0,0,0-17.75511,4.63525,6.39855,6.39855,0,0,0-1.28307,11.49,5.85848,5.85848,0,0,0,3.43463,1.0766,10.02646,10.02646,0,0,0,3.45473-.71826,60.3603,60.3603,0,0,1,13.9174-3.49091,10.89893,10.89893,0,0,1,1.08081-.1763.95327.95327,0,0,1,.90738.63867c.80918,1.64142-.09246,6.51944-1.52581,7.87189a71.15433,71.15433,0,0,0-12.18351,14.50693,6.89655,6.89655,0,0,0-1.35244,4.18445,5.90242,5.90242,0,0,0,3.56028,5.87213,6.68667,6.68667,0,0,0,2.99965.74545c2.21826,0,4.32541-1.23718,5.92414-3.63525a57.46528,57.46528,0,0,1,7.17831-9.33994c.38583-.38583.64694-1.02142,1.3-1.02142a1.21419,1.21419,0,0,1,.29517.03888c1.13278.27743,5.31729,5.47912,5.32882,6.71594.0578,8.17245,2.19626,15.92874,4.774,23.581A7.20872,7.20872,0,0,0,281.887,328.762a6.62652,6.62652,0,0,0,7.81409.0578,6.27993,6.27993,0,0,0,2.31189-7.65228,82.41258,82.41258,0,0,1-3.82614-14.44913c-.12717-.83227-.578-1.72235.4508-2.30032a4.25688,4.25688,0,0,1,1.94284-.3515c1.99924,0,4.65326.66772,5.55918,1.623a79.32711,79.32711,0,0,0,14.7959,12.28756,9.1617,9.1617,0,0,0,4.85656,1.588,6.13917,6.13917,0,0,0,5.24628-2.952c2.06912-3.1326.92477-7.07431-2.87826-9.55957a84.79249,84.79249,0,0,1-8.93534-6.77374c-.85541-.73981-1.73392-1.364-.5664-2.79737a12.68085,12.68085,0,0,1,10.05044-4.94937c.07532,0,.15021.00067.22571.002a59.04106,59.04106,0,0,0,20.10165-4.57752c3.82618-1.51425,5.42136-5.271,3.97644-8.64636a6.11985,6.11985,0,0,0-5.82385-3.88922,8.9564,8.9564,0,0,0-3.07681.58325,58.3654,58.3654,0,0,1-14.20636,3.514,8.53789,8.53789,0,0,1-.9068.0809c-.56769,0-1.01206-.18491-1.03516-1.01721-.0925-2.77423-.7052-5.50223,2.10379-7.81409a60.01461,60.01461,0,0,0,11.77893-14.07922c2.32337-3.60649,1.89569-7.3055-1.0635-9.49021a6.48535,6.48535,0,0,0-3.863-1.36941,7.49835,7.49835,0,0,0-5.69656,3.14955,22.57954,22.57954,0,0,0-1.46805,2.13847,64.71012,64.71012,0,0,1-6.0802,7.65226c-.33716.39041-.82422,1.18951-1.31467,1.18951a.56991.56991,0,0,1-.44235-.2532c-1.76855-2.20783-5.13232-3.0979-5.29416-6.70441a76.30914,76.30914,0,0,0-4.91269-23.55788c-.98257-2.624-2.56619-4.53126-5.44446-4.93583a8.169,8.169,0,0,0-1.13946-.08136Zm-5.0206,67.52148c-.108,0-.216-.001-.32468-.00308-7.76785-.1387-14.12546-7.06275-14.02145-15.25827.09131-7.5647,7.06381-14.05942,14.97015-14.05948q.15546,0,.31128.00336a14.62478,14.62478,0,0,1,14.12546,14.86526c-.10272,8.229-6.61789,14.45221-15.06076,14.45221Z" transform="translate(-200.46806 -188.04099)"/>
    <path class="cls-2" d="M374.37769,193.17955a.99716.99716,0,0,1,.12.00726,3.71641,3.71641,0,0,1,.512,1.46349c.74723,5.01337.44739,68.29974.05228,111.33264l-14.788-.04-10.26313-.0278a65.7281,65.7281,0,0,0,5.98038-38.502,64.63612,64.63612,0,0,0-14.68195-31.78461,68.69092,68.69092,0,0,0-26.09381-19.14125,64.901,64.901,0,0,0-23.17779-4.827q-.06216-.00159-.1243-.0016l-44.18771-.018-41.98145-.01717c-.0347-2.94765.00534-8.8196.23612-17.95909.00079-.03114.0009-.0481.00108-.07929a.59293.59293,0,0,1,.03746-.15991l55.48987-.06627,112.14663-.13392a4.99932,4.99932,0,0,0,.62378-.03981.75026.75026,0,0,1,.09858-.00565m-.00028-5a5.75259,5.75259,0,0,0-.72806.04548l-168.22.20089a5.219,5.219,0,0,0-2.91435,1.427,5.32669,5.32669,0,0,0-1.53315,3.68532c-.27539,10.90586-.32043,18.91465-.14854,20.68343a2.364,2.364,0,0,0,2.60994,2.40192q.04761,0,.09256-.00095,44.18769.018,88.37543.0361a60.14439,60.14439,0,0,1,21.3995,4.4516c17.68741,7.28708,34.217,24.35129,37.73944,47.06894,3.21134,20.71152-5.83948,36.76575-8.87271,41.67038a.63925.63925,0,0,0,.47641,1.07312.658.658,0,0,0,.18659-.027l34.83978.09436a1.82317,1.82317,0,0,0,.20444.0105,2.1095,2.1095,0,0,0,2.15179-2.27145c.05237-5.53391.99823-108.01291-.0881-114.85877a7.2309,7.2309,0,0,0-2.49274-4.78957,5.55733,5.55733,0,0,0-3.07828-.90123Z" transform="translate(-200.46806 -188.04099)"/>
    <path class="cls-2" d="M216.8873,248.47223c4.24945,0,9.1496.01092,14.419.03191a65.04323,65.04323,0,0,0-6.77484,29.4911,66.59893,66.59893,0,0,0,14.48487,40.34585c16.94218,21.00556,41.24218,24.08167,48.28628,24.52414q.155.0097.31037.00983l44.79388.02759,42.79733.0264c.033,3.27786-.00461,9.5755-.152,17.67956l-.00068.0524a2.83276,2.83276,0,0,1-.04287.51068,4.12561,4.12561,0,0,1-1.006.1637c-.88276.0668-7.60309.22226-50.83307.22226-29.4036,0-69.54761-.07089-116.09221-.205l-.01529,0q-.0778,0-.15564.00247l-.1265.002a2.36911,2.36911,0,0,1-.44937-.03614,2.8479,2.8479,0,0,1-.4006-1.069c-.65113-4.43554-.54144-59.1517-.09523-111.7373,2.04147-.02406,5.5892-.04242,11.05252-.04242m0-5c-7.37,0-12.228.033-13.37117.0914a2.95535,2.95535,0,0,0-2.19535.86224,2.47463,2.47463,0,0,0-.4654,1.66757c-.06434,7.407-.92367,108.94678.14583,114.99775a6.93927,6.93927,0,0,0,2.21371,4.20129,5.83293,5.83293,0,0,0,3.56508,1.06467c.09723,0,.19184-.00165.283-.00452,46.39072.13367,86.67352.20505,116.1066.20505,30.286,0,49.08419-.07559,51.21057-.2366a6.44446,6.44446,0,0,0,4.45642-1.86048,5.73637,5.73637,0,0,0,1.21475-3.76108c.18674-10.26944.2001-17.84735.1062-19.9703a3.06976,3.06976,0,0,0-.82745-2.2052,2.72427,2.72427,0,0,0-1.836-.60312c-.10538,0-.20309.00387-.29028.00937q-44.79392-.0276-89.5878-.05521c-4.10068-.25757-28.16825-2.16656-44.70784-22.673a60.11726,60.11726,0,0,1-3.88939-70.22982.96854.96854,0,0,0-1.0744-1.43743c-8.15242-.0429-15.35608-.06261-21.05709-.06261Z" transform="translate(-200.46806 -188.04099)"/>
  </g>
</svg>
