<svg id="Layer_1" data-name="Layer 1" xmlns="http://www.w3.org/2000/svg" viewBox="0 0 188.67996 178.65523">
  <defs>
    <style>
      .cls-1, .cls-2 {
        fill: none;
      }

      .cls-2 {
        stroke: #e6e7e8;
        stroke-miterlimit: 10;
        stroke-width: 5px;
      }
    </style>
  </defs>
  <rect class="cls-1" x="4.35046" width="180" height="178.65523"/>
  <g>
    <path class="cls-2" d="M369.17078,290.602q-16.27056,28.18956-34.93187,60.76553l-.259.45237c-.81474,1.42485-4.77565,8.32879-35.75486,61.92648-4.69738,8.127-14.39325,24.89048-18.99425,32.83979-18.05089-31.00924-32.1887-55.5833-41.92006-72.57091-8.47988-14.803-22.60886-39.54756-42.50925-73.63166-2.37356-4.06529-4.33226-7.41226-5.63072-9.6295l36.06085-.15211c3.73995,6.54207,6.85756,11.96072,9.10893,15.86453,2.55868,4.43665,3.23848,5.59185,8.21032,14.19992q4.42469,7.66074,8.84345,15.32492,4.11894,7.13574,8.24042,14.27c.38766.671,8.25679,14.2939,8.81224,15.25538.32429.56135,10.44212,18.07386,10.77875,18.65649,2.443-4.21957,9.53856-16.48137,11.9055-20.57385q6.74822-11.66785,13.49222-23.33816,4.16176-7.19853,8.32181-14.39807,4.36725-7.56248,8.72951-15.12777,4.11834-7.13592,8.23686-14.27176c1.12361-1.95,2.23405-3.90754,3.3504-5.86167Z" transform="translate(-184.82032 -279.26646)"/>
    <path class="cls-2" d="M333.26209,290.602c-1.1164,1.95412-2.22679,3.91171-3.35042,5.86167q-4.11359,7.13868-8.23687,14.27175-4.36521,7.56366-8.72951,15.12778-4.15823,7.20061-8.3218,14.39807-6.74925,11.66726-13.49223,23.33816c-2.36512,4.08935-9.46436,16.35753-11.90548,20.57383-.345-.59707-10.44449-18.07786-10.77877-18.65649-.5479-.94843-8.41984-14.576-8.81222-15.25538q-4.1208-7.13466-8.24043-14.27-4.42264-7.66192-8.84346-15.32492c-4.96725-8.61015-5.65127-9.76262-8.21032-14.19992-2.25137-3.9038-5.369-9.32245-9.10893-15.86453h33.322l20.757,35.88106q10.31469-17.94053,20.62935-35.881Z" transform="translate(-184.82032 -279.26646)"/>
  </g>
</svg>
