<svg id="Layer_1" data-name="Layer 1" xmlns="http://www.w3.org/2000/svg" viewBox="0 0 398.86306 805.10652"><defs><style>.cls-1{fill:#c4aaff;}.cls-2{fill:#262626;}.cls-3{fill:#1e1f00;}.cls-4{fill:#e6e6e6;}</style></defs><path class="cls-1" d="M1960.90051,1328.20972q-22.42529.03-44.84009-.02c-3.40991-.01-6.24,1.08-6.18994,4.83.04,3.73,2.85,4.78,6.27,4.74,7.30994-.08,14.61988-.0299,21.91992-.0299,7.64,0,15.28-.04,22.92.01989,3.26.03,5.77991-1.11,5.9-4.56994C1967.02051,1329.34961,1964.34058,1328.19971,1960.90051,1328.20972Zm-.5,6.76c-7.47.0299-14.94006.01989-22.41.01989v.01c-7.3,0-14.61.02-21.91-.01-1.46,0-3.37.20008-3.48-1.85-.13-2.39,1.87-2.30005,3.55-2.30005q22.155.00018,44.32-.01c1.66.01,3.75-.15991,3.73,2.15015C1964.17053,1335.3396,1961.9906,1334.96973,1960.40051,1334.96973Z" transform="translate(-1738.6185 -1307.90974)"/><rect class="cls-2" x="22.31174" y="14.61409" width="354.37053" height="31.15926"/><path class="cls-1" d="M1981.65051,1325.59961a1.76539,1.76539,0,0,0-.23.01,7.30756,7.30756,0,0,0-7,7.51,7.4628,7.4628,0,0,0,7.66956,7.25h.14038a7.55524,7.55524,0,0,0,7.05994-7.56995,7.41418,7.41418,0,0,0-7.62171-7.20056h-.00012Zm.17993,12.14c-3.18994-.00988-4.87-2.06994-4.72-5.15a4.42178,4.42178,0,0,1,4.36-4.48,2.88294,2.88294,0,0,1,.59.03c2.78.15,4.42,2,4.57007,5-.31994,2.82007-1.91,4.61-4.79992,4.6Z" transform="translate(-1738.6185 -1307.90974)"/><path class="cls-1" d="M2117.80054,1711.77966q0-172.1997-.01-344.41c0-2.33.02-4.65991-.07984-6.99-1-21.57007-17.18017-37.29-38.81006-37.58-11.15991-.15-22.33007-.06994-33.49-.02-6.41015.02991-8.15014,1.9-8.14013,8.43006.02,9-5.12989,15.8999-13.79993,18.57995-3.89,1.2-7.87,1.26-11.88,1.26q-73.46979-.015-146.95-.02a56.73992,56.73992,0,0,1-7.48-.31994c-11.51-1.57007-17.83007-8.77-17.8601-20.15015-.01-5.33984-2.14991-7.72-7.46-7.75989-11.65992-.06994-23.33008-.21008-34.99.09-22.66.59009-38.24,16.76-38.24,39.35q.00018,347.655-.23,695.31006c-.04,21.34986,16.40991,40.7898,40.40991,40.73q139.19988-.33032,278.3999.02979c21.01.06006,41.01-15.18994,40.87012-41.12988C2117.45044,1942.0498,2117.80054,1826.90967,2117.80054,1711.77966Zm-2.5,347.89014c0,20.32007-15.54,35.8999-36.09009,35.92993q-75.46509.09009-150.92993.02H1798.83057c-22.39991,0-37.67994-15.22-37.67994-37.55q-.01482-173.93994-.01-347.86987c.01-115.46008.27-230.92-.21-346.37012-.10009-24.33,17.82984-38.96,38.86988-38.54992,10.33008.20007,20.66.11,30.99-.01,4.15-.04993,5.98,1.34,5.92,5.82995-.13,11.46,6.69006,19.54,18,21.72a45.09751,45.09751,0,0,0,8.43.82007q75.22469.07489,150.44.03a35.18647,35.18647,0,0,0,11.78-1.88c9.1499-3.2301,14.3999-10.35,14.19995-20.05993-.09-4.8,1.66-6.57007,6.4-6.4801,10.66.19006,21.31995.02,31.9801.05993,21.75.1001,37.36011,15.83008,37.36011,37.62012Z" transform="translate(-1738.6185 -1307.90974)"/><path class="cls-1" d="M2128.56055,1364.0896c0-29.69995-21.77-51.30994-51.46-51.30994q-138.93-.015-277.9,0c-30.31994,0-51.03992,20.77-51.04993,51.16v177.93994c.02,21.65.16993,43.3.26,64.94995v.93c-.09008,1.32-.25,2.64-.25,3.96009q-.01482,223.43994,0,446.87c.01,28.26,21.18995,49.53,49.67994,49.56006q35.51989.04468,71.06005.05,105.16462.06006,210.34009-.06006c28.56006-.03,49.32007-21.14014,49.33008-49.76q.015-251.59515,0-503.17993Q2128.58546,1459.64972,2128.56055,1364.0896Zm-2.39991,694.27014c0,20.86011-12.1101,38.23-31.16992,44.82007a49.15636,49.15636,0,0,1-16.18994,2.55q-140.20514-.24024-280.40991.07983c-21.53.06006-45.17-14.61987-47.96-44.08984.04992-2.99.15991-5.99.15991-8.98q.0152-221.67.01-443.32007v-4.08008q.00018-120.27007-.01-240.52c0-1.65991-.11-3.31994-.16992-4.98,3.23-28.30993,21.67993-44.69995,50.29993-44.69995h274.4c30.79,0,51.05005,20.23,51.05005,50.91992q.01464,346.15485-.01026,692.29981Z" transform="translate(-1738.6185 -1307.90974)"/><path class="cls-3" d="M1960.90051,1328.20972q-22.42529.03-44.84009-.02c-3.40991-.01-6.24,1.08-6.18994,4.83.04,3.73,2.85,4.78,6.27,4.74,7.30994-.08,14.61988-.0299,21.91992-.0299,7.64,0,15.28-.04,22.92.01989,3.26.03,5.77991-1.11,5.9-4.56994C1967.02051,1329.34961,1964.34058,1328.19971,1960.90051,1328.20972Zm-.5,6.76c-7.47.0299-14.94006.01989-22.41.01989v.01c-7.3,0-14.61.02-21.91-.01-1.46,0-3.37.20008-3.48-1.85-.13-2.39,1.87-2.30005,3.55-2.30005q22.155.00018,44.32-.01c1.66.01,3.75-.15991,3.73,2.15015C1964.17053,1335.3396,1961.9906,1334.96973,1960.40051,1334.96973Z" transform="translate(-1738.6185 -1307.90974)"/><path class="cls-3" d="M1981.65051,1325.59961a1.76539,1.76539,0,0,0-.23.01,7.30756,7.30756,0,0,0-7,7.51,7.4628,7.4628,0,0,0,7.66956,7.25h.14038a7.55524,7.55524,0,0,0,7.05994-7.56995,7.41418,7.41418,0,0,0-7.62171-7.20056h-.00012Zm.17993,12.14c-3.18994-.00988-4.87-2.06994-4.72-5.15a4.42178,4.42178,0,0,1,4.36-4.48,2.88294,2.88294,0,0,1,.59.03c2.78.15,4.42,2,4.57007,5-.31994,2.82007-1.91,4.61-4.79992,4.6Z" transform="translate(-1738.6185 -1307.90974)"/><path class="cls-3" d="M2117.80054,1711.77966q0-172.1997-.01-344.41c0-2.33.02-4.65991-.07984-6.99-1-21.57007-17.18017-37.29-38.81006-37.58-11.15991-.15-22.33007-.06994-33.49-.02-6.41015.02991-8.15014,1.9-8.14013,8.43006.02,9-5.12989,15.8999-13.79993,18.57995-3.89,1.2-7.87,1.26-11.88,1.26q-73.46979-.015-146.95-.02a56.73992,56.73992,0,0,1-7.48-.31994c-11.51-1.57007-17.83007-8.77-17.8601-20.15015-.01-5.33984-2.14991-7.72-7.46-7.75989-11.65992-.06994-23.33008-.21008-34.99.09-22.66.59009-38.24,16.76-38.24,39.35q.00018,347.655-.23,695.31006c-.04,21.34986,16.40991,40.7898,40.40991,40.73q139.19988-.33032,278.3999.02979c21.01.06006,41.01-15.18994,40.87012-41.12988C2117.45044,1942.0498,2117.80054,1826.90967,2117.80054,1711.77966Zm-2.5,347.89014c0,20.32007-15.54,35.8999-36.09009,35.92993q-75.46509.09009-150.92993.02H1798.83057c-22.39991,0-37.67994-15.22-37.67994-37.55q-.01482-173.93994-.01-347.86987c.01-115.46008.27-230.92-.21-346.37012-.10009-24.33,17.82984-38.96,38.86988-38.54992,10.33008.20007,20.66.11,30.99-.01,4.15-.04993,5.98,1.34,5.92,5.82995-.13,11.46,6.69006,19.54,18,21.72a45.09751,45.09751,0,0,0,8.43.82007q75.22469.07489,150.44.03a35.18647,35.18647,0,0,0,11.78-1.88c9.1499-3.2301,14.3999-10.35,14.19995-20.05993-.09-4.8,1.66-6.57007,6.4-6.4801,10.66.19006,21.31995.02,31.9801.05993,21.75.1001,37.36011,15.83008,37.36011,37.62012Z" transform="translate(-1738.6185 -1307.90974)"/><path class="cls-3" d="M2128.56055,1364.0896c0-29.69995-21.77-51.30994-51.46-51.30994q-138.93-.015-277.9,0c-30.31994,0-51.03992,20.77-51.04993,51.16v177.93994c.02,21.65.16993,43.3.26,64.94995v.93c-.09008,1.32-.25,2.64-.25,3.96009q-.01482,223.43994,0,446.87c.01,28.26,21.18995,49.53,49.67994,49.56006q35.51989.04468,71.06005.05,105.18.04467,210.34009-.06006c28.56006-.03,49.32007-21.14014,49.33008-49.76q.015-251.59515,0-503.17993Q2128.58546,1459.64972,2128.56055,1364.0896Zm-2.39991,694.27014c0,20.86011-12.1101,38.23-31.16992,44.82007a49.15636,49.15636,0,0,1-16.18994,2.55q-140.20514-.01466-280.40991.07983c-21.53.06006-45.17-14.61987-47.96-44.08984.04992-2.99.15991-5.99.15991-8.98q.0152-221.67.01-443.32007v-4.08008q.00018-120.27007-.01-240.52c0-1.65991-.11-3.31994-.16992-4.98,3.23-28.30993,21.67993-44.69995,50.29993-44.69995h274.4c30.79,0,51.05005,20.23,51.05005,50.91992q.01464,346.15485-.01026,692.29981Zm2.39991-694.27c0-29.69995-21.77-51.30993-51.46-51.30993q-138.93-.015-277.9,0c-30.31994,0-51.03992,20.77-51.04993,51.16v177.93994c.02,21.65.16993,43.30005.26,64.94995v.93006c-.09008,1.31994-.25,2.64-.25,3.96008q-.01482,223.44012,0,446.86987c.01,28.26,21.18995,49.53,49.67994,49.56006q35.51989.04468,71.06005.05,105.18.04467,210.34009-.06006c28.56006-.03,49.32007-21.14014,49.33008-49.76q.015-251.59515,0-503.17993.01466-95.55011-.01025-191.11023Zm-2.39991,694.27c0,20.86011-12.1101,38.23-31.16992,44.82007a49.15636,49.15636,0,0,1-16.18994,2.55q-140.20514-.01466-280.40991.07983c-21.53.06006-45.17-14.61987-47.96-44.08984.04992-2.99.15991-5.99.15991-8.98q.0152-221.67.01-443.32007v-4.08008q.00018-120.27007-.01-240.52c0-1.65991-.11-3.31994-.16992-4.98,3.23-28.30993,21.67993-44.69995,50.29993-44.69995h274.4c30.79,0,51.05005,20.23,51.05005,50.91992q.01464,346.15485-.01026,692.29981Zm2.39991-694.27c0-29.69995-21.77-51.30993-51.46-51.30993q-138.93-.015-277.9,0c-30.31994,0-51.03992,20.77-51.04993,51.16v177.93994c.02,21.65.16993,43.30005.26,64.94995v.93006c-.09008,1.31994-.25,2.64-.25,3.96008q-.01482,223.44012,0,446.86987c.01,28.26,21.18995,49.53,49.67994,49.56006q35.51989.04468,71.06005.05,105.18.04467,210.34009-.06006c28.56006-.03,49.32007-21.14014,49.33008-49.76q.015-251.59515,0-503.17993.01466-95.55011-.01025-191.11023Zm-2.39991,694.27c0,20.86011-12.1101,38.23-31.16992,44.82007a49.15636,49.15636,0,0,1-16.18994,2.55q-140.20514-.01466-280.40991.07983c-21.53.06006-45.17-14.61987-47.96-44.08984.04992-2.99.15991-5.99.15991-8.98q.0152-221.67.01-443.32007v-4.08008q.00018-120.27007-.01-240.52c0-1.65991-.11-3.31994-.16992-4.98,3.23-28.30993,21.67993-44.69995,50.29993-44.69995h274.4c30.79,0,51.05005,20.23,51.05005,50.91992q.01464,346.15485-.01026,692.29981Zm2.39991-694.27c0-29.69995-21.77-51.30993-51.46-51.30993q-138.93-.015-277.9,0c-30.31994,0-51.03992,20.77-51.04993,51.16v177.93994c.02,21.65.16993,43.30005.26,64.94995v.93006c-.09008,1.31994-.25,2.64-.25,3.96008q-.01482,223.44012,0,446.86987c.01,28.26,21.18995,49.53,49.67994,49.56006q35.51989.04468,71.06005.05,105.18.04467,210.34009-.06006c28.56006-.03,49.32007-21.14014,49.33008-49.76q.015-251.59515,0-503.17993.01466-95.55011-.01025-191.11023Zm-2.39991,694.27c0,20.86011-12.1101,38.23-31.16992,44.82007a49.15636,49.15636,0,0,1-16.18994,2.55q-140.20514-.01466-280.40991.07983c-21.53.06006-45.17-14.61987-47.96-44.08984.04992-2.99.15991-5.99.15991-8.98q.0152-221.67.01-443.32007v-4.08008q.00018-120.27007-.01-240.52c0-1.65991-.11-3.31994-.16992-4.98,3.23-28.30993,21.67993-44.69995,50.29993-44.69995h274.4c30.79,0,51.05005,20.23,51.05005,50.91992q.01464,346.15485-.01026,692.29981Zm2.39991-694.27c0-29.69995-21.77-51.30993-51.46-51.30993q-138.93-.015-277.9,0c-30.31994,0-51.03992,20.77-51.04993,51.16v177.93994c.02,21.65.16993,43.30005.26,64.94995v.93006c-.09008,1.31994-.25,2.64-.25,3.96008q-.01482,223.44012,0,446.86987c.01,28.26,21.18995,49.53,49.67994,49.56006q35.51989.04468,71.06005.05,105.18.04467,210.34009-.06006c28.56006-.03,49.32007-21.14014,49.33008-49.76q.015-251.59515,0-503.17993.01466-95.55011-.01025-191.11023Zm-2.39991,694.27c0,20.86011-12.1101,38.23-31.16992,44.82007a49.15636,49.15636,0,0,1-16.18994,2.55q-140.20514-.01466-280.40991.07983c-21.53.06006-45.17-14.61987-47.96-44.08984.04992-2.99.15991-5.99.15991-8.98q.0152-221.67.01-443.32007v-4.08008q.00018-120.27007-.01-240.52c0-1.65991-.11-3.31994-.16992-4.98,3.23-28.30993,21.67993-44.69995,50.29993-44.69995h274.4c30.79,0,51.05005,20.23,51.05005,50.91992q.01464,346.15485-.01026,692.29981Zm2.39991-694.27c0-29.69995-21.77-51.30993-51.46-51.30993q-138.93-.015-277.9,0c-30.31994,0-51.03992,20.77-51.04993,51.16v177.93994c.02,21.65.16993,43.30005.26,64.94995v.93006c-.09008,1.31994-.25,2.64-.25,3.96008q-.01482,223.44012,0,446.86987c.01,28.26,21.18995,49.53,49.67994,49.56006q35.51989.04468,71.06005.05,105.18.04467,210.34009-.06006c28.56006-.03,49.32007-21.14014,49.33008-49.76q.015-251.59515,0-503.17993.01466-95.55011-.01025-191.11023Zm-2.39991,694.27c0,20.86011-12.1101,38.23-31.16992,44.82007a49.15636,49.15636,0,0,1-16.18994,2.55q-140.20514-.01466-280.40991.07983c-21.53.06006-45.17-14.61987-47.96-44.08984.04992-2.99.15991-5.99.15991-8.98q.0152-221.67.01-443.32007v-4.08008q.00018-120.27007-.01-240.52c0-1.65991-.11-3.31994-.16992-4.98,3.23-28.30993,21.67993-44.69995,50.29993-44.69995h274.4c30.79,0,51.05005,20.23,51.05005,50.91992q.01464,346.15485-.01026,692.29981Zm2.39991-694.27c0-29.69995-21.77-51.30993-51.46-51.30993q-138.93-.015-277.9,0c-30.31994,0-51.03992,20.77-51.04993,51.16v177.93994c.02,21.65.16993,43.30005.26,64.94995v.93006c-.09008,1.31994-.25,2.64-.25,3.96008q-.01482,223.44012,0,446.86987c.01,28.26,21.18995,49.53,49.67994,49.56006q35.51989.04468,71.06005.05,105.18.04467,210.34009-.06006c28.56006-.03,49.32007-21.14014,49.33008-49.76q.015-251.59515,0-503.17993.01466-95.55011-.01025-191.11023Zm-2.39991,694.27c0,20.86011-12.1101,38.23-31.16992,44.82007a49.15636,49.15636,0,0,1-16.18994,2.55q-140.20514-.01466-280.40991.07983c-21.53.06006-45.17-14.61987-47.96-44.08984.04992-2.99.15991-5.99.15991-8.98q.0152-221.67.01-443.32007v-4.08008q.00018-120.27007-.01-240.52c0-1.65991-.11-3.31994-.16992-4.98,3.23-28.30993,21.67993-44.69995,50.29993-44.69995h274.4c30.79,0,51.05005,20.23,51.05005,50.91992q.01464,346.15485-.01026,692.29981Zm2.39991-694.27c0-29.69995-21.77-51.30993-51.46-51.30993q-138.93-.015-277.9,0c-30.31994,0-51.03992,20.77-51.04993,51.16v177.93994c.02,21.65.16993,43.30005.26,64.94995v.93006c-.09008,1.31994-.25,2.64-.25,3.96008q-.01482,223.44012,0,446.86987c.01,28.26,21.18995,49.53,49.67994,49.56006q35.51989.04468,71.06005.05,105.18.04467,210.34009-.06006c28.56006-.03,49.32007-21.14014,49.33008-49.76q.015-251.59515,0-503.17993.01466-95.55011-.01025-191.11023Zm-2.39991,694.27c0,20.86011-12.1101,38.23-31.16992,44.82007a49.15636,49.15636,0,0,1-16.18994,2.55q-140.20514-.01466-280.40991.07983c-21.53.06006-45.17-14.61987-47.96-44.08984.04992-2.99.15991-5.99.15991-8.98q.0152-221.67.01-443.32007v-4.08008q.00018-120.27007-.01-240.52c0-1.65991-.11-3.31994-.16992-4.98,3.23-28.30993,21.67993-44.69995,50.29993-44.69995h274.4c30.79,0,51.05005,20.23,51.05005,50.91992q.01464,346.15485-.01026,692.29981Zm2.39991-694.27c0-29.69995-21.77-51.30993-51.46-51.30993q-138.93-.015-277.9,0c-30.31994,0-51.03992,20.77-51.04993,51.16v177.93994c.02,21.65.16993,43.30005.26,64.94995v.93006c-.09008,1.31994-.25,2.64-.25,3.96008q-.01482,223.44012,0,446.86987c.01,28.26,21.18995,49.53,49.67994,49.56006q35.51989.04468,71.06005.05,105.18.04467,210.34009-.06006c28.56006-.03,49.32007-21.14014,49.33008-49.76q.015-251.59515,0-503.17993.01466-95.55011-.01025-191.11023Zm-2.39991,694.27c0,20.86011-12.1101,38.23-31.16992,44.82007a49.15636,49.15636,0,0,1-16.18994,2.55q-140.20514-.01466-280.40991.07983c-21.53.06006-45.17-14.61987-47.96-44.08984.04992-2.99.15991-5.99.15991-8.98q.0152-221.67.01-443.32007v-4.08008q.00018-120.27007-.01-240.52c0-1.65991-.11-3.31994-.16992-4.98,3.23-28.30993,21.67993-44.69995,50.29993-44.69995h274.4c30.79,0,51.05005,20.23,51.05005,50.91992q.01464,346.15485-.01026,692.29981Zm2.39991-694.27c0-29.69995-21.77-51.30993-51.46-51.30993q-138.93-.015-277.9,0c-30.31994,0-51.03992,20.77-51.04993,51.16v177.93994c.02,21.65.16993,43.30005.26,64.94995v.93006c-.09008,1.31994-.25,2.64-.25,3.96008q-.01482,223.44012,0,446.86987c.01,28.26,21.18995,49.53,49.67994,49.56006q35.51989.04468,71.06005.05,105.18.04467,210.34009-.06006c28.56006-.03,49.32007-21.14014,49.33008-49.76q.015-251.59515,0-503.17993.01466-95.55011-.01025-191.11023Zm-2.39991,694.27c0,20.86011-12.1101,38.23-31.16992,44.82007a49.15636,49.15636,0,0,1-16.18994,2.55q-140.20514-.01466-280.40991.07983c-21.53.06006-45.17-14.61987-47.96-44.08984.04992-2.99.15991-5.99.15991-8.98q.0152-221.67.01-443.32007v-4.08008q.00018-120.27007-.01-240.52c0-1.65991-.11-3.31994-.16992-4.98,3.23-28.30993,21.67993-44.69995,50.29993-44.69995h274.4c30.79,0,51.05005,20.23,51.05005,50.91992q.01464,346.15485-.01026,692.29981Zm2.39991-694.27c0-29.69995-21.77-51.30993-51.46-51.30993q-138.93-.015-277.9,0c-30.31994,0-51.03992,20.77-51.04993,51.16v177.93994c.02,21.65.16993,43.30005.26,64.94995v.93006c-.09008,1.31994-.25,2.64-.25,3.96008q-.01482,223.44012,0,446.86987c.01,28.26,21.18995,49.53,49.67994,49.56006q35.51989.04468,71.06005.05,105.18.04467,210.34009-.06006c28.56006-.03,49.32007-21.14014,49.33008-49.76q.015-251.59515,0-503.17993.01466-95.55011-.01025-191.11023Zm-2.39991,694.27c0,20.86011-12.1101,38.23-31.16992,44.82007a49.15636,49.15636,0,0,1-16.18994,2.55q-140.20514-.01466-280.40991.07983c-21.53.06006-45.17-14.61987-47.96-44.08984.04992-2.99.15991-5.99.15991-8.98q.0152-221.67.01-443.32007v-4.08008q.00018-120.27007-.01-240.52c0-1.65991-.11-3.31994-.16992-4.98,3.23-28.30993,21.67993-44.69995,50.29993-44.69995h274.4c30.79,0,51.05005,20.23,51.05005,50.91992q.01464,346.15485-.01026,692.29981Zm2.39991-694.27c0-29.69995-21.77-51.30993-51.46-51.30993q-138.93-.015-277.9,0c-30.31994,0-51.03992,20.77-51.04993,51.16v177.93994c.02,21.65.16993,43.30005.26,64.94995v.93006c-.09008,1.31994-.25,2.64-.25,3.96008q-.01482,223.44012,0,446.86987c.01,28.26,21.18995,49.53,49.67994,49.56006q35.51989.04468,71.06005.05,105.18.04467,210.34009-.06006c28.56006-.03,49.32007-21.14014,49.33008-49.76q.015-251.59515,0-503.17993.01466-95.55011-.01025-191.11023Zm-2.39991,694.27c0,20.86011-12.1101,38.23-31.16992,44.82007a49.15636,49.15636,0,0,1-16.18994,2.55q-140.20514-.01466-280.40991.07983c-21.53.06006-45.17-14.61987-47.96-44.08984.04992-2.99.15991-5.99.15991-8.98q.0152-221.67.01-443.32007v-4.08008q.00018-120.27007-.01-240.52c0-1.65991-.11-3.31994-.16992-4.98,3.23-28.30993,21.67993-44.69995,50.29993-44.69995h274.4c30.79,0,51.05005,20.23,51.05005,50.91992q.01464,346.15485-.01026,692.29981Zm2.39991-694.27c0-29.69995-21.77-51.30993-51.46-51.30993q-138.93-.015-277.9,0c-30.31994,0-51.03992,20.77-51.04993,51.16v177.93994c.02,21.65.16993,43.30005.26,64.94995v.93006c-.09008,1.31994-.25,2.64-.25,3.96008q-.01482,223.44012,0,446.86987c.01,28.26,21.18995,49.53,49.67994,49.56006q35.51989.04468,71.06005.05,105.18.04467,210.34009-.06006c28.56006-.03,49.32007-21.14014,49.33008-49.76q.015-251.59515,0-503.17993.01466-95.55011-.01025-191.11023Zm-2.39991,694.27c0,20.86011-12.1101,38.23-31.16992,44.82007a49.15636,49.15636,0,0,1-16.18994,2.55q-140.20514-.01466-280.40991.07983c-21.53.06006-45.17-14.61987-47.96-44.08984.04992-2.99.15991-5.99.15991-8.98q.0152-221.67.01-443.32007v-4.08008q.00018-120.27007-.01-240.52c0-1.65991-.11-3.31994-.16992-4.98,3.23-28.30993,21.67993-44.69995,50.29993-44.69995h274.4c30.79,0,51.05005,20.23,51.05005,50.91992q.01464,346.15485-.01026,692.29981Zm2.39991-694.27c0-29.69995-21.77-51.30993-51.46-51.30993q-138.93-.015-277.9,0c-30.31994,0-51.03992,20.77-51.04993,51.16v177.93994c.02,21.65.16993,43.30005.26,64.94995v.93006c-.09008,1.31994-.25,2.64-.25,3.96008q-.01482,223.44012,0,446.86987c.01,28.26,21.18995,49.53,49.67994,49.56006q35.51989.04468,71.06005.05,105.18.04467,210.34009-.06006c28.56006-.03,49.32007-21.14014,49.33008-49.76q.015-251.59515,0-503.17993.01466-95.55011-.01025-191.11023Zm-2.39991,694.27c0,20.86011-12.1101,38.23-31.16992,44.82007a49.15636,49.15636,0,0,1-16.18994,2.55q-140.20514-.01466-280.40991.07983c-21.53.06006-45.17-14.61987-47.96-44.08984.04992-2.99.15991-5.99.15991-8.98q.0152-221.67.01-443.32007v-4.08008q.00018-120.27007-.01-240.52c0-1.65991-.11-3.31994-.16992-4.98,3.23-28.30993,21.67993-44.69995,50.29993-44.69995h274.4c30.79,0,51.05005,20.23,51.05005,50.91992q.01464,346.15485-.01026,692.29981Zm2.39991-694.27c0-29.69995-21.77-51.30993-51.46-51.30993q-138.93-.015-277.9,0c-30.31994,0-51.03992,20.77-51.04993,51.16v177.93994c.02,21.65.16993,43.30005.26,64.94995v.93006c-.09008,1.31994-.25,2.64-.25,3.96008q-.01482,223.44012,0,446.86987c.01,28.26,21.18995,49.53,49.67994,49.56006q35.51989.04468,71.06005.05,105.18.04467,210.34009-.06006c28.56006-.03,49.32007-21.14014,49.33008-49.76q.015-251.59515,0-503.17993.01466-95.55011-.01025-191.11023Zm-2.39991,694.27c0,20.86011-12.1101,38.23-31.16992,44.82007a49.15636,49.15636,0,0,1-16.18994,2.55q-140.20514-.01466-280.40991.07983c-21.53.06006-45.17-14.61987-47.96-44.08984.04992-2.99.15991-5.99.15991-8.98q.0152-221.67.01-443.32007v-4.08008q.00018-120.27007-.01-240.52c0-1.65991-.11-3.31994-.16992-4.98,3.23-28.30993,21.67993-44.69995,50.29993-44.69995h274.4c30.79,0,51.05005,20.23,51.05005,50.91992q.01464,346.15485-.01026,692.29981Zm2.39991-694.27c0-29.69995-21.77-51.30993-51.46-51.30993q-138.93-.015-277.9,0c-30.31994,0-51.03992,20.77-51.04993,51.16v177.93994c.02,21.65.16993,43.30005.26,64.94995v.93006c-.09008,1.31994-.25,2.64-.25,3.96008q-.01482,223.44012,0,446.86987c.01,28.26,21.18995,49.53,49.67994,49.56006q35.51989.04468,71.06005.05,105.18.04467,210.34009-.06006c28.56006-.03,49.32007-21.14014,49.33008-49.76q.015-251.59515,0-503.17993.01466-95.55011-.01025-191.11023Zm-2.39991,694.27c0,20.86011-12.1101,38.23-31.16992,44.82007a49.15636,49.15636,0,0,1-16.18994,2.55q-140.20514-.01466-280.40991.07983c-21.53.06006-45.17-14.61987-47.96-44.08984.04992-2.99.15991-5.99.15991-8.98q.0152-221.67.01-443.32007v-4.08008q.00018-120.27007-.01-240.52c0-1.65991-.11-3.31994-.16992-4.98,3.23-28.30993,21.67993-44.69995,50.29993-44.69995h274.4c30.79,0,51.05005,20.23,51.05005,50.91992q.01464,346.15485-.01026,692.29981Zm2.39991-694.27c0-29.69995-21.77-51.30993-51.46-51.30993q-138.93-.015-277.9,0c-30.31994,0-51.03992,20.77-51.04993,51.16v177.93994c.02,21.65.16993,43.30005.26,64.94995v.93006c-.09008,1.31994-.25,2.64-.25,3.96008q-.01482,223.44012,0,446.86987c.01,28.26,21.18995,49.53,49.67994,49.56006q35.51989.04468,71.06005.05,105.18.04467,210.34009-.06006c28.56006-.03,49.32007-21.14014,49.33008-49.76q.015-251.59515,0-503.17993.01466-95.55011-.01025-191.11023Zm-2.39991,694.27c0,20.86011-12.1101,38.23-31.16992,44.82007a49.15636,49.15636,0,0,1-16.18994,2.55q-140.20514-.01466-280.40991.07983c-21.53.06006-45.17-14.61987-47.96-44.08984.04992-2.99.15991-5.99.15991-8.98q.0152-221.67.01-443.32007v-4.08008q.00018-120.27007-.01-240.52c0-1.65991-.11-3.31994-.16992-4.98,3.23-28.30993,21.67993-44.69995,50.29993-44.69995h274.4c30.79,0,51.05005,20.23,51.05005,50.91992q.01464,346.15485-.01026,692.29981Zm2.39991-694.27c0-29.69995-21.77-51.30993-51.46-51.30993q-138.93-.015-277.9,0c-30.31994,0-51.03992,20.77-51.04993,51.16v177.93994c.02,21.65.16993,43.30005.26,64.94995v.93006c-.09008,1.31994-.25,2.64-.25,3.96008q-.01482,223.44012,0,446.86987c.01,28.26,21.18995,49.53,49.67994,49.56006q35.51989.04468,71.06005.05,105.18.04467,210.34009-.06006c28.56006-.03,49.32007-21.14014,49.33008-49.76q.015-251.59515,0-503.17993.01466-95.55011-.01025-191.11023Zm-2.39991,694.27c0,20.86011-12.1101,38.23-31.16992,44.82007a49.15636,49.15636,0,0,1-16.18994,2.55q-140.20514-.01466-280.40991.07983c-21.53.06006-45.17-14.61987-47.96-44.08984.04992-2.99.15991-5.99.15991-8.98q.0152-221.67.01-443.32007v-4.08008q.00018-120.27007-.01-240.52c0-1.65991-.11-3.31994-.16992-4.98,3.23-28.30993,21.67993-44.69995,50.29993-44.69995h274.4c30.79,0,51.05005,20.23,51.05005,50.91992q.01464,346.15485-.01026,692.29981Zm2.39991-694.27c0-29.69995-21.77-51.30993-51.46-51.30993q-138.93-.015-277.9,0c-30.31994,0-51.03992,20.77-51.04993,51.16v177.93994c.02,21.65.16993,43.30005.26,64.94995v.93006c-.09008,1.31994-.25,2.64-.25,3.96008q-.01482,223.44012,0,446.86987c.01,28.26,21.18995,49.53,49.67994,49.56006q35.51989.04468,71.06005.05,105.18.04467,210.34009-.06006c28.56006-.03,49.32007-21.14014,49.33008-49.76q.015-251.59515,0-503.17993.01466-95.55011-.01025-191.11023Zm-2.39991,694.27c0,20.86011-12.1101,38.23-31.16992,44.82007a49.15636,49.15636,0,0,1-16.18994,2.55q-140.20514-.01466-280.40991.07983c-21.53.06006-45.17-14.61987-47.96-44.08984.04992-2.99.15991-5.99.15991-8.98q.0152-221.67.01-443.32007v-4.08008q.00018-120.27007-.01-240.52c0-1.65991-.11-3.31994-.16992-4.98,3.23-28.30993,21.67993-44.69995,50.29993-44.69995h274.4c30.79,0,51.05005,20.23,51.05005,50.91992q.01464,346.15485-.01026,692.29981Zm2.39991-694.27c0-29.69995-21.77-51.30993-51.46-51.30993q-138.93-.015-277.9,0c-30.31994,0-51.03992,20.77-51.04993,51.16v177.93994c.02,21.65.16993,43.30005.26,64.94995v.93006c-.09008,1.31994-.25,2.64-.25,3.96008q-.01482,223.44012,0,446.86987c.01,28.26,21.18995,49.53,49.67994,49.56006q35.51989.04468,71.06005.05,105.18.04467,210.34009-.06006c28.56006-.03,49.32007-21.14014,49.33008-49.76q.015-251.59515,0-503.17993.01466-95.55011-.01025-191.11023Zm-2.39991,694.27c0,20.86011-12.1101,38.23-31.16992,44.82007a49.15636,49.15636,0,0,1-16.18994,2.55q-140.20514-.01466-280.40991.07983c-21.53.06006-45.17-14.61987-47.96-44.08984.04992-2.99.15991-5.99.15991-8.98q.0152-221.67.01-443.32007v-4.08008q.00018-120.27007-.01-240.52c0-1.65991-.11-3.31994-.16992-4.98,3.23-28.30993,21.67993-44.69995,50.29993-44.69995h274.4c30.79,0,51.05005,20.23,51.05005,50.91992q.01464,346.15485-.01026,692.29981Zm2.39991-694.27c0-29.69995-21.77-51.30993-51.46-51.30993q-138.93-.015-277.9,0c-30.31994,0-51.03992,20.77-51.04993,51.16v177.93994c.02,21.65.16993,43.30005.26,64.94995v.93006c-.09008,1.31994-.25,2.64-.25,3.96008q-.01482,223.44012,0,446.86987c.01,28.26,21.18995,49.53,49.67994,49.56006q35.51989.04468,71.06005.05,105.18.04467,210.34009-.06006c28.56006-.03,49.32007-21.14014,49.33008-49.76q.015-251.59515,0-503.17993.01466-95.55011-.01025-191.11023Zm-2.39991,694.27c0,20.86011-12.1101,38.23-31.16992,44.82007a49.15636,49.15636,0,0,1-16.18994,2.55q-140.20514-.01466-280.40991.07983c-21.53.06006-45.17-14.61987-47.96-44.08984.04992-2.99.15991-5.99.15991-8.98q.0152-221.67.01-443.32007v-4.08008q.00018-120.27007-.01-240.52c0-1.65991-.11-3.31994-.16992-4.98,3.23-28.30993,21.67993-44.69995,50.29993-44.69995h274.4c30.79,0,51.05005,20.23,51.05005,50.91992q.01464,346.15485-.01026,692.29981Zm2.39991-694.27c0-29.69995-21.77-51.30993-51.46-51.30993q-138.93-.015-277.9,0c-30.31994,0-51.03992,20.77-51.04993,51.16v177.93994c.02,21.65.16993,43.30005.26,64.94995v.93006c-.09008,1.31994-.25,2.64-.25,3.96008q-.01482,223.44012,0,446.86987c.01,28.26,21.18995,49.53,49.67994,49.56006q35.51989.04468,71.06005.05,105.18.04467,210.34009-.06006c28.56006-.03,49.32007-21.14014,49.33008-49.76q.015-251.59515,0-503.17993.01466-95.55011-.01025-191.11023Zm-2.39991,694.27c0,20.86011-12.1101,38.23-31.16992,44.82007a49.15636,49.15636,0,0,1-16.18994,2.55q-140.20514-.01466-280.40991.07983c-21.53.06006-45.17-14.61987-47.96-44.08984.04992-2.99.15991-5.99.15991-8.98q.0152-221.67.01-443.32007v-4.08008q.00018-120.27007-.01-240.52c0-1.65991-.11-3.31994-.16992-4.98,3.23-28.30993,21.67993-44.69995,50.29993-44.69995h274.4c30.79,0,51.05005,20.23,51.05005,50.91992q.01464,346.15485-.01026,692.29981Zm2.39991-694.27c0-29.69995-21.77-51.30993-51.46-51.30993q-138.93-.015-277.9,0c-30.31994,0-51.03992,20.77-51.04993,51.16v177.93994c.02,21.65.16993,43.30005.26,64.94995v.93006c-.09008,1.31994-.25,2.64-.25,3.96008q-.01482,223.44012,0,446.86987c.01,28.26,21.18995,49.53,49.67994,49.56006q35.51989.04468,71.06005.05,105.18.04467,210.34009-.06006c28.56006-.03,49.32007-21.14014,49.33008-49.76q.015-251.59515,0-503.17993.01466-95.55011-.01025-191.11023Zm-2.39991,694.27c0,20.86011-12.1101,38.23-31.16992,44.82007a49.15636,49.15636,0,0,1-16.18994,2.55q-140.20514-.01466-280.40991.07983c-21.53.06006-45.17-14.61987-47.96-44.08984.04992-2.99.15991-5.99.15991-8.98q.0152-221.67.01-443.32007v-4.08008q.00018-120.27007-.01-240.52c0-1.65991-.11-3.31994-.16992-4.98,3.23-28.30993,21.67993-44.69995,50.29993-44.69995h274.4c30.79,0,51.05005,20.23,51.05005,50.91992q.01464,346.15485-.01026,692.29981Zm2.39991-694.27c0-29.69995-21.77-51.30993-51.46-51.30993q-138.93-.015-277.9,0c-30.31994,0-51.03992,20.77-51.04993,51.16v177.93994c.02,21.65.16993,43.30005.26,64.94995v.93006c-.09008,1.31994-.25,2.64-.25,3.96008q-.01482,223.44012,0,446.86987c.01,28.26,21.18995,49.53,49.67994,49.56006q35.51989.04468,71.06005.05,105.18.04467,210.34009-.06006c28.56006-.03,49.32007-21.14014,49.33008-49.76q.015-251.59515,0-503.17993.01466-95.55011-.01025-191.11023Zm-2.39991,694.27c0,20.86011-12.1101,38.23-31.16992,44.82007a49.15636,49.15636,0,0,1-16.18994,2.55q-140.20514-.01466-280.40991.07983c-21.53.06006-45.17-14.61987-47.96-44.08984.04992-2.99.15991-5.99.15991-8.98q.0152-221.67.01-443.32007v-4.08008q.00018-120.27007-.01-240.52c0-1.65991-.11-3.31994-.16992-4.98,3.23-28.30993,21.67993-44.69995,50.29993-44.69995h274.4c30.79,0,51.05005,20.23,51.05005,50.91992q.01464,346.15485-.01026,692.29981Zm2.39991-694.27c0-29.69995-21.77-51.30993-51.46-51.30993q-138.93-.015-277.9,0c-30.31994,0-51.03992,20.77-51.04993,51.16v177.93994c.02,21.65.16993,43.30005.26,64.94995v.93006c-.09008,1.31994-.25,2.64-.25,3.96008q-.01482,223.44012,0,446.86987c.01,28.26,21.18995,49.53,49.67994,49.56006q35.51989.04468,71.06005.05,105.18.04467,210.34009-.06006c28.56006-.03,49.32007-21.14014,49.33008-49.76q.015-251.59515,0-503.17993.01466-95.55011-.01025-191.11023Zm-2.39991,694.27c0,20.86011-12.1101,38.23-31.16992,44.82007a49.15636,49.15636,0,0,1-16.18994,2.55q-140.20514-.01466-280.40991.07983c-21.53.06006-45.17-14.61987-47.96-44.08984.04992-2.99.15991-5.99.15991-8.98q.0152-221.67.01-443.32007v-4.08008q.00018-120.27007-.01-240.52c0-1.65991-.11-3.31994-.16992-4.98,3.23-28.30993,21.67993-44.69995,50.29993-44.69995h274.4c30.79,0,51.05005,20.23,51.05005,50.91992q.01464,346.15485-.01026,692.29981Zm2.39991-694.27c0-29.69995-21.77-51.30993-51.46-51.30993q-138.93-.015-277.9,0c-30.31994,0-51.03992,20.77-51.04993,51.16v177.93994c.02,21.65.16993,43.30005.26,64.94995v.93006c-.09008,1.31994-.25,2.64-.25,3.96008q-.01482,223.44012,0,446.86987c.01,28.26,21.18995,49.53,49.67994,49.56006q35.51989.04468,71.06005.05,105.18.04467,210.34009-.06006c28.56006-.03,49.32007-21.14014,49.33008-49.76q.015-251.59515,0-503.17993.01466-95.55011-.01025-191.11023Zm-2.39991,694.27c0,20.86011-12.1101,38.23-31.16992,44.82007a49.15636,49.15636,0,0,1-16.18994,2.55q-140.20514-.01466-280.40991.07983c-21.53.06006-45.17-14.61987-47.96-44.08984.04992-2.99.15991-5.99.15991-8.98q.0152-221.67.01-443.32007v-4.08008q.00018-120.27007-.01-240.52c0-1.65991-.11-3.31994-.16992-4.98,3.23-28.30993,21.67993-44.69995,50.29993-44.69995h274.4c30.79,0,51.05005,20.23,51.05005,50.91992q.01464,346.15485-.01026,692.29981Zm2.39991-694.27c0-29.69995-21.77-51.30993-51.46-51.30993q-138.93-.015-277.9,0c-30.31994,0-51.03992,20.77-51.04993,51.16v177.93994c.02,21.65.16993,43.30005.26,64.94995v.93006c-.09008,1.31994-.25,2.64-.25,3.96008q-.01482,223.44012,0,446.86987c.01,28.26,21.18995,49.53,49.67994,49.56006q35.51989.04468,71.06005.05,105.18.04467,210.34009-.06006c28.56006-.03,49.32007-21.14014,49.33008-49.76q.015-251.59515,0-503.17993.01466-95.55011-.01025-191.11023Zm-2.39991,694.27c0,20.86011-12.1101,38.23-31.16992,44.82007a49.15636,49.15636,0,0,1-16.18994,2.55q-140.20514-.01466-280.40991.07983c-21.53.06006-45.17-14.61987-47.96-44.08984.04992-2.99.15991-5.99.15991-8.98q.0152-221.67.01-443.32007v-4.08008q.00018-120.27007-.01-240.52c0-1.65991-.11-3.31994-.16992-4.98,3.23-28.30993,21.67993-44.69995,50.29993-44.69995h274.4c30.79,0,51.05005,20.23,51.05005,50.91992q.01464,346.15485-.01026,692.29981Zm2.39991-694.27c0-29.69995-21.77-51.30993-51.46-51.30993q-138.93-.015-277.9,0c-30.31994,0-51.03992,20.77-51.04993,51.16v177.93994c.02,21.65.16993,43.30005.26,64.94995v.93006c-.09008,1.31994-.25,2.64-.25,3.96008q-.01482,223.44012,0,446.86987c.01,28.26,21.18995,49.53,49.67994,49.56006q35.51989.04468,71.06005.05,105.18.04467,210.34009-.06006c28.56006-.03,49.32007-21.14014,49.33008-49.76q.015-251.59515,0-503.17993.01466-95.55011-.01025-191.11023Zm-2.39991,694.27c0,20.86011-12.1101,38.23-31.16992,44.82007a49.15636,49.15636,0,0,1-16.18994,2.55q-140.20514-.01466-280.40991.07983c-21.53.06006-45.17-14.61987-47.96-44.08984.04992-2.99.15991-5.99.15991-8.98q.0152-221.67.01-443.32007v-4.08008q.00018-120.27007-.01-240.52c0-1.65991-.11-3.31994-.16992-4.98,3.23-28.30993,21.67993-44.69995,50.29993-44.69995h274.4c30.79,0,51.05005,20.23,51.05005,50.91992q.01464,346.15485-.01026,692.29981Zm2.39991-694.27c0-29.69995-21.77-51.30993-51.46-51.30993q-138.93-.015-277.9,0c-30.31994,0-51.03992,20.77-51.04993,51.16v177.93994c.02,21.65.16993,43.30005.26,64.94995v.93006c-.09008,1.31994-.25,2.64-.25,3.96008q-.01482,223.44012,0,446.86987c.01,28.26,21.18995,49.53,49.67994,49.56006q35.51989.04468,71.06005.05,105.18.04467,210.34009-.06006c28.56006-.03,49.32007-21.14014,49.33008-49.76q.015-251.59515,0-503.17993.01466-95.55011-.01025-191.11023Zm-2.39991,694.27c0,20.86011-12.1101,38.23-31.16992,44.82007a49.15636,49.15636,0,0,1-16.18994,2.55q-140.20514-.01466-280.40991.07983c-21.53.06006-45.17-14.61987-47.96-44.08984.04992-2.99.15991-5.99.15991-8.98q.0152-221.67.01-443.32007v-4.08008q.00018-120.27007-.01-240.52c0-1.65991-.11-3.31994-.16992-4.98,3.23-28.30993,21.67993-44.69995,50.29993-44.69995h274.4c30.79,0,51.05005,20.23,51.05005,50.91992q.01464,346.15485-.01026,692.29981Zm2.39991-694.27c0-29.69995-21.77-51.30993-51.46-51.30993q-138.93-.015-277.9,0c-30.31994,0-51.03992,20.77-51.04993,51.16v177.93994c.02,21.65.16993,43.30005.26,64.94995v.93006c-.09008,1.31994-.25,2.64-.25,3.96008q-.01482,223.44012,0,446.86987c.01,28.26,21.18995,49.53,49.67994,49.56006q35.51989.04468,71.06005.05,105.18.04467,210.34009-.06006c28.56006-.03,49.32007-21.14014,49.33008-49.76q.015-251.59515,0-503.17993.01466-95.55011-.01025-191.11023Zm-2.39991,694.27c0,20.86011-12.1101,38.23-31.16992,44.82007a49.15636,49.15636,0,0,1-16.18994,2.55q-140.20514-.01466-280.40991.07983c-21.53.06006-45.17-14.61987-47.96-44.08984.04992-2.99.15991-5.99.15991-8.98q.0152-221.67.01-443.32007v-4.08008q.00018-120.27007-.01-240.52c0-1.65991-.11-3.31994-.16992-4.98,3.23-28.30993,21.67993-44.69995,50.29993-44.69995h274.4c30.79,0,51.05005,20.23,51.05005,50.91992q.01464,346.15485-.01026,692.29981Zm2.39991-694.27c0-29.69995-21.77-51.30993-51.46-51.30993q-138.93-.015-277.9,0c-30.31994,0-51.03992,20.77-51.04993,51.16v177.93994c.02,21.65.16993,43.30005.26,64.94995v.93006c-.09008,1.31994-.25,2.64-.25,3.96008q-.01482,223.44012,0,446.86987c.01,28.26,21.18995,49.53,49.67994,49.56006q35.51989.04468,71.06005.05,105.18.04467,210.34009-.06006c28.56006-.03,49.32007-21.14014,49.33008-49.76q.015-251.59515,0-503.17993.01466-95.55011-.01025-191.11023Zm-2.39991,694.27c0,20.86011-12.1101,38.23-31.16992,44.82007a49.15636,49.15636,0,0,1-16.18994,2.55q-140.20514-.01466-280.40991.07983c-21.53.06006-45.17-14.61987-47.96-44.08984.04992-2.99.15991-5.99.15991-8.98q.0152-221.67.01-443.32007v-4.08008q.00018-120.27007-.01-240.52c0-1.65991-.11-3.31994-.16992-4.98,3.23-28.30993,21.67993-44.69995,50.29993-44.69995h274.4c30.79,0,51.05005,20.23,51.05005,50.91992q.01464,346.15485-.01026,692.29981Zm2.39991-694.27c0-29.69995-21.77-51.30993-51.46-51.30993q-138.93-.015-277.9,0c-30.31994,0-51.03992,20.77-51.04993,51.16v177.93994c.02,21.65.16993,43.30005.26,64.94995v.93006c-.09008,1.31994-.25,2.64-.25,3.96008q-.01482,223.44012,0,446.86987c.01,28.26,21.18995,49.53,49.67994,49.56006q35.51989.04468,71.06005.05,105.18.04467,210.34009-.06006c28.56006-.03,49.32007-21.14014,49.33008-49.76q.015-251.59515,0-503.17993.01466-95.55011-.01025-191.11023Zm-2.39991,694.27c0,20.86011-12.1101,38.23-31.16992,44.82007a49.15636,49.15636,0,0,1-16.18994,2.55q-140.20514-.01466-280.40991.07983c-21.53.06006-45.17-14.61987-47.96-44.08984.04992-2.99.15991-5.99.15991-8.98q.0152-221.67.01-443.32007v-4.08008q.00018-120.27007-.01-240.52c0-1.65991-.11-3.31994-.16992-4.98,3.23-28.30993,21.67993-44.69995,50.29993-44.69995h274.4c30.79,0,51.05005,20.23,51.05005,50.91992q.01464,346.15485-.01026,692.29981Zm2.39991-694.27c0-29.69995-21.77-51.30993-51.46-51.30993q-138.93-.015-277.9,0c-30.31994,0-51.03992,20.77-51.04993,51.16v177.93994c.02,21.65.16993,43.30005.26,64.94995v.93006c-.09008,1.31994-.25,2.64-.25,3.96008q-.01482,223.44012,0,446.86987c.01,28.26,21.18995,49.53,49.67994,49.56006q35.51989.04468,71.06005.05,105.18.04467,210.34009-.06006c28.56006-.03,49.32007-21.14014,49.33008-49.76q.015-251.59515,0-503.17993.01466-95.55011-.01025-191.11023Zm-2.39991,694.27c0,20.86011-12.1101,38.23-31.16992,44.82007a49.15636,49.15636,0,0,1-16.18994,2.55q-140.20514-.01466-280.40991.07983c-21.53.06006-45.17-14.61987-47.96-44.08984.04992-2.99.15991-5.99.15991-8.98q.0152-221.67.01-443.32007v-4.08008q.00018-120.27007-.01-240.52c0-1.65991-.11-3.31994-.16992-4.98,3.23-28.30993,21.67993-44.69995,50.29993-44.69995h274.4c30.79,0,51.05005,20.23,51.05005,50.91992q.01464,346.15485-.01026,692.29981Zm2.39991-694.27c0-29.69995-21.77-51.30993-51.46-51.30993q-138.93-.015-277.9,0c-30.31994,0-51.03992,20.77-51.04993,51.16v177.93994c.02,21.65.16993,43.30005.26,64.94995v.93006c-.09008,1.31994-.25,2.64-.25,3.96008q-.01482,223.44012,0,446.86987c.01,28.26,21.18995,49.53,49.67994,49.56006q35.51989.04468,71.06005.05,105.18.04467,210.34009-.06006c28.56006-.03,49.32007-21.14014,49.33008-49.76q.015-251.59515,0-503.17993.01466-95.55011-.01025-191.11023Zm-2.39991,694.27c0,20.86011-12.1101,38.23-31.16992,44.82007a49.15636,49.15636,0,0,1-16.18994,2.55q-140.20514-.01466-280.40991.07983c-21.53.06006-45.17-14.61987-47.96-44.08984.04992-2.99.15991-5.99.15991-8.98q.0152-221.67.01-443.32007v-4.08008q.00018-120.27007-.01-240.52c0-1.65991-.11-3.31994-.16992-4.98,3.23-28.30993,21.67993-44.69995,50.29993-44.69995h274.4c30.79,0,51.05005,20.23,51.05005,50.91992q.01464,346.15485-.01026,692.29981Zm2.39991-694.27c0-29.69995-21.77-51.30993-51.46-51.30993q-138.93-.015-277.9,0c-30.31994,0-51.03992,20.77-51.04993,51.16v177.93994c.02,21.65.16993,43.30005.26,64.94995v.93006c-.09008,1.31994-.25,2.64-.25,3.96008q-.01482,223.44012,0,446.86987c.01,28.26,21.18995,49.53,49.67994,49.56006q35.51989.04468,71.06005.05,105.18.04467,210.34009-.06006c28.56006-.03,49.32007-21.14014,49.33008-49.76q.015-251.59515,0-503.17993.01466-95.55011-.01025-191.11023Zm-2.39991,694.27c0,20.86011-12.1101,38.23-31.16992,44.82007a49.15636,49.15636,0,0,1-16.18994,2.55q-140.20514-.01466-280.40991.07983c-21.53.06006-45.17-14.61987-47.96-44.08984.04992-2.99.15991-5.99.15991-8.98q.0152-221.67.01-443.32007v-4.08008q.00018-120.27007-.01-240.52c0-1.65991-.11-3.31994-.16992-4.98,3.23-28.30993,21.67993-44.69995,50.29993-44.69995h274.4c30.79,0,51.05005,20.23,51.05005,50.91992q.01464,346.15485-.01026,692.29981Zm2.39991-694.27c0-29.69995-21.77-51.30993-51.46-51.30993q-138.93-.015-277.9,0c-30.31994,0-51.03992,20.77-51.04993,51.16v177.93994c.02,21.65.16993,43.30005.26,64.94995v.93006c-.09008,1.31994-.25,2.64-.25,3.96008q-.01482,223.44012,0,446.86987c.01,28.26,21.18995,49.53,49.67994,49.56006q35.51989.04468,71.06005.05,105.18.04467,210.34009-.06006c28.56006-.03,49.32007-21.14014,49.33008-49.76q.015-251.59515,0-503.17993.01466-95.55011-.01025-191.11023Zm-2.39991,694.27c0,20.86011-12.1101,38.23-31.16992,44.82007a49.15636,49.15636,0,0,1-16.18994,2.55q-140.20514-.01466-280.40991.07983c-21.53.06006-45.17-14.61987-47.96-44.08984.04992-2.99.15991-5.99.15991-8.98q.0152-221.67.01-443.32007v-4.08008q.00018-120.27007-.01-240.52c0-1.65991-.11-3.31994-.16992-4.98,3.23-28.30993,21.67993-44.69995,50.29993-44.69995h274.4c30.79,0,51.05005,20.23,51.05005,50.91992q.01464,346.15485-.01026,692.29981Zm11.28-479.88989q.01465-42.24006.00977-84.4801c0-1.7.14014-3.86-1.71-4.28992-3.62988-.8501-2.84986-3.44006-2.84986-5.78-.02-40.49.05-80.99-.03-121.48a54.20315,54.20315,0,0,0-53.915-54.48987h-.00025l-.01465-.00012h-.71q-140.71509,0-281.42993-.04c-29.2-.04-53.54993,24.05005-53.34,53.23.1,12.66992.04,25.33008.01,37.99-.01,4.55005,1.25,9.55005-4.05994,12.37a215.26446,215.26446,0,0,0,.09,28.96008c0,.05994.00989.10986.00989.16992.01.08008.01.16.02.24,4.99,2.09009,3.88013,6.5,3.94007,10.43994q.05968,3.24042,0,6.4801c-.07,4.97,1.43,10.4-4.01,13.82h-.01a25.74213,25.74213,0,0,0-.48,4.11011v.10986c-.07,2.38013.1,4.76.13,7.13013.14,14.29993-.49,28.60986.32007,42.8999,0,.08008.01.15.01.23-.36011,3.23,5.19995,2.13013,4.24,6.49-1.07007,4.83008,1.57995,10.62012-4.18006,14.07007h-.01v.07007c-.74,18.15991-.57,36.30994-.08,54.47,5.96,4.35,4.03,10.74,4.04,16.48q.07488,219.70513.04992,439.40991c0,3.33008-.37,6.74.20008,9.98,4.90991,27.93994,26.46,45.92017,54.90991,45.92017q139.71.02965,279.41992.01977a59.02441,59.02441,0,0,0,16.32007-1.8999c23.30005-6.65991,38.52-26.87988,38.53-51.65991q.045-234.195.05005-468.4c0-3.36-1.34009-7.3,3.58984-8.9,1.27979-.42.93994-2.3501.93994-3.67ZM1743.5105,1438.25977c.01,1.4-.76,1.61-1.86988,1.53q.04487-13.96471.04993-27.89c1.12-.07007,1.84.16992,1.83,1.57007q-.06006,12.38983-.01,24.78979Zm-2.16992,86.54992q.19464-26.45984.37-52.91992c1.69006-.22,1.82.81006,1.82,2.12q-.03021,24.72-.03,49.45007c0,1.46985.22,3.56982-2.15991,1.34973Zm.31005,75.95008q-.11992-26.47486-.25-52.95008c2.54993-1.71,2.09.4701,2.09986,1.7201.05005,5.96.02,11.92.02,17.88,0,9.92993.05,19.87-.04993,29.80005-.02014,1.2998,1.18994,3.61975-1.82007,3.5498Zm388.81006,457.61c0,25.06006-14.94018,44.66992-38.47,50.71a57.22419,57.22419,0,0,1-14.3501,1.48q-138.18-.04467-276.35009-.02c-29.68994,0-47.77-14.10986-54.86988-42.82983-.10009-3.15991-.29-6.32007-.29-9.47q-.01521-220.83013.01-441.64014.04487-131.8797.29993-263.75c4.57-20.31994,16.28-34.21,36.45007-40.48a49.34589,49.34589,0,0,1,14.79993-1.87l279.85.03c30.03.01,52.92016,22.83,52.92016,52.68q.03,347.57977,0,695.15967Zm3.83985-477.81006c-.31006-.0199-.61988-.0299-.93994-.04992v-88.48h.93994Zm-57.2-267.7799q-138.93-.015-277.9,0c-30.31994,0-51.03992,20.77-51.04993,51.16v177.93994c.02,21.65.16993,43.30005.26,64.94995v.93006c-.09008,1.31994-.25,2.64-.25,3.96008q-.01482,223.44012,0,446.86987c.01,28.26,21.18995,49.53,49.67994,49.56006q35.51989.04468,71.06005.05,105.18.04467,210.34009-.06006c28.56006-.03,49.32007-21.14014,49.33008-49.76q.015-251.59515,0-503.17993.015-95.54992-.01-191.11011c-.00024-29.70007-21.77026-51.31006-51.4602-51.31006Zm49.06005,745.57995c0,20.86011-12.1101,38.23-31.16992,44.82007a49.15636,49.15636,0,0,1-16.18994,2.55q-140.20514-.01466-280.40991.07983c-21.53.06006-45.17-14.61987-47.96-44.08984.04992-2.99.15991-5.99.15991-8.98q.0152-221.67.01-443.32007v-4.08008q.00018-120.27007-.01-240.52c0-1.65991-.11-3.31994-.16992-4.98,3.23-28.30993,21.67993-44.69995,50.29993-44.69995h274.4c30.79,0,51.05005,20.23,51.05005,50.91992q.01464,346.15485-.01026,692.29981Zm2.39991-694.27c0-29.69995-21.77-51.30993-51.46-51.30993q-138.93-.015-277.9,0c-30.31994,0-51.03992,20.77-51.04993,51.16v177.93994c.02,21.65.16993,43.30005.26,64.94995v.93006c-.09008,1.31994-.25,2.64-.25,3.96008q-.01482,223.44012,0,446.86987c.01,28.26,21.18995,49.53,49.67994,49.56006q35.51989.04468,71.06005.05,105.18.04467,210.34009-.06006c28.56006-.03,49.32007-21.14014,49.33008-49.76q.015-251.59515,0-503.17993.01466-95.55011-.01025-191.11023Zm-2.39991,694.27c0,20.86011-12.1101,38.23-31.16992,44.82007a49.15636,49.15636,0,0,1-16.18994,2.55q-140.20514-.01466-280.40991.07983c-21.53.06006-45.17-14.61987-47.96-44.08984.04992-2.99.15991-5.99.15991-8.98q.0152-221.67.01-443.32007v-4.08008q.00018-120.27007-.01-240.52c0-1.65991-.11-3.31994-.16992-4.98,3.23-28.30993,21.67993-44.69995,50.29993-44.69995h274.4c30.79,0,51.05005,20.23,51.05005,50.91992q.01464,346.15485-.01026,692.29981Zm2.39991-694.27c0-29.69995-21.77-51.30993-51.46-51.30993q-138.93-.015-277.9,0c-30.31994,0-51.03992,20.77-51.04993,51.16v177.93994c.02,21.65.16993,43.30005.26,64.94995v.93006c-.09008,1.31994-.25,2.64-.25,3.96008q-.01482,223.44012,0,446.86987c.01,28.26,21.18995,49.53,49.67994,49.56006q35.51989.04468,71.06005.05,105.18.04467,210.34009-.06006c28.56006-.03,49.32007-21.14014,49.33008-49.76q.015-251.59515,0-503.17993.01466-95.55011-.01025-191.11023Zm-2.39991,694.27c0,20.86011-12.1101,38.23-31.16992,44.82007a49.15636,49.15636,0,0,1-16.18994,2.55q-140.20514-.01466-280.40991.07983c-21.53.06006-45.17-14.61987-47.96-44.08984.04992-2.99.15991-5.99.15991-8.98q.0152-221.67.01-443.32007v-4.08008q.00018-120.27007-.01-240.52c0-1.65991-.11-3.31994-.16992-4.98,3.23-28.30993,21.67993-44.69995,50.29993-44.69995h274.4c30.79,0,51.05005,20.23,51.05005,50.91992q.01464,346.15485-.01026,692.29981Zm2.39991-694.27c0-29.69995-21.77-51.30993-51.46-51.30993q-138.93-.015-277.9,0c-30.31994,0-51.03992,20.77-51.04993,51.16v177.93994c.02,21.65.16993,43.30005.26,64.94995v.93006c-.09008,1.31994-.25,2.64-.25,3.96008q-.01482,223.44012,0,446.86987c.01,28.26,21.18995,49.53,49.67994,49.56006q35.51989.04468,71.06005.05,105.18.04467,210.34009-.06006c28.56006-.03,49.32007-21.14014,49.33008-49.76q.015-251.59515,0-503.17993.01466-95.55011-.01025-191.11023Zm-2.39991,694.27c0,20.86011-12.1101,38.23-31.16992,44.82007a49.15636,49.15636,0,0,1-16.18994,2.55q-140.20514-.01466-280.40991.07983c-21.53.06006-45.17-14.61987-47.96-44.08984.04992-2.99.15991-5.99.15991-8.98q.0152-221.67.01-443.32007v-4.08008q.00018-120.27007-.01-240.52c0-1.65991-.11-3.31994-.16992-4.98,3.23-28.30993,21.67993-44.69995,50.29993-44.69995h274.4c30.79,0,51.05005,20.23,51.05005,50.91992q.01464,346.15485-.01026,692.29981Zm2.39991-694.27c0-29.69995-21.77-51.30993-51.46-51.30993q-138.93-.015-277.9,0c-30.31994,0-51.03992,20.77-51.04993,51.16v177.93994c.02,21.65.16993,43.30005.26,64.94995v.93006c-.09008,1.31994-.25,2.64-.25,3.96008q-.01482,223.44012,0,446.86987c.01,28.26,21.18995,49.53,49.67994,49.56006q35.51989.04468,71.06005.05,105.18.04467,210.34009-.06006c28.56006-.03,49.32007-21.14014,49.33008-49.76q.015-251.59515,0-503.17993.01466-95.55011-.01025-191.11023Zm-2.39991,694.27c0,20.86011-12.1101,38.23-31.16992,44.82007a49.15636,49.15636,0,0,1-16.18994,2.55q-140.20514-.01466-280.40991.07983c-21.53.06006-45.17-14.61987-47.96-44.08984.04992-2.99.15991-5.99.15991-8.98q.0152-221.67.01-443.32007v-4.08008q.00018-120.27007-.01-240.52c0-1.65991-.11-3.31994-.16992-4.98,3.23-28.30993,21.67993-44.69995,50.29993-44.69995h274.4c30.79,0,51.05005,20.23,51.05005,50.91992q.01464,346.15485-.01026,692.29981Zm2.39991-694.27c0-29.69995-21.77-51.30993-51.46-51.30993q-138.93-.015-277.9,0c-30.31994,0-51.03992,20.77-51.04993,51.16v177.93994c.02,21.65.16993,43.30005.26,64.94995v.93006c-.09008,1.31994-.25,2.64-.25,3.96008q-.01482,223.44012,0,446.86987c.01,28.26,21.18995,49.53,49.67994,49.56006q35.51989.04468,71.06005.05,105.18.04467,210.34009-.06006c28.56006-.03,49.32007-21.14014,49.33008-49.76q.015-251.59515,0-503.17993.01466-95.55011-.01025-191.11023Zm-2.39991,694.27c0,20.86011-12.1101,38.23-31.16992,44.82007a49.15636,49.15636,0,0,1-16.18994,2.55q-140.20514-.01466-280.40991.07983c-21.53.06006-45.17-14.61987-47.96-44.08984.04992-2.99.15991-5.99.15991-8.98q.0152-221.67.01-443.32007v-4.08008q.00018-120.27007-.01-240.52c0-1.65991-.11-3.31994-.16992-4.98,3.23-28.30993,21.67993-44.69995,50.29993-44.69995h274.4c30.79,0,51.05005,20.23,51.05005,50.91992q.01464,346.15485-.01026,692.29981Zm2.39991-694.27c0-29.69995-21.77-51.30993-51.46-51.30993q-138.93-.015-277.9,0c-30.31994,0-51.03992,20.77-51.04993,51.16v177.93994c.02,21.65.16993,43.30005.26,64.94995v.93006c-.09008,1.31994-.25,2.64-.25,3.96008q-.01482,223.44012,0,446.86987c.01,28.26,21.18995,49.53,49.67994,49.56006q35.51989.04468,71.06005.05,105.18.04467,210.34009-.06006c28.56006-.03,49.32007-21.14014,49.33008-49.76q.015-251.59515,0-503.17993.01466-95.55011-.01025-191.11023Zm-2.39991,694.27c0,20.86011-12.1101,38.23-31.16992,44.82007a49.15636,49.15636,0,0,1-16.18994,2.55q-140.20514-.01466-280.40991.07983c-21.53.06006-45.17-14.61987-47.96-44.08984.04992-2.99.15991-5.99.15991-8.98q.0152-221.67.01-443.32007v-4.08008q.00018-120.27007-.01-240.52c0-1.65991-.11-3.31994-.16992-4.98,3.23-28.30993,21.67993-44.69995,50.29993-44.69995h274.4c30.79,0,51.05005,20.23,51.05005,50.91992q.01464,346.15485-.01026,692.29981Zm2.39991-694.27c0-29.69995-21.77-51.30993-51.46-51.30993q-138.93-.015-277.9,0c-30.31994,0-51.03992,20.77-51.04993,51.16v177.93994c.02,21.65.16993,43.30005.26,64.94995v.93006c-.09008,1.31994-.25,2.64-.25,3.96008q-.01482,223.44012,0,446.86987c.01,28.26,21.18995,49.53,49.67994,49.56006q35.51989.04468,71.06005.05,105.18.04467,210.34009-.06006c28.56006-.03,49.32007-21.14014,49.33008-49.76q.015-251.59515,0-503.17993.01466-95.55011-.01025-191.11023Zm-2.39991,694.27c0,20.86011-12.1101,38.23-31.16992,44.82007a49.15636,49.15636,0,0,1-16.18994,2.55q-140.20514-.01466-280.40991.07983c-21.53.06006-45.17-14.61987-47.96-44.08984.04992-2.99.15991-5.99.15991-8.98q.0152-221.67.01-443.32007v-4.08008q.00018-120.27007-.01-240.52c0-1.65991-.11-3.31994-.16992-4.98,3.23-28.30993,21.67993-44.69995,50.29993-44.69995h274.4c30.79,0,51.05005,20.23,51.05005,50.91992q.01464,346.15485-.01026,692.29981Zm2.39991-694.27c0-29.69995-21.77-51.30993-51.46-51.30993q-138.93-.015-277.9,0c-30.31994,0-51.03992,20.77-51.04993,51.16v177.93994c.02,21.65.16993,43.30005.26,64.94995v.93006c-.09008,1.31994-.25,2.64-.25,3.96008q-.01482,223.44012,0,446.86987c.01,28.26,21.18995,49.53,49.67994,49.56006q35.51989.04468,71.06005.05,105.18.04467,210.34009-.06006c28.56006-.03,49.32007-21.14014,49.33008-49.76q.015-251.59515,0-503.17993.01466-95.55011-.01025-191.11023Zm-2.39991,694.27c0,20.86011-12.1101,38.23-31.16992,44.82007a49.15636,49.15636,0,0,1-16.18994,2.55q-140.20514-.01466-280.40991.07983c-21.53.06006-45.17-14.61987-47.96-44.08984.04992-2.99.15991-5.99.15991-8.98q.0152-221.67.01-443.32007v-4.08008q.00018-120.27007-.01-240.52c0-1.65991-.11-3.31994-.16992-4.98,3.23-28.30993,21.67993-44.69995,50.29993-44.69995h274.4c30.79,0,51.05005,20.23,51.05005,50.91992q.01464,346.15485-.01026,692.29981Zm2.39991-694.27c0-29.69995-21.77-51.30993-51.46-51.30993q-138.93-.015-277.9,0c-30.31994,0-51.03992,20.77-51.04993,51.16v177.93994c.02,21.65.16993,43.30005.26,64.94995v.93006c-.09008,1.31994-.25,2.64-.25,3.96008q-.01482,223.44012,0,446.86987c.01,28.26,21.18995,49.53,49.67994,49.56006q35.51989.04468,71.06005.05,105.18.04467,210.34009-.06006c28.56006-.03,49.32007-21.14014,49.33008-49.76q.015-251.59515,0-503.17993.01466-95.55011-.01025-191.11023Zm-2.39991,694.27c0,20.86011-12.1101,38.23-31.16992,44.82007a49.15636,49.15636,0,0,1-16.18994,2.55q-140.20514-.01466-280.40991.07983c-21.53.06006-45.17-14.61987-47.96-44.08984.04992-2.99.15991-5.99.15991-8.98q.0152-221.67.01-443.32007v-4.08008q.00018-120.27007-.01-240.52c0-1.65991-.11-3.31994-.16992-4.98,3.23-28.30993,21.67993-44.69995,50.29993-44.69995h274.4c30.79,0,51.05005,20.23,51.05005,50.91992q.01464,346.15485-.01026,692.29981Zm2.39991-694.27c0-29.69995-21.77-51.30993-51.46-51.30993q-138.93-.015-277.9,0c-30.31994,0-51.03992,20.77-51.04993,51.16v177.93994c.02,21.65.16993,43.30005.26,64.94995v.93006c-.09008,1.31994-.25,2.64-.25,3.96008q-.01482,223.44012,0,446.86987c.01,28.26,21.18995,49.53,49.67994,49.56006q35.51989.04468,71.06005.05,105.18.04467,210.34009-.06006c28.56006-.03,49.32007-21.14014,49.33008-49.76q.015-251.59515,0-503.17993.01466-95.55011-.01025-191.11023Zm-2.39991,694.27c0,20.86011-12.1101,38.23-31.16992,44.82007a49.15636,49.15636,0,0,1-16.18994,2.55q-140.20514-.01466-280.40991.07983c-21.53.06006-45.17-14.61987-47.96-44.08984.04992-2.99.15991-5.99.15991-8.98q.0152-221.67.01-443.32007v-4.08008q.00018-120.27007-.01-240.52c0-1.65991-.11-3.31994-.16992-4.98,3.23-28.30993,21.67993-44.69995,50.29993-44.69995h274.4c30.79,0,51.05005,20.23,51.05005,50.91992q.01464,346.15485-.01026,692.29981Zm2.39991-694.27c0-29.69995-21.77-51.30993-51.46-51.30993q-138.93-.015-277.9,0c-30.31994,0-51.03992,20.77-51.04993,51.16v177.93994c.02,21.65.16993,43.30005.26,64.94995v.93006c-.09008,1.31994-.25,2.64-.25,3.96008q-.01482,223.44012,0,446.86987c.01,28.26,21.18995,49.53,49.67994,49.56006q35.51989.04468,71.06005.05,105.18.04467,210.34009-.06006c28.56006-.03,49.32007-21.14014,49.33008-49.76q.015-251.59515,0-503.17993.01466-95.55011-.01025-191.11023Zm-2.39991,694.27c0,20.86011-12.1101,38.23-31.16992,44.82007a49.15636,49.15636,0,0,1-16.18994,2.55q-140.20514-.01466-280.40991.07983c-21.53.06006-45.17-14.61987-47.96-44.08984.04992-2.99.15991-5.99.15991-8.98q.0152-221.67.01-443.32007v-4.08008q.00018-120.27007-.01-240.52c0-1.65991-.11-3.31994-.16992-4.98,3.23-28.30993,21.67993-44.69995,50.29993-44.69995h274.4c30.79,0,51.05005,20.23,51.05005,50.91992q.01464,346.15485-.01026,692.29981Zm2.39991-694.27c0-29.69995-21.77-51.30993-51.46-51.30993q-138.93-.015-277.9,0c-30.31994,0-51.03992,20.77-51.04993,51.16v177.93994c.02,21.65.16993,43.30005.26,64.94995v.93006c-.09008,1.31994-.25,2.64-.25,3.96008q-.01482,223.44012,0,446.86987c.01,28.26,21.18995,49.53,49.67994,49.56006q35.51989.04468,71.06005.05,105.18.04467,210.34009-.06006c28.56006-.03,49.32007-21.14014,49.33008-49.76q.015-251.59515,0-503.17993.01466-95.55011-.01025-191.11023Zm-2.39991,694.27c0,20.86011-12.1101,38.23-31.16992,44.82007a49.15636,49.15636,0,0,1-16.18994,2.55q-140.20514-.01466-280.40991.07983c-21.53.06006-45.17-14.61987-47.96-44.08984.04992-2.99.15991-5.99.15991-8.98q.0152-221.67.01-443.32007v-4.08008q.00018-120.27007-.01-240.52c0-1.65991-.11-3.31994-.16992-4.98,3.23-28.30993,21.67993-44.69995,50.29993-44.69995h274.4c30.79,0,51.05005,20.23,51.05005,50.91992q.01464,346.15485-.01026,692.29981Zm2.39991-694.27c0-29.69995-21.77-51.30993-51.46-51.30993q-138.93-.015-277.9,0c-30.31994,0-51.03992,20.77-51.04993,51.16v177.93994c.02,21.65.16993,43.30005.26,64.94995v.93006c-.09008,1.31994-.25,2.64-.25,3.96008q-.01482,223.44012,0,446.86987c.01,28.26,21.18995,49.53,49.67994,49.56006q35.51989.04468,71.06005.05,105.18.04467,210.34009-.06006c28.56006-.03,49.32007-21.14014,49.33008-49.76q.015-251.59515,0-503.17993.01466-95.55011-.01025-191.11023Zm-2.39991,694.27c0,20.86011-12.1101,38.23-31.16992,44.82007a49.15636,49.15636,0,0,1-16.18994,2.55q-140.20514-.01466-280.40991.07983c-21.53.06006-45.17-14.61987-47.96-44.08984.04992-2.99.15991-5.99.15991-8.98q.0152-221.67.01-443.32007v-4.08008q.00018-120.27007-.01-240.52c0-1.65991-.11-3.31994-.16992-4.98,3.23-28.30993,21.67993-44.69995,50.29993-44.69995h274.4c30.79,0,51.05005,20.23,51.05005,50.91992q.01464,346.15485-.01026,692.29981Zm2.39991-694.27c0-29.69995-21.77-51.30993-51.46-51.30993q-138.93-.015-277.9,0c-30.31994,0-51.03992,20.77-51.04993,51.16v177.93994c.02,21.65.16993,43.30005.26,64.94995v.93006c-.09008,1.31994-.25,2.64-.25,3.96008q-.01482,223.44012,0,446.86987c.01,28.26,21.18995,49.53,49.67994,49.56006q35.51989.04468,71.06005.05,105.18.04467,210.34009-.06006c28.56006-.03,49.32007-21.14014,49.33008-49.76q.015-251.59515,0-503.17993.01466-95.55011-.01025-191.11023Zm-2.39991,694.27c0,20.86011-12.1101,38.23-31.16992,44.82007a49.15636,49.15636,0,0,1-16.18994,2.55q-140.20514-.01466-280.40991.07983c-21.53.06006-45.17-14.61987-47.96-44.08984.04992-2.99.15991-5.99.15991-8.98q.0152-221.67.01-443.32007v-4.08008q.00018-120.27007-.01-240.52c0-1.65991-.11-3.31994-.16992-4.98,3.23-28.30993,21.67993-44.69995,50.29993-44.69995h274.4c30.79,0,51.05005,20.23,51.05005,50.91992q.01464,346.15485-.01026,692.29981Zm-380.03-.11987q-.01521-220.83013.01-441.64014-.07525,220.81476-.01013,441.64014Zm382.42993-694.15015c0-29.69995-21.77-51.30993-51.46-51.30993q-138.93-.015-277.9,0c-30.31994,0-51.03992,20.77-51.04993,51.16v177.93994c.02,21.65.16993,43.30005.26,64.94995v.93006c-.09008,1.31994-.25,2.64-.25,3.96008q-.01482,223.44012,0,446.86987c.01,28.26,21.18995,49.53,49.67994,49.56006q35.51989.04468,71.06005.05,105.18.04467,210.34009-.06006c28.56006-.03,49.32007-21.14014,49.33008-49.76q.015-251.59515,0-503.17993.01466-95.55011-.01025-191.11023Zm-2.39991,694.27c0,20.86011-12.1101,38.23-31.16992,44.82007a49.15636,49.15636,0,0,1-16.18994,2.55q-140.20514-.01466-280.40991.07983c-21.53.06006-45.17-14.61987-47.96-44.08984.04992-2.99.15991-5.99.15991-8.98q.0152-221.67.01-443.32007v-4.08008q.00018-120.27007-.01-240.52c0-1.65991-.11-3.31994-.16992-4.98,3.23-28.30993,21.67993-44.69995,50.29993-44.69995h274.4c30.79,0,51.05005,20.23,51.05005,50.91992q.01464,346.15485-.01026,692.29981Zm2.39991-694.27c0-29.69995-21.77-51.30993-51.46-51.30993q-138.93-.015-277.9,0c-30.31994,0-51.03992,20.77-51.04993,51.16v177.93994c.02,21.65.16993,43.30005.26,64.94995v.93006c-.09008,1.31994-.25,2.64-.25,3.96008q-.01482,223.44012,0,446.86987c.01,28.26,21.18995,49.53,49.67994,49.56006q35.51989.04468,71.06005.05,105.18.04467,210.34009-.06006c28.56006-.03,49.32007-21.14014,49.33008-49.76q.015-251.59515,0-503.17993.01466-95.55011-.01025-191.11023Zm-2.39991,694.27c0,20.86011-12.1101,38.23-31.16992,44.82007a49.15636,49.15636,0,0,1-16.18994,2.55q-140.20514-.01466-280.40991.07983c-21.53.06006-45.17-14.61987-47.96-44.08984.04992-2.99.15991-5.99.15991-8.98q.0152-221.67.01-443.32007v-4.08008q.00018-120.27007-.01-240.52c0-1.65991-.11-3.31994-.16992-4.98,3.23-28.30993,21.67993-44.69995,50.29993-44.69995h274.4c30.79,0,51.05005,20.23,51.05005,50.91992q.01464,346.15485-.01026,692.29981Zm2.39991-694.27c0-29.69995-21.77-51.30993-51.46-51.30993q-138.93-.015-277.9,0c-30.31994,0-51.03992,20.77-51.04993,51.16v177.93994c.02,21.65.16993,43.30005.26,64.94995v.93006c-.09008,1.31994-.25,2.64-.25,3.96008q-.01482,223.44012,0,446.86987c.01,28.26,21.18995,49.53,49.67994,49.56006q35.51989.04468,71.06005.05,105.18.04467,210.34009-.06006c28.56006-.03,49.32007-21.14014,49.33008-49.76q.015-251.59515,0-503.17993.01466-95.55011-.01025-191.11023Zm-2.39991,694.27c0,20.86011-12.1101,38.23-31.16992,44.82007a49.15636,49.15636,0,0,1-16.18994,2.55q-140.20514-.01466-280.40991.07983c-21.53.06006-45.17-14.61987-47.96-44.08984.04992-2.99.15991-5.99.15991-8.98q.0152-221.67.01-443.32007v-4.08008q.00018-120.27007-.01-240.52c0-1.65991-.11-3.31994-.16992-4.98,3.23-28.30993,21.67993-44.69995,50.29993-44.69995h274.4c30.79,0,51.05005,20.23,51.05005,50.91992q.01464,346.15485-.01026,692.29981Zm2.39991-694.27c0-29.69995-21.77-51.30993-51.46-51.30993q-138.93-.015-277.9,0c-30.31994,0-51.03992,20.77-51.04993,51.16v177.93994c.02,21.65.16993,43.30005.26,64.94995v.93006c-.09008,1.31994-.25,2.64-.25,3.96008q-.01482,223.44012,0,446.86987c.01,28.26,21.18995,49.53,49.67994,49.56006q35.51989.04468,71.06005.05,105.18.04467,210.34009-.06006c28.56006-.03,49.32007-21.14014,49.33008-49.76q.015-251.59515,0-503.17993.01466-95.55011-.01025-191.11023Zm-2.39991,694.27c0,20.86011-12.1101,38.23-31.16992,44.82007a49.15636,49.15636,0,0,1-16.18994,2.55q-140.20514-.01466-280.40991.07983c-21.53.06006-45.17-14.61987-47.96-44.08984.04992-2.99.15991-5.99.15991-8.98q.0152-221.67.01-443.32007v-4.08008q.00018-120.27007-.01-240.52c0-1.65991-.11-3.31994-.16992-4.98,3.23-28.30993,21.67993-44.69995,50.29993-44.69995h274.4c30.79,0,51.05005,20.23,51.05005,50.91992q.01464,346.15485-.01026,692.29981Zm2.39991-694.27c0-29.69995-21.77-51.30993-51.46-51.30993q-138.93-.015-277.9,0c-30.31994,0-51.03992,20.77-51.04993,51.16v177.93994c.02,21.65.16993,43.30005.26,64.94995v.93006c-.09008,1.31994-.25,2.64-.25,3.96008q-.01482,223.44012,0,446.86987c.01,28.26,21.18995,49.53,49.67994,49.56006q35.51989.04468,71.06005.05,105.18.04467,210.34009-.06006c28.56006-.03,49.32007-21.14014,49.33008-49.76q.015-251.59515,0-503.17993.01466-95.55011-.01025-191.11023Zm-2.39991,694.27c0,20.86011-12.1101,38.23-31.16992,44.82007a49.15636,49.15636,0,0,1-16.18994,2.55q-140.20514-.01466-280.40991.07983c-21.53.06006-45.17-14.61987-47.96-44.08984.04992-2.99.15991-5.99.15991-8.98q.0152-221.67.01-443.32007v-4.08008q.00018-120.27007-.01-240.52c0-1.65991-.11-3.31994-.16992-4.98,3.23-28.30993,21.67993-44.69995,50.29993-44.69995h274.4c30.79,0,51.05005,20.23,51.05005,50.91992q.01464,346.15485-.01026,692.29981Zm2.39991-694.27c0-29.69995-21.77-51.30993-51.46-51.30993q-138.93-.015-277.9,0c-30.31994,0-51.03992,20.77-51.04993,51.16v177.93994c.02,21.65.16993,43.30005.26,64.94995v.93006c-.09008,1.31994-.25,2.64-.25,3.96008q-.01482,223.44012,0,446.86987c.01,28.26,21.18995,49.53,49.67994,49.56006q35.51989.04468,71.06005.05,105.18.04467,210.34009-.06006c28.56006-.03,49.32007-21.14014,49.33008-49.76q.015-251.59515,0-503.17993.01466-95.55011-.01025-191.11023Zm-2.39991,694.27c0,20.86011-12.1101,38.23-31.16992,44.82007a49.15636,49.15636,0,0,1-16.18994,2.55q-140.20514-.01466-280.40991.07983c-21.53.06006-45.17-14.61987-47.96-44.08984.04992-2.99.15991-5.99.15991-8.98q.0152-221.67.01-443.32007v-4.08008q.00018-120.27007-.01-240.52c0-1.65991-.11-3.31994-.16992-4.98,3.23-28.30993,21.67993-44.69995,50.29993-44.69995h274.4c30.79,0,51.05005,20.23,51.05005,50.91992q.01464,346.15485-.01026,692.29981Zm2.39991-694.27c0-29.69995-21.77-51.30993-51.46-51.30993q-138.93-.015-277.9,0c-30.31994,0-51.03992,20.77-51.04993,51.16v177.93994c.02,21.65.16993,43.30005.26,64.94995v.93006c-.09008,1.31994-.25,2.64-.25,3.96008q-.01482,223.44012,0,446.86987c.01,28.26,21.18995,49.53,49.67994,49.56006q35.51989.04468,71.06005.05,105.18.04467,210.34009-.06006c28.56006-.03,49.32007-21.14014,49.33008-49.76q.015-251.59515,0-503.17993.01466-95.55011-.01025-191.11023Zm-2.39991,694.27c0,20.86011-12.1101,38.23-31.16992,44.82007a49.15636,49.15636,0,0,1-16.18994,2.55q-140.20514-.01466-280.40991.07983c-21.53.06006-45.17-14.61987-47.96-44.08984.04992-2.99.15991-5.99.15991-8.98q.0152-221.67.01-443.32007v-4.08008q.00018-120.27007-.01-240.52c0-1.65991-.11-3.31994-.16992-4.98,3.23-28.30993,21.67993-44.69995,50.29993-44.69995h274.4c30.79,0,51.05005,20.23,51.05005,50.91992q.01464,346.15485-.01026,692.29981Zm2.39991-694.27c0-29.69995-21.77-51.30993-51.46-51.30993q-138.93-.015-277.9,0c-30.31994,0-51.03992,20.77-51.04993,51.16v177.93994c.02,21.65.16993,43.30005.26,64.94995v.93006c-.09008,1.31994-.25,2.64-.25,3.96008q-.01482,223.44012,0,446.86987c.01,28.26,21.18995,49.53,49.67994,49.56006q35.51989.04468,71.06005.05,105.18.04467,210.34009-.06006c28.56006-.03,49.32007-21.14014,49.33008-49.76q.015-251.59515,0-503.17993.01466-95.55011-.01025-191.11023Zm-2.39991,694.27c0,20.86011-12.1101,38.23-31.16992,44.82007a49.15636,49.15636,0,0,1-16.18994,2.55q-140.20514-.01466-280.40991.07983c-21.53.06006-45.17-14.61987-47.96-44.08984.04992-2.99.15991-5.99.15991-8.98q.0152-221.67.01-443.32007v-4.08008q.00018-120.27007-.01-240.52c0-1.65991-.11-3.31994-.16992-4.98,3.23-28.30993,21.67993-44.69995,50.29993-44.69995h274.4c30.79,0,51.05005,20.23,51.05005,50.91992q.01464,346.15485-.01026,692.29981Zm2.39991-694.27c0-29.69995-21.77-51.30993-51.46-51.30993q-138.93-.015-277.9,0c-30.31994,0-51.03992,20.77-51.04993,51.16v177.93994c.02,21.65.16993,43.30005.26,64.94995v.93006c-.09008,1.31994-.25,2.64-.25,3.96008q-.01482,223.44012,0,446.86987c.01,28.26,21.18995,49.53,49.67994,49.56006q35.51989.04468,71.06005.05,105.18.04467,210.34009-.06006c28.56006-.03,49.32007-21.14014,49.33008-49.76q.015-251.59515,0-503.17993.01466-95.55011-.01025-191.11023Zm-2.39991,694.27c0,20.86011-12.1101,38.23-31.16992,44.82007a49.15636,49.15636,0,0,1-16.18994,2.55q-140.20514-.01466-280.40991.07983c-21.53.06006-45.17-14.61987-47.96-44.08984.04992-2.99.15991-5.99.15991-8.98q.0152-221.67.01-443.32007v-4.08008q.00018-120.27007-.01-240.52c0-1.65991-.11-3.31994-.16992-4.98,3.23-28.30993,21.67993-44.69995,50.29993-44.69995h274.4c30.79,0,51.05005,20.23,51.05005,50.91992q.01464,346.15485-.01026,692.29981Zm2.39991-694.27c0-29.69995-21.77-51.30993-51.46-51.30993q-138.93-.015-277.9,0c-30.31994,0-51.03992,20.77-51.04993,51.16v177.93994c.02,21.65.16993,43.30005.26,64.94995v.93006c-.09008,1.31994-.25,2.64-.25,3.96008q-.01482,223.44012,0,446.86987c.01,28.26,21.18995,49.53,49.67994,49.56006q35.51989.04468,71.06005.05,105.18.04467,210.34009-.06006c28.56006-.03,49.32007-21.14014,49.33008-49.76q.015-251.59515,0-503.17993.01466-95.55011-.01025-191.11023Zm-2.39991,694.27c0,20.86011-12.1101,38.23-31.16992,44.82007a49.15636,49.15636,0,0,1-16.18994,2.55q-140.20514-.01466-280.40991.07983c-21.53.06006-45.17-14.61987-47.96-44.08984.04992-2.99.15991-5.99.15991-8.98q.0152-221.67.01-443.32007v-4.08008q.00018-120.27007-.01-240.52c0-1.65991-.11-3.31994-.16992-4.98,3.23-28.30993,21.67993-44.69995,50.29993-44.69995h274.4c30.79,0,51.05005,20.23,51.05005,50.91992q.01464,346.15485-.01026,692.29981Zm2.39991-694.27c0-29.69995-21.77-51.30993-51.46-51.30993q-138.93-.015-277.9,0c-30.31994,0-51.03992,20.77-51.04993,51.16v177.93994c.02,21.65.16993,43.30005.26,64.94995v.93006c-.09008,1.31994-.25,2.64-.25,3.96008q-.01482,223.44012,0,446.86987c.01,28.26,21.18995,49.53,49.67994,49.56006q35.51989.04468,71.06005.05,105.18.04467,210.34009-.06006c28.56006-.03,49.32007-21.14014,49.33008-49.76q.015-251.59515,0-503.17993.01466-95.55011-.01025-191.11023Zm-2.39991,694.27c0,20.86011-12.1101,38.23-31.16992,44.82007a49.15636,49.15636,0,0,1-16.18994,2.55q-140.20514-.01466-280.40991.07983c-21.53.06006-45.17-14.61987-47.96-44.08984.04992-2.99.15991-5.99.15991-8.98q.0152-221.67.01-443.32007v-4.08008q.00018-120.27007-.01-240.52c0-1.65991-.11-3.31994-.16992-4.98,3.23-28.30993,21.67993-44.69995,50.29993-44.69995h274.4c30.79,0,51.05005,20.23,51.05005,50.91992q.01464,346.15485-.01026,692.29981Zm2.39991-694.27c0-29.69995-21.77-51.30993-51.46-51.30993q-138.93-.015-277.9,0c-30.31994,0-51.03992,20.77-51.04993,51.16v177.93994c.02,21.65.16993,43.30005.26,64.94995v.93006c-.09008,1.31994-.25,2.64-.25,3.96008q-.01482,223.44012,0,446.86987c.01,28.26,21.18995,49.53,49.67994,49.56006q35.51989.04468,71.06005.05,105.18.04467,210.34009-.06006c28.56006-.03,49.32007-21.14014,49.33008-49.76q.015-251.59515,0-503.17993.01466-95.55011-.01025-191.11023Zm-2.39991,694.27c0,20.86011-12.1101,38.23-31.16992,44.82007a49.15636,49.15636,0,0,1-16.18994,2.55q-140.20514-.01466-280.40991.07983c-21.53.06006-45.17-14.61987-47.96-44.08984.04992-2.99.15991-5.99.15991-8.98q.0152-221.67.01-443.32007v-4.08008q.00018-120.27007-.01-240.52c0-1.65991-.11-3.31994-.16992-4.98,3.23-28.30993,21.67993-44.69995,50.29993-44.69995h274.4c30.79,0,51.05005,20.23,51.05005,50.91992q.01464,346.15485-.01026,692.29981Zm2.39991-694.27c0-29.69995-21.77-51.30993-51.46-51.30993q-138.93-.015-277.9,0c-30.31994,0-51.03992,20.77-51.04993,51.16v177.93994c.02,21.65.16993,43.30005.26,64.94995v.93006c-.09008,1.31994-.25,2.64-.25,3.96008q-.01482,223.44012,0,446.86987c.01,28.26,21.18995,49.53,49.67994,49.56006q35.51989.04468,71.06005.05,105.18.04467,210.34009-.06006c28.56006-.03,49.32007-21.14014,49.33008-49.76q.015-251.59515,0-503.17993.01466-95.55011-.01025-191.11023Zm-2.39991,694.27c0,20.86011-12.1101,38.23-31.16992,44.82007a49.15636,49.15636,0,0,1-16.18994,2.55q-140.20514-.01466-280.40991.07983c-21.53.06006-45.17-14.61987-47.96-44.08984.04992-2.99.15991-5.99.15991-8.98q.0152-221.67.01-443.32007v-4.08008q.00018-120.27007-.01-240.52c0-1.65991-.11-3.31994-.16992-4.98,3.23-28.30993,21.67993-44.69995,50.29993-44.69995h274.4c30.79,0,51.05005,20.23,51.05005,50.91992q.01464,346.15485-.01026,692.29981Zm2.39991-694.27c0-29.69995-21.77-51.30993-51.46-51.30993q-138.93-.015-277.9,0c-30.31994,0-51.03992,20.77-51.04993,51.16v177.93994c.02,21.65.16993,43.30005.26,64.94995v.93006c-.09008,1.31994-.25,2.64-.25,3.96008q-.01482,223.44012,0,446.86987c.01,28.26,21.18995,49.53,49.67994,49.56006q35.51989.04468,71.06005.05,105.18.04467,210.34009-.06006c28.56006-.03,49.32007-21.14014,49.33008-49.76q.015-251.59515,0-503.17993.01466-95.55011-.01025-191.11023Zm-2.39991,694.27c0,20.86011-12.1101,38.23-31.16992,44.82007a49.15636,49.15636,0,0,1-16.18994,2.55q-140.20514-.01466-280.40991.07983c-21.53.06006-45.17-14.61987-47.96-44.08984.04992-2.99.15991-5.99.15991-8.98q.0152-221.67.01-443.32007v-4.08008q.00018-120.27007-.01-240.52c0-1.65991-.11-3.31994-.16992-4.98,3.23-28.30993,21.67993-44.69995,50.29993-44.69995h274.4c30.79,0,51.05005,20.23,51.05005,50.91992q.01464,346.15485-.01026,692.29981Zm2.39991-694.27c0-29.69995-21.77-51.30993-51.46-51.30993q-138.93-.015-277.9,0c-30.31994,0-51.03992,20.77-51.04993,51.16v177.93994c.02,21.65.16993,43.30005.26,64.94995v.93006c-.09008,1.31994-.25,2.64-.25,3.96008q-.01482,223.44012,0,446.86987c.01,28.26,21.18995,49.53,49.67994,49.56006q35.51989.04468,71.06005.05,105.18.04467,210.34009-.06006c28.56006-.03,49.32007-21.14014,49.33008-49.76q.015-251.59515,0-503.17993.01466-95.55011-.01025-191.11023Zm-2.39991,694.27c0,20.86011-12.1101,38.23-31.16992,44.82007a49.15636,49.15636,0,0,1-16.18994,2.55q-140.20514-.01466-280.40991.07983c-21.53.06006-45.17-14.61987-47.96-44.08984.04992-2.99.15991-5.99.15991-8.98q.0152-221.67.01-443.32007v-4.08008q.00018-120.27007-.01-240.52c0-1.65991-.11-3.31994-.16992-4.98,3.23-28.30993,21.67993-44.69995,50.29993-44.69995h274.4c30.79,0,51.05005,20.23,51.05005,50.91992q.01464,346.15485-.01026,692.29981Zm2.39991-694.27c0-29.69995-21.77-51.30993-51.46-51.30993q-138.93-.015-277.9,0c-30.31994,0-51.03992,20.77-51.04993,51.16v177.93994c.02,21.65.16993,43.30005.26,64.94995v.93006c-.09008,1.31994-.25,2.64-.25,3.96008q-.01482,223.44012,0,446.86987c.01,28.26,21.18995,49.53,49.67994,49.56006q35.51989.04468,71.06005.05,105.18.04467,210.34009-.06006c28.56006-.03,49.32007-21.14014,49.33008-49.76q.015-251.59515,0-503.17993.01466-95.55011-.01025-191.11023Zm-2.39991,694.27c0,20.86011-12.1101,38.23-31.16992,44.82007a49.15636,49.15636,0,0,1-16.18994,2.55q-140.20514-.01466-280.40991.07983c-21.53.06006-45.17-14.61987-47.96-44.08984.04992-2.99.15991-5.99.15991-8.98q.0152-221.67.01-443.32007v-4.08008q.00018-120.27007-.01-240.52c0-1.65991-.11-3.31994-.16992-4.98,3.23-28.30993,21.67993-44.69995,50.29993-44.69995h274.4c30.79,0,51.05005,20.23,51.05005,50.91992q.01464,346.15485-.01026,692.29981Zm2.39991-694.27c0-29.69995-21.77-51.30993-51.46-51.30993q-138.93-.015-277.9,0c-30.31994,0-51.03992,20.77-51.04993,51.16v177.93994c.02,21.65.16993,43.30005.26,64.94995v.93006c-.09008,1.31994-.25,2.64-.25,3.96008q-.01482,223.44012,0,446.86987c.01,28.26,21.18995,49.53,49.67994,49.56006q35.51989.04468,71.06005.05,105.18.04467,210.34009-.06006c28.56006-.03,49.32007-21.14014,49.33008-49.76q.015-251.59515,0-503.17993.01466-95.55011-.01025-191.11023Zm-2.39991,694.27c0,20.86011-12.1101,38.23-31.16992,44.82007a49.15636,49.15636,0,0,1-16.18994,2.55q-140.20514-.01466-280.40991.07983c-21.53.06006-45.17-14.61987-47.96-44.08984.04992-2.99.15991-5.99.15991-8.98q.0152-221.67.01-443.32007v-4.08008q.00018-120.27007-.01-240.52c0-1.65991-.11-3.31994-.16992-4.98,3.23-28.30993,21.67993-44.69995,50.29993-44.69995h274.4c30.79,0,51.05005,20.23,51.05005,50.91992q.01464,346.15485-.01026,692.29981Zm2.39991-694.27c0-29.69995-21.77-51.30993-51.46-51.30993q-138.93-.015-277.9,0c-30.31994,0-51.03992,20.77-51.04993,51.16v177.93994c.02,21.65.16993,43.30005.26,64.94995v.93006c-.09008,1.31994-.25,2.64-.25,3.96008q-.01482,223.44012,0,446.86987c.01,28.26,21.18995,49.53,49.67994,49.56006q35.51989.04468,71.06005.05,105.18.04467,210.34009-.06006c28.56006-.03,49.32007-21.14014,49.33008-49.76q.015-251.59515,0-503.17993.01466-95.55011-.01025-191.11023Zm-2.39991,694.27c0,20.86011-12.1101,38.23-31.16992,44.82007a49.15636,49.15636,0,0,1-16.18994,2.55q-140.20514-.01466-280.40991.07983c-21.53.06006-45.17-14.61987-47.96-44.08984.04992-2.99.15991-5.99.15991-8.98q.0152-221.67.01-443.32007v-4.08008q.00018-120.27007-.01-240.52c0-1.65991-.11-3.31994-.16992-4.98,3.23-28.30993,21.67993-44.69995,50.29993-44.69995h274.4c30.79,0,51.05005,20.23,51.05005,50.91992q.01464,346.15485-.01026,692.29981Zm2.39991-694.27c0-29.69995-21.77-51.30993-51.46-51.30993q-138.93-.015-277.9,0c-30.31994,0-51.03992,20.77-51.04993,51.16v177.93994c.02,21.65.16993,43.30005.26,64.94995v.93006c-.09008,1.31994-.25,2.64-.25,3.96008q-.01482,223.44012,0,446.86987c.01,28.26,21.18995,49.53,49.67994,49.56006q35.51989.04468,71.06005.05,105.18.04467,210.34009-.06006c28.56006-.03,49.32007-21.14014,49.33008-49.76q.015-251.59515,0-503.17993.01466-95.55011-.01025-191.11023Zm-2.39991,694.27c0,20.86011-12.1101,38.23-31.16992,44.82007a49.15636,49.15636,0,0,1-16.18994,2.55q-140.20514-.01466-280.40991.07983c-21.53.06006-45.17-14.61987-47.96-44.08984.04992-2.99.15991-5.99.15991-8.98q.0152-221.67.01-443.32007v-4.08008q.00018-120.27007-.01-240.52c0-1.65991-.11-3.31994-.16992-4.98,3.23-28.30993,21.67993-44.69995,50.29993-44.69995h274.4c30.79,0,51.05005,20.23,51.05005,50.91992q.01464,346.15485-.01026,692.29981Zm2.39991-694.27c0-29.69995-21.77-51.30993-51.46-51.30993q-138.93-.015-277.9,0c-30.31994,0-51.03992,20.77-51.04993,51.16v177.93994c.02,21.65.16993,43.30005.26,64.94995v.93006c-.09008,1.31994-.25,2.64-.25,3.96008q-.01482,223.44012,0,446.86987c.01,28.26,21.18995,49.53,49.67994,49.56006q35.51989.04468,71.06005.05,105.18.04467,210.34009-.06006c28.56006-.03,49.32007-21.14014,49.33008-49.76q.015-251.59515,0-503.17993.01466-95.55011-.01025-191.11023Zm-2.39991,694.27c0,20.86011-12.1101,38.23-31.16992,44.82007a49.15636,49.15636,0,0,1-16.18994,2.55q-140.20514-.01466-280.40991.07983c-21.53.06006-45.17-14.61987-47.96-44.08984.04992-2.99.15991-5.99.15991-8.98q.0152-221.67.01-443.32007v-4.08008q.00018-120.27007-.01-240.52c0-1.65991-.11-3.31994-.16992-4.98,3.23-28.30993,21.67993-44.69995,50.29993-44.69995h274.4c30.79,0,51.05005,20.23,51.05005,50.91992q.01464,346.15485-.01026,692.29981Zm2.39991-694.27c0-29.69995-21.77-51.30993-51.46-51.30993q-138.93-.015-277.9,0c-30.31994,0-51.03992,20.77-51.04993,51.16v177.93994c.02,21.65.16993,43.30005.26,64.94995v.93006c-.09008,1.31994-.25,2.64-.25,3.96008q-.01482,223.44012,0,446.86987c.01,28.26,21.18995,49.53,49.67994,49.56006q35.51989.04468,71.06005.05,105.18.04467,210.34009-.06006c28.56006-.03,49.32007-21.14014,49.33008-49.76q.015-251.59515,0-503.17993.01466-95.55011-.01025-191.11023Zm-2.39991,694.27c0,20.86011-12.1101,38.23-31.16992,44.82007a49.15636,49.15636,0,0,1-16.18994,2.55q-140.20514-.01466-280.40991.07983c-21.53.06006-45.17-14.61987-47.96-44.08984.04992-2.99.15991-5.99.15991-8.98q.0152-221.67.01-443.32007v-4.08008q.00018-120.27007-.01-240.52c0-1.65991-.11-3.31994-.16992-4.98,3.23-28.30993,21.67993-44.69995,50.29993-44.69995h274.4c30.79,0,51.05005,20.23,51.05005,50.91992q.01464,346.15485-.01026,692.29981Zm2.39991-694.27c0-29.69995-21.77-51.30993-51.46-51.30993q-138.93-.015-277.9,0c-30.31994,0-51.03992,20.77-51.04993,51.16v177.93994c.02,21.65.16993,43.30005.26,64.94995v.93006c-.09008,1.31994-.25,2.64-.25,3.96008q-.01482,223.44012,0,446.86987c.01,28.26,21.18995,49.53,49.67994,49.56006q35.51989.04468,71.06005.05,105.18.04467,210.34009-.06006c28.56006-.03,49.32007-21.14014,49.33008-49.76q.015-251.59515,0-503.17993.01466-95.55011-.01025-191.11023Zm-2.39991,694.27c0,20.86011-12.1101,38.23-31.16992,44.82007a49.15636,49.15636,0,0,1-16.18994,2.55q-140.20514-.01466-280.40991.07983c-21.53.06006-45.17-14.61987-47.96-44.08984.04992-2.99.15991-5.99.15991-8.98q.0152-221.67.01-443.32007v-4.08008q.00018-120.27007-.01-240.52c0-1.65991-.11-3.31994-.16992-4.98,3.23-28.30993,21.67993-44.69995,50.29993-44.69995h274.4c30.79,0,51.05005,20.23,51.05005,50.91992q.01464,346.15485-.01026,692.29981Z" transform="translate(-1738.6185 -1307.90974)"/><path class="cls-1" d="M2134.3042,1492.02954v88.53c-.31006-.02-.62012-.03-.94019-.05v-88.48Z" transform="translate(-1738.6185 -1307.90974)"/><path class="cls-1" d="M1741.65405,1600.75952q-.1203-26.47485-.25-52.95c2.54993-1.71008,2.09.47,2.1,1.72.05005,5.96.02,11.91992.02,17.87988,0,9.93006.05005,19.87012-.05005,29.80005C1743.454,1598.50952,1744.66394,1600.82947,1741.65405,1600.75952Z" transform="translate(-1738.6185 -1307.90974)"/><path class="cls-1" d="M1743.50415,1523.45947c0,1.47.22,3.57007-2.15991,1.3501q.19464-26.46021.36987-52.92c1.69006-.2201,1.82007.80993,1.82007,2.12Q1743.504,1498.72913,1743.50415,1523.45947Z" transform="translate(-1738.6185 -1307.90974)"/><path class="cls-1" d="M1743.51416,1438.25952c.01,1.3999-.76,1.61-1.87,1.53q.04467-13.96509.04992-27.89014c1.12012-.06994,1.84009.17017,1.83008,1.57007Q1743.46393,1425.8595,1743.51416,1438.25952Z" transform="translate(-1738.6185 -1307.90974)"/><path class="cls-1" d="M2077.54053,1310.52966l-279.85-.03a49.3459,49.3459,0,0,0-14.79993,1.87c-20.17,6.27-31.88012,20.16-36.45007,40.48q-.15015,131.865-.29993,263.75-.01519,220.80011-.01,441.64c0,3.14991.18994,6.31006.29,9.47,7.09986,28.72,25.17994,42.82984,54.86988,42.82984q138.18-.03,276.35009.02a57.22466,57.22466,0,0,0,14.3501-1.48c23.53-6.04,38.47-25.6499,38.47-50.71q.03-347.58015,0-695.15992C2130.46069,1333.35962,2107.57056,1310.53967,2077.54053,1310.52966Zm51.03,747.8501c-.01,28.61987-20.77,49.73-49.33008,49.76q-105.18.12012-210.34.06006-35.53491-.01466-71.06006-.05c-28.49-.03-49.66992-21.30005-49.67993-49.56006q-.015-223.43976,0-446.86987c0-1.32007.15991-2.64014.25-3.96008v-.93006c-.09009-21.6499-.24-43.29992-.26-64.94995q-.0454-88.96527,0-177.93994c.01-30.39,20.73-51.16,51.04993-51.16q138.96-.015,277.8999,0c29.68994,0,51.46,21.61,51.46,51.30993q.01465,95.54975.01,191.11011.0304,251.58.00025,503.17969Z" transform="translate(-1738.6185 -1307.90974)"/><path class="cls-3" d="M1739.45154,1471.60461l-.02527,54.48523c-1.13843-10.39392-.41834-20.82129-.4408-31.22949C1738.96875,1487.11292,1738.21948,1479.3324,1739.45154,1471.60461Z" transform="translate(-1738.6185 -1307.90974)"/><path class="cls-3" d="M1739.47876,1546.652c.2749,18.17907.43848,36.35815-.08484,54.5365-1.06885-11.7406-.34766-23.50733-.41589-35.2605C1738.94092,1559.5083,1738.25488,1553.04724,1739.47876,1546.652Z" transform="translate(-1738.6185 -1307.90974)"/><path class="cls-3" d="M1739.40381,1411.49792q.06427,14.68287.12829,29.36561A127.50377,127.50377,0,0,1,1739.40381,1411.49792Z" transform="translate(-1738.6185 -1307.90974)"/><path class="cls-3" d="M1960.90051,1328.20972q-22.42529.03-44.84009-.02c-3.40991-.01-6.24,1.08-6.18994,4.83.04,3.73,2.85,4.78,6.27,4.74,7.30994-.08,14.61988-.0299,21.91992-.0299,7.64,0,15.28-.04,22.92.01989,3.26.03,5.77991-1.11,5.9-4.56994C1967.02051,1329.34961,1964.34058,1328.19971,1960.90051,1328.20972Zm-.5,6.76c-7.47.0299-14.94006.01989-22.41.01989v.01c-7.3,0-14.61.02-21.91-.01-1.46,0-3.37.20008-3.48-1.85-.13-2.39,1.87-2.30005,3.55-2.30005q22.155.00018,44.32-.01c1.66.01,3.75-.15991,3.73,2.15015C1964.17053,1335.3396,1961.9906,1334.96973,1960.40051,1334.96973Z" transform="translate(-1738.6185 -1307.90974)"/><path class="cls-3" d="M1981.65051,1325.59961a1.76539,1.76539,0,0,0-.23.01,7.30756,7.30756,0,0,0-7,7.51,7.4628,7.4628,0,0,0,7.66956,7.25h.14038a7.55524,7.55524,0,0,0,7.05994-7.56995,7.41418,7.41418,0,0,0-7.62171-7.20056h-.00012Zm.17993,12.14c-3.18994-.00988-4.87-2.06994-4.72-5.15a4.42178,4.42178,0,0,1,4.36-4.48,2.88294,2.88294,0,0,1,.59.03c2.78.15,4.42,2,4.57007,5-.31994,2.82007-1.91,4.61-4.79992,4.6Z" transform="translate(-1738.6185 -1307.90974)"/><path class="cls-3" d="M2117.80054,1711.77966q0-172.1997-.01-344.41c0-2.33.02-4.65991-.07984-6.99-1-21.57007-17.18017-37.29-38.81006-37.58-11.15991-.15-22.33007-.06994-33.49-.02-6.41015.02991-8.15014,1.9-8.14013,8.43006.02,9-5.12989,15.8999-13.79993,18.57995-3.89,1.2-7.87,1.26-11.88,1.26q-73.46979-.015-146.95-.02a56.73992,56.73992,0,0,1-7.48-.31994c-11.51-1.57007-17.83007-8.77-17.8601-20.15015-.01-5.33984-2.14991-7.72-7.46-7.75989-11.65992-.06994-23.33008-.21008-34.99.09-22.66.59009-38.24,16.76-38.24,39.35q.00018,347.655-.23,695.31006c-.04,21.34986,16.40991,40.7898,40.40991,40.73q139.19988-.33032,278.3999.02979c21.01.06006,41.01-15.18994,40.87012-41.12988C2117.45044,1942.0498,2117.80054,1826.90967,2117.80054,1711.77966Zm-2.5,347.89014c0,20.32007-15.54,35.8999-36.09009,35.92993q-75.46509.09009-150.92993.02H1798.83057c-22.39991,0-37.67994-15.22-37.67994-37.55q-.01482-173.93994-.01-347.86987c.01-115.46008.27-230.92-.21-346.37012-.10009-24.33,17.82984-38.96,38.86988-38.54992,10.33008.20007,20.66.11,30.99-.01,4.15-.04993,5.98,1.34,5.92,5.82995-.13,11.46,6.69006,19.54,18,21.72a45.09751,45.09751,0,0,0,8.43.82007q75.22469.07489,150.44.03a35.18647,35.18647,0,0,0,11.78-1.88c9.1499-3.2301,14.3999-10.35,14.19995-20.05993-.09-4.8,1.66-6.57007,6.4-6.4801,10.66.19006,21.31995.02,31.9801.05993,21.75.1001,37.36011,15.83008,37.36011,37.62012Z" transform="translate(-1738.6185 -1307.90974)"/><path class="cls-3" d="M2128.56055,1364.0896c0-29.69995-21.77-51.30994-51.46-51.30994q-138.93-.015-277.9,0c-30.31994,0-51.03992,20.77-51.04993,51.16v177.93994c.02,21.65.16993,43.3.26,64.94995v.93c-.09008,1.32-.25,2.64-.25,3.96009q-.01482,223.43994,0,446.87c.01,28.26,21.18995,49.53,49.67994,49.56006q35.51989.04468,71.06005.05,105.18.04467,210.34009-.06006c28.56006-.03,49.32007-21.14014,49.33008-49.76q.015-251.59515,0-503.17993Q2128.58546,1459.64972,2128.56055,1364.0896Zm-2.39991,694.27014c0,20.86011-12.1101,38.23-31.16992,44.82007a49.15636,49.15636,0,0,1-16.18994,2.55q-140.20514-.01466-280.40991.07983c-21.53.06006-45.17-14.61987-47.96-44.08984.04992-2.99.15991-5.99.15991-8.98q.0152-221.67.01-443.32007v-4.08008q.00018-120.27007-.01-240.52c0-1.65991-.11-3.31994-.16992-4.98,3.23-28.30993,21.67993-44.69995,50.29993-44.69995h274.4c30.79,0,51.05005,20.23,51.05005,50.91992q.01464,346.15485-.01026,692.29981Zm-380.02-441.76q.04487-131.8797.29993-263.75c-.73,1.76-.37,3.62012-.37,5.43006q-.03021,351.98986,0,703.98986c0,1.81006-.34,3.66016.35009,5.44019-.10009-3.15991-.29-6.32007-.29-9.47q-.01521-220.83013.00988-441.64026Z" transform="translate(-1738.6185 -1307.90974)"/><path class="cls-1" d="M2075.12061,1315.13965h-274.4c-28.62,0-47.06995,16.39-50.29993,44.69995.05994,1.66.16993,3.32007.16993,4.98q-.0002,120.25525.01,240.52v4.08008q.00018,221.655-.01,443.31994c0,2.99-.11,5.99-.15992,8.98,2.78992,29.47,26.42994,44.14991,47.96,44.08985q140.20515-.31494,280.40992-.07984a49.15609,49.15609,0,0,0,16.18994-2.55c19.06006-6.59009,31.16992-23.96,31.16992-44.82007q.01465-346.14.01-692.30005C2126.17065,1335.36963,2105.91064,1315.13965,2075.12061,1315.13965Zm-93.7,10.47a1.76539,1.76539,0,0,1,.23-.01,7.41437,7.41437,0,0,1,7.63941,7.182l.00049.01806a7.55523,7.55523,0,0,1-7.05994,7.56995h-.14a7.46272,7.46272,0,0,1-7.66993-7.24963h0v-.00037a7.30754,7.30754,0,0,1,6.99988-7.51Zm-65.3601,2.58008q22.42475.045,44.84008.02c3.43995-.01,6.11988,1.13989,5.98,4.97-.12012,3.46-2.64,4.6-5.9,4.56994-7.64-.05993-15.28-.01989-22.92-.01989-7.3,0-14.61-.05005-21.91993.0299-3.42.04-6.23-1.01-6.27-4.74C1909.82056,1329.26965,1912.65051,1328.17969,1916.06055,1328.1897Zm161.12988,770.11975q-139.19972-.36-278.4-.02979c-24,.05982-40.45-19.38012-40.40992-40.73q.23951-347.65521.23-695.31018c0-22.59,15.58-38.75989,38.24-39.35,11.65992-.3,23.33008-.15992,34.99-.09,5.31006.03992,7.45,2.42,7.46,7.75989.03,11.38013,6.35009,18.58008,17.8601,20.15014a56.73985,56.73985,0,0,0,7.48.32q73.485,0,146.94995.02c4.01,0,7.99-.06006,11.88-1.26,8.67-2.68,13.82-9.58,13.79993-18.58-.01-6.53,1.73-8.40014,8.14013-8.43,11.16-.04993,22.33-.13,33.49011.02,21.62989.28992,37.81006,16.00989,38.81006,37.58.09986,2.33007.07984,4.66.07984,6.99q.015,172.20025.01,344.41c0,115.13-.3501,230.27014.26,345.4C2118.20044,2083.11951,2098.20044,2098.36951,2077.19043,2098.30945Z" transform="translate(-1738.6185 -1307.90974)"/><path class="cls-3" d="M1746.134,2058.23938c0,3.15015.19007,6.31006.28992,9.47-1.82-2.56006-.97-5.49-.97-8.23q-.07507-233.055-.04993-466.11-.00018-115.65.04993-231.29992c0-3.07007-.88989-6.32007.99-9.22009q-.15015,131.86487-.29993,263.75Q1746.06952,1837.41449,1746.134,2058.23938Z" transform="translate(-1738.6185 -1307.90974)"/><path class="cls-3" d="M1741.714,1471.88953q-.18018,26.46-.36987,52.92c-.63013-17.20007-.16016-34.41016-.26-51.62012C1741.08423,1472.61951,1741.464,1472.29956,1741.714,1471.88953Z" transform="translate(-1738.6185 -1307.90974)"/><path class="cls-3" d="M1741.65405,1600.75952c-.18005-.28-.51-.56006-.51-.8501.03992-17.35986-.49-34.74.26-52.09985Q1741.524,1574.28442,1741.65405,1600.75952Z" transform="translate(-1738.6185 -1307.90974)"/><path class="cls-3" d="M1741.694,1411.89941q-.01538,13.93506-.04993,27.89014A128.73741,128.73741,0,0,1,1741.694,1411.89941Z" transform="translate(-1738.6185 -1307.90974)"/><path class="cls-3" d="M1741.714,1471.88953q-.18018,26.46-.36987,52.92c-1.07007-1.07007-.79-2.45007-.79-3.75q-.02985-22.57489,0-45.14014C1740.56421,1474.49951,1740.09424,1472.87952,1741.714,1471.88953Z" transform="translate(-1738.6185 -1307.90974)"/><path class="cls-3" d="M1741.65405,1600.75952c-1.22009-.72-1.11-1.93005-1.11-3.08008v-47.13989a3.32482,3.32482,0,0,1,.86-2.73Q1741.524,1574.28442,1741.65405,1600.75952Z" transform="translate(-1738.6185 -1307.90974)"/><path class="cls-3" d="M1741.694,1411.89941q-.01538,13.93506-.04993,27.89014c-1.69006-1.20007-1.05993-3-1.07995-4.56006q-.09009-9.405.01-18.81006C1740.58423,1414.8595,1739.924,1413.04956,1741.694,1411.89941Z" transform="translate(-1738.6185 -1307.90974)"/><path class="cls-3" d="M2128.57422,1555.19946q.03,251.58,0,503.17981c-.01,28.62012-20.77,49.73-49.33008,49.76026q-105.18018.11975-210.34.05981-35.53491-.01464-71.05993-.05005c-28.49011-.02978-49.67017-21.2998-49.68018-49.56006q-.01483-223.43976,0-446.86987c0-1.32007.16016-2.64.25-3.96a2.10128,2.10128,0,0,1,2.19007,1.65991q0,221.655-.00989,443.32007c0,2.99-.11011,5.99-.16016,8.98,2.79,29.47,26.43006,44.15015,47.96009,44.09009q140.205-.31494,280.41-.08008a49.14232,49.14232,0,0,0,16.18994-2.55c19.06006-6.59009,31.16992-23.96,31.16992-44.82007q.01465-346.13982.01-692.2998c0-30.69007-20.26-50.92-51.0498-50.92H1800.724c-28.62,0-47.06995,16.39-50.3,44.7.06006,1.66.17017,3.31994.17017,4.9801q0,120.25452.00988,240.5199a4.14178,4.14178,0,0,1-2.19006,1.49c-.08984-21.65-.24-43.29993-.25989-64.95V1363.93945c.00989-30.38989,20.73-51.15991,51.04993-51.15991q138.95983-.015,277.9,0c29.69,0,51.46,21.61,51.46,51.30994Q2128.579,1459.63959,2128.57422,1555.19946Z" transform="translate(-1738.6185 -1307.90974)"/><path class="cls-3" d="M1750.604,1605.33948v4.07995q0,221.655-.00988,443.32019c0,2.99-.11011,5.99-.16016,8.98-1.60986-1.8999-.85986-4.15991-.85986-6.25q-.05988-220.54485-.08008-441.1c0-2.20007.98-4.69006-1.08008-6.61v-.93c1.99011-1.74,1.08008-4.05994,1.08008-6.11q.07507-117.31475.08008-234.64c0-2.08-.75-4.35.84985-6.24.06006,1.66.17017,3.32.17017,4.9801Q1750.59412,1485.0744,1750.604,1605.33948Z" transform="translate(-1738.6185 -1307.90974)"/><path class="cls-3" d="M1960.90051,1328.20972q-22.42529.03-44.84009-.02c-3.40991-.01-6.24,1.08-6.18994,4.83.04,3.73,2.85,4.78,6.27,4.74,7.30994-.08,14.61988-.0299,21.91992-.0299,7.64,0,15.28-.04,22.92.01989,3.26.03,5.77991-1.11,5.9-4.56994C1967.02051,1329.34961,1964.34058,1328.19971,1960.90051,1328.20972Zm-.5,6.76c-7.47.0299-14.94006.01989-22.41.01989v.01c-7.3,0-14.61.02-21.91-.01-1.46,0-3.37.20008-3.48-1.85-.13-2.39,1.87-2.30005,3.55-2.30005q22.155.00018,44.32-.01c1.66.01,3.75-.15991,3.73,2.15015C1964.17053,1335.3396,1961.9906,1334.96973,1960.40051,1334.96973Z" transform="translate(-1738.6185 -1307.90974)"/><path class="cls-3" d="M1981.65051,1325.59961a1.76539,1.76539,0,0,0-.23.01,7.30756,7.30756,0,0,0-7,7.51,7.4628,7.4628,0,0,0,7.66956,7.25h.14038a7.55524,7.55524,0,0,0,7.05994-7.56995,7.41418,7.41418,0,0,0-7.62171-7.20056h-.00012Zm.17993,12.14c-3.18994-.00988-4.87-2.06994-4.72-5.15a4.42178,4.42178,0,0,1,4.36-4.48,2.88294,2.88294,0,0,1,.59.03c2.78.15,4.42,2,4.57007,5-.31994,2.82007-1.91,4.61-4.79992,4.6Z" transform="translate(-1738.6185 -1307.90974)"/><path class="cls-3" d="M2117.80054,1711.77966q0-172.1997-.01-344.41c0-2.33.02-4.65991-.07984-6.99-1-21.57007-17.18017-37.29-38.81006-37.58-11.15991-.15-22.33007-.06994-33.49-.02-6.41015.02991-8.15014,1.9-8.14013,8.43006.02,9-5.12989,15.8999-13.79993,18.57995-3.89,1.2-7.87,1.26-11.88,1.26q-73.46979-.015-146.95-.02a56.73992,56.73992,0,0,1-7.48-.31994c-11.51-1.57007-17.83007-8.77-17.8601-20.15015-.01-5.33984-2.14991-7.72-7.46-7.75989-11.65992-.06994-23.33008-.21008-34.99.09-22.66.59009-38.24,16.76-38.24,39.35q.00018,347.655-.23,695.31006c-.04,21.34986,16.40991,40.7898,40.40991,40.73q139.19988-.33032,278.3999.02979c21.01.06006,41.01-15.18994,40.87012-41.12988C2117.45044,1942.0498,2117.80054,1826.90967,2117.80054,1711.77966Zm-2.5,347.89014c0,20.32007-15.54,35.8999-36.09009,35.92993q-75.46509.09009-150.92993.02H1798.83057c-22.39991,0-37.67994-15.22-37.67994-37.55q-.01482-173.93994-.01-347.86987c.01-115.46008.27-230.92-.21-346.37012-.10009-24.33,17.82984-38.96,38.86988-38.54992,10.33008.20007,20.66.11,30.99-.01,4.15-.04993,5.98,1.34,5.92,5.82995-.13,11.46,6.69006,19.54,18,21.72a45.09751,45.09751,0,0,0,8.43.82007q75.22469.07489,150.44.03a35.18647,35.18647,0,0,0,11.78-1.88c9.1499-3.2301,14.3999-10.35,14.19995-20.05993-.09-4.8,1.66-6.57007,6.4-6.4801,10.66.19006,21.31995.02,31.9801.05993,21.75.1001,37.36011,15.83008,37.36011,37.62012Z" transform="translate(-1738.6185 -1307.90974)"/><path class="cls-3" d="M2117.80054,1711.77966q0-172.1997-.01-344.41c0-2.33.02-4.65991-.07984-6.99-1-21.57007-17.18017-37.29-38.81006-37.58-11.15991-.15-22.33007-.06994-33.49-.02-6.41015.02991-8.15014,1.9-8.14013,8.43006.02,9-5.12989,15.8999-13.79993,18.57995-3.89,1.2-7.87,1.26-11.88,1.26q-73.46979-.015-146.95-.02a56.73992,56.73992,0,0,1-7.48-.31994c-11.51-1.57007-17.83007-8.77-17.8601-20.15015-.01-5.33984-2.14991-7.72-7.46-7.75989-11.65992-.06994-23.33008-.21008-34.99.09-22.66.59009-38.24,16.76-38.24,39.35q.00018,347.655-.23,695.31006c-.04,21.34986,16.40991,40.7898,40.40991,40.73q139.19988-.33032,278.3999.02979c21.01.06006,41.01-15.18994,40.87012-41.12988C2117.45044,1942.0498,2117.80054,1826.90967,2117.80054,1711.77966Zm-2.5,347.89014c0,20.32007-15.54,35.8999-36.09009,35.92993q-75.46509.09009-150.92993.02H1798.83057c-22.39991,0-37.67994-15.22-37.67994-37.55q-.01482-173.93994-.01-347.86987c.01-115.46008.27-230.92-.21-346.37012-.10009-24.33,17.82984-38.96,38.86988-38.54992,10.33008.20007,20.66.11,30.99-.01,4.15-.04993,5.98,1.34,5.92,5.82995-.13,11.46,6.69006,19.54,18,21.72a45.09751,45.09751,0,0,0,8.43.82007q75.22469.07489,150.44.03a35.18647,35.18647,0,0,0,11.78-1.88c9.1499-3.2301,14.3999-10.35,14.19995-20.05993-.09-4.8,1.66-6.57007,6.4-6.4801,10.66.19006,21.31995.02,31.9801.05993,21.75.1001,37.36011,15.83008,37.36011,37.62012Z" transform="translate(-1738.6185 -1307.90974)"/><path class="cls-3" d="M1960.90051,1328.20972q-22.42529.03-44.84009-.02c-3.40991-.01-6.24,1.08-6.18994,4.83.04,3.73,2.85,4.78,6.27,4.74,7.30994-.08,14.61988-.0299,21.91992-.0299,7.64,0,15.28-.04,22.92.01989,3.26.03,5.77991-1.11,5.9-4.56994C1967.02051,1329.34961,1964.34058,1328.19971,1960.90051,1328.20972Zm-.5,6.76c-7.47.0299-14.94006.01989-22.41.01989v.01c-7.3,0-14.61.02-21.91-.01-1.46,0-3.37.20008-3.48-1.85-.13-2.39,1.87-2.30005,3.55-2.30005q22.155.00018,44.32-.01c1.66.01,3.75-.15991,3.73,2.15015C1964.17053,1335.3396,1961.9906,1334.96973,1960.40051,1334.96973Z" transform="translate(-1738.6185 -1307.90974)"/><path class="cls-1" d="M1964.204,1332.97949c-.03,2.36-2.21,1.99-3.79993,1.99-7.47009.03-14.94006.02-22.41.02v.01c-7.30005,0-14.61.02-21.90991-.01-1.46009,0-3.37012.2-3.48011-1.85-.13-2.39,1.87-2.3,3.55005-2.3q22.15485,0,44.31995-.01C1962.134,1330.83948,1964.224,1330.66943,1964.204,1332.97949Z" transform="translate(-1738.6185 -1307.90974)"/><path class="cls-3" d="M1981.65051,1325.59961a1.76539,1.76539,0,0,0-.23.01,7.30756,7.30756,0,0,0-7,7.51,7.4628,7.4628,0,0,0,7.66956,7.25h.14038a7.55524,7.55524,0,0,0,7.05994-7.56995,7.41418,7.41418,0,0,0-7.62171-7.20056h-.00012Zm.17993,12.14c-3.18994-.00988-4.87-2.06994-4.72-5.15a4.42178,4.42178,0,0,1,4.36-4.48,2.88294,2.88294,0,0,1,.59.03c2.78.15,4.42,2,4.57007,5-.31994,2.82007-1.91,4.61-4.79992,4.6Z" transform="translate(-1738.6185 -1307.90974)"/><path class="cls-1" d="M1986.634,1333.13953c-.31994,2.81994-1.91,4.61-4.79992,4.6-3.19007-.01-4.87012-2.07007-4.7201-5.15a4.42178,4.42178,0,0,1,4.36-4.48,2.88353,2.88353,0,0,1,.59009.03C1984.84424,1328.28955,1986.48413,1330.13953,1986.634,1333.13953Z" transform="translate(-1738.6185 -1307.90974)"/><path class="cls-4" d="M2088.97021,1342.55237c.00928.4668-.17724.55542-.58349.55078-1.51245-.01868-3.02026-.00464-4.53247-.00464-1.489,0-2.978-.00928-4.47193.00464-.39209.00464-.54614-.11206-.5415-.53211.0188-1.82519.01392-3.64575,0-5.47082-.00464-.35474.10278-.48084.46216-.48084q4.59337.0141,9.17724,0c.40162,0,.49024.15406.4856.52283C2088.95166,1338.94409,2088.94678,1340.75061,2088.97021,1342.55237Z" transform="translate(-1738.6185 -1307.90974)"/><path class="cls-4" d="M2055.74658,1339.39587c0-1.17627.00952-2.35254-.00464-3.52868-.00561-.46973.1919-.67115.65918-.69348,1.62207-.07727,1.62134-.08484,1.6211,1.5487q0,3.02876-.001,6.05762c-.001.69421-.09595.79224-.77124.80237-1.70068.02527-1.50195.02905-1.50513-1.4812-.00195-.90174-.00024-1.80359-.00024-2.70533Z" transform="translate(-1738.6185 -1307.90974)"/><path class="cls-4" d="M2054.02,1340.21851c.00024.90039-.00757,1.8009.00342,2.70117.00537.43408-.1687.65906-.61841.66272-1.89478.01526-1.6543.10913-1.65942-1.55371-.0044-1.44849.01293-2.8971-.00782-4.34534-.00781-.53882.165-.78857.74-.78247,1.67627.01794,1.542-.137,1.54175,1.49719Q2054.01991,1339.30829,2054.02,1340.21851Z" transform="translate(-1738.6185 -1307.90974)"/><path class="cls-4" d="M2047.7428,1341.06653c.00036-.60584.00854-1.21192-.00257-1.81751a.55292.55292,0,0,1,.58887-.64074c.01953-.00122.03906-.00245.0586-.00269,1.88916-.01453,1.62744-.05725,1.63452,1.52649.00415.91858-.011,1.83728.00586,2.75562.00927.5039-.21875.70019-.70606.70336-1.83533.01185-1.56775.00611-1.57922-1.52771C2047.74036,1341.73108,2047.74255,1341.3988,2047.7428,1341.06653Z" transform="translate(-1738.6185 -1307.90974)"/><path class="cls-4" d="M2046.02026,1341.98108c-.00012.03918-.00012.07849,0,.11767.00159,1.53113-.24731,1.7334-1.79235,1.47779a.48437.48437,0,0,1-.47278-.49573l.00012-.00561a13.71256,13.71256,0,0,1,.01636-2.23121c.1405-.91967.94214-.40112,1.44824-.50012.37671-.07373.7782-.02136.79358.52.01062.37219.002.745.002,1.11743Z" transform="translate(-1738.6185 -1307.90974)"/><path class="cls-4" d="M2067.57007,1335.38489a7.70645,7.70645,0,0,1,5.19433,2.05737c.311.28467.57618.61353.20313.99646-.33545.34448-.66284.14-.97095-.1322a6.52665,6.52665,0,0,0-8.956.00854c-.30957.27723-.62427.474-.96265.11585-.34033-.36-.12817-.67945.1731-.95679A7.76588,7.76588,0,0,1,2067.57007,1335.38489Z" transform="translate(-1738.6185 -1307.90974)"/><path class="cls-4" d="M2067.59106,1338.27649a4.81434,4.81434,0,0,1,3.115,1.18555c.32154.27478.57789.59436.2378.99524-.32788.38684-.64966.168-.96094-.09a3.64319,3.64319,0,0,0-4.92139.00452c-.32251.27136-.6394.44946-.95971.07544-.31763-.37122-.08936-.68433.208-.9574A4.88613,4.88613,0,0,1,2067.59106,1338.27649Z" transform="translate(-1738.6185 -1307.90974)"/><path class="cls-4" d="M2067.50757,1341.13867a2.07525,2.07525,0,0,1,.6897.10767c.96606.34167,1.105.78967.48437,1.58642-.22778.29248-.438.60059-.6853.87549a.56.56,0,0,1-.94849-.01306c-.28857-.34338-.56006-.70142-.8313-1.05908-.38672-.51026-.31616-.85657.23389-1.20117A1.94517,1.94517,0,0,1,2067.50757,1341.13867Z" transform="translate(-1738.6185 -1307.90974)"/><path class="cls-4" d="M2095.90674,1335.12109H2087.668q-4.15246,0-8.29956.00464c-1.335,0-1.95117.60681-1.95117,1.9325q-.00734,2.73778,0,5.47082c0,1.49378.56958,2.07263,2.04931,2.07263q8.21339.007,16.42188,0c1.37695,0,1.98388-.59753,1.98852-1.96057q.007-2.77259,0-5.53613C2097.87671,1335.74182,2097.26514,1335.12573,2095.90674,1335.12109Zm1.39575,7.54334c-.00464.97571-.37353,1.35376-1.35376,1.35376-2.76807.0094-5.53149.00464-8.29956.00464-2.74487,0-5.4895.00464-8.23438,0-1.06909,0-1.4143-.34546-1.41918-1.40039v-5.59229c.00463-.94287.37817-1.32568,1.3164-1.32568q8.32507-.007,16.65064,0c.96606,0,1.335.38745,1.3396,1.37231Q2097.30957,1339.87079,2097.30249,1342.66443Z" transform="translate(-1738.6185 -1307.90974)"/><path class="cls-4" d="M2099.16968,1338.07593c-.37354-.028-.54151.11206-.532.49475.01391.42944.00463.859.00463,1.28833h-.00463c0,.42944.00463.859,0,1.28833-.00928.37341.14453.5321.532.50415a1.80314,1.80314,0,0,0,0-3.57568Zm.41528,2.83337c-.20532.11206-.37329.14942-.3689-.182.00928-.29418.00489-.58813.00489-.87768,0-.21472-.01392-.42944.00464-.64417.01391-.15881-.10743-.39209.12158-.45288.168-.042.322.11206.448.2334a1.23469,1.23469,0,0,1-.21,1.92334Z" transform="translate(-1738.6185 -1307.90974)"/><path class="cls-4" d="M2088.97021,1342.55237c.00928.4668-.17724.55542-.58349.55078-1.51245-.01868-3.02026-.00464-4.53247-.00464-1.489,0-2.978-.00928-4.47193.00464-.39209.00464-.54614-.11206-.5415-.53211.0188-1.82519.01392-3.64575,0-5.47082-.00464-.35474.10278-.48084.46216-.48084q4.59337.0141,9.17724,0c.40162,0,.49024.15406.4856.52283C2088.95166,1338.94409,2088.94678,1340.75061,2088.97021,1342.55237Z" transform="translate(-1738.6185 -1307.90974)"/><path class="cls-4" d="M1812.29031,1336.52482a3.17891,3.17891,0,0,0-5.57487.15348,5.81941,5.81941,0,0,0-.69884,3.27327,6.13393,6.13393,0,0,0,.53693,2.86412,3.08365,3.08365,0,0,0,2.7789,1.98621,2.96858,2.96858,0,0,0,3.0176-1.59413A6.48556,6.48556,0,0,0,1812.29031,1336.52482Zm-.98874,4.91849c-.27283.92911-.503,2.02023-1.81576,1.91794-1.236-.09375-1.56833-1.06552-1.65365-2.08849a16.85382,16.85382,0,0,1-.00853-2.70211c.07679-1.02286.40914-2.02877,1.61119-2.131,1.432-.11935,1.63658,1.07406,1.90942,2.08839A6.478,6.478,0,0,1,1811.30157,1341.44331Z" transform="translate(-1738.6185 -1307.90974)"/><path class="cls-4" d="M1791.909,1341.716c-.30093-.49448-.69343-.65264-.78978-.88343-.33985-.81351.1361-1.644-.1565-2.279a4.26977,4.26977,0,0,0-.01707-1.07406c-.23017-.77563.631-1.92648-.6903-2.293-1.28717-.35805-2.08839.29833-2.67672,1.44054-.63078,1.19342-1.40641,2.3015-2.08839,3.46942-1.44908,2.48047-1.3213,2.64248,1.51733,2.76183.75.0256,2.02013-.72464,2.23324.64785.15442.92547,1.03431,1.32754,1.23222,1.08644a.17823.17823,0,0,0,.03809-.0977c.05348-.96782-.02352-1.5573.18522-1.81306.32215-.39469,1.25511.08959,1.44491-.2513C1792.238,1342.25671,1792.07464,1341.98824,1791.909,1341.716Zm-5.52368-.5284c.86949-1.44064,1.68778-2.796,2.62532-4.3389C1789.82913,1341.46037,1789.69261,1341.699,1786.38531,1341.18764Z" transform="translate(-1738.6185 -1307.90974)"/><path class="cls-4" d="M1800.04934,1343.20569c1.31672,0,2.19422-.02071,3.07005.00812.48739.01613,1.12983-.14016,1.18217.65888.05317.81152-.55076.74534-1.07156.74763-1.43014.00635-2.86038.01228-4.2902-.008-.41529-.00593-.96251.1617-1.12432-.43672a1.23691,1.23691,0,0,1,.43433-1.20725c1.10579-1.12775,2.22657-2.24218,3.29533-3.40427.731-.79488,1.49288-1.77134.45191-2.73291-.94587-.87376-1.9859-.5645-2.615.56533-.33818.60737-.86813.73161-1.29517.45451-.72839-.47272-.1719-1.07416.12674-1.53533a3.68616,3.68616,0,0,1,4.85865-.74369c1.365.99248,1.516,2.56289.24942,4.14671C1802.4345,1340.82834,1801.37833,1341.80323,1800.04934,1343.20569Z" transform="translate(-1738.6185 -1307.90974)"/><path class="cls-4" d="M1793.80664,1337.62271c.0538-.829.42913-1.14638,1.03109-1.13483a.90711.90711,0,0,1,.95367,1.00673.86528.86528,0,0,1-1.009.92682A.90907.90907,0,0,1,1793.80664,1337.62271Z" transform="translate(-1738.6185 -1307.90974)"/><path class="cls-4" d="M1795.82886,1342.3105c-.07357.56284-.34776.97261-.97667.97823a.91569.91569,0,0,1-1.029-.93151c-.03111-.64805.37824-.92713.97146-.97843C1795.449,1341.32219,1795.7299,1341.703,1795.82886,1342.3105Z" transform="translate(-1738.6185 -1307.90974)"/></svg>