<svg id="Layer_1" data-name="Layer 1" xmlns="http://www.w3.org/2000/svg" viewBox="0 0 65.26466 611.34584"><defs><style>.cls-1{fill:#393e46;}</style></defs><path class="cls-1" d="M365.24,656.44c.1-1.56-.62-2.15-1.98-2.64-2.23-.8-4.81-.97-6.42-3.09-.16-.99-.29-2-.5-2.99-.69-3.18-1.72-6.26-.26-9.6.72-1.64-.14-3.43-1.56-4.61a4.56176,4.56176,0,0,1-1.55-3.47c-.68994-7.86-1.48-15.71-2.23-23.56-.92-5.78-.97-11.63-1.71-17.42a13.31,13.31,0,0,1,.1-1.5l-.03-.33c-.2-2-.41-4-.61-6-.03-.27-.05-.54-.08-.81-.06-1.32-.09-2.66-.2-3.98q-1.11007-12.525-2.25-25.05a2.95028,2.95028,0,0,1,.56-2.6c2.51-2.8,2.22-6.11-.81-8.55a4.68059,4.68059,0,0,1-1.9-3.56,30.947,30.947,0,0,0-.47-3.97,2.66,2.66,0,0,1,1.07995-2.85c1.36005-1.11,2.54-2.36,2.46-4.31a4.13933,4.13933,0,0,1,.07-4.06c1.49-2.65.39-4.61-2.52-5.84-.64-.27-1.28-.56-1.94-.79-.9-.32-1.4-.64-.52-1.61,1.63-1.78,1.23-3.69-.16-5.3a5.69974,5.69974,0,0,1-1.34-4.08c-.03-6.28-.16-12.56-.24-18.83q-.22494-17.415-.42-34.83c-.74-2.6.4-5.09.38-7.67-.05-12.35-.42-24.69-.9-37.04-.5-12.81-.93-25.65-.63-38.49a8.43752,8.43752,0,0,1,.72-3.16c-.33-2.17-.63-4.3.47-6.4.29-.54.05-1.36.05-2.05a4.09067,4.09067,0,0,0-.84-3.32c.92-3.08-.47-6.03-.46-9.07.03-12.24-.15-24.49-.13-36.73q.09009-57.40494.26-114.83v-.47c-.4-4.49-.15-8.91-.38995-13.33a2.23778,2.23778,0,0,0-.94-1.57995c-1.35-1.05-1.17-2.19-.25-3.41,1.43-1.8,4.01-2.62,4.57-5.16,1.21-5.38,4.74-8.42,9.82-9.98.94-.28,2.28-.31,2.5-1.44.25-1.32-1.01-1.98-1.9-2.72a7.18184,7.18184,0,0,0-1.16-.79,2.872,2.872,0,0,1-1.53-3.13c1.43-14.32,5.76-27.82,11.59-40.89,1.05-.92,1.96-2,2.95-2.99,2.5-2.52,2.55-5.15.33-6.87-4.13-.94-6.38-3.79-7.72-7.57a6.237,6.237,0,0,0-.58-.99c-.2-.6-.41-1.2-.62-1.8a12.98788,12.98788,0,0,0-3.33-5.66.60352.60352,0,0,0-.39-.1,10.1683,10.1683,0,0,0-4.8-4.32c-3.07-1.63-6.51-2.72-8.21-6.18-.16-.32-.57995-.51-.88995-.74-2.9-2.15-3.22-3.71-1.26-6.64,1.15-1.71.67-3.13-.68-4.38a3.4404,3.4404,0,0,0-4.89,0c-1.39,1.31-1.97,2.74-.6,4.53,1.82,2.37,1.48,4.46-.95,6.2a8.67123,8.67123,0,0,0-2.72,2.87,5.40739,5.40739,0,0,1-2.98,2.47c-4.26,1.66-7.9,4.11-10.19,8.26a85.87068,85.87068,0,0,0-4.77,9.67c-1.12,1.11-1.5,3.09-3.59,3.02-1.24.78-2.71,1.22-3.69,2.39-.38.47-1.12,1.1-.64,1.58,1.42,1.44,1.31,3.9,3.34,4.87a1.14934,1.14934,0,0,0,.72,1.03,1.20869,1.20869,0,0,1,.01.19c.84,2.71,2.14,5.25995,3.05,7.93995,1.44,4.06005,3.45,7.91,4.69,12.05a98.45792,98.45792,0,0,1,4.6,20.78c.3,2.27-.12,3.93-2.32,5.03-1.07995.55-2.4,1.46-2.22,2.77s1.77,1.31,2.86,1.65c4.03,1.24,7.35,3.58,8.72,7.55a13.89654,13.89654,0,0,0,4.38995,6.65c1.22,1,2.36005,2.56.39,4.12a1.7372,1.7372,0,0,0-.86.99c-.32.13-.31.52-.31.87a50.39556,50.39556,0,0,1-.49,9.02,3.97167,3.97167,0,0,0,.54,3.14.06038.06038,0,0,0,.04.01c-.03.01-.06.02-.1.03-.55.92-.21,1.92-.24,2.88a1.11512,1.11512,0,0,0,.3.08c.42,15.67.28,31.35.37,47.02.01,1.51.06,3.03.11,4.54.03.82.06,1.65.08,2.48a1.9248,1.9248,0,0,1,.01.24c-.19,10.15-.15,20.3.03,30.45v3.76c-.03,8.36-.08,16.73-.08,25.09,0,7.65.05,15.31.08,22.97a14.05487,14.05487,0,0,0-.06006,4.39c-.11.16-.22.33-.32.51a4.51571,4.51571,0,0,0-.14,1.6,149.34893,149.34893,0,0,1-.82,16.65c-.62,2.47-.85,4.91.63,7.21.25.39.4.86-.11,1.23a2.95266,2.95266,0,0,0-.27,2.48,49.89376,49.89376,0,0,1,.47,9.77c-.11,10.26.04,20.51-.28,30.77.18,2.37-.62,4.86.13,7.1-.1,6.08-.18,12.16-.29,18.24v.02c-.01.66-.02,1.33-.04,1.99a42.18523,42.18523,0,0,1-.1,4.9c-.01.46-.02.91-.03,1.37,0,.34-.01.69-.02,1.03-.05,2.25-.06006,4.51-.06006,6.76-.01,1.75-.02,3.5-.04,5.25v.26c-.04,3.18-.14,6.36-.42,9.54.02,10.8-.06,21.6-.51,32.39-.38,2.89-.48,5.82-.74,8.72-.12,1.36-.4,2.84.22,4.16a31.75889,31.75889,0,0,0-2.29,3.87c-.63,1.66,1.28,3.3.21,4.62-.96,1.18-2.87,1.5-3.5,3.19a3.42939,3.42939,0,0,0,.05,4.59c.98.53,1.07,1.17.43,2.09-1.09,1.59-.99,3.35.52,4.43,2.61,1.85,2.48,4.26,1.95,6.87-.32,1.56-.1,3.21-1.66,4.45-3.58,2.87-3.78,5.98-.83,9.43-.12,4.38-.68,8.72-.97,13.09a7.96978,7.96978,0,0,0,.1,2.36q-.51,4.14-1.02,8.28a6.9332,6.9332,0,0,0-.5,5.58c-.01.59-.02,1.19-.02,1.78a24.69724,24.69724,0,0,1-.64,2.93,59.81552,59.81552,0,0,0-.94,10.52,42.2459,42.2459,0,0,1-.29,6.55,3.49657,3.49657,0,0,0-.01,1.48,65.33339,65.33339,0,0,1-.91,7.88c-.03,1.55-.06,3.11-.09,4.66-.52,5.06-1.06,10.11-1.54,15.16a5.53929,5.53929,0,0,1-1.7,3.97,4.04491,4.04491,0,0,0-1.38,4.48c1.49,3.58.09,6.87-.35,10.31-.4,3.06-2.09,4.33-4.86,4.7-.85.35-1.7.71-2.55,1.05-.58.22-1.26.35-1.23,1.16.08,2.69995-.54,5.41.18,8.07995,1.91,1.9,4.36,2.51,6.9,2.94.59.16,1.19.33,1.78.49a10.73161,10.73161,0,0,1,6.23,2.72c-.46-.15-.92-.3-1.39-.45.42005.28.82.58,1.22.89a2.01123,2.01123,0,0,0,1.49.38l.13.07c8.52.05,17.04.07,25.55.19a13.85962,13.85962,0,0,0,6.82-1.21,1.72547,1.72547,0,0,0,2.3-.85c1.04-.57,2.07-1.14,3.1-1.71h.19l.14-.13c2.36-.9,4.72-1.81,7.08-2.71a2.22048,2.22048,0,0,0,1.91-2.67A34.99626,34.99626,0,0,1,365.24,656.44ZM306.47,98.18c.01-.01.02-.03.03-.04a.0601.0601,0,0,0,.01.04ZM320.34,572a2.42025,2.42025,0,0,1,.13995-.2c.01.09.03.17.04.26A.635.635,0,0,0,320.34,572Zm23.81-450.85c.96-2.86,1.59-5.8,2.27-8.73a1.89225,1.89225,0,0,0,.21-.09c1.36-1.25,1.42-3.28,2.63-4.61a2.401,2.401,0,0,0,.85-.18,63.67233,63.67233,0,0,1,6.41-1.26.687.687,0,0,0,.08.03c-1.98,5.68-4.06,11.35-5.98,17.07-2.73,8.12-5.02,16.34-5.8,24.91-.08.94-.32,1.73-1.51,1.63-1.04-.09-2.1-.15-2.24-1.55a10.73609,10.73609,0,0,1,.03-1.88c.57-7.98,1.79-15.88,3.01-23.78A5.13621,5.13621,0,0,0,344.15,121.15ZM323.8,149.98c-1.59.15-1.69-1.06-1.95-2.12a3.65014,3.65014,0,0,1-.07-.46c-.64-9.17-3.63-17.76-6.36005-26.42a28.2953,28.2953,0,0,1-1.13995-2.8c-1.1-3.3-1.92-6.7-3.65-9.76-.14-.18-.28-.36-.4-.53.29-1.44,1.31-1.6,2.88-1.17a37.66363,37.66363,0,0,0,4.11.76,2.66722,2.66722,0,0,0,.4,0h.01c.02.01.05.02.07.03a7.27278,7.27278,0,0,0,.68.68,2.45087,2.45087,0,0,0,.18,1.25c1.22,3.57,2.21,7.2,3.13,10.85a2.2241,2.2241,0,0,0,.58,1.3c.01.17.01.33.01.5.73,5.27,2.22,10.42,2.56,15.75.22,3.28.78,6.53.71,9.83C325.52,148.89,325.23,149.85,323.8,149.98Zm9.6-.21c-1.47-.05-2.05-.92-2.27-2.22-.18-1.16-.34-2.32-.49-3.48-.31-2.32-.24-4.69-1.01-6.94-.28-1.02-.5-2.04-.68-3.08-.28-1.54-.47-3.11-.63-4.67a1.9185,1.9185,0,0,0-.03-.22c-.06-.51-.12-1.03-.16-1.55a1.22538,1.22538,0,0,1-.02-.19c-.06-.55-.11-1.1-.17-1.65-.25-.87995-.49-1.77-.74-2.66a.0098.0098,0,0,1,.01.01,3.53594,3.53594,0,0,0,.24-.34,4.37559,4.37559,0,0,0,.15-3.01,43.28163,43.28163,0,0,1-.82-5.54c-.26-1.3-.35-2.64-.71-3.9-.51-1.81.15-2.64,1.95-2.78a64.104,64.104,0,0,1,11.17.04,8.05993,8.05993,0,0,0,2.07.1c.07.83-.18,1.65-.15,2.48a1.97107,1.97107,0,0,1,.02.42c-1.43,2.25-1.43,4.81-1.19,7.42-.13,1.45-.26,2.91-.4,4.37a17.38072,17.38072,0,0,0-.66,1.66c-.89,2.49-.74,5.17-1.38,7.71-.25,2.1-.53,4.18-.73,6.29-.31,3.19-.64,6.38-1.13,9.55C335.43,148.87,334.92,149.81,333.4,149.77Z" transform="translate(-300.6632 -59.29001)"/></svg>