<svg id="Layer_1" data-name="Layer 1" xmlns="http://www.w3.org/2000/svg" viewBox="0 0 213.42877 152.96625"><defs><style>.cls-1{fill:#336ab0;}.cls-2{fill:#28a8f0;}.cls-3{fill:#fefefe;}.cls-4{fill:#336bb2;}.cls-5{fill:#326cb3;}.cls-6{fill:#326cb2;}.cls-7{fill:#336bb1;}</style></defs><g id="c0iaib.tif"><path class="cls-1" d="M251.62737,67.34684c2.59517,1.1661,3.399,3.18183,3.37851,5.9777-.09893,13.4747-.018,26.95066-.08125,40.42579-.00713,1.52086.45279,1.87426,1.89381,1.858,6.269-.07082,12.53917-.0315,18.80893-.03,4.03565.001,5.61062,1.54806,5.61408,5.52637q.00711,8.15617.00124,16.31237c.00007,2.27007.002,2.28246,2.19911,1.9961a37.994,37.994,0,0,0,10.5554-2.78913c.80547-.35616,1.00244-.72132.52493-1.55743-5.70207-9.984-4.82876-20.06944-.39574-30.194a44.64578,44.64578,0,0,1,4.09207-7.0101c.50246-.74365.88278-.90544,1.69641-.45037,8.835,4.94151,14.77936,12.12414,16.9768,22.10442.37117,1.68581.93037,1.80479,2.44976,1.6098,7.71752-.99038,15.30416-.758,22.45962,2.87078,1.43089.72566,2.47508,1.97693,3.94173,2.61415v.70975a29.073,29.073,0,0,1-8.44254,12.6382,30.64837,30.64837,0,0,1-20.13382,7.521c-3.2738.02414-4.78421.9003-6.04736,4.07884-5.1438,12.94368-11.948,24.96149-21.29815,35.42659a93.707,93.707,0,0,1-37.171,25.38983c-18.37,6.98445-37.44632,8.92627-56.92081,7.49875-10.22177-.74926-20.23939-2.58118-29.77251-6.58745-10.24189-4.30415-17.63149-11.67232-22.98337-21.20914-5.83345-10.395-8.8019-21.67043-10.01552-33.46458-.34443-3.34723-.59435-6.69693-.64265-10.05928a8.43086,8.43086,0,0,1,8.48425-8.77224,33.94236,33.94236,0,0,1,3.72675.01759c1.481.12973,2.0256-.25182,1.99045-1.90462-.12194-5.73411-.05278-11.4724-.04485-17.20908.00466-3.37076,1.74455-5.10186,5.1299-5.10552,6.3922-.0069,12.78492-.04429,19.17621.03212,1.348.01612,1.66733-.35614,1.65012-1.67006-.07513-5.73571-.04213-11.473-.02863-17.20965.00838-3.56317,1.74634-5.28165,5.35052-5.28344,15.09272-.00752,30.18551-.0242,45.278.03026,1.46055.00527,1.88913-.347,1.86311-1.84168-.0947-5.43934.08363-10.88512-.08712-16.32075-.08875-2.82515.76858-4.81907,3.38353-5.96989Z" transform="translate(-132.31401 -67.34684)"/><path class="cls-2" d="M188.0892,193.98287a1.86373,1.86373,0,0,0,.73605-2.84955c-.75053-1.152-1.859-1.04016-2.95078-.39335a51.24123,51.24123,0,0,1-20.48923,6.77159,57.24975,57.24975,0,0,1-13.69017-.3053c-.84869-.10664-1.30939-.79917-1.75171-1.39935a68.044,68.044,0,0,1-11.22041-25.544,93.4671,93.4671,0,0,1-2.524-21.85457c.02894-3.21991,1.55142-4.76221,4.78446-4.76233q68.88761-.00267,137.77514-.04253a38.222,38.222,0,0,0,18.67565-4.55358c.15524-.08569.31248-.16784.46679-.25517,2.575-1.45722,2.52846-1.58312.9236-3.95245a25.65038,25.65038,0,0,1-4.2711-11.4633c-.88931-7.25114,1.32782-13.70108,4.56152-19.97463.663-1.28617,1.3368-1.40453,2.44784-.5393,7.18286,5.59369,11.729,12.6411,12.20556,21.9468.04253.83053.21308,1.13931,1.16608.919a50.395,50.395,0,0,1,13.688-1.24118,30.18479,30.18479,0,0,1,10.92324,2.58065c1.39826.618,1.87513,1.35157.995,2.84742a26.36533,26.36533,0,0,1-19.39652,13.37009,29.43646,29.43646,0,0,1-9.075.35234c-1.49418-.22591-2.06585.54722-2.54081,1.7946a134.77343,134.77343,0,0,1-15.91115,30.67532,90.22411,90.22411,0,0,1-28.28358,25.98462,107.474,107.474,0,0,1-37.0288,12.81253c-3.9373.64893-7.93345.94133-11.90264,1.39705a76.62068,76.62068,0,0,1-10.82-5.157A54.33711,54.33711,0,0,1,188.0892,193.98287Z" transform="translate(-132.31401 -67.34684)"/><path class="cls-3" d="M188.0892,193.98287c1.71339,1.05036,2.42293,2.94161,3.613,4.41944a54.6168,54.6168,0,0,0,23.61191,17.045c.3632.13809,1.31557-.14328,1.08789.85735a205.01363,205.01363,0,0,1-21.40814-.28562c-9.97828-.89128-19.77966-2.65553-28.96144-6.84659a36.55452,36.55452,0,0,1-11.12231-7.72879A55.92773,55.92773,0,0,0,188.0892,193.98287Z" transform="translate(-132.31401 -67.34684)"/><path class="cls-2" d="M187.50677,95.38638c2.77679,0,5.55369-.014,8.33036.00473,1.98519.01337,2.83005.82441,2.83832,2.77105q.03046,7.17228-.00069,14.34475c-.0105,2.15092-.98424,3.07716-3.18984,3.08237q-8.15249.01923-16.30506.00037c-2.09429-.00514-2.83028-.76538-2.83635-2.92071q-.02021-7.1727.00017-14.34548c.0065-2.199.76-2.92391,3.00994-2.93416C182.07129,95.37692,184.78905,95.38637,187.50677,95.38638Z" transform="translate(-132.31401 -67.34684)"/><path class="cls-2" d="M213.86474,95.38636c2.78135,0,5.56286-.01919,8.344.00652,1.99636.01846,2.764.79547,2.77191,2.82q.02821,7.27307.00038,14.54631c-.00749,2.04559-.73938,2.80825-2.759,2.8172q-8.25344.03661-16.50711-.0007c-2.10427-.01018-3.05146-.95287-3.06277-3.0275-.02579-4.73038-.03366-9.46121.00342-14.19144.01725-2.19978.8466-2.961,3.04271-2.9683C208.4204,95.37938,211.14258,95.38631,213.86474,95.38636Z" transform="translate(-132.31401 -67.34684)"/><path class="cls-2" d="M213.90686,119.51427c2.71762,0,5.43528-.01124,8.15282.00357,2.1637.01178,2.912.71914,2.9206,2.82617q.02978,7.2609.00105,14.522c-.00688,2.04792-.67412,2.80708-2.754,2.82737-5.61192.05476-11.22492.0455-16.83706.00341a2.53568,2.53568,0,0,1-2.73258-2.8046c-.03813-4.84038-.04644-9.68159.00238-14.52178.02191-2.17213.76565-2.83933,2.91675-2.85212C208.35341,119.50178,211.13017,119.51426,213.90686,119.51427Z" transform="translate(-132.31401 -67.34684)"/><path class="cls-2" d="M187.58381,119.51411c2.721-.00022,5.44208-.01216,8.163.00357,2.16981.01255,2.9217.72636,2.92961,2.82789q.02668,7.09231.00033,14.1848c-.00837,2.27681-.93677,3.17425-3.26945,3.17981q-7.89678.01881-15.79364-.00039c-2.3725-.00624-3.2722-.93805-3.27352-3.32246q-.00382-6.91545.00235-13.8309c.00533-2.34521.70783-3.03226,3.07832-3.04005C182.14177,119.50746,184.8628,119.51432,187.58381,119.51411Z" transform="translate(-132.31401 -67.34684)"/><path class="cls-2" d="M161.6361,119.51427c2.72191,0,5.44388-.01076,8.16572.00342,2.11507.011,2.89827.626,2.92734,2.66027.071,4.96557.05842,9.93318.00562,14.89918a2.49978,2.49978,0,0,1-2.74082,2.62093c-5.62107.0383-11.24294.05019-16.86371-.00625-1.95571-.01963-2.70968-.92269-2.71463-2.93022q-.01774-7.18378.00057-14.36762c.00661-2.13335.74164-2.86207,2.87668-2.87542C156.07384,119.50117,158.855,119.51431,161.6361,119.51427Z" transform="translate(-132.31401 -67.34684)"/><path class="cls-2" d="M240.08572,95.3867c2.77855,0,5.55723-.0171,8.33559.00612,1.786.01491,2.48693.68894,2.49428,2.44564.02127,5.08011-.02843,10.16074.0268,15.24033a2.141,2.141,0,0,1-2.32915,2.47635q-8.68791.09129-17.37724.01007c-1.60551-.01423-2.39412-.89363-2.37047-2.62377.06782-4.96114.01623-9.92382.0277-14.88585.00445-1.92048.71466-2.64011,2.67957-2.66112C234.41014,95.36415,237.24805,95.38672,240.08572,95.3867Z" transform="translate(-132.31401 -67.34684)"/><path class="cls-2" d="M239.72,91.47384c-2.77877.00006-5.55768.01759-8.33624-.00625-1.77674-.01525-2.4801-.70008-2.48691-2.45338-.01975-5.08053.02784-10.16156-.02685-15.24158a2.14907,2.14907,0,0,1,2.33364-2.47977q8.6889-.09323,17.37927-.004a2.14515,2.14515,0,0,1,2.35921,2.4522c-.04943,5.021-.01194,10.04288-.023,15.06437-.00417,1.90734-.71891,2.63582-2.68561,2.65956C245.39611,91.49928,242.55792,91.47379,239.72,91.47384Z" transform="translate(-132.31401 -67.34684)"/><path class="cls-2" d="M239.861,119.51441c2.83882-.00033,5.67773-.01348,8.51642.00433,1.86888.01172,2.53694.6825,2.54259,2.57767q.0222,7.446.0015,14.89216c-.00338,1.91379-.53387,2.65281-2.46907,2.68288-5.79444.09005-11.5917.07912-17.38655.00452a2.0924,2.0924,0,0,1-2.19577-2.42617c.05332-5.08171.00933-10.16437.02551-15.24659.00566-1.77876.687-2.46732,2.449-2.48208C234.18318,119.49735,237.02214,119.51474,239.861,119.51441Z" transform="translate(-132.31401 -67.34684)"/><path class="cls-2" d="M266.2236,119.51478c2.83844-.00005,5.677-.01644,8.51529.006,1.75624.01388,2.44859.70853,2.45451,2.47923.01681,5.02246-.06,10.04633.04069,15.06683a2.22225,2.22225,0,0,1-2.41137,2.59256q-8.779.13218-17.56087.00574a2.03039,2.03039,0,0,1-2.10722-2.32292c.04443-5.1403.00415-10.28128.02408-15.4219.00669-1.7243.72339-2.38892,2.52958-2.4006C260.54661,119.50135,263.38515,119.51482,266.2236,119.51478Z" transform="translate(-132.31401 -67.34684)"/><path class="cls-3" d="M200.8737,185.98709a6.97169,6.97169,0,0,1-7.09134-6.93983,7.11972,7.11972,0,0,1,6.78378-7.141c3.7014-.11182,7.28724,3.08052,7.27508,6.656A7.0369,7.0369,0,0,1,200.8737,185.98709Z" transform="translate(-132.31401 -67.34684)"/><path class="cls-1" d="M192.64745,105.31851q-.0001-2.2979-.00036-4.59582c-.00032-.56687.057-1.06085.81382-1.09556.807-.037,1.0027.39549,1.00017,1.09389-.01151,3.1813-.00516,6.36265-.00633,9.544-.0002.56293-.05359,1.06489-.81193,1.09861-.80488.0358-1.007-.39648-1.00032-1.09581C192.65815,108.61818,192.64752,106.9683,192.64745,105.31851Z" transform="translate(-132.31401 -67.34684)"/><path class="cls-1" d="M188.4181,105.49121c-.0005,1.59065-.00883,3.18137.00339,4.77193.00527.687-.17318,1.14319-.99154,1.10038-.74662-.039-.82132-.52013-.821-1.09382.00195-3.18172.00685-6.36346-.00392-9.54515-.00234-.69311.17987-1.13788.99358-1.09771.74875.037.82168.51964.82081,1.09232Q188.41581,103.10518,188.4181,105.49121Z" transform="translate(-132.31401 -67.34684)"/><path class="cls-1" d="M180.57145,105.40884c-.00008-1.53195.00467-3.06392-.00236-4.59583-.00292-.63562.05046-1.18967.9033-1.18978.84647-.0001.91212.54166.91085,1.18424q-.00921,4.68363-.00035,9.36729c.00059.62959-.04578,1.19524-.90193,1.19311-.84252-.00209-.916-.54313-.91236-1.18645C180.57751,108.5906,180.57152,106.9997,180.57145,105.40884Z" transform="translate(-132.31401 -67.34684)"/><path class="cls-1" d="M220.75264,105.37464c-.00081,1.65009-.0061,3.30021.002,4.95026.00295.60467-.14958,1.03044-.87121,1.04282-.693.01188-.93633-.3399-.93569-.97826q.00485-4.86125-.00543-9.72251c-.00124-.60487.15766-1.02553.87541-1.043.84163-.02043.94312.49869.93891,1.154C220.74673,102.31013,220.75344,103.84241,220.75264,105.37464Z" transform="translate(-132.31401 -67.34684)"/><path class="cls-1" d="M212.90805,105.32217c-.00057-1.53207.01-3.06425-.00533-4.59616-.00695-.69487.18466-1.13519.99544-1.09916.75467.03353.81794.52218.81771,1.092-.00125,3.18236-.00659,6.36473.00405,9.54706.00231.692-.17681,1.13839-.992,1.09968-.75325-.03577-.81935-.52569-.81932-1.09375Q212.90872,107.797,212.90805,105.32217Z" transform="translate(-132.31401 -67.34684)"/><path class="cls-1" d="M208.67859,105.59813c0,1.53223-.00575,3.0645.00268,4.59669.00355.64455-.07252,1.18155-.91967,1.17414-.85941-.00752-.89391-.578-.89347-1.20294q.00334-4.68452-.00076-9.369c-.00133-.64791.07785-1.17965.922-1.17327.85945.0065.89331.5723.89111,1.20093C208.6749,102.41578,208.67862,104.007,208.67859,105.59813Z" transform="translate(-132.31401 -67.34684)"/><path class="cls-1" d="M214.71646,129.71992c-.00067,1.53211-.00671,3.06426.00218,4.59632.00373.6439-.0695,1.18619-.91578,1.17855-.84875-.00766-.8994-.56629-.89852-1.19921.00437-3.12277.0097-6.24559-.00407-9.36831-.00284-.64341.07745-1.26967.8347-1.30756.86454-.04326.99931.60113.98909,1.32718C214.70167,126.53762,214.71713,128.12888,214.71646,129.71992Z" transform="translate(-132.31401 -67.34684)"/><path class="cls-1" d="M220.75371,129.45191q-.00158,2.475-.00006,4.94994c.001.57356-.07165,1.05829-.82164,1.08972-.80938.03392-.99332-.41231-.99113-1.10452q.01512-4.77252-.00566-9.54511c-.004-.68239.19386-1.24362.91859-1.23585.71633.00768.923.56457.91,1.24961C220.7348,126.38727,220.75475,127.91978,220.75371,129.45191Z" transform="translate(-132.31401 -67.34684)"/><path class="cls-1" d="M208.6772,129.69c-.0002,1.59095-.00594,3.18194.00271,4.77284.00333.61244-.17179,1.02693-.88457,1.03081-.68732.00376-.92614-.35292-.925-.99109q.00837-4.86061-.008-9.72124c-.00338-.69473.23049-1.19911.97142-1.16119.62464.032.85839.49517.85061,1.12034C208.66382,126.3901,208.67739,128.04014,208.6772,129.69Z" transform="translate(-132.31401 -67.34684)"/><path class="cls-1" d="M188.421,129.4828c.00043,1.53206.0152,3.06434-.00687,4.59608-.00878.60878.18692,1.36974-.84934,1.40426-.99789.03323-.95633-.64348-.95655-1.30941-.001-3.12344-.00757-6.2469.00559-9.37029.0024-.56981-.08854-1.19617.84872-1.21824,1.03665-.0244.94817.659.95373,1.30139C188.42957,126.41856,188.42057,127.95072,188.421,129.4828Z" transform="translate(-132.31401 -67.34684)"/><path class="cls-1" d="M182.37891,129.63027c-.00154,1.59124-.0055,3.1825.00056,4.77372.0022.57672-.06255,1.04829-.82,1.08065-.82228.03515-.99265-.4162-.99094-1.10243.00809-3.2418-.00236-6.48366.0072-9.72544.00158-.53768.01949-1.04623.8193-1.07593.85437-.03171.98515.44079.98529,1.09883Q182.38085,127.155,182.37891,129.63027Z" transform="translate(-132.31401 -67.34684)"/><path class="cls-1" d="M192.64676,129.46655c-.0012-1.53179.017-3.06389-.00957-4.59521-.01174-.6755.1698-1.2439.89573-1.262.72964-.01822.936.53182.93221,1.21633-.01748,3.18091-.0122,6.362-.00663,9.543.00117.66725-.12791,1.15381-.96913,1.11713-.74561-.03251-.84324-.48927-.84233-1.07041Q192.651,131.941,192.64676,129.46655Z" transform="translate(-132.31401 -67.34684)"/><path class="cls-1" d="M154.50474,129.642c0-1.54883.0353-3.0988-.01478-4.646-.02532-.78242.26211-1.32591,1.01086-1.3743.891-.05759.9575.64167.95471,1.34478q-.01855,4.68708-.00241,9.37428c.00183.6537-.07574,1.14216-.92661,1.16217-.91038.0214-1.08037-.47434-1.07547-1.21353.01026-1.54933.00311-3.09879.00311-4.6482Z" transform="translate(-132.31401 -67.34684)"/><path class="cls-1" d="M166.57808,129.4853c0-1.49353.03518-2.98822-.01443-4.4801-.02586-.77769.25265-1.32824,1.00308-1.383.89112-.06509.9667.62871.96392,1.3347q-.01842,4.68676-.0031,9.37366c.00144.64491-.05567,1.17211-.91706,1.16582-.85041-.00622-1.06409-.33079-1.00815-1.19062.10415-1.6008.02989-3.21319.02989-4.82076Z" transform="translate(-132.31401 -67.34684)"/><path class="cls-1" d="M162.48706,129.65154c-.00109,1.591-.01715,3.18226.00614,4.77294.01058.72217-.22621,1.10456-1.01373,1.07233-.77227-.03161-.90706-.35908-.89678-1.11977.04268-3.1564-.01506-6.31443-.05933-9.47154-.01112-.79255.35432-1.28942,1.105-1.28926.75467.00016.87723.60393.86744,1.26235C162.47217,126.46926,162.48816,128.06052,162.48706,129.65154Z" transform="translate(-132.31401 -67.34684)"/><path class="cls-4" d="M234.92651,105.516c.00088,1.53674-.01374,3.07367.00721,4.61012.01011.74055-.11613,1.25546-1.04124,1.2594-.88682.00378-1.09876-.43183-1.09407-1.21037q.02825-4.69872-.00038-9.39766c-.00542-.811.27588-1.18965,1.13444-1.16869.79361.01936,1.00745.41457.9991,1.11975C234.91268,102.32415,234.92564,103.92014,234.92651,105.516Z" transform="translate(-132.31401 -67.34684)"/><path class="cls-4" d="M238.84429,105.389c.0001-1.537.02086-3.07434-.00835-4.61075-.01541-.81037.271-1.19109,1.13138-1.17045.79159.019,1.00514.407,1.00191,1.11575q-.02178,4.78812.00028,9.5764c.00365.7347-.27153,1.0667-1.03642,1.08318-.88623.01909-1.1092-.425-1.09662-1.206C238.86219,108.58141,238.84418,106.985,238.84429,105.389Z" transform="translate(-132.31401 -67.34684)"/><path class="cls-4" d="M247.002,105.49959c.00024,1.53665-.01225,3.07344.0057,4.60987.0085.72686-.08544,1.26883-1.02371,1.27575-.87488.00646-1.11531-.40184-1.11027-1.1936q.02992-4.69842.00007-9.3971c-.0051-.79687.24679-1.19467,1.11707-1.187.94328.00836,1.024.56077,1.01606,1.28216C246.99005,102.42617,247.00175,103.96294,247.002,105.49959Z" transform="translate(-132.31401 -67.34684)"/><path class="cls-4" d="M244.8801,81.28249c0-1.47672.016-2.95368-.0065-4.43-.012-.79066.07241-1.3935,1.11027-1.37129.9275.01986,1.02811.54286,1.02444,1.27565q-.02308,4.60722-.00093,9.2146c.00285.72055-.07434,1.26113-1.016,1.28257-1.04.02367-1.12822-.5722-1.11739-1.36421C244.895,84.35426,244.88014,82.81827,244.8801,81.28249Z" transform="translate(-132.31401 -67.34684)"/><path class="cls-4" d="M232.80444,81.2825c0-1.47686.016-2.954-.00652-4.43049-.01208-.791.07311-1.39343,1.11076-1.37122.92723.01984,1.02869.54237,1.025,1.27551q-.02311,4.60767-.00091,9.21553c.00286.72091-.07517,1.261-1.01652,1.28247-1.03962.02367-1.12883-.57158-1.11793-1.36407C232.81944,84.35458,232.8045,82.81844,232.80444,81.2825Z" transform="translate(-132.31401 -67.34684)"/><path class="cls-4" d="M240.96452,81.52891c.00041,1.47673-.00914,2.95355.00454,4.43015.00657.70994-.05074,1.28268-1.00308,1.293-.85966.00928-1.13536-.36467-1.13-1.17259q.03129-4.69581-.00055-9.39191c-.0053-.78664.222-1.20971,1.09815-1.20486.91892.00509,1.04866.51813,1.0377,1.26175C240.94779,78.33894,240.96411,79.934,240.96452,81.52891Z" transform="translate(-132.31401 -67.34684)"/><path class="cls-4" d="M247.00213,129.65387c0,1.53491-.01809,3.07011.00775,4.60459.01269.75361-.1396,1.23654-1.05092,1.24371-.89088.007-1.09163-.425-1.08649-1.2039q.031-4.69308.00169-9.3865c-.00345-.7351.14781-1.33921,1.02448-1.29116a1.05474,1.05474,0,0,1,1.12041,1.25207C246.96007,126.46444,247.00212,128.05993,247.00213,129.65387Z" transform="translate(-132.31401 -67.34684)"/><path class="cls-4" d="M240.965,129.45438c-.00011,1.59388-.01462,3.188.00635,4.78154.00966.73347-.096,1.25644-1.0273,1.26563-.87323.00863-1.115-.3844-1.10936-1.18179.022-3.12858.0171-6.25745.00138-9.3861-.00366-.72889.12873-1.34728,1.00389-1.31827.85957.02849,1.182.53041,1.14295,1.41234C240.91767,126.50066,240.96507,127.97857,240.965,129.45438Z" transform="translate(-132.31401 -67.34684)"/><path class="cls-5" d="M234.93074,129.453c.002,1.53518,0,3.07038.0029,4.60557.00139.72522.073,1.42677-1.02514,1.44635-1.04565.01865-1.11593-.56931-1.11168-1.35943q.0248-4.60543.00045-9.21108c-.00366-.72895.1288-1.3482,1.00361-1.31983.85795.02782,1.185.52685,1.14569,1.41079C234.88112,126.49858,234.92873,127.97684,234.93074,129.453Z" transform="translate(-132.31401 -67.34684)"/><path class="cls-5" d="M273.28411,129.58883c-.00021,1.59434-.02692,3.18932.01056,4.78278.0201.85513-.35139,1.14232-1.16673,1.12976-.81231-.01252-.97476-.45184-.9722-1.13771q.01788-4.783-.00268-9.566c-.00357-.69645.23331-1.21188.96375-1.18473.67771.0252,1.21764.292,1.1841,1.19351C273.24167,126.39855,273.28433,127.99448,273.28411,129.58883Z" transform="translate(-132.31401 -67.34684)"/><path class="cls-6" d="M265.12191,129.543c-.00031-1.47636.00806-2.95279-.00385-4.42907-.006-.74039-.02057-1.51625.99969-1.49786.85593.01542,1.16218.52441,1.14812,1.4075-.04887,3.07-.028,6.14142-.01219,9.21217.00376.73168-.08906,1.24569-1.023,1.2694-1.04383.02649-1.127-.56288-1.11517-1.356C265.13844,132.61409,265.12221,131.07843,265.12191,129.543Z" transform="translate(-132.31401 -67.34684)"/><path class="cls-7" d="M261.20691,129.576c0,1.59381-.026,3.18822.01051,4.78119.01929.84138-.32406,1.15557-1.152,1.14329-.80562-.012-.98625-.43092-.98345-1.12568q.01936-4.78137-.003-9.56284c-.00385-.693.22175-1.2212.95019-1.199.66826.02035,1.22759.27411,1.1942,1.18223C261.16479,126.38681,261.207,127.98217,261.20691,129.576Z" transform="translate(-132.31401 -67.34684)"/><path class="cls-1" d="M204.6167,178.14914c.319,2.38845-.7271,4.17267-2.81274,4.79737a4.07454,4.07454,0,0,1-3.51065-7.13709,5.93378,5.93378,0,0,1,2.45671-.86511c.42978-.12272.7499.16072.78488.69319C201.71091,178.31661,202.09933,178.62584,204.6167,178.14914Z" transform="translate(-132.31401 -67.34684)"/></g></svg>