<svg id="Layer_1" data-name="Layer 1" xmlns="http://www.w3.org/2000/svg" viewBox="0 0 104.70062 104.61509"><defs><style>.cls-1{fill:#282828;}.cls-2{fill:#f66526;}.cls-3{fill:#fe8775;}.cls-4{fill:#b277fe;}.cls-5{fill:#00d394;}.cls-6{fill:#09c7fd;}.cls-7{fill:#262828;}</style></defs><g id="D81qHs.tif"><path class="cls-1" d="M241.85263,91.58392c9.00748,0,18.01534-.04931,27.0223.01957,4.92668.03768,9.74474.76217,14.05824,3.38458a21.9293,21.9293,0,0,1,10.66,15.9918,44.95909,44.95909,0,0,1,.50438,7.16233c-.01406,17.59167.01727,35.18342-.02251,52.775-.01222,5.40018-.91672,10.61869-4.06984,15.18981-4.26811,6.18759-10.31523,9.21834-17.69861,9.85727-2.11255.1828-4.22494.21023-6.34165.2097-17.07752-.00426-34.15518.0325-51.23252-.02362-5.137-.01688-10.14841-.80753-14.59982-3.65211A21.97427,21.97427,0,0,1,189.8974,176.758a45.8935,45.8935,0,0,1-.50044-7.28291c.01459-17.55095-.0142-35.102.02155-52.65286.01039-5.09827.81155-10.045,3.61344-14.46074a21.97321,21.97321,0,0,1,15.85311-10.2744,51.24475,51.24475,0,0,1,8.14607-.5118C225.3049,91.59925,233.5788,91.584,241.85263,91.58392Z" transform="translate(-189.39693 -91.56682)"/><path class="cls-2" d="M229.5454,133.27937c-5.0099-.88865-8.39291-3.645-9.58312-8.67233a10.9252,10.9252,0,0,1,10.44877-13.37061c7.5699-.16722,15.14619-.04575,22.7197-.0438a3.12167,3.12167,0,0,1,.59131.1137c-.44353.57481-1.09377.46858-1.6861.47374-2.72559.02382-5.45142.00261-8.17714.01278-1.63288.0061-1.691.06066-1.69342,1.737q-.01227,8.41379-.00335,16.82762c-.00006.4471.00916.89448-.00978,1.3412-.06369,1.50317-.31464,1.7639-1.82582,1.77182-3.458.01812-6.916.0018-10.37429.00919A.4723.4723,0,0,1,229.5454,133.27937Z" transform="translate(-189.39693 -91.56682)"/><path class="cls-3" d="M229.79108,133.26071a6.53443,6.53443,0,0,1,2.29476-.12685c2.68533-.02279,5.371-.00845,8.05651-.009,1.603-.00032,1.60424-.001,1.60438-1.5501.00054-6.26063.03242-12.52158-.0278-18.78163-.01157-1.203.36141-1.48376,1.51105-1.46434,3.49684.05908,6.99578-.0055,10.493-.02221a11.00937,11.00937,0,0,1,1.19754,21.77457c-.31592.06557-.62972.14138-.94451.21242-1.05331.86307-2.28912.34905-3.44286.45939-2.93413-.05006-5.86857.12354-8.80263-.013-3.554.1-7.10822.04159-10.66218.02662C230.59821,133.76463,230.07664,133.77971,229.79108,133.26071Z" transform="translate(-189.39693 -91.56682)"/><path class="cls-4" d="M229.79108,133.26072q5.30324.04127,10.60646.08318c.44716.00362.89428.016,1.34141.0243a2.3754,2.3754,0,0,1,.41865,1.71929c.0531,2.42168-.06373,4.84253-.03637,7.26392-.05341,1.24287.31843,2.52255-.31574,3.71618l-.09553,9.2615a1.99471,1.99471,0,0,1-1.597.44638q-4.523.02-9.046-.003c-.55922-.00367-1.15913.05657-1.58287-.45368a11.72151,11.72151,0,0,1-7.29045-4.03282A11.01946,11.01946,0,0,1,228.115,133.5833c.47311-.11525.95289-.20312,1.43-.30382Z" transform="translate(-189.39693 -91.56682)"/><path class="cls-5" d="M229.48406,155.31884l12.22591.01025c.00512,3.98634.1399,7.97777-.017,11.95774-.20283,5.147-4.69276,9.54026-9.98395,10.03473a11.1169,11.1169,0,0,1-11.70228-8.33206C218.41152,162.523,222.57673,156.51478,229.48406,155.31884Z" transform="translate(-189.39693 -91.56682)"/><path class="cls-6" d="M241.80549,146.06759l-.01147-3.606c.38725-4.33991,3.06794-6.9009,6.754-8.67371a16.63479,16.63479,0,0,1,2.13783-.42159l3.29015-.07268a11.05034,11.05034,0,1,1-11.83286,13.93927Q241.97553,146.64987,241.80549,146.06759Z" transform="translate(-189.39693 -91.56682)"/><path class="cls-7" d="M250.68581,133.36627a13.28672,13.28672,0,0,0-5.41988,2.83423,12.45044,12.45044,0,0,0-3.472,6.26049q-.02744-4.54581-.055-9.09279Z" transform="translate(-189.39693 -91.56682)"/></g></svg>