<svg id="Layer_1" data-name="Layer 1" xmlns="http://www.w3.org/2000/svg" viewBox="0 0 200.72907 195.433"><defs><style>.cls-1{fill:#420400;}.cls-2{fill:#fa0;}.cls-3{fill:#430400;}</style></defs><g id="uyRIdq.tif"><path class="cls-1" d="M188.74307,219.51756V90.43345c.33962-.518.1595-1.11354.21476-1.666a34.0805,34.0805,0,0,1,7.59959-18.262,35.41048,35.41048,0,0,1,21.51466-12.84506c1.30335-.25242,2.64014-.151,3.94881-.35472H356.43716a5.45018,5.45018,0,0,0,1.68127.13375,28.65947,28.65947,0,0,1,9.81069,2.5112,35.34171,35.34171,0,0,1,18.18743,17.20551,34.73231,34.73231,0,0,1,3.10871,9.49721,10.73427,10.73427,0,0,1,.16322,1.86239,3.95338,3.95338,0,0,0,.07874,1.06479c.00408.44.00109.87932.00189,1.31959q.00006,64.15841.00014,128.3126a30.935,30.935,0,0,1-4.90853,16.58784,34.98611,34.98611,0,0,1-14.83787,13.57005,35.75116,35.75116,0,0,1-9.42058,3.09732,12.42861,12.42861,0,0,1-2.51587.17734c-45.11537.18494-90.22877.029-135.34.0806-.09653.00038-.19507-.00016-.29183-.00146-.93226-.119-1.87536-.10171-2.81071-.18568a1.2772,1.2772,0,0,1-.24744-.04078,2.656,2.656,0,0,0-.81572-.14022,1.66576,1.66576,0,0,1-.2316-.04239,1.91049,1.91049,0,0,0-.81091-.08076,29.198,29.198,0,0,1-6.60673-2.00787,34.49216,34.49216,0,0,1-9.27207-5.67354,35.32428,35.32428,0,0,1-10.52826-15.13282,28.85864,28.85864,0,0,1-1.92681-9.36829A.83032.83032,0,0,0,188.74307,219.51756Z" transform="translate(-188.74307 -57.30567)"/><path class="cls-2" d="M270.37274,107.3808q4.97415,0,9.94831.00008c.21745,0,.43507-.00411.65232.00289.80979.02609.9587.13435,1.23468.90972q1.216,3.41637,2.428,6.83416,3.97528,11.214,7.949,22.42863,3.94718,11.13662,7.89543,22.27283,5.28665,14.89776,10.57849,29.79367c.47254,1.33113.93748,2.665,1.40641,3.99738.02707.0769.06259.151.08718.2286.36649,1.1567.08814,1.55121-1.13838,1.55243q-8.43975.00846-16.87951.00025c-1.021-.00076-1.30836-.20843-1.65757-1.21842q-2.80893-8.12383-5.605-16.25214c-.31886-.92507-.654-1.84507-.94761-2.7781-.1268-.4029-.33416-.588-.75936-.53969a5.8106,5.8106,0,0,1-.65186.00385q-14.51477-.00027-29.02951-.00013c-.997.00005-.807-.07142-1.09779.82288q-3.00965,9.25674-6.00544,18.518c-.386,1.19158-.70823,1.44494-1.9254,1.4457-5.00134.00315-10.00288-.02421-15.0039.016-1.599.01284-1.65873-.75635-1.28341-1.83152q2.88746-8.27141,5.75916-16.54832,6.30519-18.12546,12.60991-36.25109,4.14623-11.92824,8.28538-23.85895a23.694,23.694,0,0,0,1.46391-7.97282c-.001-.19012.01039-.38047.02085-.57045.04265-.77387.26462-.98872,1.0651-1.00408.54342-.01044,1.08721-.00141,1.63083-.0014Q265.88785,107.38085,270.37274,107.3808Z" transform="translate(-188.74307 -57.30567)"/><path class="cls-2" d="M340.18239,162.08006q.00024,15.78339.01095,31.56675c.00385,1.82693-.48232,1.85843-1.883,1.85163-4.94638-.024-9.89294-.0092-14.83944-.00983a8.92833,8.92833,0,0,1-.8963-.01433,1.10556,1.10556,0,0,1-1.06489-1.039,5.8356,5.8356,0,0,1-.02522-.7326q-.00149-31.72992-.00083-63.45984c0-.10876-.00087-.21754.00112-.32627.0178-.97144.28373-1.24946,1.28143-1.25068q8.03127-.00987,16.06253-.00078c1.09732.00124,1.35223.28222,1.35243,1.44033Q340.18394,146.09274,340.18239,162.08006Z" transform="translate(-188.74307 -57.30567)"/><path class="cls-2" d="M330.94936,121.65968a10.11854,10.11854,0,0,1-7.15186-2.58248,9.21774,9.21774,0,0,1-2.712-4.37715,11.22108,11.22108,0,0,1,.01692-7.2108,9.90282,9.90282,0,0,1,8.08834-6.63659,11.52425,11.52425,0,0,1,4.69506.14439,9.05838,9.05838,0,0,1,6.66075,5.68574,11.41165,11.41165,0,0,1,.25575,8.13332A9.78154,9.78154,0,0,1,330.94936,121.65968Z" transform="translate(-188.74307 -57.30567)"/><path class="cls-3" d="M270.2839,122.81323a3.0401,3.0401,0,0,1,.4274,1.07367c2.66917,9.7168,5.82,19.28582,8.85646,28.88991.442,1.39793.89479,2.79245,1.33174,4.19193.20808.66645.19655.68054-.4994.68138q-4.60536.00555-9.21072.0004-5.17595-.00037-10.35188.0001c-.10866,0-.2176.0066-.32595.00117-.53309-.02672-.574-.06861-.40752-.57412.44935-1.36462.94217-2.71551,1.36556-4.088,1.07184-3.47446,2.10721-6.96016,3.17193-10.43684,1.12881-3.686,2.27738-7.36584,3.41208-11.05.80741-2.62155,1.45723-5.284,2.04694-7.96183C270.14469,123.34061,270.2005,123.14273,270.2839,122.81323Z" transform="translate(-188.74307 -57.30567)"/></g></svg>