<svg id="Layer_1" data-name="Layer 1" xmlns="http://www.w3.org/2000/svg" viewBox="0 0 563.77115 230.02139"><defs><style>.cls-1{fill:#e4e4e4;}.cls-2{fill:#575759;}.cls-3{fill:#5a5a5c;}.cls-4{fill:#dedede;}.cls-5{fill:#474748;}.cls-6{fill:#49494b;}.cls-7{fill:#515153;}.cls-8{fill:#cfcfcf;}.cls-9{fill:#e20;}.cls-10{fill:#bebebe;}.cls-11{fill:#29292a;}.cls-12{fill:#3c3c3d;}.cls-13{fill:#48484a;}.cls-14{fill:#363637;}.cls-15{fill:#242424;}.cls-16{fill:#424242;}.cls-17{fill:#4f4f50;}.cls-18{fill:#a9a9a9;}.cls-19{fill:#444445;}.cls-20{fill:#d1d1d1;}.cls-21{fill:#e6e6e6;}.cls-22{fill:#3a3a3b;}.cls-23{fill:#e3e3e3;}.cls-24{fill:#dd1f00;}.cls-25{fill:#cbcaca;}.cls-26{fill:#fefefe;}.cls-27{fill:#c5635f;}.cls-28{fill:#d1635f;}.cls-29{fill:#c31a01;}.cls-30{fill:#f19491;}.cls-31{fill:#aa1500;}.cls-32{fill:#e89390;}.cls-33{fill:#dc9492;}.cls-34{fill:#e39391;}</style></defs><path class="cls-1" d="M677.68973,217.70191c-1.45128,1.41112-2.8587,2.871-4.36289,4.22336a25.986,25.986,0,0,0-6.971,10.69794c-3.97035,10.76061-8.20282,21.42451-12.31154,32.13435-4.12213,10.74464-8.20569,21.50408-12.33505,32.24595-3.61825,9.41241-7.29018,18.8042-10.91328,28.21476-3.52887,9.16554-7.01383,18.348-10.54027,27.51447-3.2438,8.43209-6.52953,16.84807-9.774,25.27994q-4.50306,11.70264-8.96033,23.42287c-1.31451,3.433-2.61644,6.86243-4.94914,9.79536a25.10324,25.10324,0,0,1-15.93046,9.51222,5.758,5.758,0,0,0-2.16205.42836h-4.29366a59.74062,59.74062,0,0,1-6.35174-1.58446,17.93263,17.93263,0,0,1-5.84025-3.17589c.52518-.3098.939.05456,1.35805.2539a25.36394,25.36394,0,0,0,11.60568,2.606,27.09822,27.09822,0,0,0,4.78325-.6081,23.615,23.615,0,0,0,11.68214-6.00562c3.75717-3.37151,5.80249-7.74671,7.62706-12.34175a57.5064,57.5064,0,0,0,3.29235-15.14061q.92265-8.34353,1.991-16.67024a3.55886,3.55886,0,0,0-.07685-1.22953,10.239,10.239,0,0,1,.90034-2.85323q8.10067-21.05237,16.19412-42.10771c2.11477-5.51085,4.26618-11.00768,6.386-16.51663.17991-.46762.24264-1.05635.86492-1.22972.57246,1.1658-.14659,2.27031-.26924,3.37334-.40771,3.66953-.848,7.33771-1.27578,11.00661-.33268,2.85272-.731,5.69775-1.08152,8.54845a14.25308,14.25308,0,0,0-.00745,1.53763,8.39794,8.39794,0,0,0,2.09855-3.42151c3.09307-7.92785,6.11867-15.882,9.18-23.82225,2.62991-6.82138,5.28658-13.63248,7.91583-20.45413q3.94369-10.23209,7.85844-20.47535,3.73242-9.711,7.47759-19.41713c1.80543-4.68807,3.62349-9.37137,5.40531-14.0684a11.4599,11.4599,0,0,1,1.80073-2.96617,88.5768,88.5768,0,0,1,7.44058-7.66039,3.06687,3.06687,0,0,0,.85036-1.29428,3.38482,3.38482,0,0,0-.3606-2.27691,8.36424,8.36424,0,0,0-1.55666-2.44047,1.628,1.628,0,0,1,.23845-.16621c1.783,1.66585,3.55789,3.33772,3.60009,6.04217A2.158,2.158,0,0,1,677.68973,217.70191Z" transform="translate(-114.1462 -191.15009)"/><path class="cls-2" d="M349.71,336.48a58.62257,58.62257,0,0,0,21.26-6.4,32.41938,32.41938,0,0,0,13.42-12.68,16.32112,16.32112,0,0,0,2.3-9.28,5.51047,5.51047,0,0,0-1.5-3.89c-2.33-3.16-5.61-4.38-9.38-4.56a27.07725,27.07725,0,0,0-12.76,2.77,59.66947,59.66947,0,0,0-14.15,9.55c-.44-.05-.68.27-.94.53a95.94367,95.94367,0,0,0-9.29,9.96c2.01-2.88,4.04-6.22,6.27-9.44,4.6-6.61,9.35-13.1,14.32-19.44,1.16-1.47,2.34-2.94,3.51-4.41.22-.29.65-.68.37-1,0-.01-.01-.01-.01-.02a1.18826,1.18826,0,0,0-.46-.25c-5.5.17-11.01.19-16.51-.01-.22.3-.46.59-.66.9a249.90441,249.90441,0,0,0-17.39,32.16,4.44669,4.44669,0,0,1-.52.99c-4.28,5.39-8.57,10.79-13.81,15.29a147.54838,147.54838,0,0,1-23.99,17.16c-4.73,2.65-9.59,5.04-15.08,5.67-2.98.34-5.86.12-8.3-1.93-.34-.41-.62-.86-.96-1.26a10.38135,10.38135,0,0,1-2.26-7.48,25.62661,25.62661,0,0,1,2.98-10.67A55.66825,55.66825,0,0,1,281.09,320.44a30.43545,30.43545,0,0,1,11.05-6.17,12.21419,12.21419,0,0,1,7.11-.07,17.53415,17.53415,0,0,1,2.9,1.71,4.03248,4.03248,0,0,1,.55.7c1.18,2.4.54,4.6-.78,6.71a18.07528,18.07528,0,0,1-5.61,5.47,48.747,48.747,0,0,1-23.2,7.9c-.73.06-1.82-.03-1.94.74-.13.76.96.68,1.56.9a22.01654,22.01654,0,0,0,5.26.13,67.91422,67.91422,0,0,0,8.81-1.96,42.46564,42.46564,0,0,0,15.16-7.53c3.1-2.53,5.66-5.47,6.7-9.39.64-2.42.72-4.93-1.13995-7.03a12.50773,12.50773,0,0,0-6.56-4.34,33.39244,33.39244,0,0,0-14.2-.72,52.05119,52.05119,0,0,0-27.21,12.63c-7.29,6.35-12.47,14-14.05,23.74a20.58172,20.58172,0,0,0,1.04,11.74,16.52026,16.52026,0,0,0,5.63,6.6,7.78631,7.78631,0,0,0,2.26,1.47,26.34369,26.34369,0,0,0,10.19,2.23,43.27922,43.27922,0,0,0,12.69-1.77,69.29591,69.29591,0,0,0,19.64-9.73,175.96908,175.96908,0,0,0,19.56-15.96c1.99-1.8,3.97-3.61,6.05-5.4-.47,1.68-1.36,3.12-1.47,4.81-.81,2.83-1.71,5.63-2.42005,8.49a51.58685,51.58685,0,0,0-1.85,12.73,2.27823,2.27823,0,0,0,1.61.34,26.03762,26.03762,0,0,1,4.5.18.68292.68292,0,0,0,.21-.02c.54-.08.46-.62.52-1.01a79.36614,79.36614,0,0,1,2.6-11.17,39.1219,39.1219,0,0,1,1.84-4.98c.74.66.92,1.64,1.79,1.98a39.50237,39.50237,0,0,0,7.27,6.94,8.93164,8.93164,0,0,0,1.21,1,43.12339,43.12339,0,0,0,29.86,7.45,23.27108,23.27108,0,0,0,8.19-2.38,2.1778,2.1778,0,0,0,1.18-.99c.28-.2.56-.38.83-.58a8.26064,8.26064,0,0,0,3.58-6.13c.02-.34.07-.72-.39-.8-.46-.07995-.59.24-.62.61005a5.17851,5.17851,0,0,1-2.47,3.85,11.46178,11.46178,0,0,1-9.69,1.71c-11.02-2.59-19.91-8.74-27.65-16.75-.49-.74-1.06-1.43-1.62-2.36005a40.9997,40.9997,0,0,0,5.09.7A19.79,19.79,0,0,0,349.71,336.48Zm22.33-20.08c-1.12,4.8-4.31,8.12-8.23,10.76a46.45435,46.45435,0,0,1-17.83,6.96,16.00193,16.00193,0,0,1-6.17.12,4.871,4.871,0,0,1-1.99-.72c-.03-.66-1.12-1.1-.43-1.9.97-1.15,1.88-2.34,2.95-3.39,2.48-2.46,4.88995-4.98,7.48-7.34a58.185,58.185,0,0,1,10.8-8.21c3.89-2.13,7.91-3.64,12.44-2.18A6.69728,6.69728,0,0,1,372.04,316.4Z" transform="translate(-114.1462 -191.15009)"/><path class="cls-3" d="M524.72027,362.183c-3.49042-2.43229-4.90738-5.88353-5.038-10.02316-.13989-4.43111.99769-8.60467,2.38864-12.73965.14287-.42475.27815-.852.417-1.27816a12.75071,12.75071,0,0,1,1.34692-3.91985c.33338-.82079.756-1.60785,1.08674-2.426-7.40811,7.60919-15.21091,14.77777-24.12216,20.63706a48.67722,48.67722,0,0,1-14.34927,6.751,22.748,22.748,0,0,1-13.777-.24283,7.049,7.049,0,0,1-2.86369-1.73817c-4.246-3.3377-4.88615-7.9312-4.436-12.87194a47.34907,47.34907,0,0,1,2.60739-10.543c.1877-1.71058,1.08842-3.16454,1.71357-4.71622.25169-.62483.60545-1.20785.848-1.89565a77.54919,77.54919,0,0,1-6.90075,6.45033,3.03807,3.03807,0,0,1-1.567.81105,5.21548,5.21548,0,0,1-1.08133.25794c-.95924.02488-1.35344-.61736-.95557-1.48354a3.53455,3.53455,0,0,1,.97891-1.21968c8.5981-7.2339,15.764-15.757,22.37278-24.7855,3.3459-4.571,6.72755-9.11591,10.093-13.67262.80845.58072.38026,1.18594-.01512,1.728-.42681.58512-.51348.91734.3886.91726,3.53433-.00033,7.06864.00691,10.603-.00459a1.60155,1.60155,0,0,0,1.14293-.39564,1.21666,1.21666,0,0,1,1.23258-.36085c.65113.44389.09186.79481-.13837,1.08666-1.25815,1.59469-2.54527,3.16553-3.76415,4.79229a274.51861,274.51861,0,0,0-19.009,28.67124,64.95,64.95,0,0,0-6.80685,15.44631,15.63146,15.63146,0,0,0-.4835,2.54693,6.78646,6.78646,0,0,0,1.70918,5.74225,4.16547,4.16547,0,0,0,2.62657.83483c3.312.15914,6.37977-.89449,9.41618-2.01111,5.81054-2.13679,10.92286-5.52717,15.90406-9.105A144.62917,144.62917,0,0,0,523.51814,329.032a122.889,122.889,0,0,0,12.7253-15.08682c4.04015-5.51945,8.12446-11.00665,12.18945-16.50795a11.31069,11.31069,0,0,0,3.23967.30931q4.74309-.01885,9.48635-.00079a3.30957,3.30957,0,0,1,1.76115.25977c.51977.44688.15217.81422-.14032,1.14416a134.03227,134.03227,0,0,0-8.66558,11.12139c-7.04571,9.86545-13.85339,19.88253-19.18539,30.81062a41.51123,41.51123,0,0,0-3.687,10.15448,16.22664,16.22664,0,0,0-.10176,4.048,5.48755,5.48755,0,0,0,1.69053,3.10928c1.8753,1.20106,3.92768.86759,5.90179.51384a40.64993,40.64993,0,0,0,13.3184-5.311,117.28034,117.28034,0,0,0,14.92553-10.49091,6.16673,6.16673,0,0,0,.4723-.477,39.49323,39.49323,0,0,1,4.37525-3.87162c2.115-1.80319,4.20552-3.63283,6.14206-5.63177a33.20934,33.20934,0,0,0,3.3339-3.14266,6.0276,6.0276,0,0,1,1.29928-1.05145c1.17587-.61787,1.79622-.26168,1.8,1.04161a2.07573,2.07573,0,0,1-.07784.55175c-.639,1.63374-2.00741,2.70912-3.13859,3.94233-1.83048,1.99567-3.8172,3.84737-5.72232,5.77547-3.55422,3.47345-7.21211,6.83321-11.02285,10.02682a90.65177,90.65177,0,0,1-13.593,9.4375,37.03643,37.03643,0,0,1-14.73511,4.9978,17.91644,17.91644,0,0,1-10.70517-1.95442A1.83055,1.83055,0,0,1,524.72027,362.183Z" transform="translate(-114.1462 -191.15009)"/><path class="cls-4" d="M625.70777,191.28445c2.05155-.37973,4.06851.15875,6.10306.2297a1.35173,1.35173,0,0,1,.85163,1.6345c-.19084,1.26249-.28347,2.53847-.40651,3.80876-.17743.497-.60627.59731-1.05934.70122-2.06153.47281-2.47885,1.65226-1.12263,3.28766A18.28632,18.28632,0,0,0,634.3246,204.41c1.22238.79884,2.4932,1.51894,3.76153,2.24232.25224.14387.55508.26573.54018.64285-.80638.63809-.54216,1.62268-.65185,2.41688-.48451,3.5087-.78492,7.04227-1.20119,10.561-.41163,3.47976-.90812,6.9495-1.32,10.42924-.41643,3.51874-.74928,7.04735-1.16555,10.56611-.41163,3.47976-.90735,6.94958-1.31926,10.42932-.41643,3.51874-.75,7.04728-1.16638,10.566-.41163,3.47975-.89642,6.95082-1.32107,10.42911q-.60322,4.94176-1.12953,9.89253c-.04623.44281-.33356,1.10368.46432,1.30269-.08711.78848-.79386,1.05349-1.30083,1.43785a34.23024,34.23024,0,0,1-11.86989,5.681c-.39713.10791-.79784.20268-1.19364.31937a3.01217,3.01217,0,0,1-1.81585.13707c-.61108-.48182-.474-1.15788-.39894-1.77282q1.42821-11.69838,2.78251-23.40545c.59988-5.1312,1.26282-10.25574,1.75-15.40631-1.47319,3.05559-2.75366,6.18134-3.9703,9.3354q-4.48676,11.63205-8.96369,23.26789a8.52236,8.52236,0,0,1-1.34375,2.46606c-.19023.2267-.41991.4886-.75513.37483-.33864-.11491-.35266-.46966-.36573-.76162a19.46064,19.46064,0,0,1,.28159-3.14019c1.25978-10.71439,2.55526-21.42456,3.78956-32.142.38713-3.3609.81068-6.71777,1.21454-10.07686a1.91606,1.91606,0,0,0-.25787-1.50324c1.49509-3.95586,2.97429-7.91783,4.48913-11.86613q3.15809-8.23124,6.36015-16.44558a15.37,15.37,0,0,0,1.15424-6.58255c-.07167-1.16-.00866-2.32827-.00662-3.4928.69345.07766.72346.69409.87634,1.155a29.879,29.879,0,0,0,2.248,5.03052c.16828.30478.32844.79655.78013.65579.362-.11282.24909-.58.28683-.90454.53274-4.58293,1.09295-9.16264,1.60963-13.74743A1.86286,1.86286,0,0,1,625.70777,191.28445Z" transform="translate(-114.1462 -191.15009)"/><path class="cls-3" d="M385.45347,332.39761c-.69414.57366-1.37106,1.17017-2.08937,1.71181-.38868.29308-.87.56465-1.33691.16766-.44374-.37729-.3102-.89233-.14761-1.362a3.92847,3.92847,0,0,1,1.27713-1.69089c5.60183-4.69649,10.62022-10,15.78737-15.14795a111.80468,111.80468,0,0,1,9.7298-8.90775c3.92569-3.08223,8.28387-4.9834,13.385-4.79327a11.29958,11.29958,0,0,1,8.798,4.32733,5.5543,5.5543,0,0,1,1.509,2.59137,13.89927,13.89927,0,0,1-.0763,8.0993,33.29982,33.29982,0,0,1-4.24243,8.68129c-2.98417,4.66124-6.48341,8.94971-9.71676,13.43055a55.66968,55.66968,0,0,0-4.5494,7.25378,7.35959,7.35959,0,0,0-.8684,2.78087c-.06935.90394.13716,1.5803,1.22564,1.59555a.93039.93039,0,0,1,.51144.21984,13.81554,13.81554,0,0,0,5.1941-2.34484,45.28355,45.28355,0,0,0,7.77031-6.33211,300.49351,300.49351,0,0,0,27.78526-32.6202,78.29788,78.29788,0,0,0,8.34768-14.113,27.68524,27.68524,0,0,1,4.73017-7.11249,8.0435,8.0435,0,0,1,8.64063-2.32221,5.95125,5.95125,0,0,1,3.42145,2.594c1.447,1.17525.75229,3.82429-.83968,4.56364a5.36942,5.36942,0,0,1-3.39309.62383c-3.91179-.85346-6.50043,1.10763-8.67426,3.958a29.67894,29.67894,0,0,0-3.62457,6.74321c-2.38569,5.7426-4.19622,11.68454-6.0766,17.60139a244.82107,244.82107,0,0,1-10.16325,27.635c-.45282.99281-.86669,2.00323-1.38238,2.96657-.23445.438-.48341.86212-1.04756.93769a97.61516,97.61516,0,0,0-11.71553.04374,1.28582,1.28582,0,0,1-1.15145-.31169q6.477-10.35674,12.355-21.06429c.21564-.39294.40416-.80071.60526-1.20158a3.20859,3.20859,0,0,1,.501-1.36428c2.61223-4.74013,5.02457-9.587,7.65627-14.31664a2.42331,2.42331,0,0,1,.25227-.35592A173.9046,173.9046,0,0,1,440.57449,333.015c-3.36664,3.89715-6.77014,7.765-10.48692,11.33006-4.5883,4.401-9.31215,8.65005-14.91489,11.78424a19.41275,19.41275,0,0,1-8.57611,2.91187c-2.30374.10032-4.67679.04492-6.65019-1.515-4.42673-2.94477-4.69208-7.27572-3.94878-11.922a29.29721,29.29721,0,0,1,4.795-11.44144,183.89691,183.89691,0,0,1,15.54157-19.75514c.76551-.87826,1.52511-1.76813,2.20752-2.7104a4.34076,4.34076,0,0,0,1.09929-2.99447c-1.02042-1.64228-1.67715-1.87777-3.61212-1.2462-2.74042.89448-4.92923,2.71105-7.14627,4.43114-4.45,3.45254-8.63911,7.21068-12.76083,11.05167-3.20959,2.991-6.35246,6.05963-9.7202,8.87971A2.25529,2.25529,0,0,1,385.45347,332.39761Z" transform="translate(-114.1462 -191.15009)"/><path class="cls-5" d="M363.14968,288.17258c-5.18106.45765-10.37329.0987-15.559.21328a1.56518,1.56518,0,0,1-1.43308-.47566c2.5626-4.1634,5.43159-8.11455,8.37479-12.012A201.4,201.4,0,0,1,382.23762,246.121c5.9857-5.27272,12.52182-9.72079,20.22024-12.20541a28.75965,28.75965,0,0,1,7.94385-1.519c4.57845-.14358,8.63363,1.0291,11.63771,4.75283a9.24092,9.24092,0,0,1,2.15149,5.90735c.282,4.5245-1.204,8.59755-3.34338,12.46273a55.20308,55.20308,0,0,1-10.71,13.45027,146.11165,146.11165,0,0,1-16.01575,12.81569,174.92462,174.92462,0,0,1-17.58254,11.01321c-2.54935,1.37552-5.17278,2.60738-7.75637,3.91658a3.16593,3.16593,0,0,1-1.40745.22641c-.74178-.04776-1.704.08119-1.89114-.83461-.21095-1.03219.73094-1.48737,1.5043-1.85149a124.60148,124.60148,0,0,0,15.42054-8.63255c8.87539-5.83814,17.37525-12.17033,24.8254-19.78688a61.02958,61.02958,0,0,0,10.2176-12.99041,14.30583,14.30583,0,0,0,1.58838-3.95356,3.681,3.681,0,0,0-.04891-2.311c-1.242-1.77223-2.9595-1.94679-4.912-1.54522a29.64706,29.64706,0,0,0-8.9147,3.71965,93.43992,93.43992,0,0,0-16.0038,12.067c-2.74428,2.51423-5.51239,5.00987-8.0903,7.68865-3.82914,3.97895-7.58665,8.02889-11.19769,12.21218-1.96526,2.27671-3.89659,4.58065-5.82632,6.88666C363.81129,287.89154,363.61392,288.24883,363.14968,288.17258Z" transform="translate(-114.1462 -191.15009)"/><path class="cls-5" d="M507.01705,295.60453c-.47872.00955-.9935-.088-1.23189.51815-.17622.448-.58576.39228-.95968.39229q-5.68194.00014-11.36389-.003c-.32563-.00042-.75254.11286-.90266-.26823-.13556-.34409.1649-.61993.39693-.86621.49373-.524,1.04845-1.02982.52661-1.84325,1.71133-2.47855,3.43527-4.94851,5.1316-7.43726,4.709-6.90883,9.38357-13.84249,13.55033-21.09637a13.50387,13.50387,0,0,0,2.10015-6.41817c-.86461-1.94212-1.29161-2.11559-3.33359-1.31831a6.73776,6.73776,0,0,1-1.38532.40285c-1.13322.479-2.26352.965-3.40126,1.4329a6.52576,6.52576,0,0,1-1.17079.3841c-.27379.05545-.6422.15424-.8204-.16189a.803.803,0,0,1,.15144-.83992,6.08454,6.08454,0,0,1,1.95939-1.66895,62.08589,62.08589,0,0,1,14.0066-6.6307,42.77885,42.77885,0,0,1,11.40058-2.5285,14.5207,14.5207,0,0,1,4.79685.54425,5.65569,5.65569,0,0,1,3.37188,2.47288,4.52992,4.52992,0,0,1,.548,4.09151,21.67847,21.67847,0,0,1-4.08381,8.2193c-2.24178,2.9658-4.59674,5.83338-7.09551,8.60013-3.32115,3.67733-6.67689,7.32387-10.00207,10.9976-2.09066,2.30977-4.2192,4.58737-6.35957,6.85205-1.39095,1.47178-2.57573,3.13179-4.1074,4.4726-.7087.11341-1.16828.448-1.10238,1.2489A.706.706,0,0,1,507.01705,295.60453Z" transform="translate(-114.1462 -191.15009)"/><path class="cls-6" d="M563.08941,298.31423a2.44377,2.44377,0,0,0-1.42179-.21732q-5.85213-.00267-11.70422.00447c-.62241.00172-1.21528.00776-1.53051-.66412,3.99278-5.81714,8.07585-11.57409,11.86888-17.52516,2.15772-3.38538,4.292-6.78944,6.30722-10.26026a13.46648,13.46648,0,0,0,2.14092-6.55668c-.96983-2-1.29937-2.1263-3.4343-1.21424a5.07588,5.07588,0,0,1-1.2885.31462c-.78675.32987-1.57275.66155-2.36048.989-.62325.25907-1.23741.54743-1.8774.75607-.37566.12248-.86319.26023-1.12781-.171-.23592-.38437.10479-.69985.32755-.997a5.86673,5.86673,0,0,1,1.64943-1.35118,62.72067,62.72067,0,0,1,23.35514-9.05795,16.28456,16.28456,0,0,1,6.16794.13671,5.97933,5.97933,0,0,1,4.31611,2.93407c.93487,1.30174.66807,2.75433.34962,4.12a22.45148,22.45148,0,0,1-4.2173,8.16808c-2.53391,3.41932-5.36834,6.58652-8.16255,9.79176-4.1528,4.76361-8.52568,9.32456-12.76,14.01259-1.88943,2.09186-3.7273,4.23627-5.72458,6.23041C563.722,297.99765,563.58505,298.4534,563.08941,298.31423Z" transform="translate(-114.1462 -191.15009)"/><path class="cls-7" d="M205.34894,368.31324a278.29515,278.29515,0,0,0,16.791-23.94071c2.56327-4.05125,5.052-8.14852,7.30124-12.38568a2.53335,2.53335,0,0,1,.49292-1.34865c1.03291-2.10627,2.13945-4.17571,2.98285-5.90446a19.70087,19.70087,0,0,1-2.34143,2.59805,82.90433,82.90433,0,0,1-6.23648,5.49327,1.28953,1.28953,0,0,1-.893.42094c-.82285.29043-1.27525-.11932-1.58692-.82377a1.50422,1.50422,0,0,1,.55483-1.96547,60.17574,60.17574,0,0,0,11.546-12.29224,21.443,21.443,0,0,0,3.588-7.7024,3.93039,3.93039,0,0,0-1.82072-4.14952c-.45106-.24015-1.14194-.34319-.89694-1.04977a1.60351,1.60351,0,0,1,1.55064-1.10469,7.09908,7.09908,0,0,1,6.24335,2.96472c.11392.14925.23054.29643.3459.44456,1.814,1.8698,2.05453,4.27958,2.25578,6.68453.61743,7.37868-1.318,14.31576-3.83728,21.11522a127.115,127.115,0,0,1-12.59783,24.413c-1.5863,2.47066-3.261,4.8771-4.96385,7.26547-.3772.529-.67811,1.22087-1.52163,1.1829-4.73444.01822-9.46714.03111-14.199-.01617C207.18,368.20314,206.27854,368.66688,205.34894,368.31324Z" transform="translate(-114.1462 -191.15009)"/><path class="cls-8" d="M607.39839,238.69909c.713-.23955.73714.20954.68214.70045q-.26169,2.33619-.54444,4.67c-.26471,2.18494-.54939,4.36753-.80517,6.55351-.26024,2.22438-.48556,4.45285-.74514,6.67731-.26808,2.29679-.55916,4.59089-.83993,6.88619-.35784,2.9248-.72561,5.84844-1.06983,8.77483-.26167,2.22428-.48446,4.45312-.7415,6.678-.184,1.59307-.38179,3.18488-.60286,4.77316a8.23988,8.23988,0,0,0-.01958,1.92112,9.35163,9.35163,0,0,0,2.1866-3.89184q4.12958-10.64056,8.21226-21.29926c1.30806-3.43554,2.66053-6.84983,4.21382-10.18233a1.75408,1.75408,0,0,1,.86774-1.08341,11.87387,11.87387,0,0,1-.23454,3.03585c-.27767,3.00721-.69422,6.0017-1.06337,9.00032-.35094,2.85046-.72186,5.6985-1.0621,8.55021-.26538,2.22374-.48452,4.453-.74719,6.67705-.32816,2.7787-.6817,5.5544-1.0205,8.33185-.18979,1.55553-.39056,3.11015-.54438,4.66932-.03829.38758-.15387.83464.20016,1.1758-.12689.74247-.79656.5666-1.24047.6696a57.968,57.968,0,0,0-9.40639,2.65825,22.05143,22.05143,0,0,0-3.51943,1.83216,36.8701,36.8701,0,0,0-10.10784,8.99223c-1.5811,2.04377-2.05877,4.55854-3.08264,6.83882-.19884.44274-.326.91891-.54526,1.35525-.171.34052-.341.703-.843.49968-.52137-.37375-.44567-.90454-.38769-1.43477.64584-5.90473,1.36654-11.80069,2.06369-17.69942a7.06266,7.06266,0,0,0,.00811-2.56026q2.90841-7.55856,5.81561-15.11756c2.86985-7.48566,5.71752-14.97983,8.6016-22.46C603.16128,249.4851,605.28963,244.09587,607.39839,238.69909Z" transform="translate(-114.1462 -191.15009)"/><path class="cls-9" d="M615.52717,291.05544a44.18554,44.18554,0,0,0,8.65909-3.31611,30.21381,30.21381,0,0,0,5.62957-3.85124,117.25657,117.25657,0,0,0,10.20764-9.16384q-1.34174,3.49194-2.68353,6.98382-4.23418,11.0027-8.46776,22.00568c-.107.27822-.18074.56918-.26995.8542-1.7166,4.39218-3.44948,8.77811-5.14694,13.17768q-8.90192,23.07282-17.78653,46.15233c-.07911.20525-.19514.39628-.29389.594-.50769-.43889-.3984-1.02948-.34675-1.57772.34184-3.62908.96185-7.22144,1.47-10.82834q1.69007-11.99567,3.43552-23.98355a12.1395,12.1395,0,0,1,.18968-1.78773c.15519-.42748.57323-.57195.89559-.82052a2.61612,2.61612,0,0,0,.61207-3.86387,2.16607,2.16607,0,0,1-.59778-1.186c.78741-5.77916,1.66077-11.545,2.4527-17.32229.48021-3.50363.98906-7.00307,1.47848-10.5053A2.61945,2.61945,0,0,1,615.52717,291.05544Z" transform="translate(-114.1462 -191.15009)"/><path class="cls-10" d="M564.46015,349.97576c3.70064-3.19629,7.26891-6.538,10.84942-9.86619.30951.41775.03793.79694-.102,1.16614-3.493,9.21352-7.05926,18.399-10.582,27.60116-2.48748,6.49771-5.05179,12.96613-7.46468,19.49222a18.094,18.094,0,0,0,6.35963,20.42152,11.15674,11.15674,0,0,0,1.18466.86271,1.84743,1.84743,0,0,1,.629.59162,25.48978,25.48978,0,0,0,5.84521,7.38521,6.43445,6.43445,0,0,1,.5825.53212c.29875.35546.23489.6136-.2216.73721a2.58428,2.58428,0,0,1-1.12075.02044,24.62838,24.62838,0,0,1-13.40374-6.65628c-.93706-.91485-1.76816-1.92921-2.73391-2.81408a24.16061,24.16061,0,0,1-4.98208-13.81949c-.27293-4.8662,1.20784-9.295,2.94027-13.722,3.38747-8.65614,6.67908-17.34974,10.00839-26.02856.08-.20864.137-.42614.20471-.63949A13.50452,13.50452,0,0,1,564.46015,349.97576Z" transform="translate(-114.1462 -191.15009)"/><path class="cls-11" d="M123.32725,398.18733a28.825,28.825,0,0,0,13.64724,8.94823c8.17644,2.675,16.06768,1.49994,23.79207-1.86232A89.23656,89.23656,0,0,0,179.705,393.64047c.41314-.32009.843-.61869,1.265-.92729a4.33356,4.33356,0,0,1,1.22817-.14051c4.96517.01461,9.9304-.00609,14.89552.01463.69522.00289,1.47022-.10988,1.87286.706.13351.75468-.45884,1.05717-.92246,1.41086a98.38,98.38,0,0,1-11.20669,7.37251,85.10412,85.10412,0,0,1-20.43511,8.58449,56.39193,56.39193,0,0,1-28.76223-.05727,32.18568,32.18568,0,0,1-9.98922-4.59863,4.91692,4.91692,0,0,1-1.10094-.95043c-7.04646-5.30015-10.81395-12.50638-12.26588-21.06112-.1192-.70233-.41872-1.58226.56045-1.76056.84137-.15322,1.16975.62276,1.32435,1.37205a3.84857,3.84857,0,0,0,.18951.52876,6.63444,6.63444,0,0,1,.78523,2.31927A36.98782,36.98782,0,0,0,123.32725,398.18733Z" transform="translate(-114.1462 -191.15009)"/><path class="cls-1" d="M445.63831,353.88513a117.49141,117.49141,0,0,0,5.60692-12.75781c3.62432-9.22914,6.32259-18.77055,9.49775-28.15117,1.6-4.72688,3.19407-9.46518,5.84968-13.74825a14.89852,14.89852,0,0,1,3.0397-3.60735,7.13543,7.13543,0,0,1,5.86389-1.73241,9.80043,9.80043,0,0,0,1.68446.10986c2.56009-.07035,4.90736-1.59617,3.35864-4.89367,2.008,1.18235,2.86968,3.04736,2.1985,4.76334-.56317,1.43968-1.82665,1.78385-3.16058,1.953a6.74515,6.74515,0,0,1-1.91643-.00065c-3.58051-.589-6.036,1.21-8.06887,3.8097a36.61274,36.61274,0,0,0-5.07568,10.12208c-3.131,8.44638-5.54,17.13323-8.50533,25.63478a194.50847,194.50847,0,0,1-7.23288,18.06519,131.53491,131.53491,0,0,1-9.892,17.66637,119.32178,119.32178,0,0,1-9.69452,12.65876,109.74164,109.74164,0,0,1-8.36066,8.68368,93.08232,93.08232,0,0,1-19.28943,13.70853,74.4935,74.4935,0,0,1-17.36623,6.72638,66.15577,66.15577,0,0,1-9.50776,1.54692,50.56182,50.56182,0,0,1-7.31815.1443c-8.11226-.45537-15.90113-2.0965-22.67862-6.94057a7.55353,7.55353,0,0,1-2.52777-2.13882c.55745-.16722.93126.21413,1.32268.47657a39.42514,39.42514,0,0,0,17.86324,6.08634,48.78758,48.78758,0,0,0,7.30389.4321,63.11073,63.11073,0,0,0,20.27961-3.85279,90.62884,90.62884,0,0,0,17.18718-8.65435,8.84009,8.84009,0,0,1,.77915-.45165,63.86912,63.86912,0,0,0,7.12522-5.13728,94.83187,94.83187,0,0,0,9.73785-9.04845,80.74507,80.74507,0,0,0,5.91962-6.79052,99.28653,99.28653,0,0,0,9.132-12.83575c2.16945-3.64715,4.31346-7.30922,6.14808-11.14126A1.40166,1.40166,0,0,1,445.63831,353.88513Z" transform="translate(-114.1462 -191.15009)"/><path class="cls-12" d="M198.83893,393.642c-.09352-.84517-.74076-.69516-1.28261-.69573q-7.58423-.00783-15.16846-.00288a2.48156,2.48156,0,0,1-1.41787-.23018,175.84,175.84,0,0,0,14.04385-12.843c3.44858-3.55381,6.76058-7.22913,9.84247-11.10806a4.05332,4.05332,0,0,1,.49263-.4489,7.61,7.61,0,0,1,3.53346-.4359q6.21426-.00378,12.42848.00674c.42873.00134.91681-.17437,1.26681.25814a3.77313,3.77313,0,0,1-1.09973,1.91011c-4.73615,6.058-9.29214,12.26859-14.96205,17.53574-2.14663,1.99411-4.38176,3.87754-6.66547,5.70771C199.56062,393.52805,199.264,393.78415,198.83893,393.642Z" transform="translate(-114.1462 -191.15009)"/><path class="cls-1" d="M198.83893,393.642a77.25226,77.25226,0,0,0,13.5772-12.64333c3.33316-3.95131,6.60491-7.95842,9.58438-12.19127a8.37708,8.37708,0,0,1,.57718-.66516,104.44286,104.44286,0,0,0,6.84482-9.908c5.51111-8.76893,10.31351-17.88591,13.33569-27.84449A43.52178,43.52178,0,0,0,244.957,314.417a15.1696,15.1696,0,0,0-1.98673-6.84962c1.90553,1.10687,2.70663,3.01861,3.22432,4.95057a24.9923,24.9923,0,0,1,.603,8.5632c-.71552,8.83605-3.835,16.89623-7.57227,24.79049A151.62435,151.62435,0,0,1,223.30905,371.685q-5.009,6.69912-10.59182,12.95494a92.86523,92.86523,0,0,1-11.9703,10.87186,98.95086,98.95086,0,0,1-19.23548,11.82672,69.35635,69.35635,0,0,1-19.78124,6.17858,46.54319,46.54319,0,0,1-7.7113.61828,52.49144,52.49144,0,0,1-17.83586-3.10558,35.07966,35.07966,0,0,1-8.88651-5.0238,1.54768,1.54768,0,0,1-.74664-.95115,36.738,36.738,0,0,0,12.66728,5.66218,55.07221,55.07221,0,0,0,28.30085-.68028,93.33891,93.33891,0,0,0,27.371-13.41516A39.0379,39.0379,0,0,0,198.83893,393.642Z" transform="translate(-114.1462 -191.15009)"/><path class="cls-13" d="M445.63831,353.88513a128.27463,128.27463,0,0,1-15.03547,24.0346c-.23254.28825-.49949.54879-.75044.82224a4.43728,4.43728,0,0,0-2.96962-.57828q-4.33656-.004-8.67314.00105a6.12768,6.12768,0,0,0-3.19067.44329.5308.5308,0,0,1-.62291-.126c2.75509-3.3299,5.51151-6.65851,8.098-10.12328,3.51132-4.70353,6.72431-9.61179,9.97683-14.493a89.24121,89.24121,0,0,1,8.938-.21458A19.18745,19.18745,0,0,1,445.63831,353.88513Z" transform="translate(-114.1462 -191.15009)"/><path class="cls-14" d="M414.39606,378.482c4.72041-1.45023,9.56263-.29374,14.33258-.67391.71593-.05705.90112.4411,1.12376.93389a100.58537,100.58537,0,0,1-13.41629,13.98271,92.26828,92.26828,0,0,1-8.31458,6.393c-.3033.20459-.54873.51608-.95005.5559-3.5908.388-7.1931.096-10.78917.17848-1.01217.02323-2.02744.04515-3.038-.02067a2.928,2.928,0,0,1-2.00493-.57623,114.9902,114.9902,0,0,0,11.83461-9.35986,133.3577,133.3577,0,0,0,10.6654-10.86674C414.00964,378.833,414.20983,378.66357,414.39606,378.482Z" transform="translate(-114.1462 -191.15009)"/><path class="cls-15" d="M391.3394,399.25513c4.87312.49562,9.76042.1164,14.63944.24183.40049.01032.83309-.133,1.19264.17659a85.26116,85.26116,0,0,1-12.45195,6.94777c-12.76676,5.85643-25.99788,7.90151-39.82479,4.629a36.76044,36.76044,0,0,1-12.75175-5.743,28.09017,28.09017,0,0,1-7.31244-8.03747c.83471-.6037,1.77348-.28459,2.67338-.30416a1.918,1.918,0,0,1,1.31689.9482c.45386.63882.98219,1.21728,1.47706,1.82285a29.09861,29.09861,0,0,0,13.16423,7.87554c7.38088,2.21438,14.69619,1.5714,21.94228-.72891a64.54161,64.54161,0,0,0,15.25284-7.45565C390.87483,399.48825,391.11157,399.37865,391.3394,399.25513Z" transform="translate(-114.1462 -191.15009)"/><path class="cls-1" d="M508.60314,293.79751c2.58191-2.83188,5.10694-5.71265,7.74835-8.49415,2.63962-2.77963,5.259-5.58875,7.80537-8.45268,4.16762-4.6874,8.52158-9.225,12.17-14.3564a25.47354,25.47354,0,0,0,3.51863-6.75845,7.26751,7.26751,0,0,0-.00554-5.06462c2.82987,2.16168,2.94273,4.01689,1.78512,7.58409a26.93352,26.93352,0,0,1-4.66333,8.04043c-3.233,4.1786-6.78685,8.08723-10.27285,12.05072-1.9817,2.25312-4.08817,4.39633-6.12289,6.60336q-5.22172,5.66384-10.34982,11.41283c-6.7877,7.659-12.40873,16.15717-18.02887,24.65436a144.41333,144.41333,0,0,0-9.90138,17.14311,47.77267,47.77267,0,0,0-3.77656,10.2049,15.165,15.165,0,0,0-.16759,5.33914c-1.49514-.77243-1.85963-2.17688-1.99574-3.671a16.36714,16.36714,0,0,1,1.08528-6.7362,91.28366,91.28366,0,0,1,9.1572-18.41973,256.72215,256.72215,0,0,1,20.28927-28.98146,1.33572,1.33572,0,0,0,.13928-.29121l.49042-.52628A2.12634,2.12634,0,0,1,508.60314,293.79751Z" transform="translate(-114.1462 -191.15009)"/><path class="cls-1" d="M563.08941,298.31423c8.282-9.20046,16.92881-18.07388,24.84358-27.60294a36.39184,36.39184,0,0,0,5.82891-8.81671,9.12861,9.12861,0,0,0,.71569-6.46025c1.935.67969,2.62726,3.48661,2.1983,5.38919-.87309,3.8724-2.9867,7.0801-5.39306,10.13355-2.62058,3.3253-5.43233,6.48548-8.26091,9.63439-3.3083,3.683-6.68059,7.30563-10.0399,10.94136-3.3057,3.57773-6.58817,7.18193-9.75049,10.88566-3.55055,4.15845-6.70748,8.6271-9.85012,13.0992-4.31178,6.13585-8.47551,12.3718-12.20832,18.87765-3.32482,5.79482-6.55933,11.64418-8.1799,18.21328a13.99992,13.99992,0,0,0-.16262,5.78489,3.94162,3.94162,0,0,1-2.04788-3.51805,17.12,17.12,0,0,1,1.216-7.50756,98.91093,98.91093,0,0,1,9.328-18.48314A292.92707,292.92707,0,0,1,559.05,303.15894C560.32963,301.49278,561.73956,299.92655,563.08941,298.31423Z" transform="translate(-114.1462 -191.15009)"/><path class="cls-16" d="M638.62631,207.29514a50.72482,50.72482,0,0,1-6.96273-4.47624,7.40447,7.40447,0,0,1-2.35786-2.59187,1.85614,1.85614,0,0,1,1.65862-2.8369c.36319-.0431.75943.07461,1.07165-.21856a2.03517,2.03517,0,0,1,1.70529-.32928,39.94109,39.94109,0,0,1,7.27958,1.24008,6.3186,6.3186,0,0,1,1.18619.60445,67.69013,67.69013,0,0,1,13.845,5.59993,31.127,31.127,0,0,1,5.69474,3.822,11.4485,11.4485,0,0,1,1.12113,1.108c.70217.82872,1.60273,1.69658,1.0748,2.87633-.50184,1.12125-1.7064,1.23282-2.80083,1.32437a26.82707,26.82707,0,0,1-9.12711-1.14109A75.48871,75.48871,0,0,1,638.62631,207.29514Z" transform="translate(-114.1462 -191.15009)"/><path class="cls-1" d="M363.14968,288.17258c3.42837-3.99187,6.76163-8.0659,10.32027-11.94526,8.58229-9.35572,17.42557-18.4337,28.05127-25.53818,3.62371-2.42286,7.37437-4.65639,11.67553-5.73535a8.42745,8.42745,0,0,1,3.23373-.33581c1.20273.16939,2.283.56038,2.56108,1.96321-2.70433-.56954-5.12487.4826-7.46965,1.50806a67.74146,67.74146,0,0,0-15.70155,10.1796c-3.3086,2.72009-6.36691,5.70223-9.5274,8.57956-3.76012,3.42322-7.15421,7.18734-10.56041,10.92664q-8.127,8.92173-15.48952,18.51027c-3.63166,4.71822-7.20839,9.47386-10.657,14.32606-.29445.41429-.72523.78488-.68239,1.3761a132.57509,132.57509,0,0,0-12.00493,12.78742c1.31257-2.03851,2.6083-4.08808,3.94059-6.11363,6.70263-10.19032,13.92793-19.99912,21.5874-29.4904C362.68436,288.85155,362.90943,288.506,363.14968,288.17258Z" transform="translate(-114.1462 -191.15009)"/><path class="cls-10" d="M586.65964,292.46877c.84914.79992.41367,1.8177.33351,2.6935-.27442,2.9979-.692,5.98275-1.05736,8.97228q-.5414,4.42844-1.0898,8.856c-.05809.4669-.09318.91012.436,1.14711.3691.4936.04226.9369-.12414,1.37278-2.1146,5.54034-4.28587,11.059-6.36931,16.61117-.1771.472-.5361.809-.73952,1.25a96.00551,96.00551,0,0,1-10.60045,9.25679c1.34849-3.5752,2.68474-7.15509,4.04784-10.72472q5.41425-14.17865,10.84991-28.349C583.76706,299.85283,585.22094,296.1637,586.65964,292.46877Z" transform="translate(-114.1462 -191.15009)"/><path class="cls-1" d="M367.37539,296.94167a123.32657,123.32657,0,0,0,16.89838-8.97231,165.43039,165.43039,0,0,0,25.02487-18.65731c5.20219-4.80324,9.73662-10.1618,12.65077-16.70592a18.72369,18.72369,0,0,0,1.74427-11.29484,14.79433,14.79433,0,0,0-1.65426-4.16186,9.16257,9.16257,0,0,1,3.66007,6.22107c.77783,4-.28653,7.73939-1.90587,11.33834a49.16542,49.16542,0,0,1-8.80162,12.7079c-4.282,4.72493-9.264,8.61221-14.28194,12.4775a173.51134,173.51134,0,0,1-16.64853,11.302,129.4584,129.4584,0,0,1-13.649,7.195,3.55624,3.55624,0,0,1-2.17764.27394C367.02262,298.44873,367.71847,297.476,367.37539,296.94167Z" transform="translate(-114.1462 -191.15009)"/><path class="cls-17" d="M245.84977,296.93032a5.5224,5.5224,0,0,1-2.4591-6.75148,13.29819,13.29819,0,0,1,9.85449-9.71126,5.554,5.554,0,0,1,6.53611,2.52527c1.17418,1.35678,1.03239,3.004.674,4.50409a13.16727,13.16727,0,0,1-9.543,10.02028C249.29436,298.00687,247.40618,298.22159,245.84977,296.93032Z" transform="translate(-114.1462 -191.15009)"/><path class="cls-1" d="M252.17348,362.20251c6.5548,3.75045,13.55607,3.99866,20.76461,2.65379,7.69722-1.436,14.58527-4.7888,21.13622-8.92484,8.0462-5.08011,15.183-11.30552,22.20088-17.67873,2.22248-2.01829,4.4697-4.00939,6.9008-5.93633q-1.04091,2.76824-2.08181,5.5365a8.26607,8.26607,0,0,0-2.69277,2.15327,194.12654,194.12654,0,0,1-18.58029,15.25141,75.77517,75.77517,0,0,1-18.6688,9.8383A44.21927,44.21927,0,0,1,270.96,367.237a31.69833,31.69833,0,0,1-9.94022-.49741,19.90265,19.90265,0,0,1-7.679-3.34925A3.529,3.529,0,0,1,252.17348,362.20251Z" transform="translate(-114.1462 -191.15009)"/><path class="cls-1" d="M399.94638,357.52618c4.92559,2.21794,9.601,1.30689,14.15747-1.12541a61.474,61.474,0,0,0,12.667-9.36809,183.87487,183.87487,0,0,0,26.53734-31.10037q.41544-.60393.84525-1.19794a.67439.67439,0,0,1,.17639-.124c.18893.24883-.02533.42815-.12113.60892q-4.24755,8.01735-8.50941,16.02715a2.706,2.706,0,0,1-.26813.35335c-.50082-.35427-.63947.17-.818.394-2.52379,3.16557-5.27874,6.12493-8.0087,9.1098-1.54731,1.69177-3.104,3.37291-4.76965,4.943a87.43864,87.43864,0,0,1-11.70256,9.79457,27.87984,27.87984,0,0,1-9.29265,4.4351c-3.64934.78654-7.14861.50529-10.23536-1.89119C400.30279,358.151,399.98453,357.95177,399.94638,357.52618Z" transform="translate(-114.1462 -191.15009)"/><path class="cls-1" d="M469.80938,357.20318c6.50583,3.84848,13.19894,3.11441,19.87167.6389,8.04509-2.98466,14.841-8.01933,21.36525-13.44694a185.243,185.243,0,0,0,13.66572-12.7973c.24386-.24859.43235-.591.90925-.69043-1.06207,2.45207-2.0978,4.84329-3.13351,7.23456-.46473-.42055-.58548.14973-.75676.31886a135.10106,135.10106,0,0,1-14.7326,12.64954,63.38086,63.38086,0,0,1-16.14148,9.02233,26.093,26.093,0,0,1-11.151,1.61558,15.2267,15.2267,0,0,1-8.80135-3.28924A3.09252,3.09252,0,0,1,469.80938,357.20318Z" transform="translate(-114.1462 -191.15009)"/><path class="cls-1" d="M266.40744,358.14576a8.65563,8.65563,0,0,1-3.39119-6.46273,20.88433,20.88433,0,0,1,2.2275-11.56919c5.24422-11.01455,12.99705-19.68914,24.06419-25.13273a13.83441,13.83441,0,0,1,9.20339-1.3053,5.47837,5.47837,0,0,1,3.639,2.2358c-1.19414-.092-2.29679-.62119-3.51169-.66565-4.00433-.14655-7.46639,1.43343-10.81022,3.3543a44.26132,44.26132,0,0,0-8.24826,6.37524,54.59315,54.59315,0,0,0-12.19153,16.54126,25.163,25.163,0,0,0-2.55842,10.49544A13.50609,13.50609,0,0,0,266.40744,358.14576Z" transform="translate(-114.1462 -191.15009)"/><path class="cls-1" d="M341.18521,338.31974a13.32985,13.32985,0,0,1-2.28653-2.61641c.53466-.28439.93714.03552,1.34476.12151,4.96275,1.047,9.87658.53268,14.76719-.46651a52.852,52.852,0,0,0,17.93406-6.76431c5.71349-3.61222,10.38692-8.20626,12.66737-14.77788,1.12045-3.22877,1.35553-6.46548-.42261-9.58949a7.22337,7.22337,0,0,1,3.21795,6.10467c.184,4.07148-1.38017,7.63051-3.6167,10.9058a34.26881,34.26881,0,0,1-13.5011,11.25911,57.88234,57.88234,0,0,1-15.03907,4.87465,44.14814,44.14814,0,0,1-8.57783.91046,28.57226,28.57226,0,0,1-6.76642-.90789Z" transform="translate(-114.1462 -191.15009)"/><path class="cls-1" d="M414.64969,351.35513c-1.7096.21574-2.27486-.28628-2.04976-1.95416a12.84477,12.84477,0,0,1,1.92672-4.64762c2.83336-4.89081,6.49345-9.19656,9.77979-13.76724,2.76108-3.84016,5.55109-7.67468,7.20885-12.16355,1.22633-3.32067,1.65994-6.69843.33125-10.10905-.27017-.69354-.65673-1.34179-.98966-2.01093a9.18879,9.18879,0,0,1,3.66164,7.02613c.3243,4.799-1.61947,8.914-4.01311,12.879-3.04745,5.04783-6.8261,9.57308-10.25862,14.34578a46.97731,46.97731,0,0,0-4.80934,7.72849A6.31042,6.31042,0,0,0,414.64969,351.35513Z" transform="translate(-114.1462 -191.15009)"/><path class="cls-1" d="M385.45347,332.3976c5.03825-4.63724,10.058-9.29471,15.121-13.90482a114.80687,114.80687,0,0,1,11.312-9.16047,13.69808,13.69808,0,0,1,4.72079-2.34437c1.9278-.44669,2.89641.12773,3.03365,1.71477-2.57479.1593-4.56661,1.59595-6.5426,3.02978A135.97184,135.97184,0,0,0,400.42124,322.315q-4.57551,4.25477-9.162,8.499c-1.83834,1.70908-3.75654,3.333-5.65658,4.97472-.42863.37036-.939.70984-1.52127.27693-.66123-.49165-.32612-1.04683-.06919-1.6076a7.32141,7.32141,0,0,1,1.06012-1.30434C385.23466,332.94019,385.788,332.87165,385.45347,332.3976Z" transform="translate(-114.1462 -191.15009)"/><path class="cls-1" d="M272.72681,338.3284c10.6169-.17552,20.34712-3.06393,28.89574-9.50066a20.5293,20.5293,0,0,0,5.31242-5.92363c2.00424-3.35616,2.53682-6.78019.58264-10.35164a6.77276,6.77276,0,0,1,3.15045,5.6447c.25484,3.59693-1.3517,6.54378-3.62309,9.15655-3.96455,4.56041-9.0458,7.41267-14.64769,9.48387a57.69573,57.69573,0,0,1-12.48067,3.172,14.13536,14.13536,0,0,1-5.58074.09545c-.48483-.13-1.08224-.224-1.19013-.70935-.12841-.57758.65323-.43744.92757-.7794C273.64817,338.39531,273.1054,338.7204,272.72681,338.3284Z" transform="translate(-114.1462 -191.15009)"/><path class="cls-1" d="M564.46015,349.97575q-1.00368,2.63214-2.00722,5.26428c-.74647.05753-1.14541.67907-1.69743,1.05025a80.66619,80.66619,0,0,1-11.16326,6.70733,34.58587,34.58587,0,0,1-11.69774,3.34122,18.17373,18.17373,0,0,1-11.59266-2.54977c-.60837-.38711-1.43986-.69839-1.58157-1.60607a19.58727,19.58727,0,0,0,11.4397,2.22592,34.07494,34.07494,0,0,0,12.00394-3.64387,80.36089,80.36089,0,0,0,15.81716-10.53679A2.55871,2.55871,0,0,1,564.46015,349.97575Z" transform="translate(-114.1462 -191.15009)"/><path class="cls-18" d="M554.2818,409.44956c.40154-.27319.53249.14308.67486.32191a24.72406,24.72406,0,0,0,13.74978,8.54963,18.37029,18.37029,0,0,0,1.9772.35834,6.19084,6.19084,0,0,0,.92073.008c-.818-.88616-1.644-1.80582-2.497-2.69984a19.196,19.196,0,0,1-3.96572-5.64433c1.14828-.08511,2.03318.66134,3.04723.99415a17.9283,17.9283,0,0,0,4.73265.94588,16.03411,16.03411,0,0,0,6.39494-.58988c.4929-.12346.99115-.3932,1.49421-.01887.30107,1.50994-.18554,2.96528-.33693,4.44064-.09689.94413.09,1.98252-.65031,2.78646a22.74279,22.74279,0,0,1-11.42977-.06133,37.11012,37.11012,0,0,1-6.39957-2.42913,32.24206,32.24206,0,0,1-6.9317-5.87837A5.14941,5.14941,0,0,1,554.2818,409.44956Z" transform="translate(-114.1462 -191.15009)"/><path class="cls-19" d="M316.816,359.07234c1.72587-.00107,3.45174.00057,5.1776-.005.45811-.00148.91826-.03,1.14787.49146.40418,1.18253-.01285,2.36378-.00191,3.54592a13.444,13.444,0,0,0-.03447,4.22477,35.97148,35.97148,0,0,0,.834,4.85162,15.44123,15.44123,0,0,0,1.59745,3.32225,1.08783,1.08783,0,0,1,.02871,1.2645.74843.74843,0,0,1-1.08949.16508c-2.82632-2.26354-5.3699-4.75232-6.6-8.28533A25.59387,25.59387,0,0,1,316.816,359.07234Z" transform="translate(-114.1462 -191.15009)"/><path class="cls-1" d="M337.15667,351.33154a51.39385,51.39385,0,0,0,9.46058,5.18414,41.47336,41.47336,0,0,0,24.966,2.33988,20.67236,20.67236,0,0,0,6.02033-2.44731c1.35777.15973,2.286-.73855,3.23544-1.43475a4.87375,4.87375,0,0,0,2.16926-3.53907c.03293-.376.15947-.71584.58636-.65938.40931.05412.30865.45538.31094.73816a6.96764,6.96764,0,0,1-2.67062,5.47159c-3.31431,2.82726-7.32778,3.887-11.57862,4.3719a46.18832,46.18832,0,0,1-8.43319.139,38.616,38.616,0,0,1-12.171-2.92048,45.638,45.638,0,0,1-10.66906-5.98033A3.20677,3.20677,0,0,1,337.15667,351.33154Z" transform="translate(-114.1462 -191.15009)"/><path class="cls-1" d="M322.8529,363.13665a25.69793,25.69793,0,0,1,.28853-3.57793c.57786-2.86419,1.01427-5.75636,1.78327-8.58271a75.94156,75.94156,0,0,1,3.12143-9.39276c.67227,1.02358,1.25934,1.9174,1.8464,2.81123-.42715.19473-.52759.60952-.66684.99558a78.43868,78.43868,0,0,0-3.7919,14.18246,42.93885,42.93885,0,0,0-.70112,8.48089,21.06821,21.06821,0,0,0,1.33694,7.46266,7.73293,7.73293,0,0,0,1.03295,1.7299c.2959.38382.55748.93163.13918,1.33132-.367.35069-.818.07617-1.22106-.1861a5.99929,5.99929,0,0,1-1.54491-1.45826c1.10693-.13164,1.39385-.51042.81256-1.30742-1.79311-2.45851-2.19429-5.30107-2.43678-8.20364A27.46462,27.46462,0,0,1,322.8529,363.13665Z" transform="translate(-114.1462 -191.15009)"/><path class="cls-20" d="M625.70777,191.28445c-.4529,3.88254-.88991,7.76705-1.36742,11.64657-.16386,1.331-.41262,2.64975-.46724,3.99581-.01385.34149-.0405.84165-.44452.94275-.341.08534-.59342-.31367-.76655-.57458a25.30865,25.30865,0,0,1-2.56216-5.35651,3.81541,3.81541,0,0,0-.7047-1.62647c-.15718-1.63-.37539-3.25693-.45588-4.89068-.09451-1.91873.61709-2.87459,2.47978-3.48961A11.22812,11.22812,0,0,1,625.70777,191.28445Z" transform="translate(-114.1462 -191.15009)"/><path class="cls-1" d="M245.84977,296.93032c3.04391,1.19882,5.83662.47957,8.4292-1.22819a12.86491,12.86491,0,0,0,5.99089-8.7366,7.41706,7.41706,0,0,0-.48858-3.97269c1.73252.76869,2.83348,3.12384,2.53894,5.43123a13.5992,13.5992,0,0,1-9.48306,10.69012C249.72727,299.86839,247.43876,299.15313,245.84977,296.93032Z" transform="translate(-114.1462 -191.15009)"/><path class="cls-21" d="M642.20705,198.68682a40.61681,40.61681,0,0,0-10.17106-1.51526,16.56027,16.56027,0,0,1,.37654-4.31263c.142-.69361-.41875-.89516-.6017-1.34487,2.81286.39306,5.57777,1.03166,8.33352,1.69592,2.00079.48228,2.32421,1.13707,2.10694,3.17373A5.79723,5.79723,0,0,0,642.20705,198.68682Z" transform="translate(-114.1462 -191.15009)"/><path class="cls-22" d="M337.89685,397.4153l-3.0663.05455a31.379,31.379,0,0,1-4.46753-11.03911c-.15433-.65532-.29552-1.31625-.39216-1.98192-.09728-.67-.21991-1.48827.66893-1.65157.85048-.15627,1.08507.61387,1.28952,1.27369.07671.2476.14819.49685.22205.74535a1.58348,1.58348,0,0,1,.42363.90357,31.97313,31.97313,0,0,0,4.96191,10.68662C337.75118,396.70742,338.045,396.98364,337.89685,397.4153Z" transform="translate(-114.1462 -191.15009)"/><path class="cls-1" d="M223.4461,333.246c3.52153-2.99618,7.13712-5.89326,10.09563-9.51984a67.911,67.911,0,0,1-4.10063,8.26071c-1.005.1586-1.45705,1.10876-2.24975,1.57623-.31779.1874-.56913.48358-.8699.70413C224.41463,335.66548,224.05758,335.53666,223.4461,333.246Z" transform="translate(-114.1462 -191.15009)"/><path class="cls-1" d="M462.07468,334.4377c3.31892-2.32235,6.06386-5.2864,9.06637-8.01038q-1.58013,3.68041-3.16025,7.36087c-.07183-.5-.26234-.27526-.49132-.09854a27.94945,27.94945,0,0,1-3.46375,2.65721c-.60823.33443-1.18251.58752-1.76142.14449-.6494-.49693-.44446-1.10391-.03272-1.68386C462.32825,334.67137,462.20635,334.529,462.07468,334.4377Z" transform="translate(-114.1462 -191.15009)"/><path class="cls-1" d="M509.54564,257.667a6.888,6.888,0,0,1,2.33758-1.0616c1.63274-.394,2.39535.26082,2.38133,1.97706-1.45.05391-2.52947,1.06126-3.83581,1.49693-1.02561.34207-1.99894.83937-2.99986,1.25725-.45837.19138-1.02911.40319-1.31959-.10584-.28035-.49123.19489-.89672.54981-1.21719a14.49264,14.49264,0,0,1,2.539-1.83654C509.38084,258.0729,509.79145,258.07964,509.54564,257.667Z" transform="translate(-114.1462 -191.15009)"/><path class="cls-1" d="M564.02711,262.19554a7.11712,7.11712,0,0,1,2.30619-1.05521c1.65274-.44426,2.45849.22913,2.41661,1.95483-1.64057.19464-2.93081,1.26172-4.44154,1.785-.87921.30452-1.72557.7028-2.59148,1.04689-.37183.14775-.757.17866-.987-.22652a.809.809,0,0,1,.22072-1.01067,22.59864,22.59864,0,0,1,2.7008-1.98033C563.81908,262.57465,564.2396,262.61166,564.02711,262.19554Z" transform="translate(-114.1462 -191.15009)"/><path class="cls-1" d="M337.89685,397.4153a32.5515,32.5515,0,0,1-5.36228-10.74535,6.33976,6.33976,0,0,1-.38321-1.85366,1.33643,1.33643,0,0,1,1.78671,1.21314,31.43952,31.43952,0,0,0,3.28063,9.13521,30.04479,30.04479,0,0,0,2.73266,4.09335c.159.21019.35684.38763.34652.67874A23.54275,23.54275,0,0,1,337.89685,397.4153Z" transform="translate(-114.1462 -191.15009)"/><path class="cls-23" d="M123.32725,398.18733a28.17539,28.17539,0,0,1-6.28575-11.1184,10.60569,10.60569,0,0,1-.68317-2.935c1.17224-.22959,1.52715.54877,1.71082,1.44725a33.98529,33.98529,0,0,0,2.32454,7.22938,37.14619,37.14619,0,0,0,2.2875,4.10783C122.92841,397.32093,123.35369,397.64279,123.32725,398.18733Z" transform="translate(-114.1462 -191.15009)"/><path class="cls-24" d="M610.34288,326.13053a65.5159,65.5159,0,0,1-1.02872,8.552c-.36513,2.88519-.81621,5.7595-1.23027,8.6385-.49891,3.46919-1.01261,6.93635-1.49365,10.408-.45555,3.28819-.88236,6.58039-1.30436,9.87307a3.90953,3.90953,0,0,0,.08893.88981q-.44994,1.361-.89995,2.72213a5.89485,5.89485,0,0,1-.46973,1.83829q-6.06369,15.69048-12.085,31.39728a19.08544,19.08544,0,0,1-3.16,5.6973c-.37412.43819-.691,1.03682-1.45134.83017a1.46839,1.46839,0,0,1-.24733-1.38029c1.38794-10.00461,2.83089-20.00145,4.25178-30.00141a4.83457,4.83457,0,0,1,.28739-1.20041c.24711-.48521.70409-.312,1.09636-.34342a1.65966,1.65966,0,0,0,.60661-3.20781c-.36557-.17037-.80986-.22518-1.00721-.6588a13.62313,13.62313,0,0,1,.394-4.12929c1.67026-11.76313,3.38526-23.52,5.02926-35.28679,1.61282-11.5434,3.297-23.07648,4.92183-34.61808a9.59174,9.59174,0,0,1,.2432-1.671c2.50456-1.30286,5.27162-1.75715,7.95985-2.46968a16.1846,16.1846,0,0,0,2.876-.69291l1.80659-.26179c-.514,3.50263-1.04787,7.0025-1.53713,10.50857-.6337,4.54171-1.21675,9.09049-1.85243,13.63191-.25826,1.84493-.59778,3.67852-.90029,5.51728-.327.23371-.64677.05261-.96693-.01926a2.68644,2.68644,0,1,0-.76832,5.27064C609.78869,325.98687,610.10741,325.84879,610.34288,326.13053Z" transform="translate(-114.1462 -191.15009)"/><path class="cls-25" d="M587.56478,406.96582a17.19725,17.19725,0,0,0,4.04224-6.53911q6.24583-16.26758,12.51529-32.52613a6.98379,6.98379,0,0,1,.35255-.68649c.58658.99361.02609,2.00317-.05517,2.97143-.23366,2.78365-.70874,5.54612-1.038,8.32295-.3472,2.92752-.59056,5.86772-.96308,8.79171a51.12852,51.12852,0,0,1-1.29238,7.4967c-1.35816,4.81361-2.91073,9.56245-5.73567,13.7254a24.51018,24.51018,0,0,1-14.67928,10.29007,5.87475,5.87475,0,0,1-.88771.08946q.45-3.624.90023-7.24765c-.0112-.34255.27078-.42382.499-.52648a18.4895,18.4895,0,0,0,5.65285-3.80541A1.54471,1.54471,0,0,1,587.56478,406.96582Z" transform="translate(-114.1462 -191.15009)"/><path class="cls-26" d="M371.06,310.5c-4.53-1.46-8.55.05-12.44,2.18a58.185,58.185,0,0,0-10.8,8.21c-2.59,2.36-5,4.88-7.48,7.34-1.07,1.05-1.98,2.24-2.95,3.39-.69.8.4,1.24.43,1.9-1.17-1.24-1.18-1.4-.08-2.71a115.92831,115.92831,0,0,1,11.92-11.95,46.52134,46.52134,0,0,1,10.82-7.45,17.23106,17.23106,0,0,1,6.81-1.8A5.95065,5.95065,0,0,1,371.06,310.5Z" transform="translate(-114.1462 -191.15009)"/><path class="cls-1" d="M371.06,310.5c-4.53-1.46-8.55.05-12.44,2.18a58.185,58.185,0,0,0-10.8,8.21c-2.59,2.36-5,4.88-7.48,7.34-1.07,1.05-1.98,2.24-2.95,3.39-.69.8.4,1.24.43,1.9-1.58-.51-1.86-2.05-2.57-3.24-.26-.44.24-.67.46-.93a109.105,109.105,0,0,1,10.47-10.71,52.66989,52.66989,0,0,1,11.38-8.42c2.87-1.47,5.86-2.55,9.18-2.19A5.37023,5.37023,0,0,1,371.06,310.5Z" transform="translate(-114.1462 -191.15009)"/><path class="cls-27" d="M564.69264,409.88715a16.60392,16.60392,0,0,1-6.73745-7.21165,18.23867,18.23867,0,0,1-.66517-15.67179q8.26072-21.32349,16.42123-42.6857c.53828-1.40077,1.06583-2.80562,1.59837-4.20851,1.77128-1.8171,3.55773-3.61988,5.30881-5.45632a30.31835,30.31835,0,0,0,3.51535-4.03219,2.21764,2.21764,0,0,1,2.09569.34988c.28192.49711.0384.94822-.13517,1.39994-1.71362,4.45909-3.39425,8.93083-5.12614,13.38293a10.88431,10.88431,0,0,0-.55535,1.83305c-.02428.07093-.0464.163-.10533.19137a3.09814,3.09814,0,0,0-1.72013,4.1559c-2.09232,5.68608-4.328,11.31717-6.48065,16.97993-2.72775,7.17573-5.589,14.30206-8.20847,21.5173a24.40344,24.40344,0,0,0,.40277,17.55425C564.53068,408.58426,565.05641,409.15418,564.69264,409.88715Z" transform="translate(-114.1462 -191.15009)"/><path class="cls-28" d="M586.15377,331.06452c-.60059-.47883-1.42441.05773-2.02-.44356-.08612-.59063.34758-1.42237-.422-1.69763-.67232-.24049-1.24869.33-1.74694.784a35.64388,35.64388,0,0,1-3.91568,3.6639c1.21344-3.22264,2.43747-6.44178,3.6375-9.66988,1.18674-3.19229,2.55686-6.31576,3.5953-9.56368.58835-1.45567,1.28687-2.878,1.7401-4.37446a16.56623,16.56623,0,0,1,3.93825-6.59492,38.26292,38.26292,0,0,1,7.73761-6.49882,8.23125,8.23125,0,0,1,.799-.38447c.36981.43415.10063.85168-.05131,1.25726q-1.631,4.35277-3.332,8.67882a10.95813,10.95813,0,0,0-.44849,1.3837,12.93691,12.93691,0,0,0-.5729,1.95937,2.85828,2.85828,0,0,0-.68787,1.14308q-3.40248,8.88858-6.82238,17.77043C587.2295,329.39015,587.13571,330.484,586.15377,331.06452Z" transform="translate(-114.1462 -191.15009)"/><path class="cls-3" d="M508.60314,293.79751a3.38025,3.38025,0,0,1-1.09567,1.28074C507.11167,294.00118,507.6604,293.731,508.60314,293.79751Z" transform="translate(-114.1462 -191.15009)"/><path class="cls-29" d="M595.41539,307.64188a28.07412,28.07412,0,0,1,1.59208-4.53011c.78332-2.29194,1.86816-4.47488,2.48939-6.82676a10.47173,10.47173,0,0,1,3.38785-1.80518c.34791.29493.26195.70617.21152,1.0558-.49058,3.39765-1.02238,6.78937-1.5113,10.18725-.48921,3.39944-.93091,6.80568-1.41554,10.20581-.48964,3.43578-1.01824,6.866-1.50777,10.30183-.41594,2.91952-.78918,5.8451-1.202,8.76508-.49114,3.47331-1.01118,6.94254-1.50624,10.41532-.48468,3.39986-.94679,6.80293-1.43136,10.20281-.4897,3.436-1.005,6.86843-1.48825,10.30534-.20794,1.47836-.36369,2.96408-.54311,4.44646a1.41165,1.41165,0,0,1-.49207.44333c-1.18993.90046-1.307,1.61222-.46647,2.83444a1.04479,1.04479,0,0,1,.279.59414c-.34018,2.47631-.674,4.95351-1.0221,7.4287-.4054,2.88234-.82349,5.76288-1.23578,8.64426q-.62624,4.37719-1.25162,8.75452c-.33677,2.36419-.6748,4.72822-.99938,7.09409a.7236.7236,0,0,0,.26245.80684,18.34135,18.34135,0,0,1-6.84091,4.68833,29.02369,29.02369,0,0,1-4.8974,1.00967,11.13042,11.13042,0,0,1-2.99751-.08515c-.40262-.46435-.24066-.994-.168-1.50914,1.545-10.945,3.1304-21.88414,4.68747-32.82737q1.63644-11.50176,3.28413-23.00193a7.21938,7.21938,0,0,1,.35238-1.6486c.27856-.50687.85328-.56183,1.28936-.82908a2.546,2.546,0,0,0,1.27738-2.95105,2.67359,2.67359,0,0,0-2.31151-1.95786c-.328-.04183-.67933.00348-.94123-.26807-.48186-.45411.0026-.84843.13617-1.20363,1.78887-4.75747,3.6156-9.50066,5.42831-14.24919a2.0533,2.0533,0,0,0,.29042-1.06823c1.34739-2.7602,2.27471-5.68829,3.39971-8.537,1.61978-4.10146,3.15994-8.2343,4.7561-12.34519.096-.24727-.00926-.90077.6497-.55.33958.11707.50918.43566.76848.64784a1.49876,1.49876,0,0,0,1.97155.09811,1.43189,1.43189,0,0,0,.61538-1.86326,1.63713,1.63713,0,0,0-1.80542-1.05086C596.141,307.50243,595.81075,307.77248,595.41539,307.64188Z" transform="translate(-114.1462 -191.15009)"/><path class="cls-30" d="M610.34288,326.13053a2.93478,2.93478,0,0,1-3.603-1.96731,2.46554,2.46554,0,0,1,.55574-2.75719,2.54289,2.54289,0,0,1,2.87625-1.00768c.35089.11748.71005.21049,1.06541.31478C613.28644,322.84838,612.93373,324.98467,610.34288,326.13053Z" transform="translate(-114.1462 -191.15009)"/><path class="cls-31" d="M581.19056,353.45233c-.33848,2.474-.67105,4.94888-1.017,7.42186q-.61208,4.37469-1.2434,8.74671c-.49345,3.43119-.99827,6.86074-1.49018,10.29215-.41268,2.87845-.81339,5.75861-1.2203,8.63788q-.71991,5.094-1.44263,10.18762c-.4172,2.91483-.85209,5.82712-1.26587,8.74241-.24091,1.69733-.45572,3.39837-.68225,5.09775a18.30842,18.30842,0,0,1-7.68725-2.23541l-.449-.45618a41.90707,41.90707,0,0,1-2.04239-6.41376,26.7784,26.7784,0,0,1,1.63208-15.1089c4.61837-11.8972,9.16741-23.82129,13.74484-35.73437.10549-.27446.14488-.58761.43255-.75881A25.84336,25.84336,0,0,0,581.19056,353.45233Z" transform="translate(-114.1462 -191.15009)"/><path class="cls-2" d="M322.8529,363.13665q-.00066,2.14262-.00135,4.28522A9.66836,9.66836,0,0,1,322.8529,363.13665Z" transform="translate(-114.1462 -191.15009)"/><path class="cls-32" d="M591.81115,374.23744c-1.66893-1.59641-1.39506-3.15708.67949-3.87193a2.044,2.044,0,0,1,2.01006,2.9094C594.03467,374.19059,593.18746,374.50437,591.81115,374.23744Z" transform="translate(-114.1462 -191.15009)"/><path class="cls-33" d="M581.19056,353.45233a3.13253,3.13253,0,0,1-2.73087-1.58112c-.92854-2.03823-.36612-3.34882,1.83919-4.28566,1.99345-.1503,3.41185.75913,3.61814,2.31983C584.16391,351.774,583.249,352.96433,581.19056,353.45233Z" transform="translate(-114.1462 -191.15009)"/><path class="cls-34" d="M595.41539,307.64188c1.26982-.76877,2.299-.65784,2.97693.321a1.88843,1.88843,0,0,1-.36854,2.61977c-1.06817.89874-2.4116.48215-3.06444-.95026C595.02715,308.9496,594.79272,308.19771,595.41539,307.64188Z" transform="translate(-114.1462 -191.15009)"/><path class="cls-34" d="M590.00567,334.62066a5.5714,5.5714,0,0,1,5.61192,5.54954,5.60942,5.60942,0,1,1-11.21832-.10263A5.58331,5.58331,0,0,1,590.00567,334.62066Z" transform="translate(-114.1462 -191.15009)"/></svg>