<svg id="Layer_1" data-name="Layer 1" xmlns="http://www.w3.org/2000/svg" viewBox="0 0 148.03782 99.48027"><defs><style>.cls-1{fill:#00de93;}.cls-2{fill:#8eeecb;}</style></defs><g id="s2DyCh.tif"><path class="cls-1" d="M219.39734,176.64794c2.9778-6.92777,7.31649-13.09307,11.06457-19.58422,8.71594-15.09474,17.63605-30.07157,26.4683-45.0992,1.39685-2.37666,2.93316-4.60857,5.74618-5.47946a8.99852,8.99852,0,0,1,10.9624,4.33139Q286.931,133.331,300.14567,155.89123c3.28051,5.577,6.59955,11.13144,9.87711,16.7102,3.98449,6.7821,1.90634,12.23368-5.52108,14.54981a12.829,12.829,0,0,0-3.41854-.1578q-35.76507-.01458-71.53011-.01628a10.61729,10.61729,0,0,1-3.41059-.18893c-1.32131-.52934-2.91091-.51323-3.82064-1.87933C220.464,182.46785,219.19363,179.81881,219.39734,176.64794Z" transform="translate(-163.97505 -87.93568)"/><path class="cls-2" d="M209.84766,187.3017c-12.33429,0-24.2167.31931-36.072-.10968-8.21977-.29745-12.37464-9.32351-8.08851-16.72638q18.26613-31.54875,36.63628-63.03727,3.83754-6.60233,7.63136-13.23c4.69756-8.24573,14.81542-8.38513,19.66505-.20345,3.70869,6.25681,7.203,12.64263,11.002,18.84277a4.20177,4.20177,0,0,1,.07068,5.059c-8.62167,14.57789-17.13129,29.22207-25.6704,43.84877-1.88385,3.22682-3.59059,6.56969-5.6546,9.6759C205.84848,176.71725,205.11273,181.8718,209.84766,187.3017Z" transform="translate(-163.97505 -87.93568)"/></g></svg>