<svg id="Layer_1" data-name="Layer 1" xmlns="http://www.w3.org/2000/svg" viewBox="0 0 209.64713 209.6471"><defs><style>.cls-1{fill:#3bc6bf;}.cls-2{fill:#fefefe;}</style></defs><g id="iLXidT.tif"><path class="cls-1" d="M115.00841,240.76417q0-103.10365-.0681-206.20722c-.00311-2.51288.51632-3.032,3.029-3.02886q103.10345.12771,206.20712.06807c.65348,1.20457.33183,2.50957.33217,3.76285q.02691,100.735.01036,201.47009c-.00057,4.77968.502,4.277-4.27638,4.27759q-100.735.01223-201.47007-.01036C117.51878,241.096,116.2134,241.4176,115.00841,240.76417Z" transform="translate(-114.9403 -31.52807)"/><path class="cls-2" d="M223.27542,64.17259c8.61067-.10175,17.35432,2.383,25.73087,6.42849,5.97259,2.88447,11.58074,6.391,17.22769,9.84351,1.82315,1.11465,2.42854,1.948.84578,3.89563-4.39306,5.40568-8.6464,10.929-12.81556,16.51-1.27739,1.71-2.23466,1.65493-3.97392.64489-9.10313-5.28646-18.53538-9.69206-29.36467-9.93875-4.03184-.09184-7.8755.48689-11.29036,2.81686-7.76406,5.29743-7.60408,14.97324.795,19.03905,8.654,4.1892,17.7657,7.42792,26.646,11.15674,4.60015,1.93158,9.27713,3.75242,13.6719,6.08883,23.25454,12.36293,28.50145,37.90425,12.05882,58.63546-9.99146,12.59744-23.87729,16.70093-39.17851,17.11946-17.62251.482-33.50822-5.46025-48.64911-13.85757-.81184-.45024-1.60463-.93477-2.40788-1.40062-6.10828-3.54262-6.12586-3.55628-1.62169-9.22,3.82986-4.81586,7.79178-9.52979,11.51121-14.42856,1.16107-1.52921,2.09569-1.34042,3.49363-.66343,6.05964,2.9345,12.07466,5.9775,18.24207,8.669a43.06494,43.06494,0,0,0,24.50759,3.36472c5.31332-.8624,8.94176-3.75214,10.22158-9.12216,1.29893-5.45029-.54957-9.80934-4.89823-13.19764a31.46406,31.46406,0,0,0-7.92589-4.31036c-9.82482-3.87754-19.666-7.71575-29.45028-11.69342-16.07325-6.5343-24.29383-18.5349-23.97417-34.78331.33484-17.01967,10.56557-31.85137,25.94115-37.34107A71.1083,71.1083,0,0,1,223.27542,64.17259Z" transform="translate(-114.9403 -31.52807)"/></g></svg>