<svg id="Layer_1" data-name="Layer 1" xmlns="http://www.w3.org/2000/svg" viewBox="0 0 204.3635 204.39052"><defs><style>.cls-1{fill:#7869f1;}.cls-2{fill:#fefefe;}.cls-3{fill:#796af2;}</style></defs><path class="cls-1" d="M410.329,408.22037q-101.71878,0-203.43754.01876c-.69006.00021-.82727-.13714-.82706-.82719q.03016-101.731.01876-203.46207a1.77292,1.77292,0,0,1,.91769-.08107q38.38068-.00655,76.76135-.004c1.25484,0,1.32252.06636,1.35833,1.34277a22.90928,22.90928,0,0,0,6.31886,15.65145,23.05044,23.05044,0,0,0,31.44658,1.83271,22.56208,22.56208,0,0,0,8.059-14.63543,20.62505,20.62505,0,0,0,.18039-2.7981c.01283-1.33577.08278-1.3934,1.3886-1.39341q26.7218-.00015,53.4436-.00006,11.744,0,23.48794.00021c.967,0,.96842.00139.96842.95569q.00034,101.28273-.00333,202.56548A1.53615,1.53615,0,0,1,410.329,408.22037Z" transform="translate(-206.06438 -203.84861)"/><path class="cls-2" d="M293.39491,337.16594c-.39564,1.79725-.78383,3.53261-1.1593,5.27072q-4.62923,21.42985-9.23718,42.86428c-.18193.84966-.4984,1.12116-1.38931,1.108-3.91346-.05771-7.82832-.03458-11.74252-.0143-.56536.00293-.856-.11512-.98832-.7341q-7.56681-35.399-15.18575-70.78687c-.16232-.75337.04759-.84969.7059-.84619q5.91384.03141,11.82792-.00048c.60854-.00325.87736.13992,1.00094.804q3.87158,20.8047,7.79714,41.59935c.41709,2.21927.84062,4.43733,1.30724,6.899a12.724,12.724,0,0,0,.70488-2.61249q5.14143-22.75181,10.23871-45.51354c.20784-.93146.56312-1.20473,1.503-1.1892,3.54461.0586,7.09085.03633,10.63625.01162.6194-.00431.8722.16465,1.00155.81112q4.81036,24.04024,9.66947,48.07072c.05545.2751.13175.546.21234.87632.40924-.35287.34924-.81622.43039-1.199q5.05806-23.85819,10.07138-47.72584c.14057-.66992.42044-.84112,1.07289-.83591,3.77225.03008,7.54486.01415,11.31735.01482,1.09608.00018,1.09739.002.85251,1.02848q-4.52523,18.96862-9.05145,37.937-3.87657,16.241-7.745,32.484c-.1527.64381-.35856.926-1.0994.91754-3.91381-.045-7.82849-.03526-11.7426-.007-.64477.00463-.86187-.21027-.98713-.83293q-4.81027-23.9104-9.66286-47.81228C293.71641,337.56724,293.75822,337.34391,293.39491,337.16594Z" transform="translate(-206.06438 -203.84861)"/><path class="cls-2" d="M360.20439,314.03778c3.2337,0,6.46782.02816,9.70079-.02049a1.10563,1.10563,0,0,1,1.27831.96675q5.66973,19.45608,11.38053,38.90021,4.59883,15.69717,9.19981,31.39369c.32356,1.104.32388,1.10555-.84337,1.10578-3.99957.00073-7.99924-.01315-11.99864.01419a.91205.91205,0,0,1-1.05731-.79329c-1.35515-4.82608-2.75422-9.63983-4.10915-14.466-.17731-.63162-.39384-.90294-1.12778-.89954q-11.27515.05236-22.55064.00333c-.72251-.00282-.94518.22423-1.09185.90972-1.02527,4.79191-2.11782,9.56942-3.1475,14.36043-.14866.69167-.41609.89539-1.119.88887q-5.87121-.05471-11.74311-.00048c-.78247.00744-.94411-.16113-.75488-.93817q5.31812-21.838,10.591-43.68691,3.21894-13.297,6.41945-26.59833c.20486-.85918.49735-1.1889,1.443-1.16733C353.84942,314.08266,357.02742,314.03777,360.20439,314.03778Z" transform="translate(-206.06438 -203.84861)"/><path class="cls-3" d="M360.88223,358.3704c-2.77811.00006-5.55633-.01281-8.33425.01057-.58.00488-.77812-.07059-.62791-.73675q2.82063-12.509,5.57342-25.03332c.12839-.58317.35079-.79211.95418-.77388,1.41611.0428,2.83472.03117,4.25163.00457a.7035.7035,0,0,1,.81871.63012q3.20133,12.59189,6.43468,25.17565c.1383.53866.04925.74164-.56614.73549C366.552,358.35446,363.717,358.37034,360.88223,358.3704Z" transform="translate(-206.06438 -203.84861)"/></svg>